<svg width="476" height="912" viewBox="0 0 476 912" fill="none" xmlns="http://www.w3.org/2000/svg">
<path d="M70.021 254.5C76.8544 279.167 92.021 332.1 98.021 346.5C105.521 364.5 132.89 390.346 159.521 399.5C168.541 402.601 179.547 404.708 191.521 405.52M324.521 327.5C321.188 336.5 310.573 362.249 285.021 381.5C278.865 386.138 272.125 390.037 265.021 393.261M236.521 276.5C233.521 270.5 229.321 253.9 236.521 235.5C245.521 212.5 272.021 208.5 288.021 212.5C304.021 216.5 316.521 227 318.521 238.5C320.521 250 314.521 260 307.521 265C300.521 270 285.521 282.5 246.021 276.5M159.521 280.5C157.354 268.833 149.021 243.5 133.021 235.5C113.021 225.5 90.521 232 85.021 246C79.521 260 83.021 278 95.021 285.5C107.021 293 124.521 299 139.521 295C154.521 291 157.521 286.5 159.521 282.5M171.021 285.5C167.854 286.667 162.021 291.2 164.021 300C166.021 308.8 174.521 310.333 178.521 310M178.521 342.5C181.521 346.167 191.721 352.8 208.521 350C225.321 347.2 240.521 333.833 246.021 327.5M340.521 235.5C343.354 227 355.221 209.2 380.021 206C411.021 202 425.021 242.5 414.021 270C403.021 297.5 380.021 320.5 337.021 322M224.021 406.5V413.75M230.021 435.5L224.021 421V413.75M230.021 435.5C237.688 427.833 255.421 411.9 265.021 409.5M230.021 435.5C226.521 439.833 218.421 451.7 214.021 464.5C209.621 477.3 207.188 487.5 206.521 491L222.021 494C222.354 481.75 224.421 452.9 230.021 435.5ZM230.021 435.5C231.188 448 233.521 474.8 233.521 482C233.521 489.2 231.188 505.333 230.021 512.5L243.521 515C245.188 508.333 248.021 491.6 246.021 478C244.021 464.4 234.521 444 230.021 435.5ZM265.021 409.5V393.261M265.021 409.5C269.854 410.5 281.521 414.8 289.521 424C288.992 424.619 288.421 425.288 287.814 426M265.021 393.261C241.877 403.763 214.861 407.103 191.521 405.52M233.521 439C237.021 439 241.021 448 246.021 457C250.021 464.2 256.021 462.667 258.521 461C264.116 453.913 279.421 435.84 287.814 426M224.021 413.75C218.521 414.667 206.121 418.4 200.521 426C199.893 429.394 199.169 434.181 198.727 439M224.021 439C218.021 436 214.021 448.5 208.521 454.5C203.021 460.5 205.521 461 200.521 457C198.029 455.007 197.995 446.96 198.727 439M287.814 426C291.549 426.833 300.421 431.1 306.021 441.5C313.021 454.5 321.021 476 324.521 485C328.021 494 338.521 516 340.521 523.5C342.121 529.5 338.188 566 336.021 583.5M280.521 450C278.09 453 274.687 461.6 280.521 472C287.814 485 303.021 522 297.521 535.5M295.021 544.5L289.521 562.5M273.521 603C300.321 604.2 322.688 619.167 330.521 626.5L347.521 598.5C342.021 591.333 327.221 575.2 312.021 568C296.821 560.8 284.688 563.333 280.521 565.5L273.521 603ZM273.521 603C266.021 601.833 248.921 601.3 240.521 608.5C230.021 617.5 226.021 632 224.021 640.5C222.021 649 226.521 660.5 233.521 666C233.146 668.327 233.108 671.905 234.094 675.5M330.521 638.5C330.521 650.5 324.521 673 300.521 681C298.604 681.639 296.771 682.177 295.021 682.625M191.521 478C190.188 512.5 183.421 587.9 167.021 613.5M164.021 622.5C164.525 626.132 166.581 631.963 171.143 636M183.521 640.5C178.154 640.5 174.116 638.631 171.143 636M198.727 439C194.825 440.5 185.321 449.2 178.521 472C170.021 500.5 164.521 541.5 149.521 565.5M171.521 578.5C163.854 576.5 147.321 570.5 142.521 562.5M137.021 568C135.688 574.167 132.221 587.5 129.021 591.5C125.652 595.711 126.539 601.341 130.787 606M159.521 613.5C150.816 615.5 140.021 613.5 133.521 608.5C132.496 607.711 131.582 606.873 130.787 606M130.787 606C127.365 611.167 120.221 623.9 119.021 633.5C117.521 645.5 123.021 646.5 126.021 650.5C129.021 654.5 129.521 669 139.521 672.5C149.521 676 162.521 672 167.021 669M139.521 631.5C139.521 634.833 141.521 641.7 149.521 642.5C157.521 643.3 159.521 638.5 159.521 636M171.143 636C164.602 702 150.321 836.3 145.521 845.5C139.521 857 108.021 887 104.021 893.5C100.021 900 99.021 907 113.021 907.5C124.221 907.9 180.688 898.333 207.521 893.5M212.521 884.5L222.021 675.5M253.021 687.67C249.982 688.039 246.743 687.789 243.521 686.5C238.025 684.302 235.298 679.888 234.094 675.5M253.021 687.67C259.415 686.893 264.923 683.372 267.521 681C270.221 683.4 279.242 686.665 295.021 682.625M253.021 687.67L282.521 880M312.021 687.67C317.188 731.114 329.421 821.2 337.021 834C341.521 839.833 354.021 854 368.021 864C385.521 876.5 409.021 896.5 401.521 903C394.021 909.5 374.021 909 353.021 906C336.221 903.6 313.688 896.667 304.521 893.5M218.021 521.5L280.521 533.5M350.021 548L376.521 553.5C379.688 554 386.721 556.5 389.521 562.5C393.021 570 379.521 661.5 370.021 679M364.521 686.5C363.521 688.333 360.121 691.9 354.521 691.5C348.921 691.1 312.521 685.417 295.021 682.625M211.521 521.5L189.521 656.5M189.521 663C189.325 666.167 190.891 672.5 198.727 672.5C206.562 672.5 225.57 674.5 234.094 675.5M222.021 533.5L200.521 653.5M361.521 202C340.521 231.5 296.521 215.363 279.021 202C261.521 188.637 257.021 146.5 247.021 122C237.021 97.5 217.021 69 186.021 71C161.221 72.6 155.021 91 155.021 100C163.188 90.1667 188.421 75.2 224.021 94M98.021 105.5C97.021 99.1667 99.521 85.5 117.521 81.5C135.521 77.5 147.021 92.1667 150.521 100C143.521 94.6667 127.121 87.2 117.521 100M155.021 108.5C144.188 106.167 117.621 107 98.021 129C78.421 151 77.1877 175.167 79.021 184.5C81.021 199.704 82.221 233.29 71.021 246C62.3888 255.796 51.4201 254.43 44.021 251.169M38.521 248C39.9348 249.061 41.82 250.199 44.021 251.169M44.021 251.169C36.521 254.113 23.221 267 30.021 295C31.6621 301.757 33.9555 307.564 36.7358 312.5M85.021 334.5C68.479 338.535 48.3557 333.128 36.7358 312.5M25.521 241.5C18.6877 228.333 10.521 187.4 32.521 129C54.521 70.6 88.021 47.3334 102.021 43M112.521 33C122.521 23.8334 155.321 5.20004 206.521 4.00004C257.721 2.80004 279.188 19.1667 283.521 27.5M298.521 39C314.021 36.3333 350.821 39.9 374.021 75.5C403.021 120 400.021 139 403.521 154C407.021 169 408.521 195.5 426.521 215.5C444.521 235.5 486.021 249.5 467.521 291C454.677 319.811 433.876 327.36 421.521 327.763M416.521 327.5C417.953 327.72 419.639 327.825 421.521 327.763M421.521 327.763C430.188 337.676 444.421 362.7 432.021 383.5C416.521 409.5 397.521 412.5 378.521 409.5C359.521 406.5 356.521 402.5 348.521 404.5C340.521 406.5 337.521 420 318.521 418.5C303.321 417.3 286.854 405.333 280.521 399.5M36.7358 312.5C33.8309 319.833 26.321 336.9 19.521 346.5C11.021 358.5 2.52103 374.5 3.02103 387C3.52103 399.5 14.521 417 33.021 428C51.521 439 84.021 446.5 110.021 423M113.021 411.5C119.188 418.333 137.121 431.6 159.521 430C181.921 428.4 190.188 413.013 191.521 405.52" stroke="black" stroke-width="6" stroke-linecap="round" stroke-linejoin="round"/>
<path d="M232.521 172C224.521 174 221.521 178.833 221.021 181C244.221 174.6 279.354 183.667 294.021 189C285.521 181 242.521 169.5 232.521 172Z" stroke="black" stroke-width="4" stroke-linecap="round" stroke-linejoin="round"/>
<path d="M95.021 192C107.421 184.4 120.854 188.833 126.021 192C106.421 192 81.1877 206.667 71.021 214C73.8543 209.833 82.621 199.6 95.021 192Z" stroke="black" stroke-width="4" stroke-linecap="round" stroke-linejoin="round"/>
<path d="M196.021 232.5C195.378 237.202 195.099 243.564 195.684 250.5M196.021 225C197.854 219.333 211.821 208 253.021 208C304.521 208 314.021 221 316.521 225C319.021 229 332.521 246 314.021 276.5C295.521 307 252.521 310 221.021 295C203.304 286.563 197.071 266.923 195.684 250.5M166.521 250.5C170.63 248 182.215 244.5 195.684 250.5M60.021 235.5C60.1877 233.667 65.021 229.5 83.021 227.5C105.521 225 132.521 217.5 150.521 229.5C168.521 241.5 170.521 281.5 150.521 304.5C130.521 327.5 93.021 320 76.521 310C60.021 300 54.021 253.5 57.021 241.5" stroke="#BA2424" stroke-width="6" stroke-linecap="round"/>
<path d="M246.521 247.5C244.121 222.7 259.188 213.833 267.021 212.5C275.021 209.259 313.021 209 318.021 239.5C322.021 263.9 292.354 274.333 277.021 276.5C267.854 277.167 248.921 272.3 246.521 247.5Z" fill="black"/>
<path d="M96.521 247.5C101.321 231.1 112.854 229.667 118.021 231C147.621 235 157.688 268 159.021 284C156.688 286 149.821 290.9 141.021 294.5C132.221 298.1 118.354 294.667 112.521 292.5C107.021 286.5 90.521 268 96.521 247.5Z" fill="black"/>
<path d="M282.521 231C280.521 226.2 285.354 224 288.021 223.5C295.256 222.143 296.288 225.932 295.521 229C294.521 233 284.396 235.5 282.521 231Z" fill="white"/>
<path d="M126.993 251.783C124.993 246.983 129.827 244.783 132.493 244.283C139.729 242.927 140.76 246.716 139.993 249.783C138.993 253.783 128.868 256.283 126.993 251.783Z" fill="white"/>
</svg>
