<?xml version="1.0" encoding="utf-8"?>
<!-- Generator: Adobe Illustrator 16.0.0, SVG Export Plug-In . SVG Version: 6.00 Build 0)  -->
<!DOCTYPE svg PUBLIC "-//W3C//DTD SVG 1.1//EN" "http://www.w3.org/Graphics/SVG/1.1/DTD/svg11.dtd">
<svg version="1.1" id="Layer_1" xmlns="http://www.w3.org/2000/svg" xmlns:xlink="http://www.w3.org/1999/xlink" x="0px" y="0px"
	 width="50px" height="50px" viewBox="0 0 50 50" enable-background="new 0 0 50 50" xml:space="preserve">
<g>
	<path fill="#CCCCCC" d="M5.74,3.41h21.72c6.24,0,10.92,1.86,14.04,5.58c3.12,3.72,4.68,8.8,4.68,15.24
		c0,3.081-0.351,5.94-1.05,8.581c-0.7,2.64-1.79,4.971-3.27,6.989c-1.48,2.021-3.391,3.601-5.73,4.74s-5.11,1.71-8.31,1.71H5.74
		V3.41z M27.521,40.73c2.479,0,4.539-0.471,6.18-1.41c1.64-0.939,2.899-2.19,3.78-3.75c0.879-1.561,1.489-3.279,1.83-5.16
		c0.339-1.88,0.51-3.9,0.51-6.06c0-2.08-0.201-4.02-0.601-5.82c-0.4-1.8-1.101-3.429-2.1-4.89c-1-1.46-2.391-2.61-4.17-3.45
		c-1.78-0.84-3.99-1.26-6.63-1.26H12.1v31.8H27.521z"/>
</g>
</svg>
