<?xml version="1.0" encoding="utf-8"?>
<!-- Generator: Adobe Illustrator 16.0.0, SVG Export Plug-In . SVG Version: 6.00 Build 0)  -->
<!DOCTYPE svg PUBLIC "-//W3C//DTD SVG 1.1//EN" "http://www.w3.org/Graphics/SVG/1.1/DTD/svg11.dtd">
<svg version="1.1" id="Layer_1" xmlns="http://www.w3.org/2000/svg" xmlns:xlink="http://www.w3.org/1999/xlink" x="0px" y="0px"
	 width="50px" height="50px" viewBox="0 0 50 50" enable-background="new 0 0 50 50" xml:space="preserve">
<g>
	<path fill="#CCCCCC" d="M27.98,23.9h19.68V47h-4.56l-1.08-6.12c-0.84,0.96-1.731,1.851-2.67,2.67c-0.94,0.82-2.062,1.57-3.36,2.25
		c-1.301,0.681-2.82,1.229-4.561,1.65c-1.739,0.42-3.689,0.63-5.849,0.63c-4.08,0-7.59-0.66-10.53-1.98S9.76,43.051,8,40.91
		c-1.761-2.14-3.041-4.479-3.84-7.02c-0.8-2.541-1.2-5.07-1.2-7.591c0-3.999,0.62-7.479,1.86-10.44C6.06,12.9,7.75,10.48,9.891,8.6
		c2.139-1.88,4.539-3.27,7.2-4.17c2.66-0.9,5.43-1.35,8.31-1.35c2.4,0,4.71,0.22,6.93,0.66c2.221,0.44,4.32,1.2,6.301,2.28
		c1.979,1.08,3.699,2.58,5.159,4.5s2.51,4.3,3.15,7.14h-6.72c-1-3.04-2.67-5.31-5.01-6.81S29.699,8.6,25.7,8.6
		c-2.72,0-5.121,0.45-7.2,1.35c-2.081,0.9-3.801,2.15-5.16,3.75c-1.36,1.6-2.37,3.43-3.03,5.49c-0.66,2.061-0.99,4.25-0.99,6.57
		c0,2.92,0.43,5.461,1.29,7.62c0.86,2.16,2.06,3.911,3.6,5.25c1.54,1.341,3.309,2.331,5.31,2.97c2,0.641,4.16,0.961,6.479,0.961
		c4.561,0,8.289-1.221,11.19-3.66c2.899-2.439,4.51-5.6,4.83-9.48H27.98V23.9z"/>
</g>
</svg>
