<?xml version="1.0" encoding="utf-8"?>
<!-- Generator: Adobe Illustrator 16.0.0, SVG Export Plug-In . SVG Version: 6.00 Build 0)  -->
<!DOCTYPE svg PUBLIC "-//W3C//DTD SVG 1.1//EN" "http://www.w3.org/Graphics/SVG/1.1/DTD/svg11.dtd">
<svg version="1.1" id="Layer_1" xmlns="http://www.w3.org/2000/svg" xmlns:xlink="http://www.w3.org/1999/xlink" x="0px" y="0px"
	 width="50px" height="150px" viewBox="0 0 50 150" enable-background="new 0 0 50 150" xml:space="preserve">
<g>
	<g>
		<path d="M24.5,139.5c-0.276,0-0.5-0.224-0.5-0.5V72c0-0.276,0.224-0.5,0.5-0.5S25,71.724,25,72v67
			C25,139.276,24.776,139.5,24.5,139.5z"/>
	</g>
	<g>
		<path d="M24.571,140.239c-0.161,0-0.319-0.077-0.416-0.221l-4.165-6.198c-0.154-0.229-0.093-0.54,0.136-0.694
			c0.229-0.155,0.54-0.094,0.694,0.136l4.165,6.198c0.154,0.229,0.093,0.54-0.136,0.694
			C24.764,140.212,24.667,140.239,24.571,140.239z"/>
	</g>
	<g>
		<path d="M24.555,140.239c-0.096,0-0.193-0.027-0.278-0.085c-0.229-0.154-0.29-0.465-0.136-0.694l4.165-6.198
			c0.155-0.23,0.467-0.287,0.694-0.136c0.229,0.154,0.29,0.465,0.136,0.694l-4.165,6.198
			C24.874,140.162,24.716,140.239,24.555,140.239z"/>
	</g>
</g>
<g>
	<path d="M27.993,53.159c0.511-0.831,0.938-2.045,0.938-3.323c0-1.896-1.002-3.003-2.45-3.003c-1.342,0-2.109,0.767-2.855,2.706
		c-0.83,2.343-2.044,3.792-4.068,3.792c-2.236,0-3.898-1.853-3.898-4.644c0-1.47,0.341-2.535,0.703-3.174l1.513,0.511
		c-0.256,0.468-0.682,1.427-0.682,2.727c0,1.959,1.171,2.705,2.151,2.705c1.342,0,2.002-0.874,2.769-2.854
		c0.938-2.428,2.108-3.664,4.217-3.664c2.216,0,4.133,1.64,4.133,5.027c0,1.385-0.404,2.897-0.916,3.664L27.993,53.159z"/>
	<path d="M29.867,34.99c0.256,0.49,0.597,1.576,0.597,2.961c0,3.11-2.108,5.133-5.262,5.133c-3.173,0-5.474-2.173-5.474-5.538
		c0-1.108,0.277-2.088,0.533-2.599l1.448,0.426c-0.255,0.447-0.49,1.15-0.49,2.173c0,2.364,1.747,3.643,3.897,3.643
		c2.386,0,3.856-1.534,3.856-3.579c0-1.065-0.276-1.768-0.511-2.301L29.867,34.99z"/>
	<path d="M23.158,32.797c-1.214,0-2.258,0.021-3.216,0.085v-1.64l2.023-0.064v-0.085c-1.385-0.468-2.258-1.598-2.258-2.854
		c0-0.213,0.021-0.362,0.063-0.533h1.768c-0.042,0.192-0.064,0.383-0.064,0.639c0,1.321,1.001,2.258,2.407,2.513
		c0.256,0.043,0.554,0.085,0.873,0.085h5.497v1.853H23.158z"/>
	<path d="M25.01,16.716c3.814,0,5.475,2.641,5.475,5.133c0,2.791-2.045,4.942-5.304,4.942c-3.451,0-5.474-2.258-5.474-5.112
		C19.707,18.718,21.858,16.716,25.01,16.716z M25.117,24.896c2.258,0,3.962-1.299,3.962-3.131c0-1.79-1.683-3.131-4.004-3.131
		c-1.747,0-3.962,0.874-3.962,3.088C21.113,23.937,23.158,24.896,25.117,24.896z"/>
	<path d="M15.127,14.353v-1.875h15.124v1.875H15.127z"/>
	<path d="M15.127,9.326V7.452h15.124v1.875H15.127z"/>
</g>
</svg>
