<?xml version="1.0" encoding="utf-8"?>
<!-- Generator: Adobe Illustrator 16.0.0, SVG Export Plug-In . SVG Version: 6.00 Build 0)  -->
<!DOCTYPE svg PUBLIC "-//W3C//DTD SVG 1.1//EN" "http://www.w3.org/Graphics/SVG/1.1/DTD/svg11.dtd">
<svg version="1.1" id="Layer_1" xmlns="http://www.w3.org/2000/svg" xmlns:xlink="http://www.w3.org/1999/xlink" x="0px" y="0px"
	 width="50px" height="150px" viewBox="0 0 50 150" enable-background="new 0 0 50 150" xml:space="preserve">
<g>
	<path d="M24.5,139.5c-0.276,0-0.5-0.224-0.5-0.5V72c0-0.276,0.224-0.5,0.5-0.5S25,71.724,25,72v67
		C25,139.276,24.776,139.5,24.5,139.5z"/>
</g>
<g>
	<path d="M24.571,140.239c-0.161,0-0.319-0.077-0.416-0.221l-4.165-6.198c-0.154-0.229-0.093-0.54,0.136-0.694
		c0.229-0.155,0.54-0.094,0.694,0.136l4.165,6.198c0.154,0.229,0.093,0.54-0.136,0.694
		C24.764,140.212,24.667,140.239,24.571,140.239z"/>
</g>
<g>
	<path d="M24.555,140.239c-0.096,0-0.193-0.027-0.278-0.085c-0.229-0.154-0.29-0.465-0.136-0.694l4.165-6.198
		c0.155-0.23,0.467-0.287,0.694-0.136c0.229,0.154,0.29,0.465,0.136,0.694l-4.165,6.198
		C24.874,140.162,24.716,140.239,24.555,140.239z"/>
</g>
<g>
	<path d="M27.455,53.684c0.314-0.511,0.576-1.257,0.576-2.042c0-1.165-0.615-1.846-1.506-1.846c-0.824,0-1.295,0.471-1.754,1.662
		c-0.51,1.44-1.257,2.33-2.5,2.33c-1.375,0-2.396-1.139-2.396-2.854c0-0.903,0.209-1.558,0.432-1.951l0.93,0.314
		c-0.157,0.288-0.419,0.877-0.419,1.676c0,1.205,0.72,1.663,1.322,1.663c0.825,0,1.23-0.537,1.702-1.755
		c0.576-1.492,1.296-2.252,2.591-2.252c1.362,0,2.54,1.009,2.54,3.09c0,0.852-0.249,1.781-0.563,2.252L27.455,53.684z"/>
	<path d="M28.607,42.516c0.157,0.302,0.366,0.969,0.366,1.82c0,1.911-1.296,3.155-3.233,3.155c-1.951,0-3.364-1.336-3.364-3.404
		c0-0.681,0.17-1.283,0.327-1.597l0.89,0.262c-0.157,0.274-0.301,0.707-0.301,1.335c0,1.453,1.073,2.239,2.396,2.239
		c1.466,0,2.37-0.943,2.37-2.2c0-0.654-0.171-1.086-0.314-1.413L28.607,42.516z"/>
	<path d="M24.483,41.167c-0.746,0-1.388,0.013-1.977,0.053v-1.009l1.244-0.039V40.12c-0.851-0.288-1.388-0.982-1.388-1.755
		c0-0.131,0.013-0.223,0.039-0.327h1.087c-0.026,0.118-0.04,0.235-0.04,0.393c0,0.812,0.615,1.388,1.479,1.545
		c0.157,0.026,0.34,0.053,0.537,0.053h3.377v1.139H24.483z"/>
	<path d="M25.623,31.282c2.343,0,3.364,1.624,3.364,3.155c0,1.715-1.257,3.037-3.259,3.037c-2.121,0-3.365-1.388-3.365-3.142
		C22.363,32.513,23.685,31.282,25.623,31.282z M25.688,36.31c1.388,0,2.435-0.799,2.435-1.925c0-1.1-1.034-1.924-2.461-1.924
		c-1.074,0-2.436,0.536-2.436,1.898C23.227,35.721,24.483,36.31,25.688,36.31z"/>
	<path d="M19.548,29.829v-1.152h9.295v1.152H19.548z"/>
	<path d="M19.548,26.739v-1.152h9.295v1.152H19.548z"/>
</g>
</svg>
