<svg width="24" height="24" viewBox="0 0 24 24" fill="none" xmlns="http://www.w3.org/2000/svg">
<g clip-path="url(#clip0_660_2)">
<path d="M4.45926 4.20775C5.20526 4.81375 5.48526 4.76775 6.88726 4.67375L20.1023 3.88075C20.3823 3.88075 20.1493 3.60075 20.0563 3.55475L17.8603 1.96775C17.4403 1.64175 16.8793 1.26775 15.8053 1.36075L3.01026 2.29475C2.54426 2.34075 2.45026 2.57475 2.63626 2.76075L4.45926 4.20775ZM5.25226 7.28775V21.1918C5.25226 21.9388 5.62526 22.2188 6.46626 22.1718L20.9893 21.3318C21.8303 21.2858 21.9243 20.7718 21.9243 20.1648V6.35375C21.9243 5.74775 21.6913 5.42075 21.1763 5.46675L5.99926 6.35375C5.43926 6.40075 5.25226 6.68075 5.25226 7.28675V7.28775ZM19.5893 8.03275C19.6823 8.45275 19.5893 8.87275 19.1693 8.92075L18.4693 9.06075V19.3248C17.8613 19.6518 17.3013 19.8388 16.8343 19.8388C16.0863 19.8388 15.8993 19.6048 15.3393 18.9058L10.7623 11.7198V18.6718L12.2103 18.9998C12.2103 18.9998 12.2103 19.8398 11.0423 19.8398L7.82026 20.0258C7.72726 19.8398 7.82026 19.3728 8.14726 19.2798L8.98726 19.0468V9.85375L7.82226 9.75975C7.72826 9.33975 7.96226 8.73375 8.61526 8.68675L12.0713 8.45375L16.8353 15.7328V9.29275L15.6203 9.15375C15.5273 8.63975 15.9003 8.26675 16.3673 8.22075L19.5893 8.03275ZM1.93626 1.03475L15.2463 0.0547519C16.8803 -0.0852481 17.3013 0.00775194 18.3283 0.754752L22.5773 3.74075C23.2773 4.25375 23.5113 4.39375 23.5113 4.95375V21.3318C23.5113 22.3578 23.1383 22.9658 21.8313 23.0578L6.37326 23.9918C5.39326 24.0388 4.92526 23.8988 4.41126 23.2448L1.28226 19.1848C0.722258 18.4378 0.489258 17.8788 0.489258 17.2248V2.66675C0.489258 1.82775 0.863258 1.12675 1.93626 1.03475V1.03475Z" fill="white"/>
</g>
<defs>
<clipPath id="clip0_660_2">
<rect width="24" height="24" fill="white"/>
</clipPath>
</defs>
</svg>
