<svg width="26" height="26" viewBox="0 0 26 26" fill="none" xmlns="http://www.w3.org/2000/svg">
<path id="Vector" fill-rule="evenodd" clip-rule="evenodd" d="M12.9954 0C9.90923 0.00160124 6.92425 1.09466 4.57421 3.08373C2.22418 5.0728 0.662336 7.82818 0.167947 10.8572C-0.326442 13.8862 0.278861 16.9912 1.87563 19.6172C3.47241 22.2431 5.95652 24.2187 8.88378 25.1907C9.52958 25.3106 9.77284 24.9103 9.77284 24.57C9.77284 24.2297 9.75992 23.2429 9.75561 22.1642C6.13912 22.9454 5.37492 20.638 5.37492 20.638C4.78509 19.1397 3.93263 18.7459 3.93263 18.7459C2.75296 17.9454 4.0209 17.9603 4.0209 17.9603C5.32757 18.0524 6.01428 19.2938 6.01428 19.2938C7.17241 21.2695 9.05599 20.698 9.79651 20.3641C9.91276 19.5271 10.2507 18.9578 10.6231 18.6346C7.73426 18.3092 4.69898 17.2005 4.69898 12.2475C4.68108 10.963 5.16046 9.72081 6.03795 8.7779C5.90449 8.45256 5.45888 7.13834 6.16495 5.35322C6.16495 5.35322 7.25637 5.00647 9.74055 6.67814C11.8713 6.09876 14.1195 6.09876 16.2502 6.67814C18.7323 5.00647 19.8215 5.35322 19.8215 5.35322C20.5297 7.13405 20.0842 8.44828 19.9507 8.7779C20.8309 9.72096 21.3113 10.9653 21.2918 12.2518C21.2918 17.2155 18.2501 18.3092 15.3569 18.6282C15.8218 19.0306 16.2373 19.8161 16.2373 21.0233C16.2373 22.7528 16.2223 24.144 16.2223 24.57C16.2223 24.9146 16.4569 25.317 17.1156 25.1907C20.0432 24.2186 22.5276 22.2427 24.1243 19.6163C25.7211 16.9899 26.326 13.8843 25.8311 10.8551C25.3361 7.82579 23.7735 5.07038 21.4227 3.08166C19.0719 1.09293 16.0862 0.000586294 12.9997 0H12.9954Z" fill="black"/>
</svg>
