<svg width="22" height="22" viewBox="0 0 22 22" fill="none" xmlns="http://www.w3.org/2000/svg">
<path id="Vector" d="M11 2.33297L7.53336 5.79965L9.2667 7.53299L12.7334 4.06631C14.1634 2.63631 16.5034 2.63631 17.9334 4.06631C19.3634 5.49631 19.3634 7.83632 17.9334 9.26632L14.4667 12.733L16.2001 14.4663L19.6667 10.9997C22.0587 8.60766 22.0587 4.72498 19.6667 2.33297C17.2747 -0.0590361 13.392 -0.0590359 11 2.33297ZM12.7334 14.4663L9.2667 17.933C7.8367 19.363 5.49669 19.363 4.06668 17.933C2.63668 16.503 2.63668 14.163 4.06668 12.733L7.53336 9.26632L5.80002 7.53299L2.33335 10.9997C-0.0586609 13.3917 -0.0586609 17.2743 2.33335 19.6664C4.72535 22.0584 8.60803 22.0584 11 19.6664L14.4667 16.1997L12.7334 14.4663ZM6.66669 13.5997L13.6 6.66632L15.3334 8.39966L8.40003 15.333L6.66669 13.5997Z" fill="black"/>
</svg>
