<svg width="398" height="687" viewBox="0 0 398 687" fill="none" xmlns="http://www.w3.org/2000/svg">
<path d="M357.12 81.48H313.38C313.91 82 314.44 82.52 314.96 83.04C345.94 114.01 363 155.2 363 199V488C363 531.81 345.94 572.99 314.96 603.97C283.99 634.94 242.81 652 199 652C198.35 652 197.71 652 197.06 651.99H196.95C153.91 651.46 113.53 634.46 83.03 603.97C52.06 572.99 35 531.81 35 488V199C35 155.2 52.06 114.01 83.03 83.04C83.55 82.52 84.08 82 84.61 81.48H40.88C16.45 114.29 2 154.96 2 199V488C2 596.8 90.2 685 199 685C253.4 685 302.65 662.95 338.3 627.3C373.95 591.65 396 542.4 396 488V199C396 154.96 381.55 114.29 357.12 81.48Z" fill="white" stroke="#1941B8" stroke-width="4" stroke-miterlimit="10"/>
<path d="M357.12 81.48H40.88C76.79 33.24 134.24 2 199 2C263.76 2 321.21 33.24 357.12 81.48Z" fill="white" stroke="#1941B8" stroke-width="4" stroke-miterlimit="10"/>
<path d="M175.01 62.84H222.99" stroke="#1941B8" stroke-width="4" stroke-miterlimit="10" stroke-linecap="round"/>
<path d="M253.36 443.73H283.96L265.98 506.33H230.24" fill="white"/>
<path d="M253.36 443.73H283.96L265.98 506.33H230.24" stroke="#1941B8" stroke-width="4" stroke-miterlimit="10"/>
<path d="M286.28 360.85L175.5 650.33C174.11 650.14 172.73 649.93 171.35 649.69C138.06 644.08 107.38 628.32 83.03 603.97C60.58 581.51 45.44 553.69 38.81 523.39C38.69 522.85 38.57 522.31 38.46 521.77L194.48 392.17L232.17 360.85H286.28V360.85Z" fill="white" stroke="#1941B8" stroke-width="4" stroke-miterlimit="10"/>
<path d="M194.48 392.17H274.05" stroke="#1941B8" stroke-width="4" stroke-miterlimit="10"/>
</svg>
