<svg width="241" height="128" viewBox="0 0 241 128" fill="none" xmlns="http://www.w3.org/2000/svg">
<path d="M99.0735 60.6545C84.4719 60.5282 53.9753 60.0967 48.802 59.3813C42.3354 58.487 10.4793 28.2991 3.42799 25.0524C-1.43427 33.1255 8.97539 52.3971 7.64931 54.5988C6.32323 56.8006 0.441267 58.2588 4.1131 60.4702C7.78493 62.6817 63.1688 87.037 70.0775 87.1973C76.9862 87.3577 108.442 88.3004 162.243 88.6988C216.044 89.0972 238.83 87.8188 238.987 80.9122C239.144 74.0055 224.891 69.4222 214.018 65.8742C205.32 63.0357 159.341 61.9472 137.438 61.7577L85.9252 2.72831L104.499 69.9233M113.569 101.39L120.15 125.356L143.114 102.182" stroke="white" stroke-width="4" stroke-linecap="round" stroke-linejoin="round"/>
</svg>
