<svg width="1814" height="391" viewBox="0 0 1814 391" fill="none" xmlns="http://www.w3.org/2000/svg">
<path d="M85.2389 268.361C85.2389 268.361 51.6476 229.667 75.1171 182.15C98.5949 134.633 158.739 159.326 158.739 159.326C158.739 159.326 110.577 54.8232 196.134 13.0541C281.7 -28.7988 365.967 39.6824 364.024 84.6942C364.024 84.6942 432.421 58.711 457.843 88.4982C483.181 118.285 474.358 134.231 474.358 134.231C474.358 134.231 490.227 114.481 525.034 130.912C559.923 147.427 588.412 194.291 588.412 194.291C588.412 194.291 591.571 141.026 647.341 137.867C703.111 134.708 724.645 177.131 724.645 177.131C724.645 177.131 760.75 134.717 839.345 163.205C917.948 191.702 909.686 268.352 909.686 268.352C909.686 268.352 988.851 251.276 1018.65 294.336C1048.43 337.403 1019.29 370.995 990.149 381.762C952.268 395.763 911.228 387.669 872.123 387.669C825.252 387.753 778.463 387.753 731.6 387.753C636.566 387.836 541.456 387.912 446.422 387.996C363.613 388.079 280.804 388.155 197.994 384.837C152.907 383.052 107.577 380.22 63.3782 370.836C48.3212 367.601 32.9458 363.47 20.4779 354.48C-5.58904 335.703 -9.1501 287.859 23.796 273.288C42.5732 265.034 65.2383 265.923 85.2389 268.352V268.361Z" fill="#D1D9F1"/>
<g style="mix-blend-mode:screen" opacity="0.5">
<path d="M879.648 187.697C870.238 178.564 857.955 170.344 841.909 164.169C841.876 164.169 841.842 164.144 841.809 164.127C840.996 163.817 840.183 163.515 839.345 163.214C823.92 157.617 810.111 154.759 797.92 153.779H797.903C783.575 152.623 771.451 154.056 761.429 156.678L761.237 156.728C736.443 163.289 724.646 177.14 724.646 177.14C724.646 177.14 723.439 174.768 720.858 171.182C714.934 162.946 701.729 148.299 679.207 141.454C670.141 138.688 659.566 137.197 647.341 137.884C641.25 138.236 635.795 139.174 630.902 140.574C630.885 140.574 630.877 140.574 630.86 140.574C601.559 148.995 592.401 173.972 589.61 186.683C588.588 191.3 588.412 194.3 588.412 194.3C588.412 194.3 587.516 192.817 585.831 190.278C579.355 180.525 561.34 155.187 538.893 139.174C534.435 135.982 529.793 133.167 525.034 130.921C511.845 124.696 501.372 123.665 493.462 124.788C493.035 124.846 492.616 124.913 492.197 124.989C491.325 125.14 490.479 125.324 489.675 125.525C489.373 125.601 489.08 125.668 488.786 125.76C487.161 126.204 485.669 126.74 484.329 127.318C484.01 127.452 483.7 127.595 483.399 127.737C483.097 127.871 482.804 128.022 482.519 128.165C482.226 128.299 481.941 128.458 481.681 128.6C481.405 128.743 481.145 128.893 480.893 129.044C480.634 129.187 480.391 129.338 480.148 129.488C479.905 129.631 479.67 129.782 479.444 129.932C479.218 130.075 479 130.226 478.799 130.368C478.589 130.502 478.388 130.653 478.195 130.796C477.81 131.08 477.45 131.357 477.123 131.625C476.955 131.759 476.796 131.893 476.645 132.01C476.05 132.522 475.573 132.974 475.213 133.326L474.986 133.552C474.794 133.753 474.634 133.921 474.542 134.038C474.5 134.088 474.467 134.122 474.442 134.155C474.425 134.172 474.416 134.189 474.4 134.197C474.4 134.181 474.425 134.147 474.442 134.105C474.442 134.105 474.442 134.105 474.442 134.088C474.458 134.055 474.475 134.013 474.5 133.971C474.551 133.862 474.618 133.72 474.676 133.544C475.59 131.231 477.86 123.104 471.777 109.639C471.618 109.278 471.45 108.91 471.274 108.549C471.274 108.549 471.258 108.533 471.258 108.524C471.023 108.022 470.78 107.519 470.52 107.008C470.395 106.74 470.244 106.471 470.11 106.195C470.068 106.119 470.026 106.052 469.992 105.969C469.808 105.608 469.615 105.248 469.406 104.879C469.247 104.586 469.079 104.293 468.912 104C468.702 103.623 468.476 103.237 468.25 102.852C468.216 102.785 468.174 102.718 468.132 102.642C467.973 102.374 467.805 102.098 467.646 101.821C467.495 101.561 467.328 101.302 467.169 101.042C467.018 100.799 466.859 100.556 466.708 100.313C466.691 100.296 466.683 100.288 466.674 100.271C466.507 100.011 466.331 99.7431 466.163 99.4834C465.987 99.2152 465.803 98.9555 465.627 98.6874C465.091 97.883 464.538 97.0786 463.943 96.2491C463.75 95.9726 463.549 95.6961 463.348 95.4196C462.46 94.1962 461.505 92.9394 460.482 91.6658C460.306 91.4396 460.122 91.2133 459.929 90.9871C459.267 90.166 458.58 89.3281 457.86 88.4818C432.438 58.6946 364.041 84.6777 364.041 84.6777C364.041 84.6107 364.041 84.5521 364.041 84.485C364.25 79.0471 363.194 73.2656 361.032 67.3836C361.032 67.3836 361.016 67.3668 361.016 67.3501C360.789 66.7468 360.555 66.1267 360.312 65.5234C360.295 65.4732 360.27 65.4313 360.253 65.3894C360.253 65.3894 360.253 65.3642 360.236 65.3559C360.178 65.205 360.119 65.0458 360.052 64.895C359.96 64.6772 359.876 64.4677 359.784 64.2582C359.692 64.0571 359.616 63.856 359.516 63.6466C359.323 63.2025 359.122 62.7584 358.913 62.3143C358.385 61.1831 357.832 60.052 357.22 58.9292C356.977 58.4684 356.717 58.0075 356.458 57.5467C355.946 56.6417 355.41 55.7284 354.857 54.8151C354.313 53.9437 353.751 53.0556 353.165 52.1841C352.838 51.7065 352.519 51.2289 352.184 50.7513C351.866 50.2989 351.547 49.8548 351.221 49.4023C350.5 48.4052 349.746 47.4081 348.967 46.4194C348.69 46.0675 348.414 45.7323 348.137 45.3888C347.417 44.5006 346.679 43.6125 345.917 42.7411C345.557 42.3221 345.188 41.9115 344.819 41.4842C344.4 41.015 343.973 40.5374 343.529 40.0682C343.143 39.6576 342.75 39.2387 342.364 38.8365C341.979 38.4343 341.577 38.0237 341.191 37.6215C341.141 37.5796 341.091 37.5293 341.057 37.4875C340.655 37.0853 340.244 36.6831 339.842 36.2809C339.415 35.8619 338.979 35.443 338.527 35.0157C338.091 34.6051 337.647 34.1778 337.194 33.7672C336.809 33.4069 336.415 33.055 336.021 32.6947C335.912 32.5941 335.803 32.502 335.686 32.393C335.334 32.083 334.991 31.7814 334.63 31.4714C334.094 31.0105 333.558 30.5497 333.013 30.0972C332.536 29.695 332.058 29.2928 331.564 28.899C331.078 28.5052 330.583 28.103 330.089 27.7176C328.598 26.5445 327.073 25.3966 325.497 24.2655C325.053 23.9387 324.592 23.6203 324.132 23.2935C323.009 22.5059 321.861 21.7434 320.688 20.9809C320.152 20.629 319.615 20.2855 319.071 19.9419C317.395 18.8862 315.677 17.8639 313.934 16.8668C313.348 16.5317 312.77 16.2133 312.183 15.8949C310.834 15.1492 309.46 14.4369 308.077 13.7415C307.659 13.5236 307.231 13.3142 306.804 13.1131C305.706 12.5684 304.583 12.0406 303.461 11.5378C303.025 11.3367 302.589 11.144 302.145 10.9513C301.341 10.591 300.528 10.2391 299.707 9.89555C299.363 9.75311 299.028 9.61066 298.676 9.46822C298.266 9.30064 297.838 9.12468 297.411 8.96548C296.674 8.67222 295.936 8.37896 295.191 8.11083C294.638 7.90136 294.085 7.70026 293.523 7.49917C292.886 7.27293 292.241 7.0467 291.604 6.82885C291.11 6.66127 290.624 6.49369 290.13 6.33449C289.669 6.18367 289.208 6.03285 288.739 5.89041C288.219 5.72283 287.691 5.55525 287.172 5.40443C286.636 5.23685 286.099 5.07765 285.546 4.91845H285.53C284.859 4.72573 284.181 4.53302 283.502 4.34868C282.915 4.18948 282.329 4.03028 281.734 3.87946L281.248 3.76215C280.687 3.62809 280.134 3.48565 279.564 3.35996C279.43 3.31807 279.287 3.28455 279.145 3.25941C278.651 3.14211 278.148 3.0248 277.645 2.91588C277.461 2.8656 277.276 2.82371 277.084 2.79857C276.547 2.67289 276.011 2.56396 275.467 2.45503C275.324 2.42152 275.173 2.39638 275.031 2.36287C274.612 2.27908 274.193 2.20367 273.766 2.12826C273.313 2.03609 272.861 1.9523 272.4 1.87689C271.797 1.75958 271.185 1.66741 270.573 1.56686C269.953 1.45794 269.333 1.36577 268.713 1.28198C268.018 1.17305 267.331 1.08089 266.635 0.997096C265.915 0.896548 265.186 0.821138 264.465 0.737348C263.753 0.653559 263.032 0.586527 262.32 0.527874C261.96 0.485979 261.591 0.452464 261.239 0.427327C260.761 0.385432 260.292 0.343537 259.815 0.310021C259.169 0.259748 258.516 0.217853 257.879 0.192716C257.469 0.167579 257.058 0.142442 256.647 0.134063C256.27 0.108926 255.885 0.0921685 255.516 0.0837896C255.248 0.0670317 254.98 0.0586527 254.712 0.0586527C253.539 0.0167579 252.366 0 251.184 0C233.496 0.0251369 214.845 3.90459 196.135 13.0544C157.089 32.1165 145.886 64.2582 145.258 93.5511C157.474 77.2205 174.777 63.965 193.06 54.4213C239.445 30.4156 296.28 39.0543 315.392 93.4421C320.931 109.211 322.238 126.271 320.746 142.928C318.61 166.724 341.225 144.52 350.953 140.146C361.518 135.429 372.646 132.421 384.184 131.575C423.9 128.634 443.741 145.408 461.714 178.396C465.878 186.021 461.119 184.237 470.152 184.898C475.916 185.317 482.594 182.703 488.518 182.536C500.768 182.175 512.222 184.932 522.738 191.342C547.288 206.323 553.019 231.326 562.58 256.79C563.175 258.348 563.837 260.016 565.236 260.912C567.582 262.412 570.649 261.072 573.037 259.647C588.228 250.598 601.5 238.331 617.504 230.815C640.286 220.124 667.853 220.199 690.577 231.025C703.79 237.326 712.798 249.492 723.054 235.465C723.054 235.465 723.07 235.449 723.07 235.44C738.806 213.973 761.48 199.495 787.153 192.833C817.183 185.033 848.755 186.398 879.757 187.823C879.723 187.781 879.69 187.747 879.656 187.714L879.648 187.697ZM473.746 114.792C473.964 115.437 474.148 116.082 474.324 116.694C474.157 116.082 473.964 115.437 473.746 114.792Z" fill="#D1D9F1"/>
</g>
<g style="mix-blend-mode:multiply" opacity="0.6">
<path d="M240.492 308.111C238.549 311.999 228.435 310.055 225.519 308.999C217.182 306.083 207.873 299.045 205.527 290.054C205.284 289.082 204.882 277.025 206.172 277.586C192.573 271.512 178.329 264.959 169.824 252.734C161.001 240.024 159.87 221.648 168.123 208.376C168.609 207.647 169.095 206.918 169.581 206.189C177.432 195.582 184.881 208.292 188.928 215.825C194.031 225.461 200.508 234.359 208.116 242.21C213.462 247.799 225.519 253.623 228.519 260.586C230.865 266.09 226.491 271.595 225.93 277.017C225.444 282.362 227.229 287.867 229.893 292.476C231.678 295.794 241.791 305.43 240.501 308.103L240.492 308.111Z" fill="#D1D9F1"/>
</g>
<g style="mix-blend-mode:multiply" opacity="0.6">
<path d="M1010.36 370.224C1009.8 370.685 1009.23 371.137 1008.65 371.573C1002.89 375.972 996.526 379.407 990.149 381.762C952.268 395.763 911.228 387.669 872.124 387.669C825.252 387.753 778.464 387.753 731.6 387.753C636.566 387.837 541.456 387.912 446.422 387.996C425.534 388.021 404.653 388.038 383.764 387.996H381.82C339.138 387.828 296.472 387.409 253.782 386.597C235.18 386.161 216.587 385.583 197.986 384.837C173.159 383.857 148.265 382.558 123.531 380.019C103.329 377.958 83.2364 375.05 63.3698 370.827C60.2277 370.157 57.0689 369.436 53.9351 368.64C42.0286 365.658 30.34 361.585 20.4696 354.472C19.7239 353.935 18.9949 353.382 18.2911 352.788C-5.76493 332.988 -8.21997 287.44 23.7877 273.28C28.9742 271.001 34.4624 269.409 40.1182 268.37C44.115 267.632 48.1956 267.163 52.3012 266.903C18.2911 279.564 25.2456 317.328 73.014 323.109C98.4442 326.184 125.424 329.1 152.044 332.301C197.383 337.756 243.199 339.867 288.822 340.739C297.612 340.906 296.623 337.136 299.74 330.592C301.29 327.341 303.058 324.165 305.069 321.165C309.108 315.149 314.135 309.845 319.523 305.036C321.626 303.167 323.872 301.24 324.86 298.601C326.737 293.59 324.123 287.096 323.578 281.943C323.042 276.883 322.983 271.771 323.361 266.685C324.106 256.505 326.612 246.475 330.6 237.074C338.56 218.305 352.494 201.899 370.4 191.979C372.369 190.889 374.38 189.884 376.433 188.954C384.678 185.242 394.213 182.779 402.709 185.87C390.794 196.528 375.176 203.449 366.361 216.78C355.502 233.203 357.873 254.946 363.211 273.891C364.845 279.664 367.434 285.077 370.492 290.222C372.671 293.883 376.458 296.875 378 300.897C379.592 305.044 376.324 306.578 374.841 309.887C372.855 314.32 374.673 318.409 376.542 322.615C377.698 325.212 378.846 328.346 378.318 331.237C377.522 335.485 374.74 337.789 381.41 339.281C400.916 343.671 421.721 342.674 441.596 343.21C455.849 343.21 470.143 343.973 484.396 344.342C492.398 344.559 513.58 349.377 514.987 337.002C515.716 330.365 510.856 323.076 514.417 317.412C516.923 313.448 522.512 312.636 526.961 314.093C531.335 315.551 534.896 318.87 538.616 321.702C551.955 331.857 567.372 338.074 583.552 342.121C601.324 346.554 619.548 346.478 637.873 346.503C658.712 346.537 684.535 345.339 698.646 327.609C705.123 319.515 712.085 307.206 721.797 310.608C728.19 312.879 730.134 320.805 734.181 326.31C741.705 336.507 756.201 337.806 768.912 338.124C811.493 339.256 854.151 340.311 896.732 341.359C922.875 342.004 949.512 342.657 974.766 335.854C993.954 330.751 1012.49 320.713 1025.27 305.899C1038.23 333.466 1027.46 356.189 1010.35 370.207L1010.36 370.224Z" fill="#D1D9F1"/>
</g>
<g style="mix-blend-mode:multiply" opacity="0.6">
<path d="M53.9436 368.657C41.5595 365.741 29.2843 361.753 19.4306 353.843C19.0368 353.517 18.6514 353.181 18.3079 352.804C19.0117 353.399 19.7407 353.952 20.4864 354.488C30.3568 361.594 42.0454 365.666 53.9519 368.657H53.9436Z" fill="#D1D9F1"/>
</g>
<g style="mix-blend-mode:screen" opacity="0.5">
<path d="M1020.35 296.875C1018.63 299.891 1013.95 299.321 1010.54 298.257C985.7 290.607 960.287 283.72 934.237 282.119C921.635 281.349 908.915 281.835 896.498 284.197C892.459 284.96 877.478 294.478 876.522 287.616C875.584 280.913 875.768 274.126 875.023 267.414C874.377 261.616 872.073 255.416 868.487 250.204C862.588 241.649 853.221 235.809 842.085 239.01C834.762 241.104 823.174 250.489 816.361 241.448C811.393 234.854 813.119 223.115 816.956 216.579C822.118 207.79 831.762 202.335 841.725 200.148C851.679 197.953 862.018 198.64 872.165 199.687C878.651 200.358 885.32 201.229 890.976 204.488C892.551 205.393 894.001 206.466 895.367 207.656C913.038 237.501 909.703 268.378 909.703 268.378C909.703 268.378 988.867 251.302 1018.66 294.361C1019.25 295.207 1019.81 296.045 1020.36 296.892L1020.35 296.875Z" fill="#D1D9F1"/>
</g>
<g style="mix-blend-mode:screen" opacity="0.5">
<path d="M203.449 190.755C199.503 188.996 194.97 187.647 190.956 189.214C185.041 191.501 182.87 197.123 175.639 196.528C171.743 196.21 168.09 194.576 164.462 193.127C153.821 188.837 142.677 185.837 131.323 184.178C114.213 181.673 101.352 194.065 92.5537 207.22C89.9311 211.116 79.4574 234.519 71.4806 243.434C65.9338 227.799 63.2776 206.097 75.1003 182.15C98.3855 135.019 157.767 158.94 158.714 159.318C158.706 159.292 158.639 159.142 158.53 158.873C162.644 161.58 166.079 165.082 169.355 168.752C172.657 172.447 176.461 181.589 182.669 179.218C184.37 178.572 185.803 177.408 187.37 176.469C193.244 172.925 201.12 172.992 206.943 176.628C211.443 179.435 214.769 184.429 215.574 189.666C216.956 198.657 208.242 192.9 203.432 190.764L203.449 190.755Z" fill="#D1D9F1"/>
</g>
<path d="M1292.85 237.342C1292.85 237.342 1228.7 225.93 1195.98 271.587C1163.25 317.143 1244.46 337.144 1244.46 337.144C1244.46 337.144 1210.22 367.04 1225.98 382.7C1241.64 398.361 1736.09 384.217 1764.68 382.7C1793.27 381.184 1813.17 372.595 1813.17 348.456C1813.17 307.139 1736.2 318.559 1736.2 318.559C1736.2 318.559 1771.86 294.319 1744.79 260.175C1717.72 226.031 1680.65 230.279 1680.65 230.279C1680.65 230.279 1713.38 82.0969 1589.44 74.9245C1465.49 67.7521 1469.73 168.97 1469.73 168.97C1469.73 168.97 1427.51 117.858 1342.86 156.142C1282.86 183.214 1292.86 237.359 1292.86 237.359L1292.85 237.342Z" fill="#D1D9F1"/>
<g style="mix-blend-mode:screen" opacity="0.5">
<path d="M1683.87 174.617C1672.45 151.081 1647.7 133.611 1621.14 131.583C1585.38 128.86 1550.13 151.986 1534.68 184.312C1529.42 195.422 1524.88 208.753 1513.46 213.303C1504.98 216.638 1495.18 213.705 1487.5 208.653C1485.64 207.455 1483.87 206.147 1482.14 204.765C1475.85 205.553 1470.76 211.15 1468.69 217.258C1466.48 223.777 1466.89 230.84 1466.98 237.719C1467.19 253.949 1464.63 271.855 1452.47 282.605C1451.38 283.569 1450.15 284.482 1448.7 284.65C1446.31 284.91 1444.28 283.066 1442.55 281.39C1432.72 271.864 1420.62 263.543 1406.94 262.798C1400.87 262.471 1394.12 264.063 1390.64 269.048C1387.55 273.439 1385.33 280.98 1380.16 279.547C1375.84 278.349 1376.2 272.023 1378.12 267.959C1387.85 247.33 1414.29 236.379 1435.75 244.087C1436.99 233.53 1434.5 222.646 1437.01 212.323C1439.48 202.159 1446.98 193.361 1456.62 189.322C1458.13 188.694 1459.67 188.183 1461.25 187.789C1445.14 177.517 1425.17 173.495 1406.18 176.235C1385.16 179.268 1365.57 190.278 1351.33 206.03C1339.41 219.26 1330.22 249.467 1312.85 255.625C1306.99 257.745 1300.42 257.041 1294.16 256.84C1269.82 256.036 1244.77 263.309 1224.16 276.438C1211.64 284.415 1200.73 295.325 1193.05 307.952C1186.48 298.358 1185.28 286.334 1195.77 271.688C1228.5 226.131 1292.64 237.443 1292.64 237.443C1292.64 237.443 1282.65 183.298 1342.54 156.226C1427.18 117.942 1469.41 169.054 1469.41 169.054C1469.41 169.054 1465.18 67.836 1589.12 75.0083C1661.95 79.047 1680.73 131.675 1683.87 174.609V174.617Z" fill="#D1D9F1"/>
</g>
<g style="mix-blend-mode:multiply" opacity="0.6">
<path d="M1806.58 368.163C1798.47 377.656 1783.44 381.695 1764.67 382.7C1736.08 384.217 1241.63 398.361 1225.97 382.7C1212.61 369.42 1235.22 345.883 1242.39 339.054C1247.69 339.7 1252.61 340.864 1256.92 342.699C1262.58 345.104 1267.16 348.447 1272.84 350.776C1300.21 362.046 1350.71 356.047 1381.9 356.851C1409.48 357.522 1437.63 358.72 1464.77 354.983C1496.29 350.651 1527.27 337.697 1534.57 318.409C1535.11 317.018 1535.66 315.476 1537.3 314.479C1540.46 312.61 1545.81 313.674 1549.3 315.35C1568.06 324.089 1564.24 342.775 1579.41 353.785C1591.3 362.39 1611.58 364.124 1629.91 365.13C1688.78 368.087 1747.75 369.143 1806.58 368.171V368.163Z" fill="#D1D9F1"/>
</g>
<g style="mix-blend-mode:screen" opacity="0.5">
<path d="M1750.42 268.746C1749.54 267.079 1748.52 265.395 1747.35 263.669C1748.53 265.395 1749.56 267.079 1750.42 268.746Z" fill="#D1D9F1"/>
</g>
<g style="mix-blend-mode:screen" opacity="0.5">
<path d="M1811.14 338.351C1788.62 332.594 1764.98 331.279 1742.05 334.613C1738.71 335.116 1726.39 341.283 1723.97 338.652C1720.23 334.613 1728.62 314.11 1729.62 308.857C1731.54 298.349 1732.56 287.339 1730.43 276.732C1730.41 276.639 1730.39 276.539 1730.37 276.447C1724.58 269.115 1719.06 261.524 1711.97 255.491C1702.23 247.187 1689.75 242.177 1676.97 241.439C1670.84 241.096 1664.48 241.766 1659.14 244.783C1655.23 246.995 1649.5 257.267 1645.51 257.427C1639.09 257.678 1644.57 246.006 1646.15 242.998C1651.6 232.742 1661.45 224.832 1672.74 222.009C1675.88 221.229 1679.07 220.819 1682.28 220.685C1681.43 226.718 1680.64 230.262 1680.64 230.262C1680.64 230.262 1681.76 230.128 1683.77 230.103C1689.12 230.011 1700.73 230.614 1713.85 236.228H1713.86C1714.71 236.588 1715.57 236.982 1716.43 237.392C1716.86 237.594 1717.3 237.803 1717.73 238.021H1717.74C1718.22 238.255 1718.71 238.498 1719.17 238.758C1720.15 239.261 1721.11 239.789 1722.08 240.35C1722.09 240.359 1722.1 240.359 1722.12 240.359C1723.1 240.928 1724.08 241.532 1725.07 242.168C1725.2 242.235 1725.32 242.319 1725.44 242.403C1725.44 242.411 1725.45 242.411 1725.45 242.411C1726 242.772 1726.56 243.14 1727.12 243.534C1727.67 243.92 1728.24 244.313 1728.79 244.716C1729.52 245.252 1730.25 245.797 1730.97 246.375C1731.36 246.668 1731.74 246.97 1732.14 247.296C1732.49 247.59 1732.86 247.883 1733.21 248.185C1733.56 248.486 1733.91 248.788 1734.27 249.106C1734.99 249.726 1735.7 250.371 1736.4 251.033C1737.12 251.704 1737.83 252.391 1738.53 253.111C1738.88 253.472 1739.23 253.84 1739.59 254.201C1741.35 256.052 1743.09 258.03 1744.79 260.166C1745.72 261.348 1746.57 262.513 1747.36 263.66C1748.53 265.387 1749.56 267.071 1750.43 268.738C1750.43 268.747 1750.43 268.755 1750.44 268.772C1750.58 269.048 1750.72 269.308 1750.85 269.576C1751.12 270.112 1751.38 270.649 1751.62 271.185C1751.74 271.445 1751.86 271.721 1751.97 271.981C1751.99 272.039 1752.01 272.098 1752.03 272.148C1752.25 272.651 1752.44 273.162 1752.63 273.657C1752.73 273.933 1752.83 274.21 1752.93 274.486C1753.1 274.997 1753.28 275.508 1753.43 276.011C1753.44 276.061 1753.46 276.112 1753.48 276.162C1753.6 276.606 1753.72 277.042 1753.83 277.469C1753.86 277.578 1753.89 277.695 1753.92 277.796C1754.02 278.231 1754.12 278.65 1754.21 279.069C1754.29 279.446 1754.36 279.815 1754.43 280.192C1754.5 280.619 1754.58 281.038 1754.63 281.466C1754.66 281.709 1754.68 281.943 1754.72 282.17C1754.76 282.48 1754.79 282.798 1754.81 283.108C1754.81 283.125 1754.82 283.15 1754.82 283.175C1754.86 283.669 1754.89 284.155 1754.9 284.641C1754.92 285.018 1754.94 285.387 1754.94 285.764V285.814C1754.94 286.208 1754.93 286.594 1754.92 286.979C1754.9 287.356 1754.89 287.725 1754.86 288.094V288.127C1754.83 288.504 1754.8 288.873 1754.76 289.241C1754.72 289.627 1754.67 289.996 1754.62 290.364C1754.55 290.85 1754.47 291.336 1754.37 291.805C1754.28 292.283 1754.18 292.752 1754.07 293.221C1753.96 293.691 1753.84 294.152 1753.72 294.604C1753.59 295.065 1753.44 295.509 1753.31 295.961C1753.17 296.405 1753.02 296.85 1752.86 297.285C1748 310.574 1736.21 318.568 1736.21 318.568C1736.21 318.568 1799.34 309.175 1811.16 338.367L1811.14 338.351Z" fill="#D1D9F1"/>
</g>
<g style="mix-blend-mode:screen" opacity="0.5">
<path d="M1713.85 236.228C1700.72 230.622 1689.11 230.019 1683.76 230.103C1683.72 230.094 1683.7 230.069 1683.66 230.061C1688.98 229.952 1700.66 230.547 1713.85 236.219V236.228Z" fill="#D1D9F1"/>
</g>
</svg>
