<svg width="261" height="148" viewBox="0 0 261 148" fill="none" xmlns="http://www.w3.org/2000/svg">
<path d="M253.443 95.1368L239.885 101.295C235.807 103.145 231.378 104.103 226.894 104.103H171.123C170.299 98.9584 166.545 94.7992 161.616 93.3948L176.174 82.8212H120.929L100.687 104.103H65.833C63.6049 104.103 61.3902 103.631 59.3511 102.726L44.8749 96.3116L69.4251 82.8212H36.1109L28.2516 88.9655L8.31983 80.1339C4.47122 78.4189 2 74.6784 2 70.5462C2 67.6428 3.20185 65.0096 5.14641 63.1055C7.10448 61.2015 9.79176 60.0266 12.7626 60.0266H216.915C221.992 60.0266 226.975 61.458 231.256 64.1318L247.38 74.2192L254.307 78.5405L254.577 78.716C260.951 82.6997 260.316 92.0174 253.443 95.1368V95.1368Z" stroke="white" stroke-width="4" stroke-linecap="round" stroke-linejoin="round"/>
<path d="M41.6205 60.0265L16.9623 30.858H2L11.6958 60.0265" stroke="white" stroke-width="4" stroke-linecap="round" stroke-linejoin="round"/>
<path d="M69.4248 82.821L44.8747 96.3115L23.0254 108.316H3.47168L28.2514 88.9653L36.1107 82.821H69.4248Z" stroke="white" stroke-width="4" stroke-linecap="round" stroke-linejoin="round"/>
<path d="M176.174 82.821L161.616 93.3946L146.884 104.103L125.602 119.565L90.3293 145.196H61.6064L100.687 104.103L120.929 82.821H176.174Z" stroke="white" stroke-width="4" stroke-linecap="round" stroke-linejoin="round"/>
<path d="M171.285 106.223C171.285 109.91 169.786 113.246 167.382 115.663C164.965 118.066 161.63 119.565 157.943 119.565H125.601L146.883 104.103L161.616 93.3948C166.545 94.7992 170.299 98.9584 171.123 104.103C171.231 104.792 171.285 105.508 171.285 106.223V106.223Z" stroke="white" stroke-width="4" stroke-linecap="round" stroke-linejoin="round"/>
<path d="M130.503 60.0263L106.601 2H121.428L171.285 60.0263" stroke="white" stroke-width="4" stroke-linecap="round" stroke-linejoin="round"/>
<path d="M254.307 78.5402C252.295 82.6724 248.15 89.0193 241.695 89.0193H226.368V80.9169H241.695C243.518 80.9169 245.948 77.4194 247.38 74.219L254.307 78.5402Z" fill="white"/>
<path d="M215.511 80.9169H207.53V89.0192H215.511V80.9169Z" fill="white"/>
<path d="M196.66 80.9169H188.679V89.0192H196.66V80.9169Z" fill="white"/>
<path d="M106.115 80.9169H98.1343V89.0192H106.115V80.9169Z" fill="white"/>
<path d="M87.1156 80.9169H79.1348V89.0192H87.1156V80.9169Z" fill="white"/>
</svg>
