<svg width="498" height="98" viewBox="0 0 498 98" fill="none" xmlns="http://www.w3.org/2000/svg">
<g opacity="0.98">
<rect x="1.5" y="1.5" width="495" height="95" rx="45.5" stroke="#1941B8" stroke-width="3"/>
<path d="M42 47.5C41.1716 47.5 40.5 48.1716 40.5 49C40.5 49.8284 41.1716 50.5 42 50.5V47.5ZM456.061 50.0607C456.646 49.4749 456.646 48.5251 456.061 47.9393L446.515 38.3934C445.929 37.8076 444.979 37.8076 444.393 38.3934C443.808 38.9792 443.808 39.9289 444.393 40.5147L452.879 49L444.393 57.4853C443.808 58.0711 443.808 59.0208 444.393 59.6066C444.979 60.1924 445.929 60.1924 446.515 59.6066L456.061 50.0607ZM42 50.5H455V47.5H42V50.5Z" fill="#1941B8"/>
</g>
</svg>
