<svg width="296" height="296" viewBox="0 0 296 296" fill="none" xmlns="http://www.w3.org/2000/svg">
<path d="M129.448 281.856C127.188 281.553 125.263 280.71 123.673 279.326C122.063 277.94 121.021 276.156 120.547 273.973L125.572 274.647C126.259 276.596 127.723 277.72 129.962 278.021C131.211 278.188 132.359 278.06 133.404 277.635C134.43 277.207 135.28 276.514 135.953 275.555C136.627 274.596 137.054 273.443 137.235 272.095C137.415 270.747 137.307 269.522 136.91 268.419C136.513 267.316 135.878 266.414 135.003 265.711C134.106 265.026 133.034 264.6 131.785 264.432C129.565 264.135 127.857 264.834 126.661 266.53L121.636 265.856C122.668 263.876 124.143 262.429 126.062 261.516C127.958 260.62 130.035 260.323 132.295 260.626C134.238 260.887 135.962 261.572 137.468 262.682C138.971 263.812 140.091 265.244 140.827 266.977C141.54 268.727 141.76 270.623 141.487 272.665C141.215 274.687 140.506 276.438 139.359 277.919C138.19 279.417 136.731 280.512 134.984 281.206C133.236 281.9 131.391 282.117 129.448 281.856Z" fill="#1941B8"/>
<path d="M91.9608 271.031L99.2794 251.411L103.243 252.89L100.108 261.294L108.54 264.439L111.675 256.035L115.638 257.513L108.32 277.133L104.357 275.655L107.408 267.475L98.9752 264.33L95.9241 272.509L91.9608 271.031Z" fill="#1941B8"/>
<path d="M73.2476 260.646C71.5922 259.559 70.3397 258.187 69.4901 256.529C68.6238 254.86 68.2476 253.082 68.3615 251.195C68.4477 249.314 69.0504 247.521 70.1697 245.815C71.2999 244.093 72.7163 242.81 74.4187 241.966C76.0934 241.127 77.8687 240.773 79.7446 240.903C81.6205 241.034 83.3777 241.637 85.0164 242.713C86.655 243.788 87.9075 245.16 88.7739 246.829C89.6402 248.498 90.0303 250.273 89.944 252.154C89.8301 254.041 89.208 255.846 88.0778 257.568C86.9585 259.273 85.5616 260.545 83.8868 261.384C82.1844 262.228 80.3953 262.585 78.5194 262.455C76.6435 262.324 74.8863 261.721 73.2476 260.646ZM75.3709 257.41C76.4243 258.102 77.5143 258.482 78.6409 258.551C79.7508 258.61 80.8167 258.353 81.8388 257.779C82.8609 257.206 83.745 256.351 84.4912 255.214C85.2373 254.077 85.67 252.926 85.7892 251.76C85.9083 250.594 85.7257 249.505 85.2413 248.494C84.7292 247.488 83.9465 246.639 82.8931 245.948C81.8396 245.257 80.758 244.882 79.6481 244.823C78.5273 244.781 77.4614 245.039 76.4503 245.595C75.4282 246.168 74.5386 247.032 73.7814 248.186C73.0243 249.339 72.5916 250.491 72.4834 251.64C72.3643 252.806 72.5524 253.886 73.0478 254.881C73.5431 255.876 74.3175 256.719 75.3709 257.41Z" fill="#1941B8"/>
<path d="M53.9895 244.81L68.302 229.525L71.3897 232.416L57.0772 247.701L53.9895 244.81Z" fill="#1941B8"/>
<path d="M48.5146 215.789C49.3949 215.096 50.404 214.697 51.5419 214.591C52.6674 214.469 53.8105 214.677 54.9711 215.214C56.1194 215.736 57.1572 216.587 58.0844 217.766C59.5063 219.573 60.2333 221.355 60.2656 223.111C60.2821 224.879 59.528 226.363 58.0031 227.562L55.2212 224.025C55.8792 223.406 56.2361 222.743 56.2919 222.038C56.3197 221.329 56.0368 220.597 55.4434 219.843C54.8499 219.088 54.1836 218.645 53.4444 218.514C52.7052 218.383 52.0212 218.565 51.3923 219.059C50.8893 219.455 50.6042 219.934 50.5371 220.495C50.4576 221.041 50.5106 221.61 50.6962 222.202C50.8695 222.778 51.1675 223.562 51.5904 224.552C52.1515 225.816 52.5502 226.889 52.7865 227.772C53.0228 228.655 53.0277 229.567 52.8013 230.508C52.5591 231.462 51.9192 232.347 50.8816 233.163C49.8912 233.942 48.835 234.378 47.7128 234.472C46.5626 234.562 45.4448 234.322 44.3594 233.751C43.2583 233.192 42.2688 232.354 41.391 231.238C40.0434 229.524 39.3545 227.84 39.3246 226.184C39.2789 224.541 40.0128 223.047 41.5264 221.704L44.3824 225.336C43.8031 225.893 43.4933 226.519 43.4532 227.212C43.3974 227.917 43.6229 228.592 44.1298 229.237C44.6615 229.913 45.2671 230.327 45.9468 230.479C46.5984 230.628 47.27 230.431 47.9618 229.887C48.4805 229.479 48.7875 228.996 48.8828 228.437C48.9499 227.876 48.8906 227.299 48.705 226.707C48.5194 226.115 48.2135 225.338 47.7873 224.375C47.2262 223.112 46.8275 222.039 46.5912 221.156C46.3549 220.273 46.364 219.363 46.6185 218.425C46.845 217.483 47.477 216.605 48.5146 215.789Z" fill="#1941B8"/>
<path d="M28.8326 211.545L40.3763 205.787C41.6648 205.144 42.4796 204.335 42.8204 203.361C43.1523 202.368 43.0147 201.264 42.4076 200.047C41.8006 198.83 41.0008 198.055 40.0083 197.723C39.0158 197.391 37.8753 197.547 36.5867 198.19L25.0431 203.948L23.1684 200.189L34.712 194.431C36.3049 193.637 37.8346 193.321 39.3013 193.483C40.7591 193.627 42.0555 194.143 43.1906 195.03C44.3168 195.898 45.2235 197.022 45.9109 198.4C46.5894 199.76 46.9369 201.151 46.9534 202.573C46.961 203.977 46.5796 205.296 45.8092 206.53C45.0388 207.764 43.8572 208.778 42.2643 209.572L30.7207 215.33L28.8326 211.545Z" fill="#1941B8"/>
<path d="M34.9177 166.099L35.9353 170.204L24.1224 182.899L38.216 179.406L39.2336 183.512L18.8504 188.564L17.8328 184.458L29.6457 171.763L15.5521 175.257L14.5345 171.151L34.9177 166.099Z" fill="#1941B8"/>
<path d="M29.8275 146.19L30.0171 154.347L33.9774 155.606L34.0812 160.075L12.9148 153.154L12.7984 148.146L33.6213 140.28L33.7251 144.749L29.8275 146.19ZM26.6135 147.345L17.9555 150.547L26.7522 153.313L26.6135 147.345Z" fill="#1941B8"/>
<path d="M24.5128 118.962L27.9682 119.578L25.7293 132.13L22.2738 131.514L24.5128 118.962Z" fill="#1941B8"/>
<path d="M23.8892 93.8679L26.9257 94.9981L23.8806 103.18L29.0258 105.095L31.3489 98.853L34.3854 99.9831L32.0623 106.225L40.4689 109.354L38.9935 113.318L19.3686 106.014L23.8892 93.8679Z" fill="#1941B8"/>
<path d="M52.104 85.7016L42.3749 85.6712L41.6606 86.852L48.7964 91.1689L46.6068 94.7882L28.6903 83.9492L32.6812 77.3524C33.5197 75.9664 34.4822 74.9357 35.5685 74.2605C36.6377 73.575 37.728 73.2411 38.8392 73.2589C39.9437 73.2492 40.9922 73.5446 41.9847 74.145C43.1141 74.8283 43.9595 75.8072 44.5208 77.0818C45.0821 78.3564 45.0973 79.8382 44.5663 81.5272L54.6972 81.415L52.104 85.7016ZM38.8884 85.1749L40.6897 82.1974C41.2384 81.2904 41.4266 80.4576 41.2545 79.699C41.0652 78.9299 40.5684 78.3022 39.7642 77.8156C38.9599 77.329 38.1818 77.1856 37.4299 77.3852C36.6609 77.5745 36.002 78.1226 35.4534 79.0295L33.6521 82.0071L38.8884 85.1749Z" fill="#1941B8"/>
<path d="M50.1718 54.1375C51.5355 52.7021 53.1088 51.714 54.8916 51.1732C56.6882 50.6179 58.5047 50.5643 60.3411 51.0124C62.1768 51.4323 63.8341 52.3447 65.313 53.7498C66.8065 55.1687 67.8171 56.7909 68.3448 58.6165C68.8718 60.4138 68.904 62.2238 68.4414 64.0464C67.9788 65.869 67.0725 67.4908 65.7224 68.9118C64.3724 70.3327 62.7992 71.3208 61.0026 71.8761C59.206 72.4314 57.3899 72.4991 55.5542 72.0793C53.7178 71.6312 52.0529 70.6977 50.5594 69.2788C49.0805 67.8737 48.0775 66.2725 47.5505 64.4752C47.0228 62.6496 46.9902 60.8255 47.4528 59.0029C47.9154 57.1803 48.8218 55.5585 50.1718 54.1375ZM52.9774 56.8031C52.1095 57.7166 51.5411 58.7214 51.2721 59.8176C51.0169 60.8993 51.0803 61.994 51.4623 63.1018C51.8443 64.2096 52.5283 65.2319 53.5143 66.1687C54.5002 67.1054 55.5562 67.7362 56.6821 68.061C57.808 68.3859 58.9118 68.4 59.9935 68.1036C61.0745 67.7788 62.0489 67.1597 62.9168 66.2462C63.7847 65.3327 64.3462 64.3352 64.6014 63.2535C64.8422 62.158 64.7788 61.0633 64.4113 59.9692C64.0292 58.8614 63.338 57.8322 62.3375 56.8817C61.337 55.9312 60.2811 55.3004 59.1697 54.9894C58.0438 54.6645 56.9472 54.6572 55.88 54.9675C54.8128 55.2778 53.8453 55.8896 52.9774 56.8031Z" fill="#1941B8"/>
<path d="M92.9352 47.3224L89.4046 49.6521L73.4949 42.754L81.492 54.8733L77.9614 57.203L66.3953 39.6752L69.926 37.3454L85.8356 44.2435L77.8386 32.1242L81.3692 29.7945L92.9352 47.3224Z" fill="#1941B8"/>
<path d="M105.417 19.3033L106.618 22.3127L101.351 24.4134L107.909 40.8538L104.008 42.4098L97.4502 25.9694L92.2115 28.0589L91.0112 25.0495L105.417 19.3033Z" fill="#1941B8"/>
<path d="M120.311 18.784L121.4 24.1648L128.222 22.7837L128.865 25.9593L122.043 27.3404L123.192 33.0152L130.896 31.4556L131.539 34.6312L119.689 37.0302L115.522 16.4477L127.372 14.0488L128.014 17.2243L120.311 18.784Z" fill="#1941B8"/>
<path d="M157.344 33.623H153.114L143.634 19.103V33.623H139.404V12.623H143.634L153.114 27.143V12.623H157.344V33.623Z" fill="#1941B8"/>
<path d="M185.139 28.418C184.681 30.4675 183.821 32.1609 182.559 33.498C181.302 34.8156 179.75 35.7088 177.903 36.1776C176.057 36.6464 174.05 36.6388 171.884 36.1549L164.944 34.6052L169.509 14.1687L176.448 15.7184C178.614 16.2023 180.431 17.0589 181.899 18.2883C183.37 19.4981 184.393 20.9765 184.966 22.7234C185.539 24.4703 185.596 26.3685 185.139 28.418ZM172.583 33.0221C174.73 33.5016 176.541 33.24 178.015 32.2371C179.489 31.2343 180.468 29.6496 180.952 27.483C181.436 25.3163 181.224 23.4657 180.317 21.931C179.409 20.3964 177.882 19.3893 175.735 18.9098L172.924 18.282L169.772 32.3944L172.583 33.0221Z" fill="#1941B8"/>
<path d="M221.562 46.7302C220.469 48.5234 219.11 49.8501 217.485 50.7101C215.871 51.553 214.114 51.8993 212.215 51.749C210.316 51.5987 208.418 50.9459 206.523 49.7906L200.451 46.0905L211.348 28.2094L217.42 31.9095C219.315 33.0648 220.76 34.4605 221.754 36.0966C222.758 37.7157 223.25 39.4444 223.231 41.2828C223.211 43.1212 222.655 44.937 221.562 46.7302ZM208.193 47.0495C210.072 48.1944 211.87 48.5292 213.588 48.054C215.307 47.5788 216.744 46.3934 217.899 44.4977C219.054 42.602 219.449 40.7816 219.084 39.0366C218.719 37.2916 217.597 35.8467 215.718 34.7018L213.259 33.2031L205.734 45.5507L208.193 47.0495Z" fill="#1941B8"/>
<path d="M236.08 49.6145L232.366 53.6572L237.491 58.3661L235.299 60.752L230.174 56.0431L226.257 60.3068L232.045 65.6246L229.852 68.0105L220.95 59.8309L235.157 44.3667L244.06 52.5463L241.868 54.9322L236.08 49.6145Z" fill="#1941B8"/>
<path d="M253.726 63.5746L243.628 78.069L260.496 72.8214L263.154 76.4523L241.721 82.6253L238.709 78.5103L251.086 59.9679L253.726 63.5746Z" fill="#1941B8"/>
<path d="M265.691 100.787L262.503 102.257L257.163 90.6794L260.35 89.2091L265.691 100.787Z" fill="#1941B8"/>
<path d="M266.196 115.745L258.104 117.763L257.08 113.659L277.398 108.591L279.264 116.072C279.656 117.644 279.708 119.053 279.421 120.299C279.154 121.541 278.622 122.55 277.826 123.325C277.055 124.116 276.106 124.651 274.98 124.932C273.991 125.179 272.97 125.176 271.917 124.923C270.889 124.685 269.926 124.09 269.03 123.139C268.138 122.207 267.474 120.868 267.038 119.121L266.196 115.745ZM270.182 118.337C270.438 119.366 270.896 120.086 271.556 120.499C272.235 120.907 273.03 120.997 273.942 120.769C274.854 120.542 275.505 120.091 275.893 119.417C276.301 118.738 276.376 117.884 276.12 116.856L275.278 113.479L269.34 114.96L270.182 118.337Z" fill="#1941B8"/>
<path d="M283.272 143.848C283.337 145.827 282.936 147.641 282.07 149.29C281.204 150.959 279.967 152.29 278.358 153.284C276.77 154.296 274.957 154.836 272.918 154.902C270.859 154.97 268.995 154.55 267.324 153.644C265.674 152.758 264.363 151.51 263.39 149.901C262.417 148.292 261.898 146.508 261.834 144.549C261.77 142.59 262.171 140.776 263.037 139.107C263.902 137.438 265.129 136.097 266.717 135.084C268.325 134.091 270.159 133.561 272.218 133.494C274.257 133.427 276.101 133.837 277.751 134.723C279.422 135.629 280.743 136.887 281.717 138.496C282.69 140.105 283.208 141.889 283.272 143.848ZM279.404 143.974C279.363 142.715 279.047 141.605 278.455 140.644C277.864 139.702 277.04 138.979 275.983 138.473C274.926 137.968 273.717 137.737 272.358 137.781C270.999 137.826 269.808 138.135 268.787 138.709C267.765 139.282 266.98 140.058 266.431 141.037C265.904 142.035 265.661 143.163 265.702 144.423C265.743 145.682 266.059 146.782 266.65 147.723C267.261 148.664 268.085 149.387 269.122 149.894C270.18 150.399 271.398 150.63 272.777 150.585C274.156 150.539 275.347 150.23 276.349 149.657C277.37 149.084 278.145 148.308 278.674 147.33C279.202 146.352 279.446 145.234 279.404 143.974Z" fill="#1941B8"/>
<path d="M259.549 171.947L268.661 168.539L268.912 167.182L260.712 165.664L261.482 161.505L282.072 165.316L280.668 172.897C280.374 174.49 279.837 175.794 279.059 176.81C278.301 177.829 277.399 178.526 276.353 178.902C275.324 179.301 274.238 179.396 273.098 179.184C271.8 178.944 270.663 178.327 269.688 177.333C268.712 176.339 268.175 174.958 268.075 173.19L258.637 176.874L259.549 171.947ZM272.098 167.772L271.465 171.194C271.272 172.236 271.39 173.082 271.819 173.731C272.268 174.383 272.954 174.795 273.878 174.966C274.803 175.137 275.581 174.997 276.214 174.544C276.867 174.095 277.29 173.35 277.483 172.308L278.116 168.886L272.098 167.772Z" fill="#1941B8"/>
<path d="M270.695 204.719L267.679 203.532L269.755 198.256L253.284 191.776L254.821 187.868L271.293 194.348L273.357 189.099L276.373 190.285L270.695 204.719Z" fill="#1941B8"/>
<path d="M258.978 225.024L256.224 223.318L260.821 215.896L256.154 213.006L252.647 218.667L249.892 216.961L253.399 211.299L245.774 206.576L248.001 202.98L265.803 214.007L258.978 225.024Z" fill="#1941B8"/>
<path d="M245.878 241.227C244.516 242.664 242.944 243.655 241.162 244.198C239.367 244.756 237.55 244.812 235.713 244.367C233.877 243.95 232.218 243.04 230.737 241.637C229.242 240.22 228.229 238.6 227.698 236.775C227.168 234.978 227.134 233.168 227.594 231.345C228.053 229.522 228.957 227.899 230.305 226.476C231.653 225.053 233.225 224.062 235.021 223.504C236.816 222.946 238.632 222.876 240.469 223.293C242.306 223.739 243.972 224.67 245.468 226.086C246.949 227.489 247.954 229.089 248.484 230.885C249.014 232.71 249.049 234.534 248.589 236.358C248.13 238.181 247.226 239.804 245.878 241.227ZM243.068 238.565C243.935 237.651 244.502 236.645 244.769 235.548C245.023 234.466 244.958 233.372 244.574 232.265C244.19 231.157 243.505 230.136 242.517 229.201C241.53 228.265 240.473 227.636 239.347 227.313C238.22 226.99 237.117 226.977 236.035 227.275C234.955 227.602 233.981 228.222 233.115 229.137C232.248 230.052 231.688 231.05 231.435 232.132C231.195 233.228 231.26 234.323 231.63 235.416C232.013 236.524 232.706 237.552 233.708 238.501C234.71 239.45 235.767 240.079 236.879 240.388C238.005 240.712 239.102 240.717 240.168 240.405C241.235 240.094 242.202 239.48 243.068 238.565Z" fill="#1941B8"/>
<path d="M216.279 243.153L210.813 247.061L208.946 244.45L217.853 238.081L230.032 255.115L226.591 257.576L216.279 243.153Z" fill="#1941B8"/>
<path d="M209.4 268.062L199.566 249.575L203.301 247.588L213.135 266.075L209.4 268.062Z" fill="#1941B8"/>
<path d="M189.67 276.539C187.789 277.157 185.935 277.281 184.109 276.912C182.264 276.549 180.639 275.735 179.235 274.47C177.817 273.23 176.791 271.641 176.155 269.703C175.512 267.745 175.392 265.838 175.792 263.98C176.18 262.148 177.01 260.539 178.281 259.154C179.553 257.768 181.12 256.77 182.982 256.159C184.844 255.548 186.698 255.424 188.543 255.786C190.388 256.149 192.019 256.95 193.437 258.19C194.841 259.456 195.864 261.067 196.507 263.024C197.143 264.962 197.267 266.848 196.879 268.68C196.478 270.538 195.642 272.159 194.371 273.545C193.099 274.93 191.532 275.928 189.67 276.539ZM188.463 272.862C189.661 272.47 190.637 271.854 191.394 271.017C192.132 270.185 192.595 269.191 192.783 268.035C192.972 266.878 192.855 265.654 192.431 264.362C192.007 263.069 191.376 262.013 190.539 261.194C189.701 260.374 188.736 259.838 187.643 259.586C186.537 259.36 185.386 259.443 184.189 259.836C182.991 260.229 182.024 260.841 181.287 261.672C180.555 262.523 180.092 263.517 179.897 264.654C179.708 265.811 179.829 267.045 180.259 268.356C180.69 269.667 181.32 270.723 182.151 271.524C182.989 272.344 183.951 272.87 185.037 273.103C186.124 273.335 187.266 273.255 188.463 272.862Z" fill="#1941B8"/>
<path d="M155.142 274.308L154.759 270.819L167.433 269.427L167.816 272.916L155.142 274.308Z" fill="#1941B8"/>
</svg>
