<svg width="1474" height="928" viewBox="0 0 1474 928" fill="none" xmlns="http://www.w3.org/2000/svg">
<g filter="url(#filter0_d_312_78)">
<path d="M1354.7 733.24C1336.1 739.74 1204.8 738.84 1176 731.34C1176 731.34 1179.7 765.74 1046.6 800.24C913.5 834.74 656.6 835.64 656.6 835.64C656.6 835.64 786 838.44 798.1 873.84C806.3 897.74 798.8 916.94 772.1 928.04H0V126.94C32.5 124.04 75.1 128.94 102.5 165.94C151.9 232.74 136.3 286.74 136.3 286.74L193 286.04C193 286.04 180.7 214.54 250.9 164.04C321.1 113.54 396.3 162.84 396.3 162.84C396.3 162.84 412.3 23.5404 559 21.0404C705.7 18.5404 758.2 132.84 768.4 175.64C768.4 175.64 834.5 173.74 863.3 224.94C892.1 276.14 885.6 317.14 885.6 317.14C885.6 317.14 918.2 270.64 995.4 284.54C1072.6 298.44 1107.1 402.74 1089.4 487.44C1089.4 487.44 1132.2 445.54 1222.5 459.54C1312.8 473.54 1304.4 564.74 1304.4 564.74C1304.4 564.74 1416.1 536.84 1431.9 621.54C1447.8 706.24 1373.3 726.74 1354.7 733.24Z" fill="#D1D9F1"/>
<g style="mix-blend-mode:screen" opacity="0.5">
<path d="M1304.7 557.44C1301.6 556.44 1298.6 554.24 1295.9 552.14C1231.4 501.34 1139.5 487.84 1063.1 517.84C1074.5 443.04 1035.6 382.74 957.1 375.74C941.8 374.34 925.8 375.24 910.9 379.44C896.6 383.44 884 391.84 869.1 394.04C854.9 396.14 845.6 345.24 839.7 333.24C829.4 312.34 814.2 293.94 791.9 285.34C786.7 283.34 747.7 267.54 746.5 279.34C757.9 161.94 620.2 104.34 523.4 130.84C496.3 138.24 470.5 150.94 449.6 169.84C444.6 174.34 399 231.64 410 236.64C340.1 204.84 253.1 215.84 192.5 262.64C194.7 237.34 205.8 196.44 250.8 164.14C321 113.64 396.2 162.94 396.2 162.94C396.2 162.94 412.4 23.5404 559.1 21.0404C705.8 18.5404 758.3 132.84 768.5 175.64C768.5 175.64 834.6 173.74 863.4 224.94C892.2 276.14 885.7 317.14 885.7 317.14C885.7 317.14 918.3 270.64 995.5 284.54C1072.7 298.44 1107.2 402.74 1089.5 487.44C1089.5 487.44 1132.3 445.54 1222.6 459.54C1297.3 471.14 1304.4 535.64 1304.7 557.44V557.44Z" fill="#D1D9F1"/>
</g>
<g style="mix-blend-mode:multiply" opacity="0.6">
<path d="M772 928.04H0V886.24C109.7 898.34 292.8 925.04 302.6 785.24C304.4 759.34 307.5 742.84 334 763.84C364.5 787.94 365.5 838.24 399.6 858.64C415 867.84 433.5 870.04 451.4 871.74C566.5 882.64 682.4 880.64 797.9 873.44C797.9 873.54 798 873.64 798 873.84C806.2 897.74 798.7 916.94 772 928.04V928.04Z" fill="#D1D9F1"/>
</g>
<g style="mix-blend-mode:multiply" opacity="0.6">
<path d="M1354.7 733.24C1336.1 739.74 1204.8 738.84 1176 731.34C1176 731.34 1179.7 765.74 1046.6 800.24C978.9 817.84 879.1 826.64 797.4 831.14C780.2 825.14 764.6 816.04 751.9 802.24C747.4 797.34 743.3 791.54 742.9 784.94C741.9 767.74 763.8 760.04 780.9 757.94C868.2 747.24 955.9 738.94 1043.7 733.24C1065.9 731.84 1089.6 729.94 1107.4 716.44C1114.5 711.04 1120.2 704.04 1127.5 699.14C1143.8 688.14 1165 688.84 1184.7 689.34C1233.5 690.74 1282.4 688.64 1330.9 683.24C1346.7 681.44 1363.1 679.14 1376.5 670.44C1396.4 657.54 1405.8 632.74 1406.2 609.04C1406.4 597.34 1404.7 585.84 1402 574.44C1416.3 583.64 1427.8 598.34 1432.1 621.44C1447.8 706.24 1373.4 726.74 1354.7 733.24V733.24Z" fill="#D1D9F1"/>
</g>
<g style="mix-blend-mode:screen" opacity="0.5">
<path d="M673.8 790.74C641.8 761.44 595.3 748.74 552.8 757.74C565 734.64 577.3 706.94 565.5 683.54C556.6 665.84 536.3 656.84 516.7 653.64C480.4 647.64 441.7 657.54 412.7 680.14C425.7 639.54 397.4 595.54 355.3 590.44C347.9 589.54 309 590.54 307.4 601.64C310.4 580.64 312.9 557.14 300.2 540.14C283.5 517.84 249.5 518.74 223.3 528.14C200.2 536.44 184.7 551.84 164.1 563.64C149 572.34 127 563.14 110.4 562.14C73.1 559.84 35.4 565.24 0 577.44V503.74C11.4 482.64 31 465.94 54 459.04C89.1 448.54 126.9 459.94 160.7 474.24C185.3 432.34 243.6 414.34 287.5 435.14C331.4 455.94 354.5 512.44 337.7 557.94C360.3 552.24 384.1 547.14 406.6 553.04C429.1 558.94 449.5 579.44 447.5 602.64C454.7 601.34 461.9 600.14 469.1 599.04C487.5 596.24 506 594.44 524.4 596.44C550.1 599.24 576 610.44 590.7 631.64C611.2 661.14 605.6 700.84 599 736.14C633.1 729.54 669.8 756.44 673.8 790.74V790.74Z" fill="#D1D9F1"/>
</g>
<g style="mix-blend-mode:multiply" opacity="0.6">
<path d="M447.6 602.74C449.6 579.54 429.2 559.14 406.7 553.14C384.2 547.24 360.4 552.24 337.8 558.04C354.6 512.44 331.5 455.94 287.6 435.24C243.7 414.44 185.4 432.44 160.8 474.34C127 460.14 89.3001 448.64 54.1001 459.14C31.1001 466.04 11.5001 482.74 0.100098 503.84V414.44C53.1001 403.34 110.7 414.24 155.5 444.94C202.5 419.14 258.7 404.44 310.1 419.94C361.4 435.44 403.4 487.84 393.9 540.64C414.2 528.14 442.5 540.24 455.6 560.24C463.2 571.84 467.1 585.24 469.3 599.14C462 600.24 454.8 601.44 447.6 602.74Z" fill="#D1D9F1"/>
</g>
<g style="mix-blend-mode:screen" opacity="0.5">
<path d="M485.2 321.24C500.1 309.04 520.8 304.54 542.2 311.84C566.1 319.94 575.1 338.04 587.9 358.34C589.5 360.94 591.3 363.64 593.8 365.34C605.4 373.24 633 359.24 647.7 360.64C668.1 362.54 687.5 373.04 700.3 389.04C706.5 396.84 711.6 405.74 714.7 415.14C716 418.94 721.5 440.84 714.7 442.04C709.7 442.94 701.6 436.04 697.4 433.74C690.3 429.84 683.2 426.04 676.1 422.14C655.2 410.74 629.6 409.64 606.6 414.74C599.9 416.24 593.1 418.34 586.4 417.14C570.7 414.34 562.5 396.54 550.8 387.34C535.4 375.24 517.2 370.64 497.9 373.04C488.9 374.24 462.9 386.14 463 369.94C463.2 349.44 471.8 332.24 485.2 321.24V321.24Z" fill="#D1D9F1"/>
</g>
<path d="M772.1 928.04C798.8 916.94 806.3 897.74 798.1 873.84C786 838.44 656.6 835.64 656.6 835.64C656.6 835.64 913.5 834.74 1046.6 800.24C1179.7 765.74 1176 731.34 1176 731.34C1204.8 738.84 1336.1 739.74 1354.7 733.24C1373.3 726.74 1447.8 706.24 1431.9 621.54C1416.1 536.84 1304.4 564.74 1304.4 564.74C1304.4 564.74 1312.8 473.54 1222.5 459.54C1132.2 445.54 1089.4 487.44 1089.4 487.44C1107.1 402.74 1072.6 298.44 995.4 284.54C918.2 270.64 885.6 317.14 885.6 317.14C885.6 317.14 892.1 276.14 863.3 224.94C834.5 173.74 768.4 175.64 768.4 175.64C758.2 132.84 705.7 18.5404 559 21.0404C412.3 23.5404 396.3 162.84 396.3 162.84C396.3 162.84 321.1 113.54 250.9 164.04C180.7 214.54 193 286.04 193 286.04L136.3 286.74C136.3 286.74 151.9 232.74 102.5 165.94C75.1 128.94 32.5 124.04 0 126.94" stroke="#1941B8" stroke-width="4" stroke-linejoin="round"/>
</g>
<defs>
<filter id="filter0_d_312_78" x="-13.1777" y="0" width="1486.29" height="960.887" filterUnits="userSpaceOnUse" color-interpolation-filters="sRGB">
<feFlood flood-opacity="0" result="BackgroundImageFix"/>
<feColorMatrix in="SourceAlpha" type="matrix" values="0 0 0 0 0 0 0 0 0 0 0 0 0 0 0 0 0 0 127 0" result="hardAlpha"/>
<feOffset dx="12" dy="6"/>
<feGaussianBlur stdDeviation="12.5"/>
<feComposite in2="hardAlpha" operator="out"/>
<feColorMatrix type="matrix" values="0 0 0 0 0.137255 0 0 0 0 0.203922 0 0 0 0 0.407843 0 0 0 0.2 0"/>
<feBlend mode="normal" in2="BackgroundImageFix" result="effect1_dropShadow_312_78"/>
<feBlend mode="normal" in="SourceGraphic" in2="effect1_dropShadow_312_78" result="shape"/>
</filter>
</defs>
</svg>
