<svg width="1890" height="1151" viewBox="0 0 1890 1151" fill="none" xmlns="http://www.w3.org/2000/svg">
<g filter="url(#filter0_d_333_15)">
<path d="M1889.9 100.96V1150.91H0C9.8 1113.41 43.9 1088.91 110.9 1057.11C112 1056.61 113 1056.11 114.1 1055.61C153 1037.31 199.2 1021.01 253.7 1010.11C258.3 1009.21 262.9 1008.31 267.5 1007.51C270.6 1007.01 273.7 1006.41 276.8 1005.91C278.9 1005.61 280.9 1005.21 283 1004.91C284.1 1004.71 285.3 1004.61 286.4 1004.41C292.8 1003.41 299.4 1002.61 306 1001.81C314.8 1000.81 323.8 999.91 333 999.11C342.2 998.41 351.5 997.81 361.1 997.31C366.9 997.11 372.7 996.91 378.6 996.71C384.5 996.61 390.4 996.51 396.4 996.51H396.1C395.8 996.51 395.4 996.51 394.9 996.41H393.9C393.7 996.41 393.5 996.41 393.2 996.31H392.8C391.6 996.21 390.2 996.01 388.6 995.81C388.2 995.71 387.7 995.71 387.3 995.61C386.4 995.51 385.4 995.31 384.4 995.11C384.1 995.11 383.9 995.01 383.6 995.01C383.1 994.91 382.6 994.81 382 994.71C381.5 994.61 381 994.51 380.6 994.41C379.4 994.11 378.1 993.91 376.8 993.61C375.7 993.31 374.7 993.11 373.6 992.81C372.8 992.61 371.9 992.31 371.1 992.11C369.7 991.71 368.3 991.21 366.8 990.81C366.2 990.61 365.6 990.41 365.1 990.21C364.5 990.01 363.9 989.81 363.3 989.61C362.7 989.41 362.1 989.11 361.5 988.91C340.3 980.41 317.9 962.61 321.7 925.61C328.8 858.11 435.7 890.01 437.4 890.51C436.2 889.51 377.9 843.81 468.6 786.01C499.2 766.51 546.5 760.01 595.9 760.01H600.5C601.68 760.01 602.85 760.01 604.03 760.07L605.9 760.11C607.2 760.11 608.5 760.21 609.8 760.21C611.5 760.21 613.2 760.31 614.9 760.31C615.8 760.31 616.7 760.31 617.6 760.41C621 760.51 624.4 760.71 627.7 760.81C628.5 760.81 629.2 760.91 630 760.91C631 760.91 632 761.01 633.1 761.11C634.7 761.21 636.2 761.31 637.7 761.41C639.2 761.51 640.6 761.61 642.1 761.71H642.5C646.9 762.01 651.2 762.31 655.5 762.71C656.8 762.81 658.1 762.91 659.4 763.01C735.8 769.91 802.2 785.91 802.2 785.91C802.2 785.91 753.3 706.81 822.7 624.61C892.1 542.41 1030.9 580.61 1042.5 618.91C1042.5 618.91 1038.7 585.11 1063.8 564.61C1088.6 544.31 1133.3 564.21 1134.2 564.61C1133.9 563.61 1119.4 511.41 1159.1 465.71C1198.8 419.91 1271.9 441.51 1273 441.81C1272.5 441.21 1251.8 412.21 1268.6 392.91C1285.5 373.31 1316.6 392.91 1316.6 392.91C1316.6 392.91 1294.4 310.11 1347.8 235.41C1401.2 160.61 1529.3 187.21 1529.3 187.21C1529.3 187.21 1528.45 117.02 1567 70.9098C1622.11 4.98981 1719.7 -12.2002 1800.21 7.93981C1846.84 19.5998 1889.9 47.9998 1889.9 100.96V100.96Z" fill="#D1D9F1"/>
<g style="mix-blend-mode:screen" opacity="0.5">
<path d="M466.1 832.11C456.2 854.01 482.9 891.91 478.8 915.21C474.4 939.91 413.9 939.61 433 961.91C437.6 967.31 450.9 977.41 450.5 988.21C449.8 1009.31 412.5 1022.11 402.8 1024.31C359 1034.01 266.9 1033.61 215.2 1040.71C112.6 1054.81 22.9 1111.01 0 1150.91C9.8 1113.41 43.9 1088.91 110.9 1057.11C112 1056.61 113 1056.11 114.1 1055.61C153 1037.31 199.2 1021.01 253.7 1010.11C258.3 1009.21 262.9 1008.31 267.5 1007.51C270.6 1007.01 273.7 1006.41 276.8 1005.91C278.9 1005.61 280.9 1005.21 283 1004.91C284.1 1004.71 285.3 1004.61 286.4 1004.41C292.8 1003.41 299.4 1002.61 306 1001.81C314.8 1000.81 323.8 999.91 333 999.11C342.2 998.41 351.5 997.81 361.1 997.31C366.9 997.11 372.7 996.91 378.6 996.71C384.5 996.61 390.5 996.51 396.5 996.51H396.1C395.8 996.51 395.4 996.51 394.9 996.41H393.9C393.7 996.41 393.5 996.41 393.2 996.31H392.8C391.6 996.21 390.2 996.01 388.6 995.81C388.2 995.71 387.7 995.71 387.3 995.61C386.4 995.51 385.4 995.31 384.4 995.11C384.1 995.11 383.9 995.01 383.6 995.01C383.1 994.91 382.6 994.81 382 994.71C381.5 994.61 381 994.51 380.6 994.41C379.4 994.21 378.1 993.91 376.8 993.61C375.7 993.31 374.7 993.11 373.6 992.81C372.8 992.61 371.9 992.31 371.1 992.11C369.7 991.71 368.3 991.21 366.8 990.81C366.2 990.61 365.6 990.41 365.1 990.21C364.5 990.01 363.9 989.81 363.3 989.61C362.7 989.41 362.1 989.11 361.5 988.91C340.3 980.41 317.9 962.61 321.7 925.61C328.8 858.11 435.7 890.01 437.4 890.51C436.2 889.51 377.9 843.81 468.6 786.01C499.2 766.51 546.5 760.01 595.9 760.01H600.5C601.9 760.01 603.3 760.01 604.7 760.11H605.9C607.2 760.11 608.5 760.21 609.8 760.21C611.5 760.21 613.2 760.31 614.9 760.31C615.8 760.31 616.7 760.31 617.6 760.41C621 760.51 624.4 760.71 627.7 760.81C628.5 760.81 629.2 760.91 630 760.91C631 760.91 632 761.01 633.1 761.11C634.7 761.21 636.2 761.31 637.7 761.41C639.2 761.51 640.6 761.61 642.1 761.71H642.5C646.9 762.01 651.2 762.31 655.5 762.71C656.8 762.81 658.1 762.91 659.4 763.01C634.5 764.81 609.6 768.21 585.4 773.41C550.7 781.11 482.1 796.41 466.1 832.11V832.11Z" fill="#D1D9F1"/>
</g>
<g style="mix-blend-mode:screen" opacity="0.5">
<path d="M1889.9 100.96V196.31C1864.5 165.91 1828 132.31 1780.8 128.71C1697.5 122.31 1647.5 173.91 1637.9 219.21C1628.7 262.71 1630.4 309.01 1642.1 351.91C1643.7 357.61 1645.4 363.61 1648.5 368.71C1651.1 373.11 1659.4 377.61 1660.8 381.81C1664.6 393.61 1615.4 386.71 1610 384.91C1595.5 380.11 1582.4 370.51 1574.8 357.31C1566 341.91 1565.2 323.31 1566.5 305.71C1567.8 288.11 1571 270.41 1569.3 252.71C1568.7 246.31 1567 239.41 1561.9 235.61C1557.6 232.51 1551.9 232.31 1546.6 232.41C1507.5 233.41 1457.7 244.21 1434.7 279.31C1416.9 306.51 1415.9 348.11 1415.9 379.71C1415.9 385.61 1416.05 391.54 1416.48 397.44C1416.9 403.34 1417.6 409.21 1418.7 415.01C1420.6 425.51 1430.6 439.61 1414.8 437.91C1394.6 435.81 1375.9 429.31 1355.6 435.01C1338.6 439.81 1325.6 451.61 1319.4 468.11C1294.9 533.31 1246 491.51 1214.5 521.11C1182.9 550.61 1228.8 600.51 1170.7 604.61C1112.6 608.71 1136.1 692.21 1073.9 686.11C1011.8 680.01 950.6 617.91 894.6 659.61C838.6 701.41 888.5 759.41 850.8 798.11C827.7 821.91 802.5 846.51 789.2 877.51C782.8 892.31 779.7 908.81 784.8 924.51C789.9 940.01 805.9 945.61 816.5 956.41C825.6 965.61 823.5 968.91 810.6 969.91C785.9 971.71 760.6 959.51 742.4 943.51C692.95 900.15 739.61 829.75 763.73 777.86C787.4 782.34 802.2 785.91 802.2 785.91C802.2 785.91 802.15 785.83 802.06 785.68C802.42 785.77 802.6 785.81 802.6 785.81C802.6 785.81 753.7 706.71 823.1 624.51C842.51 601.52 867.35 587.94 893.32 581.16C894.45 580.87 895.59 580.58 896.73 580.31C897.56 580.11 898.4 579.92 899.24 579.74C899.61 579.66 899.97 579.58 900.34 579.51C900.7 579.43 901.07 579.35 901.44 579.27C902.38 579.09 903.32 578.9 904.26 578.73C905.94 578.41 907.62 578.12 909.3 577.87C910.14 577.74 910.98 577.61 911.82 577.5C914.34 577.15 916.86 576.85 919.38 576.61C920.22 576.53 921.06 576.45 921.89 576.39C931.94 575.57 941.92 575.6 951.59 576.34C953.05 576.46 954.5 576.58 955.94 576.73C956.88 576.82 957.81 576.92 958.74 577.03C960.13 577.18 961.51 577.36 962.88 577.54C963.74 577.66 964.6 577.78 965.45 577.91C966.98 578.14 968.5 578.39 970 578.65C971.51 578.91 973 579.19 974.48 579.48C976.7 579.92 978.89 580.4 981.04 580.91C982.47 581.25 983.9 581.61 985.3 581.98C986.7 582.35 988.09 582.73 989.46 583.13C990.83 583.52 992.18 583.93 993.52 584.36C994.85 584.78 996.17 585.22 997.46 585.67C1002 587.24 1006.3 588.96 1010.31 590.8C1012.02 591.58 1013.69 592.39 1015.3 593.23C1016.91 594.06 1018.47 594.91 1019.96 595.78C1020.96 596.36 1021.93 596.94 1022.87 597.54C1023.81 598.13 1024.73 598.74 1025.61 599.34C1026.05 599.65 1026.49 599.95 1026.92 600.26C1027.78 600.88 1028.6 601.5 1029.4 602.12C1030.2 602.75 1030.96 603.38 1031.7 604.02C1032.44 604.66 1033.14 605.3 1033.81 605.94C1034.15 606.27 1034.48 606.6 1034.79 606.92C1038.63 610.82 1041.27 614.86 1042.5 618.91C1042.5 618.91 1042.44 618.35 1042.38 617.34C1042.58 617.83 1042.75 618.32 1042.9 618.81C1042.9 618.81 1039.1 585.01 1064.2 564.51C1068.64 560.88 1073.71 558.54 1079.05 557.14C1079.25 557.08 1079.45 557.03 1079.65 556.99C1104 551.17 1133.47 564.29 1134.2 564.61C1134.19 564.57 1134.16 564.47 1134.12 564.3C1134.39 564.42 1134.55 564.49 1134.6 564.51C1134.3 563.51 1119.8 511.31 1159.5 465.61C1160.02 465.02 1160.54 464.43 1161.07 463.86C1161.6 463.28 1162.13 462.72 1162.67 462.16C1163.03 461.8 1163.39 461.43 1163.76 461.07C1163.96 460.88 1164.16 460.68 1164.37 460.48C1164.65 460.2 1164.93 459.93 1165.22 459.67C1165.83 459.1 1166.46 458.53 1167.09 457.98C1167.47 457.65 1167.84 457.33 1168.22 457.01C1168.76 456.56 1169.29 456.12 1169.84 455.69C1170.38 455.26 1170.93 454.83 1171.48 454.42C1171.95 454.06 1172.43 453.71 1172.91 453.37C1174.25 452.4 1175.61 451.49 1176.99 450.64C1177.4 450.37 1177.8 450.13 1178.21 449.88C1178.58 449.66 1178.95 449.44 1179.32 449.22C1179.64 449.04 1179.96 448.86 1180.28 448.67C1180.76 448.41 1181.23 448.15 1181.71 447.89C1182.58 447.42 1183.46 446.96 1184.34 446.53C1184.79 446.31 1185.24 446.09 1185.69 445.88C1185.98 445.74 1186.28 445.6 1186.58 445.47C1186.96 445.29 1187.34 445.12 1187.72 444.96C1187.73 444.96 1187.73 444.95 1187.74 444.95C1187.96 444.85 1188.18 444.75 1188.41 444.66C1188.86 444.46 1189.32 444.27 1189.78 444.08C1190.17 443.92 1190.56 443.76 1190.95 443.61C1191.47 443.4 1192 443.2 1192.53 443.01C1192.97 442.84 1193.42 442.68 1193.86 442.52C1193.96 442.48 1194.06 442.45 1194.16 442.41C1194.63 442.24 1195.1 442.08 1195.58 441.93L1196.69 441.57C1197.15 441.41 1197.6 441.27 1198.06 441.13C1199 440.85 1199.93 440.58 1200.87 440.33C1201.94 440.05 1203.02 439.77 1204.09 439.52C1204.7 439.38 1205.32 439.24 1205.93 439.1C1206.54 438.97 1207.15 438.84 1207.76 438.72C1208.35 438.61 1208.93 438.5 1209.52 438.4C1213.6 437.67 1217.66 437.17 1221.63 436.86C1221.98 436.84 1222.32 436.81 1222.66 436.79C1226.57 436.52 1230.4 436.43 1234.08 436.47C1235.23 436.49 1236.36 436.51 1237.48 436.55C1237.82 436.56 1238.15 436.58 1238.49 436.59C1239.42 436.63 1240.35 436.67 1241.26 436.73C1241.33 436.73 1241.4 436.74 1241.47 436.74C1241.98 436.77 1242.48 436.8 1242.98 436.84C1243.12 436.85 1243.27 436.86 1243.42 436.87C1243.84 436.9 1244.26 436.93 1244.67 436.97C1246.78 437.14 1248.81 437.34 1250.75 437.57C1251.33 437.64 1251.9 437.71 1252.46 437.78C1256.4 438.29 1259.91 438.88 1262.87 439.45C1264.14 439.69 1265.3 439.94 1266.36 440.17C1267.06 440.32 1267.72 440.47 1268.32 440.61C1268.92 440.75 1269.47 440.88 1269.96 441.01C1271.81 441.46 1272.87 441.78 1273 441.81C1272.98 441.78 1272.91 441.69 1272.81 441.54C1273.15 441.64 1273.35 441.7 1273.4 441.71C1272.9 441.11 1252.2 412.11 1269 392.81C1272.52 388.73 1276.65 386.35 1281 385.13C1281.3 385.05 1281.61 384.97 1281.91 384.9C1284.32 384.36 1286.78 384.16 1289.22 384.21C1289.66 384.21 1290.11 384.23 1290.55 384.26C1290.9 384.27 1291.25 384.29 1291.59 384.33C1291.9 384.35 1292.22 384.38 1292.53 384.42C1292.64 384.42 1292.75 384.43 1292.86 384.46C1293.25 384.49 1293.64 384.54 1294.03 384.6C1295.74 384.84 1297.42 385.18 1299.04 385.59C1299.42 385.68 1299.79 385.78 1300.16 385.88C1300.36 385.93 1300.56 385.99 1300.76 386.05C1303.16 386.73 1305.41 387.53 1307.42 388.35C1307.75 388.49 1308.07 388.62 1308.39 388.75L1308.87 388.96C1309.1 389.06 1309.32 389.16 1309.53 389.25C1311.59 390.17 1313.29 391.04 1314.51 391.71C1314.68 391.8 1314.85 391.89 1315 391.98C1315.79 392.42 1316.31 392.73 1316.51 392.85C1316.55 392.88 1316.58 392.89 1316.59 392.9C1316.58 392.85 1316.55 392.72 1316.5 392.51C1316.83 392.7 1317 392.81 1317 392.81C1317 392.81 1294.8 310.01 1348.2 235.31C1365.76 210.72 1391.38 197.09 1417.87 189.87C1419.95 189.3 1422.03 188.78 1424.11 188.3C1476.19 176.18 1529.3 187.21 1529.3 187.21V187.03C1529.56 187.08 1529.7 187.11 1529.7 187.11C1529.7 187.11 1529.54 186.32 1529.32 184.86C1529.58 172.3 1532.62 112.03 1567 70.9098C1622.11 4.98981 1719.7 -12.2002 1800.2 7.93981C1837.09 17.1598 1871.75 36.8598 1884.61 70.9098C1888.02 79.8998 1889.9 89.8898 1889.9 100.96V100.96Z" fill="#D1D9F1"/>
</g>
<g style="mix-blend-mode:screen" opacity="0.5">
<path d="M1738.3 487.71C1700.6 488.11 1664 505.81 1640.7 535.71C1629.4 550.21 1621.5 567.41 1618.1 585.51C1615.7 598.71 1617.9 612.61 1620.2 625.61C1622 636.11 1622.9 642.11 1609.1 638.61C1587.9 633.31 1566 629.01 1544.2 631.01C1522.4 633.01 1500.4 642.01 1486.8 659.11C1476.6 672.01 1473.1 688.51 1472.3 704.51C1471.6 719.11 1472.6 733.91 1473.4 748.51C1473.4 749.11 1473.5 749.71 1473.2 750.21C1472.6 751.31 1471.5 750.71 1470.6 750.61C1469.3 750.41 1468 750.21 1466.7 750.01C1461.8 749.31 1456.8 748.71 1451.9 748.51C1441.7 748.11 1431.6 749.41 1422.2 753.41C1406.4 760.11 1393.5 773.51 1388.1 789.81C1385.5 797.51 1384.5 805.71 1381.8 813.31C1374.7 833.31 1352 838.61 1336.8 822.91C1327.2 813.01 1324.3 798.31 1324.6 784.51C1325.6 747.31 1350.8 711.71 1389.5 707.11C1393.5 706.61 1397.7 706.41 1401.3 704.61C1412 699.11 1408.6 677.01 1409.7 667.31C1411.6 650.61 1414.2 633.91 1419.1 617.71C1428.8 585.91 1446.5 559.21 1477.9 546.71C1503.1 536.71 1540.6 530.11 1563 549.81C1563.4 505.41 1598 467.41 1638.4 453.11C1683.8 437.01 1737.2 445.51 1779.1 467.51C1789.6 473.01 1799.8 480.11 1805.4 490.91C1807.7 495.31 1815.6 515.71 1803.6 509.21C1781.5 497.41 1763.8 487.71 1738.3 487.71V487.71Z" fill="#D1D9F1"/>
</g>
<g style="mix-blend-mode:screen" opacity="0.5">
<path d="M1162.7 780.01C1162.5 779.91 1162.2 779.91 1162 779.81C1114.3 766.31 1051.4 760.41 1014.7 801.41C996.5 821.81 989.9 853.21 1002.3 877.51C1013.7 899.81 1043.6 910.41 1057.1 883.81C1060.5 877.11 1062.2 869.81 1064.5 862.71C1069.6 847.31 1079 837.31 1095.6 835.21C1112.8 833.01 1129.6 839.01 1146.7 838.91C1160.2 838.91 1175 833.91 1181.2 821.91C1186.4 811.91 1188.1 797.21 1179.5 788.51C1175.1 784.01 1168.9 781.71 1162.7 780.01Z" fill="#D1D9F1"/>
</g>
<g style="mix-blend-mode:screen" opacity="0.5">
<path d="M631.9 929.31C630.1 930.71 627.5 930.51 625.1 930.31C569.9 925.61 531.5 971.21 517 1019.91C509.1 1046.41 505.7 1086.31 531.3 1104.81C537 1109.01 539.9 1111.11 543.4 1106.01C546.6 1101.21 545.1 1086.91 545.6 1081.01C546.3 1072.61 547.1 1064.31 548.5 1056.01C551.8 1036.61 558.2 1017.51 570.6 1002.01C587.8 980.31 614.3 971.91 641.1 970.21C654.4 969.31 654.3 944.91 659.6 934.31C667.6 918.51 678.7 904.51 687 888.91C688 887.11 688.8 884.81 687.5 883.21C686.4 881.91 684.5 882.01 682.8 882.21C660.5 885.51 640.8 902.61 634.4 924.21C634 926.01 633.4 928.01 631.9 929.31C631.9 929.21 631.9 929.31 631.9 929.31V929.31Z" fill="#D1D9F1"/>
</g>
<g style="mix-blend-mode:multiply" opacity="0.6">
<path d="M1889.9 1082.51V1150.91H803.6C805 1149.71 806.5 1148.61 807.9 1147.61C857.9 1112.41 919.6 1094.01 980.7 1096.21C1001.2 1096.91 1022.3 1099.81 1041.9 1093.71C1061.5 1087.61 1079.3 1069.01 1075.8 1048.71C1072.8 1031.21 1055.5 1018.61 1053.3 1001.01C1097.1 1032.41 1153.4 1045.91 1206.7 1037.81C1260 1029.71 1309.7 1000.11 1342.3 957.21C1343.6 980.31 1344.9 1004.01 1353.5 1025.51C1367.8 1061.71 1401.3 1087.81 1437.9 1101.11C1474.5 1114.41 1514.1 1116.51 1553 1116.11C1633.5 1115.31 1713.6 1104.81 1793.5 1094.31C1820.4 1090.71 1847.7 1084.11 1874.7 1081.71C1880.1 1081.21 1885.2 1081.51 1889.9 1082.51V1082.51Z" fill="#D1D9F1"/>
</g>
<path d="M1889.9 100.96C1889.9 47.9998 1846.84 19.5998 1800.21 7.93981C1719.7 -12.2002 1622.11 4.98981 1567 70.9098C1528.45 117.02 1529.3 187.21 1529.3 187.21C1529.3 187.21 1401.2 160.61 1347.8 235.41C1294.4 310.11 1316.6 392.91 1316.6 392.91C1316.6 392.91 1285.5 373.31 1268.6 392.91C1251.8 412.21 1272.5 441.21 1273 441.81C1271.9 441.51 1198.8 419.91 1159.1 465.71C1119.4 511.41 1133.9 563.61 1134.2 564.61C1133.3 564.21 1088.6 544.31 1063.8 564.61C1038.7 585.11 1042.5 618.91 1042.5 618.91C1030.9 580.61 892.1 542.41 822.7 624.61C753.3 706.81 802.2 785.91 802.2 785.91C802.2 785.91 735.8 769.91 659.4 763.01C658.1 762.91 656.8 762.81 655.5 762.71C651.2 762.31 646.9 762.01 642.5 761.71H642.1C640.6 761.61 639.2 761.51 637.7 761.41C636.2 761.31 634.7 761.21 633.1 761.11C632 761.01 631 760.91 630 760.91C629.2 760.91 628.5 760.81 627.7 760.81C624.4 760.71 621 760.51 617.6 760.41C616.7 760.31 615.8 760.31 614.9 760.31C613.2 760.31 611.5 760.21 609.8 760.21C608.5 760.21 607.2 760.11 605.9 760.11L604.03 760.07C602.85 760.01 601.68 760.01 600.5 760.01H595.9C546.5 760.01 499.2 766.51 468.6 786.01C377.9 843.81 436.2 889.51 437.4 890.51C435.7 890.01 328.8 858.11 321.7 925.61C317.9 962.61 340.3 980.41 361.5 988.91C362.1 989.11 362.7 989.41 363.3 989.61C363.9 989.81 364.5 990.01 365.1 990.21C365.6 990.41 366.2 990.61 366.8 990.81C368.3 991.21 369.7 991.71 371.1 992.11C371.9 992.31 372.8 992.61 373.6 992.81C374.7 993.11 375.7 993.31 376.8 993.61C378.1 993.91 379.4 994.11 380.6 994.41C381 994.51 381.5 994.61 382 994.71C382.6 994.81 383.1 994.91 383.6 995.01C383.9 995.01 384.1 995.11 384.4 995.11C385.4 995.31 386.4 995.51 387.3 995.61C387.7 995.71 388.2 995.71 388.6 995.81C390.2 996.01 391.6 996.21 392.8 996.31H393.2C393.5 996.41 393.7 996.41 393.9 996.41H394.9C395.4 996.51 395.8 996.51 396.1 996.51H396.4C390.4 996.51 384.5 996.61 378.6 996.71C372.7 996.91 366.9 997.11 361.1 997.31C351.5 997.81 342.2 998.41 333 999.11C323.8 999.91 314.8 1000.81 306 1001.81C299.4 1002.61 292.8 1003.41 286.4 1004.41C285.3 1004.61 284.1 1004.71 283 1004.91C280.9 1005.21 278.9 1005.61 276.8 1005.91C273.7 1006.41 270.6 1007.01 267.5 1007.51C262.9 1008.31 258.3 1009.21 253.7 1010.11C199.2 1021.01 153 1037.31 114.1 1055.61C113 1056.11 112 1056.61 110.9 1057.11C43.9 1088.91 9.8 1113.41 0 1150.91H1889.9" stroke="#1941B8" stroke-width="4" stroke-linecap="round" stroke-linejoin="round"/>
</g>
<defs>
<filter id="filter0_d_333_15" x="-39" y="-20.9956" width="1943.9" height="1204.91" filterUnits="userSpaceOnUse" color-interpolation-filters="sRGB">
<feFlood flood-opacity="0" result="BackgroundImageFix"/>
<feColorMatrix in="SourceAlpha" type="matrix" values="0 0 0 0 0 0 0 0 0 0 0 0 0 0 0 0 0 0 127 0" result="hardAlpha"/>
<feOffset dx="-12" dy="6"/>
<feGaussianBlur stdDeviation="12.5"/>
<feComposite in2="hardAlpha" operator="out"/>
<feColorMatrix type="matrix" values="0 0 0 0 0 0 0 0 0 0 0 0 0 0 0 0 0 0 0.25 0"/>
<feBlend mode="normal" in2="BackgroundImageFix" result="effect1_dropShadow_333_15"/>
<feBlend mode="normal" in="SourceGraphic" in2="effect1_dropShadow_333_15" result="shape"/>
</filter>
</defs>
</svg>
