<svg width="880" height="871" viewBox="0 0 880 871" fill="none" xmlns="http://www.w3.org/2000/svg">
<path d="M789.171 658.803C667.985 598.418 212.563 606.574 0 618.2V870.672H853.201C886.169 821.045 910.358 719.189 789.171 658.803Z" fill="#1941B8"/>
<path fill-rule="evenodd" clip-rule="evenodd" d="M91.4 2H840.105C858.671 2 873.722 17.0354 873.722 35.5825V531.183C873.722 549.73 858.671 564.766 840.105 564.766H91.4C72.834 564.766 57.7832 549.73 57.7832 531.183V35.5825C57.7832 17.0354 72.834 2 91.4 2ZM96.082 47.0012H835.427V455.881H96.082V47.0012Z" fill="white"/>
<path d="M835.427 47.0012H836.927C836.927 46.1728 836.255 45.5012 835.427 45.5012V47.0012ZM96.082 47.0012V45.5012C95.2536 45.5012 94.582 46.1728 94.582 47.0012H96.082ZM835.427 455.881V457.381C836.255 457.381 836.927 456.709 836.927 455.881H835.427ZM96.082 455.881H94.582C94.582 456.709 95.2536 457.381 96.082 457.381V455.881ZM840.105 0.5H91.4V3.5H840.105V0.5ZM875.222 35.5825C875.222 16.2055 859.498 0.5 840.105 0.5V3.5C857.844 3.5 872.222 17.8653 872.222 35.5825H875.222ZM875.222 531.183V35.5825H872.222V531.183H875.222ZM840.105 566.266C859.498 566.266 875.222 550.56 875.222 531.183H872.222C872.222 548.901 857.844 563.266 840.105 563.266V566.266ZM91.4 566.266H840.105V563.266H91.4V566.266ZM56.2832 531.183C56.2832 550.56 72.007 566.266 91.4 566.266V563.266C73.6609 563.266 59.2832 548.901 59.2832 531.183H56.2832ZM56.2832 35.5825V531.183H59.2832V35.5825H56.2832ZM91.4 0.5C72.007 0.5 56.2832 16.2055 56.2832 35.5825H59.2832C59.2832 17.8653 73.6609 3.5 91.4 3.5V0.5ZM835.427 45.5012H96.082V48.5012H835.427V45.5012ZM836.927 455.881V47.0012H833.927V455.881H836.927ZM96.082 457.381H835.427V454.381H96.082V457.381ZM94.582 47.0012V455.881H97.582V47.0012H94.582Z" fill="#1941B8"/>
<path d="M552.54 564.766V629.278C552.54 632.2 553.71 635.033 555.78 637.101L580.306 661.602C587.282 668.57 582.331 680.529 572.476 680.529H359.029C349.129 680.529 344.179 668.57 351.199 661.602L375.725 637.101C377.795 635.033 378.965 632.2 378.965 629.278V564.766" fill="white"/>
<path d="M552.54 564.766V629.278C552.54 632.2 553.71 635.033 555.78 637.101L580.306 661.602C587.282 668.57 582.331 680.529 572.476 680.529H359.029C349.129 680.529 344.179 668.57 351.199 661.602L375.725 637.101C377.795 635.033 378.965 632.2 378.965 629.278V564.766" stroke="#1941B8" stroke-width="3" stroke-linecap="round" stroke-linejoin="round"/>
<path d="M57.7832 488.52H873.722" stroke="#1941B8" stroke-width="3" stroke-linecap="round" stroke-linejoin="round"/>
<path d="M453.984 26.4563H461.995" stroke="#1941B8" stroke-width="3" stroke-linecap="round" stroke-linejoin="round"/>
<path d="M470.41 26.4563H477.566" stroke="#1941B8" stroke-width="3" stroke-linecap="round" stroke-linejoin="round"/>
<rect x="647.059" y="680.812" width="55.1795" height="83.2898" rx="20" fill="white"/>
<line x1="674.586" y1="690.642" x2="674.586" y2="708.464" stroke="#1941B8" stroke-width="3" stroke-linecap="round"/>
<line x1="694.49" y1="707.3" x2="654.804" y2="707.3" stroke="#1941B8" stroke-width="3" stroke-linecap="round"/>
<path d="M143.957 778.537L34.0427 789.352L23.5942 650.564L120.676 641.012L143.957 778.537Z" fill="white" stroke="#1941B8" stroke-width="3" stroke-linecap="round" stroke-linejoin="round"/>
<path d="M151.575 785.748L43.2113 766.005L80.324 630.95L176.036 648.388L151.575 785.748Z" fill="white" stroke="#1941B8" stroke-width="3" stroke-linecap="round" stroke-linejoin="round"/>
<path d="M333.406 660.275L366.381 803.635L220.119 803.139L73.8563 802.643L107.802 659.51L333.406 660.275Z" fill="white" stroke="#1941B8" stroke-width="3" stroke-linecap="round" stroke-linejoin="round"/>
<path d="M220.59 664.054L220.148 794.233C220.148 794.233 240.519 779.367 272.755 780.697C304.99 782.027 359.312 791.761 359.312 791.761L333.4 662.067C333.4 662.067 246.877 640.879 220.59 664.054V664.054Z" fill="white" stroke="#1941B8" stroke-width="3" stroke-linecap="round" stroke-linejoin="round"/>
<path d="M220.591 664.054L220.15 794.233C220.15 794.233 199.88 779.229 167.637 780.34C135.393 781.452 81.0061 790.817 81.0061 790.817L107.797 661.302C107.797 661.302 194.462 640.701 220.591 664.054Z" fill="white" stroke="#1941B8" stroke-width="3" stroke-linecap="round" stroke-linejoin="round"/>
<path d="M220.15 794.234C220.15 794.234 173.49 790.629 154.816 792.002C136.142 793.375 89.0371 794.005 80.9886 795.916L81.0059 790.818" fill="white"/>
<path d="M220.15 794.234C220.15 794.234 173.49 790.629 154.816 792.002C136.142 793.375 89.0371 794.005 80.9886 795.916L81.0059 790.818" stroke="#1941B8" stroke-width="3" stroke-linecap="round" stroke-linejoin="round"/>
<path d="M220.148 794.234C220.148 794.234 266.832 790.946 285.496 792.445C304.159 793.944 351.259 794.894 359.295 796.86L359.312 791.762" fill="white"/>
<path d="M220.148 794.234C220.148 794.234 266.832 790.946 285.496 792.445C304.159 793.944 351.259 794.894 359.295 796.86L359.312 791.762" stroke="#1941B8" stroke-width="3" stroke-linecap="round" stroke-linejoin="round"/>
<path d="M238.709 679.195C245.815 679.793 252.793 676.011 259.825 677.328C264.848 678.278 269.504 681.741 274.533 680.752C278.054 680.118 281.008 677.256 284.527 676.981C287.544 676.704 290.339 678.221 293.208 679.164C299.806 681.341 306.99 680.288 313.815 679.306" stroke="#1941B8" stroke-width="3" stroke-linecap="round" stroke-linejoin="round"/>
<path d="M249.681 703.934C253.776 703.374 257.87 702.957 261.964 702.755C263.256 702.688 264.549 702.62 265.841 702.84C267.348 703.133 268.781 703.855 270.216 704.363C274.518 705.957 279.185 706.045 283.709 706.06" stroke="#1941B8" stroke-width="3" stroke-linecap="round" stroke-linejoin="round"/>
<path d="M299.077 705.679C301.735 705.185 304.464 705.122 307.191 705.491C310.78 705.934 314.582 706.952 317.818 705.383" stroke="#1941B8" stroke-width="3" stroke-linecap="round" stroke-linejoin="round"/>
<path d="M247.347 735.015C254.176 732.884 261.363 730.755 268.468 731.928C272.63 732.588 276.645 734.397 280.882 734.411C284.974 734.425 288.929 732.859 292.952 732.154C296.329 731.591 299.847 731.603 303.294 731.615L322.321 731.823" stroke="#1941B8" stroke-width="3" stroke-linecap="round" stroke-linejoin="round"/>
<path d="M246.337 757.917C252.009 757.936 257.692 754.94 263.216 756.323C265.225 756.832 267.088 757.915 269.024 758.712C274.617 760.957 280.865 760.619 286.898 760.208" stroke="#1941B8" stroke-width="3" stroke-linecap="round" stroke-linejoin="round"/>
<path d="M124.529 682.039C133.365 680.633 142.482 681.31 151.018 683.996C154.604 685.085 158.117 686.605 161.852 686.474C166.878 686.347 171.484 683.347 176.512 682.718C181.9 682.09 187.493 684.191 192.597 682.414" stroke="#1941B8" stroke-width="3" stroke-linecap="round" stroke-linejoin="round"/>
<path d="M148.653 704.092C154.472 703.107 160.574 703.558 166.24 705.444C171.404 707.185 176.133 710.073 181.37 711.599C186.606 713.124 192.854 712.858 196.816 709.066" stroke="#1941B8" stroke-width="3" stroke-linecap="round" stroke-linejoin="round"/>
<path d="M122.202 733.155C125.738 728.212 132.92 727.734 138.875 728.975C144.831 730.216 150.71 732.677 156.672 732.051C159.617 731.702 162.349 730.706 165.295 730.213C168.24 729.721 171.398 730.091 173.618 732.037" stroke="#1941B8" stroke-width="3" stroke-linecap="round" stroke-linejoin="round"/>
<path d="M182.588 733.575L192.499 733.034" stroke="#1941B8" stroke-width="3" stroke-linecap="round" stroke-linejoin="round"/>
<path d="M123.486 755.922C133.042 754.088 142.95 754.337 152.421 756.451C160.241 758.273 167.914 761.386 175.957 760.983C182.564 760.646 188.892 757.867 195.571 757.675" stroke="#1941B8" stroke-width="3" stroke-linecap="round" stroke-linejoin="round"/>
<path d="M325.334 755.929L334.51 743.751L430.928 816.402C433.603 818.417 433.719 822.784 431.187 826.144C428.656 829.503 424.426 830.596 421.752 828.581L325.334 755.929V755.929Z" fill="white" stroke="#1941B8" stroke-width="3" stroke-linecap="round" stroke-linejoin="round"/>
<path d="M318.161 740.976L326.263 742.308L334.365 743.64L329.777 749.729L325.169 755.845L321.655 748.424L318.161 740.976Z" fill="white" stroke="#1941B8" stroke-width="3" stroke-linecap="round" stroke-linejoin="round"/>
<path d="M320.33 745.617L323.218 741.785" stroke="#1941B8" stroke-width="3" stroke-linecap="round" stroke-linejoin="round"/>
</svg>
