<svg width="880" height="871" viewBox="0 0 880 871" fill="none" xmlns="http://www.w3.org/2000/svg">
<path d="M789.171 658.803C667.985 598.418 212.563 606.574 0 618.2V870.672H853.201C886.169 821.045 910.358 719.189 789.171 658.803Z" fill="#1941B8"/>
<path fill-rule="evenodd" clip-rule="evenodd" d="M91.3981 2H840.103C858.669 2 873.72 17.0354 873.72 35.5825V531.183C873.72 549.73 858.669 564.766 840.103 564.766H91.3981C72.832 564.766 57.7812 549.73 57.7812 531.183V35.5825C57.7812 17.0354 72.832 2 91.3981 2ZM96.0801 47.001H835.425V455.881H96.0801V47.001Z" fill="white"/>
<path d="M835.425 47.001H836.925C836.925 46.1725 836.253 45.501 835.425 45.501V47.001ZM96.0801 47.001V45.501C95.2517 45.501 94.5801 46.1725 94.5801 47.001H96.0801ZM835.425 455.881V457.381C836.253 457.381 836.925 456.709 836.925 455.881H835.425ZM96.0801 455.881H94.5801C94.5801 456.709 95.2517 457.381 96.0801 457.381V455.881ZM840.103 0.5H91.3981V3.5H840.103V0.5ZM875.22 35.5825C875.22 16.2055 859.496 0.5 840.103 0.5V3.5C857.842 3.5 872.22 17.8653 872.22 35.5825H875.22ZM875.22 531.183V35.5825H872.22V531.183H875.22ZM840.103 566.266C859.496 566.266 875.22 550.56 875.22 531.183H872.22C872.22 548.901 857.842 563.266 840.103 563.266V566.266ZM91.3981 566.266H840.103V563.266H91.3981V566.266ZM56.2812 531.183C56.2812 550.56 72.005 566.266 91.3981 566.266V563.266C73.659 563.266 59.2812 548.901 59.2812 531.183H56.2812ZM56.2812 35.5825V531.183H59.2812V35.5825H56.2812ZM91.3981 0.5C72.005 0.5 56.2812 16.2055 56.2812 35.5825H59.2812C59.2812 17.8653 73.659 3.5 91.3981 3.5V0.5ZM835.425 45.501H96.0801V48.501H835.425V45.501ZM836.925 455.881V47.001H833.925V455.881H836.925ZM96.0801 457.381H835.425V454.381H96.0801V457.381ZM94.5801 47.001V455.881H97.5801V47.001H94.5801Z" fill="#1941B8"/>
<path d="M552.538 564.766V629.278C552.538 632.2 553.708 635.033 555.778 637.101L580.304 661.602C587.28 668.57 582.329 680.529 572.474 680.529H359.027C349.127 680.529 344.177 668.57 351.197 661.602L375.723 637.101C377.793 635.033 378.964 632.2 378.964 629.278V564.766" fill="white"/>
<path d="M552.538 564.766V629.278C552.538 632.2 553.708 635.033 555.778 637.101L580.304 661.602C587.28 668.57 582.329 680.529 572.474 680.529H359.027C349.127 680.529 344.177 668.57 351.197 661.602L375.723 637.101C377.793 635.033 378.964 632.2 378.964 629.278V564.766" stroke="#1941B8" stroke-width="3" stroke-linecap="round" stroke-linejoin="round"/>
<path d="M57.7812 488.52H873.72" stroke="#1941B8" stroke-width="3" stroke-linecap="round" stroke-linejoin="round"/>
<path d="M453.986 26.4561H461.997" stroke="#1941B8" stroke-width="3" stroke-linecap="round" stroke-linejoin="round"/>
<path d="M470.414 26.4561H477.569" stroke="#1941B8" stroke-width="3" stroke-linecap="round" stroke-linejoin="round"/>
<path d="M59.0233 575.854L222.707 558.417L226.644 641.103H51.1484L59.0233 575.854Z" fill="white"/>
<path d="M164.882 585.198C163.757 590.422 155.208 600.756 146.039 591.035C136.871 581.314 152.136 574.09 152.136 574.09C150.033 570.206 155.241 561.872 162.801 562.797C170.361 563.722 171.835 572.333 171.835 572.333C171.835 572.333 180.508 576.298 179.541 584.967C178.573 593.635 166.559 595.508 162.216 590.399" fill="white"/>
<path d="M164.882 585.198C163.757 590.422 155.208 600.756 146.039 591.035C136.871 581.314 152.136 574.09 152.136 574.09C150.033 570.206 155.241 561.872 162.801 562.797C170.361 563.722 171.835 572.333 171.835 572.333C171.835 572.333 180.508 576.298 179.541 584.967C178.573 593.635 166.559 595.508 162.216 590.399" stroke="#1941B8" stroke-width="3" stroke-linecap="round" stroke-linejoin="round"/>
<path d="M165.096 572.795C165.096 572.795 168.246 570.935 171.834 572.322" stroke="#1941B8" stroke-width="3" stroke-linecap="round" stroke-linejoin="round"/>
<path d="M154.904 574.217C154.904 574.217 152.879 573.639 151.652 574.333" stroke="#1941B8" stroke-width="3" stroke-linecap="round" stroke-linejoin="round"/>
<path d="M220.292 578.076C219.168 583.301 210.618 593.634 201.449 583.913C192.281 574.193 207.547 566.969 207.547 566.969C205.443 563.085 210.651 554.751 218.211 555.676C225.771 556.6 227.245 565.212 227.245 565.212C227.245 565.212 235.918 569.176 234.951 577.845C233.983 586.514 221.969 588.387 217.626 583.278" fill="white"/>
<path d="M220.292 578.076C219.168 583.301 210.618 593.634 201.449 583.913C192.281 574.193 207.547 566.969 207.547 566.969C205.443 563.085 210.651 554.751 218.211 555.676C225.771 556.6 227.245 565.212 227.245 565.212C227.245 565.212 235.918 569.176 234.951 577.845C233.983 586.514 221.969 588.387 217.626 583.278" stroke="#1941B8" stroke-width="3" stroke-linecap="round" stroke-linejoin="round"/>
<path d="M220.506 565.673C220.506 565.673 223.656 563.812 227.244 565.2" stroke="#1941B8" stroke-width="3" stroke-linecap="round" stroke-linejoin="round"/>
<path d="M210.314 567.096C210.314 567.096 208.289 566.518 207.062 567.211" stroke="#1941B8" stroke-width="3" stroke-linecap="round" stroke-linejoin="round"/>
<path d="M80.4457 613.551C75.8558 616.071 62.6486 616.106 63.8861 602.628C65.1236 589.151 80.3782 596.375 80.3782 596.375C81.8744 592.202 91.4367 590.862 95.6666 597.369C99.8965 603.877 94.4854 610.615 94.4854 610.615C94.4854 610.615 97.1966 619.966 90.143 624.844C83.1007 629.722 73.9096 621.561 74.8658 614.846" fill="white"/>
<path d="M80.4457 613.551C75.8558 616.071 62.6486 616.106 63.8861 602.628C65.1236 589.151 80.3782 596.375 80.3782 596.375C81.8744 592.202 91.4367 590.862 95.6666 597.369C99.8965 603.877 94.4854 610.615 94.4854 610.615C94.4854 610.615 97.1966 619.966 90.143 624.844C83.1007 629.722 73.9096 621.561 74.8658 614.846" stroke="#1941B8" stroke-width="3" stroke-linecap="round" stroke-linejoin="round"/>
<path d="M89.75 605.657C89.75 605.657 93.1812 606.917 94.4749 610.615" stroke="#1941B8" stroke-width="3" stroke-linecap="round" stroke-linejoin="round"/>
<path d="M82.0741 598.618C82.0741 598.618 81.1854 596.653 79.8691 596.156" stroke="#1941B8" stroke-width="3" stroke-linecap="round" stroke-linejoin="round"/>
<path d="M126.756 584.516C122.166 587.036 108.959 587.071 110.197 573.593C111.434 560.116 126.689 567.34 126.689 567.34C128.185 563.167 137.747 561.827 141.977 568.334C146.207 574.842 140.796 581.58 140.796 581.58C140.796 581.58 143.507 590.931 136.454 595.809C129.411 600.687 120.22 592.526 121.176 585.811" fill="white"/>
<path d="M126.756 584.516C122.166 587.036 108.959 587.071 110.197 573.593C111.434 560.116 126.689 567.34 126.689 567.34C128.185 563.167 137.747 561.827 141.977 568.334C146.207 574.842 140.796 581.58 140.796 581.58C140.796 581.58 143.507 590.931 136.454 595.809C129.411 600.687 120.22 592.526 121.176 585.811" stroke="#1941B8" stroke-width="3" stroke-linecap="round" stroke-linejoin="round"/>
<path d="M136.061 576.633C136.061 576.633 139.492 577.893 140.785 581.592" stroke="#1941B8" stroke-width="3" stroke-linecap="round" stroke-linejoin="round"/>
<path d="M128.385 569.583C128.385 569.583 127.496 567.618 126.18 567.121" stroke="#1941B8" stroke-width="3" stroke-linecap="round" stroke-linejoin="round"/>
<path d="M135.005 597.993C130.989 594.583 125.949 582.042 138.548 578.101C151.148 574.159 150.439 591.405 150.439 591.405C154.759 591.243 159.597 599.819 155.344 606.315C151.092 612.811 142.97 610.234 142.97 610.234C142.97 610.234 135.578 616.36 128.514 611.517C121.449 606.674 125.307 594.838 131.72 593.196" fill="white"/>
<path d="M135.005 597.993C130.989 594.583 125.949 582.042 138.548 578.101C151.148 574.159 150.439 591.405 150.439 591.405C154.759 591.243 159.597 599.819 155.344 606.315C151.092 612.811 142.97 610.234 142.97 610.234C142.97 610.234 135.578 616.36 128.514 611.517C121.449 606.674 125.307 594.838 131.72 593.196" stroke="#1941B8" stroke-width="3" stroke-linecap="round" stroke-linejoin="round"/>
<path d="M145.637 603.854C145.637 603.854 145.806 607.587 142.971 610.234" stroke="#1941B8" stroke-width="3" stroke-linecap="round" stroke-linejoin="round"/>
<path d="M149.068 593.878C149.068 593.878 150.497 592.283 150.452 590.849" stroke="#1941B8" stroke-width="3" stroke-linecap="round" stroke-linejoin="round"/>
<path d="M177.944 578.968C173.928 575.559 168.888 563.018 181.488 559.076C194.088 555.135 193.379 572.38 193.379 572.38C197.699 572.218 202.536 580.795 198.284 587.291C194.031 593.787 185.909 591.209 185.909 591.209C185.909 591.209 178.518 597.335 171.453 592.492C164.388 587.649 168.247 575.813 174.659 574.172" fill="white"/>
<path d="M177.944 578.968C173.928 575.559 168.888 563.018 181.488 559.076C194.088 555.135 193.379 572.38 193.379 572.38C197.699 572.218 202.536 580.795 198.284 587.291C194.031 593.787 185.909 591.209 185.909 591.209C185.909 591.209 178.518 597.335 171.453 592.492C164.388 587.649 168.247 575.813 174.659 574.172" stroke="#1941B8" stroke-width="3" stroke-linecap="round" stroke-linejoin="round"/>
<path d="M188.586 584.817C188.586 584.817 188.755 588.55 185.92 591.197" stroke="#1941B8" stroke-width="3" stroke-linecap="round" stroke-linejoin="round"/>
<path d="M192.008 574.842C192.008 574.842 193.437 573.247 193.392 571.814" stroke="#1941B8" stroke-width="3" stroke-linecap="round" stroke-linejoin="round"/>
<path d="M102.553 544.985C107.278 542.742 120.463 543.482 118.483 556.867C116.503 570.252 101.665 562.138 101.665 562.138C99.9321 566.206 90.3248 566.992 86.4549 560.254C82.585 553.515 88.3674 547.088 88.3674 547.088C88.3674 547.088 86.1849 537.599 93.486 533.137C100.787 528.676 109.517 537.368 108.178 544.014" fill="white"/>
<path d="M102.553 544.985C107.278 542.742 120.463 543.482 118.483 556.867C116.503 570.252 101.665 562.138 101.665 562.138C99.9321 566.206 90.3248 566.992 86.4549 560.254C82.585 553.515 88.3674 547.088 88.3674 547.088C88.3674 547.088 86.1849 537.599 93.486 533.137C100.787 528.676 109.517 537.368 108.178 544.014" stroke="#1941B8" stroke-width="3" stroke-linecap="round" stroke-linejoin="round"/>
<path d="M92.8226 552.301C92.8226 552.301 89.4701 550.845 88.3789 547.076" stroke="#1941B8" stroke-width="3" stroke-linecap="round" stroke-linejoin="round"/>
<path d="M100.088 559.791C100.088 559.791 100.864 561.802 102.147 562.38" stroke="#1941B8" stroke-width="3" stroke-linecap="round" stroke-linejoin="round"/>
<path d="M65.0424 590.631C70.116 589.428 82.8732 592.954 78.2495 605.634C73.6259 618.313 60.7337 607.229 60.7337 607.229C58.225 610.847 48.6627 609.575 46.2328 602.166C43.8029 594.757 50.7439 589.694 50.7439 589.694C50.7439 589.694 50.5077 579.95 58.5513 577.13C66.5948 574.31 73.3897 584.666 70.746 590.885" fill="white"/>
<path d="M65.0424 590.631C70.116 589.428 82.8732 592.954 78.2495 605.634C73.6259 618.313 60.7337 607.229 60.7337 607.229C58.225 610.847 48.6627 609.575 46.2328 602.166C43.8029 594.757 50.7439 589.694 50.7439 589.694C50.7439 589.694 50.5077 579.95 58.5513 577.13C66.5948 574.31 73.3897 584.666 70.746 590.885" stroke="#1941B8" stroke-width="3" stroke-linecap="round" stroke-linejoin="round"/>
<path d="M54.0496 595.74C54.0496 595.74 51.0572 593.613 50.7422 589.683" stroke="#1941B8" stroke-width="3" stroke-linecap="round" stroke-linejoin="round"/>
<path d="M59.6641 604.593C59.6641 604.593 60.0241 606.72 61.1603 607.564" stroke="#1941B8" stroke-width="3" stroke-linecap="round" stroke-linejoin="round"/>
<path d="M52.0395 611.164C47.4496 613.684 34.2424 613.718 35.4799 600.241C36.7173 586.764 51.972 593.988 51.972 593.988C53.4682 589.815 63.0305 588.474 67.2604 594.982C71.4903 601.489 66.0791 608.228 66.0791 608.228C66.0791 608.228 68.7903 617.579 61.7367 622.457C54.6944 627.334 45.5034 619.174 46.4596 612.458" fill="white"/>
<path d="M52.0395 611.164C47.4496 613.684 34.2424 613.718 35.4799 600.241C36.7173 586.764 51.972 593.988 51.972 593.988C53.4682 589.815 63.0305 588.474 67.2604 594.982C71.4903 601.489 66.0791 608.228 66.0791 608.228C66.0791 608.228 68.7903 617.579 61.7367 622.457C54.6944 627.334 45.5034 619.174 46.4596 612.458" stroke="#1941B8" stroke-width="3" stroke-linecap="round" stroke-linejoin="round"/>
<path d="M61.3438 603.281C61.3438 603.281 64.7749 604.54 66.0686 608.239" stroke="#1941B8" stroke-width="3" stroke-linecap="round" stroke-linejoin="round"/>
<path d="M53.6678 596.23C53.6678 596.23 52.7791 594.265 51.4629 593.768" stroke="#1941B8" stroke-width="3" stroke-linecap="round" stroke-linejoin="round"/>
<path d="M117.547 608.697C112.957 611.216 99.7502 611.251 100.988 597.774C102.225 584.296 117.48 591.521 117.48 591.521C118.976 587.348 128.538 586.007 132.768 592.515C136.998 599.022 131.587 605.761 131.587 605.761C131.587 605.761 134.298 615.112 127.245 619.989C120.202 624.867 111.011 616.707 111.967 609.991" fill="white"/>
<path d="M117.547 608.697C112.957 611.216 99.7502 611.251 100.988 597.774C102.225 584.296 117.48 591.521 117.48 591.521C118.976 587.348 128.538 586.007 132.768 592.515C136.998 599.022 131.587 605.761 131.587 605.761C131.587 605.761 134.298 615.112 127.245 619.989C120.202 624.867 111.011 616.707 111.967 609.991" stroke="#1941B8" stroke-width="3" stroke-linecap="round" stroke-linejoin="round"/>
<path d="M126.852 600.814C126.852 600.814 130.283 602.074 131.576 605.773" stroke="#1941B8" stroke-width="3" stroke-linecap="round" stroke-linejoin="round"/>
<path d="M119.182 593.763C119.182 593.763 118.293 591.798 116.977 591.301" stroke="#1941B8" stroke-width="3" stroke-linecap="round" stroke-linejoin="round"/>
<path d="M85.9125 594.421C81.3226 596.941 68.1154 596.976 69.3529 583.498C70.5904 570.021 85.845 577.245 85.845 577.245C87.3412 573.073 96.9035 571.732 101.133 578.239C105.363 584.747 99.9522 591.485 99.9522 591.485C99.9522 591.485 102.663 600.836 95.6098 605.714C88.5675 610.592 79.3764 602.431 80.3326 595.716" fill="white"/>
<path d="M85.9125 594.421C81.3226 596.941 68.1154 596.976 69.3529 583.498C70.5904 570.021 85.845 577.245 85.845 577.245C87.3412 573.073 96.9035 571.732 101.133 578.239C105.363 584.747 99.9522 591.485 99.9522 591.485C99.9522 591.485 102.663 600.836 95.6098 605.714C88.5675 610.592 79.3764 602.431 80.3326 595.716" stroke="#1941B8" stroke-width="3" stroke-linecap="round" stroke-linejoin="round"/>
<path d="M95.2168 586.538C95.2168 586.538 98.648 587.798 99.9417 591.497" stroke="#1941B8" stroke-width="3" stroke-linecap="round" stroke-linejoin="round"/>
<path d="M87.5467 579.487C87.5467 579.487 86.658 577.522 85.3418 577.025" stroke="#1941B8" stroke-width="3" stroke-linecap="round" stroke-linejoin="round"/>
<path d="M85.5616 559.898C87.789 564.729 87.1928 578.287 74.1543 576.38C61.1159 574.473 68.867 559.158 68.867 559.158C64.8845 557.424 64.0408 547.553 70.5657 543.519C77.0905 539.485 83.3904 545.357 83.3904 545.357C83.3904 545.357 92.6039 543.022 97.0138 550.489C101.424 557.956 93.0539 566.995 86.5628 565.689" fill="white"/>
<path d="M85.5616 559.898C87.789 564.729 87.1928 578.287 74.1543 576.38C61.1159 574.473 68.867 559.158 68.867 559.158C64.8845 557.424 64.0408 547.553 70.5657 543.519C77.0905 539.485 83.3904 545.357 83.3904 545.357C83.3904 545.357 92.6039 543.022 97.0138 550.489C101.424 557.956 93.0539 566.995 86.5628 565.689" stroke="#1941B8" stroke-width="3" stroke-linecap="round" stroke-linejoin="round"/>
<path d="M78.3379 549.969C78.3379 549.969 79.7216 546.513 83.3778 545.357" stroke="#1941B8" stroke-width="3" stroke-linecap="round" stroke-linejoin="round"/>
<path d="M71.1166 557.516C71.1166 557.516 69.1704 558.337 68.6191 559.655" stroke="#1941B8" stroke-width="3" stroke-linecap="round" stroke-linejoin="round"/>
<path d="M227.824 612.984C222.626 612.603 211.444 605.39 219.488 594.664C227.531 583.938 236.689 598.42 236.689 598.42C240.12 595.716 248.906 599.819 249.108 607.633C249.311 615.446 241.234 618.197 241.234 618.197C241.234 618.197 238.669 627.583 230.186 627.849C221.704 628.114 218.149 616.174 222.458 611.019" fill="white"/>
<path d="M227.824 612.984C222.626 612.603 211.444 605.39 219.488 594.664C227.531 583.938 236.689 598.42 236.689 598.42C240.12 595.716 248.906 599.819 249.108 607.633C249.311 615.446 241.234 618.197 241.234 618.197C241.234 618.197 238.669 627.583 230.186 627.849C221.704 628.114 218.149 616.174 222.458 611.019" stroke="#1941B8" stroke-width="3" stroke-linecap="round" stroke-linejoin="round"/>
<path d="M239.781 611.424C239.781 611.424 242.031 614.36 241.21 618.209" stroke="#1941B8" stroke-width="3" stroke-linecap="round" stroke-linejoin="round"/>
<path d="M236.948 601.252C236.948 601.252 237.218 599.103 236.363 597.958" stroke="#1941B8" stroke-width="3" stroke-linecap="round" stroke-linejoin="round"/>
<path d="M216.277 597.878C211.08 597.496 199.897 590.284 207.941 579.557C215.984 568.831 225.142 583.314 225.142 583.314C228.573 580.609 237.359 584.713 237.561 592.526C237.764 600.34 229.687 603.091 229.687 603.091C229.687 603.091 227.122 612.476 218.639 612.742C210.157 613.008 206.602 601.068 210.911 595.913" fill="white"/>
<path d="M216.277 597.878C211.08 597.496 199.897 590.284 207.941 579.557C215.984 568.831 225.142 583.314 225.142 583.314C228.573 580.609 237.359 584.713 237.561 592.526C237.764 600.34 229.687 603.091 229.687 603.091C229.687 603.091 227.122 612.476 218.639 612.742C210.157 613.008 206.602 601.068 210.911 595.913" stroke="#1941B8" stroke-width="3" stroke-linecap="round" stroke-linejoin="round"/>
<path d="M228.25 596.306C228.25 596.306 230.5 599.242 229.679 603.091" stroke="#1941B8" stroke-width="3" stroke-linecap="round" stroke-linejoin="round"/>
<path d="M225.413 586.134C225.413 586.134 225.683 583.984 224.828 582.84" stroke="#1941B8" stroke-width="3" stroke-linecap="round" stroke-linejoin="round"/>
<path d="M191.162 614.961C186.167 613.47 176.695 604.015 186.729 595.254C196.764 586.492 202.783 602.616 202.783 602.616C206.686 600.709 214.438 606.604 213.043 614.291C211.648 621.977 203.188 622.925 203.188 622.925C203.188 622.925 198.778 631.559 190.419 629.987C182.061 628.415 181.026 615.99 186.279 611.863" fill="white"/>
<path d="M191.162 614.961C186.167 613.47 176.695 604.015 186.729 595.254C196.764 586.492 202.783 602.616 202.783 602.616C206.686 600.709 214.438 606.604 213.043 614.291C211.648 621.977 203.188 622.925 203.188 622.925C203.188 622.925 198.778 631.559 190.419 629.987C182.061 628.415 181.026 615.99 186.279 611.863" stroke="#1941B8" stroke-width="3" stroke-linecap="round" stroke-linejoin="round"/>
<path d="M203.174 615.99C203.174 615.99 204.771 619.342 203.185 622.925" stroke="#1941B8" stroke-width="3" stroke-linecap="round" stroke-linejoin="round"/>
<path d="M202.477 605.448C202.477 605.448 203.174 603.402 202.578 602.108" stroke="#1941B8" stroke-width="3" stroke-linecap="round" stroke-linejoin="round"/>
<path d="M153.676 613.205C148.681 611.714 139.208 602.259 149.243 593.498C159.278 584.736 165.297 600.86 165.297 600.86C169.2 598.953 176.951 604.848 175.556 612.535C174.161 620.221 165.702 621.169 165.702 621.169C165.702 621.169 161.292 629.803 152.933 628.231C144.574 626.659 143.54 614.234 148.793 610.107" fill="white"/>
<path d="M153.676 613.205C148.681 611.714 139.208 602.259 149.243 593.498C159.278 584.736 165.297 600.86 165.297 600.86C169.2 598.953 176.951 604.848 175.556 612.535C174.161 620.221 165.702 621.169 165.702 621.169C165.702 621.169 161.292 629.803 152.933 628.231C144.574 626.659 143.54 614.234 148.793 610.107" stroke="#1941B8" stroke-width="3" stroke-linecap="round" stroke-linejoin="round"/>
<path d="M165.703 614.245C165.703 614.245 167.301 617.597 165.714 621.18" stroke="#1941B8" stroke-width="3" stroke-linecap="round" stroke-linejoin="round"/>
<path d="M164.99 603.692C164.99 603.692 165.688 601.646 165.091 600.352" stroke="#1941B8" stroke-width="3" stroke-linecap="round" stroke-linejoin="round"/>
<path d="M112.102 574.344C116.445 577.303 122.733 589.232 110.595 594.514C98.4564 599.796 97.4102 582.562 97.4102 582.562C93.124 583.187 87.4429 575.177 91.0091 568.264C94.5752 561.352 102.923 563.04 102.923 563.04C102.923 563.04 109.65 556.151 117.165 560.22C124.68 564.288 122.058 576.46 115.848 578.783" fill="white"/>
<path d="M112.102 574.344C116.445 577.303 122.733 589.232 110.595 594.514C98.4564 599.796 97.4102 582.562 97.4102 582.562C93.124 583.187 87.4429 575.177 91.0091 568.264C94.5752 561.352 102.923 563.04 102.923 563.04C102.923 563.04 109.65 556.151 117.165 560.22C124.68 564.288 122.058 576.46 115.848 578.783" stroke="#1941B8" stroke-width="3" stroke-linecap="round" stroke-linejoin="round"/>
<path d="M100.931 569.664C100.931 569.664 100.38 565.965 102.933 563.041" stroke="#1941B8" stroke-width="3" stroke-linecap="round" stroke-linejoin="round"/>
<path d="M98.5358 579.95C98.5358 579.95 97.2758 581.684 97.467 583.117" stroke="#1941B8" stroke-width="3" stroke-linecap="round" stroke-linejoin="round"/>
<path d="M82.2744 582.101C84.5019 586.932 83.9057 600.49 70.8672 598.583C57.8288 596.676 65.5798 581.361 65.5798 581.361C61.5974 579.627 60.7537 569.756 67.2786 565.722C73.8034 561.688 80.1032 567.56 80.1032 567.56C80.1032 567.56 89.3168 565.225 93.7267 572.692C98.1366 580.159 89.7668 589.198 83.2757 587.891" fill="white"/>
<path d="M82.2744 582.101C84.5019 586.932 83.9057 600.49 70.8672 598.583C57.8288 596.676 65.5798 581.361 65.5798 581.361C61.5974 579.627 60.7537 569.756 67.2786 565.722C73.8034 561.688 80.1032 567.56 80.1032 567.56C80.1032 567.56 89.3168 565.225 93.7267 572.692C98.1366 580.159 89.7668 589.198 83.2757 587.891" stroke="#1941B8" stroke-width="3" stroke-linecap="round" stroke-linejoin="round"/>
<path d="M75.0508 572.172C75.0508 572.172 76.4345 568.716 80.0907 567.56" stroke="#1941B8" stroke-width="3" stroke-linecap="round" stroke-linejoin="round"/>
<path d="M67.8431 579.719C67.8431 579.719 65.8969 580.54 65.3457 581.858" stroke="#1941B8" stroke-width="3" stroke-linecap="round" stroke-linejoin="round"/>
<path d="M157.338 765.974H125.974L121.766 625.214C121.53 614.233 130.496 605.206 141.656 605.206C152.816 605.206 161.782 614.233 161.545 625.214L157.338 765.974V765.974Z" fill="white" stroke="#1941B8" stroke-width="3" stroke-miterlimit="10"/>
<path d="M125.983 765.975H98.4885L81.6026 628.555C80.0839 616.153 89.4887 605.195 101.65 605.195C112.573 605.195 121.517 614.118 121.843 625.33L125.983 765.975V765.975Z" fill="white" stroke="#1941B8" stroke-width="3" stroke-miterlimit="10"/>
<path d="M98.4913 765.975H76.5993C71.6607 765.975 67.4196 762.38 66.4746 757.399L42.2314 629.191C39.8802 616.754 49.15 605.195 61.4797 605.195C71.3682 605.195 79.7043 612.754 80.9417 622.822L98.4801 765.963L98.4913 765.975Z" fill="white" stroke="#1941B8" stroke-width="3" stroke-miterlimit="10"/>
<path d="M157.416 765.975H184.91L201.796 628.555C203.315 616.153 193.91 605.195 181.749 605.195C170.826 605.195 161.882 614.118 161.556 625.33L157.416 765.975V765.975Z" fill="white" stroke="#1941B8" stroke-width="3" stroke-miterlimit="10"/>
<path d="M125.983 765.975H98.4885L81.6026 628.555C80.0839 616.153 89.4887 605.195 101.65 605.195C112.573 605.195 121.517 614.118 121.843 625.33L125.983 765.975V765.975Z" fill="#1941B8" fill-opacity="0.5" stroke="#1941B8" stroke-width="3" stroke-miterlimit="10"/>
<path d="M157.416 765.975H184.91L201.796 628.555C203.315 616.153 193.91 605.195 181.749 605.195C170.826 605.195 161.882 614.118 161.556 625.33L157.416 765.975V765.975Z" fill="#1941B8" fill-opacity="0.5" stroke="#1941B8" stroke-width="3" stroke-miterlimit="10"/>
<path d="M184.91 765.975H206.802C211.741 765.975 215.982 762.38 216.927 757.399L241.159 629.191C243.51 616.754 234.24 605.195 221.911 605.195C212.022 605.195 203.686 612.754 202.448 622.822L184.91 765.963V765.975Z" fill="white" stroke="#1941B8" stroke-width="3" stroke-miterlimit="10"/>
<path d="M148.773 538.745C152.283 542.698 155.568 555.84 142.552 557.932C129.536 560.024 132.596 543.044 132.596 543.044C128.299 542.582 124.676 533.393 129.761 527.579C134.846 521.765 142.552 525.487 142.552 525.487C142.552 525.487 150.697 520.482 157.042 526.296C163.386 532.11 157.942 543.276 151.372 543.969" fill="white"/>
<path d="M148.773 538.745C152.283 542.698 155.568 555.84 142.552 557.932C129.536 560.024 132.596 543.044 132.596 543.044C128.299 542.582 124.676 533.393 129.761 527.579C134.846 521.765 142.552 525.487 142.552 525.487C142.552 525.487 150.697 520.482 157.042 526.296C163.386 532.11 157.942 543.276 151.372 543.969" stroke="#1941B8" stroke-width="3" stroke-linecap="round" stroke-linejoin="round"/>
<path d="M139.029 531.417C139.029 531.417 139.367 527.695 142.539 525.487" stroke="#1941B8" stroke-width="3" stroke-linecap="round" stroke-linejoin="round"/>
<path d="M134.281 540.802C134.281 540.802 132.65 542.166 132.504 543.599" stroke="#1941B8" stroke-width="3" stroke-linecap="round" stroke-linejoin="round"/>
<path d="M178.179 555.481C175.985 560.335 165.444 568.507 158.548 556.983C151.652 545.459 168.077 541.807 168.077 541.807C166.839 537.553 173.691 530.572 180.868 533.161C188.056 535.75 187.685 544.477 187.685 544.477C187.685 544.477 195.313 550.268 192.545 558.52C189.766 566.773 177.65 565.93 174.489 559.965" fill="white"/>
<path d="M178.179 555.481C175.985 560.335 165.444 568.507 158.548 556.983C151.652 545.459 168.077 541.807 168.077 541.807C166.839 537.553 173.691 530.572 180.868 533.161C188.056 535.75 187.685 544.477 187.685 544.477C187.685 544.477 195.313 550.268 192.545 558.52C189.766 566.773 177.65 565.93 174.489 559.965" stroke="#1941B8" stroke-width="3" stroke-linecap="round" stroke-linejoin="round"/>
<path d="M181 543.437C181 543.437 184.476 542.328 187.682 544.477" stroke="#1941B8" stroke-width="3" stroke-linecap="round" stroke-linejoin="round"/>
<path d="M170.753 542.547C170.753 542.547 168.897 541.53 167.547 541.934" stroke="#1941B8" stroke-width="3" stroke-linecap="round" stroke-linejoin="round"/>
<path d="M156.023 539.911C150.826 539.576 139.576 532.468 147.519 521.672C155.461 510.876 164.742 525.267 164.742 525.267C168.151 522.527 176.97 526.55 177.24 534.363C177.51 542.177 169.456 544.997 169.456 544.997C169.456 544.997 166.981 554.406 158.487 554.753C149.994 555.099 146.349 543.194 150.612 537.993" fill="white"/>
<path d="M156.023 539.911C150.826 539.576 139.576 532.468 147.519 521.672C155.461 510.876 164.742 525.267 164.742 525.267C168.151 522.527 176.97 526.55 177.24 534.363C177.51 542.177 169.456 544.997 169.456 544.997C169.456 544.997 166.981 554.406 158.487 554.753C149.994 555.099 146.349 543.194 150.612 537.993" stroke="#1941B8" stroke-width="3" stroke-linecap="round" stroke-linejoin="round"/>
<path d="M167.98 538.224C167.98 538.224 170.253 541.137 169.465 544.997" stroke="#1941B8" stroke-width="3" stroke-linecap="round" stroke-linejoin="round"/>
<path d="M165.045 528.087C165.045 528.087 165.292 525.937 164.426 524.804" stroke="#1941B8" stroke-width="3" stroke-linecap="round" stroke-linejoin="round"/>
<path d="M133.658 561.203C137.168 565.156 140.453 578.298 127.437 580.39C114.421 582.482 117.481 565.502 117.481 565.502C113.183 565.04 109.561 555.851 114.646 550.037C119.731 544.223 127.437 547.945 127.437 547.945C127.437 547.945 135.582 542.94 141.926 548.754C148.271 554.568 142.826 565.734 136.257 566.427" stroke="#1941B8" stroke-width="3" stroke-linecap="round" stroke-linejoin="round"/>
<path d="M107.406 539.61C102.209 539.275 90.9591 532.166 98.9014 521.371C106.844 510.575 116.125 524.965 116.125 524.965C119.533 522.226 128.353 526.248 128.623 534.062C128.893 541.876 120.838 544.696 120.838 544.696C120.838 544.696 118.363 554.105 109.87 554.451C101.376 554.798 97.7315 542.893 101.995 537.691" fill="white"/>
<path d="M107.406 539.61C102.209 539.275 90.9591 532.166 98.9014 521.371C106.844 510.575 116.125 524.965 116.125 524.965C119.533 522.226 128.353 526.248 128.623 534.062C128.893 541.876 120.838 544.696 120.838 544.696C120.838 544.696 118.363 554.105 109.87 554.451C101.376 554.798 97.7315 542.893 101.995 537.691" stroke="#1941B8" stroke-width="3" stroke-linecap="round" stroke-linejoin="round"/>
<path d="M119.354 537.934C119.354 537.934 121.626 540.847 120.838 544.707" stroke="#1941B8" stroke-width="3" stroke-linecap="round" stroke-linejoin="round"/>
<path d="M116.427 527.786C116.427 527.786 116.675 525.636 115.809 524.503" stroke="#1941B8" stroke-width="3" stroke-linecap="round" stroke-linejoin="round"/>
<path d="M154.416 567.848C157.926 571.801 161.21 584.943 148.195 587.036C135.179 589.128 138.239 572.148 138.239 572.148C133.941 571.686 130.319 562.497 135.404 556.683C140.488 550.869 148.195 554.591 148.195 554.591C148.195 554.591 156.339 549.586 162.684 555.4C169.029 561.214 163.584 572.379 157.014 573.073" fill="white"/>
<path d="M154.416 567.848C157.926 571.801 161.21 584.943 148.195 587.036C135.179 589.128 138.239 572.148 138.239 572.148C133.941 571.686 130.319 562.497 135.404 556.683C140.488 550.869 148.195 554.591 148.195 554.591C148.195 554.591 156.339 549.586 162.684 555.4C169.029 561.214 163.584 572.379 157.014 573.073" stroke="#1941B8" stroke-width="3" stroke-linecap="round" stroke-linejoin="round"/>
<path d="M144.684 560.521C144.684 560.521 145.021 556.799 148.194 554.591" stroke="#1941B8" stroke-width="3" stroke-linecap="round" stroke-linejoin="round"/>
<path d="M139.924 569.906C139.924 569.906 138.293 571.27 138.146 572.703" stroke="#1941B8" stroke-width="3" stroke-linecap="round" stroke-linejoin="round"/>
<path d="M133.654 561.203C137.164 565.156 140.449 578.298 127.433 580.39C114.417 582.482 117.477 565.502 117.477 565.502C113.179 565.04 109.557 555.851 114.642 550.037C119.727 544.223 127.433 547.945 127.433 547.945C127.433 547.945 135.578 542.94 141.922 548.754C148.267 554.568 142.822 565.734 136.253 566.427" fill="white"/>
<path d="M133.654 561.203C137.164 565.156 140.449 578.298 127.433 580.39C114.417 582.482 117.477 565.502 117.477 565.502C113.179 565.04 109.557 555.851 114.642 550.037C119.727 544.223 127.433 547.945 127.433 547.945C127.433 547.945 135.578 542.94 141.922 548.754C148.267 554.568 142.822 565.734 136.253 566.427" stroke="#1941B8" stroke-width="3" stroke-linecap="round" stroke-linejoin="round"/>
<path d="M123.922 553.875C123.922 553.875 124.259 550.153 127.432 547.945" stroke="#1941B8" stroke-width="3" stroke-linecap="round" stroke-linejoin="round"/>
<path d="M119.162 563.26C119.162 563.26 117.531 564.624 117.385 566.057" stroke="#1941B8" stroke-width="3" stroke-linecap="round" stroke-linejoin="round"/>
<path d="M191.837 566.785C187.776 570.126 174.794 572.646 173.601 559.168C172.409 545.691 188.699 549.921 188.699 549.921C189.43 545.541 198.587 542.42 203.897 548.026C209.218 553.62 205.101 561.272 205.101 561.272C205.101 561.272 209.432 569.952 203.368 576.067C197.305 582.181 186.82 575.894 186.561 569.109" fill="white"/>
<path d="M191.837 566.785C187.776 570.126 174.794 572.646 173.601 559.168C172.409 545.691 188.699 549.921 188.699 549.921C189.43 545.541 198.587 542.42 203.897 548.026C209.218 553.62 205.101 561.272 205.101 561.272C205.101 561.272 209.432 569.952 203.368 576.067C197.305 582.181 186.82 575.894 186.561 569.109" stroke="#1941B8" stroke-width="3" stroke-linecap="round" stroke-linejoin="round"/>
<path d="M199.59 557.285C199.59 557.285 203.179 557.874 205.125 561.261" stroke="#1941B8" stroke-width="3" stroke-linecap="round" stroke-linejoin="round"/>
<path d="M190.78 551.805C190.78 551.805 189.554 550.048 188.17 549.794" stroke="#1941B8" stroke-width="3" stroke-linecap="round" stroke-linejoin="round"/>
<path d="M252.522 783.2C248.392 786.372 235.245 788.436 234.107 775.082C232.969 761.728 249.432 766.439 249.432 766.439C250.192 762.132 259.477 759.347 264.828 765.047C270.179 770.747 265.978 778.176 265.978 778.176C265.978 778.176 270.315 786.884 264.154 792.741C257.993 798.598 247.407 792.043 247.188 785.321" fill="white"/>
<path d="M252.522 783.2C248.392 786.372 235.245 788.436 234.107 775.082C232.969 761.728 249.432 766.439 249.432 766.439C250.192 762.132 259.477 759.347 264.828 765.047C270.179 770.747 265.978 778.176 265.978 778.176C265.978 778.176 270.315 786.884 264.154 792.741C257.993 798.598 247.407 792.043 247.188 785.321" stroke="#1941B8" stroke-width="3" stroke-linecap="round" stroke-linejoin="round"/>
<path d="M260.404 774.052C260.404 774.052 264.033 774.746 265.984 778.169" stroke="#1941B8" stroke-width="3" stroke-linecap="round" stroke-linejoin="round"/>
<path d="M251.517 768.36C251.517 768.36 250.287 766.58 248.889 766.298" stroke="#1941B8" stroke-width="3" stroke-linecap="round" stroke-linejoin="round"/>
<path d="M72.4088 767.614C76.8543 770.328 83.5086 781.852 71.4573 787.717C59.4059 793.581 57.8806 776.525 57.8806 776.525C53.5891 777.366 47.6511 769.704 51.0452 762.66C54.4394 755.617 62.8819 756.866 62.8819 756.866C62.8819 756.866 69.4479 749.687 77.1286 753.329C84.8094 756.972 82.5005 769.207 76.3072 771.829" fill="white"/>
<path d="M72.4088 767.614C76.8543 770.328 83.5086 781.852 71.4573 787.717C59.4059 793.581 57.8806 776.525 57.8806 776.525C53.5891 777.366 47.6511 769.704 51.0452 762.66C54.4394 755.617 62.8819 756.866 62.8819 756.866C62.8819 756.866 69.4479 749.687 77.1286 753.329C84.8094 756.972 82.5005 769.207 76.3072 771.829" stroke="#1941B8" stroke-width="3" stroke-linecap="round" stroke-linejoin="round"/>
<path d="M61.0391 763.548C61.0391 763.548 60.3816 759.913 62.8739 756.861" stroke="#1941B8" stroke-width="3" stroke-linecap="round" stroke-linejoin="round"/>
<path d="M58.922 773.888C58.922 773.888 57.7032 775.676 57.9434 777.082" stroke="#1941B8" stroke-width="3" stroke-linecap="round" stroke-linejoin="round"/>
<path d="M172.071 815.865C174.398 811.206 185.318 803.6 192.182 815.112C199.045 826.624 182.18 829.587 182.18 829.587C183.38 833.792 176.248 840.357 168.943 837.572C161.638 834.786 162.167 826.268 162.167 826.268C162.167 826.268 154.459 820.333 157.438 812.372C160.417 804.41 172.803 805.675 175.94 811.624" fill="white"/>
<path d="M172.071 815.865C174.398 811.206 185.318 803.6 192.182 815.112C199.045 826.624 182.18 829.587 182.18 829.587C183.38 833.792 176.248 840.357 168.943 837.572C161.638 834.786 162.167 826.268 162.167 826.268C162.167 826.268 154.459 820.333 157.438 812.372C160.417 804.41 172.803 805.675 175.94 811.624" stroke="#1941B8" stroke-width="3" stroke-linecap="round" stroke-linejoin="round"/>
<path d="M168.98 827.54C168.98 827.54 165.414 828.502 162.162 826.277" stroke="#1941B8" stroke-width="3" stroke-linecap="round" stroke-linejoin="round"/>
<path d="M179.461 828.772C179.461 828.772 181.346 829.835 182.727 829.477" stroke="#1941B8" stroke-width="3" stroke-linecap="round" stroke-linejoin="round"/>
<path d="M230.089 786.752C229.606 791.938 222.178 802.98 211.614 794.732C201.05 786.484 215.7 777.618 215.7 777.618C213.059 774.133 217.332 765.432 225.15 765.385C232.968 765.339 235.557 773.471 235.557 773.471C235.557 773.471 244.891 776.214 244.995 784.713C245.099 793.213 233.094 796.517 228.017 792.106" fill="white"/>
<path d="M230.089 786.752C229.606 791.938 222.178 802.98 211.614 794.732C201.05 786.484 215.7 777.618 215.7 777.618C213.059 774.133 217.332 765.432 225.15 765.385C232.968 765.339 235.557 773.471 235.557 773.471C235.557 773.471 244.891 776.214 244.995 784.713C245.099 793.213 233.094 796.517 228.017 792.106" stroke="#1941B8" stroke-width="3" stroke-linecap="round" stroke-linejoin="round"/>
<path d="M228.742 774.751C228.742 774.751 231.719 772.563 235.555 773.46" stroke="#1941B8" stroke-width="3" stroke-linecap="round" stroke-linejoin="round"/>
<path d="M218.527 777.395C218.527 777.395 216.386 777.086 215.229 777.92" stroke="#1941B8" stroke-width="3" stroke-linecap="round" stroke-linejoin="round"/>
<path d="M398.339 616.491H267.043C265.426 616.491 264.115 617.802 264.115 619.419C264.115 621.036 265.426 622.347 267.043 622.347H398.339C399.956 622.347 401.267 621.036 401.267 619.419C401.267 617.802 399.956 616.491 398.339 616.491Z" fill="white" stroke="#1941B8" stroke-width="3" stroke-linecap="round" stroke-linejoin="round"/>
<path d="M401.403 622.347H263.987C262.002 622.347 260.393 623.956 260.393 625.941C260.393 627.926 262.002 629.535 263.987 629.535H401.403C403.388 629.535 404.997 627.926 404.997 625.941C404.997 623.956 403.388 622.347 401.403 622.347Z" fill="white" stroke="#1941B8" stroke-width="3" stroke-linecap="round" stroke-linejoin="round"/>
<path d="M310.467 575.462L319.022 616.49H273.699C273.699 605.099 278.327 594.776 285.791 587.301C292.267 580.836 300.879 576.495 310.467 575.462V575.462Z" fill="white" stroke="#1941B8" stroke-width="3" stroke-linecap="round" stroke-linejoin="round"/>
<path d="M393.548 616.491H324.525L315.924 575.21H352.267C375.061 575.21 393.548 593.697 393.548 616.491Z" fill="white" stroke="#1941B8" stroke-width="3" stroke-linecap="round" stroke-linejoin="round"/>
<path d="M308.746 763.713H294.426C290.97 763.713 288.065 761.129 287.651 757.708L272.299 629.535H296.528L308.746 763.713V763.713Z" fill="white" stroke="#1941B8" stroke-width="3" stroke-linecap="round" stroke-linejoin="round"/>
<path d="M324.948 763.713H308.745L296.527 629.535H320.205L324.948 763.713Z" fill="white" stroke="#1941B8" stroke-width="3" stroke-linecap="round" stroke-linejoin="round"/>
<path d="M345.791 629.535L341.048 763.713H324.949L320.207 629.535H345.791Z" fill="white" stroke="#1941B8" stroke-width="3" stroke-linecap="round" stroke-linejoin="round"/>
<path d="M369.469 629.535L357.263 763.713H341.049L345.791 629.535H369.469Z" fill="white" stroke="#1941B8" stroke-width="3" stroke-linecap="round" stroke-linejoin="round"/>
<path d="M324.948 763.713H308.745L296.527 629.535H320.205L324.948 763.713Z" fill="#1941B8" fill-opacity="0.5" stroke="#1941B8" stroke-width="3" stroke-linecap="round" stroke-linejoin="round"/>
<path d="M369.469 629.535L357.263 763.713H341.049L345.791 629.535H369.469Z" fill="#1941B8" fill-opacity="0.5" stroke="#1941B8" stroke-width="3" stroke-linecap="round" stroke-linejoin="round"/>
<path d="M393.079 629.535L377.726 757.65C377.313 761.106 374.373 763.713 370.894 763.713H357.264L369.47 629.535H393.079V629.535Z" fill="white" stroke="#1941B8" stroke-width="3" stroke-linecap="round" stroke-linejoin="round"/>
<path d="M324.524 616.491H319.024L310.469 575.463C311.95 575.29 313.454 575.21 314.982 575.21H315.923L324.524 616.491Z" fill="white" stroke="#1941B8" stroke-width="3" stroke-linecap="round" stroke-linejoin="round"/>
<path d="M307.942 542.472C308.183 541.921 308.987 542.013 309.114 542.599L315.923 575.21H314.981C313.454 575.21 311.95 575.29 310.469 575.463L305.14 549.902C305.037 549.431 305.095 548.937 305.29 548.489L307.942 542.484V542.472Z" fill="white" stroke="#1941B8" stroke-width="3" stroke-linecap="round" stroke-linejoin="round"/>
<rect x="638.209" y="680.812" width="55.1795" height="83.2898" rx="20" fill="white"/>
<line x1="665.736" y1="690.642" x2="665.736" y2="708.464" stroke="#1941B8" stroke-width="3" stroke-linecap="round"/>
<line x1="685.643" y1="707.3" x2="645.957" y2="707.3" stroke="#1941B8" stroke-width="3" stroke-linecap="round"/>
</svg>
