<svg width="1920" height="1080" viewBox="0 0 1920 1080" fill="none" xmlns="http://www.w3.org/2000/svg">
<path d="M1920 -2H0V1080H1920V-2Z" fill="#1941B8"/>
<path d="M315.72 222.46C317.653 222.46 319.22 220.893 319.22 218.96C319.22 217.027 317.653 215.46 315.72 215.46C313.787 215.46 312.22 217.027 312.22 218.96C312.22 220.893 313.787 222.46 315.72 222.46Z" fill="white"/>
<path d="M1407.5 38C1409.43 38 1411 36.433 1411 34.5C1411 32.567 1409.43 31 1407.5 31C1405.57 31 1404 32.567 1404 34.5C1404 36.433 1405.57 38 1407.5 38Z" fill="white"/>
<path d="M1680.14 541.2C1682.9 541.2 1685.14 538.961 1685.14 536.2C1685.14 533.439 1682.9 531.2 1680.14 531.2C1677.38 531.2 1675.14 533.439 1675.14 536.2C1675.14 538.961 1677.38 541.2 1680.14 541.2Z" fill="white"/>
<path d="M1520.31 560.12C1522.24 560.12 1523.81 558.553 1523.81 556.62C1523.81 554.687 1522.24 553.12 1520.31 553.12C1518.38 553.12 1516.81 554.687 1516.81 556.62C1516.81 558.553 1518.38 560.12 1520.31 560.12Z" fill="white"/>
<path d="M880.89 349.42C882.823 349.42 884.39 347.853 884.39 345.92C884.39 343.987 882.823 342.42 880.89 342.42C878.957 342.42 877.39 343.987 877.39 345.92C877.39 347.853 878.957 349.42 880.89 349.42Z" fill="white"/>
<path d="M826.5 809C828.433 809 830 807.433 830 805.5C830 803.567 828.433 802 826.5 802C824.567 802 823 803.567 823 805.5C823 807.433 824.567 809 826.5 809Z" fill="white"/>
<path d="M1264.72 577.65C1267.46 577.65 1269.68 575.429 1269.68 572.69C1269.68 569.951 1267.46 567.73 1264.72 567.73C1261.98 567.73 1259.76 569.951 1259.76 572.69C1259.76 575.429 1261.98 577.65 1264.72 577.65Z" fill="white"/>
<path d="M1521.77 93.64C1524.51 93.64 1526.73 91.4193 1526.73 88.68C1526.73 85.9406 1524.51 83.72 1521.77 83.72C1519.03 83.72 1516.81 85.9406 1516.81 88.68C1516.81 91.4193 1519.03 93.64 1521.77 93.64Z" fill="white"/>
<path d="M170.28 178.43C173.019 178.43 175.24 176.209 175.24 173.47C175.24 170.731 173.019 168.51 170.28 168.51C167.54 168.51 165.32 170.731 165.32 173.47C165.32 176.209 167.54 178.43 170.28 178.43Z" fill="white"/>
<path d="M706.61 967.2C708.543 967.2 710.11 965.633 710.11 963.7C710.11 961.767 708.543 960.2 706.61 960.2C704.677 960.2 703.11 961.767 703.11 963.7C703.11 965.633 704.677 967.2 706.61 967.2Z" fill="white"/>
<path d="M444.5 427C446.433 427 448 425.433 448 423.5C448 421.567 446.433 420 444.5 420C442.567 420 441 421.567 441 423.5C441 425.433 442.567 427 444.5 427Z" fill="white"/>
<path d="M1171.5 122C1173.43 122 1175 120.433 1175 118.5C1175 116.567 1173.43 115 1171.5 115C1169.57 115 1168 116.567 1168 118.5C1168 120.433 1169.57 122 1171.5 122Z" fill="white"/>
<path d="M1766.17 910.25C1768.1 910.25 1769.67 908.683 1769.67 906.75C1769.67 904.817 1768.1 903.25 1766.17 903.25C1764.24 903.25 1762.67 904.817 1762.67 906.75C1762.67 908.683 1764.24 910.25 1766.17 910.25Z" fill="white"/>
<path d="M892.27 516.61C895.009 516.61 897.23 514.389 897.23 511.65C897.23 508.911 895.009 506.69 892.27 506.69C889.531 506.69 887.31 508.911 887.31 511.65C887.31 514.389 889.531 516.61 892.27 516.61Z" fill="white"/>
<path d="M317.18 616.64C319.92 616.64 322.14 614.419 322.14 611.68C322.14 608.941 319.92 606.72 317.18 606.72C314.441 606.72 312.22 608.941 312.22 611.68C312.22 614.419 314.441 616.64 317.18 616.64Z" fill="white"/>
<path d="M1367.22 1052.09C1369.96 1052.09 1372.18 1049.87 1372.18 1047.13C1372.18 1044.39 1369.96 1042.17 1367.22 1042.17C1364.48 1042.17 1362.26 1044.39 1362.26 1047.13C1362.26 1049.87 1364.48 1052.09 1367.22 1052.09Z" fill="white"/>
<path d="M581.47 708.16C584.231 708.16 586.47 705.921 586.47 703.16C586.47 700.399 584.231 698.16 581.47 698.16C578.708 698.16 576.47 700.399 576.47 703.16C576.47 705.921 578.708 708.16 581.47 708.16Z" fill="white"/>
<path d="M1236.54 273.65C1239.3 273.65 1241.54 271.411 1241.54 268.65C1241.54 265.889 1239.3 263.65 1236.54 263.65C1233.78 263.65 1231.54 265.889 1231.54 268.65C1231.54 271.411 1233.78 273.65 1236.54 273.65Z" fill="white"/>
<path d="M1772.62 963.89C1775.38 963.89 1777.62 961.651 1777.62 958.89C1777.62 956.129 1775.38 953.89 1772.62 953.89C1769.86 953.89 1767.62 956.129 1767.62 958.89C1767.62 961.651 1769.86 963.89 1772.62 963.89Z" fill="white"/>
<path d="M1763.01 114.56C1764.94 114.56 1766.51 112.993 1766.51 111.06C1766.51 109.127 1764.94 107.56 1763.01 107.56C1761.08 107.56 1759.51 109.127 1759.51 111.06C1759.51 112.993 1761.08 114.56 1763.01 114.56Z" fill="white"/>
<path d="M58.3901 610.56C60.3231 610.56 61.8901 608.993 61.8901 607.06C61.8901 605.127 60.3231 603.56 58.3901 603.56C56.4571 603.56 54.8901 605.127 54.8901 607.06C54.8901 608.993 56.4571 610.56 58.3901 610.56Z" fill="white"/>
<path d="M1082.89 773.87C1085.65 773.87 1087.89 771.631 1087.89 768.87C1087.89 766.109 1085.65 763.87 1082.89 763.87C1080.13 763.87 1077.89 766.109 1077.89 768.87C1077.89 771.631 1080.13 773.87 1082.89 773.87Z" fill="white"/>
<path d="M157.24 1005.57C160.002 1005.57 162.24 1003.33 162.24 1000.57C162.24 997.809 160.002 995.57 157.24 995.57C154.479 995.57 152.24 997.809 152.24 1000.57C152.24 1003.33 154.479 1005.57 157.24 1005.57Z" fill="white"/>
<path d="M768.28 77.49C771.042 77.49 773.28 75.2514 773.28 72.49C773.28 69.7286 771.042 67.49 768.28 67.49C765.519 67.49 763.28 69.7286 763.28 72.49C763.28 75.2514 765.519 77.49 768.28 77.49Z" fill="white"/>
<path d="M666.927 360.45V382.052" stroke="white" stroke-width="4" stroke-linecap="round" stroke-linejoin="round"/>
<path d="M659.43 371.251H674.43" stroke="white" stroke-width="4" stroke-linecap="round" stroke-linejoin="round"/>
<path d="M1758.43 310.38V344.18" stroke="white" stroke-width="4" stroke-linecap="round" stroke-linejoin="round"/>
<path d="M1750.93 327.28H1765.93" stroke="white" stroke-width="4" stroke-linecap="round" stroke-linejoin="round"/>
<path d="M1868.5 1052V1085.8" stroke="white" stroke-width="4" stroke-linecap="round" stroke-linejoin="round"/>
<path d="M1861 1068.9H1876" stroke="white" stroke-width="4" stroke-linecap="round" stroke-linejoin="round"/>
<path d="M969.763 978.67V1012.48" stroke="white" stroke-width="4" stroke-linecap="round" stroke-linejoin="round"/>
<path d="M962.26 995.57H977.26" stroke="white" stroke-width="4" stroke-linecap="round" stroke-linejoin="round"/>
<path d="M99.4834 393.44V427.24" stroke="white" stroke-width="4" stroke-linecap="round" stroke-linejoin="round"/>
<path d="M91.98 410.34H106.98" stroke="white" stroke-width="4" stroke-linecap="round" stroke-linejoin="round"/>
<path d="M275.046 -3V30.8" stroke="white" stroke-width="4" stroke-linecap="round" stroke-linejoin="round"/>
<path d="M267.55 13.9H282.55" stroke="white" stroke-width="4" stroke-linecap="round" stroke-linejoin="round"/>
<path d="M1485.13 774.78V808.58" stroke="white" stroke-width="4" stroke-linecap="round" stroke-linejoin="round"/>
<path d="M1477.63 791.68H1492.63" stroke="white" stroke-width="4" stroke-linecap="round" stroke-linejoin="round"/>
<path d="M375.103 837.08V870.88" stroke="white" stroke-width="4" stroke-linecap="round" stroke-linejoin="round"/>
<path d="M367.6 853.98H382.6" stroke="white" stroke-width="4" stroke-linecap="round" stroke-linejoin="round"/>
<path d="M1435.5 376V409.8" stroke="white" stroke-width="4" stroke-linecap="round" stroke-linejoin="round"/>
<path d="M1428 392.9H1443" stroke="white" stroke-width="4" stroke-linecap="round" stroke-linejoin="round"/>
</svg>
