<svg width="5613" height="356" viewBox="0 0 5613 356" fill="none" xmlns="http://www.w3.org/2000/svg">
<path d="M5475.34 67.0704C5462.14 73.3179 5434.5 86.2154 5429.53 87.8252C5423.32 89.8374 5381.5 76.543 5373.73 76.6925C5372.88 86.0775 5390.64 98.8891 5390.41 101.449C5390.17 104.008 5385.51 107.883 5389.78 108.274C5394.05 108.665 5454.51 106.46 5460.8 103.594C5467.09 100.729 5495.81 87.8733 5544.41 64.7936C5593.01 41.7138 5612.97 30.6361 5610.1 24.351C5607.23 18.066 5592.41 20.1496 5581.07 21.6927C5572.01 22.9272 5530.15 41.9784 5510.35 51.3496L5438.27 20.6582L5484.26 73.0496M5506.13 97.4216L5522.5 116.127L5533.07 85.2631" stroke="white" stroke-width="4" stroke-linecap="round" stroke-linejoin="round"/>
<path d="M5461 105C5415 153 5156.5 243.122 4995 234.903C4833.5 226.684 4713.5 271 4657 289C4600.5 307 4524.51 314.134 4446.09 279.826C4399.81 259.579 4360.76 186.579 4400.03 143.735C4430.13 110.905 4500.07 122.215 4500.07 171.104C4500.07 200.687 4461.84 223.233 4438.92 234.903C4391.08 259.258 4349.59 256.844 4298.11 249.248C4226.09 238.623 4151.06 224.625 4084.82 194.132C4038.04 172.6 4014.49 132.145 4021.77 82.0121C4025.07 59.3195 4047.5 17.5617 4073.49 8.02063C4112 -6.11575 4150.74 10.9839 4174.66 41.9963C4190.86 62.9952 4176.62 99.9854 4167.11 120.895C4147.56 163.9 4096.39 177.912 4054.62 180.542C4009.43 183.386 3953.85 177.293 3913.62 155.626C3882.1 138.653 3842.66 120.75 3806.59 116.743C3758.5 111.4 3709.27 103.626 3661.06 115.044C3605.21 128.273 3550.91 156.204 3503.08 188.092C3481.1 202.745 3460.88 219.818 3439.28 234.903C3421.16 247.554 3396.63 264.68 3375.48 271.144C3305.82 292.43 3233.52 309.188 3159.92 301.722C3058.05 291.387 2960.86 272.603 2864.33 237.168C2805.11 215.429 2749.31 191.047 2686.9 178.654C2640.74 169.487 2591.55 168.506 2544.77 172.991C2485.69 178.657 2426.14 186.785 2369.04 203.192C2316.81 218.203 2265.23 235.046 2212.76 249.248C2165.92 261.926 2120.59 280.621 2071.76 284.545C1994.63 290.742 1908.96 289.46 1833.74 268.878C1795.61 258.449 1761.97 236.19 1727.85 217.16C1699.4 201.296 1667.69 180.644 1651.02 151.474C1632.06 118.291 1635.57 64.0479 1667.5 42.3842C1681.65 32.7837 1709.35 28.8842 1727.85 47.3842C1759.99 79.5241 1750.02 141.565 1734.45 177.144C1693.78 270.105 1591.88 318.347 1498.89 340.227C1424.43 357.748 1333.1 359.099 1258.79 340.227C1153.18 313.405 1062.18 243.15 970 188.092C535.5 -25 235.288 364.017 2.5 340.227" stroke="white" stroke-width="4" stroke-linecap="round" stroke-dasharray="2 10"/>
</svg>
