<svg width="1024" height="589" viewBox="0 0 1024 589" fill="none" xmlns="http://www.w3.org/2000/svg">
<path d="M99.5 27C99.5 13.1929 110.693 2 124.5 2H899.5C913.307 2 924.5 13.1929 924.5 27V549H99.5V27Z" fill="white" stroke="#1941B8" stroke-width="3" stroke-linejoin="round"/>
<rect x="127.5" y="38" width="770" height="478" fill="white" stroke="#1941B8" stroke-width="3" stroke-linejoin="round"/>
<rect x="1.5" y="549" width="1021" height="22" fill="white" stroke="#1941B8" stroke-width="3" stroke-linejoin="round"/>
<path d="M1.5 571H1022.5V571C1009.55 581.357 993.467 587 976.888 587H48.9008C31.7749 587 15.1224 581.379 1.5 571V571Z" fill="white" stroke="#1941B8" stroke-width="3" stroke-linejoin="round"/>
<path d="M441.5 550H582.5V550C582.5 555.523 578.023 560 572.5 560H451.5C445.977 560 441.5 555.523 441.5 550V550Z" fill="white" stroke="#1941B8" stroke-width="3" stroke-linejoin="round"/>
<circle cx="512.5" cy="20" r="7" fill="white" stroke="#1941B8" stroke-width="3" stroke-linejoin="round"/>
</svg>
