<svg width="1122" height="425" viewBox="0 0 1122 425" fill="none" xmlns="http://www.w3.org/2000/svg">
<path d="M92.67 291.76C92.67 291.76 56.14 249.69 81.67 198.02C107.19 146.35 172.59 173.2 172.59 173.2C172.59 173.2 120.22 59.57 213.25 14.16C306.28 -31.34 397.91 43.12 395.79 92.05C395.79 92.05 470.16 63.8 497.8 96.19C525.35 128.58 515.76 145.92 515.76 145.92C515.76 145.92 533.01 124.44 570.86 142.31C608.79 160.27 639.78 211.23 639.78 211.23C639.78 211.23 643.21 153.32 703.86 149.88C764.5 146.45 787.91 192.57 787.91 192.57C787.91 192.57 827.16 146.45 912.63 177.43C998.09 208.41 989.12 291.76 989.12 291.76C989.12 291.76 1075.2 273.19 1107.59 320.01C1139.98 366.83 1108.29 403.36 1076.61 415.07C1035.42 430.3 990.79 421.5 948.28 421.5C897.32 421.59 846.45 421.59 795.48 421.59C692.15 421.68 588.73 421.77 485.4 421.85C395.36 421.94 305.32 422.03 215.28 418.42C166.26 416.48 116.97 413.4 68.91 403.19C52.54 399.67 35.82 395.18 22.26 385.41C-6.08002 364.99 -9.95002 312.97 25.87 297.13C46.29 288.15 70.93 289.12 92.67 291.76V291.76Z" fill="#D1D9F1"/>
<g style="mix-blend-mode:screen" opacity="0.5">
<path d="M956.44 204.06C946.21 194.13 932.85 185.19 915.41 178.47C915.37 178.47 915.34 178.44 915.3 178.43C914.42 178.1 913.53 177.76 912.62 177.44C895.84 171.36 880.84 168.25 867.57 167.18H867.55C851.97 165.92 838.79 167.48 827.89 170.33L827.68 170.38C800.72 177.51 787.9 192.58 787.9 192.58C787.9 192.58 786.59 190 783.78 186.1C777.34 177.14 762.98 161.22 738.49 153.77C728.63 150.76 717.14 149.14 703.85 149.89C697.23 150.27 691.3 151.29 685.97 152.81C685.95 152.81 685.94 152.81 685.93 152.81C654.07 161.96 644.11 189.13 641.08 202.94C639.97 207.96 639.78 211.22 639.78 211.22C639.78 211.22 638.8 209.61 636.97 206.85C629.93 196.24 610.34 168.7 585.93 151.29C581.08 147.82 576.04 144.76 570.86 142.31C556.52 135.54 545.13 134.42 536.53 135.64C536.06 135.7 535.61 135.78 535.16 135.86C534.21 136.03 533.29 136.22 532.41 136.44C532.08 136.52 531.76 136.6 531.44 136.7C529.67 137.18 528.05 137.76 526.59 138.4C526.25 138.55 525.9 138.7 525.58 138.86C525.25 139.01 524.94 139.17 524.62 139.33C524.3 139.48 524 139.65 523.7 139.81C523.4 139.97 523.12 140.13 522.85 140.29C522.57 140.45 522.3 140.61 522.04 140.77C521.78 140.93 521.52 141.09 521.27 141.25C521.02 141.41 520.79 141.57 520.57 141.73C520.34 141.88 520.12 142.04 519.91 142.2C519.49 142.51 519.1 142.81 518.74 143.1C518.56 143.25 518.39 143.39 518.22 143.52C517.57 144.07 517.05 144.57 516.66 144.95L516.41 145.2C516.2 145.42 516.03 145.6 515.93 145.73C515.89 145.78 515.85 145.82 515.82 145.85C515.8 145.87 515.79 145.89 515.78 145.89C515.78 145.87 515.81 145.84 515.82 145.79C515.82 145.79 515.82 145.79 515.82 145.77C515.84 145.73 515.86 145.69 515.88 145.64C515.93 145.53 516 145.37 516.07 145.17C517.06 142.65 519.53 133.82 512.92 119.18C512.74 118.79 512.57 118.39 512.37 117.99C512.37 117.99 512.35 117.97 512.35 117.96C512.09 117.41 511.83 116.87 511.55 116.31C511.41 116.02 511.25 115.73 511.1 115.43C511.06 115.35 511.01 115.27 510.97 115.18C510.77 114.79 510.56 114.4 510.34 113.99C510.16 113.67 509.99 113.36 509.8 113.03C509.57 112.62 509.32 112.2 509.08 111.78C509.04 111.71 509 111.63 508.95 111.55C508.77 111.26 508.6 110.96 508.42 110.66C508.25 110.38 508.08 110.1 507.9 109.82L507.4 109.03C507.4 109.03 507.37 109 507.36 108.99C507.18 108.71 506.99 108.42 506.81 108.14C506.62 107.85 506.42 107.57 506.23 107.28C505.65 106.41 505.04 105.53 504.4 104.63C504.19 104.33 503.97 104.03 503.75 103.73C502.78 102.4 501.74 101.04 500.63 99.65C500.44 99.4 500.23 99.16 500.03 98.91C499.31 98.02 498.56 97.11 497.78 96.19C470.14 63.8 395.77 92.05 395.77 92.05C395.77 91.98 395.77 91.91 395.77 91.84C396 85.93 394.85 79.64 392.5 73.24C392.5 73.24 392.48 73.22 392.48 73.2C392.23 72.55 391.98 71.87 391.71 71.21C391.69 71.16 391.67 71.11 391.65 71.06C391.65 71.06 391.65 71.03 391.63 71.02C391.57 70.85 391.5 70.69 391.43 70.52C391.33 70.28 391.24 70.05 391.14 69.82C391.04 69.6 390.96 69.38 390.85 69.15C390.64 68.67 390.42 68.18 390.19 67.7C389.62 66.47 389.01 65.24 388.35 64.02C388.09 63.52 387.8 63.02 387.52 62.51C386.97 61.52 386.38 60.53 385.78 59.54C385.19 58.59 384.57 57.63 383.94 56.68C383.59 56.16 383.24 55.64 382.88 55.12C382.54 54.63 382.18 54.14 381.83 53.65C381.05 52.57 380.23 51.48 379.38 50.41C379.08 50.03 378.78 49.66 378.48 49.29C377.7 48.32 376.9 47.36 376.07 46.41C375.67 45.95 375.28 45.5 374.87 45.05C374.41 44.54 373.95 44.02 373.47 43.51C373.05 43.06 372.63 42.61 372.2 42.17C371.78 41.73 371.35 41.29 370.92 40.85C370.87 40.81 370.81 40.75 370.77 40.7C370.33 40.26 369.89 39.83 369.45 39.39C368.98 38.93 368.51 38.47 368.02 38.02C367.54 37.57 367.06 37.11 366.57 36.66C366.15 36.27 365.73 35.89 365.29 35.5C365.18 35.39 365.05 35.29 364.93 35.17C364.55 34.84 364.17 34.5 363.79 34.17C363.21 33.67 362.63 33.17 362.03 32.67C361.51 32.23 360.99 31.8 360.45 31.37C359.92 30.94 359.39 30.51 358.85 30.08C357.23 28.8 355.57 27.55 353.86 26.33C353.38 25.98 352.87 25.63 352.37 25.27C351.15 24.42 349.9 23.58 348.63 22.75C348.05 22.37 347.46 21.99 346.87 21.62C345.05 20.48 343.18 19.36 341.28 18.28C340.65 17.92 340.01 17.57 339.38 17.22C337.91 16.41 336.42 15.64 334.92 14.88C334.46 14.64 334 14.41 333.54 14.19C332.34 13.6 331.13 13.03 329.91 12.47C329.43 12.25 328.96 12.04 328.48 11.84C327.61 11.44 326.72 11.07 325.83 10.7C325.46 10.54 325.09 10.39 324.71 10.23C324.26 10.05 323.8 9.86 323.34 9.68C322.54 9.36 321.74 9.05 320.93 8.75C320.33 8.52 319.72 8.3 319.12 8.08C318.42 7.83 317.73 7.59 317.03 7.35C316.49 7.17 315.96 6.99 315.43 6.81C314.93 6.64 314.43 6.48 313.92 6.33C313.36 6.15 312.78 5.97 312.21 5.8C311.63 5.62 311.04 5.45 310.44 5.27H310.42C309.69 5.06 308.95 4.85 308.21 4.65C307.58 4.47 306.93 4.31 306.29 4.14L305.76 4.01C305.15 3.86 304.55 3.71 303.93 3.57C303.78 3.53 303.63 3.49 303.47 3.46C302.93 3.33 302.39 3.2 301.84 3.09C301.64 3.04 301.44 2.99 301.23 2.96C300.65 2.83 300.06 2.7 299.47 2.59C299.31 2.55 299.15 2.53 298.99 2.49C298.53 2.4 298.07 2.31 297.62 2.23C297.13 2.13 296.63 2.04 296.13 1.96C295.47 1.84 294.81 1.73 294.14 1.63C293.46 1.52 292.79 1.41 292.12 1.32C291.36 1.21 290.61 1.1 289.86 1.01C289.08 0.900002 288.28 0.820002 287.5 0.730002C286.73 0.640002 285.94 0.560002 285.17 0.500002C284.77 0.460002 284.38 0.420002 283.99 0.390002C283.47 0.350002 282.96 0.300002 282.44 0.270002C281.74 0.220002 281.03 0.170002 280.34 0.140002C279.89 0.110002 279.45 0.0900024 279 0.0800024C278.59 0.0500024 278.17 0.0400024 277.77 0.0300024C277.48 0.0100024 277.19 2.44007e-06 276.9 2.44007e-06C275.62 -0.0399976 274.35 -0.0599976 273.06 -0.0599976C253.87 2.44007e-06 233.59 4.22 213.25 14.16C170.79 34.89 158.62 69.83 157.93 101.68C171.21 83.93 190.03 69.51 209.9 59.13C260.33 33.02 322.13 42.42 342.91 101.55C348.93 118.7 350.36 137.25 348.73 155.35C346.41 181.23 371 157.08 381.58 152.32C393.07 147.19 405.17 143.92 417.71 143C460.89 139.81 482.46 158.04 502.01 193.91C506.53 202.2 501.37 200.26 511.18 200.98C517.45 201.44 524.71 198.59 531.15 198.41C544.47 198.01 556.92 201.02 568.35 207.99C595.05 224.28 601.28 251.47 611.67 279.15C612.31 280.85 613.03 282.65 614.56 283.63C617.11 285.26 620.45 283.81 623.04 282.26C639.56 272.42 653.99 259.09 671.39 250.91C696.16 239.28 726.14 239.37 750.84 251.14C765.2 257.99 775 271.22 786.15 255.97C786.15 255.97 786.17 255.95 786.17 255.94C803.28 232.6 827.93 216.85 855.84 209.61C888.49 201.13 922.82 202.61 956.53 204.16C956.49 204.12 956.46 204.08 956.42 204.05L956.44 204.06ZM515.1 124.79C515.34 125.49 515.54 126.19 515.72 126.86C515.54 126.19 515.32 125.5 515.1 124.79Z" fill="#D1D9F1"/>
</g>
<g style="mix-blend-mode:multiply" opacity="0.6">
<path d="M261.48 334.98C259.37 339.2 248.37 337.09 245.2 335.95C236.13 332.78 226.01 325.12 223.46 315.35C223.2 314.29 222.76 301.18 224.16 301.8C209.37 295.2 193.88 288.07 184.64 274.78C175.05 260.96 173.81 240.98 182.79 226.55C183.32 225.76 183.85 224.97 184.37 224.17C192.91 212.64 201 226.46 205.41 234.64C210.95 245.11 218 254.8 226.27 263.33C232.08 269.4 245.19 275.74 248.45 283.31C251 289.3 246.25 295.28 245.63 301.18C245.1 306.99 247.04 312.97 249.94 317.99C251.88 321.6 262.88 332.07 261.47 334.98H261.48Z" fill="#D1D9F1"/>
</g>
<g style="mix-blend-mode:multiply" opacity="0.6">
<path d="M1098.57 402.52C1097.96 403.02 1097.34 403.51 1096.71 403.99C1090.45 408.77 1083.53 412.51 1076.6 415.07C1035.41 430.3 990.78 421.5 948.27 421.5C897.31 421.59 846.44 421.59 795.47 421.59C692.14 421.68 588.72 421.77 485.39 421.85C462.68 421.88 439.97 421.89 417.27 421.85H415.16C368.75 421.67 322.36 421.22 275.95 420.33C255.72 419.85 235.51 419.23 215.28 418.42C188.29 417.36 161.22 415.94 134.32 413.18C112.35 410.94 90.5101 407.78 68.9101 403.19C65.4901 402.46 62.0601 401.68 58.6501 400.81C45.7001 397.56 32.9901 393.14 22.2601 385.41C21.4501 384.83 20.6601 384.22 19.8901 383.58C-6.26986 362.05 -8.93986 312.53 25.8701 297.13C31.5101 294.65 37.4801 292.92 43.6201 291.79C47.9701 290.99 52.4001 290.48 56.8701 290.2C19.8901 303.97 27.4501 345.03 79.3901 351.32C107.04 354.66 136.38 357.83 165.32 361.31C214.62 367.24 264.43 369.54 314.04 370.48C323.6 370.66 322.52 366.56 325.91 359.44C327.59 355.9 329.52 352.45 331.7 349.2C336.09 342.66 341.56 336.9 347.42 331.66C349.71 329.63 352.15 327.53 353.22 324.66C355.26 319.21 352.42 312.15 351.83 306.55C351.25 301.05 351.18 295.49 351.59 289.96C352.4 278.89 355.13 267.98 359.46 257.76C368.11 237.35 383.27 219.52 402.74 208.73C404.88 207.54 407.07 206.45 409.3 205.44C418.27 201.4 428.63 198.72 437.87 202.09C424.91 213.68 407.94 221.21 398.35 235.7C386.55 253.56 389.12 277.2 394.93 297.8C396.71 304.08 399.52 309.96 402.85 315.55C405.22 319.53 409.34 322.78 411.01 327.16C412.74 331.67 409.19 333.34 407.58 336.94C405.42 341.76 407.4 346.21 409.43 350.78C410.69 353.61 411.94 357.01 411.36 360.15C410.5 364.77 407.47 367.27 414.72 368.9C435.93 373.67 458.55 372.59 480.16 373.17C495.66 373.17 511.2 374 526.69 374.4C535.39 374.64 558.42 379.87 559.95 366.42C560.74 359.2 555.46 351.28 559.33 345.12C562.06 340.81 568.13 339.93 572.97 341.51C577.72 343.09 581.6 346.7 585.64 349.78C600.15 360.83 616.9 367.59 634.5 371.99C653.82 376.81 673.64 376.73 693.57 376.75C716.23 376.79 744.3 375.48 759.65 356.21C766.69 347.41 774.26 334.03 784.82 337.73C791.77 340.19 793.89 348.82 798.29 354.8C806.48 365.89 822.23 367.3 836.05 367.65C882.35 368.88 928.73 370.03 975.03 371.17C1003.46 371.87 1032.42 372.58 1059.88 365.18C1080.74 359.63 1100.9 348.72 1114.8 332.61C1128.88 362.58 1117.18 387.29 1098.57 402.53V402.52Z" fill="#D1D9F1"/>
</g>
<g style="mix-blend-mode:multiply" opacity="0.6">
<path d="M58.6401 400.81C45.1701 397.64 31.8301 393.3 21.1101 384.7C20.6801 384.35 20.2701 383.98 19.8901 383.57C20.6601 384.21 21.4501 384.82 22.2601 385.4C32.9901 393.13 45.7001 397.56 58.6501 400.8L58.6401 400.81Z" fill="#D1D9F1"/>
</g>
<g style="mix-blend-mode:screen" opacity="0.5">
<path d="M1109.42 322.77C1107.55 326.05 1102.47 325.43 1098.75 324.27C1071.75 315.95 1044.11 308.46 1015.79 306.72C1002.09 305.88 988.26 306.41 974.76 308.98C970.37 309.81 954.08 320.16 953.04 312.7C952.02 305.41 952.22 298.03 951.41 290.73C950.71 284.43 948.2 277.68 944.3 272.02C937.89 262.72 927.7 256.37 915.59 259.85C907.63 262.13 895.03 272.33 887.62 262.5C882.22 255.33 884.09 242.57 888.27 235.46C893.88 225.9 904.37 219.97 915.2 217.59C926.02 215.2 937.27 215.95 948.3 217.09C955.35 217.82 962.6 218.77 968.75 222.31C970.46 223.29 972.04 224.46 973.52 225.75C992.73 258.2 989.11 291.77 989.11 291.77C989.11 291.77 1075.19 273.2 1107.58 320.02C1108.22 320.94 1108.83 321.85 1109.42 322.77V322.77Z" fill="#D1D9F1"/>
</g>
<g style="mix-blend-mode:screen" opacity="0.5">
<path d="M221.2 207.39C216.91 205.48 211.98 204.01 207.62 205.71C201.19 208.2 198.83 214.31 190.97 213.66C186.73 213.31 182.76 211.54 178.82 209.96C167.25 205.3 155.13 202.03 142.79 200.23C124.19 197.51 110.2 210.98 100.64 225.28C97.7901 229.52 86.4001 254.96 77.7301 264.66C71.7001 247.66 68.8101 224.06 81.6701 198.03C106.99 146.78 171.55 172.79 172.58 173.2C172.57 173.17 172.5 173.01 172.38 172.72C176.85 175.66 180.59 179.47 184.15 183.46C187.74 187.48 191.88 197.42 198.63 194.84C200.48 194.14 202.04 192.87 203.74 191.85C210.13 188 218.69 188.07 225.02 192.02C229.91 195.07 233.53 200.5 234.4 206.2C235.9 215.98 226.43 209.72 221.2 207.39V207.39Z" fill="#D1D9F1"/>
</g>
</svg>
