<svg width="619" height="313" viewBox="0 0 619 313" fill="none" xmlns="http://www.w3.org/2000/svg">
<path d="M103.8 161.16C103.8 161.16 40.3003 149.86 7.90027 195.06C-24.4997 240.16 55.9003 259.96 55.9003 259.96C55.9003 259.96 22.0003 289.56 37.6003 305.06C53.1003 320.56 542.6 306.56 570.9 305.06C599.2 303.56 618.9 295.06 618.9 271.16C618.9 230.26 542.7 241.56 542.7 241.56C542.7 241.56 578 217.56 551.2 183.76C524.4 149.96 487.7 154.16 487.7 154.16C487.7 154.16 520.1 7.46025 397.4 0.360253C274.7 -6.73975 278.9 93.4603 278.9 93.4603C278.9 93.4603 237.1 42.8603 153.3 80.7603C93.9003 107.56 103.8 161.16 103.8 161.16V161.16Z" fill="#D1D9F1"/>
<g style="mix-blend-mode:screen" opacity="0.5">
<path d="M490.9 99.0602C479.6 75.7602 455.1 58.4602 428.8 56.4602C393.4 53.7602 358.5 76.6602 343.2 108.66C338 119.66 333.5 132.86 322.2 137.36C313.8 140.66 304.1 137.76 296.5 132.76C294.66 131.57 292.9 130.28 291.19 128.91C284.96 129.69 279.92 135.23 277.88 141.28C275.69 147.73 276.1 154.73 276.19 161.54C276.4 177.61 273.86 195.33 261.82 205.98C260.74 206.93 259.52 207.84 258.09 208C255.73 208.26 253.71 206.43 252 204.77C242.27 195.34 230.28 187.1 216.75 186.36C210.74 186.04 204.06 187.61 200.61 192.55C197.56 196.9 195.36 204.36 190.24 202.94C185.96 201.75 186.32 195.49 188.22 191.47C197.85 171.05 224.03 160.21 245.27 167.84C246.5 157.39 244.03 146.61 246.52 136.39C248.96 126.33 256.39 117.62 265.93 113.62C267.42 113 268.95 112.49 270.52 112.1C254.57 101.93 234.79 97.9502 216 100.66C195.2 103.66 175.8 114.56 161.7 130.16C149.9 143.26 140.8 173.16 123.6 179.26C117.8 181.36 111.3 180.66 105.1 180.46C81.0001 179.66 56.2 186.86 35.8 199.86C23.4 207.76 12.6001 218.56 5.00005 231.06C-1.49995 221.56 -2.69995 209.66 7.70005 195.16C40.1001 150.06 103.6 161.26 103.6 161.26C103.6 161.26 93.7 107.66 153 80.8602C236.8 42.9602 278.6 93.5602 278.6 93.5602C278.6 93.5602 274.4 -6.63977 397.1 0.460229C469.2 4.46023 487.8 56.5602 490.9 99.0602V99.0602Z" fill="#D1D9F1"/>
</g>
<g style="mix-blend-mode:multiply" opacity="0.6">
<path d="M612.38 290.67C604.36 300.07 589.48 304.07 570.9 305.06C542.6 306.56 53.1 320.56 37.6 305.06C24.37 291.91 46.76 268.61 53.85 261.85C59.1 262.49 63.97 263.64 68.23 265.46C73.84 267.84 78.37 271.15 83.99 273.46C111.09 284.62 161.08 278.68 191.96 279.47C219.27 280.13 247.13 281.32 274.01 277.62C305.22 273.33 335.88 260.51 343.11 241.41C343.65 240.03 344.19 238.51 345.81 237.52C348.94 235.67 354.23 236.72 357.69 238.38C376.26 247.03 372.48 265.53 387.49 276.43C399.26 284.95 419.34 286.67 437.48 287.66C495.77 290.59 554.14 291.63 612.38 290.67Z" fill="#D1D9F1"/>
</g>
<g style="mix-blend-mode:screen" opacity="0.5">
<path d="M556.79 192.25C555.92 190.6 554.91 188.93 553.75 187.22C554.92 188.93 555.93 190.6 556.79 192.25Z" fill="#D1D9F1"/>
</g>
<g style="mix-blend-mode:screen" opacity="0.5">
<path d="M616.9 261.16C594.6 255.46 571.2 254.16 548.5 257.46C545.2 257.96 533 264.06 530.6 261.46C526.9 257.46 535.2 237.16 536.2 231.96C538.1 221.56 539.1 210.66 537 200.16C536.98 200.07 536.96 199.97 536.94 199.88C531.21 192.62 525.74 185.11 518.72 179.13C509.08 170.91 496.72 165.95 484.07 165.22C478.01 164.88 471.7 165.54 466.42 168.53C462.55 170.72 456.87 180.89 452.92 181.05C446.57 181.3 451.99 169.74 453.56 166.77C458.95 156.62 468.71 148.79 479.88 145.99C482.99 145.22 486.15 144.81 489.33 144.68C488.48 150.65 487.7 154.16 487.7 154.16C487.7 154.16 488.81 154.03 490.79 154C496.09 153.91 507.59 154.51 520.58 160.06H520.59C521.43 160.42 522.28 160.81 523.13 161.21C523.56 161.41 523.99 161.62 524.42 161.83H524.43C524.9 162.06 525.38 162.3 525.85 162.56C526.81 163.06 527.77 163.58 528.73 164.14C528.74 164.15 528.75 164.15 528.76 164.15C529.73 164.71 530.71 165.31 531.68 165.94C531.81 166.01 531.93 166.09 532.05 166.17C532.05 166.18 532.05 166.18 532.05 166.18C532.6 166.54 533.15 166.9 533.7 167.29C534.25 167.67 534.81 168.06 535.36 168.46C536.08 168.99 536.8 169.53 537.52 170.1C537.9 170.39 538.28 170.69 538.67 171.01C539.02 171.3 539.38 171.59 539.73 171.89C540.08 172.19 540.43 172.49 540.78 172.8C541.49 173.41 542.19 174.05 542.89 174.71C543.6 175.37 544.3 176.05 545 176.77C545.35 177.13 545.7 177.49 546.05 177.85C547.79 179.68 549.51 181.64 551.19 183.76C552.11 184.93 552.96 186.08 553.74 187.22C554.9 188.93 555.91 190.6 556.78 192.25C556.78 192.26 556.78 192.27 556.79 192.28C556.93 192.55 557.07 192.81 557.2 193.08C557.47 193.61 557.72 194.14 557.96 194.67C558.08 194.93 558.2 195.2 558.31 195.46C558.33 195.52 558.35 195.58 558.37 195.63C558.59 196.13 558.78 196.63 558.97 197.12C559.07 197.39 559.17 197.67 559.27 197.94C559.44 198.45 559.61 198.95 559.76 199.45C559.77 199.5 559.79 199.55 559.81 199.6C559.93 200.04 560.05 200.47 560.16 200.89C560.19 201 560.22 201.11 560.25 201.21C560.35 201.64 560.45 202.06 560.53 202.47C560.61 202.84 560.68 203.21 560.75 203.58C560.82 204 560.89 204.42 560.94 204.84C560.97 205.08 561 205.31 561.03 205.54C561.07 205.85 561.1 206.16 561.12 206.47C561.12 206.49 561.13 206.51 561.13 206.54C561.17 207.03 561.2 207.51 561.21 207.99C561.23 208.36 561.24 208.73 561.24 209.1V209.15C561.24 209.54 561.24 209.92 561.22 210.3C561.2 210.67 561.19 211.04 561.16 211.4V211.43C561.13 211.8 561.1 212.17 561.06 212.53C561.02 212.91 560.97 213.28 560.92 213.64C560.85 214.12 560.77 214.6 560.68 215.07C560.59 215.54 560.49 216.01 560.38 216.47C560.27 216.93 560.15 217.39 560.03 217.84C559.9 218.3 559.76 218.74 559.62 219.18C559.48 219.62 559.33 220.06 559.17 220.49C554.36 233.65 542.69 241.56 542.69 241.56C542.69 241.56 605.19 232.26 616.89 261.16H616.9Z" fill="#D1D9F1"/>
</g>
<g style="mix-blend-mode:screen" opacity="0.5">
<path d="M520.58 160.06C507.59 154.51 496.09 153.91 490.79 154C490.76 153.99 490.73 153.97 490.7 153.96C495.96 153.85 507.52 154.44 520.58 160.06Z" fill="#D1D9F1"/>
</g>
</svg>
