<svg width="80" height="70" viewBox="0 0 80 70" fill="none" xmlns="http://www.w3.org/2000/svg">
<path d="M45.2572 2C40.0687 2 35.548 4.88686 33.2256 9.14336C32.6405 10.2119 31.1218 10.2119 30.5368 9.14336C28.2144 4.88686 23.6996 2 18.5052 2C11.0356 2 4.96664 7.98035 4.8189 15.413C4.67117 23.0818 11.1006 29.3632 18.777 29.3632H44.9854C52.6617 29.3632 59.0912 23.0877 58.9435 15.413C58.7957 7.98035 52.7267 2 45.2572 2V2ZM18.5052 18.288C17.0633 18.288 15.8991 17.1191 15.8991 15.6846C15.8991 14.25 17.0633 13.0811 18.5052 13.0811C19.9471 13.0811 21.1112 14.2441 21.1112 15.6846C21.1112 17.125 19.9471 18.288 18.5052 18.288V18.288ZM45.2513 18.288C43.8094 18.288 42.6452 17.1191 42.6452 15.6846C42.6452 14.25 43.8094 13.0811 45.2513 13.0811C46.6932 13.0811 47.8574 14.2441 47.8574 15.6846C47.8574 17.125 46.6932 18.288 45.2513 18.288Z" stroke="#1941B8" stroke-width="4" stroke-linecap="round" stroke-linejoin="round"/>
<path d="M46.8238 29.3574H45.2578" stroke="#1941B8" stroke-width="4" stroke-linecap="round" stroke-linejoin="round"/>
<path d="M45.345 35.4497H17.9665C13.5279 35.4497 9.92969 39.0444 9.92969 43.4786V59.8257C9.92969 64.2599 13.5279 67.8546 17.9665 67.8546H45.345C49.7836 67.8546 53.3818 64.2599 53.3818 59.8257V43.4786C53.3818 39.0444 49.7836 35.4497 45.345 35.4497Z" stroke="#1941B8" stroke-width="4" stroke-linecap="round" stroke-linejoin="round"/>
<path d="M2 35.4497H17.8255" stroke="#1941B8" stroke-width="4" stroke-linecap="round" stroke-linejoin="round"/>
<path d="M58.9434 42.9654L71.5482 36.5186C74.4321 35.0427 77.8595 37.1385 77.8595 40.3737V62.9077C77.8595 66.137 74.4498 68.2328 71.566 66.7746L58.9375 60.3987" stroke="#1941B8" stroke-width="4" stroke-linecap="round" stroke-linejoin="round"/>
</svg>
