<svg width="1920" height="870" viewBox="0 0 1920 870" fill="none" xmlns="http://www.w3.org/2000/svg">
<mask id="mask0_54_410" style="mask-type:alpha" maskUnits="userSpaceOnUse" x="0" y="0" width="1920" height="870">
<rect width="1920" height="870" fill="#FFF2F2"/>
</mask>
<g mask="url(#mask0_54_410)">
<rect x="2095.09" y="-113.971" width="500" height="702.55" rx="18.5" transform="rotate(30 2095.09 -113.971)" stroke="white" stroke-width="3"/>
<rect x="2086.4" y="-44.9197" width="445.987" height="550.638" transform="rotate(30 2086.4 -44.9197)" stroke="white" stroke-width="3"/>
<rect x="1462.75" y="-57.2" width="500" height="702.55" rx="18.5" transform="rotate(30 1462.75 -57.2)" stroke="white" stroke-width="3"/>
<rect x="1454.07" y="11.8513" width="445.987" height="550.638" transform="rotate(30 1454.07 11.8513)" stroke="white" stroke-width="3"/>
<circle cx="1664.59" cy="96.581" r="8.62752" transform="rotate(30 1664.59 96.581)" stroke="white" stroke-width="3"/>
<circle cx="1351.71" cy="635.134" r="27.1946" transform="rotate(30 1351.71 635.134)" stroke="white" stroke-width="3"/>
<rect x="1822.32" y="-681.951" width="500" height="702.55" rx="18.5" transform="rotate(30 1822.32 -681.951)" stroke="white" stroke-width="3"/>
<rect x="1813.64" y="-612.9" width="445.987" height="550.638" transform="rotate(30 1813.64 -612.9)" stroke="white" stroke-width="3"/>
<circle cx="1711.28" cy="10.3827" r="27.1946" transform="rotate(30 1711.28 10.3827)" stroke="white" stroke-width="3"/>
<rect x="1738.15" y="507.798" width="500" height="702.55" rx="18.5" transform="rotate(30 1738.15 507.798)" stroke="white" stroke-width="3"/>
<rect x="1729.47" y="576.849" width="445.987" height="550.638" transform="rotate(30 1729.47 576.849)" stroke="white" stroke-width="3"/>
<rect x="1099.76" y="568.069" width="500" height="702.55" rx="18.5" transform="rotate(30 1099.76 568.069)" stroke="white" stroke-width="3"/>
<rect x="1091.07" y="637.12" width="445.987" height="550.638" transform="rotate(30 1091.07 637.12)" stroke="white" stroke-width="3"/>
<circle cx="1301.6" cy="721.85" r="8.62752" transform="rotate(30 1301.6 721.85)" stroke="white" stroke-width="3"/>
</g>
</svg>
