<svg width="66" height="75" viewBox="0 0 66 75" fill="none" xmlns="http://www.w3.org/2000/svg">
<path d="M51.879 72.6511H13.7697L2 29.9692H63.6487L51.879 72.6511Z" stroke="#1941B8" stroke-width="4" stroke-miterlimit="10" stroke-linecap="round" stroke-linejoin="round"/>
<path d="M32.8262 29.9692V64.2023" stroke="#1941B8" stroke-width="4" stroke-miterlimit="10" stroke-linecap="round" stroke-linejoin="round"/>
<path d="M49.4907 29.9692L44.4746 64.2023" stroke="#1941B8" stroke-width="4" stroke-miterlimit="10" stroke-linecap="round" stroke-linejoin="round"/>
<path d="M16.6016 29.9692L20.7313 64.2023" stroke="#1941B8" stroke-width="4" stroke-miterlimit="10" stroke-linecap="round" stroke-linejoin="round"/>
<path d="M61.883 23.5579C60.1142 18.8977 55.6903 20.4976 55.6903 20.0637C55.6903 19.6298 57.1649 15.9845 55.6903 13.2186C54.2156 10.4527 49.4975 11.7621 49.4975 11.7621C49.4975 11.7621 50.529 8.12066 46.6973 6.22635C42.8656 4.33205 39.6182 7.53571 39.6182 7.53571C39.4653 2 33.2686 2 33.2686 2C33.2686 2 27.072 2 26.923 7.53571C26.923 7.53571 23.6795 4.33205 19.8439 6.22635C16.0082 8.12066 17.0436 11.7621 17.0436 11.7621C17.0436 11.7621 12.3256 10.4527 10.8509 13.2186C9.37628 15.9845 10.8509 19.6298 10.8509 20.0637C10.8509 20.4976 6.42699 18.8977 4.6582 23.5579" stroke="#1941B8" stroke-width="4" stroke-miterlimit="10" stroke-linecap="round" stroke-linejoin="round"/>
</svg>
