<svg width="1688" height="933" viewBox="0 0 1688 933" fill="none" xmlns="http://www.w3.org/2000/svg">
<path d="M37 825.067H59.9548" stroke="#1941B8" stroke-width="6" stroke-miterlimit="10" stroke-linecap="round"/>
<path d="M48.4834 810V840.146" stroke="#1941B8" stroke-width="6" stroke-miterlimit="10" stroke-linecap="round"/>
<path d="M1578 23.0669H1600.95" stroke="#1941B8" stroke-width="6" stroke-miterlimit="10" stroke-linecap="round"/>
<path d="M1589.48 8V38.1458" stroke="#1941B8" stroke-width="6" stroke-miterlimit="10" stroke-linecap="round"/>
<path d="M1117 914.067H1139.95" stroke="#1941B8" stroke-width="6" stroke-miterlimit="10" stroke-linecap="round"/>
<path d="M1128.48 899V929.146" stroke="#1941B8" stroke-width="6" stroke-miterlimit="10" stroke-linecap="round"/>
<path d="M424 23.0669H446.955" stroke="#1941B8" stroke-width="6" stroke-miterlimit="10" stroke-linecap="round"/>
<path d="M435.483 8V38.1458" stroke="#1941B8" stroke-width="6" stroke-miterlimit="10" stroke-linecap="round"/>
<path d="M931.5 113C936.194 113 940 109.194 940 104.5C940 99.8056 936.194 96 931.5 96C926.806 96 923 99.8056 923 104.5C923 109.194 926.806 113 931.5 113Z" fill="#1941B8"/>
<path d="M508.5 899C513.194 899 517 895.194 517 890.5C517 885.806 513.194 882 508.5 882C503.806 882 500 885.806 500 890.5C500 895.194 503.806 899 508.5 899Z" fill="#1941B8"/>
<path d="M1497.5 818C1502.19 818 1506 814.194 1506 809.5C1506 804.806 1502.19 801 1497.5 801C1492.81 801 1489 804.806 1489 809.5C1489 814.194 1492.81 818 1497.5 818Z" fill="#1941B8"/>
<path d="M8.50001 109C13.1944 109 17 105.194 17 100.5C17 95.8056 13.1944 92 8.50001 92C3.80558 92 0 95.8056 0 100.5C0 105.194 3.80558 109 8.50001 109Z" fill="#1941B8"/>
<path d="M631 102C633.761 102 636 99.7614 636 97C636 94.2386 633.761 92 631 92C628.239 92 626 94.2386 626 97C626 99.7614 628.239 102 631 102Z" fill="#1941B8"/>
<path d="M1683 914C1685.76 914 1688 911.761 1688 909C1688 906.239 1685.76 904 1683 904C1680.24 904 1678 906.239 1678 909C1678 911.761 1680.24 914 1683 914Z" fill="#1941B8"/>
<path d="M1334 10C1336.76 10 1339 7.76142 1339 5C1339 2.23858 1336.76 0 1334 0C1331.24 0 1329 2.23858 1329 5C1329 7.76142 1331.24 10 1334 10Z" fill="#1941B8"/>
</svg>
