<svg width="294" height="294" viewBox="0 0 294 294" fill="none" xmlns="http://www.w3.org/2000/svg">
<rect width="294" height="294" fill="white"/>
<path d="M139.086 139.12C131.558 143.563 115.784 152.755 112.909 153.985C109.316 155.523 83.6527 149.884 79.0332 150.397C79.0332 156.035 90.3252 162.699 90.3252 164.237C90.3252 165.775 87.7589 168.337 90.3252 168.337C92.8916 168.337 128.821 163.724 132.414 161.674C136.007 159.624 152.432 150.397 180.148 133.994C207.865 117.592 219.157 109.903 217.104 106.315C215.051 102.727 206.325 104.777 199.653 106.315C194.315 107.545 170.396 121.18 159.104 127.844L114.449 113.491L144.732 142.196M159.104 155.523L169.883 165.775L174.502 146.809" stroke="#1941B8" stroke-width="3" stroke-linecap="round" stroke-linejoin="round"/>
<path d="M47.0254 182.564C52.9528 178.348 69.7867 171.657 89.7028 178.612C109.619 185.567 113.281 206.537 112.622 216.152C115.52 213.518 124.951 208.802 139.493 211.015C157.671 213.781 170.316 233.539 162.412 257.249" stroke="#1941B8" stroke-width="3" stroke-linecap="round" stroke-linejoin="round"/>
<path d="M87.3301 215.362C97.6043 211.411 119.18 209.83 123.29 235.12" stroke="#1941B8" stroke-width="3" stroke-linecap="round"/>
<path d="M220.996 200.982C220.419 194.506 223.022 181.997 238.052 183.767" stroke="#1941B8" stroke-width="3" stroke-linecap="round"/>
<path d="M252.508 143.047C250.137 139.886 233.244 135.678 222.476 150.16C211.016 165.572 222.871 181.378 226.032 185.33C220.763 182.959 208.566 180.43 201.927 189.281C195.289 198.133 199.161 207.195 201.927 210.62C191.126 204.429 166.521 197.343 154.508 218.523" stroke="#1941B8" stroke-width="3" stroke-linecap="round" stroke-linejoin="round"/>
<circle cx="65.2024" cy="130.798" r="1.97581" fill="#1941B8"/>
<circle cx="224.849" cy="96.0237" r="1.97581" fill="#1941B8"/>
<circle cx="129.218" cy="64.4104" r="1.97581" fill="#1941B8"/>
<path d="M165.178 105.507C165.178 106.598 164.294 107.483 163.202 107.483C162.111 107.483 161.227 106.598 161.227 105.507C161.227 104.416 162.111 103.531 163.202 103.531C164.294 103.531 165.178 104.416 165.178 105.507Z" fill="#1941B8"/>
<circle cx="147.396" cy="186.12" r="1.97581" fill="#1941B8"/>
<line x1="97.1309" y1="87.6445" x2="97.1309" y2="99.6607" stroke="#1941B8" stroke-width="3" stroke-linecap="round"/>
<line x1="101.244" y1="93.9668" x2="93.1796" y2="93.9668" stroke="#1941B8" stroke-width="3" stroke-linecap="round"/>
<line x1="176.162" y1="60.7734" x2="176.162" y2="72.7896" stroke="#1941B8" stroke-width="3" stroke-linecap="round"/>
<line x1="180.275" y1="67.0967" x2="172.211" y2="67.0967" stroke="#1941B8" stroke-width="3" stroke-linecap="round"/>
<line x1="192.758" y1="157.192" x2="192.758" y2="169.209" stroke="#1941B8" stroke-width="3" stroke-linecap="round"/>
<line x1="196.871" y1="163.516" x2="188.807" y2="163.516" stroke="#1941B8" stroke-width="3" stroke-linecap="round"/>
</svg>
