<svg width="1784" height="760" viewBox="0 0 1784 760" fill="none" xmlns="http://www.w3.org/2000/svg">
<path d="M400.5 29C405.194 29 409 25.1944 409 20.5C409 15.8056 405.194 12 400.5 12C395.806 12 392 15.8056 392 20.5C392 25.1944 395.806 29 400.5 29Z" fill="#1941B8"/>
<path d="M1303.5 584C1308.19 584 1312 580.194 1312 575.5C1312 570.806 1308.19 567 1303.5 567C1298.81 567 1295 570.806 1295 575.5C1295 580.194 1298.81 584 1303.5 584Z" fill="#1941B8"/>
<path d="M1775.5 153C1780.19 153 1784 149.194 1784 144.5C1784 139.806 1780.19 136 1775.5 136C1770.81 136 1767 139.806 1767 144.5C1767 149.194 1770.81 153 1775.5 153Z" fill="#1941B8"/>
<path d="M1758.5 567C1763.19 567 1767 563.194 1767 558.5C1767 553.806 1763.19 550 1758.5 550C1753.81 550 1750 553.806 1750 558.5C1750 563.194 1753.81 567 1758.5 567Z" fill="#1941B8"/>
<path d="M1682 747C1684.76 747 1687 744.761 1687 742C1687 739.239 1684.76 737 1682 737C1679.24 737 1677 739.239 1677 742C1677 744.761 1679.24 747 1682 747Z" fill="#1941B8"/>
<path d="M1120 760C1122.76 760 1125 757.761 1125 755C1125 752.239 1122.76 750 1120 750C1117.24 750 1115 752.239 1115 755C1115 757.761 1117.24 760 1120 760Z" fill="#1941B8"/>
<path d="M5 98C7.76143 98 10 95.7614 10 93C10 90.2386 7.76143 88 5 88C2.23858 88 0 90.2386 0 93C0 95.7614 2.23858 98 5 98Z" fill="#1941B8"/>
<path d="M675 10C677.761 10 680 7.76142 680 5C680 2.23858 677.761 0 675 0C672.239 0 670 2.23858 670 5C670 7.76142 672.239 10 675 10Z" fill="#1941B8"/>
<path d="M528 718C530.761 718 533 715.761 533 713C533 710.239 530.761 708 528 708C525.239 708 523 710.239 523 713C523 715.761 525.239 718 528 718Z" fill="#1941B8"/>
<path d="M244.5 730C249.194 730 253 726.194 253 721.5C253 716.806 249.194 713 244.5 713C239.806 713 236 716.806 236 721.5C236 726.194 239.806 730 244.5 730Z" fill="#1941B8"/>
<path d="M1228.5 56C1233.19 56 1237 52.1944 1237 47.5C1237 42.8056 1233.19 39 1228.5 39C1223.81 39 1220 42.8056 1220 47.5C1220 52.1944 1223.81 56 1228.5 56Z" fill="#1941B8"/>
<path d="M213 173.067H235.955" stroke="#1941B8" stroke-width="6" stroke-miterlimit="10" stroke-linecap="round"/>
<path d="M224.483 158V188.146" stroke="#1941B8" stroke-width="6" stroke-miterlimit="10" stroke-linecap="round"/>
<path d="M1417 669.067H1439.95" stroke="#1941B8" stroke-width="6" stroke-miterlimit="10" stroke-linecap="round"/>
<path d="M1428.48 654V684.146" stroke="#1941B8" stroke-width="6" stroke-miterlimit="10" stroke-linecap="round"/>
<path d="M1504 190.067H1526.95" stroke="#1941B8" stroke-width="6" stroke-miterlimit="10" stroke-linecap="round"/>
<path d="M1515.48 175V205.146" stroke="#1941B8" stroke-width="6" stroke-miterlimit="10" stroke-linecap="round"/>
<path d="M14 592.067H36.9548" stroke="#1941B8" stroke-width="6" stroke-miterlimit="10" stroke-linecap="round"/>
<path d="M25.4834 577V607.146" stroke="#1941B8" stroke-width="6" stroke-miterlimit="10" stroke-linecap="round"/>
</svg>
