<?xml version="1.0" encoding="UTF-8"?>
<svg width="125px" height="125px" viewBox="0 0 125 125" version="1.1" xmlns="http://www.w3.org/2000/svg" xmlns:xlink="http://www.w3.org/1999/xlink">
    <!-- Generator: Sketch 52.6 (67491) - http://www.bohemiancoding.com/sketch -->
    <title>Group 6</title>
    <desc>Created with Sketch.</desc>
    <defs>
        <linearGradient x1="-1.31197917%" y1="-2.84702819%" x2="100%" y2="100%" id="linearGradient-1">
            <stop stop-color="#2AFADF" offset="0%"></stop>
            <stop stop-color="#4C83FF" offset="100%"></stop>
        </linearGradient>
        <polygon id="path-2" points="0.122219 0.449289692 58.6905222 0.449289692 58.6905222 45.7688187 0.122219 45.7688187"></polygon>
        <polygon id="path-4" points="0 0.16002598 72.5843913 0.16002598 72.5843913 18.1956204 0 18.1956204"></polygon>
        <polygon id="path-6" points="0.443291179 0.313383679 3.58882392 0.313383679 3.58882392 41.0546304 0.443291179 41.0546304"></polygon>
        <polygon id="path-8" points="0.121468683 0.387922524 58.6912726 0.387922524 58.6912726 3.57568897 0.121468683 3.57568897"></polygon>
    </defs>
    <g id="Page-1" stroke="none" stroke-width="1" fill="none" fill-rule="evenodd">
        <g id="index" transform="translate(-1005.000000, -1629.000000)">
            <g id="Group-6" transform="translate(1005.000000, 1629.000000)">
                <circle id="Oval-Copy-3" fill="url(#linearGradient-1)" cx="62.5" cy="62.5" r="62.5"></circle>
                <g id="edu-ico-w" transform="translate(26.840491, 28.907975)">
                    <g id="Group-3" transform="translate(5.368098, 19.938650)">
                        <g id="Fill-1-Clipped">
                            <mask id="mask-3" fill="white">
                                <use xlink:href="#path-2"></use>
                            </mask>
                            <g id="path-1"></g>
                            <path d="M13.1177225,40.5411043 C17.2714816,40.5411043 22.6047402,41.0781251 29.3215847,42.6540982 C31.832148,41.7356705 43.9677873,37.7675139 55.6892512,41.9935015 L55.6892512,6.43112929 C52.2437921,4.97415523 39.0592086,0.145544844 30.3840347,7.5829779 C29.8543103,8.03761482 29.0889863,8.06355049 28.5307498,7.64857987 C28.0745567,7.31141623 17.5776113,-0.208400689 3.12349001,7.33430064 L3.12349001,41.9233226 C5.06381173,41.2657772 8.29167871,40.5411043 13.1177225,40.5411043 M57.1898867,45.769429 C56.9827991,45.769429 56.7757114,45.7251859 56.5806287,45.638225 C44.2484061,40.0651086 30.1139203,45.6031357 29.9698592,45.6626351 C29.6862392,45.7770572 29.3771082,45.7984159 29.0769812,45.728237 C9.72928752,41.094907 2.52173518,45.4673549 2.45270595,45.5146493 C1.9905102,45.8258773 1.40226109,45.8533385 0.913053913,45.5878794 C0.425347373,45.3224202 0.122219,44.8052326 0.122219,44.2438017 L0.122219,6.41739865 C0.122219,5.85901906 0.422346102,5.34488265 0.904050101,5.07789788 C15.0415372,-2.76077515 26.0562019,2.55756159 29.3260866,4.54087708 C40.8014463,-4.19028793 57.1403658,3.71398707 57.8471651,4.06335573 C58.3618832,4.31966111 58.6905222,4.85057942 58.6905222,5.43489467 L58.6905222,44.2438017 C58.6905222,44.7609894 58.4339136,45.241562 58.0077331,45.523803 C57.7601283,45.6855195 57.4765081,45.769429 57.1898867,45.769429" id="Fill-1" fill="#FFFFFF" fill-rule="nonzero" mask="url(#mask-3)"></path>
                        </g>
                    </g>
                    <g id="Group-6">
                        <g id="Fill-4-Clipped">
                            <mask id="mask-5" fill="white">
                                <use xlink:href="#path-4"></use>
                            </mask>
                            <g id="path-3"></g>
                            <path d="M71.0896069,18.195033 C70.8983319,18.195033 70.7025738,18.1589109 70.5157818,18.0791411 L35.2404819,3.30216746 L2.09759971,18.0655952 C1.34295993,18.4042405 0.459807243,18.0580699 0.128064611,17.2979994 C-0.206666694,16.5379289 0.135536292,15.6499258 0.888681728,15.3127857 L34.6188381,0.29048237 C34.9954108,0.1204072 35.4198022,0.11739702 35.7963749,0.276936561 L71.663432,15.300745 C72.4255435,15.619824 72.7871728,16.5003017 72.4688792,17.2678976 C72.2312798,17.8473572 71.6753867,18.195033 71.0896069,18.195033" id="Fill-4" fill="#FFFFFF" mask="url(#mask-5)"></path>
                        </g>
                    </g>
                    <g id="Group-9" transform="translate(32.975460, 24.539877)">
                        <g id="Fill-7-Clipped">
                            <mask id="mask-7" fill="white">
                                <use xlink:href="#path-6"></use>
                            </mask>
                            <g id="path-5"></g>
                            <path d="M2.01135337,41.0547826 C1.14421497,41.0547826 0.443291179,40.3735797 0.443291179,39.5342406 L0.452699553,1.83392554 C0.452699553,0.993065893 1.15519141,0.313383679 2.02076174,0.313383679 C2.88790012,0.313383679 3.58882392,0.994586436 3.58882392,1.83392554 L3.57941555,39.5342406 C3.57941555,40.3751002 2.87692368,41.0547826 2.01135337,41.0547826" id="Fill-7" fill="#FFFFFF" mask="url(#mask-7)"></path>
                        </g>
                    </g>
                    <g id="Group-12" transform="translate(5.368098, 62.116564)">
                        <g id="Fill-10-Clipped">
                            <mask id="mask-9" fill="white">
                                <use xlink:href="#path-8"></use>
                            </mask>
                            <g id="path-7"></g>
                            <path d="M29.4063706,3.57584789 L3.80552886,3.57266949 C3.4393738,3.57266949 3.10773334,3.57266949 2.80610561,3.5694911 C2.09330374,3.5694911 1.69563534,3.5710803 1.64161246,3.5710803 L1.64161246,3.52181525 C0.486123111,3.41216079 0.121468683,3.06889465 0.121468683,1.98188521 C0.121468683,0.894875759 0.486123111,0.553198813 1.64161246,0.441955156 L1.64161246,0.392690109 C1.69563534,0.392690109 2.09330374,0.394279304 2.80610561,0.394279304 C3.10773334,0.391100914 3.4393738,0.391100914 3.80552886,0.391100914 L29.4063706,0.387922524 L55.0087131,0.391100914 C55.3733675,0.391100914 55.7050079,0.391100914 56.0066357,0.394279304 C56.7194375,0.394279304 57.1171059,0.392690109 57.1711288,0.392690109 L57.1711288,0.441955156 C58.3266182,0.551609618 58.6912726,0.894875759 58.6912726,1.98188521 C58.6912726,3.06889465 58.3266182,3.41057159 57.1711288,3.52181525 L57.1711288,3.5710803 C57.1171059,3.5710803 56.7194375,3.5694911 56.0066357,3.5694911 C55.7050079,3.57266949 55.3733675,3.57266949 55.0087131,3.57266949 L29.4063706,3.57584789 Z" id="Fill-10" fill="#FFFFFF" mask="url(#mask-9)"></path>
                        </g>
                    </g>
                </g>
            </g>
        </g>
    </g>
</svg>