<?xml version="1.0" encoding="UTF-8"?>
<svg width="125px" height="125px" viewBox="0 0 125 125" version="1.1" xmlns="http://www.w3.org/2000/svg" xmlns:xlink="http://www.w3.org/1999/xlink">
    <!-- Generator: Sketch 52.6 (67491) - http://www.bohemiancoding.com/sketch -->
    <title>Group</title>
    <desc>Created with Sketch.</desc>
    <defs>
        <linearGradient x1="-1.31197917%" y1="-2.84702819%" x2="100%" y2="100%" id="linearGradient-1">
            <stop stop-color="#2AFADF" offset="0%"></stop>
            <stop stop-color="#4C83FF" offset="100%"></stop>
        </linearGradient>
        <polygon id="path-2" points="0.00053548568 0.333231842 27.9949734 0.333231842 27.9949734 28.2399865 0.00053548568 28.2399865"></polygon>
    </defs>
    <g id="Page-1" stroke="none" stroke-width="1" fill="none" fill-rule="evenodd">
        <g id="index" transform="translate(-310.000000, -1629.000000)">
            <g id="Group" transform="translate(310.000000, 1629.000000)">
                <circle id="Oval" fill="url(#linearGradient-1)" cx="62.5" cy="62.5" r="62.5"></circle>
                <g id="repair-ico-w" transform="translate(35.276074, 35.276074)">
                    <polygon id="Fill-1" fill="#FFFFFF" points="29.9079755 32.8850429 30.5421043 33.5191718 32.9754601 31.0842989 32.3413312 30.4516871"></polygon>
                    <g id="Group-37" transform="translate(0.000000, 0.543712)">
                        <path d="M34.8186448,15.0195838 C35.19734,14.6420598 35.3449417,14.0906369 35.2018128,13.5748857 C34.4369676,10.7910175 35.2286495,7.79906519 37.2682366,5.76429984 C38.7591629,4.27798476 40.7256946,3.46348409 42.760809,3.41740834 L40.7823498,5.38974844 C40.4737281,5.69741567 40.3171809,6.12250178 40.3484903,6.55501947 L40.7838408,12.2505789 C40.8404959,12.9818459 41.4234482,13.5644814 42.1569838,13.6194751 L47.8702133,14.0519928 C48.3070547,14.0772601 48.7304778,13.9271423 49.0376086,13.6209614 L51.0175586,11.6471349 C50.969849,13.675955 50.1528215,15.637891 48.6618951,17.124206 C46.6223081,19.1559987 43.6210734,19.9482046 40.8270776,19.1827524 C40.3097262,19.0430388 39.7580835,19.1872113 39.3793882,19.5662217 L32.4942907,26.4300248 L34.6039513,28.5316743 L40.9046057,22.2490205 C44.4694104,22.9148896 48.1847988,21.8016395 50.7700649,19.2258555 C53.7086806,16.2963285 54.7404016,12.0202 53.4626778,8.06511559 C53.3046395,7.5731453 52.8991076,7.19710759 52.3951745,7.07671606 C51.8867686,6.9518656 51.3589808,7.10495605 50.990722,7.47058956 L47.4124989,11.0347731 L43.6598376,10.7523733 L43.3735797,7.00834556 L46.9518027,3.444162 C47.3185706,3.0785285 47.4676632,2.54791401 47.3468981,2.04553951 C47.2246423,1.54167869 46.8489288,1.13740099 46.3539412,0.978365279 C42.3895683,-0.295406747 38.0986825,0.733123285 35.1600669,3.66265032 C32.5733098,6.24140699 31.4506423,9.94084523 32.126032,13.5005699 L25.8268684,19.7817374 L27.9350382,21.8833869 L34.8186448,15.0195838 Z" id="Fill-2" fill="#FFFFFF"></path>
                        <g id="Group-6" transform="translate(0.000000, 26.036597)">
                            <g id="Fill-4-Clipped">
                                <mask id="mask-3" fill="white">
                                    <use xlink:href="#path-2"></use>
                                </mask>
                                <g id="path-1"></g>
                                <path d="M19.1835992,13.6625055 C18.8049039,14.0400296 18.6573023,14.5914525 18.8004311,15.1072038 C19.5652764,17.891072 18.7750853,20.8830242 16.7340073,22.9163032 C15.2445719,24.4026183 13.2765494,25.2156326 11.241435,25.264681 L13.2213851,23.2908546 C13.5300067,22.9831873 13.686554,22.5581013 13.6537537,22.1255836 L13.2184032,16.4315105 C13.161748,15.7002435 12.5787958,15.117608 11.8452601,15.0626143 L6.13352157,14.6286103 C6.09624841,14.6256377 6.05748433,14.6241514 6.02021117,14.6241514 C5.62660664,14.6241514 5.24642044,14.7802144 4.9661263,15.0596417 L2.9846853,17.0349544 C3.03239493,15.004648 3.84942253,13.0427121 5.34034879,11.556397 C7.37993593,9.523118 10.3811705,8.73239838 13.1751664,9.49933697 C13.6925178,9.64053689 14.2456514,9.49487801 14.6228557,9.11586766 L21.3260603,2.43488137 L19.2178905,0.333231842 L13.0991291,6.43306895 C9.52985161,5.7582819 5.81893613,6.87747715 3.23217905,9.4547475 C0.293563382,12.3842745 -0.738157594,16.6618893 0.539566215,20.6169738 C0.697604401,21.1089441 1.10313634,21.4849818 1.60706942,21.6053733 C2.11547528,21.7346827 2.64475411,21.5771333 3.01152197,21.2114998 L6.589745,17.6458299 L10.3424064,17.9297161 L10.6286643,21.6722575 L7.05044122,25.2379274 C6.68367337,25.6035609 6.53458073,26.1356617 6.65534576,26.6380361 C6.77760172,27.1404107 7.15480606,27.5461747 7.64830266,27.7037241 C8.77395199,28.0634124 9.92345615,28.2402839 11.0610329,28.2402839 C13.9385206,28.2402839 16.73848,27.1166296 18.842177,25.0179528 C21.4289342,22.4406824 22.5516016,18.7397578 21.876212,15.1815195 L27.9949734,9.08316874 L25.8868036,6.98151921 L19.1835992,13.6625055 Z" id="Fill-4" fill="#FFFFFF" mask="url(#mask-3)"></path>
                            </g>
                        </g>
                        <polygon id="Fill-7" fill="#FFFFFF" points="32.4948871 26.4297275 27.9341436 21.8830897 25.8259739 23.9847392 30.3867173 28.531377"></polygon>
                        <polygon id="Fill-9" fill="#FFFFFF" points="33.1188397 31.2543062 35.2270094 29.1526568 34.6038022 28.531377 32.4956326 30.6330266"></polygon>
                        <polygon id="Fill-11" fill="#FFFFFF" points="30.1034413 33.0179677 27.9952715 35.1196173 28.6184787 35.740897 30.7266485 33.6392475"></polygon>
                        <polygon id="Fill-13" fill="#FFFFFF" points="21.3260603 28.4719244 25.8868036 33.0185623 27.9949734 30.9169127 23.4342299 26.3702749"></polygon>
                        <path d="M10.4819571,13.4562777 C10.1971902,13.1738778 9.81700401,13.0207874 9.42787225,13.0207874 C9.25939758,13.0207874 9.08943198,13.0505137 8.92692102,13.10848 L6.91715242,13.8233974 L3.75042502,6.69800298 L6.40874656,4.04790319 L13.8261048,7.74436879 L12.851039,9.55470057 C12.5394354,10.1328771 12.6452911,10.8448221 13.1104601,11.3085524 L23.7184005,21.8836842 L25.8265703,19.7820346 L16.0028571,9.98721826 L17.177707,7.80233508 C17.3685456,7.44859209 17.4073097,7.03391019 17.2850537,6.6504409 C17.1642886,6.26845792 16.8914491,5.95038649 16.5321359,5.77054236 L6.78147812,0.910292041 C6.20598059,0.6204606 5.51269987,0.733420547 5.06094922,1.18823296 L0.919156044,5.31721627 C0.482314647,5.75122028 0.360058693,6.40965786 0.610534307,6.97148496 L4.75232747,16.2891943 C5.06691292,17.0011391 5.88244959,17.3504232 6.61598531,17.0858591 L9.04023142,16.22231 L19.2187851,26.3693831 L21.3254639,24.2662473 L10.4819571,13.4562777 Z" id="Fill-15" fill="#FFFFFF"></path>
                        <polygon id="Fill-17" fill="#FFFFFF" points="27.9952715 30.9161695 25.8871019 33.0178191 27.9952715 35.1194686 30.1034413 33.0178191"></polygon>
                        <polygon id="Fill-19" fill="#FFFFFF" points="30.3867173 28.531377 32.496378 30.6330266 34.6045477 28.531377 32.4948871 26.4297275"></polygon>
                        <polygon id="Fill-21" fill="#FFFFFF" points="23.4343791 26.3701262 21.3262094 24.2669904 19.2180396 26.3701262 21.3262094 28.4717758"></polygon>
                        <polygon id="Fill-23" fill="#FFFFFF" points="25.8265703 23.9853337 27.9347401 21.8836842 25.8265703 19.7820346 23.7184005 21.8836842"></polygon>
                        <path d="M37.8070574,28.6823867 L39.6498422,30.5194721 C39.8868995,30.5566299 40.1194841,30.6279731 40.3222499,30.7780909 L41.394226,31.5821874 C41.4941181,31.3800486 41.5597188,31.1660191 41.5597188,30.9371266 C41.5597188,30.5417668 41.4016806,30.1642428 41.1228774,29.8863018 L38.8611422,27.6315618 C38.2781901,27.0504126 37.3359247,27.0504126 36.7529725,27.6315618 L35.2277549,29.1520622 L36.2818398,30.202887 L37.8070574,28.6823867 Z" id="Fill-25" fill="#FFFFFF"></path>
                        <path d="M30.7266485,33.6390988 L33.1180943,31.2550494 L30.7266485,33.6390988 Z" id="Fill-27" fill="#FFFFFF"></path>
                        <path d="M30.1761985,39.9661934 L28.3319228,38.129108 L29.6722654,36.7914245 L28.6181806,35.7405997 L27.2778379,37.076797 C26.6963766,37.6564599 26.6963766,38.5972973 27.2778379,39.1784465 L29.5380821,41.4317002 C29.8183763,41.7111274 30.1970715,41.8671905 30.5921669,41.8671905 C30.8232606,41.8671905 31.0394449,41.8017926 31.2407199,41.7022095 L30.4356197,40.633549 C30.2835453,40.4314102 30.2119808,40.2010313 30.1761985,39.9661934" id="Fill-29" fill="#FFFFFF"></path>
                        <polygon id="Fill-31" fill="#FFFFFF" points="36.2812435 30.2034815 35.2271585 29.1526568 33.1189889 31.2543062 30.7260522 33.6398419 28.6178824 35.7414915 29.6719673 36.7923162"></polygon>
                        <path d="M49.5342361,48.5865238 L48.2922945,49.8246241 C47.2561007,50.8561269 45.8233207,51.4016045 44.3666856,51.2856719 C42.9070688,51.1831161 41.5652352,50.4563081 40.6855887,49.2895508 L33.5977252,39.8811762 L39.5659031,33.931457 L48.9960117,40.99294 C50.1678797,41.8683796 50.8999246,43.2090357 51.0027985,44.6656245 C51.1056723,46.1236997 50.5704298,47.5535347 49.5342361,48.5865238 Z M50.7866141,38.6148358 L41.3952696,31.5830792 C41.3237051,31.7272517 41.2402132,31.869938 41.1224301,31.9873569 L31.6461028,41.4328893 C31.5298105,41.5503081 31.3881725,41.6305692 31.2405708,41.7019122 L38.3015976,51.0746151 C39.7000865,52.9295363 41.8336019,54.0873758 44.1564651,54.2523568 C44.3458127,54.2642473 44.5351603,54.2716789 44.723017,54.2716789 C46.8460961,54.2716789 48.888665,53.4333972 50.4004642,51.9262737 L51.6424059,50.6881732 C53.2913702,49.045795 54.1411983,46.7732193 53.9771964,44.4560541 C53.8117036,42.1388889 52.6487811,40.0089994 50.7866141,38.6148358 Z" id="Fill-33" fill="#FFFFFF" fill-rule="nonzero"></path>
                        <path d="M41.1222811,31.9873569 C41.2400641,31.869938 41.3235561,31.7272517 41.3951205,31.5830792 L40.3216536,30.7789827 C40.1188876,30.6273786 39.8863031,30.5560354 39.6507368,30.5203638 L40.0681961,30.9365322 L30.5933597,40.3820644 L30.1759004,39.9658962 C30.2131736,40.200734 30.283247,40.4325991 30.4368124,40.6332517 L31.2419126,41.7019122 C31.3880235,41.6305692 31.5296614,41.5503081 31.6474446,41.4314029 L41.1222811,31.9873569 Z" id="Fill-35" fill="#FFFFFF"></path>
                    </g>
                </g>
            </g>
        </g>
    </g>
</svg>