<?xml version="1.0" encoding="UTF-8"?>
<svg width="125px" height="125px" viewBox="0 0 125 125" version="1.1" xmlns="http://www.w3.org/2000/svg" xmlns:xlink="http://www.w3.org/1999/xlink">
    <!-- Generator: Sketch 52.6 (67491) - http://www.bohemiancoding.com/sketch -->
    <title>Group 2</title>
    <desc>Created with Sketch.</desc>
    <defs>
        <linearGradient x1="-1.31197917%" y1="-2.84702819%" x2="100%" y2="100%" id="linearGradient-1">
            <stop stop-color="#2AFADF" offset="0%"></stop>
            <stop stop-color="#4C83FF" offset="100%"></stop>
        </linearGradient>
        <polygon id="path-2" points="0 0.391227096 67.8698278 0.391227096 67.8698278 29.6007819 0 29.6007819"></polygon>
    </defs>
    <g id="Page-1" stroke="none" stroke-width="1" fill="none" fill-rule="evenodd">
        <g id="index" transform="translate(-542.000000, -1629.000000)">
            <g id="Group-2" transform="translate(542.000000, 1629.000000)">
                <circle id="Oval-Copy" fill="url(#linearGradient-1)" cx="62.5" cy="62.5" r="62.5"></circle>
                <g id="rental-ico-w" transform="translate(28.374233, 29.141104)">
                    <g id="Group-3" transform="translate(0.000000, 35.276074)">
                        <g id="Fill-1-Clipped">
                            <mask id="mask-3" fill="white">
                                <use xlink:href="#path-2"></use>
                            </mask>
                            <g id="path-1"></g>
                            <path d="M3.58049588,15.6667343 L12.127253,25.8889074 L17.455428,22.3916793 C17.8072885,22.1606698 18.2298354,22.0820623 18.6413867,22.1751078 L27.2478344,24.1017917 C29.2333335,24.5445601 31.2345408,24.7065877 33.1980486,24.5942914 C36.041208,24.4226384 38.9456289,24.0055377 41.8327708,23.352615 C43.4899716,22.9788286 45.1188977,22.3836581 46.673996,21.5847501 L63.2727061,13.0630641 C63.9842813,12.6972989 64.4743729,12.1245877 64.6550156,11.4476014 C64.8105254,10.8620563 64.7147062,10.2700943 64.376983,9.7358847 C63.6528412,8.59367076 62.0317691,8.08673311 60.6007646,8.55035646 L54.2452823,10.6310468 C53.7473367,10.7946785 53.2022668,10.6920076 52.7938573,10.3631398 C52.382306,10.0326678 52.1608224,9.51450054 52.2000924,8.9834994 C52.228367,8.5086464 52.3398942,4.26544995 47.3840003,3.59969322 L26.0697297,3.59969322 C26.0571632,3.60129747 19.7975002,3.83391126 14.0923316,6.20015503 C9.70664044,8.01775108 5.2816791,13.4256208 3.58049588,15.6667343 M11.8240873,29.6011028 C11.3779783,29.6011028 10.9365818,29.4053863 10.6287038,29.0380169 L0.376051029,16.7736551 C-0.090478443,16.2169862 -0.126606988,15.4068486 0.286515069,14.8084696 C0.537844077,14.4443087 6.50533721,5.88251688 12.9095145,3.22590692 C19.1518987,0.638278985 25.7430019,0.399248263 26.0210347,0.391227096 L47.4829611,0.391227096 C47.5457934,0.391227096 47.6086256,0.39283133 47.6714579,0.400852495 C52.6446307,1.01848223 54.6065677,4.26063725 55.1673456,6.9605615 L59.6425728,5.4958967 C62.4228999,4.5879008 65.5221007,5.63706922 67.0143667,7.99368759 C67.83904,9.29632484 68.0778026,10.8219505 67.6866717,12.291428 C67.2751206,13.8347002 66.1802685,15.161401 64.6848609,15.9298285 L48.0861508,24.4531188 C46.2970024,25.3707401 44.4214597,26.0541434 42.5113592,26.4856822 C39.4624242,27.1755024 36.3914979,27.6150621 33.3834038,27.7979448 C31.1340092,27.9327004 28.8437736,27.7434009 26.5739585,27.234859 L18.6052582,25.4509518 L12.6723227,29.3444254 C12.4115689,29.5176826 12.1162573,29.6011028 11.8240873,29.6011028" id="Fill-1" fill="#FFFFFF" fill-rule="nonzero" mask="url(#mask-3)"></path>
                        </g>
                    </g>
                    <path d="M48.0033533,49.0797546 C47.6907779,49.0797546 47.4591806,49.0652005 47.3279962,49.0538806 L33.0612793,49.0538806 C32.1672815,49.0538806 31.4417178,48.3310273 31.4417178,47.4367591 C31.4417178,46.544108 32.1672815,45.8196375 33.0612793,45.8196375 L47.402496,45.8196375 C47.4656589,45.8196375 47.5288217,45.8228717 47.5919846,45.8309573 C47.6097998,45.8293403 50.6221842,46.118805 53.3867755,44.0375695 C54.1026216,43.5006851 55.1164672,43.6413748 55.6557812,44.3545253 C56.1934755,45.0692931 56.0509541,46.0816111 55.3367275,46.6201126 C52.4522886,48.7919069 49.4075131,49.0797546 48.0033533,49.0797546" id="Fill-4" fill="#FFFFFF"></path>
                    <path d="M34.1257668,3.26452824 C28.0108439,3.26452824 23.0355979,8.50899284 23.0355979,14.9531716 C23.0355979,21.3989825 28.0108439,26.6434471 34.1257668,26.6434471 C40.2406897,26.6434471 45.2159359,21.3989825 45.2159359,14.9531716 C45.2159359,8.50899284 40.2406897,3.26452824 34.1257668,3.26452824 M34.1257668,29.9079755 C26.3028774,29.9079755 19.9386503,23.19937 19.9386503,14.9531716 C19.9386503,6.70697325 26.3028774,0 34.1257668,0 C41.9486562,0 48.3128834,6.70697325 48.3128834,14.9531716 C48.3128834,23.19937 41.9486562,29.9079755 34.1257668,29.9079755" id="Fill-6" fill="#FFFFFF" fill-rule="nonzero"></path>
                    <path d="M36.8445712,21.4723926 C36.4365823,21.4723926 36.0285932,21.2954161 35.7316013,20.944681 L31.8302073,16.3272044 C31.5812141,16.0295621 31.4417178,15.6450406 31.4417178,15.2460391 L31.4417178,7.74384621 C31.4417178,6.8541373 32.1136997,6.13496933 32.9416771,6.13496933 C33.7711546,6.13496933 34.4416364,6.8541373 34.4416364,7.74384621 L34.4416364,14.6250126 L37.9560409,18.7823504 C38.5110259,19.4403811 38.4645272,20.4588002 37.8510439,21.0556934 C37.5630516,21.3340292 37.2030615,21.4723926 36.8445712,21.4723926" id="Fill-8" fill="#FFFFFF"></path>
                </g>
            </g>
        </g>
    </g>
</svg>