<?xml version="1.0" encoding="UTF-8"?>
<svg width="125px" height="125px" viewBox="0 0 125 125" version="1.1" xmlns="http://www.w3.org/2000/svg" xmlns:xlink="http://www.w3.org/1999/xlink">
    <!-- Generator: Sketch 52.6 (67491) - http://www.bohemiancoding.com/sketch -->
    <title>Group 4</title>
    <desc>Created with Sketch.</desc>
    <defs>
        <linearGradient x1="-1.31197917%" y1="-2.84702819%" x2="100%" y2="100%" id="linearGradient-1">
            <stop stop-color="#2AFADF" offset="0%"></stop>
            <stop stop-color="#4C83FF" offset="100%"></stop>
        </linearGradient>
        <polygon id="path-2" points="0.472728581 0.276650201 24.8851721 0.276650201 24.8851721 30.4999531 0.472728581 30.4999531"></polygon>
    </defs>
    <g id="Page-1" stroke="none" stroke-width="1" fill="none" fill-rule="evenodd">
        <g id="index" transform="translate(-773.000000, -1629.000000)">
            <g id="Group-4" transform="translate(773.000000, 1629.000000)">
                <circle id="Oval-Copy-2" fill="url(#linearGradient-1)" cx="62.5" cy="62.5" r="62.5"></circle>
                <g id="shopping-ico-w" transform="translate(34.509202, 28.208589)">
                    <path d="M3.26499446,58.0694786 L52.7166006,58.0694786 L52.7166006,31.9704507 C52.7166006,24.1848612 46.4118963,17.8507668 38.662432,17.8507668 L17.3191631,17.8507668 C9.56969878,17.8507668 3.26499446,24.1848612 3.26499446,31.9704507 L3.26499446,58.0694786 Z M54.3490979,61.3496933 L1.63249723,61.3496933 C0.73135876,61.3496933 0,60.6165653 0,59.7095859 L0,31.9704507 C0,22.3758229 7.76905433,14.5705521 17.3191631,14.5705521 L38.662432,14.5705521 C48.2125408,14.5705521 55.9815951,22.3758229 55.9815951,31.9704507 L55.9815951,59.7095859 C55.9815951,60.6165653 55.2518688,61.3496933 54.3490979,61.3496933 Z" id="Fill-1" fill="#FFFFFF" fill-rule="nonzero"></path>
                    <g id="Group-5" transform="translate(15.337423, 0.000000)">
                        <g id="Fill-3-Clipped">
                            <mask id="mask-3" fill="white">
                                <use xlink:href="#path-2"></use>
                            </mask>
                            <g id="path-1"></g>
                            <path d="M23.2424533,30.4999531 C22.3356726,30.4999531 21.5997346,29.764797 21.5997346,28.8553086 L21.5997346,12.4976745 C21.5997346,7.5736089 17.5980717,3.56561026 12.678129,3.56561026 C7.759829,3.56561026 3.7581661,7.5736089 3.7581661,12.4976745 L3.7581661,28.8553086 C3.7581661,29.764797 3.0222281,30.4999531 2.11544734,30.4999531 C1.20866659,30.4999531 0.472728581,29.764797 0.472728581,28.8553086 L0.472728581,12.4976745 C0.472728581,5.75792137 5.94791021,0.276321266 12.678129,0.276321266 C19.4099904,0.276321266 24.8851721,5.75792137 24.8851721,12.4976745 L24.8851721,28.8553086 C24.8851721,29.764797 24.1492341,30.4999531 23.2424533,30.4999531" id="Fill-3" fill="#FFFFFF" mask="url(#mask-3)"></path>
                        </g>
                    </g>
                </g>
            </g>
        </g>
    </g>
</svg>