<?xml version="1.0" encoding="UTF-8"?>
<svg width="182px" height="168px" viewBox="0 0 182 168" version="1.1" xmlns="http://www.w3.org/2000/svg" xmlns:xlink="http://www.w3.org/1999/xlink">
    <!-- Generator: Sketch 52.6 (67491) - http://www.bohemiancoding.com/sketch -->
    <title>Group 10</title>
    <desc>Created with Sketch.</desc>
    <defs>
        <polygon id="path-1" points="0 0.649172301 219.536437 0.649172301 219.536437 167 0 167"></polygon>
        <polygon id="path-3" points="0.897366667 0.160266667 12.2647 0.160266667 12.2647 151 0.897366667 151"></polygon>
        <polygon id="path-5" points="0 0.633233333 219.538125 0.633233333 219.538125 12 0 12"></polygon>
    </defs>
    <g id="Welcome" stroke="none" stroke-width="1" fill="none" fill-rule="evenodd" opacity="0.08">
        <g id="메인수정" transform="translate(-214.000000, -908.000000)">
            <g id="Group-10" transform="translate(214.000000, 907.500000)">
                <g id="Group-3">
                    <mask id="mask-2" fill="white">
                        <use xlink:href="#path-1"></use>
                    </mask>
                    <g id="Clip-2"></g>
                    <path d="M48.7108125,147.81104 C64.2808125,147.81104 84.2720625,149.78224 109.449562,155.56704 C118.860187,152.19584 164.349562,137.63024 208.286437,153.14224 L208.286437,22.60624 C195.371437,17.25824 145.950187,-0.46576 113.432062,26.83424 C111.446437,28.50304 108.577687,28.59824 106.485187,27.07504 C104.775187,25.83744 65.4283125,-1.76496 11.2483125,25.92144 L11.2483125,152.88464 C18.5214375,150.47104 30.6208125,147.81104 48.7108125,147.81104 M213.911437,167.00224 C213.135187,167.00224 212.358937,166.83984 211.627687,166.52064 C165.401437,146.06384 112.419562,166.39184 111.879562,166.61024 C110.816437,167.03024 109.657687,167.10864 108.532687,166.85104 C36.0095625,149.84384 8.9926875,165.89344 8.7339375,166.06704 C7.0014375,167.20944 4.7964375,167.31024 2.9626875,166.33584 C1.1345625,165.36144 -0.0016875,163.46304 -0.0016875,161.40224 L-0.0016875,22.55584 C-0.0016875,20.50624 1.1233125,18.61904 2.9289375,17.63904 C55.9220625,-11.13376 97.2095625,8.38784 109.466437,15.66784 C152.480812,-16.38096 213.725812,12.63264 216.375187,13.91504 C218.304562,14.85584 219.536437,16.80464 219.536437,18.94944 L219.536437,161.40224 C219.536437,163.30064 218.574562,165.06464 216.977062,166.10064 C216.048937,166.69424 214.985812,167.00224 213.911437,167.00224" id="Fill-1" fill="#009AFF" mask="url(#mask-2)"></path>
                </g>
                <g id="Group-6" transform="translate(103.000000, 17.000000)">
                    <mask id="mask-4" fill="white">
                        <use xlink:href="#path-3"></use>
                    </mask>
                    <g id="Clip-5"></g>
                    <path d="M6.56403333,151.000563 C3.43036667,151.000563 0.897366667,148.478489 0.897366667,145.370933 L0.931366667,5.7898963 C0.931366667,2.67671111 3.47003333,0.160266667 6.59803333,0.160266667 C9.7317,0.160266667 12.2647,2.68234074 12.2647,5.7898963 L12.2307,145.370933 C12.2307,148.484119 9.69203333,151.000563 6.56403333,151.000563" id="Fill-4" fill="#009AFF" mask="url(#mask-4)"></path>
                </g>
                <g id="Group-9" transform="translate(0.000000, 155.000000)">
                    <mask id="mask-6" fill="white">
                        <use xlink:href="#path-5"></use>
                    </mask>
                    <g id="Clip-8"></g>
                    <path d="M109.767375,12.0005667 L13.804875,11.9892333 C12.432375,11.9892333 11.18925,11.9892333 10.058625,11.9779 C7.38675,11.9779 5.896125,11.9835667 5.693625,11.9835667 L5.693625,11.8079 C1.362375,11.4169 -0.0045,10.1929 -0.0045,6.3169 C-0.0045,2.4409 1.362375,1.22256667 5.693625,0.8259 L5.693625,0.650233333 C5.896125,0.650233333 7.38675,0.6559 10.058625,0.6559 C11.18925,0.644566667 12.432375,0.644566667 13.804875,0.644566667 L109.767375,0.633233333 L205.7355,0.644566667 C207.102375,0.644566667 208.3455,0.644566667 209.476125,0.6559 C212.148,0.6559 213.638625,0.650233333 213.841125,0.650233333 L213.841125,0.8259 C218.172375,1.2169 219.53925,2.4409 219.53925,6.3169 C219.53925,10.1929 218.172375,11.4112333 213.841125,11.8079 L213.841125,11.9835667 C213.638625,11.9835667 212.148,11.9779 209.476125,11.9779 C208.3455,11.9892333 207.102375,11.9892333 205.7355,11.9892333 L109.767375,12.0005667 Z" id="Fill-7" fill="#009AFF" mask="url(#mask-6)"></path>
                </g>
            </g>
        </g>
    </g>
</svg>