<?xml version="1.0" encoding="UTF-8"?>
<svg width="161px" height="217px" viewBox="0 0 161 217" version="1.1" xmlns="http://www.w3.org/2000/svg" xmlns:xlink="http://www.w3.org/1999/xlink">
    <!-- Generator: Sketch 52.6 (67491) - http://www.bohemiancoding.com/sketch -->
    <title>Group 6</title>
    <desc>Created with Sketch.</desc>
    <defs>
        <polygon id="path-1" points="0 0.562480396 243.7995 0.562480396 243.7995 244 0 244"></polygon>
    </defs>
    <g id="Welcome" stroke="none" stroke-width="1" fill="none" fill-rule="evenodd" opacity="0.0712425595">
        <g id="메인수정" transform="translate(-368.000000, -915.000000)">
            <g id="Group-6" transform="translate(368.000000, 915.000000)">
                <path d="M167.774721,141.667763 C156.390775,167.471139 126.122177,179.203527 100.342191,167.796081 C74.5474393,156.393559 62.8288162,126.134534 74.2226055,100.336082 C85.6213166,74.5228596 115.870228,62.7904718 141.660057,74.207764 C154.136626,79.7170137 163.724143,89.7754561 168.665553,102.536828 C173.602041,115.293276 173.287051,129.191947 167.774721,141.667763 M145.641732,65.1979992 C114.880961,51.6095013 78.8096516,65.5869453 65.215852,96.3580001 C58.6453515,111.241344 58.2713005,127.813403 64.1576815,143.021689 C70.0489842,158.229976 81.487069,170.228225 96.3605167,176.805846 C104.348474,180.335901 112.695716,182 120.914994,182 C144.337475,182 166.726394,168.426272 176.781474,145.650768 C183.351975,130.762501 183.730948,114.190442 177.844567,98.9772323 C171.958186,83.7689462 160.515179,71.7706965 145.641732,65.1979992" id="Fill-1" fill="#009AFF"></path>
                <g id="Group-5">
                    <g>
                        <mask id="mask-2" fill="white">
                            <use xlink:href="#path-1"></use>
                        </mask>
                        <g id="Clip-4"></g>
                        <path d="M204.134,137.574858 C203.7224,139.80625 204.8984,142.027834 206.9711,142.949816 L229.663,152.97882 L215.4628,185.155003 L191.9134,174.743475 C189.9093,173.850918 187.5573,174.405088 186.1608,176.101927 C181.6185,181.584776 176.351,186.493838 170.5053,190.691798 C168.6923,191.996304 167.9867,194.360109 168.7903,196.44928 L177.919,220.04809 L145.1527,232.749861 L136.0191,209.15105 C135.2792,207.243333 133.4515,206.017293 131.4523,206.017293 C131.2612,206.017293 131.0701,206.027101 130.879,206.051622 C123.2007,206.944179 115.4195,206.777438 107.7314,205.521973 C105.5117,205.154161 103.3655,206.340968 102.4639,208.381097 L91.9828,232.131937 L59.829,217.919686 L70.3101,194.17375 C71.2117,192.128716 70.6237,189.740391 68.8744,188.352514 C63.2786,183.899539 58.3835,178.956147 54.3361,173.644943 C53.0082,171.913775 50.7052,171.261522 48.6668,172.051092 L24.5,181.418034 L11.809,148.619023 L34.7949,139.708167 C36.9313,138.879364 38.2102,136.682301 37.8721,134.41658 C36.7059,126.462035 36.6716,118.419215 37.7839,110.508808 C38.0877,108.34117 36.9166,106.227478 34.9125,105.344729 L11.3582,94.938105 L25.5633,62.7570174 L48.2454,72.7860214 C50.3083,73.703099 52.7534,73.0802709 54.1254,71.2657323 C59.1724,64.6156935 65.1847,58.7650325 71.9908,53.8706824 C73.8038,52.5661762 74.5094,50.1974677 73.7058,48.1132004 L64.5771,24.5143901 L97.3483,11.8126198 L106.477,35.4114301 C107.2855,37.5055057 109.4317,38.7805869 111.6171,38.5108582 C119.2954,37.6133972 127.0815,37.7801386 134.7696,39.0356032 C136.9844,39.3837984 139.1355,38.2117046 140.0371,36.1764788 L149.9743,13.646775 L182.133,27.8639303 L172.186,50.3887299 C171.2893,52.433764 171.8773,54.8220891 173.6217,56.2099659 C180.3837,61.5800194 186.2441,67.9210962 191.0461,75.0517426 C192.325,76.9496519 194.7456,77.7097964 196.882,76.8858978 L219.8679,67.975042 L232.5589,100.774053 L208.3921,110.140996 C206.3586,110.930566 205.0895,112.965791 205.2806,115.138333 C205.9127,122.425913 205.5256,129.973413 204.134,137.574858 Z M240.6684,108.149908 C243.1919,107.17398 244.4463,104.334472 243.4663,101.803927 L227.2375,59.8537556 C226.7671,58.6424285 225.8361,57.666501 224.6503,57.141756 C223.4547,56.6121069 222.1072,56.5875861 220.8969,57.0534812 L196.9065,66.3566697 C192.7513,60.7070792 187.9738,55.5479046 182.6524,50.9576123 L193.0747,27.3391853 C193.599,26.1474749 193.6284,24.7988313 193.1629,23.5875042 C192.6925,22.376177 191.7615,21.4002495 190.5708,20.8706004 L149.4549,2.69578931 C146.9657,1.6119703 144.0796,2.73011842 142.9869,5.20181426 L132.5695,28.8202412 C126.4788,28.0797133 120.344,27.9374927 114.2778,28.4033877 L104.7179,3.69623762 C103.7428,1.17059604 100.9057,-0.0848685149 98.3773,0.895963168 L56.4627,17.1385358 C55.2524,17.609335 54.2773,18.5460293 53.753,19.7328356 C53.2287,20.9245461 53.1944,22.2731897 53.6648,23.4845168 L63.2247,48.1867628 C57.8886,52.3602016 53.0425,57.078002 48.7403,62.2764099 L25.039,51.8011275 C23.8434,51.2714784 22.5008,51.2420535 21.2905,51.7128527 C20.0753,52.1836519 19.1002,53.115442 18.5759,54.3071525 L0.4165,95.4579457 C-0.1078,96.6496562 -0.1372,98.003204 0.3283,99.2145311 C0.7987,100.425858 1.7297,101.401786 2.9204,101.926531 L27.6311,112.852996 C27.0039,119.189168 27.0186,125.584191 27.685,131.944884 L3.6995,141.243169 C1.176,142.219096 -0.0784,145.058604 0.8967,147.58915 L17.1304,189.539321 C17.6008,190.750648 18.5318,191.726575 19.7176,192.25132 C20.9083,192.776065 22.2607,192.80549 23.471,192.339595 L48.8579,182.496949 C52.1311,186.42518 55.8061,190.142532 59.8486,193.609772 L48.8824,218.439526 C48.363,219.631237 48.3287,220.984785 48.7991,222.196112 C49.2695,223.407439 50.2005,224.383366 51.3863,224.913015 L92.5071,243.087827 C95.0012,244.17655 97.8775,243.058402 98.9702,240.581802 L109.9315,215.737335 C116.0124,216.477863 122.1423,216.620084 128.2183,216.154189 L137.7831,240.866243 C138.5328,242.813194 140.3899,244 142.3548,244 C142.9428,244 143.5406,243.897013 144.1237,243.671421 L186.0334,227.423945 C188.552,226.448017 189.8064,223.608509 188.8313,221.077964 L179.2714,196.370813 C183.6079,192.986944 187.621,189.240167 191.2666,185.184428 L215.9822,196.115797 C217.1729,196.640542 218.5253,196.669967 219.7356,196.199168 C220.9459,195.728369 221.921,194.796579 222.4453,193.609772 L240.6047,152.454075 C241.6974,149.972571 240.5753,147.079117 238.1057,145.98549 L214.3995,135.505303 C215.2472,129.610505 215.5412,123.745131 215.2864,117.98765 L240.6684,108.149908 Z" id="Fill-3" fill="#009AFF" mask="url(#mask-2)"></path>
                    </g>
                </g>
            </g>
        </g>
    </g>
</svg>