<?xml version="1.0" encoding="UTF-8"?>
<svg width="116px" height="174px" viewBox="0 0 116 174" version="1.1" xmlns="http://www.w3.org/2000/svg" xmlns:xlink="http://www.w3.org/1999/xlink">
    <!-- Generator: Sketch 52.6 (67491) - http://www.bohemiancoding.com/sketch -->
    <title>Group 12</title>
    <desc>Created with Sketch.</desc>
    <defs>
        <polygon id="path-1" points="0 205 191 205 191 0 0 0"></polygon>
    </defs>
    <g id="Welcome" stroke="none" stroke-width="1" fill="none" fill-rule="evenodd" opacity="0.0827752976">
        <g id="메인수정" transform="translate(-435.000000, -957.000000)">
            <g id="Group-12" transform="translate(435.000000, 957.000000)">
                <path d="M50.1602121,7.23268698 L129.679576,7.23268698 L129.679576,15.8836565 C129.679576,17.6059557 131.095351,19 132.839788,19 C134.584225,19 136,17.6059557 136,15.8836565 L136,4.11634349 C136,2.39404432 134.584225,1 132.839788,1 L50.1602121,1 C48.415775,1 47,2.39404432 47,4.11634349 C47,5.83864266 48.415775,7.23268698 50.1602121,7.23268698" id="Fill-1" fill="#009AFF"></path>
                <mask id="mask-2" fill="white">
                    <use xlink:href="#path-1"></use>
                </mask>
                <g id="Clip-4"></g>
                <path d="M6.30252101,25.6583432 L35.697479,25.6583432 L35.697479,6.34165676 L6.30252101,6.34165676 L6.30252101,25.6583432 Z M3.1512605,32 L38.8487395,32 C40.5882353,32 42,30.5815828 42,28.8291716 L42,3.17082838 C42,1.42053111 40.5882353,0 38.8487395,0 L3.1512605,0 C1.41176471,0 0,1.42053111 0,3.17082838 L0,28.8291716 C0,30.5815828 1.41176471,32 3.1512605,32 Z" id="Fill-3" fill="#009AFF" mask="url(#mask-2)"></path>
                <path d="M50.5290242,66.9909653 C49.5641998,68.4706009 49.9564219,70.4720819 51.401561,71.4577898 C52.8467001,72.4456452 54.7994208,72.046208 55.7642451,70.5644249 C59.2124436,65.2729559 70.3247034,62.9300205 74.5321767,62.4425353 L88.6794385,62.4425353 C91.2802694,60.0802724 94.063578,57.9284656 97,56 L74.3601863,56 C74.2511192,56 74.1420521,56.0064425 74.0308875,56.0171801 C72.2312803,56.2104562 56.2739241,58.1689869 50.5290242,66.9909653" id="Fill-5" fill="#009AFF" mask="url(#mask-2)"></path>
                <path d="M68.0759948,30.4329479 L28.7456462,50.0167252 C27.6752619,50.5491446 27,51.64555 27,52.8450721 L27,88.8433628 C27,90.5858265 28.4027887,92 30.1358913,92 L69.0272152,92 C69.6982959,89.845069 70.475997,87.7406442 71.351956,85.6867256 L33.2717826,85.6867256 L33.2717826,54.806396 L70.31084,36.363217 L136.10184,31.3020754 C137.82867,31.1694966 139.120658,29.6522063 138.991041,27.9139514 C138.855152,26.1756966 137.347834,24.8877886 135.625184,25.0077408 L69.2279123,30.1151798 C68.8265182,30.1467462 68.435577,30.2540718 68.0759948,30.4329479" id="Fill-6" fill="#009AFF" mask="url(#mask-2)"></path>
                <path d="M133.686109,198.689746 L6.31389056,198.689746 L6.31389056,124.155127 L67.6512327,124.155127 C67.26819,122.08326 66.9798557,119.979842 66.7925436,117.844873 L6.31389056,117.844873 L6.31389056,40.1551271 C6.31389056,38.4113935 4.9016837,37 3.15694528,37 C1.41431149,37 0,38.4113935 0,40.1551271 L0,121 L0,201.844873 C0,203.588606 1.41431149,205 3.15694528,205 L136.843055,205 C138.585689,205 140,203.588606 140,201.844873 L140,178.44645 C137.92273,178.652585 135.815995,178.757756 133.686109,178.770377 L133.686109,198.689746 Z" id="Fill-7" fill="#009AFF" mask="url(#mask-2)"></path>
                <path d="M26.1710162,147 C24.4206153,147 23,148.342 23,150 C23,151.658 24.4206153,153 26.1710162,153 L81,153 C79.4102639,151.082 77.9241143,149.084 76.5753754,147 L26.1710162,147 Z" id="Fill-8" fill="#009AFF" mask="url(#mask-2)"></path>
                <path d="M23,174 C23,175.658 24.4143485,177 26.1570278,177 L113.011072,177 C113.768759,177 114.454887,176.736 115,176.312 C110.216051,175.01 105.646779,173.228 101.36164,171 L26.1570278,171 C24.4143485,171 23,172.342 23,174" id="Fill-9" fill="#009AFF" mask="url(#mask-2)"></path>
                <path d="M87.4643128,86.0344056 C94.1091205,74.7584624 104.898251,66.1915112 117.741652,62.4161025 C122.422695,61.0375126 127.37315,60.2853641 132.498303,60.2853641 C134.729376,60.2853641 136.924667,60.4424982 139.082072,60.714864 C164.760455,63.9476362 184.684354,85.8102276 184.684354,112.231803 C184.684354,138.655474 164.760455,160.518065 139.082072,163.750837 C137.010963,164.012728 134.906178,164.161481 132.767716,164.171957 C132.67721,164.171957 132.588809,164.178242 132.498303,164.178242 C120.383158,164.178242 109.22569,160.036187 100.358229,153.113906 C97.9293062,151.215726 95.6687666,149.116415 93.6123912,146.828542 C87.9336799,140.509656 83.7893573,132.8038 81.7477154,124.293417 C81.2573004,122.240198 80.8826485,120.145076 80.6448078,118.008053 C80.4322244,116.109873 80.3143565,114.186551 80.3143565,112.231803 C80.3143565,105.18172 81.7371914,98.4563801 84.3071345,92.3197697 C85.2185066,90.1450337 86.2772137,88.0478172 87.4643128,86.0344056 Z M169.633033,167.415205 L167.16412,164.016918 L164.958305,160.978992 C164.901476,160.901472 164.834122,160.840714 164.770979,160.76948 C180.563184,150.32949 190.998711,132.474866 190.998711,112.231803 C190.998711,80.1240682 164.756245,54 132.498303,54 C127.08269,54 121.843879,54.7521486 116.863956,56.1307384 C115.348511,56.5497627 113.849904,57.0127845 112.384973,57.5491356 C108.823676,58.8481108 105.424447,60.4844006 102.227278,62.4161025 C92.8651923,68.0666448 85.2311354,76.2669498 80.2743655,86.0344056 C79.2577541,88.0373416 78.3400677,90.0968459 77.5570875,92.2233941 C77.5465635,92.2548209 77.5360396,92.2883429 77.5234109,92.3197697 C75.2439282,98.5359948 74,105.240383 74,112.231803 C74,114.182361 74.0989249,116.107778 74.2883556,118.008053 C74.5009389,120.138791 74.8313903,122.233912 75.2691856,124.293417 C77.0308911,132.590097 80.5732451,140.239385 85.4773953,146.828542 C87.1317567,149.049371 88.9397674,151.148682 90.8887987,153.113906 C101.503232,163.815786 116.232521,170.463606 132.498303,170.463606 C132.588809,170.463606 132.67721,170.457321 132.767716,170.457321 C134.901968,170.44894 137.006754,170.319043 139.082072,170.086484 C146.354106,169.271482 153.224126,167.121888 159.445872,163.893306 C159.542692,164.159386 159.666874,164.421276 159.841571,164.662215 L161.721145,167.251785 L164.215316,170.685689 L185.284218,199.696835 C185.903025,200.547454 186.867017,201 187.843637,201 C188.485597,201 189.133871,200.805154 189.691639,200.40289 C191.10395,199.386757 191.423878,197.421533 190.400952,196.015706 L169.633033,167.415205 Z" id="Fill-10" fill="#009AFF" mask="url(#mask-2)"></path>
                <path d="M105.604664,124.193657 C110.280837,134.67938 120.775358,142 133,142 C133.113796,142 133.219163,141.985249 133.332959,141.983142 C135.503512,141.959962 137.617168,141.696555 139.654959,141.232958 C153.017561,138.202718 163,126.277737 163,112.001054 C163,97.7222632 153.017561,85.7972816 139.654959,82.7670425 C137.617168,82.3055526 135.503512,82.0421452 133.332959,82.0168581 C133.219163,82.0147508 133.113796,82 133,82 C127.759062,82 122.83633,83.3507533 118.547907,85.7129913 C115.561815,87.3587609 112.906575,89.5123801 110.651728,92.0347698 C105.90812,97.3408492 103,104.3222 103,112.001054 C103,114.009272 103.204411,115.973238 103.581624,117.871879 C104.019949,120.078179 104.711155,122.189653 105.604664,124.193657" id="Fill-11" fill="#009AFF" mask="url(#mask-2)"></path>
            </g>
        </g>
    </g>
</svg>