<?xml version="1.0" encoding="UTF-8"?>
<svg width="163px" height="148px" viewBox="0 0 163 148" version="1.1" xmlns="http://www.w3.org/2000/svg" xmlns:xlink="http://www.w3.org/1999/xlink">
    <!-- Generator: Sketch 52.6 (67491) - http://www.bohemiancoding.com/sketch -->
    <title>Group 7</title>
    <desc>Created with Sketch.</desc>
    <g id="Welcome" stroke="none" stroke-width="1" fill="none" fill-rule="evenodd" opacity="0.07">
        <g id="메인수정" transform="translate(-370.000000, -950.000000)" fill="#009AFF">
            <g id="Group-7" transform="translate(370.000000, 950.000000)">
                <path d="M66.0890224,47.369311 L108.998863,47.369311 L122.757687,47.369311 L162.943437,47.369311 L151.943975,85.2205786 L113.228799,85.2205786 L81.1719058,85.2205786 L80.154442,82.6678885 L66.0890224,47.369311 Z M157.099125,99.0503774 C160.15423,99.0503774 162.84576,97.0240433 163.70043,94.0759044 L178.723622,42.3948379 C179.331387,40.3057774 178.924402,38.0503556 177.624761,36.3049265 C176.327834,34.5649518 174.28748,33.5395122 172.122317,33.5395122 L122.757687,33.5395122 L108.998863,33.5395122 L65.0905512,33.5395122 C63.6009842,33.5395122 62.2253731,34.0276869 61.0993799,34.8404023 L48.9440789,4.34448226 C47.8967695,1.71815683 45.370746,0 42.5571195,0 L6.87805533,0 C3.07952379,0 0,3.09813675 0,6.9135358 C0,10.7316621 3.07952379,13.8297988 6.87805533,13.8297988 L37.9039183,13.8297988 L65.3347425,82.6678885 L68.7941195,91.3513985 L66.2409636,96.5004145 L57.0539438,114.996509 C55.9903549,117.140114 56.1070241,119.684623 57.3605395,121.724593 C58.6140549,123.761836 60.8280562,125 63.2102781,125 L157.099125,125 C160.897656,125 163.979893,121.901863 163.979893,118.086464 C163.979893,114.265611 160.897656,111.170201 157.099125,111.170201 L74.3318358,111.170201 L80.3470818,99.0503774 L157.099125,99.0503774 Z" id="Fill-1"></path>
                <path d="M75.5,129 C70.2496432,129 66,133.251748 66,138.498644 C66,143.74554 70.2496432,148 75.5,148 C80.7476449,148 85,143.74554 85,138.498644 C85,133.251748 80.7476449,129 75.5,129" id="Fill-3"></path>
                <path d="M150.498644,129 C145.249037,129 141,133.251748 141,138.498644 C141,143.74554 145.249037,148 150.498644,148 C155.74554,148 160,143.74554 160,138.498644 C160,133.251748 155.74554,129 150.498644,129" id="Fill-5"></path>
            </g>
        </g>
    </g>
</svg>