<?xml version="1.0" encoding="UTF-8"?>
<svg width="52px" height="47px" viewBox="0 0 52 47" version="1.1" xmlns="http://www.w3.org/2000/svg" xmlns:xlink="http://www.w3.org/1999/xlink">
    <!-- Generator: Sketch 52.6 (67491) - http://www.bohemiancoding.com/sketch -->
    <title>Group 13</title>
    <desc>Created with Sketch.</desc>
    <defs>
        <polygon id="path-1" points="0.0869310417 0.322230567 41.7449678 0.322230567 41.7449678 32.8253968 0.0869310417 32.8253968"></polygon>
        <polygon id="path-3" points="0 0.115929932 51.8084464 0.115929932 51.8084464 13.1817161 0 13.1817161"></polygon>
        <polygon id="path-5" points="0.277464815 0.222093651 2.24631667 0.222093651 2.24631667 29.0952381 0.277464815 29.0952381"></polygon>
        <polygon id="path-7" points="0.0863973611 0.242808466 41.7455015 0.242808466 41.7455015 2.23809524 0.0863973611 2.23809524"></polygon>
    </defs>
    <g id="Symbols" stroke="none" stroke-width="1" fill="none" fill-rule="evenodd">
        <g id="edu-ico-w">
            <g id="Group-13">
                <g id="Group-3" transform="translate(4.682780, 14.174603)">
                    <mask id="mask-2" fill="white">
                        <use xlink:href="#path-1"></use>
                    </mask>
                    <g id="Clip-2"></g>
                    <path d="M9.33027826,29.07608 C12.2847338,29.07608 16.0781352,29.4612313 20.8556435,30.5915192 C22.6413387,29.9328229 31.273088,27.086861 39.6102456,30.1177393 L39.6102456,4.61240593 C37.1595845,3.56746413 27.7817498,0.104384762 21.6113352,5.43851175 C21.2345567,5.76457735 20.6902026,5.78317841 20.2931442,5.48556148 C19.9686665,5.24374772 12.5024755,-0.149464974 2.22165326,5.26016042 L2.22165326,30.067407 C3.60175118,29.5958154 5.89764493,29.07608 9.33027826,29.07608 M40.6776067,32.8258345 C40.5303109,32.8258345 40.3830151,32.7941033 40.2442581,32.731735 C31.4726845,28.7346959 21.4192102,32.7065689 21.3167435,32.7492419 C21.1150123,32.8313054 20.8951359,32.8466239 20.6816637,32.7962916 C6.92017687,29.4732673 1.79364146,32.6091869 1.74454285,32.6431065 C1.41579562,32.8663192 0.997390069,32.8860144 0.649430347,32.6956271 C0.302537986,32.5052398 0.0869310417,32.1343128 0.0869310417,31.7316546 L0.0869310417,4.60255831 C0.0869310417,4.20208847 0.300403264,3.83334984 0.643026181,3.64186836 C10.6986352,-1.98002794 18.5330658,1.83428317 20.8588456,3.25671704 C29.020956,-3.0052745 40.6423838,2.66367153 41.1451109,2.91423873 C41.5112158,3.09806095 41.7449678,3.47883556 41.7449678,3.89790646 L41.7449678,31.7316546 C41.7449678,32.1025816 41.5624491,32.4472483 41.2593185,32.6496715 C41.083204,32.7656546 40.8814727,32.8258345 40.6776067,32.8258345" id="Fill-1" fill="#FFFFFF" mask="url(#mask-2)"></path>
                </g>
                <g id="Group-6" transform="translate(0.266114, 0.000000)">
                    <mask id="mask-4" fill="white">
                        <use xlink:href="#path-3"></use>
                    </mask>
                    <g id="Clip-5"></g>
                    <path d="M50.7415165,13.1812906 C50.6049904,13.1812906 50.4652645,13.1551221 50.3319382,13.0973333 L25.1535431,2.39223687 L1.49720043,13.0875201 C0.958562387,13.3328498 0.32819589,13.0820684 0.0914084751,12.5314396 C-0.14751216,11.9808107 0.0967415249,11.3375018 0.634312954,11.0932625 L24.7098334,0.210438339 C24.9786191,0.0872283272 25.2815363,0.085047619 25.550322,0.200625153 L51.1510947,11.0845397 C51.6950658,11.3156947 51.9531854,11.9535519 51.7259975,12.5096325 C51.5564065,12.9294188 51.1596276,13.1812906 50.7415165,13.1812906" id="Fill-4" fill="#FFFFFF" mask="url(#mask-4)"></path>
                </g>
                <g id="Group-9" transform="translate(24.557780, 17.904762)">
                    <mask id="mask-6" fill="white">
                        <use xlink:href="#path-5"></use>
                    </mask>
                    <g id="Clip-8"></g>
                    <path d="M1.2589463,29.0953459 C0.716187037,29.0953459 0.277464815,28.6125804 0.277464815,28.0177444 L0.283353704,1.29969506 C0.283353704,0.703781481 0.723057407,0.222093651 1.26483519,0.222093651 C1.80759444,0.222093651 2.24631667,0.704859083 2.24631667,1.29969506 L2.24042778,28.0177444 C2.24042778,28.613658 1.80072407,29.0953459 1.2589463,29.0953459" id="Fill-7" fill="#FFFFFF" mask="url(#mask-6)"></path>
                </g>
                <g id="Group-12" transform="translate(4.682780, 44.761905)">
                    <mask id="mask-8" fill="white">
                        <use xlink:href="#path-7"></use>
                    </mask>
                    <g id="Clip-11"></g>
                    <path d="M20.9159494,2.23819471 L2.70676889,2.23620529 C2.44633278,2.23620529 2.21044597,2.23620529 1.99590639,2.23421587 C1.48890986,2.23421587 1.20605917,2.23521058 1.16763417,2.23521058 L1.16763417,2.2043746 C0.345766111,2.13573968 0.0863973611,1.92088254 0.0863973611,1.24050159 C0.0863973611,0.560120635 0.345766111,0.346258201 1.16763417,0.276628571 L1.16763417,0.245792593 C1.20605917,0.245792593 1.48890986,0.246787302 1.99590639,0.246787302 C2.21044597,0.244797884 2.44633278,0.244797884 2.70676889,0.244797884 L20.9159494,0.242808466 L39.1261974,0.244797884 C39.3855661,0.244797884 39.6214529,0.244797884 39.8359925,0.246787302 C40.342989,0.246787302 40.6258397,0.245792593 40.6642647,0.245792593 L40.6642647,0.276628571 C41.4861328,0.345263492 41.7455015,0.560120635 41.7455015,1.24050159 C41.7455015,1.92088254 41.4861328,2.13474497 40.6642647,2.2043746 L40.6642647,2.23521058 C40.6258397,2.23521058 40.342989,2.23421587 39.8359925,2.23421587 C39.6214529,2.23620529 39.3855661,2.23620529 39.1261974,2.23620529 L20.9159494,2.23819471 Z" id="Fill-10" fill="#FFFFFF" mask="url(#mask-8)"></path>
                </g>
            </g>
        </g>
    </g>
</svg>