<?xml version="1.0" encoding="UTF-8"?>
<svg width="53px" height="47px" viewBox="0 0 53 47" version="1.1" xmlns="http://www.w3.org/2000/svg" xmlns:xlink="http://www.w3.org/1999/xlink">
    <!-- Generator: Sketch 52.6 (67491) - http://www.bohemiancoding.com/sketch -->
    <title>Group 13</title>
    <desc>Created with Sketch.</desc>
    <defs>
        <polygon id="path-1" points="0.8289325 0.323944559 42.7851075 0.323944559 42.7851075 33 0.8289325 33"></polygon>
        <polygon id="path-3" points="0 0.114501904 52.5381429 0.114501904 52.5381429 13.0193434 0 13.0193434"></polygon>
        <polygon id="path-5" points="0.2827 0.221366667 2.2887 0.221366667 2.2887 29 0.2827 29"></polygon>
        <polygon id="path-7" points="0.828395 0.9941 42.785645 0.9941 42.785645 3 0.828395 3"></polygon>
    </defs>
    <g id="Symbols" stroke="none" stroke-width="1" fill="none" fill-rule="evenodd">
        <g id="edu-ico">
            <g id="Group-13">
                <g id="Group-3" transform="translate(4.000000, 14.000000)">
                    <mask id="mask-2" fill="white">
                        <use xlink:href="#path-1"></use>
                    </mask>
                    <g id="Clip-2"></g>
                    <path d="M10.1384325,29.23074 C13.1140325,29.23074 16.9345825,29.61794 21.7462825,30.75424 C23.5447575,30.09204 32.2382825,27.23094 40.6351075,30.27794 L40.6351075,4.63694 C38.1669075,3.58644 28.7219575,0.10494 22.5073825,5.46744 C22.1279075,5.79524 21.5796575,5.81394 21.1797575,5.51474 C20.8529575,5.27164 13.3333325,-0.15026 2.9789325,5.28814 L2.9789325,30.22734 C4.3689075,29.75324 6.6812325,29.23074 10.1384325,29.23074 M41.7101075,33.00044 C41.5617575,33.00044 41.4134075,32.96854 41.2736575,32.90584 C32.4393075,28.88754 22.3138825,32.88054 22.2106825,32.92344 C22.0075075,33.00594 21.7860575,33.02134 21.5710575,32.97074 C7.7110825,29.63004 2.5478575,32.78264 2.4984075,32.81674 C2.1673075,33.04114 1.7459075,33.06094 1.3954575,32.86954 C1.0460825,32.67814 0.8289325,32.30524 0.8289325,31.90044 L0.8289325,4.62704 C0.8289325,4.22444 1.0439325,3.85374 1.3890075,3.66124 C11.5165825,-1.99056 19.4070825,1.84404 21.7495075,3.27404 C29.9700325,-3.02126 41.6746325,2.67784 42.1809575,2.92974 C42.5496825,3.11454 42.7851075,3.49734 42.7851075,3.91864 L42.7851075,31.90044 C42.7851075,32.27334 42.6012825,32.61984 42.2959825,32.82334 C42.1186075,32.93994 41.9154325,33.00044 41.7101075,33.00044" id="Fill-1" fill="#009AFF" mask="url(#mask-2)"></path>
                </g>
                <g id="Group-6">
                    <mask id="mask-4" fill="white">
                        <use xlink:href="#path-3"></use>
                    </mask>
                    <g id="Clip-5"></g>
                    <path d="M51.4561857,13.0189231 C51.3177367,13.0189231 51.1760429,12.9930769 51.0408388,12.936 L25.5078184,2.36276923 L1.51828776,12.9263077 C0.972063265,13.1686154 0.332818367,12.9209231 0.0926959184,12.3770769 C-0.149589796,11.8332308 0.0981040816,11.1978462 0.643246939,10.9566154 L25.0578592,0.207846154 C25.3304306,0.0861538462 25.6376143,0.084 25.9101857,0.198153846 L51.8715327,10.948 C52.4231653,11.1763077 52.6849204,11.8063077 52.4545327,12.3555385 C52.2825531,12.7701538 51.8801857,13.0189231 51.4561857,13.0189231" id="Fill-4" fill="#009AFF" mask="url(#mask-4)"></path>
                </g>
                <g id="Group-9" transform="translate(25.000000, 18.000000)">
                    <mask id="mask-6" fill="white">
                        <use xlink:href="#path-5"></use>
                    </mask>
                    <g id="Clip-8"></g>
                    <path d="M1.2827,29.0001074 C0.7297,29.0001074 0.2827,28.5189222 0.2827,27.9260333 L0.2887,1.29544074 C0.2887,0.701477778 0.7367,0.221366667 1.2887,0.221366667 C1.8417,0.221366667 2.2887,0.702551852 2.2887,1.29544074 L2.2827,27.9260333 C2.2827,28.5199963 1.8347,29.0001074 1.2827,29.0001074" id="Fill-7" fill="#009AFF" mask="url(#mask-6)"></path>
                </g>
                <g id="Group-12" transform="translate(4.000000, 44.000000)">
                    <mask id="mask-8" fill="white">
                        <use xlink:href="#path-7"></use>
                    </mask>
                    <g id="Clip-11"></g>
                    <path d="M21.80702,3.0001 L3.46752,2.9981 C3.20522,2.9981 2.967645,2.9981 2.75157,2.9961 C2.240945,2.9961 1.95607,2.9971 1.91737,2.9971 L1.91737,2.9661 C1.08962,2.8971 0.828395,2.6811 0.828395,1.9971 C0.828395,1.3131 1.08962,1.0981 1.91737,1.0281 L1.91737,0.9971 C1.95607,0.9971 2.240945,0.9981 2.75157,0.9981 C2.967645,0.9961 3.20522,0.9961 3.46752,0.9961 L21.80702,0.9941 L40.147595,0.9961 C40.40882,0.9961 40.646395,0.9961 40.86247,0.9981 C41.373095,0.9981 41.65797,0.9971 41.69667,0.9971 L41.69667,1.0281 C42.52442,1.0971 42.785645,1.3131 42.785645,1.9971 C42.785645,2.6811 42.52442,2.8961 41.69667,2.9661 L41.69667,2.9971 C41.65797,2.9971 41.373095,2.9961 40.86247,2.9961 C40.646395,2.9981 40.40882,2.9981 40.147595,2.9981 L21.80702,3.0001 Z" id="Fill-10" fill="#009AFF" mask="url(#mask-8)"></path>
                </g>
            </g>
        </g>
    </g>
</svg>