<?xml version="1.0" encoding="UTF-8"?>
<svg width="36px" height="38px" viewBox="0 0 36 38" version="1.1" xmlns="http://www.w3.org/2000/svg" xmlns:xlink="http://www.w3.org/1999/xlink">
    <!-- Generator: Sketch 52.6 (67491) - http://www.bohemiancoding.com/sketch -->
    <title>Group 59</title>
    <desc>Created with Sketch.</desc>
    <defs>
        <polygon id="path-1" points="0 0.0174350696 35.9999763 0.0174350696 35.9999763 36.0042699 0 36.0042699"></polygon>
        <path d="M0.0157231388,10.8415863 C0.0587830986,10.8356188 0.0737915493,10.8340817 0.088621328,10.8318213 C1.17521529,10.6647314 2.26457867,10.5994506 3.3565328,10.7726889 C4.07541972,10.8868851 4.74874527,11.1199791 5.34068571,11.566366 C5.54472918,11.7202551 5.76029698,11.8604009 5.97925956,11.9922283 C6.7510334,12.4569698 7.5623831,12.8085096 8.47664789,12.846575 C8.7736008,12.8589621 9.0665336,12.8321083 9.3540169,12.7413301 C9.34767404,12.7293951 9.34704869,12.724603 9.34392193,12.7225234 C9.32819879,12.7116734 9.31202897,12.700733 9.29559115,12.6903351 C7.95197746,11.8475617 7.07898592,10.6399573 6.60077022,9.12665419 C6.33901569,8.29907082 6.20009819,7.44861204 6.13247082,6.58431951 C6.06457545,5.71722407 6.04215211,4.84967655 6.11996378,3.98258111 C6.22511227,2.81376539 6.4747171,1.67433507 6.82187686,0.555610164 C6.87235171,0.393402738 6.9241666,0.231556978 6.97553481,0.0696208017 C6.96820926,0.0660041367 6.96115171,0.0624778883 6.95364748,0.0590420565 C4.64493682,3.64704501 2.33622616,7.23504797 0.0157231388,10.8415863" id="path-3"></path>
        <linearGradient x1="49.9998486%" y1="-42.1542656%" x2="49.9998486%" y2="105.798354%" id="linearGradient-5">
            <stop stop-color="#3BF7DF" offset="0%"></stop>
            <stop stop-color="#4B85FD" offset="100%"></stop>
        </linearGradient>
        <path d="M2.43628249,0.183997833 C2.59297787,0.731560918 2.76450302,1.2753265 2.90288451,1.82777209 C3.13837425,2.77027499 3.27961449,3.72932414 3.30739799,4.70220703 C3.33089336,5.53223166 3.29649899,6.36044795 3.19751469,7.18522841 C3.09951308,8.00322762 2.93120402,8.80413809 2.63693119,9.57448774 C2.29486358,10.4702452 1.80574889,11.2713366 1.09936901,11.9184483 C0.774007243,12.2166424 0.414608451,12.4764093 0.0701287726,12.7536267 C0.0732555332,12.7546213 0.094338833,12.763663 0.116136821,12.7689071 C0.651170221,12.90191 1.18271952,12.8614033 1.71069537,12.727858 C2.5719839,12.5106772 3.33151871,12.0818312 4.04424145,11.5616643 C4.45715252,11.2602153 4.90642334,11.0432154 5.39589537,10.90967 C6.43514125,10.6261235 7.49046761,10.6337185 8.55008209,10.7360701 C8.81424869,10.7615676 9.07671791,10.8010797 9.35857304,10.8364326 C7.04182213,7.23586172 4.73400483,3.64867251 2.42574085,0.0616641387 C2.41510986,0.1103987 2.42574085,0.147017433 2.43628249,0.183997833" id="path-6"></path>
        <linearGradient x1="50.000143%" y1="-42.1797383%" x2="50.000143%" y2="105.7888%" id="linearGradient-8">
            <stop stop-color="#3BF7DF" offset="0%"></stop>
            <stop stop-color="#4B85FD" offset="100%"></stop>
        </linearGradient>
        <path d="M0.101700239,0.0759240661 C0.767705023,0.730317208 1.50178262,1.29238457 2.38027638,1.65710227 C2.95685039,1.89624985 3.55478235,2.02552358 4.18488759,1.94439682 C4.37283763,1.92014697 4.55797024,1.87288181 4.76873239,1.83143662 C4.71356524,1.72993999 4.68584534,1.64687324 4.63167792,1.58576363 C4.42446027,1.3519951 4.21088068,1.12360563 3.99539251,0.896891611 C3.90541642,0.802096754 3.81825777,0.683933864 3.70374276,0.63684507 C3.62094659,0.603071647 3.52279086,0.605099816 3.42463513,0.607216167 C3.38255541,0.608097979 3.3403848,0.608979792 3.29948658,0.606951623 C3.26813128,0.605452541 3.23650332,0.60606981 3.20487537,0.605452541 C2.40817805,0.586758114 1.620751,0.499282303 0.850773851,0.292409063 C0.595114536,0.223539498 0.344726548,0.135534599 0.0903396226,0.0559069198 C0.0946112145,0.0638432333 0.0970651076,0.0713386405 0.101700239,0.0759240661" id="path-9"></path>
        <linearGradient x1="50.0005527%" y1="-349.048834%" x2="50.0005527%" y2="417.246381%" id="linearGradient-11">
            <stop stop-color="#3BF7DF" offset="0%"></stop>
            <stop stop-color="#4B85FD" offset="100%"></stop>
        </linearGradient>
        <path d="M0.00262910798,0.579459818 C0.257183099,0.880642916 0.509953052,1.17932063 0.769671362,1.48676719 C1.26723005,1.21117481 2.31962441,0.328473902 2.45239437,0.0629030655 C1.65521127,0.363012428 0.830328638,0.509130075 0.00262910798,0.579459818" id="path-12"></path>
        <linearGradient x1="50.0015132%" y1="-476.13135%" x2="50.0015132%" y2="568.229537%" id="linearGradient-14">
            <stop stop-color="#3BF7DF" offset="0%"></stop>
            <stop stop-color="#4B85FD" offset="100%"></stop>
        </linearGradient>
        <path d="M0.0197022133,0.758112676 C0.0227444668,1.09250704 0.206293763,1.37661972 0.469810865,1.43695775 C0.359637827,0.973183099 0.343847082,0.508140845 0.409979879,0.0363380282 C0.18738833,0.0967605634 0.0167323944,0.420169014 0.0197022133,0.758112676" id="path-15"></path>
        <linearGradient x1="50.0007678%" y1="-202.147237%" x2="50.0007678%" y2="800.654875%" id="linearGradient-17">
            <stop stop-color="#3BF7DF" offset="0%"></stop>
            <stop stop-color="#4B85FD" offset="100%"></stop>
        </linearGradient>
        <path d="M0.0130140845,1.50743662 C0.280478873,1.3998169 0.440197183,1.11432042 0.441549296,0.763035211 C0.442478873,0.414411972 0.291633803,0.0846126761 0.0896619718,0.00342253521 C0.150929577,0.505869718 0.137239437,1.00194718 0.0130140845,1.50743662" id="path-18"></path>
        <linearGradient x1="50.0015858%" y1="-215.627841%" x2="50.0015858%" y2="835.035659%" id="linearGradient-20">
            <stop stop-color="#3BF7DF" offset="0%"></stop>
            <stop stop-color="#4B85FD" offset="100%"></stop>
        </linearGradient>
        <path d="M1.97339034,0.140253521 C1.57083501,0.172478873 1.17570423,0.251028169 0.802394366,0.420394366 C0.285482897,0.655401408 0.0385714286,1.05904225 0.0361267606,1.62948592 C0.0335915493,2.20469014 0.27832998,2.61428169 0.799315895,2.85276761 C1.10562374,2.99302113 1.42813883,3.0813662 1.7604326,3.10626761 C2.43126761,3.15661972 3.10400402,3.1853662 3.57229376,3.21164085 C4.30207243,3.18966901 4.82722334,3.18225352 5.3510161,3.15515493 C5.80128773,3.13171831 6.24730382,3.06671831 6.67104628,2.89588732 C6.98477867,2.76945775 7.25160966,2.58553521 7.40598592,2.26703521 C7.75928571,1.53885211 7.45397384,0.710514085 6.71794769,0.39778169 C6.28189135,0.212485915 5.82093561,0.141169014 5.35490946,0.119471831 C4.79996982,0.093471831 4.24475855,0.0762605634 3.68945674,0.0763521127 C3.11731388,0.0763521127 2.54508048,0.0945704225 1.97339034,0.140253521" id="path-21"></path>
        <linearGradient x1="0.338748072%" y1="49.9990825%" x2="166.506343%" y2="49.9990825%" id="linearGradient-23">
            <stop stop-color="#3BF7DF" offset="0%"></stop>
            <stop stop-color="#4B85FD" offset="100%"></stop>
        </linearGradient>
        <polygon id="path-24" points="0 37.2676056 36 37.2676056 36 0.0329362616 0 0.0329362616"></polygon>
    </defs>
    <g id="Welcome" stroke="none" stroke-width="1" fill="none" fill-rule="evenodd">
        <g id="메인수정" transform="translate(-32.000000, -4.000000)">
            <g id="Group-59" transform="translate(32.000000, 4.000000)">
                <g id="Group-12">
                    <path d="M32.590557,14.6367844 C32.590557,6.57119026 26.069337,0.0329362616 18.025137,0.0329362616 C9.981117,0.0329362616 3.459717,6.57119026 3.459717,14.6367844 C3.459717,22.7022884 9.981117,29.2402717 18.025137,29.2402717 C26.069337,29.2402717 32.590557,22.7022884 32.590557,14.6367844" id="Fill-1" fill="#3399FD"></path>
                    <path d="M17.986698,33.3783655 C18.018018,33.5268945 18.042318,33.6491648 18.069768,33.7708936 C18.225738,34.4546143 18.439938,35.116949 18.804078,35.7214422 C19.115658,36.2393987 19.512108,36.6728038 20.068218,36.934038 C21.099078,37.4184266 22.435308,37.1641407 23.280498,36.3336054 C23.820408,35.8031963 24.181668,35.1618867 24.449958,34.4636379 C24.916338,33.249508 25.110378,31.9797024 25.200018,30.6898642 C25.215588,30.4667098 25.223598,30.2429237 25.235298,30.0176938 C25.260318,30.0197692 25.272108,30.0185961 25.282638,30.0222958 C26.029278,30.2762209 26.778348,30.230471 27.525528,30.0305073 C28.425798,29.7896666 29.227608,29.3457038 29.975418,28.8008568 C30.363228,28.5182366 30.788118,28.3272965 31.249728,28.2127866 C32.275368,27.9583202 33.311898,27.9847594 34.349238,28.1106391 C34.746858,28.1589155 35.140068,28.2402185 35.534988,28.3093395 C35.665578,28.3322595 35.777538,28.306091 35.854938,28.1946491 C35.934768,28.079688 35.927118,27.9603956 35.847918,27.8454345 C35.830368,27.8197172 35.814438,27.7928267 35.797428,27.7667484 C35.457498,27.2433777 35.117388,26.7200972 34.777278,26.1968167 C32.517018,22.7164916 30.257028,19.2360762 27.996678,15.7557511 C27.519138,15.0202347 27.040878,14.2845379 26.562978,13.5486606 C26.735238,13.3381392 26.910828,13.1342953 27.074538,12.9213376 C28.023228,11.6898824 28.806138,10.3565503 29.476998,8.95608241 C29.888208,8.09721299 30.248388,7.21804039 30.473478,6.28842569 C30.768138,5.07032542 30.641598,3.89743356 30.061098,2.78833879 C29.643138,1.98929606 29.013228,1.45762359 28.075878,1.38074223 C27.530478,1.33616548 27.052758,1.48992819 26.661528,1.88435121 C26.301168,2.24809386 26.091828,2.69918529 25.930278,3.17563313 C25.697808,3.86197069 25.575318,4.57438654 25.461288,5.28671215 C25.378308,5.8024128 25.194798,6.27001747 24.895458,6.69439895 C24.876828,6.72047725 24.855048,6.74411917 24.824088,6.78246961 C24.806808,6.67427625 24.797268,6.5854837 24.777738,6.49894705 C24.639948,5.89165653 24.184188,5.5128444 23.730408,5.46646293 C23.695038,5.46285347 23.649678,5.42170571 23.633658,5.38651354 C23.350158,4.75765653 22.897998,4.27877231 22.325418,3.91024712 C21.440358,3.34058515 20.450358,3.08666011 19.420038,2.96556295 C18.530568,2.86097904 17.640648,2.86278377 16.750728,2.96267539 C15.909768,3.05715283 15.093648,3.24728078 14.329818,3.6218518 C13.599918,3.97981934 12.983688,4.4699831 12.605328,5.2091089 C12.518658,5.37884345 12.437658,5.5056255 12.228048,5.48117145 C12.221208,5.48026909 12.213378,5.48541256 12.205908,5.48739776 C11.717388,5.61535288 11.436588,5.95040038 11.292048,6.41656128 C11.259558,6.52060377 11.246058,6.63060186 11.220768,6.75341351 C10.932678,6.38930991 10.687788,6.02466488 10.603908,5.57068589 C10.494738,4.98008909 10.385838,4.38895087 10.254708,3.80295612 C10.127268,3.23392581 9.942858,2.68267205 9.606888,2.19611774 C9.141228,1.52087926 8.499258,1.26794681 7.699608,1.40618888 C7.021638,1.52349611 6.515748,1.90582745 6.137928,2.4647513 C5.617368,3.23527935 5.410008,4.1031724 5.384718,5.02177828 C5.364738,5.72724593 5.536638,6.39977732 5.757768,7.06066823 C6.166728,8.28237794 6.733188,9.43189859 7.374078,10.5455954 C7.966638,11.5752822 8.613558,12.5679721 9.401688,13.4609509 C9.464958,13.5328692 9.419688,13.5715806 9.387558,13.6208497 C8.746128,14.608757 8.103978,15.5962132 7.462368,16.5841206 C5.363388,19.8156642 3.264228,23.0474784 1.165608,26.279022 C0.829908,26.7958055 0.493848,27.3123183 0.158508,27.8294627 C0.054558,27.9896322 0.068148,28.1458313 0.192528,28.2508664 C0.289818,28.3329814 0.399078,28.3224238 0.513468,28.2986014 C1.717938,28.048376 2.930958,27.9295348 4.157658,28.0976451 C4.836438,28.190769 5.475708,28.390101 6.035688,28.8106023 C6.494598,29.154854 6.989148,29.4447833 7.512138,29.6822853 C8.199918,29.9946835 8.914428,30.2054756 9.676368,30.1909475 C9.977058,30.1851724 10.277028,30.131572 10.580418,30.0992674 C10.581228,30.1118103 10.585458,30.1427613 10.586268,30.1737124 C10.624518,31.2769418 10.755648,32.3678088 11.033298,33.4378313 C11.239938,34.2347986 11.522808,35.001266 11.990448,35.6867012 C12.541068,36.4938652 13.264488,37.0399755 14.259798,37.1534928 C15.256278,37.2671905 16.094808,36.9519048 16.754778,36.1896785 C17.268318,35.5968258 17.568918,34.8925312 17.786088,34.1482619 C17.857908,33.9021874 17.915778,33.6517816 17.986698,33.3783655" id="Fill-3" fill="#FFFFFF"></path>
                    <path d="M23.773896,7.56680382 C24.058656,7.46474653 24.228846,7.19367658 24.230196,6.86025333 C24.231186,6.5293567 24.070626,6.21641709 23.855436,6.13935526 C23.920776,6.61625429 23.906196,7.08710747 23.773896,7.56680382 M12.299436,6.08458181 C12.022776,6.14919102 11.810826,6.49443524 11.814516,6.85529033 C11.818296,7.2123555 12.046356,7.51582029 12.373776,7.5801588 C12.236796,7.0849418 12.217176,6.58846149 12.299436,6.08458181 M19.817676,11.3350731 C20.294676,11.0572354 21.303396,10.1669638 21.430656,9.89923256 C20.666556,10.201795 19.875816,10.3491509 19.082556,10.4201669 C19.326546,10.7238122 19.568736,11.0251113 19.817676,11.3350731 M14.669496,9.89300625 C14.673726,9.90112752 14.676156,9.90870738 14.680656,9.9134899 C15.340176,10.5830435 16.067196,11.1583001 16.937136,11.5315176 C17.508006,11.7761483 18.100206,11.9084348 18.724176,11.8254173 C18.910296,11.8006926 19.093536,11.7523259 19.302246,11.7099148 C19.247706,11.6060528 19.220256,11.5209599 19.166616,11.4584262 C18.961326,11.2192999 18.749916,10.9855878 18.536526,10.7534999 C18.447336,10.6564959 18.361026,10.5355792 18.247716,10.4874832 C18.130626,10.4379435 17.982306,10.4635706 17.847396,10.4568029 C17.816256,10.4553591 17.785026,10.4559907 17.753706,10.4553591 C16.964676,10.436229 16.184916,10.3467145 15.422526,10.1350201 C15.169356,10.0645455 14.921316,9.97448966 14.669496,9.89300625 M18.263916,3.47602989 C17.253126,3.47584942 16.441236,3.55029439 15.645816,3.76207906 C14.942736,3.94940969 14.284296,4.22860091 13.729176,4.71515522 C12.733326,5.58756009 12.538386,7.05020081 13.277646,8.12762263 C13.632876,8.64485729 14.128866,8.98874796 14.689206,9.24691411 C15.404166,9.5764572 16.162506,9.73897283 16.941276,9.81621513 C18.056376,9.92666441 19.164906,9.89201365 20.261556,9.64503681 C20.997036,9.47927267 21.690576,9.21253407 22.290966,8.73951521 C23.514786,7.77561069 23.665806,6.03468112 22.618386,4.91223137 C22.140306,4.3999597 21.536226,4.09243428 20.881026,3.87595732 C19.969506,3.57474844 19.028286,3.4782858 18.263916,3.47602989 M24.648606,29.9843966 C22.623876,30.8143904 20.510316,30.975011 18.369126,31.0233777 C18.369126,31.1132531 18.368226,31.1900442 18.369126,31.2669256 C18.382356,32.1839072 18.488646,33.0889776 18.724536,33.976091 C18.891666,34.6054894 19.120086,35.2099826 19.521036,35.7330826 C20.029986,36.3971318 20.697876,36.6774961 21.529746,36.5656933 C22.241646,36.4698623 22.779126,36.0908697 23.205546,35.5349237 C23.686146,34.9085933 23.963256,34.1856198 24.172686,33.4330487 C24.419736,32.5460256 24.545196,31.6387895 24.612156,30.7222591 C24.629526,30.4827718 24.636276,30.2423822 24.648606,29.9843966 M11.168676,29.8911824 C11.168676,29.9779898 11.164266,30.0445842 11.169576,30.1100958 C11.216376,30.6818332 11.247696,31.2554656 11.316996,31.8243154 C11.416536,32.6431199 11.598246,33.4455916 11.895336,34.2179244 C12.134286,34.8384796 12.444786,35.4130144 12.919356,35.8915376 C13.806396,36.7855992 15.504066,36.9584018 16.463196,35.6182118 C16.756596,35.2078169 16.969086,34.7591619 17.129466,34.2839774 C17.427186,33.4016465 17.564706,32.488906 17.622756,31.5625398 C17.633916,31.3886544 17.624376,31.2135959 17.624376,31.0237386 C15.429276,30.971582 13.242546,30.8033815 11.168676,29.8911824 M25.630686,29.5120996 C25.633836,29.5131824 25.654986,29.5222061 25.677036,29.5273495 C26.216046,29.6601774 26.751546,29.6197515 27.283356,29.4864725 C28.151046,29.2697248 28.916316,28.8417339 29.634336,28.3226042 C30.050226,28.0217563 30.502926,27.8051891 30.996036,27.6719101 C32.042916,27.3889289 33.106086,27.3964185 34.173666,27.4986563 C34.439796,27.5241029 34.704216,27.5635362 34.988166,27.5987284 C32.654196,24.0054274 30.329136,20.4253008 28.003806,16.845445 C27.993006,16.8941726 28.003806,16.9307184 28.014426,16.967625 C28.172286,17.514006 28.345086,18.0567776 28.484496,18.6080313 C28.721736,19.5486549 28.864026,20.5058819 28.891926,21.4767346 C28.915596,22.3051041 28.880946,23.1316689 28.781316,23.954895 C28.682586,24.7712631 28.512936,25.5705766 28.216476,26.3393901 C27.871956,27.2333615 27.379206,28.0328554 26.667486,28.6786768 C26.339796,28.9762762 25.977636,29.2355252 25.630686,29.5120996 M8.017326,16.8533858 C8.009946,16.8498666 8.002836,16.8462571 7.995366,16.8428282 C5.669406,20.4236766 3.343626,24.0046152 1.005786,27.6039621 C1.049166,27.5980065 1.064376,27.5964725 1.079226,27.5941263 C2.173896,27.4273696 3.271356,27.362219 4.371516,27.5351118 C5.095656,27.6491705 5.773986,27.8817998 6.370416,28.3272965 C6.575976,28.4808788 6.793056,28.6206549 7.013736,28.7522194 C7.791246,29.2161244 8.608626,29.5669633 9.529686,29.6049528 C9.828756,29.6172249 10.123866,29.5904247 10.413486,29.4998275 C10.407096,29.4880065 10.406466,29.483224 10.403406,29.4810583 C10.387476,29.4702299 10.371276,29.4593113 10.354716,29.4490244 C9.001116,28.6079315 8.121546,27.4026448 7.639866,25.8923593 C7.376076,25.0665164 7.236216,24.2176632 7.167996,23.3551843 C7.099686,22.4898179 7.077006,21.6239101 7.155486,20.7585436 C7.261416,19.5920585 7.512876,18.4549003 7.862616,17.3384061 C7.913466,17.1765221 7.965576,17.0149991 8.017326,16.8533858 M18.007146,30.4293519 C18.178506,30.4293519 18.349686,30.4313371 18.521136,30.428991 C19.581336,30.4152751 20.637036,30.3464247 21.685446,30.1823751 C22.626576,30.0351094 23.546646,29.8117745 24.425946,29.435128 C25.960446,28.7778466 27.069966,27.7029513 27.671346,26.125891 C28.067616,25.0861879 28.224576,24.0005546 28.286586,22.8972349 C28.335276,22.0262739 28.327896,21.1567566 28.209906,20.2907585 C28.052406,19.1342896 27.762066,18.010757 27.374886,16.9116785 C26.980686,15.7916651 26.513946,14.7039564 25.931646,13.667953 C25.835526,13.4970454 25.870536,13.3484262 26.030106,13.2301263 C26.064486,13.2046797 26.097426,13.1758943 26.124516,13.1434092 C26.305056,12.9281956 26.491446,12.7174937 26.661546,12.4943393 C27.473706,11.4309943 28.158336,10.2880609 28.757376,9.09306116 C29.236896,8.13637556 29.663136,7.15749181 29.913246,6.11192342 C30.174786,5.01807859 30.038256,3.97106641 29.500056,2.98460282 C29.262096,2.54840038 28.924146,2.20848011 28.439136,2.0455133 C27.749826,1.81369616 27.190116,2.01618649 26.816256,2.63836601 C26.726346,2.78806808 26.648226,2.94688403 26.582346,3.10876801 C26.307216,3.78608193 26.182206,4.50210723 26.069076,5.21840325 C25.965936,5.87243619 25.769736,6.48378735 25.381566,7.02646866 C24.602976,8.11489931 23.611446,8.95987233 22.452876,9.61616118 C22.397076,9.6477439 22.335786,9.68627481 22.302666,9.73798023 C21.921156,10.3329084 21.440106,10.837149 20.887416,11.2694713 C20.498076,11.5739287 20.086146,11.8496909 19.679616,12.1310478 C19.579356,12.2007102 19.464246,12.2585517 19.347786,12.2935634 C18.565506,12.5281779 17.789166,12.4698852 17.030736,12.1971008 C15.737076,11.732113 14.717286,10.8813648 13.838076,9.84860998 C13.733586,9.72561786 13.625946,9.61616118 13.500576,9.51987902 C13.370796,9.42007763 13.240116,9.32126885 13.110066,9.2215577 C12.383046,8.66344598 11.661246,8.09883724 11.030796,7.42829105 C10.479906,6.84274748 10.076526,6.18835359 9.962946,5.36612012 C9.885636,4.80728651 9.752346,4.25522063 9.623376,3.70495947 C9.531036,3.30927314 9.383436,2.93019031 9.162126,2.5849461 C8.857116,2.10912991 8.435106,1.89003609 7.863426,1.97413636 C7.315146,2.05462717 6.915546,2.35619699 6.618816,2.80268637 C6.120036,3.55426479 5.945346,4.39743309 5.974506,5.28743404 C5.994846,5.91078663 6.178896,6.50102249 6.386526,7.08214447 C6.914016,8.5589523 7.646166,9.93370284 8.490096,11.24989 C8.951346,11.9697955 9.443016,12.6684954 10.040706,13.28499 C10.139076,13.3863254 10.146546,13.5177998 10.071576,13.6519812 C9.373986,14.9025665 8.828136,16.2182123 8.401446,17.5843001 C8.107056,18.5280819 7.889076,19.4890086 7.774236,20.4725847 C7.693596,21.1608172 7.678656,21.8500423 7.705386,22.5419745 C7.742106,23.4844028 7.842456,24.4170855 8.084736,25.33136 C8.558676,27.1203856 9.580716,28.4651777 11.260836,29.2788387 C12.280806,29.7727924 13.366026,30.0378165 14.479056,30.204483 C15.648516,30.3794512 16.826346,30.4315176 18.007146,30.4293519 M17.986716,33.3783655 C17.915796,33.6517816 17.857926,33.9021874 17.786106,34.1482619 C17.568936,34.8925312 17.268246,35.5968258 16.754706,36.1896785 C16.094826,36.9519048 15.256296,37.2671905 14.259816,37.1534928 C13.264506,37.0399755 12.541086,36.4938652 11.990466,35.6867012 C11.522736,35.001266 11.239956,34.2347986 11.033316,33.4378313 C10.755666,32.3678088 10.624536,31.2769418 10.586286,30.1737124 C10.585386,30.1427613 10.581246,30.1118103 10.580436,30.0992674 C10.277046,30.1314818 9.977076,30.1851724 9.676386,30.1909475 C8.914446,30.2054756 8.199936,29.9946835 7.512156,29.6822853 C6.989076,29.4447833 6.494616,29.154854 6.035706,28.8106023 C5.475726,28.390101 4.836456,28.190769 4.157676,28.0976451 C2.930976,27.9295348 1.717956,28.048376 0.513486,28.2986014 C0.399096,28.3224238 0.289746,28.3329814 0.192456,28.2508664 C0.068166,28.1458313 0.054576,27.9896322 0.158436,27.8294627 C0.493866,27.3123183 0.829836,26.7958055 1.165536,26.279022 C3.264246,23.0474784 5.363316,19.8156642 7.462386,16.5841206 C8.103996,15.5962132 8.746146,14.608757 9.387576,13.6208497 C9.419616,13.5715806 9.464976,13.5328692 9.401706,13.4609509 C8.613576,12.5679721 7.966656,11.5752822 7.374096,10.5455954 C6.733206,9.43189859 6.166656,8.28237794 5.757786,7.06066823 C5.536566,6.39977732 5.364756,5.72724593 5.384646,5.02177828 C5.410026,4.1031724 5.617296,3.23527935 6.137946,2.4647513 C6.515766,1.90582745 7.021656,1.52349611 7.699626,1.40618888 C8.499276,1.26794681 9.141246,1.52087926 9.606816,2.1960275 C9.942876,2.68267205 10.127286,3.23392581 10.254726,3.80295612 C10.385856,4.38895087 10.494756,4.97999885 10.603926,5.57068589 C10.687806,6.02466488 10.932696,6.38930991 11.220786,6.75341351 C11.245986,6.63060186 11.259576,6.52060377 11.292066,6.41656128 C11.436516,5.95040038 11.717406,5.61535288 12.205836,5.48739776 C12.213306,5.48541256 12.221226,5.48026909 12.227976,5.48117145 C12.437676,5.5056255 12.518676,5.37884345 12.605346,5.2091089 C12.983706,4.4699831 13.599936,3.97981934 14.329836,3.6218518 C15.093666,3.24728078 15.909786,3.05715283 16.750656,2.96267539 C17.640666,2.86278377 18.530586,2.86097904 19.420056,2.96556295 C20.450286,3.08666011 21.440286,3.34058515 22.325346,3.91024712 C22.898016,4.27877231 23.350176,4.75765653 23.633586,5.38651354 C23.649696,5.42170571 23.695056,5.46285347 23.730426,5.46646293 C24.184206,5.5128444 24.639966,5.89165653 24.777666,6.49894705 C24.797286,6.5854837 24.806826,6.67427625 24.824106,6.78246961 C24.855066,6.74411917 24.876846,6.72047725 24.895476,6.69439895 C25.194816,6.27001747 25.378326,5.8024128 25.461306,5.28671215 C25.575336,4.57438654 25.697826,3.86197069 25.930296,3.17563313 C26.091846,2.69918529 26.301186,2.24809386 26.661546,1.88435121 C27.052776,1.48992819 27.530406,1.33616548 28.075896,1.38074223 C29.013246,1.45762359 29.643156,1.98920582 30.061026,2.78833879 C30.641616,3.89734333 30.768156,5.07032542 30.473406,6.28842569 C30.248316,7.21804039 29.888226,8.09721299 29.477016,8.95608241 C28.806156,10.3565503 28.023246,11.6898824 27.074556,12.9213376 C26.910756,13.1342953 26.735166,13.3381392 26.562906,13.5486606 C27.040896,14.2845379 27.519066,15.0202347 27.996696,15.7557511 C30.257046,19.2360762 32.517036,22.7164916 34.777296,26.1968167 C35.117406,26.7200972 35.457426,27.2433777 35.797446,27.7666582 C35.814456,27.7928267 35.830386,27.8197172 35.847936,27.8454345 C35.927136,27.9603956 35.934786,28.079688 35.854866,28.1946491 C35.777556,28.306091 35.665596,28.3322595 35.535006,28.3093395 C35.140086,28.2402185 34.746876,28.1589155 34.349256,28.1106391 C33.311916,27.9846692 32.275386,27.9583202 31.249656,28.2127866 C30.788136,28.3272965 30.363246,28.5182366 29.975436,28.8008568 C29.227626,29.3457038 28.425816,29.7896666 27.525546,30.0305073 C26.778366,30.230471 26.029296,30.2762209 25.282656,30.0222958 C25.272036,30.0185961 25.260336,30.0197692 25.235226,30.0176938 C25.223526,30.2429237 25.215606,30.4667098 25.200036,30.6898642 C25.110396,31.9797024 24.916266,33.249508 24.449976,34.4636379 C24.181596,35.1618867 23.820426,35.8031963 23.280516,36.3336054 C22.435326,37.1641407 21.099006,37.4184266 20.068236,36.934038 C19.512036,36.6728038 19.115676,36.2393987 18.804006,35.7214422 C18.439866,35.116949 18.225756,34.4546143 18.069786,33.7708936 C18.042336,33.6491648 18.017946,33.5268043 17.986716,33.3783655" id="Fill-5" fill="#2B50A5"></path>
                    <g id="Group-9" transform="translate(0.000000, 1.263309)">
                        <mask id="mask-2" fill="white">
                            <use xlink:href="#path-1"></use>
                        </mask>
                        <g id="Clip-8"></g>
                        <path d="M12.188817,4.96766355 C12.020787,5.08361724 11.900817,5.33221833 11.903517,5.59110637 C11.906217,5.85396481 12.041937,6.07811186 12.247587,6.18062034 C12.157227,5.78385118 12.137877,5.3842847 12.188817,4.96766355 Z M12.497967,6.43228947 L12.356577,6.40449668 C11.989287,6.33221738 11.729727,5.99852342 11.725587,5.59300134 C11.721537,5.1848624 11.964627,4.807855 12.279447,4.73440263 L12.408687,4.70426369 L12.387447,4.83573803 C12.304647,5.34151268 12.328227,5.81814099 12.459537,6.29305481 L12.497967,6.43228947 Z M23.966217,5.06295312 C23.999787,5.43553894 23.980437,5.78728016 23.907987,6.12882468 C24.055767,6.01196863 24.140277,5.82373564 24.141177,5.59661079 C24.141897,5.38717226 24.071517,5.1848624 23.966217,5.06295312 Z M23.642397,6.4452835 L23.688117,6.27969983 C23.809437,5.83997818 23.835267,5.38482612 23.767317,4.88816534 L23.747247,4.74243366 L23.885307,4.79197341 C24.133887,4.88103667 24.320367,5.22718324 24.319197,5.59724244 C24.317847,5.97136228 24.120207,6.27419542 23.803767,6.38744201 L23.642397,6.4452835 Z M18.260487,2.21274829 L18.260487,2.30190179 C17.188947,2.30190179 16.413957,2.38654347 15.668847,2.5850634 C14.869557,2.79784068 14.271957,3.09462798 13.787757,3.51900945 C12.827367,4.36046326 12.639537,5.77690298 13.350987,6.81371845 C13.662837,7.26805839 14.099967,7.61402449 14.726187,7.90251005 C15.360867,8.19505624 16.088427,8.37877742 16.949997,8.46405075 C18.126567,8.58072633 19.224117,8.52396768 20.241837,8.29467715 C21.069567,8.10824889 21.703347,7.82580917 22.235967,7.40602974 C22.815927,6.94934366 23.165217,6.3046953 23.219757,5.59074543 C23.272947,4.89511354 23.036157,4.22709396 22.553487,3.7098593 C22.138587,3.26526488 21.598137,2.94348212 20.853387,2.6973174 C19.874727,2.37400062 18.904887,2.30388699 18.263637,2.30190179 L18.260487,2.21274829 Z M18.116037,8.70182349 L18.115857,8.70182349 C17.734077,8.70182349 17.335737,8.68161055 16.932537,8.64172609 C16.050897,8.55428709 15.305067,8.36551268 14.651937,8.06466474 C14.004297,7.76634342 13.530807,7.39023839 13.204287,6.91487338 C12.441627,5.80334223 12.642057,4.28574758 13.670577,3.38464755 C14.176197,2.94167739 14.796477,2.63270819 15.623127,2.41253153 C16.383807,2.20986073 17.172657,2.12341432 18.260487,2.12341432 L18.263907,2.12341432 C18.918387,2.12539952 19.908207,2.19713741 20.908827,2.52785357 C21.683457,2.78376381 22.247217,3.12061604 22.683357,3.58785978 C23.200677,4.14227181 23.454027,4.85829711 23.397057,5.60446135 C23.338827,6.36867286 22.965507,7.05843939 22.346037,7.54634724 C21.799197,7.9771355 21.123747,8.27879556 20.281167,8.46874304 C19.594377,8.62349835 18.865917,8.70182349 18.116037,8.70182349 Z M19.255437,9.22970604 L19.838187,9.95502569 C20.221677,9.71247042 20.857797,9.16699179 21.172797,8.82625939 C20.600217,9.02288436 19.968777,9.15580248 19.255437,9.22970604 Z M19.796247,10.1873842 L18.908667,9.08280129 L19.074537,9.06791229 C19.963647,8.98841408 20.723787,8.81985261 21.397887,8.5528433 L21.608127,8.4696454 L21.510927,8.67412094 C21.368457,8.97415674 20.336967,9.87236921 19.862307,10.1489436 L19.796247,10.1873842 Z M14.987997,8.82968837 C15.643107,9.45268002 16.281927,9.89005553 16.972137,10.1861209 C17.597367,10.4542131 18.161397,10.5468858 18.712467,10.4737041 C18.834417,10.4574616 18.957537,10.4302102 19.087587,10.4015151 C19.115307,10.3952888 19.143837,10.3891527 19.172187,10.3829264 C19.146807,10.3281529 19.126287,10.28502 19.099107,10.253347 C18.877437,9.99472967 18.646947,9.7419777 18.470997,9.55076691 C18.451917,9.52992232 18.432747,9.50790466 18.413757,9.48579675 C18.349947,9.41243461 18.283887,9.33636539 18.213237,9.30631669 C18.162477,9.28484044 18.097767,9.28195288 18.041157,9.28195288 L17.901927,9.28393808 C17.881947,9.28393808 17.862327,9.28357713 17.842977,9.28267477 C17.825067,9.2817724 17.806977,9.28168217 17.788887,9.28168217 L17.751897,9.28132122 C16.875927,9.25993521 16.106157,9.15408799 15.398847,8.95773373 C15.260787,8.91929305 15.122907,8.87462607 14.987997,8.82968837 Z M18.348777,10.6761042 C17.887167,10.6761042 17.413947,10.5694449 16.902297,10.3501706 C16.108407,10.0096187 15.382197,9.48922573 14.617377,8.71292256 L14.606217,8.70164302 L14.592087,8.67394046 L14.508837,8.49012905 L14.696937,8.54490251 C14.776857,8.57061986 14.856057,8.59732982 14.935527,8.62403977 C15.102567,8.68016677 15.275277,8.7380985 15.446277,8.78574328 C16.139547,8.97812714 16.894827,9.08198916 17.756037,9.10274352 L17.789877,9.1031947 C17.810577,9.10328494 17.831187,9.10346541 17.851707,9.10436777 C17.868177,9.10527014 17.885007,9.10545061 17.901927,9.10545061 L18.041157,9.10355565 C18.115407,9.10355565 18.202347,9.10806746 18.282447,9.14199632 C18.391077,9.18810709 18.470727,9.27987744 18.547857,9.36866999 C18.565947,9.38951459 18.583857,9.41008847 18.601947,9.42975999 C18.778797,9.62214385 19.010367,9.8763396 19.234197,10.1369421 C19.277757,10.1878354 19.305747,10.2477524 19.335357,10.3110983 C19.348857,10.3402446 19.363347,10.3716468 19.380987,10.4050343 L19.436517,10.5104303 L19.320057,10.5340722 C19.252917,10.5476077 19.188477,10.561865 19.125837,10.5757614 C18.992007,10.6054492 18.865647,10.633242 18.735867,10.6506576 C18.608247,10.667622 18.478107,10.6761042 18.348777,10.6761042 Z M3.013857,26.0806194 C3.495267,26.0806194 3.943827,26.1143678 4.385367,26.1836693 C5.199867,26.3119853 5.866677,26.5765583 6.423507,26.9925478 C6.605217,27.128173 6.813207,27.2654224 7.059267,27.412237 C7.978437,27.9607836 8.741367,28.2198521 9.533367,28.2524275 C9.772407,28.2620827 9.999747,28.2451183 10.208817,28.1988271 C8.935317,27.3763229 8.042787,26.1849326 7.555167,24.6561486 C7.310457,23.8898617 7.154757,23.0534611 7.079427,22.0989412 C7.000227,21.0958741 6.996177,20.2660608 7.066827,19.4871407 C7.165917,18.396364 7.392717,17.2897958 7.759827,16.1056244 L1.187577,26.2245463 C1.854207,26.1277228 2.452797,26.0806194 3.013857,26.0806194 Z M9.663957,28.433622 C9.618237,28.433622 9.572157,28.4326294 9.525987,28.4308247 C8.714187,28.3972568 7.901307,28.1223969 6.968187,27.5656387 C6.716907,27.4157562 6.504057,27.2749875 6.317307,27.1356626 C5.784147,26.7372692 5.143077,26.4836148 4.357647,26.3599008 C3.388797,26.2076721 2.368917,26.2246366 1.092807,26.4190959 L0.825507,26.4551002 L7.963227,15.4656683 L8.103987,15.5320823 L8.102187,15.6173556 L8.057997,15.7550562 C8.020917,15.8705587 7.983837,15.9861515 7.947297,16.1020149 C7.573617,17.2953002 7.343667,18.407824 7.244217,19.5032931 C7.174377,20.2720164 7.178517,21.0921744 7.256817,22.0847741 C7.331067,23.0253976 7.484157,23.8487139 7.724637,24.6017361 C8.211627,26.1283544 9.112077,27.3086456 10.401417,28.109854 C10.419147,28.1208629 10.436337,28.1324131 10.453527,28.1438731 L10.474317,28.1581305 L10.530297,28.280491 L10.439937,28.321729 C10.199097,28.3970763 9.945207,28.433622 9.663957,28.433622 Z M25.828947,28.2061362 C26.002017,28.2395237 26.181027,28.2564881 26.362827,28.2564881 C26.645787,28.2564881 26.939907,28.2172353 27.261927,28.1367445 C28.023237,27.9463458 28.760607,27.5810691 29.582217,26.9868629 C30.004947,26.6812324 30.472947,26.4575365 30.972987,26.3223625 C31.573017,26.1602078 32.216697,26.081251 32.940657,26.081251 C33.318117,26.081251 33.724197,26.102637 34.182117,26.1464919 C34.363917,26.1639075 34.544817,26.1877299 34.731927,26.2124547 C34.757307,26.2157934 34.783047,26.2191322 34.808607,26.2224709 L28.215117,16.0710639 C28.226277,16.1087827 28.237527,16.1465015 28.248777,16.1842202 C28.359657,16.5557232 28.474047,16.9399495 28.570797,17.3229125 C28.815867,18.2943969 28.953657,19.2659715 28.980747,20.2108361 C29.004957,21.0540947 28.967697,21.8923902 28.869597,22.7023515 C28.759797,23.6109412 28.573317,24.3979825 28.299537,25.1082327 C27.922077,26.0876578 27.407727,26.863961 26.727237,27.4815385 C26.498637,27.6891723 26.250777,27.8802928 26.010837,28.0652773 C25.950267,28.11211 25.889337,28.1589426 25.828947,28.2061362 Z M26.362827,28.4348853 C26.120457,28.4347951 25.882587,28.4066413 25.655787,28.3507851 C25.634547,28.3456416 25.613577,28.3377008 25.603407,28.3338206 L25.457877,28.2779643 L25.575327,28.1790653 C25.683237,28.0927994 25.792947,28.0083382 25.902567,27.9237867 C26.139357,27.7409679 26.384427,27.552013 26.607717,27.3491618 C27.267327,26.7507144 27.766377,25.9966996 28.133667,25.0438942 C28.401957,24.3477208 28.585017,23.5746662 28.692927,22.6808753 C28.789947,21.8796669 28.827027,21.050395 28.802907,20.2158894 C28.776177,19.284109 28.640097,18.3254382 28.398177,17.3665869 C28.302507,16.9874138 28.188387,16.6050825 28.078227,16.235294 C28.028007,16.0666423 27.977877,15.8980808 27.929007,15.7291584 C27.916947,15.6881009 27.901287,15.6333274 27.916947,15.5627626 L27.963027,15.3557605 L35.167167,26.4475203 L34.977357,26.4239686 C34.885917,26.4125989 34.796637,26.4008681 34.708617,26.3893179 C34.523847,26.3649541 34.344837,26.3414024 34.165107,26.3241672 C33.712947,26.2807636 33.312447,26.2598287 32.940657,26.2598287 C32.232537,26.2598287 31.604157,26.3367101 31.019427,26.4947139 C30.539907,26.6242933 30.091527,26.8385143 29.686347,27.1315117 C28.845927,27.7394339 28.089027,28.1138244 27.304857,28.309908 C26.968797,28.393918 26.660547,28.4348853 26.362827,28.4348853 Z M18.007137,29.0769168 L18.330957,29.0776387 C18.393957,29.0776387 18.456867,29.0774582 18.520137,29.0765559 C19.681407,29.0613962 20.712447,28.9810858 21.671757,28.8309326 C22.720257,28.6669732 23.609547,28.4244179 24.390927,28.0897313 C25.941087,27.4258626 27.016857,26.3292205 27.588267,24.8306657 C27.932247,23.9282121 28.125837,22.9108877 28.197657,21.6289001 C28.252017,20.6599424 28.226997,19.8130744 28.121787,19.0394783 C27.971847,17.9390462 27.700137,16.8395165 27.290997,15.6779944 C26.864397,14.4661205 26.394507,13.4096335 25.854147,12.448436 C25.735887,12.2380952 25.779717,12.0416507 25.977357,11.8950166 C26.009847,11.8710138 26.036217,11.8467402 26.056287,11.8227373 L26.201907,11.6508371 C26.332497,11.4974353 26.467677,11.3387096 26.590797,11.1770061 C27.352377,10.1797142 28.035117,9.07161198 28.677897,7.7896244 C29.069937,7.00736562 29.554857,5.96387267 29.826747,4.82779723 C30.082797,3.75651148 29.946717,2.72565161 29.422017,1.76409324 C29.171457,1.30470007 28.840617,1.01116128 28.411137,0.866873383 C27.762867,0.649042874 27.243297,0.837456338 26.892387,1.42110494 C26.807247,1.56313693 26.730657,1.71726059 26.664777,1.87905433 C26.396307,2.54066713 26.271387,3.24514218 26.157087,3.96901805 C26.037837,4.72429616 25.814547,5.31092256 25.453827,5.81516319 C24.703587,6.86416056 23.708637,7.74405505 22.496607,8.43048284 C22.450257,8.45683185 22.399857,8.48841456 22.377627,8.52288484 C22.009707,9.09678792 21.526587,9.61943676 20.941947,10.0764838 C20.617317,10.3305893 20.272527,10.5679109 19.938987,10.7972014 L19.730187,10.9411283 C19.618227,11.0190023 19.494657,11.0792802 19.373427,11.1158259 C18.614547,11.3436726 17.815167,11.3107364 17.000757,11.0178292 C15.828687,10.596606 14.772087,9.81976142 13.770387,8.64316987 C13.658067,8.51133459 13.555287,8.41090155 13.446477,8.32734271 L13.056147,8.0292921 C12.279807,7.43337135 11.587077,6.88671965 10.966167,6.22627992 C10.326627,5.54634915 9.979767,4.87553225 9.874827,4.11502043 C9.803097,3.59670294 9.680607,3.07450528 9.562077,2.56945252 L9.536787,2.46198105 C9.441567,2.05402258 9.290277,1.68658023 9.087237,1.36994094 C8.790957,0.907840678 8.396667,0.722314777 7.876467,0.799196133 C7.385247,0.871204727 6.998157,1.12946111 6.692967,1.58885429 C6.238467,2.27374805 6.032367,3.0693618 6.063327,4.02126488 C6.084117,4.66022836 6.284457,5.26860172 6.470217,5.78872394 C6.949377,7.13008704 7.634637,8.48742196 8.564877,9.93833196 C8.969967,10.5703472 9.469377,11.3045101 10.104417,11.9594454 C10.228977,12.0876712 10.245357,12.2600226 10.149327,12.4322837 C9.486027,13.6210572 8.926677,14.9383272 8.486397,16.347548 C8.176437,17.3412305 7.972317,18.280681 7.862787,19.21959 C7.787817,19.8586437 7.765497,20.5310849 7.794387,21.2751737 C7.836417,22.3545807 7.955937,23.2346557 8.170767,24.0451584 C8.649567,25.8525922 9.702207,27.1614702 11.299617,27.9352467 C12.196197,28.369464 13.210677,28.6610176 14.492097,28.85286 C15.513507,29.0058106 16.608897,29.0769168 17.938827,29.0769168 L18.007137,29.0769168 Z M18.330957,29.2561262 L18.007317,29.2553141 L17.938827,29.2554043 C16.599807,29.2554043 15.496227,29.1834859 14.465817,29.029272 C13.166037,28.8347225 12.135447,28.5382962 11.222307,28.0959577 C9.576027,27.2985392 8.491527,25.95104 7.998777,24.0909082 C7.780527,23.2675017 7.659027,22.3749741 7.616547,21.2822121 C7.587297,20.5285583 7.609977,19.8471837 7.685757,19.1988357 C7.796907,18.2487373 8.003187,17.2985487 8.316567,16.2943086 C8.760447,14.873357 9.324657,13.5447173 9.993897,12.3451154 C10.051137,12.2424265 10.045467,12.1546265 9.976887,12.0838813 C9.330867,11.4175762 8.824977,10.674119 8.415297,10.0348848 C7.477407,8.57242459 6.786477,7.20308823 6.302727,5.84891158 C6.112197,5.31597579 5.907177,4.69181108 5.885487,4.02704001 C5.853357,3.03678649 6.068907,2.2067927 6.544737,1.48995526 C6.874947,0.993023777 7.314237,0.701289711 7.850547,0.622603629 C8.437257,0.536066985 8.904987,0.755341275 9.236907,1.27338806 C9.450837,1.6072625 9.610227,1.993474 9.710037,2.42128446 L9.735417,2.52857546 C9.854667,3.03759862 9.978237,3.56385691 10.051137,4.09056639 C10.150767,4.81254729 10.482597,5.45223266 11.095497,6.10382922 C11.707227,6.75452342 12.394377,7.29666331 13.164057,7.88744058 L13.554747,8.18567166 C13.673637,8.27717131 13.785327,8.38572561 13.905747,8.52730642 C14.886837,9.6796244 15.918687,10.4394143 17.060697,10.8498994 C17.839287,11.1297223 18.599247,11.1617562 19.322217,10.9447378 C19.425987,10.9137867 19.531917,10.8616301 19.629027,10.7943138 L19.838367,10.6501162 C20.169567,10.4221792 20.512287,10.1865721 20.832687,9.93589558 C21.401217,9.4911207 21.870747,8.98327061 22.227867,8.4264222 C22.270887,8.35937661 22.340367,8.31407797 22.409307,8.27509587 C23.615037,7.59200683 24.563727,6.75335035 25.309377,5.7111207 C25.653177,5.23034151 25.866657,4.66798868 25.981227,3.94122526 C26.097147,3.20652103 26.224227,2.49094691 26.499987,1.81173803 C26.569197,1.64137183 26.650017,1.47894643 26.740017,1.32915412 C27.130617,0.679001337 27.743247,0.454042158 28.467567,0.697680258 C28.935117,0.854691478 29.308797,1.18477598 29.578167,1.67836873 C30.124737,2.68008226 30.266487,3.75371416 29.999817,4.86939618 C29.723787,6.02324817 29.233377,7.07892304 28.836927,7.86975426 C28.189107,9.16184832 27.500607,10.2791546 26.732277,11.2853799 C26.606097,11.4508734 26.469297,11.6114038 26.337447,11.7667908 L26.192547,11.9374277 C26.163837,11.9721687 26.126937,12.0061878 26.083017,12.0384924 C25.958547,12.1308042 25.935777,12.2301544 26.009127,12.3609068 C26.554707,13.3312181 27.028737,14.396819 27.458847,15.6186189 C27.871947,16.7916912 28.146447,17.9027712 28.298097,19.0153852 C28.404927,19.8003511 28.430307,20.6584986 28.375317,21.6389164 C28.302507,22.9397633 28.105137,23.9743229 27.754587,24.8944628 C27.165087,26.4398502 26.057187,27.5701505 24.461037,28.2538712 C23.665797,28.5945134 22.762467,28.8408586 21.699117,29.0072544 C20.731437,29.1586709 19.692387,29.2397032 18.522477,29.2549531 C18.458577,29.2557652 18.394587,29.2561262 18.330957,29.2561262 Z M18.457857,29.8472644 L18.457857,29.8493398 C18.457857,29.9027598 18.457497,29.9526604 18.458217,30.0025611 C18.472077,30.9710677 18.587457,31.8501501 18.810477,32.6897991 C19.009287,33.4379486 19.250127,33.9700722 19.591587,34.4154788 C20.015487,34.9682666 20.536137,35.2370806 21.183597,35.2370806 C21.291237,35.2370806 21.403737,35.22923 21.517947,35.2138899 C22.157847,35.1278044 22.686777,34.8017805 23.135067,34.2173198 C23.542407,33.6863692 23.835987,33.047496 24.087087,32.1457643 C24.308757,31.3496994 24.447537,30.493898 24.523587,29.4524804 C24.535377,29.2882503 24.542217,29.1232983 24.549237,28.9526614 L24.553647,28.8555671 C22.682727,29.5961367 20.755557,29.7916788 18.457857,29.8472644 Z M21.183597,35.4155681 L21.183417,35.4155681 C20.486907,35.4154778 19.903797,35.1156225 19.450557,34.5242136 C19.094067,34.059316 18.843597,33.5077013 18.638577,32.7358197 C18.411507,31.881823 18.294417,30.9883931 18.280197,30.0049073 C18.279477,29.9538335 18.279837,29.9031207 18.280017,29.848618 L18.280197,29.6729278 L18.367137,29.6708524 C20.736207,29.6173422 22.705407,29.4212587 24.614937,28.6383683 L24.744177,28.5854898 L24.727347,28.9600608 C24.720057,29.1326829 24.713127,29.2993494 24.700887,29.4653842 C24.624027,30.5190739 24.483357,31.3860646 24.258267,32.19377 C24.000957,33.1186022 23.697837,33.7762446 23.276277,34.3260546 C22.797747,34.9498583 22.230297,35.2980804 21.541617,35.3907531 C21.419487,35.4071761 21.299157,35.4155681 21.183597,35.4155681 Z M11.2560161,28.7628042 C11.255877,28.7892434 11.256237,28.8145096 11.258217,28.8396855 C11.271897,29.0052692 11.284227,29.171304 11.296467,29.3371584 C11.325897,29.7358225 11.356317,30.1481123 11.405367,30.5502054 C11.511027,31.4190009 11.698497,32.1949431 11.978307,32.9223382 C12.249027,33.6255499 12.568167,34.1475671 12.982437,34.5652711 C13.401927,34.9881185 14.014017,35.2405998 14.619987,35.2405998 C15.329277,35.2405998 15.958197,34.9076277 16.390917,34.3029541 C16.661007,33.9252248 16.874847,33.4964217 17.045217,32.9920909 C17.309457,32.2094711 17.469117,31.3266891 17.534097,30.2936635 C17.541387,30.1791536 17.539497,30.0632902 17.537517,29.940659 C17.536797,29.9099787 17.536437,29.8789374 17.536077,29.8476254 C15.599907,29.7993489 13.374207,29.6626409 11.2560161,28.7628042 Z M14.619987,35.418997 C13.967937,35.418997 13.308507,35.1468443 12.856257,34.6911508 C12.423897,34.2553093 12.092337,33.7136206 11.812437,32.9866767 C11.527227,32.2452047 11.336157,31.4554563 11.228787,30.5717719 C11.179197,30.165528 11.148507,29.7511627 11.118897,29.3504232 C11.106657,29.1849297 11.094417,29.0194363 11.080827,28.8541233 C11.077137,28.8072004 11.077767,28.7600068 11.078847,28.7061357 L11.079747,28.491283 L11.204397,28.546237 C13.360977,29.4948013 15.650217,29.6242904 17.626437,29.6712133 L17.713467,29.6732888 L17.713467,29.7604571 C17.713467,29.8209154 17.714457,29.8798397 17.715447,29.9378617 C17.717517,30.0641023 17.719317,30.1833045 17.711757,30.3049431 C17.645787,31.35376 17.482977,32.251431 17.213787,33.0492105 C17.037837,33.570596 16.815987,34.014649 16.535457,34.4069063 C16.068447,35.0595857 15.388137,35.418997 14.619987,35.418997 Z M17.995707,31.7255337 L18.100287,32.2244504 C18.119817,32.3183864 18.137367,32.4032085 18.156627,32.48776 C18.337527,33.2812983 18.567567,33.8928299 18.880137,34.4119596 C19.219977,34.9766585 19.620927,35.3620579 20.106027,35.5899949 C20.434437,35.744299 20.811357,35.8257824 21.196467,35.8257824 C21.951387,35.8257824 22.688487,35.5271904 23.218227,35.006617 C23.696217,34.5368466 24.072237,33.9354215 24.366897,33.1683224 C24.770007,32.1188739 25.006437,30.9278445 25.111377,29.4203563 C25.121907,29.2694812 25.129017,29.1183353 25.135947,28.966648 L25.150977,28.6576788 L25.261587,28.6666122 C25.276167,28.6673341 25.293087,28.668056 25.312077,28.6747335 C25.974747,28.9001439 26.671257,28.9033924 27.502677,28.68105 C28.302147,28.4670997 29.093877,28.0695184 29.922957,27.4652959 C30.313197,27.1811417 30.740247,26.9840656 31.228227,26.8628782 C31.764537,26.7297796 32.328837,26.6649899 32.953167,26.6649899 C33.380397,26.6649899 33.840657,26.6956702 34.360047,26.7587454 C34.653087,26.7943888 34.947567,26.8482599 35.232147,26.9006872 C35.338167,26.920088 35.444097,26.939579 35.550207,26.9580775 C35.652717,26.976215 35.729757,26.9552802 35.782047,26.880384 C35.837847,26.7997127 35.835507,26.7211169 35.774757,26.6328657 C35.763777,26.6168037 35.753427,26.6003807 35.743077,26.5841381 L35.723187,26.5524652 L26.452827,12.2793332 L26.494047,12.2288008 C26.548497,12.1621162 26.603397,12.0964241 26.658027,12.0306418 C26.775657,11.8891513 26.892657,11.748563 27.004077,11.6035533 C27.895347,10.4467235 28.677987,9.15490012 29.396817,7.65408942 C29.877597,6.6496688 30.192417,5.80758334 30.386997,5.00402879 C30.679497,3.7950424 30.543327,2.63848331 29.982447,1.56656591 C29.539827,0.72051005 28.913787,0.275644927 28.068597,0.206343423 C27.539397,0.162849511 27.083187,0.32256782 26.724807,0.683964335 C26.342307,1.06972466 26.144127,1.55844464 26.014617,1.94104669 C25.787097,2.61258549 25.664697,3.3159777 25.549317,4.03759766 C25.461927,4.5791059 25.272117,5.05176381 24.968097,5.48255206 C24.954867,5.50105051 24.940467,5.51846613 24.922917,5.53949119 L24.767577,5.73052151 L24.721317,5.43436586 C24.712047,5.37029807 24.703947,5.3122761 24.690987,5.25533698 C24.552387,4.64416629 24.104187,4.33104622 23.721237,4.29179341 C23.650137,4.28475498 23.579667,4.21933364 23.552757,4.16031907 C23.288787,3.57486574 22.871727,3.10464421 22.277277,2.72195192 C21.506967,2.22619351 20.595897,1.93030857 19.409787,1.79089344 C18.542817,1.68883614 17.651817,1.68802402 16.760547,1.78800587 C15.831297,1.89249955 15.048837,2.10527682 14.368797,2.43879031 C13.567167,2.83185978 13.016097,3.33817584 12.684537,3.98643366 C12.611097,4.13081179 12.510207,4.33077551 12.235527,4.30830666 C12.233097,4.30902855 12.230757,4.30984068 12.228327,4.3103821 C11.802357,4.42200444 11.523807,4.70642936 11.376927,5.17971893 C11.356317,5.24550122 11.343447,5.31669768 11.329947,5.3922255 C11.323197,5.42967357 11.316087,5.46829472 11.307897,5.50808895 L11.269557,5.69541958 L11.151117,5.54562726 C10.830807,5.14073683 10.600407,4.77798677 10.516437,4.32364684 L10.511667,4.29738806 C10.405917,3.72592137 10.296837,3.13487338 10.167867,2.55925581 C10.019367,1.89565782 9.817767,1.3949364 9.533727,0.983548962 C9.096597,0.349728957 8.485857,0.0970672237 7.714827,0.230887706 C7.094907,0.33808847 6.603237,0.671962903 6.211737,1.25146063 C5.742657,1.94555851 5.501097,2.76643843 5.473647,3.76093306 C5.452677,4.49735178 5.648247,5.18928398 5.842197,5.76896219 C6.209667,6.86677742 6.720957,7.96910446 7.451217,9.23764684 C8.145297,10.4439261 8.786187,11.3656 9.468387,12.1385645 C9.569907,12.254067 9.502227,12.3492663 9.473517,12.3898727 L9.461997,12.4064762 L0.233127,26.6148185 C0.187587,26.6849321 0.129357,26.8176698 0.249867,26.9193661 C0.312957,26.9725153 0.410967,26.9652964 0.495387,26.9478808 C1.890387,26.6581319 3.066327,26.5946055 4.169637,26.7460221 C4.960377,26.8543959 5.570127,27.0862131 6.089247,27.4759438 C6.534837,27.8103597 7.026057,28.100289 7.548867,28.3377008 C8.301897,28.6796965 8.954397,28.8391441 9.601767,28.8391441 L9.674667,28.838332 C9.876537,28.834542 10.075167,28.8090052 10.285317,28.781844 C10.380177,28.7695719 10.475487,28.75739 10.570887,28.7471933 L10.662237,28.7376282 L10.668987,28.8293986 C10.672047,28.8588156 10.674477,28.8831794 10.675197,28.9077237 C10.716417,30.0977605 10.861767,31.1591202 11.119437,32.1520808 C11.358027,33.0724914 11.658087,33.7782298 12.063897,34.3729775 C12.649617,35.2318469 13.371147,35.6990004 14.269887,35.8015089 C15.240717,35.9123191 16.055307,35.5980259 16.687557,34.8678335 C17.126937,34.3606151 17.448777,33.7226442 17.700867,32.8598946 C17.748927,32.6952133 17.790597,32.528637 17.834247,32.3543005 C17.855577,32.2692076 17.877357,32.1821295 17.900577,32.0926151 L17.995707,31.7255337 Z M21.196467,36.0042699 C20.785527,36.0042699 20.382327,35.9168309 20.030517,35.7515179 C19.512477,35.5080603 19.086237,35.1001018 18.727767,34.5040909 C18.405027,33.9683577 18.168327,33.3401324 17.983107,32.5273737 C17.981757,32.5213279 17.980407,32.5150114 17.978877,32.5088753 C17.944317,32.6457638 17.910027,32.7784112 17.871687,32.9099758 C17.612307,33.7983525 17.278587,34.4577094 16.821927,34.98487 C16.150077,35.7608123 15.281397,36.0964914 14.249547,35.9788233 C13.296717,35.8701787 12.533607,35.3779395 11.917017,34.4737714 C11.499147,33.8614277 11.190987,33.1379128 10.947177,32.1969283 C10.687797,31.1972902 10.540737,30.1301553 10.498167,28.9349751 C10.434537,28.9424647 10.371267,28.9506762 10.307997,28.9588877 C10.102167,28.985327 9.889497,29.012849 9.678087,29.0168194 L9.601767,29.0175413 C8.928027,29.0175413 8.252397,28.853221 7.475427,28.5002164 C6.940917,28.2575709 6.438537,27.9609641 5.982597,27.6186977 C5.488587,27.2480068 4.904937,27.0268376 4.145427,26.9227951 C3.062277,26.7743563 1.906317,26.8368901 0.531387,27.1226686 C0.486387,27.1320531 0.432927,27.1416182 0.377307,27.1416182 C0.282987,27.1416182 0.203787,27.1135547 0.135117,27.0558034 C-0.024453,26.9210806 -0.044163,26.7148906 0.083817,26.5175437 L9.328347,12.2863716 C9.332937,12.2802355 9.338967,12.2714826 9.342567,12.265527 C9.340947,12.263993 9.338607,12.2607445 9.335097,12.2565936 C8.644977,11.4746958 7.997427,10.5437275 7.296957,9.32698081 C6.560757,8.04770031 6.044877,6.93517656 5.673267,5.82572084 C5.474457,5.23115364 5.274027,4.52027181 5.295627,3.75587983 C5.324247,2.72646374 5.575707,1.87454252 6.064317,1.15138854 C6.478677,0.538142421 7.023807,0.16925629 7.684407,0.0549268561 C8.527617,-0.0908048222 9.202077,0.189018047 9.679887,0.882033087 C9.977607,1.31291158 10.187847,1.83348498 10.341477,2.52018348 C10.471077,3.09904956 10.580697,3.69181203 10.686717,4.26490298 L10.691397,4.29107152 C10.758087,4.65174614 10.929267,4.95521093 11.170107,5.27816677 C11.180007,5.22673206 11.191527,5.17656066 11.207097,5.12665997 C11.371167,4.59733364 11.699757,4.2644518 12.183327,4.13766975 C12.188817,4.13523337 12.205377,4.12855588 12.226527,4.12855588 C12.252177,4.13090203 12.265497,4.13171416 12.277737,4.13171416 C12.392127,4.13171416 12.444597,4.06484903 12.526137,3.90513072 C12.876057,3.22122955 13.453407,2.68919613 14.290587,2.27844034 C14.989347,1.93581299 15.790707,1.71744106 16.740657,1.61069148 C17.645427,1.5091756 18.550197,1.51007797 19.430397,1.61357904 C20.644407,1.75633292 21.579507,2.06079031 22.373487,2.57179866 C22.988907,2.9680264 23.440347,3.47759098 23.714847,4.08641552 C23.718717,4.09534891 23.735907,4.11213287 23.744727,4.11538138 C24.275547,4.16925247 24.727617,4.61195192 24.864507,5.21581346 C24.870447,5.24207224 24.875487,5.26842125 24.880257,5.29558238 C25.134687,4.910183 25.296507,4.48832815 25.373547,4.00926345 C25.490187,3.27979293 25.614207,2.56845992 25.846047,1.88365639 C25.982037,1.48282659 26.190387,0.969923275 26.598627,0.55808465 C26.994897,0.158518167 27.498807,-0.0195181189 28.083177,0.0285778467 C28.981287,0.102210695 29.673297,0.591652566 30.139947,1.48354848 C30.721617,2.59507964 30.862917,3.79368885 30.559887,5.04616916 C30.362427,5.86208608 30.043827,6.71536085 29.557197,7.73133173 C28.833057,9.2435122 28.043847,10.5457127 27.144927,11.7125587 C27.032067,11.8591928 26.913717,12.0015857 26.794737,12.144881 C26.754237,12.1935184 26.713647,12.2424265 26.673057,12.2915151 L35.894007,26.4892095 C35.902827,26.5034668 35.911557,26.5176339 35.921097,26.5314401 C36.023877,26.6806008 36.026307,26.84068 35.927847,26.9822608 C35.836407,27.1140961 35.695017,27.1648992 35.519427,27.1337676 C35.413137,27.1151789 35.306577,27.0957781 35.200107,27.0761968 C34.918047,27.0244012 34.626357,26.9708008 34.338717,26.9358794 C33.826347,26.8737065 33.373287,26.8435676 32.953167,26.8435676 C32.343417,26.8435676 31.793337,26.9064623 31.271157,27.0360417 C30.805587,27.1516344 30.398967,27.3392358 30.027537,27.6096741 C29.180547,28.2269808 28.369467,28.6337662 27.548577,28.8534014 C26.715267,29.0763754 25.995807,29.0793532 25.318827,28.8647712 L25.313787,28.9748595 C25.306587,29.1279906 25.299477,29.2805802 25.288857,29.4327187 C25.182747,30.9585249 24.942537,32.165887 24.533127,33.2323902 C24.228837,34.0239433 23.839407,34.6460326 23.342697,35.1340307 C22.780017,35.6871794 21.997827,36.0042699 21.196467,36.0042699 Z" id="Fill-7" fill="#2B50A5" mask="url(#mask-2)"></path>
                    </g>
                    <path d="M18.007173,30.429379 C16.826373,30.4314544 15.648543,30.3793881 14.479083,30.2045101 C13.366053,30.0378435 12.280833,29.7728194 11.260863,29.2788657 C9.580743,28.4651145 8.558703,27.1204127 8.084763,25.3313871 C7.842483,24.4171126 7.742043,23.4844298 7.705413,22.5420016 C7.678593,21.8500694 7.693533,21.1608443 7.774263,20.4726117 C7.889103,19.4890357 8.107083,18.5280188 8.401473,17.584237 C8.828163,16.2182393 9.374013,14.9025936 10.071603,13.651918 C10.146573,13.5178268 10.139103,13.3863525 10.040643,13.2850171 C9.443043,12.6685225 8.951373,11.9698225 8.490123,11.2499171 C7.646193,9.93372991 6.914043,8.55897937 6.386463,7.08217154 C6.178833,6.50104956 5.994783,5.9108137 5.974533,5.28746111 C5.945373,4.39746016 6.119973,3.55429186 6.618753,2.80271344 C6.915573,2.35622406 7.315173,2.054564 7.863453,1.97416343 C8.435133,1.89006317 8.857143,2.10906675 9.162153,2.58497317 C9.383463,2.93021738 9.530973,3.30930021 9.623403,3.7048963 C9.752283,4.2552477 9.885663,4.80731358 9.962973,5.3661472 C10.076553,6.18829043 10.479843,6.84268432 11.030733,7.42831812 C11.661183,8.09886431 12.383073,8.66347305 13.110093,9.22158477 C13.240143,9.32129592 13.370733,9.4201047 13.500603,9.51981585 C13.625883,9.61618825 13.733613,9.72564493 13.838103,9.84863705 C14.717223,10.8813919 15.737013,11.73214 17.030673,12.1971279 C17.789193,12.4699123 18.565533,12.528205 19.347813,12.2935905 C19.464273,12.2585788 19.579293,12.2006471 19.679643,12.1310749 C20.086173,11.849718 20.498013,11.5739557 20.887353,11.2694984 C21.440133,10.8371761 21.921183,10.3329354 22.302693,9.73791707 C22.335813,9.68630189 22.397103,9.64768074 22.452903,9.61618825 C23.611473,8.95980917 24.603003,8.11492638 25.381593,7.02640549 C25.769673,6.48372418 25.965963,5.87246326 26.069103,5.21843032 C26.182143,4.50204407 26.307243,3.78601876 26.582373,3.10870485 C26.648163,2.9469111 26.726283,2.78809515 26.816193,2.63839308 C27.190143,2.01621356 27.749763,1.81372323 28.439163,2.04554037 C28.924083,2.20841695 29.262123,2.54833722 29.500083,2.98453965 C30.038193,3.97109348 30.174813,5.01810566 29.913273,6.11195049 C29.663073,7.15751888 29.236923,8.13631239 28.757403,9.09308823 C28.158363,10.288088 27.473733,11.4310214 26.661573,12.4943663 C26.491473,12.7175208 26.305083,12.9282226 26.124543,13.1434363 C26.097453,13.1759214 26.064513,13.2047068 26.030133,13.2300632 C25.870563,13.3484532 25.835553,13.4969822 25.931583,13.6679801 C26.513973,14.7038932 26.980713,15.7916922 27.374823,16.9116153 C27.762003,18.0107841 28.052433,19.1343167 28.209933,20.2907855 C28.327833,21.1566934 28.335213,22.0263009 28.286523,22.8971718 C28.224603,24.0005817 28.067643,25.086215 27.671283,26.125918 C27.069993,27.7029784 25.960473,28.7777834 24.425973,29.4350648 C23.546583,29.8117113 22.626603,30.0351365 21.685473,30.1824021 C20.637063,30.3464518 19.581363,30.4153021 18.521073,30.429018 C18.349713,30.431274 18.178533,30.429379 18.007173,30.429379" id="Fill-10" fill="#FFFFFF"></path>
                </g>
                <g id="Group-15" transform="translate(1.014085, 16.732394)">
                    <mask id="mask-4" fill="white">
                        <use xlink:href="#path-3"></use>
                    </mask>
                    <g id="Clip-14"></g>
                    <path d="M0.0157231388,10.8415863 C0.0587830986,10.8356188 0.0737915493,10.8340817 0.088621328,10.8318213 C1.17521529,10.6647314 2.26457867,10.5994506 3.3565328,10.7726889 C4.07541972,10.8868851 4.74874527,11.1199791 5.34068571,11.566366 C5.54472918,11.7202551 5.76029698,11.8604009 5.97925956,11.9922283 C6.7510334,12.4569698 7.5623831,12.8085096 8.47664789,12.846575 C8.7736008,12.8589621 9.0665336,12.8321083 9.3540169,12.7413301 C9.34767404,12.7293951 9.34704869,12.724603 9.34392193,12.7225234 C9.32819879,12.7116734 9.31202897,12.700733 9.29559115,12.6903351 C7.95197746,11.8475617 7.07898592,10.6399573 6.60077022,9.12665419 C6.33901569,8.29907082 6.20009819,7.44861204 6.13247082,6.58431951 C6.06457545,5.71722407 6.04215211,4.84967655 6.11996378,3.98258111 C6.22511227,2.81376539 6.4747171,1.67433507 6.82187686,0.555610164 C6.87235171,0.393402738 6.9241666,0.231556978 6.97553481,0.0696208017 C6.96820926,0.0660041367 6.96115171,0.0624778883 6.95364748,0.0590420565 C4.64493682,3.64704501 2.33622616,7.23504797 0.0157231388,10.8415863" id="Fill-13" fill="url(#linearGradient-5)" mask="url(#mask-4)"></path>
                </g>
                <g id="Group-18" transform="translate(25.605634, 16.732394)">
                    <mask id="mask-7" fill="white">
                        <use xlink:href="#path-6"></use>
                    </mask>
                    <g id="Clip-17"></g>
                    <path d="M2.43628249,0.183997833 C2.59297787,0.731560918 2.76450302,1.2753265 2.90288451,1.82777209 C3.13837425,2.77027499 3.27961449,3.72932414 3.30739799,4.70220703 C3.33089336,5.53223166 3.29649899,6.36044795 3.19751469,7.18522841 C3.09951308,8.00322762 2.93120402,8.80413809 2.63693119,9.57448774 C2.29486358,10.4702452 1.80574889,11.2713366 1.09936901,11.9184483 C0.774007243,12.2166424 0.414608451,12.4764093 0.0701287726,12.7536267 C0.0732555332,12.7546213 0.094338833,12.763663 0.116136821,12.7689071 C0.651170221,12.90191 1.18271952,12.8614033 1.71069537,12.727858 C2.5719839,12.5106772 3.33151871,12.0818312 4.04424145,11.5616643 C4.45715252,11.2602153 4.90642334,11.0432154 5.39589537,10.90967 C6.43514125,10.6261235 7.49046761,10.6337185 8.55008209,10.7360701 C8.81424869,10.7615676 9.07671791,10.8010797 9.35857304,10.8364326 C7.04182213,7.23586172 4.73400483,3.64867251 2.42574085,0.0616641387 C2.41510986,0.1103987 2.42574085,0.147017433 2.43628249,0.183997833" id="Fill-16" fill="url(#linearGradient-8)" mask="url(#mask-7)"></path>
                </g>
                <g id="Group-25" transform="translate(11.154930, 3.549296)" fill="#FFFFFF">
                    <path d="M0.00862630986,26.4656621 C2.07275983,27.3778889 4.24922349,27.5462015 6.43401786,27.5983648 C6.43401786,27.7881564 6.44351307,27.9633278 6.43240546,28.1371455 C6.374628,29.0636315 6.23775363,29.9764901 5.94143138,30.8590254 C5.78180434,31.3341812 5.57031194,31.7829846 5.27828941,32.1934325 C4.32366237,33.5337057 2.63405223,33.3608808 1.75108715,32.4667035 C1.27874518,31.9881183 0.96970293,31.4135092 0.731874761,30.7928736 C0.436179549,30.0205312 0.255322648,29.2179556 0.156249972,28.3990452 C0.0872753239,27.8300315 0.0561023662,27.2564151 0.00952208451,26.6846037 C0.00423701408,26.6189934 0.00862630986,26.5524806 0.00862630986,26.4656621" id="Fill-19"></path>
                    <path d="M13.4252613,26.5588251 C13.4129892,26.8168441 13.4062709,27.0572648 13.389072,27.2968733 C13.3224264,28.2134321 13.1974658,29.1208758 12.9515757,30.0080138 C12.7431289,30.7606822 12.4674095,31.483659 11.9889762,32.1101607 C11.5646478,32.6660884 11.0296016,33.04513 10.3211334,33.1410637 C9.4931689,33.252881 8.82841454,32.9723901 8.32176439,32.308255 C7.92269679,31.7850873 7.69534918,31.1805159 7.52900383,30.551036 C7.29431087,29.6638079 7.18843031,28.7586203 7.175352,27.84152 C7.17436665,27.7646287 7.175352,27.6879179 7.175352,27.5980309 C9.30648946,27.549658 11.4100371,27.3889263 13.4252613,26.5588251" id="Fill-21"></path>
                    <path d="M6.87460462,5.29713401 C6.87532124,5.2837773 6.87567955,5.27014985 6.87630659,5.25679315 C7.25611504,5.25679315 7.63610265,5.26527646 8.01573194,5.25480769 C8.60918265,5.2384728 9.19976687,5.18820466 9.76956913,5.00202302 C10.6471595,4.71548559 11.0956739,4.16533372 11.1663505,3.28983778 C11.2348773,2.44818484 10.8455736,1.77150526 10.0853297,1.41872579 C9.57357363,1.18137352 9.0255387,1.09320122 8.47087504,1.06639756 C7.33198715,1.01197801 6.19229307,0.997267583 5.05421138,1.08607162 C4.58545251,1.12262207 4.12511392,1.21250909 3.69281307,1.41087421 C2.99590039,1.73062291 2.62110828,2.27301345 2.59145814,3.04752187 C2.55679166,3.95622908 2.95747166,4.60059987 3.80048518,4.92431948 C4.12941363,5.05084719 4.48387166,5.14271966 4.83358208,5.17746515 C5.51123561,5.24469992 6.19390546,5.26022257 6.87460462,5.29713401 M7.07060011,0.0470462875 C7.83129194,0.0493024878 8.76809307,0.14577761 9.67542321,0.447025467 C10.3274576,0.663530442 10.9287015,0.97109566 11.4046266,1.48343361 C12.4470395,2.60602861 12.2968181,4.34727371 11.0787438,5.3112127 C10.4810829,5.78429277 9.79079899,6.05106588 9.05877194,6.21685148 C7.96736011,6.46386028 6.86403448,6.49860576 5.75408011,6.38805195 C4.97905589,6.31079966 4.22427617,6.14826299 3.51267279,5.81867726 C2.95487392,5.5604777 2.46121251,5.21654254 2.10773983,4.69924094 C1.37186096,3.62176996 1.56588575,2.15893996 2.55714997,1.28633196 C3.10966377,0.799804937 3.76501251,0.520487347 4.46479166,0.333222727 C5.2564773,0.1213204 6.06455561,0.0468657915 7.07060011,0.0470462875" id="Fill-23"></path>
                </g>
                <g id="Group-28" transform="translate(14.450704, 9.887324)">
                    <mask id="mask-10" fill="white">
                        <use xlink:href="#path-9"></use>
                    </mask>
                    <g id="Clip-27"></g>
                    <path d="M0.101700239,0.0759240661 C0.767705023,0.730317208 1.50178262,1.29238457 2.38027638,1.65710227 C2.95685039,1.89624985 3.55478235,2.02552358 4.18488759,1.94439682 C4.37283763,1.92014697 4.55797024,1.87288181 4.76873239,1.83143662 C4.71356524,1.72993999 4.68584534,1.64687324 4.63167792,1.58576363 C4.42446027,1.3519951 4.21088068,1.12360563 3.99539251,0.896891611 C3.90541642,0.802096754 3.81825777,0.683933864 3.70374276,0.63684507 C3.62094659,0.603071647 3.52279086,0.605099816 3.42463513,0.607216167 C3.38255541,0.608097979 3.3403848,0.608979792 3.29948658,0.606951623 C3.26813128,0.605452541 3.23650332,0.60606981 3.20487537,0.605452541 C2.40817805,0.586758114 1.620751,0.499282303 0.850773851,0.292409063 C0.595114536,0.223539498 0.344726548,0.135534599 0.0903396226,0.0559069198 C0.0946112145,0.0638432333 0.0970651076,0.0713386405 0.101700239,0.0759240661" id="Fill-26" fill="url(#linearGradient-11)" mask="url(#mask-10)"></path>
                </g>
                <g id="Group-31" transform="translate(19.014085, 9.887324)">
                    <mask id="mask-13" fill="white">
                        <use xlink:href="#path-12"></use>
                    </mask>
                    <g id="Clip-30"></g>
                    <path d="M0.00262910798,0.579459818 C0.257183099,0.880642916 0.509953052,1.17932063 0.769671362,1.48676719 C1.26723005,1.21117481 2.31962441,0.328473902 2.45239437,0.0629030655 C1.65521127,0.363012428 0.830328638,0.509130075 0.00262910798,0.579459818" id="Fill-29" fill="url(#linearGradient-14)" mask="url(#mask-13)"></path>
                </g>
                <g id="Group-34" transform="translate(11.915493, 6.084507)">
                    <mask id="mask-16" fill="white">
                        <use xlink:href="#path-15"></use>
                    </mask>
                    <g id="Clip-33"></g>
                    <path d="M0.0197022133,0.758112676 C0.0227444668,1.09250704 0.206293763,1.37661972 0.469810865,1.43695775 C0.359637827,0.973183099 0.343847082,0.508140845 0.409979879,0.0363380282 C0.18738833,0.0967605634 0.0167323944,0.420169014 0.0197022133,0.758112676" id="Fill-32" fill="url(#linearGradient-17)" mask="url(#mask-16)"></path>
                </g>
                <g id="Group-37" transform="translate(23.830986, 6.084507)">
                    <mask id="mask-19" fill="white">
                        <use xlink:href="#path-18"></use>
                    </mask>
                    <g id="Clip-36"></g>
                    <path d="M0.0130140845,1.50743662 C0.280478873,1.3998169 0.440197183,1.11432042 0.441549296,0.763035211 C0.442478873,0.414411972 0.291633803,0.0846126761 0.0896619718,0.00342253521 C0.150929577,0.505869718 0.137239437,1.00194718 0.0130140845,1.50743662" id="Fill-35" fill="url(#linearGradient-20)" mask="url(#mask-19)"></path>
                </g>
                <path d="M17.7868721,8.27141431 C18.5117223,8.24957608 19.0333914,8.24220568 19.5537114,8.21536286 C20.0010876,8.19197776 20.4440567,8.12737301 20.8649897,7.9575808 C21.176642,7.83192 21.4417039,7.64911585 21.5950566,7.33264355 C21.946014,6.60879733 21.6428163,5.78558719 20.9116701,5.47466544 C20.4784149,5.29049639 20.0205153,5.21952216 19.5575789,5.1980479 C18.4382389,5.14554517 17.3174598,5.12925749 16.1984795,5.21861223 C15.7985932,5.25082362 15.4060821,5.32880428 15.0352474,5.49723161 C14.521763,5.73071864 14.2765786,6.13190506 14.2740602,6.69888002 C14.2715418,7.27058659 14.5146576,7.67768753 15.0322792,7.91463229 C15.3364663,8.05412396 15.6568431,8.14193183 15.9869337,8.16668182 C16.653321,8.21663676 17.3215972,8.24529943 17.7868721,8.27141431 M17.9928414,8.87323944 C17.3093649,8.83602346 16.6239097,8.82037273 15.9434913,8.75258324 C15.592354,8.71755108 15.2365397,8.6250116 14.9061792,8.49734896 C14.0597261,8.17095847 13.6574113,7.52127123 13.6922192,6.60515763 C13.7219903,5.82416805 14.0983116,5.27730247 14.7981577,4.95491565 C15.2321325,4.75491389 15.6943493,4.66428525 16.1650208,4.62743324 C17.307746,4.53798751 18.4520901,4.55272831 19.5956248,4.60759685 C20.1525515,4.63462166 20.7028225,4.72352144 21.2166666,4.962923 C21.9800124,5.31852212 22.3709045,6.00078471 22.3020981,6.8493818 C22.2311331,7.73210111 21.7807888,8.28679206 20.8996177,8.57578459 C20.3274906,8.76341136 19.7344967,8.81409424 19.1386247,8.83065489 C18.7575364,8.84121004 18.3759084,8.83256574 17.9945503,8.83256574 C17.9939207,8.84603265 17.993561,8.85977253 17.9928414,8.87323944" id="Fill-38" fill="#2B50A5"></path>
                <g id="Group-42" transform="translate(14.197183, 5.070423)">
                    <mask id="mask-22" fill="white">
                        <use xlink:href="#path-21"></use>
                    </mask>
                    <g id="Clip-41"></g>
                    <path d="M1.97339034,0.140253521 C1.57083501,0.172478873 1.17570423,0.251028169 0.802394366,0.420394366 C0.285482897,0.655401408 0.0385714286,1.05904225 0.0361267606,1.62948592 C0.0335915493,2.20469014 0.27832998,2.61428169 0.799315895,2.85276761 C1.10562374,2.99302113 1.42813883,3.0813662 1.7604326,3.10626761 C2.43126761,3.15661972 3.10400402,3.1853662 3.57229376,3.21164085 C4.30207243,3.18966901 4.82722334,3.18225352 5.3510161,3.15515493 C5.80128773,3.13171831 6.24730382,3.06671831 6.67104628,2.89588732 C6.98477867,2.76945775 7.25160966,2.58553521 7.40598592,2.26703521 C7.75928571,1.53885211 7.45397384,0.710514085 6.71794769,0.39778169 C6.28189135,0.212485915 5.82093561,0.141169014 5.35490946,0.119471831 C4.79996982,0.093471831 4.24475855,0.0762605634 3.68945674,0.0763521127 C3.11731388,0.0763521127 2.54508048,0.0945704225 1.97339034,0.140253521" id="Fill-40" fill="url(#linearGradient-23)" mask="url(#mask-22)"></path>
                </g>
                <g id="Group-58">
                    <path d="M12.309759,20.1455231 C12.309759,19.8928614 12.140019,19.7140129 11.883069,19.7140129 L11.469339,19.7140129 L11.469339,20.5768528 L11.883069,20.5768528 C12.140019,20.5768528 12.309759,20.3983653 12.309759,20.1455231 M13.313889,20.1433574 C13.313889,20.8889802 12.753909,21.4324737 12.000339,21.4324737 L11.469339,21.4324737 L11.469339,22.4144254 L10.490229,22.4144254 L10.490229,18.8586627 L12.000339,18.8586627 C12.753909,18.8586627 13.313889,19.3978248 13.313889,20.1433574" id="Fill-43" fill="#3399FD"></path>
                    <path d="M14.735007,20.5011806 L15.181047,20.5011806 C15.454287,20.5011806 15.611607,20.336409 15.611607,20.1141569 C15.611607,19.8919048 15.454287,19.7291185 15.181047,19.7291185 L14.735007,19.7291185 L14.735007,20.5011806 Z M15.089337,21.3264821 L14.735007,21.3264821 L14.735007,22.4143713 L13.757787,22.4143713 L13.757787,18.8586988 L15.294987,18.8586988 C16.059717,18.8586988 16.614027,19.3738581 16.614027,20.1170445 C16.614027,20.5533372 16.401537,20.9109438 16.050897,21.1212847 L16.755057,22.4143713 L15.664437,22.4143713 L15.089337,21.3264821 Z" id="Fill-45" fill="#3399FD"></path>
                    <mask id="mask-25" fill="white">
                        <use xlink:href="#path-24"></use>
                    </mask>
                    <g id="Clip-48"></g>
                    <polygon id="Fill-47" fill="#3399FD" mask="url(#mask-25)" points="17.18253 22.4143442 18.17262 22.4143442 18.17262 18.8586718 17.18253 18.8586718"></polygon>
                    <polygon id="Fill-49" fill="#3399FD" mask="url(#mask-25)" points="22.023387 18.8586898 22.023387 22.4143623 21.215097 22.4143623 19.806147 20.4847485 19.806147 22.4143623 18.859257 22.4143623 18.859257 18.8586898 19.714707 18.8586898 21.076497 20.7242358 21.076497 18.8586898"></polygon>
                    <polygon id="Fill-50" fill="#3399FD" mask="url(#mask-25)" points="25.3692 19.7406056 24.40602 19.7406056 24.40602 22.4143984 23.42466 22.4143984 23.42466 19.7406056 22.46103 19.7406056 22.46103 18.8587259 25.3692 18.8587259"></polygon>
                    <polygon id="Fill-51" fill="#3399FD" mask="url(#mask-25)" points="14.014746 23.3520892 14.014746 26.9077617 13.029066 26.9077617 13.029066 25.5428469 11.964816 25.5428469 11.964816 26.9077617 10.979046 26.9077617 10.979046 23.3520892 11.964816 23.3520892 11.964816 24.6349792 13.029066 24.6349792 13.029066 23.3520892"></polygon>
                    <polygon id="Fill-52" fill="#3399FD" mask="url(#mask-25)" points="17.009883 26.0582047 17.009883 26.9077798 14.697693 26.9077798 14.697693 23.3521073 16.966863 23.3521073 16.966863 24.198885 15.670143 24.198885 15.670143 24.7224362 16.835463 24.7224362 16.835463 25.5259908 15.670143 25.5259908 15.670143 26.0582047"></polygon>
                    <path d="M18.547218,24.9946702 L18.993168,24.9946702 C19.266588,24.9946702 19.423818,24.8298085 19.423818,24.6075564 C19.423818,24.3853043 19.266588,24.2225179 18.993168,24.2225179 L18.547218,24.2225179 L18.547218,24.9946702 Z M18.901548,25.8198815 L18.547218,25.8198815 L18.547218,26.9077707 L17.569908,26.9077707 L17.569908,23.3520983 L19.107288,23.3520983 C19.871658,23.3520983 20.425968,23.8672575 20.425968,24.6105342 C20.425968,25.0468268 20.213478,25.4043432 19.863198,25.6147743 L20.566998,26.9077707 L19.476558,26.9077707 L18.901548,25.8198815 Z" id="Fill-53" fill="#3399FD" mask="url(#mask-25)"></path>
                    <path d="M22.732659,26.0864035 C23.272389,26.0864035 23.663439,25.6864761 23.663439,25.1300789 C23.663439,24.5737719 23.272389,24.1740249 22.732659,24.1740249 C22.193109,24.1740249 21.796299,24.5765692 21.796299,25.1300789 C21.796299,25.6836788 22.193109,26.0863133 22.732659,26.0863133 L22.732659,26.0864035 Z M20.778939,25.1298984 C20.778939,24.0432725 21.592539,23.2621868 22.732659,23.2621868 C23.869809,23.2621868 24.680259,24.0403849 24.680259,25.1298984 C24.680259,26.2197728 23.869809,26.997971 22.732659,26.997971 C21.592539,26.997971 20.778939,26.216795 20.778939,25.1298984 Z" id="Fill-54" fill="#3399FD" mask="url(#mask-25)"></path>
                    <path d="M16.582383,6.38399499 C16.507053,6.81649773 16.190613,7.16724636 15.875703,7.16724636 C15.560883,7.16724636 15.367203,6.81649773 15.442803,6.38399499 C15.517953,5.95158248 15.834303,5.60092409 16.149303,5.60092409 C16.464123,5.60092409 16.657983,5.95158248 16.582383,6.38399499" id="Fill-55" fill="#2B50A5" mask="url(#mask-25)"></path>
                    <path d="M20.674701,6.38399499 C20.599191,6.81649773 20.283111,7.16724636 19.967931,7.16724636 C19.653201,7.16724636 19.459161,6.81649773 19.534761,6.38399499 C19.610451,5.95158248 19.926531,5.60092409 20.241441,5.60092409 C20.556261,5.60092409 20.749941,5.95158248 20.674701,6.38399499" id="Fill-56" fill="#2B50A5" mask="url(#mask-25)"></path>
                    <path d="M17.951634,7.72850733 C17.558154,7.72850733 17.164584,7.60885395 16.857684,7.36972767 C16.772814,7.3034942 16.757424,7.18086302 16.823844,7.09549945 C16.889634,7.0106773 17.012214,6.99524688 17.097264,7.06129988 C17.568414,7.42883247 18.335034,7.42883247 18.806274,7.06129988 C18.891504,6.99497618 19.013634,7.0106773 19.079694,7.09549945 C19.145934,7.18086302 19.130364,7.3034942 19.045674,7.36972767 C18.738774,7.60885395 18.345384,7.72850733 17.951634,7.72850733" id="Fill-57" fill="#2B50A5" mask="url(#mask-25)"></path>
                </g>
            </g>
        </g>
    </g>
</svg>