<?xml version="1.0" encoding="UTF-8"?>
<svg width="173px" height="45px" viewBox="0 0 173 45" version="1.1" xmlns="http://www.w3.org/2000/svg" xmlns:xlink="http://www.w3.org/1999/xlink">
    <!-- Generator: Sketch 52.6 (67491) - http://www.bohemiancoding.com/sketch -->
    <title>Group 66</title>
    <desc>Created with Sketch.</desc>
    <defs>
        <polygon id="path-1" points="0.196555172 0.108893855 33.9679345 0.108893855 33.9679345 34.5000313 0.196555172 34.5000313"></polygon>
        <polygon id="path-3" points="0 0.0555802219 41.8302427 0.0555802219 41.8302427 42.5251397 0 42.5251397"></polygon>
        <path d="M0.00693478261,12.5035714 C0.056673913,12.4964286 0.0741304348,12.4952381 0.0915869565,12.492381 C1.34893478,12.3019048 2.60867391,12.2278571 3.87247826,12.425 C4.70417391,12.5547619 5.48326087,12.82 6.16813043,13.3283333 C6.40415217,13.5033333 6.65380435,13.6628571 6.90680435,13.8128571 C7.80019565,14.3419048 8.73854348,14.7421429 9.79645652,14.7852381 C10.140087,14.7997619 10.4786957,14.7688095 10.8115652,14.6654762 C10.8041522,14.6519048 10.8034348,14.6466667 10.8003261,14.6442857 C10.781913,14.6314286 10.7630217,14.6195238 10.7436522,14.6080952 C9.18954348,13.6488095 8.17921739,12.2738095 7.6261087,10.5511905 C7.32336957,9.60928571 7.16243478,8.64119048 7.08423913,7.65738095 C7.00556522,6.67071429 6.97973913,5.68285714 7.0698913,4.69595238 C7.1916087,3.3652381 7.48023913,2.06857143 7.88173913,0.795238095 C7.94032609,0.610714286 8.00034783,0.426428571 8.05965217,0.242142857 C8.05128261,0.237857143 8.04291304,0.233571429 8.03430435,0.230238095 C5.36321739,4.31428571 2.69213043,8.39833333 0.00693478261,12.5035714" id="path-5"></path>
        <linearGradient x1="50.0005838%" y1="-42.1543685%" x2="50.0005838%" y2="105.799199%" id="linearGradient-7">
            <stop stop-color="#3BF7DF" offset="0%"></stop>
            <stop stop-color="#4B85FD" offset="100%"></stop>
        </linearGradient>
        <path d="M2.80882609,0.371904762 C2.99008696,0.995238095 3.18880435,1.61452381 3.34878261,2.24357143 C3.62115217,3.31619048 3.78471739,4.40809524 3.81676087,5.515 C3.84378261,6.4597619 3.80408696,7.40238095 3.68954348,8.34142857 C3.57619565,9.27238095 3.38130435,10.1840476 3.04078261,11.0611905 C2.6455,12.0807143 2.079,12.992619 1.2618913,13.7290476 C0.88526087,14.0685714 0.469413043,14.3638095 0.0712608696,14.6797619 C0.0748478261,14.6809524 0.099,14.6909524 0.124347826,14.6969048 C0.743217391,14.8485714 1.35826087,14.802381 1.969,14.6504762 C2.96569565,14.4030952 3.84521739,13.915 4.66926087,13.3230952 C5.14728261,12.98 5.66691304,12.7330952 6.23341304,12.5807143 C7.43528261,12.2580952 8.65676087,12.2664286 9.88254348,12.3833333 C10.1881522,12.4121429 10.4918478,12.457381 10.8182609,12.497381 C8.1376087,8.39904762 5.467,4.31619048 2.79686957,0.232619048 C2.78419565,0.288095238 2.79686957,0.33047619 2.80882609,0.371904762" id="path-8"></path>
        <linearGradient x1="49.9994506%" y1="-42.1779945%" x2="49.9994506%" y2="105.788279%" id="linearGradient-10">
            <stop stop-color="#3BF7DF" offset="0%"></stop>
            <stop stop-color="#4B85FD" offset="100%"></stop>
        </linearGradient>
        <path d="M0.184434783,0.211090909 C1.01086957,1.08545455 1.92156522,1.83681818 3.01147826,2.32472727 C3.72678261,2.64409091 4.46895652,2.81727273 5.25052174,2.70845455 C5.48373913,2.67627273 5.71330435,2.613 5.97469565,2.55790909 C5.90634783,2.42181818 5.87217391,2.31081818 5.80486957,2.229 C5.54817391,1.917 5.2826087,1.61127273 5.01521739,1.30827273 C4.90382609,1.18172727 4.79556522,1.02381818 4.6533913,0.960545455 C4.55113043,0.915545455 4.42956522,0.918272727 4.308,0.921 C4.25556522,0.922363636 4.20286957,0.923454545 4.152,0.921 C4.11286957,0.918545455 4.07373913,0.919636364 4.0346087,0.918545455 C3.04591304,0.894 2.06895652,0.776727273 1.11391304,0.499636364 C0.796695652,0.408272727 0.486,0.290454545 0.170347826,0.184363636 C0.175826087,0.194454545 0.178956522,0.204545455 0.184434783,0.211090909" id="path-11"></path>
        <linearGradient x1="50.0009596%" y1="-349.066301%" x2="50.0009596%" y2="417.267216%" id="linearGradient-13">
            <stop stop-color="#3BF7DF" offset="0%"></stop>
            <stop stop-color="#4B85FD" offset="100%"></stop>
        </linearGradient>
        <path d="M0.195692308,0.8 C0.466153846,1.1635 0.734538462,1.5245 1.01030769,1.89575 C1.539,1.56275 2.65707692,0.4965 2.79830769,0.17625 C1.95115385,0.53825 1.07492308,0.71475 0.195692308,0.8" id="path-14"></path>
        <linearGradient x1="49.9956659%" y1="-476.15073%" x2="49.9956659%" y2="568.254038%" id="linearGradient-16">
            <stop stop-color="#3BF7DF" offset="0%"></stop>
            <stop stop-color="#4B85FD" offset="100%"></stop>
        </linearGradient>
        <path d="M0.235,1.031 C0.2395,1.45875 0.5135,1.822 0.9065,1.899 C0.7425,1.306 0.719,0.71125 0.81775,0.108 C0.4855,0.185 0.2305,0.59875 0.235,1.031" id="path-17"></path>
        <linearGradient x1="50.0136321%" y1="-202.151383%" x2="50.0136321%" y2="800.652655%" id="linearGradient-19">
            <stop stop-color="#3BF7DF" offset="0%"></stop>
            <stop stop-color="#4B85FD" offset="100%"></stop>
        </linearGradient>
        <path d="M0.126333333,1.883 C0.582,1.76075 0.854666667,1.43625 0.857,1.03675 C0.858666667,0.64075 0.601666667,0.26575 0.257333333,0.1735 C0.361333333,0.745 0.338333333,1.3085 0.126333333,1.883" id="path-20"></path>
        <linearGradient x1="50.0119073%" y1="-215.648994%" x2="50.0119073%" y2="835.107081%" id="linearGradient-22">
            <stop stop-color="#3BF7DF" offset="0%"></stop>
            <stop stop-color="#4B85FD" offset="100%"></stop>
        </linearGradient>
        <path d="M2.33675,0.18025 C1.8565,0.21825 1.38475,0.31125 0.93925,0.511 C0.32225,0.788 0.02775,1.26475 0.0245,1.93825 C0.02175,2.61725 0.31375,3.10075 0.93575,3.38175 C1.301,3.54775 1.686,3.65175 2.0825,3.6815 C2.8835,3.741 3.686,3.775 4.24525,3.80575 C5.11625,3.77975 5.7425,3.77075 6.36775,3.73925 C6.9055,3.71125 7.43775,3.6345 7.9435,3.433 C8.318,3.28375 8.63625,3.0665 8.8205,2.69075 C9.24225,1.831 8.878,0.85325 7.99975,0.4845 C7.479,0.26575 6.92925,0.18175 6.37275,0.15575 C5.7105,0.12525 5.04825,0.105 4.38575,0.105 C3.70275,0.105 3.0195,0.1265 2.33675,0.18025" id="path-23"></path>
        <linearGradient x1="0.339421749%" y1="49.9979565%" x2="166.50566%" y2="49.9979565%" id="linearGradient-25">
            <stop stop-color="#3BF7DF" offset="0%"></stop>
            <stop stop-color="#4B85FD" offset="100%"></stop>
        </linearGradient>
        <polygon id="path-26" points="0 43.7555556 172.95085 43.7555556 172.95085 0.108288889 0 0.108288889"></polygon>
    </defs>
    <g id="Welcome" stroke="none" stroke-width="1" fill="none" fill-rule="evenodd">
        <g id="메인수정" transform="translate(-235.000000, -8.000000)">
            <g id="Group-66" transform="translate(235.000000, 8.590909)">
                <g id="Group-13">
                    <g id="Group-3" transform="translate(3.862069, 0.000000)">
                        <mask id="mask-2" fill="white">
                            <use xlink:href="#path-1"></use>
                        </mask>
                        <g id="Clip-2"></g>
                        <path d="M33.9679345,17.3048804 C33.9679345,7.80751732 26.4081759,0.108746369 17.0822448,0.108746369 C7.75679655,0.108746369 0.196555172,7.80751732 0.196555172,17.3048804 C0.196555172,26.8015061 7.75679655,34.5000313 17.0822448,34.5000313 C26.4081759,34.5000313 33.9679345,26.8015061 33.9679345,17.3048804" id="Fill-1" fill="#3399FD" mask="url(#mask-2)"></path>
                    </g>
                    <path d="M20.8998517,39.3725765 C20.9360586,39.5473475 20.9643,39.691638 20.9964034,39.8344536 C21.1769552,40.6399732 21.4253345,41.4194369 21.8470241,42.1315486 C22.208369,42.7414034 22.6681966,43.2512134 23.3129207,43.5594592 C24.5079897,44.1297385 26.0571621,43.8303419 27.0369207,42.8525095 C27.6628172,42.2276603 28.0816103,41.4727777 28.3927483,40.6502972 C28.9329552,39.2209117 29.1581621,37.725895 29.2624379,36.2070346 C29.2803,35.9442637 29.2897138,35.6805095 29.3029897,35.4152804 C29.3319552,35.4177385 29.3459552,35.4165095 29.3580241,35.4206883 C30.2236103,35.7200849 31.0916103,35.6660067 31.9581621,35.4305207 C33.0018862,35.1471017 33.9311966,34.6240179 34.7984724,33.9829453 C35.2479207,33.6496268 35.7403345,33.4252022 36.2754724,33.2902525 C37.4645069,32.9903642 38.6663345,33.0218279 39.8688862,33.1700514 C40.3294379,33.2263419 40.7858862,33.3224536 41.2433,33.4040626 C41.3948862,33.4311017 41.5247483,33.3998838 41.6143,33.2686212 C41.7069897,33.1336715 41.6983,32.9930682 41.6063345,32.8576268 C41.5855759,32.8273922 41.5677138,32.7956827 41.5479207,32.7644648 C41.1537483,32.1484648 40.7590931,31.5327106 40.3651621,30.9164648 C37.7447483,26.8183196 35.1245759,22.7201743 32.5041621,18.6222749 C31.9506793,17.7560402 31.3964724,16.8900514 30.8420241,16.0238168 C31.0421276,15.7755486 31.2451276,15.5353922 31.4353345,15.2851575 C32.5350586,13.8346324 33.4424034,12.2646436 34.2206103,10.6155039 C34.6970931,9.60424134 35.1146793,8.5691352 35.3756103,7.47454302 C35.7171621,6.03999553 35.5706448,4.65928045 34.8976793,3.35329162 C34.4129897,2.41257654 33.6830586,1.78625251 32.5961276,1.69604022 C31.9639552,1.64343687 31.410231,1.82459888 30.9566793,2.28917989 C30.5388517,2.7171352 30.2960241,3.24833073 30.1087138,3.80976089 C29.8393345,4.61749274 29.6974034,5.45644246 29.5648862,6.29539218 C29.4688172,6.90254302 29.2559207,7.45315754 28.9093,7.95239777 C28.8878172,7.98312402 28.862231,8.01090056 28.8262655,8.05637542 C28.8064724,7.92904581 28.795369,7.82457654 28.7726793,7.72256536 C28.6128862,7.0072581 28.0847483,6.56135866 27.5583,6.50678883 C27.5175069,6.50285587 27.4648862,6.45369385 27.4463,6.41288939 C27.1177828,5.67226369 26.5935069,5.1078838 25.9297138,4.67452067 C24.9036103,4.00345922 23.7558517,3.70455419 22.5615069,3.56198436 C21.5303345,3.43883352 20.4986793,3.44055419 19.4667828,3.55854302 C18.4920931,3.66989497 17.5458862,3.89382793 16.6602655,4.33481117 C15.8144724,4.75612961 15.0997483,5.33329162 14.6611621,6.20370503 C14.5609897,6.4035486 14.4668517,6.55275531 14.2240241,6.52374972 C14.2158172,6.52301229 14.2066448,6.52891173 14.1981966,6.53136983 C13.6316793,6.68180559 13.3063,7.07657654 13.1385414,7.62547039 C13.1011276,7.74812961 13.0854379,7.87767151 13.0559897,8.02196201 C12.7221621,7.59326927 12.4380586,7.16408492 12.3410241,6.62920223 C12.2143,5.93429721 12.0880586,5.23816313 11.9359897,4.5481743 C11.7882655,3.87785028 11.5746448,3.22915754 11.1848172,2.65568268 C10.6453345,1.86073296 9.90092069,1.56305698 8.97402414,1.72627486 C8.1880931,1.86392849 7.60178276,2.31425251 7.16367931,2.97228603 C6.56023103,3.87981676 6.31981724,4.90189497 6.29036897,5.98321341 C6.26719655,6.8140514 6.46633448,7.60555978 6.72292069,8.3835486 C7.19698966,9.82202905 7.85354138,11.1759508 8.59674828,12.4873475 C9.28347241,13.6996827 10.0334379,14.8685095 10.9473,15.9200849 C11.0206793,16.0051352 10.9683,16.0503642 10.9308862,16.1083754 C10.1871966,17.2717944 9.44278276,18.434476 8.69885172,19.5974034 C6.26574828,23.4027888 3.83240345,27.2081743 1.39881724,31.0135598 C1.00995517,31.6219397 0.620368966,32.2298279 0.231506897,32.8386994 C0.111058621,33.0274816 0.126748276,33.2113475 0.271093103,33.3347441 C0.383817241,33.4318391 0.5103,33.419057 0.6433,33.3912804 C2.03967931,33.0963084 3.44571379,32.9566883 4.86816207,33.1548112 C5.65457586,33.2641966 6.39585172,33.4989453 7.04540345,33.9940067 C7.57716207,34.3998391 8.15019655,34.7410235 8.75654138,35.0205095 C9.5543,35.3884872 10.382231,35.6365095 11.2654379,35.6193028 C11.614231,35.6124201 11.9618172,35.5494927 12.3137483,35.5113922 C12.3144724,35.5261408 12.3195414,35.5627665 12.3207483,35.5989006 C12.3649207,36.8982525 12.5169897,38.1826101 12.8387483,39.4426324 C13.0779552,40.381381 13.4059897,41.2832581 13.948369,42.0904983 C14.5863345,43.0412916 15.425369,43.6840849 16.5791621,43.8180514 C17.7344034,43.9517721 18.7064379,43.5801073 19.4716103,42.6829006 C20.0670931,41.9848 20.4154034,41.1551911 20.6671621,40.279124 C20.7504379,39.989314 20.8173,39.6943419 20.8998517,39.3725765" id="Fill-4" fill="#FFFFFF"></path>
                    <path d="M27.608869,8.97998212 C27.9388345,8.85978101 28.1362828,8.54071955 28.137731,8.14791508 C28.1389379,7.75855196 27.9528345,7.38983687 27.7034897,7.29913296 C27.7790414,7.86080894 27.7621448,8.41511061 27.608869,8.97998212 M14.3069379,7.23448492 C13.9859034,7.31044022 13.7399379,7.71701006 13.7442828,8.14226145 C13.7486276,8.56284246 14.0129379,8.91975866 14.3926276,8.99546816 C14.2340414,8.41265251 14.2115931,7.82787039 14.3069379,7.23448492 M23.0224207,13.4170994 C23.5751793,13.0896804 24.7449034,12.0413006 24.8923862,11.7264179 C24.0065241,12.0823508 23.0900069,12.2558927 22.1701103,12.3394682 C22.4532483,12.6971218 22.733731,13.0518257 23.0224207,13.4170994 M17.0540759,11.7192894 C17.0591448,11.7283844 17.0620414,11.7374793 17.0671103,11.743133 C17.8318,12.5314458 18.6744552,13.2086525 19.6831793,13.6481609 C20.3450414,13.9362503 21.0315241,14.0923397 21.7549379,13.9942615 C21.970731,13.9652559 22.1829034,13.9082279 22.4250069,13.8585743 C22.3615241,13.7359151 22.3299034,13.6358704 22.267869,13.5623732 C22.0301103,13.2806749 21.7846276,13.0053676 21.5369724,12.7322726 C21.4339034,12.6182168 21.333731,12.4756469 21.2024207,12.4188648 C21.0667655,12.360362 20.8946621,12.3908425 20.7384897,12.3829765 C20.7022828,12.3810101 20.6660759,12.3817475 20.6296276,12.3810101 C19.7148,12.3586413 18.8108345,12.2531888 17.9273862,12.0034458 C17.6336276,11.9210994 17.3461448,11.8149095 17.0540759,11.7192894 M21.2212483,4.16284246 C20.0493517,4.16284246 19.1079724,4.25035084 18.1861448,4.50009385 C17.3712483,4.72058547 16.6077655,5.04947933 15.9637655,5.62197095 C14.809731,6.64921117 14.5838,8.37160223 15.4406966,9.64022793 C15.8522483,10.2493453 16.4274552,10.6541944 17.0770069,10.9580156 C17.9061448,11.3459039 18.7850069,11.5373899 19.6877655,11.6283397 C20.9808345,11.758619 22.2659379,11.7178145 23.5368,11.4270212 C24.3895931,11.2316022 25.193869,10.9177028 25.8897655,10.3604514 C27.3085931,9.22579218 27.4838345,7.17573631 26.2694552,5.85426145 C25.7150069,5.25104358 25.0147655,4.88847374 24.2553862,4.63430615 C23.1983862,4.27935642 22.1071103,4.16554637 21.2212483,4.16284246 M28.6231448,35.3765408 C26.275731,36.3533899 23.8254897,36.5426637 21.3431448,36.5994458 C21.3431448,36.7053899 21.3419379,36.795848 21.3431448,36.886552 C21.3583517,37.9659039 21.4819379,39.0319821 21.7549379,40.0761832 C21.9492483,40.8175464 22.2138,41.5289207 22.6786966,42.1449207 C23.2686276,42.9270883 24.0429724,43.2572112 25.0072828,43.125457 C25.8328,43.012876 26.4558,42.5667307 26.9501448,41.9121385 C27.5072483,41.1747084 27.8282828,40.3229765 28.0713517,39.4370771 C28.3576276,38.3923844 28.5031793,37.3243397 28.5809034,36.2452335 C28.6006966,35.9632894 28.6086621,35.6798704 28.6231448,35.3765408 M12.9955241,35.2664179 C12.9955241,35.3686749 12.9904552,35.4468425 12.996731,35.5240268 C13.0510414,36.1975464 13.0874897,36.8727866 13.1676276,37.542619 C13.2832483,38.506686 13.4934897,39.4518257 13.8381793,40.3608313 C14.1152828,41.0918704 14.4749379,41.7683397 15.0255241,42.3317363 C16.0538,43.384295 18.0220069,43.5878257 19.1338,42.0099709 C19.4739034,41.5269542 19.7203517,40.9982168 19.9059724,40.4392447 C20.2511448,39.4002056 20.4106966,38.3250324 20.4780414,37.234619 C20.4908345,37.0298592 20.4799724,36.8236246 20.4799724,36.5999374 C17.9351103,36.5384849 15.3999034,36.340362 12.9955241,35.2664179 M29.7614897,34.8202726 C29.7651103,34.8215017 29.789731,34.8318257 29.8150759,34.8379709 C30.4400069,34.9943061 31.0608345,34.9468648 31.6773172,34.790038 C32.6831448,34.5346413 33.5709379,34.0307307 34.402731,33.4196469 C34.8852483,33.0651888 35.4100069,32.8102838 35.9815931,32.6532112 C37.1950069,32.3198927 38.427731,32.3284961 39.6652828,32.4494346 C39.9737655,32.4791777 40.2803172,32.5256358 40.6095586,32.5671777 C37.9039379,28.3360492 35.2082138,24.1208983 32.512731,19.9050101 C32.4999379,19.9625296 32.512731,20.0057922 32.5250414,20.0488089 C32.7080069,20.6923397 32.9085931,21.3314458 33.0700759,21.9811218 C33.3447655,23.0884961 33.509869,24.2155352 33.5422138,25.358552 C33.569731,26.3341721 33.5294207,27.3073341 33.4140414,28.2765631 C33.2993862,29.2376804 33.1029034,30.1788872 32.7591793,31.0844514 C32.3599379,32.1370101 31.7883517,33.0782168 30.9633172,33.8387531 C30.5833862,34.1892782 30.1633862,34.4940827 29.7614897,34.8202726 M9.34224828,19.9145966 C9.3338,19.9104179 9.32535172,19.9059933 9.31690345,19.902552 C6.62045517,24.1189318 3.92424828,28.3350659 1.21404138,32.5733229 C1.2640069,32.5661944 1.28162759,32.5647196 1.29924828,32.5620156 C2.56842069,32.3653676 3.84024828,32.2886749 5.11593793,32.4922056 C5.95521379,32.6264179 6.74162759,32.9004961 7.43317931,33.4250547 C7.67117931,33.6059709 7.92317931,33.7704179 8.1788,33.9250324 C9.08035172,34.4714682 10.0277655,34.8846749 11.0953862,34.9291665 C11.4422483,34.9441609 11.7842828,34.9122056 12.1202828,34.805524 C12.1128,34.7915128 12.1118345,34.7858592 12.1089379,34.7836469 C12.0901103,34.7703732 12.0712828,34.7580827 12.051731,34.746038 C10.4827655,33.7556693 9.46317931,32.336362 8.90486897,30.5579263 C8.59904138,29.5852559 8.43683448,28.586038 8.35790345,27.5703508 C8.27848966,26.5514682 8.25242069,25.531848 8.34342069,24.5129654 C8.46604138,23.1393788 8.75738621,21.8002056 9.16290345,20.4858592 C9.2218,20.2953564 9.28262759,20.1050994 9.34224828,19.9145966 M20.9236276,35.9006078 C21.1222828,35.9006078 21.3209379,35.9025743 21.5193517,35.9001162 C22.7486966,35.8836469 23.9724897,35.8025296 25.1880759,35.6093229 C26.278869,35.4362726 27.3457655,35.1727642 28.3646276,34.7295687 C30.1438345,33.955267 31.4299034,32.6895911 32.1272483,30.8327419 C32.5863517,29.6088536 32.7683517,28.3303955 32.8405241,27.0312894 C32.8967655,26.0057698 32.8883172,24.9819709 32.7512138,23.9623508 C32.568731,22.6003173 32.2320069,21.2771218 31.7835241,19.9834235 C31.3265931,18.6644067 30.7856621,17.3837363 30.1102828,16.163781 C29.9987655,15.9627084 30.0395586,15.7879374 30.2244552,15.6483173 C30.2642828,15.6183285 30.3026621,15.5844067 30.3340414,15.5463061 C30.5430759,15.2931218 30.7595931,15.0446078 30.9568,14.7820827 C31.8981793,13.5301721 32.6915931,12.184362 33.3862828,10.7768536 C33.9421793,9.65055196 34.4360414,8.49819441 34.7264207,7.26668603 C35.0291103,5.97888715 34.8710069,4.74614972 34.2470414,3.58420559 C33.9716276,3.07070838 33.5793862,2.6702838 33.0176966,2.47904358 C32.2180069,2.2059486 31.5694207,2.44413855 31.1359034,3.17665251 C31.031869,3.35338994 30.9411103,3.54020559 30.8648345,3.73095419 C30.545731,4.52787039 30.4006621,5.37124469 30.2698345,6.2148648 C30.1501103,6.98449609 29.9224897,7.70471955 29.4725586,8.3438257 C28.5698,9.62498771 27.4203517,10.6202726 26.0775586,11.3930994 C26.012869,11.4302168 25.9416621,11.4756916 25.9035241,11.5364067 C25.4608345,12.2369654 24.9034897,12.8308425 24.2626276,13.3396693 C23.8114897,13.6980603 23.3340414,14.0230212 22.8623862,14.3541274 C22.7460414,14.4362279 22.6125586,14.5043173 22.477869,14.5458592 C21.5707655,14.8221497 20.6706621,14.7530771 19.7913172,14.4320492 C18.2916276,13.8843844 17.1095931,12.8832 16.0904897,11.666686 C15.9688345,11.5216581 15.8440414,11.3930994 15.6992138,11.279781 C15.5485931,11.1622838 15.3970069,11.045524 15.2463862,10.9285184 C14.4034897,10.2712223 13.566869,9.60679777 12.8359724,8.81676425 C12.1970414,8.12726704 11.7294897,7.35665251 11.5976966,6.38889832 C11.5081448,5.73061899 11.3539034,5.0804514 11.2044897,4.4327419 C11.0970759,3.96644022 10.9261793,3.52029497 10.6693517,3.11372514 C10.315731,2.55352402 9.82669655,2.29542346 9.16386897,2.39448492 C8.52831724,2.4893676 8.06511034,2.84456313 7.72090345,3.37010503 C7.14255862,4.25526704 6.94052414,5.24809385 6.97383448,6.29573631 C6.99773103,7.02997095 7.21086897,7.72512179 7.45152414,8.40896536 C8.06342069,10.1480715 8.91186897,11.7667307 9.89042069,13.3168089 C10.4253172,14.164362 10.9949724,14.9868425 11.687731,15.7127196 C11.8019034,15.8326749 11.8105931,15.9870436 11.7241793,16.1450994 C10.9150759,17.6175017 10.2821793,19.1668425 9.7875931,20.7751777 C9.44628276,21.8864849 9.1938,23.0177028 9.06031724,24.1759598 C8.96714483,24.9863955 8.94976552,25.7983061 8.98066207,26.6126749 C9.02314483,27.7227531 9.13924828,28.8210324 9.42045517,29.8971888 C9.96983448,32.0040268 11.1547655,33.5870436 13.1026966,34.545457 C14.2849724,35.1272894 15.5430414,35.4394682 16.8332138,35.635133 C18.1892828,35.8413676 19.5545241,35.9025743 20.9236276,35.9006078 M20.8999724,39.3726749 C20.8174207,39.6941944 20.7503172,39.9891665 20.6672828,40.2792223 C20.4155241,41.1552894 20.0669724,41.9848983 19.471731,42.6827531 C18.7065586,43.5802056 17.7345241,43.9516246 16.5792828,43.8181497 C15.4254897,43.6841832 14.5864552,43.0411441 13.9482483,42.0903508 C13.4061103,41.2833564 13.0780759,40.3812335 12.838869,39.4427307 C12.5171103,38.1827084 12.3650414,36.898105 12.320869,35.5989989 C12.3196621,35.5628648 12.3145931,35.5259933 12.3136276,35.5114905 C11.9616966,35.5495911 11.6141103,35.6125184 11.2655586,35.6194011 C10.3823517,35.636362 9.55417931,35.3885855 8.75666207,35.0206078 C8.15031724,34.7411218 7.57704138,34.3996916 7.04528276,33.994105 C6.39597241,33.4990436 5.65469655,33.264295 4.86804138,33.1549095 C3.44583448,32.9567866 2.0398,33.0961609 0.64317931,33.3913788 C0.51017931,33.4191553 0.383937931,33.4319374 0.270972414,33.3345966 C0.126868966,33.2112 0.11117931,33.0273341 0.231627586,32.8387978 C0.620489655,32.2299263 1.00983448,31.6217922 1.39893793,31.0136581 C3.83228276,27.2080268 6.26586897,23.4028872 8.69873103,19.5972559 C9.44290345,18.4345743 10.1873172,17.2716469 10.9307655,16.1084737 C10.9684207,16.0504626 11.0208,16.0049877 10.9471793,15.9199374 C10.0335586,14.8686078 9.2835931,13.6995352 8.59662759,12.4874458 C7.85342069,11.1758034 7.19711034,9.82212737 6.7228,8.38364693 C6.46645517,7.6056581 6.26731724,6.81414972 6.29048966,5.98331173 C6.31969655,4.90174749 6.56011034,3.87966927 7.1638,2.97238436 C7.60166207,2.31410503 8.18821379,1.86402682 8.97390345,1.72612737 C9.90104138,1.5629095 10.6454552,1.86083128 11.1849379,2.65578101 C11.5747655,3.22901006 11.7883862,3.87770279 11.9361103,4.54827263 C12.0881793,5.23826145 12.2144207,5.93414972 12.3411448,6.62930056 C12.4379379,7.16393743 12.7222828,7.59312179 13.0561103,8.02206034 C13.0855586,7.87752402 13.1010069,7.74822793 13.1386621,7.62556872 C13.3064207,7.07642905 13.6315586,6.68190391 14.1980759,6.53146816 C14.2067655,6.52901006 14.2156966,6.52311061 14.2239034,6.52384804 C14.466731,6.55285363 14.560869,6.40364693 14.6610414,6.20380335 C15.0996276,5.33338994 15.8143517,4.75598212 16.6601448,4.3349095 C17.5460069,3.89368045 18.4922138,3.66974749 19.4669034,3.55839553 C20.4985586,3.44065251 21.5304552,3.43893184 22.5613862,3.56183687 C23.7559724,3.70465251 24.903731,4.00355754 25.9295931,4.67437318 C26.5933862,5.10798212 27.1179034,5.6721162 27.4461793,6.4127419 C27.4650069,6.45379218 27.5173862,6.50270838 27.5584207,6.50664134 C28.0846276,6.56121117 28.6130069,7.00711061 28.7728,7.72266369 C28.7954897,7.82467486 28.8063517,7.92889832 28.8263862,8.05622793 C28.8623517,8.01099888 28.8876966,7.98297654 28.9091793,7.95249609 C29.2560414,7.45325587 29.4686966,6.90239553 29.5650069,6.29524469 C29.6975241,5.45654078 29.8394552,4.61734525 30.1088345,3.80961341 C30.2959034,3.24842905 30.538731,2.71698771 30.9568,2.2890324 C31.4103517,1.8244514 31.9638345,1.64328939 32.5962483,1.69589274 C33.6831793,1.78635084 34.412869,2.41267486 34.8978,3.35338994 C35.5705241,4.65937877 35.7172828,6.04009385 35.3754897,7.47464134 C35.1148,8.56923352 34.6972138,9.60433966 34.220731,10.6156022 C33.4425241,12.2647419 32.5351793,13.8347307 31.4354552,15.2850101 C31.2452483,15.5354905 31.0420069,15.7756469 30.8421448,16.0236693 C31.3965931,16.8901497 31.9505586,17.7558927 32.5042828,18.6223732 C35.1244552,22.7200268 37.744869,26.8181721 40.3650414,30.9163173 C40.7592138,31.5328089 41.1536276,32.1485631 41.5478,32.7645631 C41.5678345,32.795781 41.5856966,32.8274905 41.6064552,32.8577251 C41.6984207,32.9929207 41.706869,33.1337698 41.6141793,33.2687196 C41.5246276,33.3999821 41.3950069,33.4312 41.2431793,33.4039151 C40.7857655,33.3223061 40.3295586,33.2264402 39.8690069,33.1699039 C38.6664552,33.0219263 37.4646276,32.9904626 36.2755931,33.290105 C35.7404552,33.4250547 35.2480414,33.6494793 34.7985931,33.9830436 C33.9313172,34.6238704 33.0020069,35.1469542 31.9580414,35.4303732 C31.091731,35.6658592 30.223731,35.7199374 29.3581448,35.4205408 C29.3460759,35.4166078 29.3318345,35.4178369 29.302869,35.4153788 C29.2895931,35.6806078 29.2801793,35.9441162 29.2623172,36.207133 C29.1582828,37.7257475 28.9330759,39.2207642 28.392869,40.6503955 C28.0814897,41.472876 27.6629379,42.2277587 27.0368,42.8526078 C26.0570414,43.8301944 24.5081103,44.1295911 23.3130414,43.5595575 C22.6680759,43.2513117 22.2082483,42.7415017 21.8471448,42.1314011 C21.4252138,41.4195352 21.1770759,40.6400715 20.9962828,39.8343061 C20.9644207,39.6914905 20.9361793,39.5474458 20.8999724,39.3726749" id="Fill-6" fill="#2B50A5"></path>
                    <g id="Group-10" transform="translate(0.000000, 1.474860)">
                        <mask id="mask-4" fill="white">
                            <use xlink:href="#path-3"></use>
                        </mask>
                        <g id="Clip-9"></g>
                        <path d="M14.1191931,6.04815642 C13.9837793,6.19392179 13.8920552,6.42867039 13.894469,6.66587709 C13.8968828,6.91611173 14.0059862,7.13414525 14.1780897,7.26221229 C14.101331,6.86670391 14.0815379,6.46037989 14.1191931,6.04815642 Z M14.6019517,7.71818994 L14.3637103,7.6707486 C13.9157103,7.58127374 13.5992621,7.1695419 13.5941931,6.66907263 C13.5891241,6.16688268 13.8872276,5.70205587 14.2729517,5.61086034 L14.4911586,5.55924022 L14.4549517,5.78440223 C14.360331,6.37336313 14.3871241,6.92791061 14.5372621,7.48 L14.6019517,7.71818994 Z M27.8915724,6.22808939 C27.9072621,6.54715084 27.8901241,6.8541676 27.8396759,7.15381006 C27.9342966,7.02844693 27.9869172,6.86277095 27.9876414,6.67251397 C27.9881241,6.51322905 27.9514345,6.35517318 27.8915724,6.22808939 Z M27.3870897,7.74842458 L27.4640897,7.46451397 C27.6028828,6.95347486 27.632331,6.42375419 27.5548483,5.84487151 L27.5212966,5.59562011 L27.7539862,5.68017877 C28.0646414,5.7932514 28.2893655,6.21112849 28.2879172,6.67349721 C28.2862276,7.13463687 28.045331,7.50851397 27.6593655,7.64911732 L27.3870897,7.74842458 Z M21.2205724,2.84082682 C19.9803655,2.84082682 19.0843655,2.94013408 18.2245724,3.1729162 C17.3056414,3.42167598 16.6184345,3.76802235 16.0625379,4.26234637 C14.9671586,5.23722905 14.7530552,6.87776536 15.564331,8.07854749 C15.9206069,8.60605587 16.4212276,9.00820112 17.1395724,9.34422346 C17.8709517,9.68614525 18.7092621,9.90122905 19.7025379,10.0015196 C20.1618828,10.0477318 20.6151931,10.0710838 21.0499172,10.0710838 L21.0501586,10.0710838 C21.9005379,10.0710838 22.7260552,9.98111732 23.5040207,9.80290503 C24.4572276,9.58437989 25.1859517,9.2547486 25.7968828,8.76534078 C26.4587448,8.23611173 26.8575034,7.48909497 26.9197793,6.66218994 C26.9801241,5.85642458 26.7102621,5.08286034 26.1596759,4.48382123 C25.6836759,3.96565363 25.0635724,3.59103911 24.2086069,3.30467039 C23.0789517,2.92538547 21.9601586,2.84303911 21.2205724,2.84082682 Z M21.0499172,10.3768715 C20.6052966,10.3768715 20.1420897,10.3530279 19.6730897,10.3058324 C18.6460207,10.2021006 17.776331,9.97841341 17.0142966,9.62223464 C16.2551586,9.26703911 15.6999862,8.81868156 15.3169172,8.25184358 C14.4192276,6.92324022 14.6548138,5.10916201 15.8650897,4.03202235 C16.4571931,3.50574302 17.1822966,3.1387486 18.1475724,2.87745251 C19.0336759,2.6375419 19.9528483,2.53503911 21.2210552,2.53503911 L21.2215379,2.53503911 C21.9828483,2.53749721 23.1354345,2.62254749 24.3025034,3.01412291 C25.2071931,3.3172067 25.8671241,3.71787709 26.3790897,4.27488268 C26.9878483,4.93734078 27.2861931,5.7932514 27.2190897,6.68529609 C27.1502966,7.59897207 26.7112276,8.42292737 25.9825034,9.00574302 C25.3438138,9.51702793 24.5547448,9.87541899 23.5699172,10.1013184 C22.7702276,10.2842011 21.9225034,10.3768715 21.0499172,10.3768715 Z M22.4610207,10.9889385 L23.0562621,11.7413631 C23.4608138,11.4746592 24.0526759,10.9594413 24.4236759,10.5828603 C23.8294,10.7743464 23.1810552,10.908067 22.4610207,10.9889385 Z M22.9862621,12.1405587 L21.8768828,10.7379665 L22.1566414,10.7124022 C23.1825034,10.6192402 24.0594345,10.4218547 24.8371586,10.1091844 L25.1919862,9.96686034 L25.0278483,10.3173855 C24.8600897,10.6757765 23.6527103,11.7455419 23.0977793,12.0744358 L22.9862621,12.1405587 Z M17.6141241,10.5931844 C18.3175034,11.2475307 19.004469,11.7116201 19.7421241,12.032648 C20.4595034,12.3450726 21.1061586,12.4529832 21.7349517,12.367933 C21.8737448,12.3492514 22.0142276,12.3175419 22.1629172,12.2843575 C22.1774,12.281162 22.1918828,12.2777207 22.2063655,12.2747709 C22.1889862,12.2386369 22.1725724,12.2091397 22.1539862,12.1870168 C21.9000552,11.8861453 21.6437103,11.600514 21.4267103,11.361095 C21.4042621,11.3360223 21.3818138,11.3102123 21.3593655,11.2836648 C21.2888828,11.2010726 21.2157448,11.1160223 21.1438138,11.0845587 C21.0931241,11.0629274 21.0250552,11.0599777 20.9649517,11.0599777 L20.8008138,11.0624358 C20.7771586,11.0624358 20.7539862,11.0619441 20.7310552,11.0609609 C20.7098138,11.0597318 20.6892966,11.0597318 20.6690207,11.059486 L20.6262966,11.0589944 C19.6071931,11.0341676 18.7111931,10.9088045 17.8871241,10.6760223 C17.7958828,10.6504581 17.7046414,10.6224358 17.6141241,10.5931844 Z M21.3195379,12.701743 C20.7781241,12.701743 20.2236759,12.574905 19.6240897,12.3141006 C18.6979172,11.9102346 17.8514,11.2944804 16.960469,10.3756425 L16.9423655,10.3572067 L16.9232966,10.3198436 L16.7748483,10.0007821 L17.1002276,10.0988603 C17.1946069,10.1298324 17.2885034,10.1617877 17.3824,10.193743 C17.5740552,10.2591285 17.7717448,10.3264804 17.9670207,10.3812961 C18.7674345,10.6074413 19.6395379,10.7288715 20.6332966,10.7534525 L20.6707103,10.7536983 C20.6960552,10.7539441 20.7216414,10.7541899 20.7467448,10.755419 C20.7638828,10.7564022 20.7822276,10.756648 20.8008138,10.756648 L20.9649517,10.7541899 C21.0552276,10.7541899 21.1607103,10.7598436 21.2608828,10.8031061 C21.3970207,10.8621006 21.4971931,10.979352 21.5857793,11.082838 C21.6065379,11.1071732 21.6268138,11.1310168 21.647331,11.1538771 C21.8662621,11.3952626 22.1247793,11.683352 22.3816069,11.9879106 C22.4366414,12.0528045 22.4701931,12.1260559 22.5059172,12.2037318 C22.5213655,12.2374078 22.5377793,12.2737877 22.5578138,12.3123799 L22.6512276,12.4930503 L22.4547448,12.5333631 C22.3762966,12.5495866 22.3009862,12.5665475 22.2276069,12.5827709 C22.0726414,12.617676 21.9258828,12.6508603 21.7745379,12.6710168 C21.6246414,12.691419 21.4713655,12.701743 21.3195379,12.701743 Z M3.54195172,30.7444469 C4.1021931,30.7444469 4.62477931,30.7842682 5.13915862,30.8663687 C6.09115862,31.0185251 6.87105517,31.333162 7.52277931,31.827486 C7.73108966,31.9855419 7.97053793,32.1463017 8.2556069,32.3191061 C9.31453793,32.9606704 10.1921931,33.2635084 11.101469,33.3018547 C11.1521586,33.3038212 11.2028483,33.3048045 11.2530552,33.3048045 L11.2532966,33.3048045 C11.4319172,33.3048045 11.5996759,33.2910391 11.7604345,33.2622793 C10.3254345,32.2891173 9.31767586,30.9005363 8.76177931,29.1297207 C8.47695172,28.2231732 8.29591724,27.2347709 8.20805517,26.107486 C8.11608966,24.9248939 8.11150345,23.9453408 8.19381379,23.0242905 C8.30002069,21.8355531 8.53246897,20.6315754 8.90274483,19.3553296 L1.5204,30.8995531 C2.26457241,30.7943464 2.92257241,30.7444469 3.54195172,30.7444469 Z M11.2532966,33.6105922 L11.2530552,33.6105922 C11.1985034,33.6105922 11.1439517,33.6096089 11.0889172,33.6071508 C10.1402966,33.5675754 9.19095172,33.2416313 8.10208966,32.5816313 C7.80808966,32.4036648 7.55995172,32.2372514 7.34343448,32.0730503 C6.73153793,31.6087151 5.99533103,31.3127598 5.09257241,31.1684693 C3.97377931,30.990257 2.79536552,31.0101676 1.32174483,31.2382793 L0.90802069,31.2967821 L9.25877931,18.2378771 L9.52043448,18.3590615 L9.41977931,18.6941006 L9.30608966,19.0569162 C8.87402069,20.4580335 8.60777931,21.7647598 8.49288276,23.052067 C8.41202069,23.955419 8.4166069,24.9185028 8.50736552,26.0833966 C8.59329655,27.186838 8.76998621,28.1526257 9.04781379,29.0365587 C9.60853793,30.8231061 10.6459862,32.204067 12.1307103,33.1413408 C12.151469,33.1538771 12.1729517,33.1681341 12.1941931,33.1828827 L12.2287103,33.2072179 L12.3197103,33.4109944 L12.1649862,33.4763799 C11.8808828,33.566838 11.5825379,33.6105922 11.2532966,33.6105922 Z M30.1040552,33.2664581 C30.2694,33.2930056 30.4386069,33.3062793 30.6102276,33.3062793 C30.9346414,33.3062793 31.2716069,33.2608045 31.6409172,33.166905 C32.5185724,32.9439553 33.3682276,32.5162458 34.3149172,31.8206034 C34.8097448,31.4575419 35.3571931,31.1918212 35.9425379,31.0305698 C36.6425379,30.8385922 37.3922621,30.7449385 38.2354,30.7449385 C38.6747103,30.7449385 39.147331,30.7705028 39.6795724,30.8223687 C39.8866759,30.8422793 40.0932966,30.8698101 40.3061931,30.898324 L32.8953655,19.3086257 C33.0066414,19.6891397 33.1186414,20.0792402 33.2154345,20.4688492 C33.5002621,21.6160447 33.6607793,22.7632402 33.6921586,23.8794637 C33.7204,24.8747486 33.6767103,25.8641341 33.5630207,26.8200894 C33.4348483,27.8947709 33.2178483,28.8254078 32.8992276,29.6648492 C32.4594345,30.8243352 31.8591241,31.7444022 31.0642621,32.477162 C30.799469,32.7210056 30.5136759,32.9451844 30.2372966,33.161743 C30.1928828,33.1968939 30.148469,33.2315531 30.1040552,33.2664581 Z M30.6102276,33.612067 C30.3254,33.612067 30.0458828,33.5783911 29.7791586,33.5117765 C29.7514,33.5048939 29.7234,33.494324 29.7118138,33.4896536 L29.466331,33.3942793 L29.6681241,33.2258994 C29.7955724,33.1224134 29.9247103,33.0208939 30.0540897,32.9196201 C30.3258828,32.7067486 30.6070897,32.486257 30.8627103,32.2505251 C31.6220897,31.5504581 32.1965724,30.6687374 32.6192276,29.5544804 C32.9286759,28.7388827 33.1398828,27.832581 33.2649172,26.7832179 C33.3769172,25.8425028 33.4196414,24.8683575 33.3921241,23.888067 C33.3612276,22.7942123 33.2036069,21.6691397 32.924331,20.5435754 C32.8137793,20.0991508 32.6822276,19.6500559 32.5547793,19.2164469 C32.4963655,19.0166034 32.4377103,18.8167598 32.3807448,18.6164246 C32.3662621,18.5648045 32.3452621,18.4910615 32.3665034,18.3961788 L32.4451931,18.0441788 L40.9115724,31.2844916 L40.2784345,31.2028827 C40.0650552,31.1743687 39.8586759,31.1465922 39.6510897,31.1266816 C39.1280207,31.0757989 38.6650552,31.0507263 38.2354,31.0507263 C37.4190552,31.0507263 36.6946759,31.1409385 36.0207448,31.3257877 C35.4706414,31.4772067 34.9557793,31.7269497 34.4906414,32.0688715 C33.5118483,32.7878659 32.6296069,33.2308156 31.7135724,33.4635978 C31.3203655,33.5636425 30.9595034,33.612067 30.6102276,33.612067 Z M20.9234345,34.2728045 L21.293469,34.2737877 C21.3680552,34.2737877 21.4428828,34.2732961 21.517469,34.2723128 C22.8612276,34.2546145 24.0543655,34.1599777 25.1649517,33.983486 C26.3745034,33.7915084 27.4018138,33.5071061 28.3055379,33.1140559 C30.1154,32.3267263 31.3196414,31.0799777 31.9870552,29.3032626 C32.3836414,28.2460335 32.6071586,27.0528715 32.6904345,25.5477765 C32.7529517,24.4086927 32.7242276,23.4143911 32.6025724,22.5080894 C32.4295034,21.2166034 32.1152276,19.9248715 31.6421241,18.5593966 C31.1480207,17.1341899 30.6041931,15.8926034 29.9795034,14.7640894 C29.8315379,14.4973855 29.8882621,14.2370726 30.1349517,14.0505028 C30.1704345,14.0242011 30.1984345,13.9981453 30.218469,13.9735642 L30.3884,13.7700335 C30.5392621,13.5898547 30.6954345,13.4035307 30.8373655,13.2145028 C31.7179172,12.0437095 32.5077103,10.7414078 33.2521241,9.23336313 C33.7051931,8.31526257 34.2656759,7.09039106 34.5804345,5.75613408 C34.8741931,4.50668156 34.7175379,3.30417877 34.1152966,2.1827933 C33.8309517,1.65282682 33.456331,1.31483799 32.9699517,1.14916201 C32.2405034,0.899910615 31.6595034,1.11302793 31.2643655,1.78064804 C31.1666069,1.94706145 31.0787448,2.12650279 31.0039172,2.31356425 C30.6939862,3.08811173 30.5498828,3.91452514 30.4180897,4.76379888 C30.2785724,5.66100559 30.0169172,6.35812291 29.5945034,6.95789944 C28.7202276,8.19899441 27.5618483,9.23975419 26.151469,10.051419 C26.1241931,10.0671508 26.0525034,10.1079553 26.0298138,10.1443352 C25.5996759,10.8252291 25.0360552,11.4446704 24.3548828,11.9854525 C23.9768828,12.2855866 23.5764345,12.5655642 23.1887793,12.8364469 L22.9476414,13.0050726 C22.8148828,13.0989721 22.6674,13.1722235 22.5213655,13.2174525 C21.6304345,13.4883352 20.6941241,13.4492514 19.7406759,13.1009385 C18.3737448,12.6019441 17.1422276,11.6828603 15.9761241,10.2910838 C15.8491586,10.139419 15.7318483,10.0233966 15.6077793,9.92605587 L15.1551931,9.57528492 C14.2524345,8.87103911 13.4467103,8.22505028 12.7266759,7.44656983 C11.9784,6.6390838 11.5724,5.84093855 11.4490552,4.93512849 C11.3662621,4.32551955 11.2240897,3.7107486 11.0867448,3.11588827 L11.0582621,2.99273743 C10.9486759,2.51684916 10.7751241,2.08913966 10.5431586,1.72140782 C10.2100552,1.19389944 9.76808966,0.983240223 9.18588276,1.07099441 C8.63046897,1.1538324 8.19212414,1.45126257 7.84598621,1.98024581 C7.32484828,2.77765363 7.08853793,3.70534078 7.12377931,4.81591061 C7.14574483,5.48746369 7.32702069,6.12779888 7.59277931,6.88268156 C8.14746897,8.45930726 8.9404,10.0543687 10.0167103,11.7593073 C10.4852276,12.5014078 11.0628483,13.3639553 11.7954345,14.1311285 C11.9525724,14.2963128 11.9750207,14.5256536 11.8552966,14.7446704 C11.0877103,16.1416089 10.440331,17.6894749 9.93077931,19.3459888 C9.57257241,20.5126034 9.33650345,21.6160447 9.20953793,22.7189944 C9.12336552,23.4672402 9.09753793,24.2567821 9.1306069,25.1318659 C9.17936552,26.4002458 9.31743448,27.4336313 9.56557241,28.3829497 C10.1246069,30.526905 11.3030207,32.0152849 13.1679172,32.9331397 C14.2031931,33.4424581 15.3748483,33.7843799 16.855469,34.0090503 C18.0382276,34.1889832 19.3088483,34.2728045 20.8544,34.2728045 L20.9234345,34.2728045 Z M21.293469,34.5793296 L20.8544,34.5785922 C19.2936414,34.5785922 18.0087793,34.4937877 16.8110552,34.3116425 C15.2997793,34.0820559 14.1006069,33.7317765 13.037331,33.2082011 C11.1157103,32.2628156 9.84991724,30.6657877 9.27543448,28.4613631 C9.02150345,27.489676 8.88005517,26.4353966 8.83057241,25.1439106 C8.79677931,24.2523575 8.82333103,23.4475754 8.9111931,22.683352 C9.04057241,21.5612291 9.28026207,20.4395978 9.64426207,19.2547933 C10.1600897,17.5781229 10.8156759,16.0105922 11.5931586,14.5957095 C11.6670207,14.4602682 11.6209172,14.3872626 11.5798828,14.3442458 C10.8289517,13.5576536 10.2407103,12.6796201 9.76422759,11.9244916 C8.67536552,10.1998883 7.87253793,8.58442458 7.31036552,6.98567598 C7.08829655,6.35541899 6.84957241,5.61675978 6.82374483,4.82598883 C6.78633103,3.64929609 7.03905517,2.66310615 7.59615862,1.81063687 C7.98671034,1.21381006 8.50688276,0.863284916 9.1421931,0.768402235 C9.8421931,0.663932961 10.4002621,0.929899441 10.7956414,1.55622346 C11.0464345,1.95296089 11.2330207,2.41287151 11.3505724,2.92292737 L11.3790552,3.04607821 C11.5180897,3.64732961 11.6617103,4.26947486 11.7464345,4.89309497 C11.8608483,5.73302793 12.2417448,6.4778324 12.9451241,7.23689385 C13.6497103,7.99865922 14.4455379,8.63653631 15.3376759,9.33242458 L15.7905034,9.68368715 C15.9319517,9.79430168 16.0635034,9.92408939 16.2047103,10.0927151 C17.3358138,11.4427039 18.5255724,12.3325363 19.8420552,12.813095 C20.7351586,13.1397765 21.6060552,13.1771397 22.4347103,12.9244469 C22.5508138,12.8888045 22.669331,12.8295642 22.7769862,12.7536089 L23.0190897,12.5842458 C23.4026414,12.3163128 23.799469,12.0387933 24.1702276,11.7443128 C24.8246069,11.2246704 25.3652966,10.6305475 25.7770897,9.97890503 C25.8326069,9.89065922 25.9228828,9.83141899 26.0039862,9.7852067 C27.3950552,8.98435754 28.4899517,8.00136313 29.3507103,6.77968715 C29.7446414,6.22022346 29.9896414,5.56440223 30.1214345,4.71611173 C30.2561241,3.84840223 30.4036069,3.00306145 30.7258483,2.19827933 C30.806469,1.99671508 30.9010897,1.80326257 31.0070552,1.6230838 C31.4717103,0.83796648 32.2030897,0.564625698 33.0652966,0.859351955 C33.6190207,1.04764246 34.0609862,1.44364246 34.3788828,2.03604469 C35.0180552,3.22625698 35.1841241,4.50176536 34.8725034,5.82741899 C34.5505034,7.19215642 33.9808483,8.43792179 33.5202966,9.37077095 C32.7674345,10.8960223 31.9677448,12.2140559 31.0758483,13.4003352 C30.9290897,13.596 30.7702621,13.7852737 30.6167448,13.9684022 L30.4487448,14.1699665 C30.4130207,14.2134749 30.3688483,14.2550168 30.3135724,14.2965587 C30.1875724,14.3916872 30.1672966,14.4804246 30.2411586,14.6136536 C30.8745379,15.7578994 31.4253655,17.0154637 31.9252621,18.4576313 C32.4053655,19.8430168 32.7242276,21.1544134 32.8999517,22.4667933 C33.0242621,23.392514 33.0539517,24.405743 32.990469,25.5647374 C32.9052621,27.1022793 32.675469,28.3246927 32.2675379,29.4124022 C31.5791241,31.2449162 30.2858138,32.5850726 28.4235724,33.3952626 C27.4966759,33.7983911 26.4457103,34.089676 25.2110552,34.2855866 C24.086469,34.4642905 22.8795724,34.5601564 21.5215724,34.5781006 C21.4455379,34.5790838 21.3695034,34.5793296 21.293469,34.5793296 Z M21.4928483,35.2739888 C21.4926069,35.3204469 21.4926069,35.3649385 21.493331,35.4099218 C21.5092621,36.5448268 21.6422621,37.576 21.8998138,38.5619441 C22.1291241,39.4365363 22.4062276,40.0579441 22.7977448,40.5768492 C23.2795379,41.2154637 23.8706759,41.5259218 24.6056759,41.5261676 C24.7285379,41.5261676 24.8569517,41.5168268 24.9872966,41.4991285 C25.7160207,41.3998212 26.3192276,41.0220112 26.8311931,40.344067 C27.2989862,39.7246257 27.6366759,38.9773631 27.9268138,37.9213631 C28.1826759,36.9872849 28.3429517,35.9826592 28.4310552,34.7590168 C28.4445724,34.5707263 28.4522966,34.3814525 28.4605034,34.1855419 L28.4626759,34.1314637 C26.3204345,34.9790168 24.1137448,35.2076201 21.4928483,35.2739888 Z M24.6059172,41.8317095 L24.6056759,41.8317095 C23.7828138,41.8317095 23.0944,41.4723352 22.5597448,40.7631732 C22.1426414,40.2105922 21.8498483,39.5562458 21.6096759,38.6406034 C21.3456069,37.6300782 21.209469,36.5745698 21.1930552,35.4138547 C21.192331,35.3533855 21.1925724,35.293162 21.1928138,35.228514 L21.1930552,34.9750838 L21.3398138,34.9718883 C24.0809172,34.9092067 26.3588138,34.6788827 28.5662276,33.7600447 L28.7844345,33.6693408 L28.7602966,34.1985698 C28.7520897,34.3974302 28.7441241,34.5898994 28.7306069,34.7813855 C28.6408138,36.0259218 28.4774,37.0494749 28.2159862,38.0034637 C27.9152276,39.0992849 27.5613655,39.8785028 27.0691931,40.5303911 C26.5065379,41.2754413 25.8386414,41.691352 25.0271241,41.8022123 C24.8837448,41.8218771 24.7418138,41.8317095 24.6059172,41.8317095 Z M13.1452276,34.0230615 C13.1457103,34.0277318 13.1459517,34.0321564 13.1464345,34.0368268 C13.1621241,34.2327374 13.1763655,34.4288939 13.1906069,34.6250503 C13.2248828,35.0933184 13.2601241,35.5775642 13.3166069,36.0492737 C13.4392276,37.0696313 13.6555034,37.9796201 13.9782276,38.8311061 C14.2898483,39.6528492 14.6565034,40.2624581 15.1317793,40.7489162 C15.6097103,41.2380782 16.3068138,41.5298547 16.9969172,41.5298547 C17.8036069,41.5301006 18.5192966,41.145162 19.0119517,40.4460782 C19.3218828,40.0055866 19.5678483,39.5051173 19.7636069,38.915419 C20.0687103,37.9970726 20.2533655,36.9617207 20.3281931,35.7501229 C20.3364,35.6171397 20.334469,35.4812067 20.3320552,35.3376536 C20.3315724,35.316514 20.331331,35.2956201 20.3310897,35.2744804 C18.1135379,35.2169609 15.5722966,35.0532514 13.1452276,34.0230615 Z M16.9969172,41.8356425 C16.2286069,41.8356425 15.4518483,41.5099441 14.9188828,40.9644916 C14.4131931,40.4470615 14.0252966,39.8040223 13.6979862,38.9409832 C13.366331,38.0656536 13.1440207,37.132067 13.0185034,36.0863911 C12.9612966,35.6073073 12.9258138,35.1193743 12.8912966,34.6476648 C12.8770552,34.4522458 12.8628138,34.2568268 12.8468828,34.0616536 C12.8422966,34.0048715 12.8432621,33.9475978 12.8442276,33.8822123 L12.8454345,33.557743 L13.0559172,33.6516425 C15.5488828,34.765162 18.1970552,34.9170726 20.4834,34.9721341 L20.6301586,34.9758212 L20.6301586,35.1252737 C20.6301586,35.196067 20.6311241,35.2648939 20.632331,35.3324916 C20.6347448,35.4826816 20.6369172,35.6242682 20.6277448,35.7697877 C20.551469,37.0081788 20.3617448,38.069095 20.0481931,39.0134972 C19.8425379,39.6319553 19.5835379,40.1589721 19.2557448,40.6242905 C18.7054,41.4054749 17.9030552,41.8356425 16.9969172,41.8356425 Z M20.9152276,37.2328492 L21.0788828,38.0223911 C21.1008483,38.1303017 21.1208828,38.2283799 21.1428483,38.3254749 C21.3511586,39.2543911 21.6157103,39.9699441 21.9756069,40.5775866 C22.3642276,41.2336536 22.8223655,41.6812737 23.3768138,41.946257 C23.7511931,42.1247151 24.181331,42.219352 24.6208828,42.219352 C25.4840552,42.219352 26.3262276,41.8727598 26.9318483,41.2685587 C27.4812276,40.7199106 27.9132966,40.0173855 28.2526759,39.1204246 C28.7180552,37.889162 28.9912966,36.4912402 29.112469,34.7216536 C29.1250207,34.5395084 29.1332276,34.3571173 29.1416759,34.1734972 L29.1607448,33.7752849 L29.3149862,33.788067 C29.354331,33.7902793 29.3779862,33.7915084 29.4055034,33.8008492 C30.1682621,34.0641117 30.9640897,34.0675531 31.919469,33.8079777 C32.8393655,33.5582346 33.7522621,33.0924246 34.7102966,32.3844916 C35.1665034,32.0460112 35.6668828,31.8112626 36.2394345,31.6669721 C36.8646069,31.5094078 37.5221241,31.4327151 38.2498828,31.4327151 C38.7471241,31.4327151 39.2825034,31.469095 39.8869172,31.5433296 C40.2296759,31.5853631 40.5736414,31.6495196 40.9062621,31.7117095 C41.0271931,31.7345698 41.1481241,31.7569385 41.2692966,31.7785698 C41.3675379,31.7957765 41.4411586,31.7790615 41.4908828,31.7065475 C41.5290207,31.6509944 41.5577448,31.5799553 41.4829172,31.4695866 C41.4689172,31.4494302 41.4556414,31.4280447 41.4426069,31.4064134 L41.4218483,31.3729832 L30.656331,14.5386816 L30.9170207,14.217162 C31.0529172,14.0512402 31.1876069,13.8863017 31.3165034,13.7166927 C32.3469517,12.3578547 33.2526069,10.839486 34.0853655,9.07456983 C34.6415034,7.89394413 35.0052621,6.9055419 35.2297448,5.96384358 C35.5659862,4.5516648 35.4095724,3.20093855 34.7648483,1.94951955 C34.2594,0.96898324 33.5461241,0.453519553 32.5839862,0.373631285 C31.9771586,0.322748603 31.4736414,0.501452514 31.0630552,0.92203352 C30.6261586,1.36965363 30.3995034,1.9384581 30.2510552,2.38411173 C29.9896414,3.16775419 29.847469,3.99515084 29.7132621,4.84467039 C29.6109172,5.48992179 29.3881241,6.05282682 29.0318483,6.5658324 C29.0161586,6.58820112 28.9992621,6.60884916 28.9787448,6.63367598 L28.731331,6.94487151 L28.6608483,6.4876648 C28.6502276,6.41392179 28.6410552,6.34730726 28.626331,6.28167598 C28.4713655,5.58849162 27.9562621,5.22690503 27.5432621,5.18388827 C27.4404345,5.17405587 27.3479862,5.08531844 27.3100897,5.00248045 C27.0076414,4.32035754 26.5299517,3.77318436 25.8485379,3.32826816 C24.9617103,2.74840223 23.9117103,2.40230168 22.5440552,2.23883799 C21.5406414,2.1193743 20.5111586,2.11789944 19.4836069,2.23564246 C18.4114,2.35805587 17.5093655,2.60730726 16.7260897,2.99716201 C15.8064345,3.45535196 15.1747448,4.04455866 14.7945724,4.79870391 C14.7098483,4.96782123 14.5819172,5.22985475 14.2381931,5.20379888 L14.2379517,5.20379888 C13.7590552,5.33112849 13.4471931,5.65559777 13.2818483,6.19613408 C13.2584345,6.27331844 13.2444345,6.35369832 13.2289862,6.43899441 C13.2210207,6.48397765 13.2128138,6.53018994 13.2031586,6.57812291 L13.1379862,6.89841341 L12.9383655,6.64227933 C12.5625379,6.15950838 12.2921931,5.72663687 12.1932276,5.1821676 L12.1845379,5.1332514 C12.0628828,4.46686034 11.9373655,3.77785475 11.7896414,3.1067933 C11.6187448,2.33150838 11.3872621,1.74721788 11.0616414,1.26788827 C10.5598138,0.52898324 9.88395172,0.246301676 8.99953793,0.401899441 C8.29446897,0.525541899 7.73471034,0.911955307 7.28815862,1.58326257 C6.74915862,2.3932067 6.47205517,3.35162011 6.44043448,4.51258101 C6.41653793,5.37340782 6.64174483,6.18236872 6.86526207,6.86006704 C7.29033103,8.15007821 7.88195172,9.4452514 8.72677931,10.9360894 C9.53008966,12.3541676 10.2716069,13.4369609 11.0597103,14.344 C11.2023655,14.5086927 11.1017103,14.6522458 11.0686414,14.6996872 L0.357434483,31.4472179 C0.278744828,31.5703687 0.282124138,31.669676 0.367572414,31.7426816 C0.429365517,31.7960223 0.524468966,31.7849609 0.612813793,31.7665251 C2.23391724,31.4246034 3.60229655,31.3493855 4.88836552,31.528581 C5.81284828,31.6571397 6.52684828,31.9329385 7.13512414,32.3967821 C7.64902069,32.7888492 8.21553793,33.1283128 8.81850345,33.406324 C9.68529655,33.806257 10.4355034,33.992581 11.1796759,33.992581 L11.2627103,33.9915978 C11.4946759,33.9871732 11.724469,33.9571844 11.9675379,33.9252291 C12.0773655,33.9107263 12.1874345,33.8964693 12.2977448,33.8846704 L12.4546414,33.8674637 L12.4635724,34.0279777 C12.4671931,34.0631285 12.4698483,34.0911508 12.4708138,34.1191732 C12.5183655,35.5166034 12.6861241,36.7631061 12.9839862,37.9294749 C13.2589172,39.0071061 13.6045724,39.8332737 14.0721241,40.529162 C14.7426759,41.5281341 15.5681931,42.0718659 16.5962276,42.1913296 C17.7065724,42.3206257 18.6356414,41.955352 19.358331,41.1075531 C19.8628138,40.5161341 20.2330897,39.7705922 20.5229862,38.7612961 C20.5775379,38.5715307 20.6250897,38.3795531 20.6745724,38.1789721 C20.7001586,38.0749944 20.726469,37.9685587 20.7547103,37.8591732 L20.9152276,37.2328492 Z M24.6208828,42.5251397 C24.1376414,42.5251397 23.663331,42.4206704 23.2493655,42.2232849 C22.6394,41.9315084 22.1387793,41.4448045 21.7185379,40.7356425 C21.3639517,40.1368492 21.0986759,39.4424358 20.8886759,38.5609609 C20.8638138,38.6575642 20.838469,38.7524469 20.8114345,38.8473296 C20.5087448,39.9001341 20.1189172,40.6820559 19.5849862,41.3083799 C18.7954345,42.2343464 17.7741586,42.6352626 16.5621931,42.4951508 C15.4424345,42.3651173 14.5469172,41.7786145 13.8242276,40.7017207 C13.3364,39.9758436 12.9772276,39.1194413 12.6933655,38.0061676 C12.3955034,36.8395531 12.225331,35.5962458 12.1734345,34.2069274 C12.1174345,34.2138101 12.0616759,34.2211844 12.0056759,34.2285587 C11.7655034,34.2600223 11.5168828,34.2924693 11.2682621,34.2973855 L11.1796759,34.2981229 C10.391331,34.2981229 9.60177931,34.1031955 8.69467586,33.6848268 C8.07167586,33.3979665 7.48657241,33.0467039 6.95529655,32.6416089 C6.38950345,32.2102123 5.71967586,31.9528492 4.84781379,31.831419 C3.59577931,31.6578771 2.26095172,31.7308827 0.673641379,32.0661676 C0.618606897,32.0777207 0.553434483,32.0895196 0.485365517,32.0895196 C0.364193103,32.0895196 0.262331034,32.052648 0.174227586,31.9764469 C-0.030462069,31.801676 -0.0567724138,31.5347263 0.105675862,31.2805587 L10.8192966,14.529095 C10.0200897,13.6048492 9.27350345,12.5127151 8.46681379,11.0889832 C7.6116069,9.57995531 7.01226207,8.2670838 6.58043448,6.95740782 C6.34871034,6.25414525 6.11505517,5.41273743 6.1404,4.50397765 C6.17346897,3.28303911 6.46746897,2.27153073 7.03929655,1.41193296 C7.52736552,0.678435754 8.16991724,0.237206704 8.9486069,0.100782123 C9.94453793,-0.074726257 10.7437448,0.261787709 11.308331,1.09410056 C11.6568828,1.60661453 11.9028483,2.22482682 12.0824345,3.03993296 C12.2316069,3.71640223 12.3578483,4.40835754 12.4797448,5.07769832 L12.4886759,5.12661453 C12.5584345,5.51056983 12.7307793,5.84020112 12.9736069,6.18408939 C12.9801241,6.15778771 12.9873655,6.13148603 12.995331,6.10518436 C13.1908483,5.46460335 13.5828483,5.06196648 14.1602276,4.90858101 C14.1619172,4.90686034 14.1882276,4.89604469 14.2225034,4.89604469 C14.2555724,4.8987486 14.269331,4.89973184 14.2821241,4.89973184 C14.381331,4.89973184 14.4317793,4.85032402 14.5273655,4.65932961 C14.9381931,3.84422346 15.6140552,3.21077095 16.5940552,2.72259218 C17.4089517,2.31700559 18.343331,2.0581676 19.4500552,1.93157542 C20.5007793,1.81186592 21.5534345,1.81309497 22.5788138,1.93526257 C23.9937793,2.10413408 25.084331,2.46498324 26.0107448,3.07090503 C26.7322276,3.54212291 27.2610897,4.14902793 27.5830897,4.87515084 C28.2089862,4.94545251 28.745331,5.47222346 28.9142966,6.19293855 C29.1699172,5.77211173 29.3347793,5.31269274 29.4166069,4.796 C29.5529862,3.9332067 29.6978138,3.09179888 29.9667103,2.2855419 C30.1257793,1.8089162 30.3695724,1.19856983 30.8501586,0.706458101 C31.3198828,0.225653631 31.9148828,0.0108156425 32.6083655,0.0685810056 C33.6665724,0.156581006 34.481469,0.741854749 35.0306069,1.80744134 C35.710331,3.12670391 35.8754345,4.5492067 35.5215724,6.03586592 C35.2920207,6.99894972 34.9215034,8.00652514 34.3559517,9.20681564 C33.5140207,10.9913966 32.5975034,12.5277095 31.5540207,13.9037542 C31.4231931,14.0765587 31.2858483,14.2439553 31.1477793,14.4130726 L31.0282966,14.5595754 L41.6975034,31.2446704 C41.7078828,31.2618771 41.7182621,31.278838 41.7293655,31.2950615 C41.8611586,31.4892514 41.8638138,31.6972067 41.737331,31.8813184 C41.6221931,32.0501899 41.4377793,32.1190168 41.2174,32.0796872 C41.0955034,32.0580559 40.9738483,32.0351955 40.8519517,32.0123352 C40.5239172,31.9511285 40.1847793,31.8879553 39.8509517,31.846905 C39.2586069,31.7738994 38.7348138,31.7385028 38.2498828,31.7385028 C37.5469862,31.7385028 36.9128828,31.8122458 36.3116069,31.9636648 C35.7774345,32.0983687 35.311331,32.3168939 34.8869862,32.6317765 C33.8982966,33.362324 32.9530552,33.8438659 31.9967103,34.1031955 C31.0449517,34.3617877 30.2216069,34.3711285 29.4441241,34.1341676 L29.4417103,34.1877542 C29.4330207,34.3733408 29.4245724,34.5581899 29.4120207,34.7427933 C29.2886759,36.5438436 29.0094,37.9697877 28.5329172,39.2305475 C28.1778483,40.1690503 27.7228483,40.9072179 27.1420897,41.486838 C26.4807103,42.1465922 25.5617793,42.5251397 24.6208828,42.5251397 Z" id="Fill-8" fill="#2B50A5" mask="url(#mask-4)"></path>
                    </g>
                    <path d="M20.9236759,35.9005095 C19.5545724,35.9027218 18.1890897,35.8415151 16.8332621,35.6352804 C15.5430897,35.4393698 14.2850207,35.1271911 13.1027448,34.5453587 C11.1548138,33.5871911 9.96988276,32.0039285 9.42050345,29.8970905 C9.13929655,28.8209341 9.0231931,27.7226547 8.98071034,26.6128223 C8.94981379,25.7982078 8.96695172,24.986543 9.06036552,24.1761073 C9.19384828,23.0178503 9.44633103,21.8863866 9.78764138,20.7753251 C10.2822276,19.1669899 10.9151241,17.6174034 11.7242276,16.1452469 C11.8106414,15.9869453 11.8019517,15.8325765 11.6877793,15.7126212 C10.9950207,14.9869899 10.4253655,14.1642637 9.89046897,13.3167106 C8.91191724,11.7666324 8.06346897,10.148219 7.45157241,8.40911285 C7.21067586,7.72502346 6.99777931,7.02987263 6.97388276,6.29563799 C6.94057241,5.24824134 7.1426069,4.25516872 7.72095172,3.37025251 C8.06515862,2.8444648 8.52836552,2.48951508 9.16391724,2.3946324 C9.82674483,2.29557095 10.3157793,2.5534257 10.6694,3.11362682 C10.9262276,3.52019665 11.0971241,3.96658771 11.2045379,4.43264358 C11.3539517,5.08059888 11.5081931,5.73076648 11.5977448,6.3888 C11.7295379,7.3568 12.1970897,8.12716872 12.8360207,8.81666592 C13.5666759,9.60669944 14.4035379,10.271124 15.2461931,10.9286659 C15.3970552,11.0456715 15.5486414,11.1621855 15.6990207,11.2796827 C15.8440897,11.3932469 15.9688828,11.5218056 16.0905379,11.6668335 C17.1096414,12.8831017 18.2916759,13.8845318 19.7913655,14.4319508 C20.6707103,14.7532246 21.5708138,14.8220514 22.4776759,14.5457609 C22.6126069,14.504219 22.7460897,14.4363754 22.8624345,14.3542749 C23.3338483,14.0229229 23.8112966,13.6982078 24.2626759,13.3398168 C24.9032966,12.8307441 25.4608828,12.236867 25.903331,11.5365542 C25.9417103,11.4755933 26.0129172,11.4301184 26.0776069,11.3932469 C27.4204,10.6204201 28.5698483,9.62488939 29.4726069,8.34372737 C29.9225379,7.70462123 30.1501586,6.98439777 30.2698828,6.21476648 C30.4007103,5.37114637 30.5457793,4.52801788 30.8648828,3.73085587 C30.9411586,3.54010726 31.0316759,3.35329162 31.1359517,3.17655419 C31.569469,2.44404022 32.2180552,2.20585028 33.0177448,2.47919106 C33.5794345,2.67018547 33.9716759,3.07061006 34.2470897,3.58435307 C34.8710552,4.7460514 35.0291586,5.97878883 34.726469,7.26683352 C34.4358483,8.49809609 33.9422276,9.65045363 33.386331,10.7767553 C32.6914,12.1842637 31.8982276,13.5300737 30.9566069,14.7822302 C30.7596414,15.0445095 30.5431241,15.2930235 30.3338483,15.5462078 C30.3027103,15.5845542 30.264331,15.6182302 30.2245034,15.648219 C30.0396069,15.7880849 29.9988138,15.9628559 30.110331,16.1636827 C30.785469,17.383638 31.3266414,18.6645542 31.7835724,19.9833251 C32.2320552,21.2772693 32.5687793,22.6004648 32.7512621,23.9624983 C32.8881241,24.9818726 32.8968138,26.0056715 32.8405724,27.0311911 C32.7684,28.3302972 32.5864,29.6087553 32.1272966,30.8328894 C31.4297103,32.6894927 30.1438828,33.9554145 28.3646759,34.7294704 C27.3455724,35.1726659 26.2789172,35.4361743 25.1881241,35.6092246 C23.9725379,35.8026771 22.7487448,35.8837944 21.5194,35.9000179 C21.3209862,35.9027218 21.122331,35.9005095 20.9236759,35.9005095" id="Fill-11" fill="#FFFFFF"></path>
                </g>
                <g id="Group-16" transform="translate(1.000000, 20.000000)">
                    <mask id="mask-6" fill="white">
                        <use xlink:href="#path-5"></use>
                    </mask>
                    <g id="Clip-15"></g>
                    <path d="M0.00693478261,12.5035714 C0.056673913,12.4964286 0.0741304348,12.4952381 0.0915869565,12.492381 C1.34893478,12.3019048 2.60867391,12.2278571 3.87247826,12.425 C4.70417391,12.5547619 5.48326087,12.82 6.16813043,13.3283333 C6.40415217,13.5033333 6.65380435,13.6628571 6.90680435,13.8128571 C7.80019565,14.3419048 8.73854348,14.7421429 9.79645652,14.7852381 C10.140087,14.7997619 10.4786957,14.7688095 10.8115652,14.6654762 C10.8041522,14.6519048 10.8034348,14.6466667 10.8003261,14.6442857 C10.781913,14.6314286 10.7630217,14.6195238 10.7436522,14.6080952 C9.18954348,13.6488095 8.17921739,12.2738095 7.6261087,10.5511905 C7.32336957,9.60928571 7.16243478,8.64119048 7.08423913,7.65738095 C7.00556522,6.67071429 6.97973913,5.68285714 7.0698913,4.69595238 C7.1916087,3.3652381 7.48023913,2.06857143 7.88173913,0.795238095 C7.94032609,0.610714286 8.00034783,0.426428571 8.05965217,0.242142857 C8.05128261,0.237857143 8.04291304,0.233571429 8.03430435,0.230238095 C5.36321739,4.31428571 2.69213043,8.39833333 0.00693478261,12.5035714" id="Fill-14" fill="url(#linearGradient-7)" mask="url(#mask-6)"></path>
                </g>
                <g id="Group-19" transform="translate(30.000000, 20.000000)">
                    <mask id="mask-9" fill="white">
                        <use xlink:href="#path-8"></use>
                    </mask>
                    <g id="Clip-18"></g>
                    <path d="M2.80882609,0.371904762 C2.99008696,0.995238095 3.18880435,1.61452381 3.34878261,2.24357143 C3.62115217,3.31619048 3.78471739,4.40809524 3.81676087,5.515 C3.84378261,6.4597619 3.80408696,7.40238095 3.68954348,8.34142857 C3.57619565,9.27238095 3.38130435,10.1840476 3.04078261,11.0611905 C2.6455,12.0807143 2.079,12.992619 1.2618913,13.7290476 C0.88526087,14.0685714 0.469413043,14.3638095 0.0712608696,14.6797619 C0.0748478261,14.6809524 0.099,14.6909524 0.124347826,14.6969048 C0.743217391,14.8485714 1.35826087,14.802381 1.969,14.6504762 C2.96569565,14.4030952 3.84521739,13.915 4.66926087,13.3230952 C5.14728261,12.98 5.66691304,12.7330952 6.23341304,12.5807143 C7.43528261,12.2580952 8.65676087,12.2664286 9.88254348,12.3833333 C10.1881522,12.4121429 10.4918478,12.457381 10.8182609,12.497381 C8.1376087,8.39904762 5.467,4.31619048 2.79686957,0.232619048 C2.78419565,0.288095238 2.79686957,0.33047619 2.80882609,0.371904762" id="Fill-17" fill="url(#linearGradient-10)" mask="url(#mask-9)"></path>
                </g>
                <g id="Group-26" transform="translate(13.000000, 4.000000)" fill="#FFFFFF">
                    <path d="M0.203272727,31.0709831 C2.61806061,32.1356831 5.16424242,32.3323894 7.72012121,32.3933269 C7.72012121,32.6151394 7.7310303,32.8196456 7.71818182,33.0226894 C7.65054545,34.1037206 7.49030303,35.1698831 7.14363636,36.2004581 C6.95721212,36.7545019 6.70969697,37.2790519 6.36812121,37.7580206 C5.25151515,39.3226519 3.27478788,39.1205831 2.24206061,38.0768456 C1.68909091,37.5181706 1.32787879,36.8473706 1.04957576,36.1227019 C0.703393939,35.2210706 0.492242424,34.2840956 0.376121212,33.3281081 C0.295636364,32.6636456 0.259030303,31.9940644 0.204484848,31.3264331 C0.198181818,31.2496519 0.203272727,31.1721394 0.203272727,31.0709831" id="Fill-20"></path>
                    <path d="M15.8984727,31.1800125 C15.8839273,31.4808 15.8761697,31.7620875 15.8560485,32.041425 C15.7779879,33.1114875 15.6318061,34.170825 15.3442909,35.2067625 C15.1001697,36.0849937 14.7777455,36.9295875 14.2182303,37.6608375 C13.7217455,38.3099438 13.0960485,38.75235 12.2672,38.8639875 C11.2984727,38.9948812 10.5207758,38.6672813 9.92853333,37.8916688 C9.46162424,37.2808312 9.19568485,36.5754187 9.00053333,35.8402687 C8.72659394,34.8048188 8.6022303,33.747675 8.58695758,32.6776125 C8.58574545,32.587425 8.58695758,32.497725 8.58695758,32.3929125 C11.0800485,32.3363625 13.540897,32.1489187 15.8984727,31.1800125" id="Fill-22"></path>
                    <path d="M8.23524848,6.35736563 C8.23597576,6.34152188 8.23646061,6.32592188 8.23718788,6.31032187 C8.68179394,6.31032187 9.12615758,6.32031563 9.56979394,6.30788438 C10.2645818,6.28862812 10.9552485,6.23037188 11.6219152,6.01294687 C12.6483394,5.67827813 13.1729455,5.03599688 13.2558545,4.01419688 C13.336097,3.03139687 12.8805818,2.24140313 11.9916121,1.82970938 C11.3925818,1.55256563 10.7513697,1.44945938 10.1028848,1.41825937 C8.77052121,1.35439687 7.43694545,1.33782188 6.10579394,1.44117187 C5.55767273,1.48382813 5.01900606,1.58888438 4.51306667,1.82069063 C3.69803636,2.19362813 3.25949091,2.82689062 3.22482424,3.73120313 C3.18458182,4.79200313 3.65294545,5.54421562 4.6393697,5.92227188 C5.02409697,6.06998438 5.43815758,6.17723437 5.84785455,6.21769687 C6.64058182,6.29618438 7.4393697,6.31446563 8.23524848,6.35736563 M8.46458182,0.228028125 C9.35427879,0.230709375 10.4502788,0.343565625 11.512097,0.695296875 C12.2745212,0.947578125 12.9777939,1.30686563 13.5346424,1.90502813 C14.7542788,3.21542813 14.5785212,5.24830312 13.1533091,6.37345313 C12.4544,6.92627813 11.6466424,7.23730313 10.7904,7.43132813 C9.51379394,7.71944062 8.22312727,7.76014688 6.92446061,7.63095938 C6.01803636,7.54052813 5.13512727,7.35064687 4.3024,6.96625312 C3.65003636,6.66497813 3.07258182,6.26352188 2.65900606,5.65926563 C1.7984,4.40151563 2.02530909,2.69355937 3.18458182,1.67492812 C3.83112727,1.10723438 4.59815758,0.781096875 5.41633939,0.562453125 C6.34215758,0.314803125 7.28761212,0.228028125 8.46458182,0.228028125" id="Fill-24"></path>
                </g>
                <g id="Group-29" transform="translate(17.000000, 11.000000)">
                    <mask id="mask-12" fill="white">
                        <use xlink:href="#path-11"></use>
                    </mask>
                    <g id="Clip-28"></g>
                    <path d="M0.184434783,0.211090909 C1.01086957,1.08545455 1.92156522,1.83681818 3.01147826,2.32472727 C3.72678261,2.64409091 4.46895652,2.81727273 5.25052174,2.70845455 C5.48373913,2.67627273 5.71330435,2.613 5.97469565,2.55790909 C5.90634783,2.42181818 5.87217391,2.31081818 5.80486957,2.229 C5.54817391,1.917 5.2826087,1.61127273 5.01521739,1.30827273 C4.90382609,1.18172727 4.79556522,1.02381818 4.6533913,0.960545455 C4.55113043,0.915545455 4.42956522,0.918272727 4.308,0.921 C4.25556522,0.922363636 4.20286957,0.923454545 4.152,0.921 C4.11286957,0.918545455 4.07373913,0.919636364 4.0346087,0.918545455 C3.04591304,0.894 2.06895652,0.776727273 1.11391304,0.499636364 C0.796695652,0.408272727 0.486,0.290454545 0.170347826,0.184363636 C0.175826087,0.194454545 0.178956522,0.204545455 0.184434783,0.211090909" id="Fill-27" fill="url(#linearGradient-13)" mask="url(#mask-12)"></path>
                </g>
                <g id="Group-32" transform="translate(22.000000, 12.000000)">
                    <mask id="mask-15" fill="white">
                        <use xlink:href="#path-14"></use>
                    </mask>
                    <g id="Clip-31"></g>
                    <path d="M0.195692308,0.8 C0.466153846,1.1635 0.734538462,1.5245 1.01030769,1.89575 C1.539,1.56275 2.65707692,0.4965 2.79830769,0.17625 C1.95115385,0.53825 1.07492308,0.71475 0.195692308,0.8" id="Fill-30" fill="url(#linearGradient-16)" mask="url(#mask-15)"></path>
                </g>
                <g id="Group-35" transform="translate(14.000000, 7.000000)">
                    <mask id="mask-18" fill="white">
                        <use xlink:href="#path-17"></use>
                    </mask>
                    <g id="Clip-34"></g>
                    <path d="M0.235,1.031 C0.2395,1.45875 0.5135,1.822 0.9065,1.899 C0.7425,1.306 0.719,0.71125 0.81775,0.108 C0.4855,0.185 0.2305,0.59875 0.235,1.031" id="Fill-33" fill="url(#linearGradient-19)" mask="url(#mask-18)"></path>
                </g>
                <g id="Group-38" transform="translate(28.000000, 7.000000)">
                    <mask id="mask-21" fill="white">
                        <use xlink:href="#path-20"></use>
                    </mask>
                    <g id="Clip-37"></g>
                    <path d="M0.126333333,1.883 C0.582,1.76075 0.854666667,1.43625 0.857,1.03675 C0.858666667,0.64075 0.601666667,0.26575 0.257333333,0.1735 C0.361333333,0.745 0.338333333,1.3085 0.126333333,1.883" id="Fill-36" fill="url(#linearGradient-22)" mask="url(#mask-21)"></path>
                </g>
                <path d="M20.7526635,9.30178802 C21.5936992,9.27638961 22.1986463,9.26784207 22.8023863,9.2368267 C23.3216365,9.20971879 23.8353346,9.13450043 24.3236857,8.93790699 C24.6855435,8.79186615 24.9926036,8.57988713 25.1707564,8.2128313 C25.5777559,7.37273014 25.2260369,6.4176035 24.378242,6.0573857 C23.8754069,5.84369718 23.3443281,5.76139657 22.8069729,5.73624238 C21.5080024,5.67567695 20.2083077,5.65662814 18.9098201,5.76041971 C18.4460917,5.79754046 17.9905709,5.88814439 17.5603971,6.08351675 C16.9646232,6.35410748 16.6802547,6.81958213 16.6773579,7.47749857 C16.6744611,8.14078774 16.9564156,8.61310043 17.5570175,8.8875986 C17.9097021,9.04975767 18.2814573,9.15159551 18.6643168,9.18041293 C19.4377607,9.23853621 20.2126529,9.27174951 20.7526635,9.30178802 M20.991649,10 C20.1991346,9.95701808 19.4037233,9.93870192 18.6143471,9.86006454 C18.206382,9.81952478 17.7940718,9.71206998 17.4107294,9.56407541 C16.428475,9.18505303 15.9620913,8.43164835 16.002405,7.36857848 C16.0366837,6.46278336 16.4733753,5.8283116 17.2852017,5.45466196 C17.7890024,5.22241306 18.325392,5.1171562 18.8711961,5.0744185 C20.1967206,4.97087114 21.5244176,4.98723358 22.851149,5.05146224 C23.497134,5.08272182 24.1356355,5.18578074 24.7318922,5.46369793 C25.617104,5.87617783 26.0706936,6.66768012 25.9910317,7.65235684 C25.9084731,8.67586381 25.3860847,9.31961574 24.3639994,9.65492356 C23.7001509,9.87251953 23.0121624,9.93113124 22.320553,9.95042426 C21.878792,9.96287925 21.4363068,9.95286642 20.9935802,9.95286642 C20.992856,9.96825199 20.9923732,9.984126 20.991649,10" id="Fill-39" fill="#2B50A5"></path>
                <g id="Group-43" transform="translate(17.000000, 6.000000)">
                    <mask id="mask-24" fill="white">
                        <use xlink:href="#path-23"></use>
                    </mask>
                    <g id="Clip-42"></g>
                    <path d="M2.33675,0.18025 C1.8565,0.21825 1.38475,0.31125 0.93925,0.511 C0.32225,0.788 0.02775,1.26475 0.0245,1.93825 C0.02175,2.61725 0.31375,3.10075 0.93575,3.38175 C1.301,3.54775 1.686,3.65175 2.0825,3.6815 C2.8835,3.741 3.686,3.775 4.24525,3.80575 C5.11625,3.77975 5.7425,3.77075 6.36775,3.73925 C6.9055,3.71125 7.43775,3.6345 7.9435,3.433 C8.318,3.28375 8.63625,3.0665 8.8205,2.69075 C9.24225,1.831 8.878,0.85325 7.99975,0.4845 C7.479,0.26575 6.92925,0.18175 6.37275,0.15575 C5.7105,0.12525 5.04825,0.105 4.38575,0.105 C3.70275,0.105 3.0195,0.1265 2.33675,0.18025" id="Fill-41" fill="url(#linearGradient-25)" mask="url(#mask-24)"></path>
                </g>
                <g id="Group-65">
                    <path d="M14.433699,23.6590689 C14.433699,23.3632911 14.2353938,23.1538022 13.9351378,23.1538022 L13.4514191,23.1538022 L13.4514191,24.1640911 L13.9351378,24.1640911 C14.2353938,24.1640911 14.433699,23.9546022 14.433699,23.6590689 M15.6072278,23.6561356 C15.6072278,24.5292911 14.952699,25.1658244 14.0718833,25.1658244 L13.4514191,25.1658244 L13.4514191,26.3156911 L12.3070886,26.3156911 L12.3070886,22.1520689 L14.0718833,22.1520689 C14.952699,22.1520689 15.6072278,22.7832244 15.6072278,23.6561356" id="Fill-44" fill="#3399FD"></path>
                    <path d="M17.2677602,24.0753822 L17.7891934,24.0753822 C18.1084283,24.0753822 18.291891,23.8822711 18.291891,23.6224267 C18.291891,23.3620933 18.1084283,23.1711822 17.7891934,23.1711822 L17.2677602,23.1711822 L17.2677602,24.0753822 Z M17.6818896,25.0419156 L17.2677602,25.0419156 L17.2677602,26.3157156 L16.1261062,26.3157156 L16.1261062,22.1520933 L17.9220457,22.1520933 C18.8157574,22.1520933 19.46323,22.7556267 19.46323,23.6256044 C19.46323,24.1364933 19.2150443,24.5554711 18.805538,24.8013822 L19.6284437,26.3157156 L18.3539374,26.3157156 L17.6818896,25.0419156 Z" id="Fill-46" fill="#3399FD"></path>
                    <mask id="mask-27" fill="white">
                        <use xlink:href="#path-26"></use>
                    </mask>
                    <g id="Clip-49"></g>
                    <polygon id="Fill-48" fill="#3399FD" mask="url(#mask-27)" points="20.1278565 26.3156667 21.2848397 26.3156667 21.2848397 22.1520444 20.1278565 22.1520444"></polygon>
                    <polygon id="Fill-50" fill="#3399FD" mask="url(#mask-27)" points="25.7848835 22.1520689 25.7848835 26.3156911 24.8405615 26.3156911 23.19402 24.0560467 23.19402 26.3156911 22.0874039 26.3156911 22.0874039 22.1520689 23.0872028 22.1520689 24.6787541 24.3364244 24.6787541 22.1520689"></polygon>
                    <polygon id="Fill-51" fill="#3399FD" mask="url(#mask-27)" points="29.6953162 23.1849933 28.5694779 23.1849933 28.5694779 26.3158378 27.4224709 26.3158378 27.4224709 23.1849933 26.2963893 23.1849933 26.2963893 22.1519711 29.6953162 22.1519711"></polygon>
                    <polygon id="Fill-52" fill="#3399FD" mask="url(#mask-27)" points="16.4263378 27.4135889 16.4263378 31.5772111 15.2739778 31.5772111 15.2739778 29.9787889 14.030373 29.9787889 14.030373 31.5772111 12.8784996 31.5772111 12.8784996 27.4135889 14.030373 27.4135889 14.030373 28.9161889 15.2739778 28.9161889 15.2739778 27.4135889"></polygon>
                    <polygon id="Fill-53" fill="#3399FD" mask="url(#mask-27)" points="19.9260719 30.5822978 19.9260719 31.5771867 17.2240114 31.5771867 17.2240114 27.4135644 19.8759481 27.4135644 19.8759481 28.4050311 18.3605557 28.4050311 18.3605557 29.0183422 19.7221703 29.0183422 19.7221703 29.9589644 18.3605557 29.9589644 18.3605557 30.5822978"></polygon>
                    <path d="M21.7228143,29.3371467 L22.2442475,29.3371467 C22.5634824,29.3371467 22.7469451,29.1437911 22.7469451,28.8839467 C22.7469451,28.6236133 22.5634824,28.4327022 22.2442475,28.4327022 L21.7228143,28.4327022 L21.7228143,29.3371467 Z M22.1369437,30.3034356 L21.7228143,30.3034356 L21.7228143,31.5772356 L20.5806737,31.5772356 L20.5806737,27.4136133 L22.3773432,27.4136133 C23.2705682,27.4136133 23.9182841,28.0171467 23.9182841,28.8871244 C23.9182841,29.3980133 23.6700985,29.8165022 23.2605921,30.0629022 L24.0832546,31.5772356 L22.8089916,31.5772356 L22.1369437,30.3034356 Z" id="Fill-54" fill="#3399FD" mask="url(#mask-27)"></path>
                    <path d="M26.6141643,30.6152244 C27.2446045,30.6152244 27.7015581,30.1471133 27.7015581,29.4954244 C27.7015581,28.8442244 27.2446045,28.3761133 26.6141643,28.3761133 C25.9832374,28.3761133 25.5197142,28.8474022 25.5197142,29.4954244 C25.5197142,30.1434467 25.9832374,30.6152244 26.6141643,30.6152244 M24.3306129,29.4954244 C24.3306129,28.2228467 25.2815046,27.30838 26.6141643,27.30838 C27.9426875,27.30838 28.8901727,28.21918 28.8901727,29.4954244 C28.8901727,30.7716689 27.9426875,31.6829578 26.6141643,31.6829578 C25.2815046,31.6829578 24.3306129,30.7680022 24.3306129,29.4954244" id="Fill-55" fill="#3399FD" mask="url(#mask-27)"></path>
                    <path d="M19.4266104,7.54470444 C19.3387722,8.05143778 18.9691702,8.46210444 18.6010281,8.46210444 C18.2328861,8.46210444 18.0068425,8.05143778 18.0949241,7.54470444 C18.1830056,7.03870444 18.5526076,6.62803778 18.9205063,6.62803778 C19.2884051,6.62803778 19.5149353,7.03870444 19.4266104,7.54470444" id="Fill-56" fill="#2B50A5" mask="url(#mask-27)"></path>
                    <path d="M24.2088803,7.54470444 C24.1205554,8.05143778 23.7511968,8.46210444 23.3830547,8.46210444 C23.015156,8.46210444 22.7883824,8.05143778 22.8767073,7.54470444 C22.9650322,7.03870444 23.3346342,6.62803778 23.7022896,6.62803778 C24.070675,6.62803778 24.2972052,7.03870444 24.2088803,7.54470444" id="Fill-57" fill="#2B50A5" mask="url(#mask-27)"></path>
                    <path d="M21.0267266,9.11939111 C20.5668532,9.11939111 20.1069797,8.97932444 19.7483271,8.69919111 C19.6492962,8.62170222 19.6312906,8.47796889 19.7089094,8.37823556 C19.785555,8.27874667 19.92887,8.26065778 20.0283876,8.33814667 C20.5787758,8.76812444 21.4749207,8.76812444 22.0253089,8.33814667 C22.1253131,8.26065778 22.2678982,8.27874667 22.3450304,8.37823556 C22.4224059,8.47796889 22.404157,8.62170222 22.3053693,8.69919111 C21.9467167,8.97932444 21.4868433,9.11939111 21.0267266,9.11939111" id="Fill-58" fill="#2B50A5" mask="url(#mask-27)"></path>
                    <path d="M61.5168048,10.70388 C62.844598,10.70388 63.3451058,11.6660133 63.3451058,12.5411244 C63.3451058,13.4375022 62.8229426,14.3783689 61.5168048,14.3783689 L46.3224897,14.3783689 C45.0165952,14.3783689 44.4939454,13.4375022 44.4939454,12.5411244 C44.4939454,11.6660133 44.9944532,10.70388 46.3224897,10.70388 L61.5168048,10.70388 Z M47.5410326,19.3638133 L47.5410326,17.4173022 C47.5410326,15.8653244 48.4554264,15.1867467 49.7837063,15.1867467 C51.0896008,15.1867467 51.9818526,15.8868356 51.9818526,17.4173022 L51.9818526,19.3638133 L55.8569553,19.3638133 L55.8569553,17.4173022 C55.8569553,15.8653244 56.7713491,15.1867467 58.0991423,15.1867467 C59.4050368,15.1867467 60.2977752,15.8868356 60.2977752,17.4173022 L60.2977752,19.3638133 L61.7781297,19.3638133 C63.1059229,19.3638133 63.6069173,20.23868 63.6069173,21.1137911 C63.6069173,22.0101689 63.0842675,22.86328 61.7781297,22.86328 L46.0609215,22.86328 C44.7547837,22.86328 44.2326205,22.0101689 44.2326205,21.1137911 C44.2326205,20.23868 44.7333716,19.3638133 46.0609215,19.3638133 L47.5410326,19.3638133 Z M62.2353266,26.3837689 C63.5847752,26.3837689 64.1071817,27.3466356 64.1071817,28.2430133 C64.1071817,29.1616356 63.5631198,30.0802578 62.2353266,30.0802578 L45.6037246,30.0802578 C44.276418,30.0802578 43.7316262,29.1616356 43.7316262,28.2430133 C43.7316262,27.3466356 44.2542759,26.3837689 45.6037246,26.3837689 L62.2353266,26.3837689 Z" id="Fill-59" fill="#2B50A5" mask="url(#mask-27)"></path>
                    <path d="M80.8911015,12.1474956 C80.8911015,10.7253178 81.9359145,9.98171778 83.0894911,9.98171778 C84.2214124,9.98171778 85.2881241,10.7473178 85.2881241,12.1474956 L85.2881241,25.4440511 L80.8911015,25.4440511 L80.8911015,12.1474956 Z M70.2894377,30.5172511 C67.8513786,30.5172511 67.1987963,29.6643844 67.1987963,27.3245622 L67.1987963,25.9243844 C67.1987963,24.4371844 68.2219539,23.8688511 69.4404968,23.8688511 C70.6597696,23.8688511 71.6174743,24.4594289 71.6174743,25.9243844 L71.6174743,26.5809622 C71.6174743,27.0625178 71.726238,27.1272956 72.2050903,27.1272956 L84.0257837,27.1272956 C85.3535769,27.1272956 85.8540847,27.9366511 85.8540847,28.8117622 C85.8540847,29.70814 85.3319215,30.5172511 84.0257837,30.5172511 L70.2894377,30.5172511 Z M69.6147134,23.1252511 C67.3287288,23.1252511 65.9792802,21.2444956 65.9792802,19.3202289 L65.9792802,18.7951622 C65.9792802,16.8486511 67.3075601,15.3404289 69.6147134,15.3404289 L73.7071001,15.3404289 L73.7071001,14.3995622 C73.7071001,14.0280067 73.576681,13.9402511 73.1632816,13.9402511 L67.6338512,13.9402511 C66.5454841,13.9402511 66.0882872,13.0438733 66.0882872,12.3002733 C66.0882872,11.4909178 66.5673828,10.6160511 67.6338512,10.6160511 L74.8178526,10.6160511 C77.1469046,10.6160511 78.0827105,11.7974511 78.0827105,13.5246956 L78.0827105,18.4238511 L71.1602774,18.4238511 C70.7466346,18.4238511 70.485553,18.6646289 70.485553,19.0361844 L70.485553,19.2332067 C70.485553,19.6045178 70.7466346,19.80154 71.1602774,19.80154 L78.4530425,19.80154 C79.5195108,19.80154 79.9767077,20.6979178 79.9767077,21.4852733 C79.9767077,22.2508733 79.5628217,23.1252511 78.4530425,23.1252511 L69.6147134,23.1252511 Z" id="Fill-60" fill="#2B50A5" mask="url(#mask-27)"></path>
                    <path d="M104.901774,10.6382222 C106.120804,10.6382222 106.578,11.5346 106.578,12.3439556 C106.578,13.1753111 106.098905,14.0281778 104.901774,14.0281778 L93.3205068,14.0281778 C92.8854519,14.0281778 92.6679245,14.2032 92.6679245,14.5967556 L92.6679245,15.4496222 L104.771112,15.4496222 C105.990141,15.4496222 106.447338,16.3022444 106.447338,17.0896 C106.447338,17.8989556 105.968486,18.7295778 104.771112,18.7295778 L92.6679245,18.7295778 L92.6679245,19.5609333 C92.6679245,19.9982444 92.8854519,20.1510222 93.3205068,20.1510222 L105.250207,20.1510222 C106.468993,20.1510222 106.92619,21.0261333 106.92619,21.8352444 C106.92619,22.6661111 106.447338,23.5197111 105.250207,23.5197111 L91.7102198,23.5197111 C89.1848091,23.5197111 88.2487599,22.4695778 88.2487599,20.1075111 L88.2487599,14.0496889 C88.2487599,11.6881111 89.1848091,10.6382222 91.7102198,10.6382222 L104.901774,10.6382222 Z M105.772614,26.4058667 C107.122062,26.4058667 107.644712,27.3467333 107.644712,28.2431111 C107.644712,29.1617333 107.100407,30.0803556 105.772614,30.0803556 L89.1414983,30.0803556 C87.8132184,30.0803556 87.2693999,29.1617333 87.2693999,28.2431111 C87.2693999,27.3467333 87.791563,26.4058667 89.1414983,26.4058667 L105.772614,26.4058667 Z" id="Fill-61" fill="#2B50A5" mask="url(#mask-27)"></path>
                    <path d="M124.472113,30.5173489 L124.472113,12.1475933 C124.472113,10.7254156 125.495271,9.98181556 126.648847,9.98181556 C127.802667,9.98181556 128.826068,10.7254156 128.826068,12.1475933 L128.826068,30.5173489 L124.472113,30.5173489 Z M117.37522,24.5030378 L117.37522,17.5265933 C117.37522,16.1053933 116.635286,15.5803267 115.742791,15.5803267 C114.871951,15.5803267 114.131774,16.1053933 114.131774,17.5265933 L114.131774,24.5030378 C114.131774,25.9032156 114.894093,26.5375489 115.742791,26.5375489 C116.613387,26.5375489 117.37522,25.9032156 117.37522,24.5030378 Z M117.984978,12.1253489 L117.984978,12.3223711 L121.141559,12.3223711 C122.207784,12.3223711 122.773988,13.1094822 122.773988,14.0281044 C122.773988,14.9467267 122.186129,15.7551044 121.141559,15.7551044 L121.076106,15.7551044 C121.315532,16.3239267 121.46785,16.9580156 121.46785,17.6801044 L121.46785,24.4817711 C121.46785,28.3303044 118.942683,30.1015489 115.742791,30.1015489 C112.564555,30.1015489 110.039387,28.3303044 110.039387,24.4817711 L110.039387,17.6801044 C110.039387,16.9580156 110.170293,16.3239267 110.409233,15.7551044 L110.387577,15.7551044 C109.342764,15.7551044 108.754905,14.9467267 108.754905,14.0281044 C108.754905,13.1094822 109.29921,12.3223711 110.365922,12.3223711 L113.500604,12.3223711 L113.500604,12.1253489 C113.500604,10.7254156 114.3712,9.91679333 115.742791,9.91679333 C117.114138,9.91679333 117.984978,10.7254156 117.984978,12.1253489 Z" id="Fill-62" fill="#3399FD" mask="url(#mask-27)"></path>
                    <path d="M135.639373,24.3281867 C135.639373,25.8151422 136.357408,26.5152311 137.402464,26.5152311 C138.44752,26.5152311 139.165555,25.8151422 139.165555,24.3281867 L139.165555,16.10532 C139.165555,14.6403644 138.44752,13.9190089 137.402464,13.9190089 C136.357408,13.9190089 135.639373,14.6403644 135.639373,16.10532 L135.639373,24.3281867 Z M146.262205,21.6165644 L143.41026,21.6165644 L143.41026,24.21892 C143.41026,28.0904311 140.994343,30.1014756 137.402464,30.1014756 C133.810585,30.1014756 131.372769,28.0904311 131.372769,24.21892 L131.372769,16.2145867 C131.372769,12.3438089 133.810585,10.3317867 137.402464,10.3317867 C140.994343,10.3317867 143.41026,12.3438089 143.41026,16.2145867 L143.41026,17.8765644 L146.262205,17.8765644 L146.262205,12.1032756 C146.262205,10.7038311 147.285363,9.98174222 148.417527,9.98174222 C149.52755,9.98174222 150.594505,10.7253422 150.594505,12.1032756 L150.594505,30.5172756 L146.262205,30.5172756 L146.262205,21.6165644 Z" id="Fill-63" fill="#3399FD" mask="url(#mask-27)"></path>
                    <path d="M160.542516,26.5375 L160.542516,23.4538333 L157.691057,23.4538333 C154.8177,23.4538333 153.359244,21.9881444 153.359244,19.6480778 L153.359244,19.2332556 C153.359244,16.8931889 154.8177,15.4059889 157.691057,15.4059889 L167.247178,15.4059889 L167.247178,14.7494111 C167.247178,14.4653667 167.160557,14.1373222 166.659805,14.1373222 L155.274897,14.1373222 C154.229597,14.1373222 153.59867,13.2847 153.59867,12.3873444 C153.59867,11.5132111 154.229597,10.6383444 155.274897,10.6383444 L167.878592,10.6383444 C170.882855,10.6383444 171.731796,12.0160333 171.731796,14.0940556 L171.731796,18.7297 L158.757526,18.7297 C158.257018,18.7297 158.017592,18.9267222 158.017592,19.3422778 L158.017592,19.4517889 C158.017592,19.8666111 158.257018,20.0638778 158.757526,20.0638778 L170.556077,20.0638778 C171.775106,20.0638778 172.232303,20.9602556 172.232303,21.7696111 C172.232303,22.6009667 171.753451,23.4538333 170.556077,23.4538333 L164.983579,23.4538333 L164.983579,26.5375 L171.122038,26.5375 C172.450074,26.5375 172.950825,27.4338778 172.950825,28.3087444 C172.950825,29.2051222 172.428175,30.0802333 171.122038,30.0802333 L154.403814,30.0802333 C153.097676,30.0802333 152.575756,29.2051222 152.575756,28.3087444 C152.575756,27.4338778 153.076021,26.5375 154.403814,26.5375 L160.542516,26.5375 Z" id="Fill-64" fill="#3399FD" mask="url(#mask-27)"></path>
                </g>
            </g>
        </g>
    </g>
</svg>