<?xml version="1.0" encoding="UTF-8"?>
<svg width="264px" height="271px" viewBox="0 0 264 271" version="1.1" xmlns="http://www.w3.org/2000/svg" xmlns:xlink="http://www.w3.org/1999/xlink">
    <!-- Generator: Sketch 52.6 (67491) - http://www.bohemiancoding.com/sketch -->
    <title>Group 59</title>
    <desc>Created with Sketch.</desc>
    <defs>
        <polygon id="path-1" points="0.00473145343 0.0576955117 212.777948 0.0576955117 212.777948 212.356151 0.00473145343 212.356151"></polygon>
        <path d="M0.0438883929,79.1808647 C0.358674107,79.1349248 0.469151786,79.1272682 0.579629464,79.1088922 C8.53704911,77.8838296 16.5096027,77.4075865 24.5078839,78.6755263 C29.7714643,79.5101003 34.7020982,81.216 39.0364554,84.485386 C40.5301741,85.6109123 42.1101563,86.6369023 43.7113259,87.6016391 C49.3653616,91.0042506 55.3039152,93.5784135 61.9991652,93.855584 C64.1739107,93.948995 66.316875,93.7499223 68.4235179,93.0853258 C68.3766027,92.9980401 68.3720625,92.9643509 68.3523884,92.9490376 C68.2358571,92.8663459 68.1162991,92.7897794 67.9937143,92.7162757 C58.1581741,86.5465539 51.7640893,77.7031328 48.2636116,66.6239724 C46.3476563,60.5660376 45.3291429,54.3396566 44.8342634,48.012208 C44.3363571,41.6663835 44.1729107,35.3129023 44.7434598,28.9655464 C45.5137768,20.4069524 47.340442,12.0673383 49.8814286,3.87779449 C50.2522098,2.69101504 50.6320714,1.50576692 51.0073929,0.320518797 C50.9544241,0.292954887 50.9014554,0.265390977 50.8469732,0.243952381 C33.942375,26.5108271 17.0377768,52.7777018 0.0438883929,79.1808647" id="path-3"></path>
        <linearGradient x1="50.0005838%" y1="-42.1543685%" x2="50.0005838%" y2="105.799199%" id="linearGradient-5">
            <stop stop-color="#3BF7DF" offset="0%"></stop>
            <stop stop-color="#4B85FD" offset="100%"></stop>
        </linearGradient>
        <path d="M17.7763125,1.15509273 C18.9234643,5.16411028 20.1826071,9.14709524 21.1935536,13.1928647 C22.917308,20.0914987 23.9524687,27.1141704 24.1552634,34.2333158 C24.3262768,40.3096266 24.0750536,46.3721554 23.3501384,52.4117143 C22.6327902,58.399208 21.399375,64.2626642 19.2443036,69.9040777 C16.7426652,76.4612256 13.1574375,82.3246817 7.98617411,87.0626115 C5.60258036,89.2462857 2.97079018,91.1451328 0.450991071,93.1772055 C0.473691964,93.1848622 0.626544643,93.2491779 0.786964286,93.2874612 C4.703625,94.2629173 8.59607143,93.9658396 12.4612768,92.9888521 C18.7690982,91.397802 24.3353571,88.2585789 29.5505089,84.4516967 C32.5757812,82.2450526 35.8643839,80.6570652 39.4496116,79.677015 C47.0574375,77.6020652 54.7863348,77.6556617 62.5439866,78.4075439 C64.4781027,78.5928346 66.4001116,78.883787 68.4658929,79.1410501 C51.5007589,52.7822957 34.5991875,26.5230777 17.7006429,0.259265664 C17.620433,0.616065163 17.7006429,0.888641604 17.7763125,1.15509273" id="path-6"></path>
        <linearGradient x1="49.9994506%" y1="-42.1779945%" x2="49.9994506%" y2="105.788279%" id="linearGradient-8">
            <stop stop-color="#3BF7DF" offset="0%"></stop>
            <stop stop-color="#4B85FD" offset="100%"></stop>
        </linearGradient>
        <path d="M0.470081522,0.562386364 C5.37703804,5.48068182 10.7842935,9.70710227 17.2556522,12.4515909 C21.5027717,14.2480114 25.9094293,15.2221591 30.5499728,14.6100568 C31.9347011,14.4290341 33.2977446,14.073125 34.8497554,13.7632386 C34.4439402,12.9977273 34.2410326,12.3733523 33.841413,11.913125 C32.3172826,10.158125 30.7404891,8.43840909 29.1528533,6.73403409 C28.4914674,6.02221591 27.8486685,5.13397727 27.0045109,4.77806818 C26.397337,4.52494318 25.6755435,4.54028409 24.95375,4.555625 C24.6424185,4.56329545 24.329538,4.56943182 24.0275,4.555625 C23.795163,4.54181818 23.5628261,4.54795455 23.3304891,4.54181818 C17.4601087,4.40375 11.6594293,3.74409091 5.9888587,2.18545455 C4.10538043,1.67153409 2.260625,1.00880682 0.386440217,0.412045455 C0.418967391,0.468806818 0.437554348,0.525568182 0.470081522,0.562386364" id="path-9"></path>
        <linearGradient x1="50.0009596%" y1="-349.066301%" x2="50.0009596%" y2="417.267216%" id="linearGradient-11">
            <stop stop-color="#3BF7DF" offset="0%"></stop>
            <stop stop-color="#4B85FD" offset="100%"></stop>
        </linearGradient>
        <path d="M0.0530549451,4.27777778 C1.80461538,6.49916667 3.54272527,8.70375 5.32865934,10.9740278 C8.75257143,8.93902778 15.9934505,2.42305556 16.9080879,0.465972222 C11.4217582,2.67819444 5.74712088,3.75680556 0.0530549451,4.27777778" id="path-12"></path>
        <linearGradient x1="49.9956659%" y1="-476.15073%" x2="49.9956659%" y2="568.254038%" id="linearGradient-14">
            <stop stop-color="#3BF7DF" offset="0%"></stop>
            <stop stop-color="#4B85FD" offset="100%"></stop>
        </linearGradient>
        <path d="M0.2625,5.68944444 C0.29625,8.30347222 2.35125,10.5233333 5.29875,10.9938889 C4.06875,7.37 3.8925,3.73541667 4.633125,0.0488888889 C2.14125,0.519444444 0.22875,3.04791667 0.2625,5.68944444" id="path-15"></path>
        <linearGradient x1="50.0134907%" y1="-202.151383%" x2="50.0134907%" y2="800.652655%" id="linearGradient-17">
            <stop stop-color="#3BF7DF" offset="0%"></stop>
            <stop stop-color="#4B85FD" offset="100%"></stop>
        </linearGradient>
        <path d="M0.589555556,10.8961111 C2.71755556,10.1490278 3.98844444,8.16597222 3.99933333,5.72458333 C4.00711111,3.30458333 2.80777778,1.01291667 1.20088889,0.449166667 C1.68622222,3.94166667 1.57888889,7.38527778 0.589555556,10.8961111" id="path-18"></path>
        <linearGradient x1="50.0119073%" y1="-215.648994%" x2="50.0119073%" y2="835.107081%" id="linearGradient-20">
            <stop stop-color="#3BF7DF" offset="0%"></stop>
            <stop stop-color="#4B85FD" offset="100%"></stop>
        </linearGradient>
        <path d="M14.2801389,0.485723684 C11.3452778,0.715723684 8.46236111,1.27861842 5.73986111,2.48763158 C1.96930556,4.16421053 0.169583333,7.04980263 0.149722222,11.12625 C0.132916667,15.2359868 1.91736111,18.1624342 5.71847222,19.8632237 C7.95055556,20.8679605 10.3033333,21.4974342 12.7263889,21.6775 C17.6213889,22.0376316 22.5255556,22.2434211 25.9431944,22.4295395 C31.2659722,22.2721711 35.0930556,22.2176974 38.9140278,22.0270395 C42.2002778,21.8575658 45.4529167,21.3930263 48.5436111,20.1734211 C50.8322222,19.2700658 52.7770833,17.9551316 53.9030556,15.6808553 C56.4804167,10.4771053 54.2544444,4.55914474 48.8873611,2.32723684 C45.705,1.00322368 42.3454167,0.493289474 38.9445833,0.335921053 C34.9005556,0.151315789 30.855,0.0302631579 26.8109722,0.0302631579 C22.6325,0.0302631579 18.4555556,0.160394737 14.2801389,0.485723684" id="path-21"></path>
        <linearGradient x1="0.339421749%" y1="49.9979565%" x2="166.50566%" y2="49.9979565%" id="linearGradient-23">
            <stop stop-color="#3BF7DF" offset="0%"></stop>
            <stop stop-color="#4B85FD" offset="100%"></stop>
        </linearGradient>
        <polygon id="path-24" points="0 271.709402 263.54771 271.709402 263.54771 0.0585811966 0 0.0585811966"></polygon>
    </defs>
    <g id="Page-1" stroke="none" stroke-width="1" fill="none" fill-rule="evenodd">
        <g id="index" transform="translate(-828.000000, -1264.000000)">
            <g id="Group-59" transform="translate(828.000000, 1264.000000)">
                <g id="Group-12">
                    <g id="Group-3" transform="translate(25.566226, 0.000000)">
                        <mask id="mask-2" fill="white">
                            <use xlink:href="#path-1"></use>
                        </mask>
                        <g id="Clip-2"></g>
                        <path d="M212.777948,106.209503 C212.777948,47.5817378 165.14844,0.056785072 106.39134,0.056785072 C47.6372803,0.056785072 0.00473145343,47.5817378 0.00473145343,106.209503 C0.00473145343,164.832715 47.6372803,212.356151 106.39134,212.356151 C165.14844,212.356151 212.777948,164.832715 212.777948,106.209503" id="Fill-1" fill="#3399FD" mask="url(#mask-2)"></path>
                    </g>
                    <path d="M131.677589,242.434651 C131.905707,243.513522 132.083639,244.404235 132.285904,245.285844 C133.423452,250.258363 134.988341,255.070036 137.645155,259.465943 C139.921772,263.230611 142.81887,266.377698 146.88089,268.280517 C154.410303,271.800883 164.17071,269.952691 170.343582,263.916476 C174.286981,260.059246 176.925545,255.399312 178.885838,250.322093 C182.289358,241.498415 183.708252,232.269591 184.365232,222.89358 C184.47777,221.27148 184.537081,219.64331 184.620724,218.006036 C184.803218,218.02121 184.891424,218.013623 184.967463,218.039419 C190.421003,219.887611 195.88975,219.553783 201.347853,218.100115 C207.925254,216.350553 213.780281,213.121527 219.244466,209.164149 C222.07617,207.106555 225.178575,205.72117 228.550158,204.888117 C236.041551,203.03689 243.613547,203.231117 251.190104,204.146109 C254.091764,204.493593 256.967571,205.086897 259.849461,205.590673 C260.804515,205.757587 261.622698,205.564877 262.18691,204.754586 C262.770892,203.921534 262.716144,203.053581 262.136724,202.217494 C262.005936,202.030854 261.893398,201.835109 261.767173,201.6424 C259.28525,197.839796 256.798764,194.038711 254.316841,190.23459 C237.807184,164.936505 221.299049,139.638421 204.789392,114.341854 C201.302229,108.994538 197.810504,103.648739 194.317257,98.3014234 C195.577989,96.7688499 196.856971,95.2863505 198.05535,93.7416378 C204.984053,84.7874633 210.700689,75.0958327 215.603704,64.9155993 C218.605736,58.6730177 221.236696,52.2832484 222.880666,45.5262684 C225.032579,36.6707248 224.109462,28.1474918 219.869509,20.0855482 C216.81577,14.2784602 212.216913,10.4121263 205.368812,9.85524067 C201.385872,9.53051718 197.897188,10.6488406 195.039631,13.5167257 C192.40715,16.1585182 190.877239,19.4376186 189.697109,22.9033591 C187.999911,27.8895339 187.105689,33.0684184 186.270777,38.2473029 C185.665504,41.9952797 184.32417,45.3942546 182.140321,48.476093 C182.004971,48.665768 181.843768,48.8372341 181.617171,49.117953 C181.492466,48.3319401 181.42251,47.6870453 181.279556,47.0573245 C180.272796,42.6416919 176.945315,39.8891292 173.62848,39.5522665 C173.371467,39.5279881 173.039936,39.2245082 172.922835,38.9726199 C170.853045,34.4006952 167.549897,30.9167459 163.367735,28.2415705 C156.902872,24.0990699 149.671533,22.2539121 142.146682,21.3738204 C135.649883,20.6136032 129.150042,20.624225 122.648681,21.3525768 C116.507745,22.0399587 110.546263,23.4223097 104.966498,26.1445244 C99.6376625,28.7453472 95.1346142,32.3082012 92.3713454,37.6813129 C91.7402191,38.9149587 91.1471124,39.8360202 89.6172014,39.6569671 C89.5654946,39.6524149 89.5077047,39.6888325 89.4544772,39.7040065 C85.8851917,40.632655 83.8351717,43.0695986 82.7782252,46.4579517 C82.5425033,47.215134 82.4436522,48.0148036 82.2581163,48.9055171 C80.1548688,46.2591723 78.3649033,43.6097928 77.7535471,40.3079315 C76.9551343,36.018243 76.1597631,31.7209676 75.2016677,27.4616272 C74.2709464,23.3236787 72.9250505,19.3192614 70.4689806,15.7791684 C67.0700231,10.8718983 62.3799181,9.03432754 56.5400985,10.0418808 C51.5884182,10.8916245 47.8944282,13.6715004 45.134201,17.7335789 C41.3322352,23.3358179 39.817532,29.6451651 39.6319961,36.3202055 C39.4860006,41.4490159 40.7406493,46.3350423 42.3572452,51.1376118 C45.3440695,60.0174337 49.4806084,68.3752702 54.1631095,76.4705966 C58.4897466,83.954411 63.2148298,91.1696457 68.9725268,97.6610808 C69.4348459,98.186101 69.1048353,98.4653025 68.8691134,98.8234088 C64.1835707,106.005261 59.4934656,113.18256 54.8064021,120.361377 C39.4768759,143.852239 24.144308,167.343101 8.81326097,190.833963 C6.36327419,194.589527 3.90872504,198.342056 1.45873825,202.100654 C0.699865872,203.266017 0.798716984,204.401032 1.70814721,205.162767 C2.41835443,205.762139 3.21524647,205.683235 4.05319974,205.511768 C12.8509487,203.690889 21.7095291,202.829006 30.671523,204.05203 C35.6262449,204.727273 40.2965797,206.176389 44.3890157,209.232432 C47.739308,211.737659 51.3496548,213.843809 55.1698701,215.569092 C60.1960689,217.840639 65.412366,219.371696 70.9769232,219.265478 C73.1744595,219.22299 75.3643918,218.834536 77.5816983,218.599339 C77.5862607,218.690383 77.6181972,218.916476 77.6258011,219.139533 C77.904105,227.160507 78.8622004,235.08892 80.8894086,242.86711 C82.3965078,248.662058 84.4632565,254.229397 87.8804634,259.212537 C91.8999016,265.081838 97.1861549,269.049838 104.455514,269.876821 C111.733997,270.702286 117.858204,268.407978 122.679096,262.86947 C126.430876,258.560055 128.625371,253.438832 130.211551,248.03082 C130.736222,246.241806 131.15748,244.420927 131.677589,242.434651" id="Fill-4" fill="#FFFFFF"></path>
                    <path d="M173.946933,54.8194299 C176.025848,54.0774216 177.269851,52.107837 177.278976,49.6830326 C177.28658,47.2794718 176.114053,45.0033725 174.543081,44.4434521 C175.019087,47.91071 174.912632,51.3324459 173.946933,54.8194299 M90.1394394,44.044376 C88.1167936,44.5132525 86.5671123,47.0230313 86.5944864,49.6481324 C86.6218606,52.244403 88.2871216,54.4476671 90.6793185,54.9150261 C89.6801619,51.3172719 89.5387288,47.7073784 90.1394394,44.044376 M145.050472,82.2100085 C148.533072,80.1888324 155.902803,73.7171235 156.832003,71.7733347 C151.250717,73.9705292 145.476292,75.0418132 139.680575,75.5577291 C141.464457,77.7655454 143.231611,79.9551528 145.050472,82.2100085 M107.447509,71.7293301 C107.479445,71.7854739 107.497695,71.8416177 107.529631,71.8765178 C112.347482,76.7428181 117.656547,80.9232537 124.011913,83.6363641 C128.18191,85.4147563 132.507026,86.378305 137.064823,85.7728626 C138.424406,85.5938094 139.761177,85.2417727 141.286525,84.935258 C140.886559,84.1780757 140.687336,83.5604941 140.296494,83.1067916 C138.798519,81.3678518 137.251879,79.6683643 135.691552,77.9825335 C135.042177,77.2784601 134.41105,76.3983684 133.583743,76.0478491 C132.729061,75.686708 131.64474,75.8748656 130.660791,75.8263088 C130.432673,75.8141696 130.204555,75.8187218 129.974917,75.8141696 C124.211136,75.6760862 118.515792,75.0251218 112.949714,73.4834439 C111.098917,72.9751151 109.28766,72.3195985 107.447509,71.7293301 M133.702364,25.0829517 C126.318946,25.0829517 120.38788,25.623146 114.579997,27.1648239 C109.445822,28.5259312 104.635575,30.5562118 100.578117,34.0902352 C93.3072373,40.4314478 91.8837813,51.0638662 97.2825728,58.895165 C99.8755135,62.655281 103.499547,65.154438 107.591983,67.0299438 C112.815884,69.4244002 118.353067,70.6064545 124.040808,71.1678923 C132.187661,71.972114 140.284327,71.7202257 148.291267,69.9251421 C153.664205,68.7188095 158.731465,66.7810903 163.115892,63.3411456 C172.055075,56.3368295 173.159165,43.6817175 165.508089,35.5241778 C162.014843,31.8004794 157.603042,29.5623151 152.818648,27.993324 C146.159125,25.8021991 139.28365,25.0996431 133.702364,25.0829517 M180.337277,217.766894 C165.54763,223.797039 150.110128,224.965437 134.470361,225.315956 C134.470361,225.969956 134.462757,226.528359 134.470361,227.088279 C134.566171,233.75118 135.344813,240.332142 137.064823,246.778055 C138.289056,251.354532 139.955837,255.745886 142.884872,259.548489 C146.601674,264.376855 151.480356,266.414722 157.555898,265.601396 C162.756987,264.906427 166.682136,262.152347 169.796707,258.111512 C173.306682,253.559314 175.329328,248.301524 176.860759,242.832816 C178.664412,236.383868 179.581446,229.790768 180.071139,223.129384 C180.195844,221.388926 180.24603,219.639365 180.337277,217.766894 M81.8770072,217.087099 C81.8770072,217.718337 81.8450707,218.20087 81.8846112,218.677334 C82.2267881,222.835008 82.4564268,227.003305 82.9613279,231.138218 C83.6897845,237.089459 85.0143894,242.92386 87.1860723,248.535204 C88.931935,253.04795 91.1979067,257.223833 94.6668203,260.701713 C101.14537,267.199218 113.545862,268.455624 120.550604,258.715437 C122.693392,255.733747 124.246115,252.469821 125.415599,249.019254 C127.590324,242.605206 128.595563,235.968101 129.019863,229.236917 C129.100465,227.972923 129.032029,226.699825 129.032029,225.318991 C112.998379,224.939641 97.0255599,223.716617 81.8770072,217.087099 M187.509305,214.333019 C187.532117,214.340606 187.687237,214.404337 187.84692,214.442272 C191.784236,215.407338 195.695698,215.114479 199.579786,214.146379 C205.916903,212.569801 211.510355,209.459132 216.750985,205.686876 C219.791037,203.498786 223.097226,201.925243 226.698448,200.955625 C234.343441,198.898031 242.110097,198.95114 249.907169,199.6977 C251.850734,199.881306 253.782132,200.168094 255.856485,200.424535 C238.809991,174.305537 221.825849,148.28517 204.843228,122.260251 C204.762626,122.615323 204.843228,122.882385 204.920788,123.14793 C206.072023,127.120482 207.337318,131.065721 208.353203,135.076207 C210.085378,141.912092 211.125596,148.869369 211.329382,155.925277 C211.502751,161.947835 211.24878,167.95522 210.521844,173.938326 C209.799471,179.871358 208.561551,185.681481 206.395951,191.271581 C203.88057,197.769086 200.279348,203.579208 195.0813,208.274042 C192.687583,210.437854 190.041415,212.31943 187.509305,214.333019 M58.859906,122.31943 C58.8066785,122.293634 58.753451,122.266321 58.7002235,122.245077 C41.7115193,148.273031 24.7243359,174.299467 7.64894695,200.46247 C7.96374973,200.418465 8.07476713,200.409361 8.18578453,200.392669 C16.1820791,199.17875 24.1951023,198.705321 32.2324581,199.961728 C37.5202322,200.790228 42.474954,202.482129 46.8320069,205.720259 C48.3315022,206.837065 49.9192032,207.852205 51.5297159,208.80665 C57.2098529,212.179829 63.1789392,214.730577 69.9053772,215.005227 C72.0907471,215.097788 74.2457014,214.900526 76.362636,214.241975 C76.3154916,214.155483 76.3094084,214.120583 76.291159,214.106926 C76.1725377,214.024987 76.0539163,213.949117 75.9307326,213.874764 C66.0456215,207.761161 59.62182,198.999697 56.1042412,188.021311 C54.1774049,182.016961 53.1554365,175.848732 52.6581393,169.578838 C52.1578006,163.289217 51.9935557,156.995043 52.5668922,150.705422 C53.3394516,142.226194 55.1750407,133.959401 57.7299618,125.845866 C58.1010336,124.669882 58.4842718,123.495414 58.859906,122.31943 M131.827234,221.00199 C133.078842,221.00199 134.330449,221.014129 135.580535,220.998955 C143.3259,220.897289 151.036287,220.396547 158.694967,219.203871 C165.5674,218.135622 172.289276,216.50897 178.708515,213.773098 C189.918231,208.99329 198.02098,201.1802 202.414532,189.717764 C205.307068,182.162632 206.453741,174.270637 206.908456,166.25118 C207.262799,159.92059 207.209572,153.600621 206.345765,147.306448 C205.19605,138.898537 203.074553,130.730375 200.248932,122.744302 C197.370084,114.601936 193.962002,106.696284 189.706842,99.1654307 C189.004238,97.9241979 189.261251,96.8453268 190.426174,95.9834439 C190.677103,95.7983211 190.918908,95.58892 191.116611,95.3537231 C192.433611,93.7908016 193.797757,92.2567107 195.040239,90.636128 C200.971306,82.9080123 205.970131,74.60025 210.346954,65.9116204 C213.849325,58.9588958 216.960853,51.8453269 218.790359,44.2431554 C220.697426,36.2934993 219.70131,28.6837408 215.770078,21.5109933 C214.034861,18.3411457 211.563583,15.8693019 208.024713,14.6887651 C202.986348,13.0029342 198.899995,14.4732943 196.168663,18.9951449 C195.513204,20.0861551 194.941388,21.2393788 194.46082,22.4168808 C192.45034,27.33629 191.536348,32.5424877 190.712081,37.7502028 C189.957771,42.5011807 188.52367,46.9471613 185.688924,50.8924 C180.001183,58.8010863 172.759199,64.9450369 164.299064,69.7157409 C163.891494,69.9448683 163.442862,70.2255872 163.202577,70.6003849 C160.413455,74.9249735 156.90196,78.5910107 152.864272,81.7320277 C150.021922,83.9443962 147.013807,85.9503983 144.04219,87.9943355 C143.309171,88.5011469 142.468176,88.9214666 141.619578,89.1779071 C135.904463,90.8834641 130.23345,90.4570749 124.693226,88.4753511 C115.24458,85.094585 107.79729,78.9142168 101.37653,71.4046066 C100.610053,70.5093409 99.8238068,69.7157409 98.911335,69.0162198 C97.9623643,68.2909028 97.0073105,67.570138 96.0583398,66.8478559 C90.7477539,62.7903296 85.4767085,58.6887987 80.8717675,53.8118767 C76.846246,49.555571 73.9004829,44.7985236 73.0701335,38.8245217 C72.5059218,34.7609258 71.5341393,30.7474041 70.5927726,26.7490564 C69.9160227,23.8705495 68.839306,21.1164694 67.2211893,18.6066906 C64.9932373,15.1485371 61.9121242,13.5552676 57.7360449,14.1667796 C53.7318145,14.7524959 50.8134255,16.9451381 48.6447842,20.1893383 C45.0009801,25.6534939 43.728082,31.7822706 43.9379505,38.2494273 C44.0885083,42.7818996 45.4313627,47.0731054 46.9475867,51.2945109 C50.80278,62.0301124 56.148344,72.0221882 62.3136118,81.5909095 C65.6836743,86.822903 69.2727301,91.9001218 73.6373869,96.3810026 C74.3567188,97.1214935 74.4114671,98.0744204 73.8670256,99.0501083 C68.7693498,108.139331 64.781848,117.7035 61.6657568,127.631845 C59.5153649,134.492009 57.9246224,141.475081 57.0836276,148.625068 C56.4966041,153.627934 56.3871074,158.639904 56.5817681,163.667049 C56.8494265,170.519625 57.5809247,177.299366 59.3526408,183.942541 C62.8139505,196.948173 70.2794906,206.720225 82.5522364,212.636566 C90.0010478,216.228251 97.9273862,218.155348 106.055989,219.363198 C114.599767,220.636296 123.201334,221.014129 131.827234,221.00199 M131.678197,242.435258 C131.158088,244.420016 130.73531,246.240896 130.212159,248.031427 C128.625979,253.439439 126.429964,258.560662 122.679705,262.86856 C117.858812,268.408585 111.734605,270.701376 104.456122,269.877428 C97.1867633,269.050445 91.90051,265.080928 87.8795509,259.211627 C84.4638648,254.230004 82.3971161,248.661148 80.8900169,242.867717 C78.8628087,235.089527 77.9047133,227.159597 77.6264094,219.14014 C77.6188055,218.917083 77.586869,218.689473 77.5807858,218.599946 C75.3634793,218.835143 73.173547,219.223597 70.9760108,219.266085 C65.4129743,219.370785 60.1951564,217.841246 55.1704784,215.569699 C51.3502631,213.844416 47.7383956,211.736748 44.3881033,209.233039 C40.297188,206.176996 35.6268532,204.72788 30.6706105,204.052637 C21.7086166,202.829613 12.851557,203.689979 4.05228727,205.512375 C3.214334,205.683842 2.41896275,205.762746 1.70723474,205.161856 C0.797804512,204.400122 0.700474186,203.265107 1.45934657,202.101261 C3.90933335,198.342663 6.36236171,194.588616 8.81386929,190.83457 C24.1449163,167.342191 39.4774842,143.852846 54.8054897,120.360467 C59.4940739,113.183167 64.184179,106.00435 68.8682009,98.8240158 C69.1054436,98.4659095 69.4354542,98.1851906 68.9716144,97.6601703 C63.2154381,91.1702526 58.4903549,83.9535006 54.162197,76.4712036 C49.4796959,68.3743598 45.3446779,60.0180407 42.3563327,51.1382187 C40.7412576,46.3356493 39.4866089,41.4496229 39.6326044,36.3208125 C39.8166195,29.6442547 41.3313227,23.3349075 45.1348093,17.7341859 C47.8935158,13.67059 51.5890266,10.8922315 56.5391861,10.0409704 C62.3805264,9.0334171 67.0706315,10.8725053 70.4695889,15.7797753 C72.9256588,19.318351 74.2715548,23.3227683 75.202276,27.4622342 C76.1603714,31.7215746 76.9557426,36.0173326 77.7541555,40.3085384 C78.3639908,43.6088824 80.1554771,46.2582619 82.2587246,48.9061241 C82.4442605,48.0138931 82.5415908,47.215741 82.7788335,46.4585586 C83.83578,43.0686881 85.8842792,40.6332619 89.4535647,39.7046134 C89.5083131,39.6894394 89.5645821,39.6530218 89.6162889,39.657574 C91.1461999,39.8366272 91.7393066,38.9155657 92.3704329,37.6819199 C95.1337017,32.3088082 99.63675,28.7444367 104.965585,26.1451314 C110.546871,23.4213993 116.508354,22.0390483 122.649289,21.3516663 C129.14913,20.624832 135.650491,20.6142102 142.14577,21.3729099 C149.672141,22.254519 156.90348,24.0996768 163.366822,28.2406601 C167.548985,30.9173528 170.853653,34.3997847 172.921923,38.9717095 C173.040544,39.2251152 173.370555,39.5270777 173.629088,39.5513561 C176.944403,39.8882188 180.273404,42.6407815 181.280164,47.0579314 C181.423118,47.6876522 181.491554,48.3310296 181.617779,49.1170426 C181.844376,48.8378411 182.004059,48.6648575 182.139409,48.4767 C184.324779,45.3948616 185.664591,41.9943693 186.271385,38.2463925 C187.106297,33.0690254 188.000519,27.8886234 189.697717,22.9024486 C190.876326,19.4382255 192.406237,16.1576078 195.040239,13.5158153 C197.897797,10.6479302 201.38496,9.52960674 205.36942,9.85433023 C212.217521,10.4127333 216.814858,14.2790672 219.870118,20.0861551 C224.108549,28.1480987 225.033187,36.6713318 222.879754,45.5268753 C221.237305,52.2838554 218.606344,58.6736247 215.604312,64.9162063 C210.701297,75.0964396 204.984661,84.7880703 198.055959,93.7407274 C196.857579,95.2869575 195.577077,96.7694568 194.317866,98.3005129 C197.811112,103.649346 201.301317,108.993627 204.79,114.342461 C221.298136,139.63751 237.807793,164.935595 254.315928,190.23368 C256.799372,194.039318 259.284337,197.840403 261.767781,201.643007 C261.894007,201.835716 262.006545,202.031461 262.137332,202.218101 C262.716752,203.052671 262.76998,203.922141 262.185998,204.755193 C261.621786,205.565484 260.805124,205.758194 259.848549,205.589763 C256.966659,205.085986 254.092373,204.4942 251.189192,204.145198 C243.614155,203.231724 236.04216,203.037497 228.550766,204.887207 C225.177662,205.720259 222.076779,207.105645 219.245075,209.164756 C213.780889,213.120617 207.925862,216.349643 201.348461,218.099204 C195.890359,219.552873 190.421611,219.886701 184.968071,218.038508 C184.892032,218.01423 184.802306,218.021817 184.619811,218.006643 C184.536168,219.643917 184.476857,221.270569 184.364319,222.894187 C183.70886,232.268681 182.289967,241.497505 178.886447,250.3227 C176.924632,255.399919 174.287589,260.059853 170.342669,263.917083 C164.169797,269.95178 154.410912,271.799973 146.881498,268.281124 C142.817957,266.378305 139.920859,263.231218 137.645763,259.465032 C134.987428,255.070643 133.42406,250.25897 132.284991,245.284934 C132.084247,244.403325 131.906315,243.514129 131.678197,242.435258" id="Fill-6" fill="#2B50A5"></path>
                    <path d="M88.9567238,45.8254996 C88.1035627,46.7253175 87.5256639,48.174434 87.5408718,49.6387245 C87.5560796,51.1834372 88.2434751,52.5293706 89.3277957,53.3199357 C88.8441857,50.8784399 88.7194812,48.3701785 88.9567238,45.8254996 Z M91.9982965,56.1347118 L90.4972804,55.8418537 C87.674701,55.2895203 85.6809501,52.7478761 85.6490136,49.6584507 C85.6170771,46.5584035 87.4952482,43.6890011 89.9254647,43.1260458 L91.3002556,42.8073919 L91.0721376,44.1973299 C90.4759894,47.8330191 90.6447967,51.2562724 91.5907258,54.6643517 L91.9982965,56.1347118 Z M175.72823,46.936236 C175.827081,48.9058206 175.719105,50.8010526 175.401261,52.6507626 C175.997409,51.8768888 176.32894,50.8541615 176.333503,49.6796943 C176.336544,48.6964194 176.105385,47.7207316 175.72823,46.936236 Z M172.549786,56.321352 L173.034917,54.5687555 C173.909369,51.414082 174.094905,48.144086 173.606733,44.5706102 L173.395344,43.0319671 L174.861382,43.5539525 C176.818634,44.2519563 178.234486,46.8315354 178.225361,49.6857639 C178.214715,52.5324054 176.696971,54.8403701 174.265233,55.7083226 L172.549786,56.321352 Z M133.698258,26.0264707 C125.884458,26.0264707 120.239299,26.6395001 114.822258,28.0764775 C109.032624,29.6120858 104.704466,31.7501017 101.200575,34.8015921 C94.2992462,40.8195986 92.9503088,50.9467229 98.0616716,58.3592195 C100.306352,61.6155589 103.460463,64.0980245 107.986323,66.1723096 C112.594306,68.2830123 117.875997,69.6107369 124.134033,70.2298359 C127.028089,70.515107 129.884126,70.65926 132.623062,70.65926 L132.624583,70.65926 C137.982313,70.65926 143.183402,70.1038917 148.084897,69.0037771 C154.090482,67.6548089 158.681736,65.6199762 162.530846,62.5988338 C166.700842,59.3318726 169.213181,54.7204955 169.605544,49.6159635 C169.985741,44.6419279 168.285501,39.8666717 164.816588,36.1687691 C161.817597,32.9700909 157.910697,30.6575741 152.524072,28.8898036 C145.406792,26.5484562 138.357947,26.0401273 133.698258,26.0264707 Z M132.623062,72.546905 C129.821773,72.546905 126.903384,72.3997172 123.948497,72.1083765 C117.477551,71.4680339 111.998158,70.0872003 107.197035,67.8884885 C102.414162,65.6958462 98.9163536,62.9281095 96.5028656,59.4289862 C90.8470613,51.2274418 92.3313487,40.0290334 99.9565714,33.3797888 C103.68706,30.1310364 108.255502,27.865559 114.337127,26.2525633 C119.919934,24.7715813 125.711088,24.1388258 133.701299,24.1388258 L133.704341,24.1388258 C138.500901,24.1539997 145.762656,24.67902 153.115658,27.0962374 C158.815565,28.967191 162.973395,31.4405522 166.198983,34.8789795 C170.034406,38.9683712 171.914098,44.2519563 171.491319,49.7585991 C171.057895,55.3987731 168.291585,60.4850962 163.700331,64.0828505 C159.67633,67.2390415 154.70488,69.4514099 148.500071,70.8459001 C143.461706,71.9748453 138.120705,72.546905 132.623062,72.546905 Z M141.513579,76.3252297 L145.263838,80.9699896 C147.812676,79.3236112 151.541644,76.1431418 153.879093,73.8184857 C150.134917,75.00054 146.050084,75.8260053 141.513579,76.3252297 Z M144.82281,83.4342464 L137.833276,74.7759648 L139.595867,74.6181553 C146.059209,74.0430609 151.584226,72.8245891 156.4842,70.8944569 L158.719755,70.0158826 L157.685621,72.1796943 C156.628674,74.3920628 149.021701,80.9957854 145.525413,83.026066 L144.82281,83.4342464 Z M110.97771,73.8822165 C115.407761,77.921534 119.735918,80.7863843 124.383442,82.7681081 C128.903219,84.6967228 132.977405,85.3628612 136.939054,84.837841 C137.813506,84.7225186 138.700124,84.5267741 139.635408,84.3219252 C139.726655,84.302199 139.817902,84.2809554 139.909149,84.2627466 C139.799653,84.0396888 139.696239,83.8576009 139.579139,83.721035 C137.979271,81.8637379 136.364196,80.1005197 134.997009,78.6225726 C134.855576,78.4677978 134.714143,78.3084709 134.57271,78.1445917 C134.12864,77.6347455 133.667842,77.1097253 133.214648,76.9154981 C132.895283,76.781967 132.466421,76.7637582 132.087745,76.7637582 L131.05361,76.7789322 C130.904573,76.7789322 130.758578,76.7758974 130.614103,76.7698278 C130.480274,76.7622408 130.351007,76.7622408 130.223261,76.7607234 L129.954082,76.7576886 C123.533322,76.6044312 117.888163,75.8305575 112.696199,74.3935802 C112.121341,74.2357706 111.546484,74.0627871 110.97771,73.8822165 Z M134.32178,86.8984695 C130.910656,86.8984695 127.41741,86.1154914 123.639777,84.5055305 C117.80452,82.0124431 112.471122,78.2113573 106.8579,72.539318 L106.743841,72.425513 L106.623699,72.1948683 L105.688415,70.2252837 L107.738435,70.8307261 C108.333063,71.0219184 108.924648,71.2191804 109.516234,71.4164423 C110.723739,71.8200706 111.969263,72.2358381 113.199579,72.5742181 C118.242506,73.9702257 123.737107,74.7198211 129.998185,74.871561 L130.233907,74.8730784 C130.393589,74.8745958 130.554792,74.8761132 130.712954,74.8837002 C130.82093,74.8897698 130.93651,74.8912872 131.05361,74.8912872 L132.087745,74.8761132 C132.656519,74.8761132 133.321103,74.9110134 133.952229,75.1780757 C134.809953,75.5422516 135.441079,76.2660512 135.999208,76.9048763 C136.129995,77.0550989 136.257741,77.2022867 136.387008,77.3434048 C137.766361,78.8334911 139.395123,80.6118834 141.01324,82.4919413 C141.359979,82.8925348 141.571369,83.3447199 141.796445,83.8242181 C141.893775,84.0321019 141.997189,84.256677 142.123414,84.4949087 L142.711958,85.6101973 L141.474038,85.8590509 C140.979783,85.9591992 140.505297,86.0638998 140.042978,86.1640482 C139.066634,86.3795189 138.141996,86.5843678 137.188462,86.7087946 C136.244054,86.8347387 135.278355,86.8984695 134.32178,86.8984695 Z M22.3158666,198.277111 C25.8456117,198.277111 29.1381141,198.52293 32.3789098,199.029741 C38.3768911,199.969011 43.2905518,201.911283 47.3966749,204.962773 C48.7091135,205.938461 50.2177335,206.93084 52.0137822,207.997572 C58.6854718,211.957985 64.215051,213.827421 69.9438531,214.064136 C70.2632182,214.076275 70.5825833,214.082344 70.8989069,214.082344 L70.9004277,214.082344 C72.0258096,214.082344 73.0827561,213.99737 74.0955998,213.819834 C65.054525,207.81245 58.7052421,199.24066 55.2028711,188.309314 C53.4083432,182.713144 52.2677535,176.611681 51.7141873,169.652887 C51.1347677,162.352678 51.1058727,156.305841 51.6244609,150.620145 C52.2936069,143.282001 53.7581241,135.849778 56.0910103,127.971439 L9.57928105,199.23459 C14.2678653,198.585143 18.4135289,198.277111 22.3158666,198.277111 Z M70.9004277,215.969989 L70.8989069,215.969989 C70.5552092,215.969989 70.2115115,215.96392 69.8647722,215.948746 C63.8880819,215.704444 57.9068292,213.692373 51.0465621,209.618155 C49.1942443,208.519558 47.630876,207.492278 46.2667306,206.478655 C42.4115373,203.612288 37.7731389,201.785339 32.085398,200.894625 C25.0365534,199.794511 17.6120745,199.91742 8.3276739,201.325567 L5.72104612,201.686708 L58.3341702,121.073341 L59.9827026,121.821419 L59.3485347,123.889635 L58.6322443,126.129316 C55.9100368,134.778494 54.2326094,142.844989 53.5087151,150.791611 C52.9992517,156.368054 53.0281467,162.313225 53.5999623,169.504182 C54.1413623,176.315788 55.2545779,182.277651 57.0050029,187.734219 C60.5377896,198.762679 67.0741293,207.287429 76.428486,213.073274 C76.5592736,213.150661 76.6946236,213.23867 76.8284528,213.329714 L77.0459253,213.479937 L77.6192617,214.737861 L76.6444377,215.141489 C74.8544722,215.699892 72.9747802,215.969989 70.9004277,215.969989 Z M189.667757,213.84563 C190.709496,214.009509 191.775567,214.091449 192.856846,214.091449 C194.900783,214.091449 197.023801,213.81073 199.350604,213.231083 C204.880183,211.854802 210.233351,209.214527 216.197875,204.920286 C219.315487,202.679087 222.76463,201.038778 226.452537,200.043364 C230.862818,198.858275 235.58638,198.280146 240.898487,198.280146 C243.666318,198.280146 246.644017,198.437955 249.997351,198.758127 C251.302186,198.881036 252.603979,199.050985 253.945313,199.227003 L207.254131,127.683134 C207.955213,130.032068 208.660858,132.440181 209.270693,134.845259 C211.065221,141.926963 212.076544,149.008666 212.274246,155.899177 C212.452178,162.043128 212.176916,168.150661 211.460626,174.051828 C210.653088,180.685899 209.285901,186.430773 207.278463,191.612692 C204.50759,198.770266 200.725395,204.449892 195.717445,208.97326 C194.050664,210.478521 192.248532,211.862389 190.507231,213.199218 C190.227407,213.416206 189.947582,213.630159 189.667757,213.84563 Z M192.856846,215.979094 C191.062318,215.979094 189.301248,215.77121 187.620779,215.359995 C187.445889,215.317508 187.269477,215.252259 187.19648,215.223429 L185.64984,214.634678 L186.921217,213.595259 C187.724192,212.956434 188.537813,212.329748 189.352955,211.704579 C191.06536,210.390511 192.837076,209.029404 194.447589,207.574218 C199.231983,203.252664 202.851454,197.809752 205.514351,190.93138 C207.463999,185.896648 208.794687,180.301996 209.582454,173.824218 C210.288099,168.01713 210.557278,162.003676 210.383909,155.952286 C210.189248,149.199859 209.196175,142.254721 207.436625,135.306549 C206.740105,132.56309 205.911276,129.790802 205.108301,127.114109 C204.740271,125.880463 204.37072,124.646817 204.011814,123.410137 C203.920567,123.091483 203.788258,122.636263 203.922088,122.050547 L204.417864,119.87763 L257.759445,201.610838 L253.770422,201.107061 C252.426047,200.931043 251.125775,200.759577 249.817899,200.636667 C246.522355,200.322566 243.605486,200.167791 240.898487,200.167791 C235.755187,200.167791 231.191307,200.724676 226.945272,201.865761 C223.4794,202.800479 220.235563,204.342157 217.305007,206.45286 C211.138219,210.891253 205.579745,213.625607 199.808361,215.062584 C197.331,215.680166 195.057424,215.979094 192.856846,215.979094 Z M131.82617,220.057864 L134.157535,220.063933 C134.627458,220.063933 135.098902,220.060898 135.568825,220.054829 C144.035043,219.945576 151.552289,219.361377 158.549427,218.271884 C166.170088,217.086795 172.642554,215.331164 178.336378,212.904842 C189.739234,208.044612 197.326437,200.348361 201.531412,189.380598 C204.030064,182.854262 205.438312,175.488805 205.962983,166.197768 C206.356867,159.166139 206.175893,153.028258 205.409417,147.433606 C204.319013,139.461189 202.338949,131.487254 199.358208,123.0581 C196.245158,114.260218 192.818827,106.595833 188.883032,99.6294514 C187.95079,97.983073 188.308174,96.3761469 189.862418,95.2244406 C190.085974,95.0620789 190.262385,94.9012345 190.38861,94.7494946 L191.459244,93.4930878 C192.409735,92.380834 193.393684,91.2306451 194.287906,90.0637649 C199.835735,82.836391 204.811748,74.7972084 209.501853,65.4879624 C212.356369,59.8204753 215.887635,52.2592735 217.87074,44.0228289 C219.721537,36.3098872 218.734547,28.8867688 214.940185,21.9643923 C213.148698,18.6928789 210.788438,16.6064546 207.724054,15.5837273 C203.128237,14.0450842 199.467705,15.3606696 196.978177,19.4819267 C196.362259,20.5092061 195.808693,21.6169078 195.337249,22.7716488 C193.384559,27.5529747 192.47665,32.6544718 191.6463,37.8970871 C190.767286,43.4355953 189.118753,47.7389403 186.457377,51.4413952 C180.949089,59.1027453 173.650836,65.5274148 164.764881,70.537868 C164.593032,70.6349816 164.141359,70.8868699 163.998405,71.111445 C161.288364,75.3146417 157.737327,79.1384884 153.445668,82.4767674 C151.064117,84.3295122 148.541132,86.0578302 146.09875,87.7300045 L144.579484,88.7709405 C143.743052,89.3505871 142.813851,89.8027722 141.893775,90.0819737 C136.280553,91.754148 130.381423,91.5128814 124.374317,89.3627263 C115.762104,86.2824053 108.003052,80.6088486 100.656133,72.0173325 C99.8561995,71.081097 99.1170974,70.3648845 98.3354132,69.7639942 L95.4839388,67.5986651 C89.7961979,63.2513155 84.7198131,59.2635896 80.1833075,54.4579854 C75.4688698,49.473328 72.9109072,44.5463318 72.1337854,38.9547146 C71.6121557,35.1915638 70.7164125,31.3965476 69.8510851,27.7244408 L69.6716323,26.9642236 C68.9811953,24.0265382 67.88775,21.386263 66.4262743,19.1162334 C64.3275891,15.859894 61.5430294,14.5594826 57.8748927,15.1011943 C54.3755634,15.6125579 51.6138154,17.4486113 49.4330078,20.7140551 C46.1496301,25.6364991 44.6607802,31.3631648 44.882815,38.2187758 C45.0212066,42.3643113 46.1633171,46.317137 47.8377029,50.9770709 C51.3324699,60.7096714 56.328253,70.5560768 63.1094393,81.0807598 C66.0612856,85.6617889 69.7005273,90.9863438 74.3161138,95.7221477 C75.3061457,96.7418402 75.4475788,98.1575739 74.6932688,99.5095769 C69.8571683,108.132958 65.7784193,117.688023 62.5680393,127.913778 C60.3111924,135.115356 58.8238634,141.926963 58.0239298,148.735534 C57.4810091,153.354499 57.3182849,158.228386 57.5266326,163.630328 C57.8338315,171.460109 58.7037213,177.839257 60.2670896,183.699454 C63.7892308,196.934212 71.2137097,206.122067 82.9633049,211.788036 C89.4859575,214.932088 96.8678544,217.042791 106.196358,218.429694 C113.648211,219.54043 121.65363,220.057864 131.391225,220.057864 L131.82617,220.057864 Z M134.157535,221.950061 L131.391225,221.945509 C121.557821,221.945509 113.462675,221.422006 105.916533,220.297613 C96.3948898,218.880362 88.8396233,216.718067 82.1405595,213.486006 C70.0335795,207.650088 62.0585759,197.791543 58.4391044,184.183504 C56.8392372,178.185224 55.9480564,171.677098 55.6362952,163.704681 C55.4233851,158.201073 55.5906716,153.233107 56.1442379,148.515511 C56.9593793,141.588583 58.4695202,134.664689 60.762866,127.350823 C64.0127864,117.000641 68.1432421,107.324184 73.0416948,98.5900328 C73.5070555,97.7539456 73.2165853,97.303278 72.9580516,97.0377331 C68.2268853,92.1820546 64.520729,86.7619036 61.5186968,82.1004523 C54.6584296,71.4543773 49.6002943,61.4820277 46.0583829,51.6128613 C44.6592595,47.722249 43.1552018,43.1624634 42.9924776,38.2809892 C42.7567558,31.0171977 44.349019,24.9293909 47.8589939,19.6670494 C50.3196262,15.9828034 53.5969208,13.8189917 57.5996304,13.2332755 C62.0099108,12.5883807 65.5259688,14.2302069 68.0170168,18.0965409 C69.5971138,20.5456237 70.7726816,23.3846782 71.5133046,26.5332822 L71.6927574,27.2934993 C72.5687303,31.0050585 73.4735982,34.8455967 74.0073942,38.6952393 C74.7282469,43.8801934 77.1280477,48.4779139 81.5596191,53.1636436 C85.9987944,57.8660647 91.012827,61.8037164 96.6336533,66.0994744 L99.4866484,68.2678383 C100.377829,68.9506681 101.206658,69.7518551 102.096318,70.7927911 C109.222723,79.1263492 116.718678,84.6193355 125.013047,87.5858515 C130.639957,89.6024755 136.126954,89.8331202 141.347813,88.2732335 C142.079311,88.0532106 142.826017,87.6875173 143.504288,87.2186408 L145.029637,86.1731526 C147.446166,84.5191871 149.94786,82.806043 152.282267,80.9881984 C156.405119,77.7804159 159.81168,74.1128612 162.406142,70.0902351 C162.755922,69.5454887 163.324696,69.1797954 163.835681,68.8945243 C172.601493,63.9508367 179.498259,57.8827561 184.921383,50.3412805 C187.403307,46.8876792 188.946905,42.8392573 189.777254,37.6027116 C190.625853,32.2462913 191.555053,27.0279544 193.585303,22.0599884 C194.093246,20.8157208 194.689394,19.6215274 195.357019,18.5092736 C198.284533,13.6626995 202.892515,11.9753513 208.324764,13.7947133 C211.813448,14.9570413 214.598008,17.4015719 216.600883,21.0585047 C220.627926,28.4057532 221.674227,36.2795392 219.710891,44.4628748 C217.682162,52.8874769 214.093107,60.5776576 211.191446,66.3361888 C206.448114,75.7516527 201.409749,83.8879489 195.790443,91.2109189 C194.865805,92.4187689 193.865128,93.5871666 192.897908,94.7176292 L191.83944,95.9618968 C191.614364,96.2304765 191.33606,96.486917 190.9878,96.7433576 C190.193949,97.3305912 190.066203,97.8783724 190.531564,98.7008029 C194.522107,105.764298 197.992542,113.527314 201.14209,122.429896 C204.166934,130.98196 206.175893,139.077287 207.283025,147.178683 C208.06623,152.893209 208.253287,159.14793 207.85332,166.302469 C207.316483,175.793802 205.868694,183.33983 203.298565,190.054323 C198.961283,201.366536 190.812909,209.639399 179.080043,214.640747 C173.240223,217.129283 166.61872,218.927401 158.839898,220.136768 C151.754554,221.239918 144.150622,221.831704 135.594678,221.942474 C135.115631,221.948543 134.636583,221.950061 134.157535,221.950061 Z M135.413705,226.238232 C135.412184,226.52502 135.412184,226.79967 135.416746,227.077354 C135.517118,234.083187 136.355072,240.448678 137.977751,246.534968 C139.422498,251.933875 141.16836,255.769861 143.635076,258.973091 C146.670565,262.915295 150.394971,264.831771 155.025765,264.833288 C155.799846,264.833288 156.608904,264.775627 157.430129,264.666374 C162.021383,264.053345 165.821828,261.721102 169.047415,257.536114 C171.994699,253.712267 174.122279,249.099373 175.950265,242.580625 C177.562298,236.814506 178.5721,230.612895 179.127187,223.05928 C179.212351,221.896952 179.261016,220.728554 179.312723,219.519187 L179.32641,219.185359 C165.829432,224.417352 151.926403,225.828534 135.413705,226.238232 Z M155.027286,266.719416 L155.025765,266.719416 C149.841405,266.719416 145.504122,264.500978 142.13558,260.12328 C139.507662,256.712166 137.662948,252.672849 136.149765,247.020536 C134.486025,240.782506 133.628302,234.266793 133.524888,227.101632 C133.520326,226.728352 133.521847,226.356589 133.523367,225.957513 L133.524888,224.393074 L134.449526,224.373348 C151.719576,223.986411 166.071237,222.564608 179.978828,216.892568 L181.353618,216.332648 L181.20154,219.599609 C181.149833,220.827185 181.099647,222.015309 181.014483,223.197363 C180.448751,230.879957 179.419178,237.198408 177.772167,243.087436 C175.877267,249.852003 173.647794,254.662159 170.546911,258.686303 C167.001958,263.285541 162.793942,265.852981 157.681058,266.537328 C156.777711,266.65872 155.883489,266.719416 155.027286,266.719416 Z M82.820351,218.516186 C82.8233926,218.545016 82.8249133,218.572329 82.8279549,218.60116 C82.926806,219.810527 83.0165324,221.021412 83.1062588,222.232297 C83.3222105,225.122943 83.5442453,228.11222 83.9001093,231.02411 C84.6726687,237.322835 86.0352933,242.940248 88.0685846,248.19652 C90.0319198,253.269187 92.3419942,257.032338 95.3364225,260.035271 C98.3475795,263.054896 102.73961,264.856049 107.087539,264.856049 C112.170006,264.857567 116.679138,262.481319 119.783063,258.165835 C121.735753,255.446655 123.285434,252.35723 124.518792,248.716988 C126.441065,243.047984 127.604467,236.656697 128.075911,229.177435 C128.127617,228.356522 128.115451,227.5174 128.100243,226.631238 C128.097202,226.500742 128.095681,226.371763 128.09416,226.241267 C114.122696,225.886195 98.1118576,224.875607 82.820351,218.516186 Z M107.087539,266.743694 C102.246876,266.743694 97.3529852,264.73314 93.995089,261.366031 C90.8090416,258.171905 88.365138,254.202387 86.3029517,248.874798 C84.2133913,243.471338 82.8127471,237.708255 82.0219382,231.253237 C81.6615118,228.295826 81.4379562,225.283788 81.2204838,222.371898 C81.1307574,221.165565 81.041031,219.959233 80.9406591,218.754417 C80.9117641,218.403898 80.9178473,218.050344 80.9239304,217.646716 L80.9315344,215.643748 L82.25766,216.223395 C97.9643413,223.097215 114.648888,224.034968 129.053776,224.374865 L129.978414,224.397626 L129.978414,225.320205 C129.978414,225.757216 129.984498,226.182088 129.992102,226.599373 C130.007309,227.526504 130.020996,228.400526 129.963207,229.298827 C129.482638,236.943485 128.2873,243.492582 126.311799,249.322431 C125.016089,253.140208 123.384285,256.393512 121.319057,259.26595 C117.851664,264.088245 112.79657,266.743694 107.087539,266.743694 Z M131.774463,238.330389 L132.805556,243.204276 C132.943948,243.870414 133.070173,244.475857 133.208565,245.075229 C134.521003,250.809482 136.187785,255.226632 138.455278,258.977644 C140.903744,263.027583 143.790196,265.790767 147.283442,267.426524 C149.642182,268.528156 152.352223,269.112355 155.121575,269.112355 C160.559907,269.112355 165.86593,266.972822 169.681583,263.243054 C173.142893,259.856218 175.865101,255.51949 178.003326,249.982499 C180.935402,242.381845 182.656932,233.752394 183.420367,222.828635 C183.499448,221.704242 183.551155,220.578332 183.604382,219.444834 L183.724524,216.986647 L184.696307,217.065552 C184.944195,217.079208 185.093232,217.086795 185.266602,217.144457 C190.072287,218.769591 195.086319,218.790835 201.105591,217.188461 C206.901308,215.646783 212.652922,212.771311 218.688923,208.401201 C221.563209,206.311741 224.715799,204.862625 228.323104,203.971911 C232.261941,202.999258 236.404563,202.52583 240.989734,202.52583 C244.122554,202.52583 247.495658,202.750405 251.303707,203.208659 C253.463223,203.468135 255.630344,203.864176 257.725987,204.248078 C258.487901,204.389196 259.249815,204.52728 260.01325,204.660811 C260.63221,204.767029 261.09605,204.663846 261.409332,204.216213 C261.649616,203.87328 261.83059,203.434752 261.359146,202.75344 C261.27094,202.629013 261.187297,202.496999 261.105175,202.363468 L260.974387,202.157102 L193.147317,98.2379961 L194.789766,96.2532375 C195.645968,95.2289928 196.494567,94.2108178 197.306667,93.1638121 C203.798904,84.7756276 209.504894,75.4026508 214.751607,64.5077223 C218.255499,57.2196525 220.547324,51.1181891 221.961655,45.3050315 C224.080111,36.5875713 223.094641,28.249461 219.032621,20.5243801 C215.848094,14.4714735 211.354171,11.2894867 205.292316,10.7963319 C201.469059,10.4822302 198.296699,11.5853796 195.709841,14.1816502 C192.957218,16.9448347 191.5292,20.4560971 190.593916,23.2071425 C188.946905,28.0446121 188.051161,33.1521788 187.205604,38.3963116 C186.560791,42.3794853 185.157105,45.8543302 182.912424,49.0211429 C182.813573,49.1592263 182.707118,49.2866878 182.577851,49.4399452 L181.019045,51.360973 L180.574976,48.5386099 C180.508061,48.08339 180.450271,47.6721748 180.357503,47.2670291 C179.381159,42.9879625 176.135801,40.7558678 173.533735,40.4903229 C172.88588,40.4296269 172.303419,39.8818457 172.064656,39.370482 C170.15911,35.1596984 167.149474,31.7819671 162.856294,29.035474 C157.268925,25.4559285 150.653505,23.31943 142.036729,22.3103593 C135.714821,21.5729032 129.228667,21.5637988 122.754679,22.2906331 C115.999346,23.0462981 110.316168,24.5849412 105.381216,26.9915368 C99.5870203,29.8199695 95.6071225,33.4571761 93.211884,38.1125578 C92.678088,39.1565287 91.8720713,40.7740766 89.7064715,40.6132322 L89.7049507,40.6132322 C86.6877106,41.3992452 84.7228547,43.4022125 83.681116,46.7389741 C83.5335998,47.2154375 83.4453942,47.7116272 83.3480638,48.2381648 C83.2978779,48.5158489 83.2461712,48.80112 83.1853397,49.0970129 L82.7747274,51.0741845 L81.5170371,49.4930542 C79.1491728,46.5128815 77.4458921,43.840741 76.8223697,40.4797011 L76.7676214,40.1777386 C76.0011451,36.0640685 75.2103362,31.8107977 74.2796149,27.668297 C73.2028982,22.882419 71.7444641,19.2755603 69.6929233,16.3166313 C66.5312085,11.7553283 62.2730068,10.0103189 56.7008457,10.9708328 C52.2586288,11.7340847 48.7319253,14.1194368 45.9184705,18.2634548 C42.5225547,23.2632862 40.7766919,29.1796269 40.5774689,36.3463048 C40.4269111,41.6602379 41.8458047,46.6539997 43.2540529,50.8374701 C45.9321576,58.8007828 49.6596049,66.7959608 54.9823571,75.9989888 C60.043534,84.7528666 64.7153897,91.4370115 69.680757,97.0362157 C70.5795418,98.0528733 69.9453739,98.9390346 69.7370261,99.2318928 L2.25213248,202.615356 C1.75635614,203.375573 1.77764715,203.988603 2.31600551,204.43927 C2.70532681,204.768546 3.30451663,204.700263 3.86112443,204.586458 C14.0747255,202.475755 22.6960632,202.011431 30.7988128,203.117615 C36.6234245,203.911215 41.1219104,205.613738 44.954292,208.477071 C48.1920461,210.897323 51.7613316,212.992851 55.5602559,214.70903 C61.0213996,217.177839 65.7480036,218.328028 70.4365879,218.328028 L70.9597383,218.321959 C72.421214,218.294645 73.8690026,218.109523 75.4004345,217.912261 C76.0923922,217.822734 76.7858708,217.734725 77.4808702,217.66189 L78.4693813,217.555672 L78.5256504,218.546534 C78.5484622,218.763522 78.5651908,218.936505 78.571274,219.109489 C78.8708689,227.735905 79.9278154,235.430638 81.8044657,242.630699 C83.5366413,249.282978 85.7144074,254.382958 88.6601705,258.678716 C92.884915,264.845428 98.0860042,268.201915 104.563033,268.939371 C111.55865,269.737524 117.412157,267.482668 121.965391,262.249157 C125.143835,258.598294 127.476721,253.996021 129.303185,247.765579 C129.646883,246.594146 129.946478,245.409057 130.258239,244.170859 C130.419443,243.528999 130.585208,242.871965 130.76314,242.196722 L131.774463,238.330389 Z M155.121575,271 C152.076961,271 149.088616,270.355105 146.480467,269.136633 C142.63744,267.33548 139.483329,264.331029 136.83564,259.953332 C134.601605,256.256946 132.930261,251.970293 131.607177,246.528898 C131.450536,247.125236 131.290853,247.710952 131.120525,248.296669 C129.213459,254.795691 126.757389,259.622538 123.39341,263.488872 C118.418918,269.204916 111.984471,271.679795 104.348602,270.814877 C97.2936745,270.012173 91.6515572,266.391658 87.0983229,259.74393 C84.0248138,255.26305 81.7618837,249.97643 79.973439,243.104127 C78.0967886,235.902549 77.0246343,228.227543 76.6976652,219.651201 C76.3448428,219.693688 75.9935411,219.73921 75.6407187,219.784732 C74.1275363,219.978959 72.5611264,220.179256 70.9947164,220.209604 L70.4365879,220.214156 C65.4696997,220.214156 60.4952076,219.010858 54.7800925,216.428244 C50.854943,214.657439 47.1685569,212.489075 43.8213062,209.9884 C40.256583,207.325364 36.0364009,205.736647 30.5433207,204.987052 C22.655002,203.915768 14.2450535,204.366435 4.24436258,206.436168 C3.8976233,206.507486 3.48701099,206.580321 3.05814924,206.580321 C2.2947145,206.580321 1.65294267,206.352711 1.09785566,205.882317 C-0.191771157,204.803446 -0.357536868,203.15555 0.665952336,201.586559 L68.1660539,98.1788175 C63.1307303,92.4733953 58.4269382,85.7315893 53.3444702,76.9428113 C47.9563242,67.6274957 44.1802118,59.5230649 41.459525,51.4383604 C39.9995701,47.0970804 38.527449,41.9030218 38.6871315,36.2931958 C38.8954792,28.7562725 40.747797,22.5121735 44.3505398,17.2058274 C47.4255698,12.6779072 51.473903,9.95417512 56.3799597,9.11201839 C62.6547242,8.02859514 67.6900477,10.1059151 71.247167,15.2438298 C73.4431824,18.4076078 74.9928637,22.2238676 76.1243287,27.2555643 C77.0641747,31.4314478 77.859546,35.7029274 78.6275431,39.8348063 L78.6838121,40.1367688 C79.1233194,42.5069468 80.2091608,44.5417796 81.7390719,46.6646215 C81.7801331,46.5022597 81.8257567,46.339898 81.8759427,46.1775362 C83.1077796,42.2231931 85.5775366,39.7376927 89.2152575,38.7908354 C89.225903,38.7802136 89.3916687,38.7134481 89.6076204,38.7134481 C89.8159681,38.7301394 89.9026529,38.736209 89.9832546,38.736209 C90.6082978,38.736209 90.9261422,38.4312117 91.5283735,37.2521923 C94.1167519,32.2204955 98.3749536,28.310157 104.549346,25.2966016 C109.683521,22.7928924 115.570485,21.1950707 122.54329,20.41361 C129.163273,19.6746364 135.795422,19.6822234 142.255723,20.4363709 C151.170572,21.4788244 158.041485,23.7063669 163.878263,27.4467567 C168.423893,30.3556115 171.755936,34.1020709 173.784665,38.5844691 C177.728064,39.0184454 181.107251,42.2702325 182.171802,46.7192479 C183.782314,44.1214599 184.821011,41.2854402 185.336558,38.0958665 C186.195802,32.7697942 187.108274,27.5757356 188.80243,22.5986652 C189.804628,19.6564276 191.340622,15.8887246 194.368508,12.8508908 C197.327958,9.88285735 201.076696,8.55665017 205.445916,8.91323906 C212.113043,9.45646808 217.247218,13.0693963 220.707006,19.6473232 C224.989541,27.7912064 226.029759,36.5723973 223.800286,45.7496296 C222.354018,51.6948009 220.019611,57.9146215 216.456409,65.3240833 C211.151906,76.3404037 205.37748,85.8241507 198.803121,94.3185531 C197.978855,95.385285 197.113527,96.4186341 196.243637,97.4626049 L195.490848,98.366975 L262.711125,201.365019 C262.776519,201.471237 262.841913,201.575938 262.911869,201.676086 C263.742218,202.874832 263.758947,204.158552 262.962055,205.295084 C262.23664,206.337537 261.074759,206.762409 259.686281,206.519625 C258.918284,206.386094 258.151808,206.244976 257.383811,206.103858 C255.317062,205.726025 253.180357,205.336054 251.07711,205.082648 C247.3451,204.63198 244.044994,204.413475 240.989734,204.413475 C236.561204,204.413475 232.566098,204.868695 228.77782,205.803413 C225.412319,206.634948 222.475681,207.983916 219.802139,209.927704 C213.572998,214.437416 207.617598,217.410001 201.592243,219.010858 C195.595783,220.607162 190.40838,220.664823 185.509928,219.20205 L185.49472,219.532843 C185.439971,220.67848 185.386744,221.819564 185.307663,222.959131 C184.530541,234.077118 182.770991,242.879552 179.768959,250.662294 C177.531882,256.455726 174.6652,261.012476 171.006188,264.590504 C166.839234,268.663205 161.0496,271 155.121575,271 Z" id="Fill-8" fill="#2B50A5"></path>
                    <path d="M131.827539,221.001383 C123.201638,221.015039 114.59855,220.637207 106.056293,219.364109 C97.9276904,218.154741 90.001352,216.227644 82.5525405,212.635959 C70.2797948,206.721136 62.8142547,196.947566 59.352945,183.941934 C57.5812289,177.298759 56.8497306,170.519018 56.5820723,163.66796 C56.3874116,158.639298 56.4953874,153.628844 57.0839317,148.625978 C57.9249266,141.475992 59.5156691,134.491402 61.666061,127.632756 C64.7821522,117.704411 68.7696539,108.138724 73.8673297,99.0510187 C74.4117713,98.0738134 74.3570229,97.1208866 73.637691,96.3803956 C69.2730342,91.9010322 65.6839785,86.8222961 62.313916,81.5903026 C56.1486481,72.0215812 50.8030842,62.0310229 46.9478908,51.2954213 C45.4301461,47.0724985 44.0888125,42.7812927 43.9382547,38.2488203 C43.7283861,31.783181 45.0012843,25.652887 48.6450884,20.1902487 C50.8137297,16.9445312 53.7321187,14.7534063 57.7363491,14.1676901 C61.9124284,13.5561781 64.9935415,15.1479302 67.2214935,18.6060837 C68.8396101,21.1158624 69.9163268,23.87146 70.5930768,26.7484494 C71.5344435,30.7483145 72.506226,34.7618362 73.0704377,38.8239147 C73.900787,44.799434 76.8465502,49.5549641 80.8720716,53.8112697 C85.4754918,58.6881917 90.7480581,62.7897226 96.0571232,66.8487663 C97.0076146,67.5710485 97.9626684,68.2902958 98.9101183,69.0156128 C99.8241109,69.7166514 100.610357,70.5102513 101.376834,71.405517 C107.797594,78.9136098 115.244884,85.0954954 124.69353,88.4747441 C130.233754,90.4579853 135.904767,90.8828572 141.618361,89.1773001 C142.468481,88.9208596 143.309475,88.5020573 144.042494,87.9952459 C147.01259,85.9497914 150.020706,83.9453066 152.864576,81.7329381 C156.900743,78.5904037 160.413759,74.9243665 163.201361,70.6012953 C163.443166,70.2249802 163.891798,69.9442613 164.299368,69.7166514 C172.759503,64.9459473 180.001487,58.8004793 185.689228,50.8917931 C188.523974,46.9465543 189.958075,42.5005738 190.712385,37.7495959 C191.536652,32.5418808 192.450644,27.3372004 194.461124,22.4162738 C194.941692,21.2387718 195.511987,20.0855482 196.168967,18.9945379 C198.900299,14.4726874 202.986652,13.0023273 208.025017,14.6896755 C211.563887,15.8686949 214.035165,18.3405387 215.770382,21.5119037 C219.701615,28.6831338 220.69773,36.2928924 218.790664,44.2440658 C216.959637,51.8447199 213.849629,58.9582889 210.347258,65.9110134 C205.968914,74.599643 200.97161,82.9074053 195.039023,90.6370384 C193.798061,92.2561037 192.433916,93.7901946 191.115394,95.3531161 C190.919212,95.5898304 190.677407,95.7977142 190.426478,95.9828369 C189.261555,96.8462372 189.004542,97.9251083 189.707146,99.1648237 C193.960785,106.695677 197.370388,114.602846 200.249237,122.743695 C203.074858,130.731286 205.196355,138.899447 206.346069,147.307358 C207.208355,153.600014 207.263103,159.919983 206.90876,166.250573 C206.454045,174.27003 205.307372,182.162025 202.414836,189.718674 C198.019764,201.179593 189.918535,208.9942 178.708819,213.772491 C172.288059,216.508363 165.567704,218.135015 158.695271,219.203264 C151.036591,220.397458 143.326204,220.898199 135.580839,220.998348 C134.330753,221.015039 133.079146,221.001383 131.827539,221.001383" id="Fill-10" fill="#FFFFFF"></path>
                </g>
                <g id="Group-15" transform="translate(8.000000, 122.000000)">
                    <mask id="mask-4" fill="white">
                        <use xlink:href="#path-3"></use>
                    </mask>
                    <g id="Clip-14"></g>
                    <path d="M0.0438883929,79.1808647 C0.358674107,79.1349248 0.469151786,79.1272682 0.579629464,79.1088922 C8.53704911,77.8838296 16.5096027,77.4075865 24.5078839,78.6755263 C29.7714643,79.5101003 34.7020982,81.216 39.0364554,84.485386 C40.5301741,85.6109123 42.1101563,86.6369023 43.7113259,87.6016391 C49.3653616,91.0042506 55.3039152,93.5784135 61.9991652,93.855584 C64.1739107,93.948995 66.316875,93.7499223 68.4235179,93.0853258 C68.3766027,92.9980401 68.3720625,92.9643509 68.3523884,92.9490376 C68.2358571,92.8663459 68.1162991,92.7897794 67.9937143,92.7162757 C58.1581741,86.5465539 51.7640893,77.7031328 48.2636116,66.6239724 C46.3476563,60.5660376 45.3291429,54.3396566 44.8342634,48.012208 C44.3363571,41.6663835 44.1729107,35.3129023 44.7434598,28.9655464 C45.5137768,20.4069524 47.340442,12.0673383 49.8814286,3.87779449 C50.2522098,2.69101504 50.6320714,1.50576692 51.0073929,0.320518797 C50.9544241,0.292954887 50.9014554,0.265390977 50.8469732,0.243952381 C33.942375,26.5108271 17.0377768,52.7777018 0.0438883929,79.1808647" id="Fill-13" fill="url(#linearGradient-5)" mask="url(#mask-4)"></path>
                </g>
                <g id="Group-18" transform="translate(187.000000, 122.000000)">
                    <mask id="mask-7" fill="white">
                        <use xlink:href="#path-6"></use>
                    </mask>
                    <g id="Clip-17"></g>
                    <path d="M17.7763125,1.15509273 C18.9234643,5.16411028 20.1826071,9.14709524 21.1935536,13.1928647 C22.917308,20.0914987 23.9524687,27.1141704 24.1552634,34.2333158 C24.3262768,40.3096266 24.0750536,46.3721554 23.3501384,52.4117143 C22.6327902,58.399208 21.399375,64.2626642 19.2443036,69.9040777 C16.7426652,76.4612256 13.1574375,82.3246817 7.98617411,87.0626115 C5.60258036,89.2462857 2.97079018,91.1451328 0.450991071,93.1772055 C0.473691964,93.1848622 0.626544643,93.2491779 0.786964286,93.2874612 C4.703625,94.2629173 8.59607143,93.9658396 12.4612768,92.9888521 C18.7690982,91.397802 24.3353571,88.2585789 29.5505089,84.4516967 C32.5757812,82.2450526 35.8643839,80.6570652 39.4496116,79.677015 C47.0574375,77.6020652 54.7863348,77.6556617 62.5439866,78.4075439 C64.4781027,78.5928346 66.4001116,78.883787 68.4658929,79.1410501 C51.5007589,52.7822957 34.5991875,26.5230777 17.7006429,0.259265664 C17.620433,0.616065163 17.7006429,0.888641604 17.7763125,1.15509273" id="Fill-16" fill="url(#linearGradient-8)" mask="url(#mask-7)"></path>
                </g>
                <g id="Group-25" transform="translate(82.000000, 25.000000)" fill="#FFFFFF">
                    <path d="M0.043985625,192.242559 C15.2656387,198.872211 31.3155356,200.097057 47.4265575,200.476501 C47.4265575,201.857679 47.4953231,203.131094 47.4143325,204.395403 C46.9879856,211.126745 45.977895,217.765504 43.7926762,224.182667 C42.6175481,227.632575 41.0573325,230.898832 38.9042044,233.881265 C31.8656606,243.623878 19.4053294,242.36564 12.8955169,235.866517 C9.40986375,232.387772 7.1329575,228.210848 5.37867,223.698496 C3.1965075,218.084237 1.86551062,212.249901 1.13353875,206.297178 C0.62620125,202.159716 0.395454375,197.990382 0.05162625,193.83319 C0.011895,193.35509 0.043985625,192.872436 0.043985625,192.242559" id="Fill-19"></path>
                    <path d="M98.9789241,192.921461 C98.8872366,194.794398 98.8383366,196.545913 98.7115022,198.285286 C98.2194459,204.948329 97.2979866,211.54459 95.4856303,217.995144 C93.9468084,223.463696 91.9144022,228.722794 88.3874897,233.276127 C85.2578897,237.317968 81.3137991,240.072734 76.0891397,240.767876 C69.9827522,241.582923 65.0805272,239.54303 61.3473178,234.713462 C58.4041491,230.909912 56.7277959,226.517464 55.4976553,221.939847 C53.7708741,215.492329 52.9869459,208.909728 52.8906741,202.246685 C52.8830334,201.685107 52.8906741,201.126565 52.8906741,200.473921 C68.6059116,200.121797 84.1179084,198.954626 98.9789241,192.921461" id="Fill-21"></path>
                    <path d="M50.6735175,38.35632 C50.6781019,38.2576645 50.6811581,38.1605267 50.6857425,38.063389 C53.4883238,38.063389 56.2893769,38.1256179 59.0858456,38.0482112 C63.4654519,37.9283068 67.81908,37.565558 72.0214238,36.2117005 C78.491505,34.1277921 81.7983675,30.1284486 82.3209863,23.7659257 C82.8267956,17.6462471 79.9554488,12.7271305 74.3518144,10.1636044 C70.5758175,8.43789146 66.5339269,7.79587161 62.4461925,7.6015961 C54.0476175,7.20393842 45.6414019,7.10072955 37.2504675,7.74426718 C33.7953769,8.00987823 30.3998831,8.6640403 27.2106862,10.1074466 C22.07313,12.4296461 19.3087519,16.3728318 19.09023,22.0037861 C18.8365612,28.6091534 21.7888987,33.2930145 28.0068394,35.6470873 C30.4319738,36.5668605 33.0420113,37.2346825 35.6245425,37.4866336 C40.6215112,37.9753579 45.6566831,38.0891912 50.6735175,38.35632 M52.1191238,0.190288943 C57.7273425,0.206984495 64.6359956,0.909715442 71.3291831,3.09986826 C76.1351363,4.6707679 80.5682269,6.90797182 84.07833,10.6325976 C91.7663269,18.792169 90.6584363,31.4504328 81.6745894,38.4564933 C77.269005,41.8988125 72.1772925,43.8354965 66.779955,45.0436474 C58.7328488,46.8376603 50.5971113,47.0911291 42.4109456,46.2867071 C36.6972863,45.7236116 31.131855,44.541263 25.8827456,42.147728 C21.7705613,40.2717551 18.1305675,37.7719757 15.5235863,34.0094055 C10.0987425,26.177674 11.5290675,15.5426076 18.8365612,9.19981573 C22.9120706,5.66491211 27.7470581,3.63412592 32.90448,2.27267957 C38.7403894,0.730617706 44.7000769,0.190288943 52.1191238,0.190288943" id="Fill-23"></path>
                </g>
                <g id="Group-28" transform="translate(106.000000, 71.000000)">
                    <mask id="mask-10" fill="white">
                        <use xlink:href="#path-9"></use>
                    </mask>
                    <g id="Clip-27"></g>
                    <path d="M0.470081522,0.562386364 C5.37703804,5.48068182 10.7842935,9.70710227 17.2556522,12.4515909 C21.5027717,14.2480114 25.9094293,15.2221591 30.5499728,14.6100568 C31.9347011,14.4290341 33.2977446,14.073125 34.8497554,13.7632386 C34.4439402,12.9977273 34.2410326,12.3733523 33.841413,11.913125 C32.3172826,10.158125 30.7404891,8.43840909 29.1528533,6.73403409 C28.4914674,6.02221591 27.8486685,5.13397727 27.0045109,4.77806818 C26.397337,4.52494318 25.6755435,4.54028409 24.95375,4.555625 C24.6424185,4.56329545 24.329538,4.56943182 24.0275,4.555625 C23.795163,4.54181818 23.5628261,4.54795455 23.3304891,4.54181818 C17.4601087,4.40375 11.6594293,3.74409091 5.9888587,2.18545455 C4.10538043,1.67153409 2.260625,1.00880682 0.386440217,0.412045455 C0.418967391,0.468806818 0.437554348,0.525568182 0.470081522,0.562386364" id="Fill-26" fill="url(#linearGradient-11)" mask="url(#mask-10)"></path>
                </g>
                <g id="Group-31" transform="translate(140.000000, 71.000000)">
                    <mask id="mask-13" fill="white">
                        <use xlink:href="#path-12"></use>
                    </mask>
                    <g id="Clip-30"></g>
                    <path d="M0.0530549451,4.27777778 C1.80461538,6.49916667 3.54272527,8.70375 5.32865934,10.9740278 C8.75257143,8.93902778 15.9934505,2.42305556 16.9080879,0.465972222 C11.4217582,2.67819444 5.74712088,3.75680556 0.0530549451,4.27777778" id="Fill-29" fill="url(#linearGradient-14)" mask="url(#mask-13)"></path>
                </g>
                <g id="Group-34" transform="translate(86.000000, 44.000000)">
                    <mask id="mask-16" fill="white">
                        <use xlink:href="#path-15"></use>
                    </mask>
                    <g id="Clip-33"></g>
                    <path d="M0.2625,5.68944444 C0.29625,8.30347222 2.35125,10.5233333 5.29875,10.9938889 C4.06875,7.37 3.8925,3.73541667 4.633125,0.0488888889 C2.14125,0.519444444 0.22875,3.04791667 0.2625,5.68944444" id="Fill-32" fill="url(#linearGradient-17)" mask="url(#mask-16)"></path>
                </g>
                <g id="Group-37" transform="translate(173.000000, 44.000000)">
                    <mask id="mask-19" fill="white">
                        <use xlink:href="#path-18"></use>
                    </mask>
                    <g id="Clip-36"></g>
                    <path d="M0.589555556,10.8961111 C2.71755556,10.1490278 3.98844444,8.16597222 3.99933333,5.72458333 C4.00711111,3.30458333 2.80777778,1.01291667 1.20088889,0.449166667 C1.68622222,3.94166667 1.57888889,7.38527778 0.589555556,10.8961111" id="Fill-35" fill="url(#linearGradient-20)" mask="url(#mask-19)"></path>
                </g>
                <path d="M130.94178,59.6710857 C136.240305,59.5136156 140.051471,59.4606208 143.855034,59.2683256 C147.12631,59.1002565 150.362608,58.6339027 153.43922,57.4150233 C155.718924,56.5095701 157.653403,55.1953002 158.775765,52.9195541 C161.339862,47.7109269 159.124032,41.7891417 153.782924,39.5557913 C150.615063,38.2309225 147.269267,37.7206587 143.883929,37.5647027 C135.700415,37.1891971 127.512339,37.0710945 119.331866,37.7146022 C116.410378,37.9447508 113.540597,38.5064952 110.830502,39.7178039 C107.077126,41.3954664 105.285604,44.2814092 105.267355,48.3604911 C105.249105,52.472884 107.025419,55.4012227 110.80921,57.1031113 C113.031123,58.1084975 115.373181,58.7398922 117.785196,58.9185602 C122.657892,59.2789245 127.539713,59.484847 130.94178,59.6710857 M132.447389,64 C127.454548,63.7335121 122.443457,63.6199519 117.470387,63.1324002 C114.900207,62.8810536 112.302652,62.2148339 109.887595,61.2972676 C103.699393,58.9473288 100.761175,54.2762198 101.015151,47.6851866 C101.231107,42.0692568 103.982265,38.1355319 109.096771,35.8189041 C112.270715,34.378961 115.649969,33.7263684 119.088536,33.4613947 C127.43934,32.8194011 135.803831,32.9208482 144.162239,33.3190659 C148.231944,33.5128753 152.254504,34.1518406 156.010921,35.8749272 C161.587755,38.4323026 164.445369,43.3396168 163.9435,49.4446124 C163.423381,55.7903556 160.132334,59.7816176 153.693196,61.8605261 C149.510951,63.2096211 145.176623,63.5730137 140.819484,63.6926304 C138.03639,63.7698514 135.248733,63.7077718 132.459555,63.7077718 C132.454993,63.8031623 132.451951,63.9015812 132.447389,64" id="Fill-38" fill="#2B50A5"></path>
                <g id="Group-42" transform="translate(105.000000, 37.000000)">
                    <mask id="mask-22" fill="white">
                        <use xlink:href="#path-21"></use>
                    </mask>
                    <g id="Clip-41"></g>
                    <path d="M14.2801389,0.485723684 C11.3452778,0.715723684 8.46236111,1.27861842 5.73986111,2.48763158 C1.96930556,4.16421053 0.169583333,7.04980263 0.149722222,11.12625 C0.132916667,15.2359868 1.91736111,18.1624342 5.71847222,19.8632237 C7.95055556,20.8679605 10.3033333,21.4974342 12.7263889,21.6775 C17.6213889,22.0376316 22.5255556,22.2434211 25.9431944,22.4295395 C31.2659722,22.2721711 35.0930556,22.2176974 38.9140278,22.0270395 C42.2002778,21.8575658 45.4529167,21.3930263 48.5436111,20.1734211 C50.8322222,19.2700658 52.7770833,17.9551316 53.9030556,15.6808553 C56.4804167,10.4771053 54.2544444,4.55914474 48.8873611,2.32723684 C45.705,1.00322368 42.3454167,0.493289474 38.9445833,0.335921053 C34.9005556,0.151315789 30.855,0.0302631579 26.8109722,0.0302631579 C22.6325,0.0302631579 18.4555556,0.160394737 14.2801389,0.485723684" id="Fill-40" fill="url(#linearGradient-23)" mask="url(#mask-22)"></path>
                </g>
                <g id="Group-58">
                    <path d="M90.2130454,146.633366 C90.2130454,144.792511 88.9736046,143.488699 87.0969542,143.488699 L84.073631,143.488699 L84.073631,149.776511 L87.0969542,149.776511 C88.9736046,149.776511 90.2130454,148.472699 90.2130454,146.633366 M97.5477979,146.615109 C97.5477979,152.049434 93.4568827,156.011075 87.9516362,156.011075 L84.073631,156.011075 L84.073631,163.167588 L76.9213729,163.167588 L76.9213729,137.254135 L87.9516362,137.254135 C93.4568827,137.254135 97.5477979,141.182306 97.5477979,146.615109" id="Fill-43" fill="#3399FD"></path>
                    <path d="M107.926404,149.224407 L111.185449,149.224407 C113.180721,149.224407 114.327394,148.022526 114.327394,146.405313 C114.327394,144.785056 113.180721,143.596868 111.185449,143.596868 L107.926404,143.596868 L107.926404,149.224407 Z M110.514783,155.239894 L107.926404,155.239894 L107.926404,163.16774 L100.790875,163.16774 L100.790875,137.254287 L112.015799,137.254287 C117.601647,137.254287 121.648459,141.010544 121.648459,146.425091 C121.648459,149.604749 120.097257,152.212373 117.537774,153.742868 L122.681073,163.16774 L114.715194,163.16774 L110.514783,155.239894 Z" id="Fill-45" fill="#3399FD"></path>
                    <mask id="mask-25" fill="white">
                        <use xlink:href="#path-24"></use>
                    </mask>
                    <g id="Clip-48"></g>
                    <polygon id="Fill-47" fill="#3399FD" mask="url(#mask-25)" points="125.802487 163.167436 133.033826 163.167436 133.033826 137.253983 125.802487 137.253983"></polygon>
                    <polygon id="Fill-49" fill="#3399FD" mask="url(#mask-25)" points="161.159857 137.254135 161.159857 163.167588 155.257685 163.167588 144.966524 149.104067 144.966524 163.167588 138.049988 163.167588 138.049988 137.254135 144.298899 137.254135 154.246362 150.849075 154.246362 137.254135"></polygon>
                    <polygon id="Fill-50" fill="#3399FD" mask="url(#mask-25)" points="185.600871 143.682674 178.564192 143.682674 178.564192 163.168349 171.395205 163.168349 171.395205 143.682674 164.357006 143.682674 164.357006 137.253374 185.600871 137.253374"></polygon>
                    <polygon id="Fill-51" fill="#3399FD" mask="url(#mask-25)" points="102.667525 170.000658 102.667525 195.914111 95.4650811 195.914111 95.4650811 185.965889 87.6923421 185.965889 87.6923421 195.914111 80.4929396 195.914111 80.4929396 170.000658 87.6923421 170.000658 87.6923421 179.352504 95.4650811 179.352504 95.4650811 170.000658"></polygon>
                    <polygon id="Fill-52" fill="#3399FD" mask="url(#mask-25)" points="124.541451 189.721993 124.541451 195.913959 107.653119 195.913959 107.653119 170.000506 124.228169 170.000506 124.228169 176.171173 114.756712 176.171173 114.756712 179.988284 123.267032 179.988284 123.267032 185.842506 114.756712 185.842506 114.756712 189.721993"></polygon>
                    <path d="M135.771394,181.972451 L139.030439,181.972451 C141.025711,181.972451 142.172383,180.76905 142.172383,179.151836 C142.172383,177.531579 141.025711,176.343391 139.030439,176.343391 L135.771394,176.343391 L135.771394,181.972451 Z M138.359772,187.986417 L135.771394,187.986417 L135.771394,195.914263 L128.632823,195.914263 L128.632823,170.00081 L139.862309,170.00081 C145.445116,170.00081 149.493449,173.757067 149.493449,179.171614 C149.493449,182.351272 147.942247,184.955853 145.382763,186.489391 L150.524542,195.914263 L142.560184,195.914263 L138.359772,187.986417 Z" id="Fill-53" fill="#3399FD" mask="url(#mask-25)"></path>
                    <path d="M166.343001,189.926921 C170.283358,189.926921 173.139395,187.013503 173.139395,182.957537 C173.139395,178.904614 170.283358,175.991195 166.343001,175.991195 C162.399602,175.991195 159.502504,178.924391 159.502504,182.957537 C159.502504,186.990682 162.399602,189.926921 166.343001,189.926921 M152.070421,182.957537 C152.070421,175.037297 158.013654,169.345862 166.343001,169.345862 C174.646494,169.345862 180.568436,175.014477 180.568436,182.957537 C180.568436,190.900597 174.646494,196.572255 166.343001,196.572255 C158.013654,196.572255 152.070421,190.877776 152.070421,182.957537" id="Fill-54" fill="#3399FD" mask="url(#mask-25)"></path>
                    <path d="M121.419733,46.3411675 C120.870729,49.4949624 118.560655,52.0508598 116.259705,52.0508598 C113.958755,52.0508598 112.545945,49.4949624 113.09647,46.3411675 C113.646994,43.1919368 115.957069,40.6360393 118.256498,40.6360393 C120.555926,40.6360393 121.971779,43.1919368 121.419733,46.3411675" id="Fill-55" fill="#2B50A5" mask="url(#mask-25)"></path>
                    <path d="M151.309724,46.3411675 C150.757679,49.4949624 148.449125,52.0508598 146.148175,52.0508598 C143.848746,52.0508598 142.431373,49.4949624 142.983419,46.3411675 C143.535464,43.1919368 145.845539,40.6360393 148.143447,40.6360393 C150.445917,40.6360393 151.861769,43.1919368 151.309724,46.3411675" id="Fill-56" fill="#2B50A5" mask="url(#mask-25)"></path>
                    <path d="M131.420576,56.141665 C128.54629,56.141665 125.672004,55.2699214 123.430365,53.5264342 C122.811405,53.0441607 122.698867,52.1495966 123.183997,51.5288786 C123.663045,50.9096821 124.558788,50.7971009 125.18079,51.2793744 C128.620809,53.9554598 134.221865,53.9554598 137.661883,51.2793744 C138.286926,50.7971009 139.178107,50.9096821 139.660197,51.5288786 C140.143807,52.1495966 140.029748,53.0441607 139.412308,53.5264342 C137.170669,55.2699214 134.296383,56.141665 131.420576,56.141665" id="Fill-57" fill="#2B50A5" mask="url(#mask-25)"></path>
                </g>
            </g>
        </g>
    </g>
</svg>