<?xml version="1.0" encoding="UTF-8"?>
<svg width="178px" height="26px" viewBox="0 0 178 26" version="1.1" xmlns="http://www.w3.org/2000/svg" xmlns:xlink="http://www.w3.org/1999/xlink">
    <!-- Generator: Sketch 52.6 (67491) - http://www.bohemiancoding.com/sketch -->
    <title>Group 7</title>
    <desc>Created with Sketch.</desc>
    <defs>
        <polygon id="path-1" points="0 0.279940741 25.9194619 0.279940741 25.9194619 23.7664593 0 23.7664593"></polygon>
        <polygon id="path-3" points="0.0705120482 0.213235294 24.9165964 0.213235294 24.9165964 24.9999706 0.0705120482 24.9999706"></polygon>
        <polygon id="path-5" points="0.101032941 0.200503704 25.7149176 0.200503704 25.7149176 23.7664296 0.101032941 23.7664296"></polygon>
    </defs>
    <g id="Page-1" stroke="none" stroke-width="1" fill="none" fill-rule="evenodd">
        <g id="index" transform="translate(-320.000000, -1301.000000)">
            <g id="Group-7" transform="translate(320.000000, 1301.000000)">
                <g id="Group-16">
                    <g id="Group-3" transform="translate(0.000000, 1.000000)">
                        <mask id="mask-2" fill="white">
                            <use xlink:href="#path-1"></use>
                        </mask>
                        <g id="Clip-2"></g>
                        <path d="M22.6242714,0.279940741 C24.3133429,0.279940741 24.9500333,1.44616296 24.9500333,2.5069037 C24.9500333,3.59342222 24.2857952,4.73386667 22.6242714,4.73386667 L3.29574762,4.73386667 C1.63453333,4.73386667 0.96967619,3.59342222 0.96967619,2.5069037 C0.96967619,1.44616296 1.60636667,0.279940741 3.29574762,0.279940741 L22.6242714,0.279940741 Z M4.84584286,10.7768296 L4.84584286,8.41742222 C4.84584286,6.53623704 6.00903333,5.71371852 7.69872381,5.71371852 C9.3599381,5.71371852 10.4949619,6.56231111 10.4949619,8.41742222 L10.4949619,10.7768296 L15.4244381,10.7768296 L15.4244381,8.41742222 C15.4244381,6.53623704 16.5876286,5.71371852 18.2767,5.71371852 C19.9379143,5.71371852 21.0735571,6.56231111 21.0735571,8.41742222 L21.0735571,10.7768296 L22.9567,10.7768296 C24.6457714,10.7768296 25.283081,11.8372741 25.283081,12.8980148 C25.283081,13.9845333 24.6182238,15.0186074 22.9567,15.0186074 L2.96300952,15.0186074 C1.30148571,15.0186074 0.637247619,13.9845333 0.637247619,12.8980148 C0.637247619,11.8372741 1.27424762,10.7768296 2.96300952,10.7768296 L4.84584286,10.7768296 Z M23.5382952,19.2858667 C25.2549143,19.2858667 25.9194619,20.4529778 25.9194619,21.5394963 C25.9194619,22.6529778 25.2273667,23.7664593 23.5382952,23.7664593 L2.38141429,23.7664593 C0.692961905,23.7664593 -6.19047619e-05,22.6529778 -6.19047619e-05,21.5394963 C-6.19047619e-05,20.4529778 0.664795238,19.2858667 2.38141429,19.2858667 L23.5382952,19.2858667 Z" id="Fill-1" fill="#2B50A5" mask="url(#mask-2)"></path>
                    </g>
                    <path d="M45.7571925,3.63662227 C45.7571925,1.90526015 47.0714356,1 48.5224897,1 C49.946304,1 51.2880928,1.932043 51.2880928,3.63662227 L51.2880928,19.823876 L45.7571925,19.823876 L45.7571925,3.63662227 Z M32.4216351,26 C29.354864,26 28.5339977,24.9617184 28.5339977,22.1132141 L28.5339977,20.4086348 C28.5339977,18.5981145 29.821001,17.9062243 31.3537744,17.9062243 C32.887466,17.9062243 34.0921378,18.6251949 34.0921378,20.4086348 L34.0921378,21.2079539 C34.0921378,21.7942006 34.2289489,21.8730612 34.8312847,21.8730612 L49.7002277,21.8730612 C51.3704243,21.8730612 52,22.8583723 52,23.9237344 C52,25.0149865 51.3431845,26 49.7002277,26 L32.4216351,26 Z M31.5729169,17.0009642 C28.6974364,17.0009642 27,14.7113285 27,12.3687224 L27,11.7295052 C27,9.35981859 28.6708087,7.52370579 31.5729169,7.52370579 L36.7206239,7.52370579 L36.7206239,6.3782928 C36.7206239,5.92596031 36.5565731,5.81912652 36.0365686,5.81912652 L29.0812419,5.81912652 C27.7122132,5.81912652 27.1371171,4.72787439 27.1371171,3.82261424 C27.1371171,2.83730315 27.7397591,1.77223869 29.0812419,1.77223869 L38.1178105,1.77223869 C41.0474646,1.77223869 42.2245905,3.21047745 42.2245905,5.31322834 L42.2245905,11.2774703 L33.5170417,11.2774703 C32.9967312,11.2774703 32.6683235,11.5705936 32.6683235,12.0229261 L32.6683235,12.2627814 C32.6683235,12.7148163 32.9967312,12.9546715 33.5170417,12.9546715 L42.6904214,12.9546715 C44.0319042,12.9546715 44.6070003,14.0459237 44.6070003,15.0044519 C44.6070003,15.9364949 44.0863838,17.0009642 42.6904214,17.0009642 L31.5729169,17.0009642 Z" id="Fill-4" fill="#2B50A5"></path>
                    <path d="M76.4998627,1 C78.0554103,1 78.6388182,2.1065178 78.6388182,3.10561255 C78.6388182,4.13186482 78.0274663,5.18467109 76.4998627,5.18467109 L61.7215395,5.18467109 C61.166386,5.18467109 60.8888093,5.4007242 60.8888093,5.88654194 L60.8888093,6.93934822 L76.3331303,6.93934822 C77.8886779,6.93934822 78.4720859,7.99185275 78.4720859,8.96378998 C78.4720859,9.96288473 77.8610444,10.9882317 76.3331303,10.9882317 L60.8888093,10.9882317 L60.8888093,12.014484 C60.8888093,12.554315 61.166386,12.7429089 61.7215395,12.7429089 L76.9444823,12.7429089 C78.4997194,12.7429089 79.0831273,13.8231744 79.0831273,14.8219674 C79.0831273,15.8476162 78.4720859,16.9013277 76.9444823,16.9013277 L59.6667264,16.9013277 C56.4441658,16.9013277 55.2497164,15.6050091 55.2497164,12.6891973 L55.2497164,5.21122511 C55.2497164,2.2960169 56.4441658,1 59.6667264,1 L76.4998627,1 Z M77.6111012,20.4640917 C79.3330706,20.4640917 80,21.6255281 80,22.7320459 C80,23.8660229 79.3054371,25 77.6111012,25 L56.3888988,25 C54.6939419,25 54,23.8660229 54,22.7320459 C54,21.6255281 54.6663084,20.4640917 56.3888988,20.4640917 L77.6111012,20.4640917 Z" id="Fill-6" fill="#2B50A5"></path>
                    <g id="Group-10" transform="translate(80.000000, 0.000000)">
                        <mask id="mask-4" fill="white">
                            <use xlink:href="#path-3"></use>
                        </mask>
                        <g id="Clip-9"></g>
                        <path d="M19.5268373,24.9999706 L19.5268373,2.89732353 C19.5268373,1.18614706 20.7934036,0.291441176 22.2214157,0.291441176 C23.6497289,0.291441176 24.9165964,1.18614706 24.9165964,2.89732353 L24.9165964,24.9999706 L19.5268373,24.9999706 Z M10.7415964,17.7635 L10.7415964,9.36938235 C10.7415964,7.65938235 9.82563253,7.02761765 8.72081325,7.02761765 C7.6428012,7.02761765 6.72653614,7.65938235 6.72653614,9.36938235 L6.72653614,17.7635 C6.72653614,19.4482059 7.67021084,20.2114412 8.72081325,20.2114412 C9.7985241,20.2114412 10.7415964,19.4482059 10.7415964,17.7635 Z M11.4964157,2.87055882 L11.4964157,3.10761765 L15.4039458,3.10761765 C16.7238253,3.10761765 17.4247289,4.05467647 17.4247289,5.15997059 C17.4247289,6.26526471 16.6970181,7.23791176 15.4039458,7.23791176 L15.3229217,7.23791176 C15.6193072,7.92232353 15.8078614,8.68526471 15.8078614,9.55408824 L15.8078614,17.7379118 C15.8078614,22.3685 12.6819578,24.4996765 8.72081325,24.4996765 C4.7864759,24.4996765 1.66057229,22.3685 1.66057229,17.7379118 L1.66057229,9.55408824 C1.66057229,8.68526471 1.82262048,7.92232353 2.11840361,7.23791176 L2.09159639,7.23791176 C0.798222892,7.23791176 0.0705120482,6.26526471 0.0705120482,5.15997059 C0.0705120482,4.05467647 0.744307229,3.10761765 2.06478916,3.10761765 L5.94521084,3.10761765 L5.94521084,2.87055882 C5.94521084,1.18614706 7.02292169,0.213205882 8.72081325,0.213205882 C10.4184036,0.213205882 11.4964157,1.18614706 11.4964157,2.87055882 Z" id="Fill-8" fill="#3399FD" mask="url(#mask-4)"></path>
                    </g>
                    <path d="M114.327223,18.4653906 C114.327223,20.2756133 115.223753,21.127903 116.528596,21.127903 C117.833439,21.127903 118.729968,20.2756133 118.729968,18.4653906 L118.729968,8.45485603 C118.729968,6.67141616 117.833439,5.79323644 116.528596,5.79323644 C115.223753,5.79323644 114.327223,6.67141616 114.327223,8.45485603 L114.327223,18.4653906 Z M127.590749,15.1642562 L124.029849,15.1642562 L124.029849,18.3323692 C124.029849,23.0455546 121.013367,25.4938042 116.528596,25.4938042 C112.043824,25.4938042 109,23.0455546 109,18.3323692 L109,8.58787749 C109,3.87558476 112.043824,1.42614482 116.528596,1.42614482 C121.013367,1.42614482 124.029849,3.87558476 124.029849,8.58787749 L124.029849,10.6111726 L127.590749,10.6111726 L127.590749,3.58275899 C127.590749,1.87907248 128.86825,1 130.281855,1 C131.667814,1 133,1.90526015 133,3.58275899 L133,26 L127.590749,26 L127.590749,15.1642562 Z" id="Fill-11" fill="#3399FD"></path>
                    <g id="Group-15" transform="translate(135.000000, 1.000000)">
                        <mask id="mask-6" fill="white">
                            <use xlink:href="#path-5"></use>
                        </mask>
                        <g id="Clip-14"></g>
                        <path d="M10.1162329,19.4722074 L10.1162329,15.7344296 L6.53159765,15.7344296 C2.91943294,15.7344296 1.08597412,13.957837 1.08597412,11.1213926 L1.08597412,10.6185778 C1.08597412,7.78213333 2.91943294,5.97946667 6.53159765,5.97946667 L18.5448212,5.97946667 L18.5448212,5.18361481 C18.5448212,4.83931852 18.4359271,4.44168889 17.8064212,4.44168889 L3.49418588,4.44168889 C2.18011529,4.44168889 1.38696235,3.40820741 1.38696235,2.3205037 C1.38696235,1.26094815 2.18011529,0.200503704 3.49418588,0.200503704 L19.3385859,0.200503704 C23.1153153,0.200503704 24.1825388,1.87042963 24.1825388,4.38924444 L24.1825388,10.0082074 L7.87228,10.0082074 C7.24308,10.0082074 6.94209176,10.2470222 6.94209176,10.7507259 L6.94209176,10.8834667 C6.94209176,11.3862815 7.24308,11.6253926 7.87228,11.6253926 L22.7045153,11.6253926 C24.2369859,11.6253926 24.8117388,12.7119111 24.8117388,13.6929481 C24.8117388,14.7006519 24.2097624,15.7344296 22.7045153,15.7344296 L15.6991976,15.7344296 L15.6991976,19.4722074 L23.4159976,19.4722074 C25.0855035,19.4722074 25.7150094,20.5587259 25.7150094,21.6191704 C25.7150094,22.7056889 25.0579741,23.7664296 23.4159976,23.7664296 L2.39912706,23.7664296 C0.757150588,23.7664296 0.101032941,22.7056889 0.101032941,21.6191704 C0.101032941,20.5587259 0.729927059,19.4722074 2.39912706,19.4722074 L10.1162329,19.4722074 Z" id="Fill-13" fill="#3399FD" mask="url(#mask-6)"></path>
                    </g>
                </g>
                <text id="는" font-family="NotoSansCJKkr-Medium, Noto Sans CJK KR" font-size="14" font-weight="400" letter-spacing="-0.6533332" fill="#000000">
                    <tspan x="165.386667" y="23">는</tspan>
                </text>
            </g>
        </g>
    </g>
</svg>