<?xml version="1.0" encoding="UTF-8"?>
<svg width="327px" height="326px" viewBox="0 0 327 326" version="1.1" xmlns="http://www.w3.org/2000/svg" xmlns:xlink="http://www.w3.org/1999/xlink">
    <!-- Generator: Sketch 52.6 (67491) - http://www.bohemiancoding.com/sketch -->
    <title>Group 18</title>
    <desc>Created with Sketch.</desc>
    <defs>
        <polygon id="path-1" points="0 326 327 326 327 0 0 0"></polygon>
    </defs>
    <g id="Welcome" stroke="none" stroke-width="1" fill="none" fill-rule="evenodd" opacity="0.59358724">
        <g id="메인수정" transform="translate(-727.000000, -678.000000)">
            <g id="Group-18" transform="translate(727.000000, 678.000000)">
                <path d="M104.015152,166.699304 L107.825758,166.699304 C110.189394,166.699304 111.75,168.310441 111.75,170.582367 C111.75,172.854292 110.189394,174.465429 107.825758,174.465429 L104.015152,174.465429 L104.015152,166.699304 Z M104.015152,182.164733 L108.901515,182.164733 C115.840909,182.164733 121,177.271926 121,170.560093 C121,163.84826 115.840909,159 108.901515,159 L95,159 L95,191 L104.015152,191 L104.015152,182.164733 Z" id="Fill-1" fill="#C5DAFF"></path>
                <path d="M133.799835,166.832947 L137.817957,166.832947 C140.279242,166.832947 141.695222,168.303016 141.695222,170.300232 C141.695222,172.297448 140.279242,173.782367 137.817957,173.782367 L133.799835,173.782367 L133.799835,166.832947 Z M133.799835,181.214385 L136.995058,181.214385 L142.169687,191 L152,191 L145.654036,179.358237 C148.812191,177.47239 150.724876,174.257541 150.724876,170.322506 C150.724876,163.640371 145.735585,159 138.841021,159 L125,159 L125,191 L133.799835,191 L133.799835,181.214385 Z" id="Fill-3" fill="#C5DAFF"></path>
                <mask id="mask-2" fill="white">
                    <use xlink:href="#path-1"></use>
                </mask>
                <g id="Clip-6"></g>
                <polygon id="Fill-5" fill="#C5DAFF" mask="url(#mask-2)" points="156 191 165 191 165 159 156 159"></polygon>
                <polygon id="Fill-7" fill="#C5DAFF" mask="url(#mask-2)" points="179.678887 173.633875 192.587884 191 200 191 200 159 191.321113 159 191.321113 175.787007 178.841914 159 171 159 171 191 179.678887 191"></polygon>
                <polygon id="Fill-8" fill="#C5DAFF" mask="url(#mask-2)" points="204 166.936891 212.61273 166.936891 212.61273 191 221.38727 191 221.38727 166.936891 230 166.936891 230 159 204 159"></polygon>
                <polygon id="Fill-9" fill="#C5DAFF" mask="url(#mask-2)" points="118.909485 211.549988 109.098103 211.549988 109.098103 200 100 200 100 232 109.098103 232 109.098103 219.715147 118.909485 219.715147 118.909485 232 128 232 128 200 118.909485 200"></polygon>
                <polygon id="Fill-10" fill="#C5DAFF" mask="url(#mask-2)" points="142.83778 219.563805 153.416222 219.563805 153.416222 212.332251 142.83778 212.332251 142.83778 207.617633 154.611526 207.617633 154.611526 200 134 200 134 232 155 232 155 224.352668 142.83778 224.352668"></polygon>
                <path d="M172.82185,214.782367 L168.804831,214.782367 L168.804831,207.825522 L172.82185,207.825522 C175.28246,207.825522 176.698051,209.295592 176.698051,211.300232 C176.698051,213.297448 175.28246,214.782367 172.82185,214.782367 M185.725226,211.322506 C185.725226,204.632947 180.729893,200 173.852045,200 L160,200 L160,232 L168.804831,232 L168.804831,222.206961 L171.991765,222.206961 L177.172385,232 L187,232 L180.655778,220.358237 C183.813066,218.47239 185.725226,215.250116 185.725226,211.322506" id="Fill-11" fill="#C5DAFF" mask="url(#mask-2)"></path>
                <path d="M206.529523,224.702739 C201.687685,224.702739 198.130114,221.038428 198.130114,216 C198.130114,210.961572 201.687685,207.297261 206.529523,207.297261 C211.371362,207.297261 214.877267,210.939046 214.877267,216 C214.877267,221.068463 211.371362,224.702739 206.529523,224.702739 M206.529523,199 C196.299663,199 189,206.103357 189,216 C189,225.889134 196.299663,233 206.529523,233 C216.729861,233 224,225.91917 224,216 C224,206.08083 216.729861,199 206.529523,199" id="Fill-12" fill="#C5DAFF" mask="url(#mask-2)"></path>
                <path d="M310.188487,236.171038 C306.027862,235.768418 302.336984,235.574564 298.899622,235.574564 C292.308237,235.574564 286.447571,236.297788 280.974633,237.766605 C276.396454,239.004289 272.123984,241.047211 268.246699,243.835727 C260.850031,249.174168 254.206452,252.46223 247.34664,254.169636 C244.461044,254.885405 241.828964,255.235833 239.293816,255.235833 C237.951679,255.235833 236.624454,255.13145 235.334511,254.93014 C235.677502,254.661727 236.027949,254.393314 236.378396,254.124901 C238.540728,252.469686 240.770167,250.747368 242.835567,248.875931 C249.054136,243.246709 253.74416,236.18595 257.181523,227.283577 C259.671933,220.84166 261.371974,213.698885 262.37112,205.452634 C263.265878,198.116006 263.601413,190.51842 263.385179,182.876099 C263.139121,174.309243 261.879003,165.496342 259.65702,156.698353 C258.903932,153.701072 258.024087,150.711246 257.151698,147.788525 L315.087288,236.7526 C313.424529,236.536378 311.806508,236.327612 310.188487,236.171038 Z M221.734187,254.840669 C213.77084,258.24057 205.42722,260.261125 196.904649,261.595736 C187.397843,263.079464 177.838844,263.698306 168.220194,263.825057 C166.669279,263.847425 165.118365,263.825057 163.567451,263.825057 C152.860179,263.847425 142.190188,263.377701 131.587304,261.797046 C121.506362,260.290949 111.671478,257.897598 102.425644,253.424044 C87.1998429,246.072504 77.939096,233.919349 73.6442569,217.747452 C71.4446431,209.486289 70.5349723,201.061096 70.2068944,192.531519 C69.9608359,186.283456 70.0950496,180.050304 70.8257687,173.832064 C71.8696532,164.944604 73.8455775,156.258453 76.5149393,147.728877 C80.377312,135.381868 85.3283071,123.489671 91.6512647,112.186491 C92.3297897,110.971176 92.2552265,109.785684 91.3679246,108.868606 C85.9471815,103.299031 81.4957597,96.9838641 77.3202217,90.4748432 C69.6700395,78.5751898 63.0339165,66.1536218 58.2469604,52.8075194 C56.3679683,47.5510935 54.7052094,42.2201085 54.5113451,36.5834306 C54.2578303,28.5384895 55.8385697,20.918536 60.3570984,14.12619 C63.0488291,10.0925356 66.6651433,7.36366767 71.6385074,6.6329872 C76.8206484,5.87248304 80.6382831,7.8557586 83.4045771,12.1578263 C85.4103266,15.2818581 86.7524638,18.7041268 87.5875715,22.2829699 C88.7582134,27.2486148 89.9661369,32.2440833 90.6670308,37.2991992 C91.6960026,44.7252986 95.3495984,50.6378457 100.345331,55.9315512 C106.056871,62.0006726 112.596062,67.1005241 119.187447,72.1407281 C120.365545,73.0428948 121.5511,73.9376056 122.721742,74.8397723 C123.855102,75.7121153 124.83188,76.6962972 125.786288,77.8072297 C133.749636,87.1495014 142.99547,94.8291023 154.716802,99.034243 C161.591527,101.502154 168.622835,102.031524 175.713793,99.9140419 C176.77259,99.5934372 177.816475,99.0715226 178.726146,98.4377691 C182.409567,95.8952993 186.145182,93.405021 189.664564,90.6537853 C194.67521,86.7468816 199.037156,82.1838566 202.496887,76.808136 C202.79514,76.3384129 203.346907,75.9954404 203.853937,75.7121153 C214.352433,69.7772005 223.344752,62.1348792 230.398429,52.3005166 C233.917811,47.4019751 235.692415,41.8696801 236.631911,35.957133 C237.653426,29.4853917 238.786787,23.0136504 241.277197,16.8923375 C241.873702,15.4309765 242.589509,13.9994393 243.394791,12.6424613 C246.787416,7.02069521 251.857712,5.19399403 258.113563,7.28910844 C262.497878,8.75046938 265.569881,11.8297656 267.724756,15.7664931 C272.593732,24.6912331 273.838937,34.1453437 271.467828,44.0318978 C269.193651,53.4934643 265.338735,62.3361892 260.991701,70.9776041 C255.556046,81.7812368 249.359845,92.1151463 242.00046,101.725831 C240.457002,103.73893 238.764418,105.647647 237.131484,107.586187 C236.885425,107.884424 236.587173,108.145381 236.274007,108.369059 C234.827482,109.442712 234.514316,110.784778 235.379249,112.328154 C240.658322,121.692793 244.893511,131.527156 248.465087,141.6523 C251.969557,151.583589 254.601637,161.738557 256.025794,172.191761 C257.099503,180.02048 257.16661,187.871567 256.726687,195.752478 C256.160007,205.721048 254.735851,215.533042 251.149362,224.927506 C245.698793,239.183231 235.64022,248.898299 221.734187,254.840669 Z M222.487276,261.983444 C222.420169,263.48954 222.360518,264.943445 222.25613,266.389894 C221.562692,275.776902 220.310031,283.493782 218.311737,290.66638 C216.045017,298.770969 213.40548,304.504574 209.744428,309.261452 C205.747842,314.458231 201.027993,317.366041 195.331366,318.126545 C194.30985,318.260752 193.310703,318.335311 192.348838,318.335311 C186.607474,318.335311 181.984557,315.949416 178.219116,311.043418 C175.154569,307.061955 172.992237,302.290164 171.195264,295.579833 C169.182059,288.012071 168.14563,280.093881 168.018873,271.385363 C168.018873,271.04239 168.018873,270.699418 168.018873,270.341534 C188.501378,269.834531 205.755298,268.074933 222.502188,261.573368 L222.487276,261.983444 Z M158.907252,273.994936 C158.32566,283.299928 156.88659,291.247942 154.500569,298.29379 C152.972023,302.819535 151.048293,306.659335 148.62499,310.044324 C144.770074,315.405133 139.177835,318.365135 132.86979,318.357679 C127.478872,318.357679 122.028304,316.120902 118.292689,312.370572 C114.571986,308.635155 111.70876,303.952835 109.270544,297.645124 C106.750309,291.113736 105.057724,284.127536 104.095859,276.29136 C103.655937,272.675238 103.380053,268.954732 103.119082,265.360977 C102.999781,263.85488 102.895392,262.348784 102.768635,260.842687 C102.768635,260.812864 102.761178,260.775584 102.761178,260.738305 C121.737508,268.641583 141.601139,269.901634 158.937078,270.341534 C158.937078,270.505564 158.937078,270.669594 158.944534,270.826169 C158.959447,271.929645 158.974359,272.973474 158.907252,273.994936 Z M87.9678437,255.228377 C87.5801151,255.228377 87.177474,255.220921 86.7822891,255.20601 C79.6764181,254.907773 72.8166056,252.581525 64.5326364,247.660615 C62.3106537,246.333461 60.4316615,245.095778 58.8061842,243.887918 C53.7135191,240.092853 47.614251,237.677134 40.1728457,236.506554 C36.1538903,235.880257 32.0678281,235.574564 27.6909695,235.574564 C22.8443628,235.574564 17.6995035,235.954816 11.8835755,236.767512 L69.5954763,148.146409 C66.7024249,157.943492 64.8830833,167.188837 64.0554321,176.314887 C63.4067324,183.383102 63.444014,190.906128 64.1672768,199.979987 C64.8532581,208.636313 66.2699585,216.218987 68.4919412,223.175364 C72.8389746,236.774967 80.7203026,247.429482 91.9346048,254.900317 C90.6819434,255.123994 89.3696314,255.228377 87.9678437,255.228377 Z M111.574546,42.6450961 L113.282043,42.2499322 L112.998703,43.9797063 C112.260528,48.4979958 112.469304,52.7553279 113.639946,56.9902923 L114.146976,58.8244493 L112.282896,58.4591091 C108.785883,57.7731642 106.310386,54.6118528 106.265648,50.7720523 C106.228366,46.9173401 108.554737,43.3459529 111.574546,42.6450961 Z M173.596199,93.8001849 C173.484354,93.8225527 173.365053,93.8449204 173.253208,93.8747441 C172.090023,94.1282455 170.993944,94.3668351 169.912778,94.5159535 C169.226797,94.6054246 168.533359,94.5979687 167.847378,94.6352483 C163.567451,94.8365582 159.160767,94.0089508 154.329073,91.94366 C148.56534,89.4757495 143.196791,85.9118182 137.694028,80.8939819 C138.402378,81.1176596 139.118185,81.3264255 139.826535,81.5277354 C139.953292,81.565015 140.094962,81.5724709 140.229176,81.6097505 C146.567046,83.3246129 153.434315,84.278971 161.24108,84.4653691 L161.576614,84.472825 C161.733197,84.472825 161.897236,84.472825 162.061275,84.480281 C162.240227,84.4877369 162.419178,84.4951928 162.605586,84.4951928 L163.888073,84.472825 C164.357821,84.472825 164.894676,84.4951928 165.289861,84.666679 C165.849084,84.9052686 166.423221,85.5539339 166.967532,86.1951433 C167.146484,86.3964532 167.325435,86.5903072 167.496931,86.7841612 C169.196971,88.6257742 171.202721,90.8178156 173.186101,93.1216959 C173.335228,93.2931821 173.461985,93.5243158 173.596199,93.8001849 Z M190.924682,80.8119668 C188.03163,83.7048649 183.401257,87.6565042 180.239778,89.6994272 L175.587036,83.9285426 C181.216556,83.309701 186.279396,82.2807836 190.924682,80.8119668 Z M124.794598,31.4090199 C129.827613,27.0174811 135.800123,24.4899232 142.167819,22.7974286 C149.370622,20.8812564 156.730008,20.2102233 165.893822,20.2102233 C172.820742,20.2325911 181.350769,21.1049341 189.61237,23.8338019 C195.547599,25.7797979 201.020536,28.5608572 205.352657,33.1909855 C214.852006,43.3384969 213.480043,59.0704948 202.385042,67.786469 C196.949387,72.058713 190.663711,74.4744321 183.997762,75.9730726 C174.058491,78.2023937 164.01483,78.5155424 153.904063,77.5164487 C146.850386,76.8155919 139.975661,75.3467751 133.496121,72.3718617 C128.418368,70.0381578 123.922209,66.9290378 120.701079,62.254174 C114.005306,52.5167384 115.772453,39.2973866 124.794598,31.4090199 Z M214.695423,56.8784534 C215.776589,52.9491819 216.015192,48.8857038 215.403773,44.4419736 L215.142802,42.5258013 L216.962144,43.1744666 C219.392904,44.0468096 221.145138,47.2528566 221.137682,50.801876 C221.122769,54.3434395 219.236321,57.2139699 216.223968,58.2950788 L214.091462,59.055583 L214.695423,56.8784534 Z M326.212114,239.802072 C326.122638,239.675322 326.040619,239.541115 325.966056,239.414364 L242.559683,111.336516 L243.491723,110.210672 C244.572889,108.913341 245.646599,107.630922 246.668115,106.303768 C254.825326,95.7387249 261.990848,83.9434545 268.56732,70.2469236 C272.996373,61.0388585 275.889425,53.2996103 277.686397,45.9033345 C280.452691,34.4957721 279.162748,23.5803006 273.846393,13.447701 C269.551554,5.26855326 263.183859,0.780087519 254.907346,0.101598511 C249.486603,-0.338300955 244.83386,1.30945806 241.165352,5.00014003 C237.407368,8.77283715 235.49855,13.4626128 234.260802,17.1234711 C232.15812,23.3118873 231.02476,29.7687168 229.958506,36.3895765 C229.317263,40.3561277 228.02732,43.8827793 226.029027,47.11865 C224.716715,41.5788991 220.518808,37.5377887 215.627463,37.0009622 C213.107228,31.4239317 208.976427,26.7639797 203.331995,23.147857 C196.09191,18.5028169 187.569339,15.7292135 176.504163,14.4318828 C168.496077,13.4924365 160.264302,13.4849806 152.04744,14.4020591 C143.390655,15.3787851 136.09092,17.3620606 129.723224,20.4786365 C122.065586,24.2215099 116.779056,29.0827718 113.565383,35.3382914 C112.819751,36.8071082 112.424566,37.1873603 111.649109,37.1873603 C111.544721,37.1873603 111.440333,37.1799044 111.186818,37.1575366 C110.910934,37.1575366 110.709613,37.2395518 110.694701,37.2544636 C106.183628,38.4324995 103.119082,41.5267076 101.590537,46.440161 C101.52343,46.6414709 101.471235,46.8427808 101.419041,47.0440908 C99.5251365,44.404694 98.1680866,41.877136 97.6312317,38.9245904 L97.5566685,38.5517943 C96.6022598,33.4146632 95.6180259,28.1060459 94.4548403,22.9092675 C93.0455962,16.6537479 91.1293225,11.9117808 88.4003101,7.97505337 C83.9861699,1.58532722 77.7377755,-1.00187812 69.9533795,0.347643976 C63.8615678,1.39892914 58.8434658,4.78391826 55.025831,10.4131402 C50.5594966,17.0116322 48.2629507,24.7732483 48.0019795,34.1527996 C47.800659,41.1240878 49.6274569,47.5883731 51.4393421,52.9790056 C54.8170541,63.0370459 59.4996218,73.1099981 66.187939,84.6965027 C72.495984,95.6268861 78.3268246,104.007344 84.575219,111.105383 L0.82585597,239.690233 C-0.441718079,241.636229 -0.240397495,243.686608 1.36271086,245.028674 C2.04869211,245.617692 2.84651813,245.901017 3.79347051,245.901017 C4.32286908,245.901017 4.83735502,245.80409 5.26236514,245.714619 C17.6771345,243.142326 28.1085233,242.583132 37.8986687,243.917742 C44.7137433,244.849732 49.9480785,246.825552 54.3696751,250.135982 C58.5228441,253.245102 63.1010234,255.93669 67.969999,258.143643 C75.0609573,261.357146 81.2273323,262.848331 87.3937072,262.848331 L88.0871448,262.848331 C90.0332437,262.803595 91.9718864,262.55755 93.8508785,262.31896 C94.2908013,262.259313 94.730724,262.207121 95.1631905,262.147474 C95.5658316,272.8169 96.9005126,282.360482 99.2268838,291.315045 C101.44141,299.859533 104.252442,306.435658 108.070077,312.005232 C113.714509,320.273851 120.715992,324.769773 129.469709,325.776322 C138.946689,326.849975 146.92495,323.770679 153.106237,316.657728 C157.274319,311.856114 160.323953,305.854096 162.687606,297.771875 C162.903839,297.041194 163.097703,296.310514 163.291567,295.572378 C164.939414,302.342356 167.004814,307.665885 169.778564,312.26619 C173.0668,317.709013 176.981367,321.444431 181.745954,323.681208 C184.981996,325.202216 188.695243,326 192.46814,326 C199.827525,326 207.007959,323.099646 212.175188,318.029618 C216.716085,313.578432 220.272749,307.919386 223.046499,300.709509 C226.774658,291.03172 228.959359,280.086425 229.921225,266.263144 C230.025613,264.846518 230.085264,263.429893 230.15237,262.005811 L230.174739,261.595736 C236.251638,263.407525 242.686441,263.340422 250.127846,261.357146 C257.606533,259.358959 264.995744,255.668277 272.720489,250.061423 C276.038551,247.645703 279.68469,245.960665 283.860228,244.931747 C288.557709,243.768623 293.51616,243.201973 299.011466,243.201973 C302.799276,243.201973 306.900251,243.470387 311.530624,244.037037 C314.140336,244.350185 316.787328,244.83482 319.352302,245.304544 C320.306711,245.483486 321.253663,245.654972 322.208072,245.819002 C323.930481,246.124695 325.377007,245.595325 326.271765,244.297994 C327.263455,242.888824 327.241086,241.293257 326.212114,239.802072 Z" id="Fill-13" fill="#C5DAFF" mask="url(#mask-2)"></path>
                <path d="M137.169331,37.452028 C140.525114,35.9238766 144.081798,35.2237875 147.698008,34.9302018 C157.824884,34.124723 167.959201,34.2677519 178.093517,34.7420058 C182.282666,34.9452575 186.42717,35.577596 190.348451,37.2487763 C196.963288,40.0566604 199.708929,47.5092213 196.531724,54.0659694 C195.147742,56.9265483 192.744376,58.582673 189.924328,59.7193767 C186.114658,61.255056 182.111528,61.8346996 178.056314,62.0530069 C173.346312,62.2938978 168.628869,62.3616483 162.073559,62.5573722 C157.854647,62.3240091 151.812749,62.0605348 145.778292,61.6088644 C142.794547,61.3830292 139.89265,60.5926061 137.147009,59.3279291 C132.459329,57.1824949 130.256864,53.5013814 130.279186,48.322228 C130.301509,43.1957694 132.518855,39.559823 137.169331,37.452028 M136.001132,64.6049445 C138.992318,65.7567039 142.206726,66.5998219 145.391372,66.9084633 C151.544882,67.5257461 157.750477,67.6687751 163.933749,68 C163.94119,67.8795546 163.94119,67.7591091 163.948631,67.6386637 C167.401144,67.6386637 170.853657,67.7139421 174.298729,67.6160802 C179.693281,67.4655234 185.065511,67.0063252 190.23684,65.3125614 C198.213336,62.6928733 202.283432,57.6793323 202.930778,49.6847669 C203.548361,42.0063708 200.014,35.8335425 193.108973,32.6116273 C188.458498,30.4511374 183.480629,29.6456586 178.435792,29.4047677 C168.093134,28.9004025 157.735595,28.7724292 147.392937,29.577908 C143.136822,29.9166608 138.955114,30.7296675 135.018951,32.5438767 C128.686864,35.4646784 125.286436,40.4104688 125.018568,47.47911 C124.706056,55.7672611 128.337148,61.6465036 136.001132,64.6049445" id="Fill-14" fill="#C5DAFF" mask="url(#mask-2)"></path>
                <path d="M144.217593,53 C147.1764,53 150.142932,49.8651212 150.845938,45.9926238 C151.55667,42.1275026 149.741214,39 146.782407,39 C143.8236,39 140.857068,42.1275026 140.154062,45.9926238 C139.44333,49.8651212 141.258786,53 144.217593,53" id="Fill-15" fill="#C5DAFF" mask="url(#mask-2)"></path>
                <path d="M181.222077,53 C184.178928,53 187.143499,49.8651212 187.84604,45.9926238 C188.556302,42.1275026 186.742046,39 183.785196,39 C180.828345,39 177.863774,42.1275026 177.153512,45.9926238 C176.44325,49.8651212 178.265226,53 181.222077,53" id="Fill-16" fill="#C5DAFF" mask="url(#mask-2)"></path>
                <path d="M163.496575,58.5061554 C167.035836,58.5061554 170.567709,57.4911554 173.323752,55.4611554 C174.084804,54.8941554 174.225193,53.8581554 173.634084,53.1301554 C173.035587,52.4091554 171.942036,52.2831554 171.173595,52.8431554 C166.939781,55.9581554 160.053368,55.9581554 155.826943,52.8431554 C155.058502,52.2831554 153.957563,52.4091554 153.366454,53.1301554 C152.775346,53.8581554 152.915734,54.8941554 153.669397,55.4611554 C156.42544,57.4911554 159.964702,58.5061554 163.496575,58.5061554" id="Fill-17" fill="#C5DAFF" mask="url(#mask-2)"></path>
            </g>
        </g>
    </g>
</svg>