<?xml version="1.0" encoding="UTF-8"?>
<svg width="50px" height="47px" viewBox="0 0 50 47" version="1.1" xmlns="http://www.w3.org/2000/svg" xmlns:xlink="http://www.w3.org/1999/xlink">
    <!-- Generator: Sketch 52.6 (67491) - http://www.bohemiancoding.com/sketch -->
    <title>Group 10</title>
    <desc>Created with Sketch.</desc>
    <defs>
        <polygon id="path-1" points="0 0.875589474 49.0988636 0.875589474 49.0988636 21 0 21"></polygon>
    </defs>
    <g id="Symbols" stroke="none" stroke-width="1" fill="none" fill-rule="evenodd">
        <g id="rental-ico">
            <g id="Group-10">
                <g id="Group-3" transform="translate(0.000000, 26.000000)">
                    <mask id="mask-2" fill="white">
                        <use xlink:href="#path-1"></use>
                    </mask>
                    <g id="Clip-2"></g>
                    <path d="M2.59022727,11.3999053 L8.77318182,18.4426421 L12.6277273,16.0331684 C12.8822727,15.8740105 13.1879545,15.8198526 13.4856818,15.8839579 L19.7118182,17.2113789 C21.1481818,17.5164316 22.5959091,17.6280632 24.0163636,17.5506947 C26.0731818,17.4324316 28.1743182,17.1450632 30.2629545,16.6952211 C31.4618182,16.4376947 32.6402273,16.0276421 33.7652273,15.4772211 L45.7731818,9.60606316 C46.2879545,9.35406316 46.6425,8.95948421 46.7731818,8.49306316 C46.8856818,8.08964211 46.8163636,7.6818 46.5720455,7.31374737 C46.0481818,6.5268 44.8754545,6.17753684 43.8402273,6.49695789 L39.2425,7.93048421 C38.8822727,8.04322105 38.4879545,7.97248421 38.1925,7.74590526 C37.8947727,7.51822105 37.7345455,7.16122105 37.7629545,6.79537895 C37.7834091,6.46822105 37.8640909,3.5448 34.2788636,3.08611579 L18.8595455,3.08611579 C18.8504545,3.08722105 14.3220455,3.24748421 10.1947727,4.87774737 C7.02204545,6.13001053 3.82090909,9.85585263 2.59022727,11.3999053 M8.55386364,21.0002211 C8.23113636,21.0002211 7.91181818,20.8653789 7.68909091,20.6122737 L0.272045455,12.1625368 C-0.0654545455,11.7790105 -0.0915909091,11.2208526 0.207272727,10.8085895 C0.389090909,10.5576947 4.70613636,4.65890526 9.33909091,2.82858947 C13.855,1.0458 18.6231818,0.881115789 18.8243182,0.875589474 L34.3504545,0.875589474 C34.3959091,0.875589474 34.4413636,0.876694737 34.4868182,0.882221053 C38.0845455,1.30774737 39.5038636,3.54148421 39.9095455,5.40164211 L43.1470455,4.39253684 C45.1584091,3.76695789 47.4004545,4.4898 48.48,6.11343158 C49.0765909,7.01090526 49.2493182,8.06201053 48.9663636,9.07443158 C48.6686364,10.1376947 47.8765909,11.0517474 46.7947727,11.5811684 L34.7868182,17.4534316 C33.4925,18.0856421 32.1356818,18.5564842 30.7538636,18.8538 C28.5481818,19.3290632 26.3265909,19.6319053 24.1504545,19.7579053 C22.5231818,19.8507474 20.8663636,19.7203263 19.2243182,19.3699579 L13.4595455,18.1409053 L9.1675,20.8233789 C8.97886364,20.9427474 8.76522727,21.0002211 8.55386364,21.0002211" id="Fill-1" fill="#009AFF" mask="url(#mask-2)"></path>
                </g>
                <path d="M35.473073,35 C35.2565364,35 35.0960974,34.9891551 35.0052193,34.9807202 L25.1219512,34.9807202 C24.5026341,34.9807202 24,34.4420912 24,33.7757336 C24,33.110581 24.5026341,32.570747 25.1219512,32.570747 L35.0568291,32.570747 C35.1005852,32.570747 35.1443413,32.573157 35.1880974,32.5791819 C35.2004388,32.5779769 37.2872681,32.7936695 39.2024388,31.2428518 C39.6983412,30.8427962 40.4006826,30.9476301 40.7742924,31.4790291 C41.1467802,32.0116332 41.0480485,32.7659548 40.553268,33.1672154 C38.5550729,34.7855124 36.4458047,35 35.473073,35" id="Fill-4" fill="#009AFF"></path>
                <path d="M24,2.29220106 C19.6898057,2.29220106 16.1829295,5.97462206 16.1829295,10.4994269 C16.1829295,15.0253779 19.6898057,18.7077989 24,18.7077989 C28.3101943,18.7077989 31.8170705,15.0253779 31.8170705,10.4994269 C31.8170705,5.97462206 28.3101943,2.29220106 24,2.29220106 M24,21 C18.4859201,21 14,16.2895268 14,10.4994269 C14,4.70932708 18.4859201,0 24,0 C29.5140799,0 34,4.70932708 34,10.4994269 C34,16.2895268 29.5140799,21 24,21" id="Fill-6" fill="#009AFF"></path>
                <path d="M26.9140671,15 C26.6185018,15 26.3229365,14.8730725 26.1077823,14.6215252 L23.281439,11.309871 C23.1010573,11.096402 23,10.8206231 23,10.5344592 L23,5.1538865 C23,4.51578727 23.4868135,4 24.0866372,4 C24.6875475,4 25.1732743,4.51578727 25.1732743,5.1538865 L25.1732743,10.0890591 L27.7192653,13.0707018 C28.121321,13.5426414 28.0876353,14.2730515 27.6432006,14.7011434 C27.4345663,14.9007658 27.1737734,15 26.9140671,15" id="Fill-8" fill="#009AFF"></path>
            </g>
        </g>
    </g>
</svg>