<?xml version="1.0" encoding="UTF-8"?>
<svg width="50px" height="47px" viewBox="0 0 50 47" version="1.1" xmlns="http://www.w3.org/2000/svg" xmlns:xlink="http://www.w3.org/1999/xlink">
    <!-- Generator: Sketch 52.6 (67491) - http://www.bohemiancoding.com/sketch -->
    <title>Group 10</title>
    <desc>Created with Sketch.</desc>
    <defs>
        <polygon id="path-1" points="0 0.908131707 49.0988636 0.908131707 49.0988636 21.7804878 0 21.7804878"></polygon>
    </defs>
    <g id="Symbols" stroke="none" stroke-width="1" fill="none" fill-rule="evenodd">
        <g id="rental-ico-w">
            <g id="Group-10">
                <g id="Group-3" transform="translate(0.000000, 25.047102)">
                    <mask id="mask-2" fill="white">
                        <use xlink:href="#path-1"></use>
                    </mask>
                    <g id="Clip-2"></g>
                    <path d="M2.59022727,11.8235951 L8.77318182,19.1280829 L12.6277273,16.6290585 C12.8822727,16.4639854 13.1879545,16.4078146 13.4856818,16.4743024 L19.7118182,17.8510585 C21.1481818,18.1674488 22.5959091,18.2832293 24.0163636,18.2029854 C26.0731818,18.0803268 28.1743182,17.782278 30.2629545,17.3157171 C31.4618182,17.0486195 32.6402273,16.6233268 33.7652273,16.0524488 L45.7731818,9.96308293 C46.2879545,9.70171707 46.6425,9.29247317 46.7731818,8.80871707 C46.8856818,8.39030244 46.8163636,7.96730244 46.5720455,7.58557073 C46.0481818,6.76937561 44.8754545,6.40713171 43.8402273,6.73842439 L39.2425,8.22522927 C38.8822727,8.3421561 38.4879545,8.26879024 38.1925,8.03379024 C37.8947727,7.7976439 37.7345455,7.42737561 37.7629545,7.04793659 C37.7834091,6.70861951 37.8640909,3.67654634 34.2788636,3.20081463 L18.8595455,3.20081463 C18.8504545,3.20196098 14.3220455,3.36818049 10.1947727,5.05903415 C7.02204545,6.35783902 3.82090909,10.2221561 2.59022727,11.8235951 M8.55386364,21.7807171 C8.23113636,21.7807171 7.91181818,21.6408634 7.68909091,21.3783512 L0.272045455,12.6145707 C-0.0654545455,12.2167902 -0.0915909091,11.6378878 0.207272727,11.2103024 C0.389090909,10.9500829 4.70613636,4.83205854 9.33909091,2.93371707 C13.855,1.08466829 18.6231818,0.913863415 18.8243182,0.908131707 L34.3504545,0.908131707 C34.3959091,0.908131707 34.4413636,0.909278049 34.4868182,0.915009756 C38.0845455,1.35635122 39.5038636,3.67310732 39.9095455,5.6024 L43.1470455,4.55579024 C45.1584091,3.90696098 47.4004545,4.65666829 48.48,6.3406439 C49.0765909,7.27147317 49.2493182,8.3616439 48.9663636,9.41169268 C48.6686364,10.5144732 47.8765909,11.4624976 46.7947727,12.0115951 L34.7868182,18.1021073 C33.4925,18.7578146 32.1356818,19.2461561 30.7538636,19.554522 C28.5481818,20.0474488 26.3265909,20.3615463 24.1504545,20.4922293 C22.5231818,20.588522 20.8663636,20.4532537 19.2243182,20.0898634 L13.4595455,18.8151317 L9.1675,21.5973024 C8.97886364,21.7211073 8.76522727,21.7807171 8.55386364,21.7807171" id="Fill-1" fill="#FFFFFF" mask="url(#mask-2)"></path>
                </g>
                <path d="M35.0321591,34.8400683 C34.8128409,34.8400683 34.6503409,34.8297512 34.5582955,34.8217268 L24.5480682,34.8217268 C23.9207955,34.8217268 23.4117045,34.3093122 23.4117045,33.6753854 C23.4117045,33.0426049 23.9207955,32.5290439 24.5480682,32.5290439 L34.6105682,32.5290439 C34.6548864,32.5290439 34.6992045,32.5313366 34.7435227,32.5370683 C34.7560227,32.535922 36.8696591,32.7411171 38.8094318,31.2657756 C39.3117045,30.8851902 40.0230682,30.984922 40.4014773,31.4904585 C40.77875,31.9971415 40.67875,32.7147512 40.1776136,33.0964829 C38.15375,34.6360195 36.0173864,34.8400683 35.0321591,34.8400683" id="Fill-4" fill="#FFFFFF"></path>
                <path d="M24.5485227,2.29245366 C20.0610227,2.29245366 16.4098864,5.97564878 16.4098864,10.5014049 C16.4098864,15.0283073 20.0610227,18.7115024 24.5485227,18.7115024 C29.0360227,18.7115024 32.6871591,15.0283073 32.6871591,10.5014049 C32.6871591,5.97564878 29.0360227,2.29245366 24.5485227,2.29245366 M24.5485227,21.0041854 C18.8076136,21.0041854 14.1371591,16.292722 14.1371591,10.5014049 C14.1371591,4.7100878 18.8076136,-0.000229268293 24.5485227,-0.000229268293 C30.2894318,-0.000229268293 34.9598864,4.7100878 34.9598864,10.5014049 C34.9598864,16.292722 30.2894318,21.0041854 24.5485227,21.0041854" id="Fill-6" fill="#FFFFFF"></path>
                <path d="M26.7373864,15.224561 C26.4282955,15.224561 26.1192045,15.0984634 25.8942045,14.848561 L22.9385227,11.558561 C22.7498864,11.3464878 22.6442045,11.0725122 22.6442045,10.7882195 L22.6442045,5.44282927 C22.6442045,4.80890244 23.1532955,4.2964878 23.7805682,4.2964878 C24.4089773,4.2964878 24.9169318,4.80890244 24.9169318,5.44282927 L24.9169318,10.3457317 L27.5794318,13.307878 C27.9998864,13.7767317 27.9646591,14.5023659 27.4998864,14.9276585 C27.2817045,15.1259756 27.0089773,15.224561 26.7373864,15.224561" id="Fill-8" fill="#FFFFFF"></path>
            </g>
        </g>
    </g>
</svg>