<?xml version="1.0" encoding="UTF-8"?>
<svg width="42px" height="44px" viewBox="0 0 42 44" version="1.1" xmlns="http://www.w3.org/2000/svg" xmlns:xlink="http://www.w3.org/1999/xlink">
    <!-- Generator: Sketch 52.6 (67491) - http://www.bohemiancoding.com/sketch -->
    <title>repair-ico</title>
    <desc>Created with Sketch.</desc>
    <defs>
        <polygon id="path-1" points="0.000407698639 0.2596 21.3143189 0.2596 21.3143189 22 0.000407698639 22"></polygon>
    </defs>
    <g id="Symbols" stroke="none" stroke-width="1" fill="none" fill-rule="evenodd">
        <g id="repair-ico">
            <g id="Group-38">
                <g id="Group-37" transform="translate(0.000000, -0.000000)">
                    <path d="M26.5096054,12.2594421 C26.7979297,11.9653368 26.9103081,11.5357579 26.8013351,11.1339684 C26.2190108,8.96523158 26.8217676,6.63438947 28.3746324,5.04923158 C29.5097676,3.89133684 31.0070108,3.25681053 32.5564703,3.22091579 L31.0501459,4.75744211 C30.815173,4.99712632 30.6959838,5.32828421 30.7198216,5.66523158 L31.0512811,10.1022842 C31.0944162,10.6719684 31.5382541,11.1258632 32.0967405,11.1687053 L36.4465784,11.5056526 C36.779173,11.5253368 37.1015514,11.4083895 37.3353892,11.1698632 L38.8428486,9.63217895 C38.8065243,11.2127053 38.1844703,12.7411263 37.0493351,13.8990211 C35.4964703,15.4818632 33.2114432,16.0990211 31.0842,15.5027053 C30.6903081,15.3938632 30.2703081,15.5061789 29.9819838,15.8014421 L24.7399297,21.1486 L26.3461459,22.7858632 L31.143227,17.8914421 C33.8573351,18.4101789 36.6860919,17.5429158 38.6544162,15.5362842 C40.8917676,13.2540737 41.6772811,9.92281053 40.7044703,6.84165263 C40.5841459,6.45838947 40.2753892,6.16544211 39.8917135,6.07165263 C39.5046324,5.97438947 39.1027946,6.09365263 38.8224162,6.37849474 L36.0980919,9.15512632 L33.2409568,8.93512632 L33.0230108,6.01838947 L35.7473351,3.24175789 C36.0265784,2.95691579 36.1400919,2.54354737 36.0481459,2.15217895 C35.9550649,1.75965263 35.6690108,1.44470526 35.2921459,1.32081053 C32.2738216,0.328494737 29.0069027,1.12975789 26.7695514,3.41196842 C24.8000919,5.42091579 23.9453351,8.30291579 24.4595514,11.0760737 L19.6636054,15.9693368 L21.2686865,17.6066 L26.5096054,12.2594421 Z" id="Fill-2" fill="#009AFF"></path>
                    <g id="Group-6" transform="translate(0.000000, 20.842105)">
                        <mask id="mask-2" fill="white">
                            <use xlink:href="#path-1"></use>
                        </mask>
                        <g id="Clip-5"></g>
                        <path d="M14.6056703,10.6436 C14.3173459,10.9377053 14.2049676,11.3672842 14.3139405,11.7690737 C14.8962649,13.9378105 14.2946432,16.2686526 12.7406432,17.8526526 C11.6066432,19.0105474 10.1082649,19.6439158 8.55880541,19.6821263 L10.0662649,18.1444421 C10.3012378,17.9047579 10.420427,17.5736 10.3954541,17.2366526 L10.0639946,12.8007579 C10.0208595,12.2310737 9.57702162,11.7771789 9.01853514,11.7343368 L4.66983243,11.3962316 C4.64145405,11.3939158 4.61194054,11.3927579 4.58356216,11.3927579 C4.28388649,11.3927579 3.99442703,11.5143368 3.78102162,11.7320211 L2.27242703,13.2708632 C2.30875135,11.6891789 2.93080541,10.1607579 4.06594054,9.00286316 C5.61880541,7.41886316 7.90383243,6.80286316 10.0310757,7.40033684 C10.4249676,7.51033684 10.8461027,7.39686316 11.1332919,7.1016 L16.2368595,1.89686316 L14.6317784,0.2596 L9.97318378,5.0116 C7.25567027,4.48591579 4.43031892,5.35781053 2.46085946,7.3656 C0.223508108,9.64781053 -0.562005405,12.9802316 0.410805405,16.0613895 C0.53112973,16.4446526 0.839886486,16.7376 1.22356216,16.8313895 C1.61064324,16.9321263 2.01361622,16.8093895 2.29285946,16.5245474 L5.01718378,13.7467579 L7.87431892,13.9679158 L8.09226486,16.8834947 L5.36794054,19.6612842 C5.0886973,19.9461263 4.97518378,20.3606526 5.06712973,20.7520211 C5.16021081,21.1433895 5.4474,21.4594947 5.82312973,21.5822316 C6.68015676,21.8624421 7.55534595,22.0002316 8.42145405,22.0002316 C10.6122649,22.0002316 12.7440486,21.1248632 14.3457243,19.4899158 C16.3151838,17.4821263 17.1699405,14.5989684 16.6557243,11.8269684 L21.3143189,7.07612632 L19.7092378,5.43886316 L14.6056703,10.6436 Z" id="Fill-4" fill="#009AFF" mask="url(#mask-2)"></path>
                    </g>
                    <polygon id="Fill-7" fill="#009AFF" points="24.7403838 21.1483684 21.2680054 17.6063684 19.6629243 19.2436316 23.1353027 22.7856316"></polygon>
                    <polygon id="Fill-9" fill="#009AFF" points="25.2154378 24.9068947 26.8205189 23.2696316 26.3460324 22.7856316 24.7409514 24.4228947"></polygon>
                    <polygon id="Fill-11" fill="#009AFF" points="22.919627 26.2808526 21.3145459 27.9181158 21.7890324 28.4021158 23.3941135 26.7648526"></polygon>
                    <polygon id="Fill-13" fill="#009AFF" points="16.2368595 22.7393158 19.7092378 26.2813158 21.3143189 24.6440526 17.8419405 21.1020526"></polygon>
                    <path d="M7.98056757,11.0415684 C7.76375676,10.8215684 7.4742973,10.7023053 7.17802703,10.7023053 C7.04975676,10.7023053 6.92035135,10.7254632 6.79662162,10.7706211 L5.26645946,11.3275684 L2.85543243,5.77662105 L4.87937838,3.71209474 L10.5266757,6.59177895 L9.7842973,8.00209474 C9.54705405,8.45251579 9.62764865,9.00714737 9.98181081,9.36841053 L18.0582973,17.6068316 L19.6633784,15.9695684 L12.183973,8.33904211 L13.0784595,6.63693684 C13.2237568,6.36135789 13.2532703,6.03830526 13.1601892,5.73956842 C13.0682432,5.44198947 12.8605135,5.1942 12.5869459,5.05409474 L5.16316216,1.26777895 C4.725,1.04198947 4.19716216,1.12998947 3.85321622,1.48430526 L0.699810811,4.70093684 C0.367216216,5.03904211 0.274135135,5.55198947 0.464837838,5.98967368 L3.61824324,13.2485158 C3.85775676,13.8031474 4.47867568,14.0752526 5.03716216,13.8691474 L6.88289189,13.1964105 L14.6324595,21.1013579 L16.2364054,19.4629368 L7.98056757,11.0415684 Z" id="Fill-15" fill="#009AFF"></path>
                    <polygon id="Fill-17" fill="#009AFF" points="21.3145459 24.6434737 19.7094649 26.2807368 21.3145459 27.918 22.919627 26.2807368"></polygon>
                    <polygon id="Fill-19" fill="#009AFF" points="23.1353027 22.7856316 24.7415189 24.4228947 26.3466 22.7856316 24.7403838 21.1483684"></polygon>
                    <polygon id="Fill-21" fill="#009AFF" points="17.8420541 21.1019368 16.236973 19.4635158 14.6318919 21.1019368 16.236973 22.7392"></polygon>
                    <polygon id="Fill-23" fill="#009AFF" points="19.6633784 19.2440947 21.2684595 17.6068316 19.6633784 15.9695684 18.0582973 17.6068316"></polygon>
                    <path d="M28.7848703,22.9032737 L30.1878973,24.3344316 C30.3683838,24.3633789 30.5454649,24.4189579 30.6998432,24.5359053 L31.5160054,25.1623263 C31.5920595,25.0048526 31.6420054,24.8381158 31.6420054,24.6598 C31.6420054,24.3518 31.5216811,24.0576947 31.3094108,23.8411684 L29.5874108,22.0846421 C29.143573,21.6319053 28.4261676,21.6319053 27.9823297,22.0846421 L26.8210865,23.2691684 L27.623627,24.0878 L28.7848703,22.9032737 Z" id="Fill-25" fill="#009AFF"></path>
                    <path d="M23.3941135,26.7647368 L25.2148703,24.9074737 L23.3941135,26.7647368 Z" id="Fill-27" fill="#009AFF"></path>
                    <path d="M22.9750216,31.6937789 L21.5708595,30.2626211 L22.5913459,29.2205158 L21.7888054,28.4018842 L20.7683189,29.4428316 C20.3256162,29.8944105 20.3256162,30.6273579 20.7683189,31.0800947 L22.4891838,32.8354632 C22.7025892,33.0531474 22.9909135,33.1747263 23.2917243,33.1747263 C23.4676703,33.1747263 23.6322649,33.1237789 23.7855081,33.0462 L23.1725351,32.2136737 C23.0567514,32.0562 23.0022649,31.8767263 22.9750216,31.6937789" id="Fill-29" fill="#009AFF"></path>
                    <polygon id="Fill-31" fill="#009AFF" points="27.623173 24.0882632 26.8206324 23.2696316 25.2155514 24.9068947 23.3936595 26.7653158 21.7885784 28.4025789 22.5911189 29.2212105"></polygon>
                    <path d="M37.7135027,38.4093368 L36.7679351,39.3738632 C35.9790162,40.1774421 34.8881514,40.6023895 33.7791243,40.5120737 C32.667827,40.4321789 31.6462054,39.8659684 30.9764757,38.9570211 L25.5800432,31.6275474 L30.1239892,26.9924947 L37.3037189,32.4936526 C38.1959351,33.1756526 38.7532865,34.2200737 38.8316108,35.3548105 C38.9099351,36.4907053 38.5024216,37.6046 37.7135027,38.4093368 Z M38.6670162,30.6410211 L31.5168,25.1630211 C31.4623135,25.2753368 31.3987459,25.3864947 31.3090703,25.4779684 L24.0941514,32.8363895 C24.0056108,32.9278632 23.897773,32.9903895 23.7853946,33.0459684 L29.1613946,40.3476526 C30.2261514,41.7927053 31.8505297,42.6947053 33.6190703,42.8232316 C33.7632324,42.8324947 33.9073946,42.8382842 34.0504216,42.8382842 C35.6668541,42.8382842 37.2219892,42.1852316 38.3730162,41.0111263 L39.3185838,40.0466 C40.5740432,38.7671263 41.2210703,36.9967053 41.0962054,35.1915474 C40.9702054,33.3863895 40.0848,31.7271263 38.6670162,30.6410211 Z" id="Fill-33" fill="#009AFF"></path>
                    <path d="M31.3089568,25.4779684 C31.3986324,25.3864947 31.4622,25.2753368 31.5166865,25.1630211 L30.6993892,24.5366 C30.5450108,24.4184947 30.3679297,24.3629158 30.1885784,24.3351263 L30.5064162,24.6593368 L23.2926324,32.0177579 L22.9747946,31.6935474 C23.003173,31.8764947 23.0565243,32.0571263 23.1734432,32.2134421 L23.7864162,33.0459684 C23.8976595,32.9903895 24.0054973,32.9278632 24.095173,32.8352316 L31.3089568,25.4779684 Z" id="Fill-35" fill="#009AFF"></path>
                </g>
            </g>
        </g>
    </g>
</svg>