<?xml version="1.0" encoding="UTF-8"?>
<svg width="42px" height="41px" viewBox="0 0 42 41" version="1.1" xmlns="http://www.w3.org/2000/svg" xmlns:xlink="http://www.w3.org/1999/xlink">
    <!-- Generator: Sketch 52.6 (67491) - http://www.bohemiancoding.com/sketch -->
    <title>Group 38</title>
    <desc>Created with Sketch.</desc>
    <defs>
        <polygon id="path-1" points="0.000407698639 0.25294359 21.3143189 0.25294359 21.3143189 21.4358974 0.000407698639 21.4358974"></polygon>
    </defs>
    <g id="Symbols" stroke="none" stroke-width="1" fill="none" fill-rule="evenodd">
        <g id="repair-ico-w" transform="translate(0.000000, -1.000000)">
            <g id="Group-38">
                <polygon id="Fill-1" fill="#FFFFFF" points="22.919627 25.8559795 23.3941135 26.3275692 25.2148703 24.5168 24.7403838 24.0463385"></polygon>
                <g id="Group-37" transform="translate(0.000000, 0.248995)">
                    <path d="M26.5096054,11.9450974 C26.7979297,11.6585333 26.9103081,11.2399692 26.8013351,10.8484821 C26.2190108,8.73535385 26.8217676,6.46427692 28.3746324,4.9197641 C29.5097676,3.79155897 31.0070108,3.17330256 32.5564703,3.13832821 L31.0501459,4.63545641 C30.815173,4.86899487 30.6959838,5.19166154 30.7198216,5.51996923 L31.0512811,9.84325128 C31.0944162,10.3983282 31.5382541,10.8405846 32.0967405,10.8823282 L36.4465784,11.2106359 C36.779173,11.2298154 37.1015514,11.1158667 37.3353892,10.8834564 L38.8428486,9.3852 C38.8065243,10.9252 38.1844703,12.4144308 37.0493351,13.5426359 C35.4964703,15.0848923 33.2114432,15.6862256 31.0842,15.1052 C30.6903081,14.9991487 30.2703081,15.1085846 29.9819838,15.3962769 L24.7399297,20.6063282 L26.3461459,22.2016103 L31.143227,17.4326872 C33.8573351,17.9381231 36.6860919,17.0930974 38.6544162,15.1379179 C40.8917676,12.9142256 41.6772811,9.66837949 40.7044703,6.66622564 C40.5841459,6.29278974 40.2753892,6.00735385 39.8917135,5.91596923 C39.5046324,5.8212 39.1027946,5.93740513 38.8224162,6.21494359 L36.0980919,8.92037949 L33.2409568,8.70602051 L33.0230108,5.86407179 L35.7473351,3.1586359 C36.0265784,2.88109744 36.1400919,2.47832821 36.0481459,2.09699487 C35.9550649,1.71453333 35.6690108,1.40766154 35.2921459,1.28694359 C32.2738216,0.320071795 29.0069027,1.10078974 26.7695514,3.32448205 C24.8000919,5.28191795 23.9453351,8.09002051 24.4595514,10.7920718 L19.6636054,15.5598667 L21.2686865,17.1551487 L26.5096054,11.9450974 Z" id="Fill-2" fill="#FFFFFF"></path>
                    <g id="Group-6" transform="translate(0.000000, 20.307692)">
                        <mask id="mask-2" fill="white">
                            <use xlink:href="#path-1"></use>
                        </mask>
                        <g id="Clip-5"></g>
                        <path d="M14.6056703,10.3706872 C14.3173459,10.6572513 14.2049676,11.0758154 14.3139405,11.4673026 C14.8962649,13.5804308 14.2946432,15.8515077 12.7406432,17.3948923 C11.6066432,18.5230974 10.1082649,19.1402256 8.55880541,19.1774564 L10.0662649,17.6792 C10.3012378,17.4456615 10.420427,17.1229949 10.3954541,16.7946872 L10.0639946,12.4725333 C10.0208595,11.9174564 9.57702162,11.4752 9.01853514,11.4334564 L4.66983243,11.1040205 C4.64145405,11.1017641 4.61194054,11.1006359 4.58356216,11.1006359 C4.28388649,11.1006359 3.99442703,11.2190974 3.78102162,11.4312 L2.27242703,12.9305846 C2.30875135,11.3894564 2.93080541,9.90022564 4.06594054,8.77202051 C5.61880541,7.2286359 7.90383243,6.62843077 10.0310757,7.21058462 C10.4249676,7.3177641 10.8461027,7.2072 11.1332919,6.91950769 L16.2368595,1.84822564 L14.6317784,0.25294359 L9.97318378,4.88309744 C7.25567027,4.37089231 4.43031892,5.22043077 2.46085946,7.17673846 C0.223508108,9.40043077 -0.562005405,12.6474051 0.410805405,15.649559 C0.53112973,16.0229949 0.839886486,16.3084308 1.22356216,16.3998154 C1.61064324,16.4979692 2.01361622,16.3783795 2.29285946,16.100841 L5.01718378,13.3942769 L7.87431892,13.6097641 L8.09226486,16.4505846 L5.36794054,19.1571487 C5.0886973,19.4346872 4.97518378,19.8385846 5.06712973,20.2199179 C5.16021081,20.6012513 5.4474,20.9092513 5.82312973,21.028841 C6.68015676,21.3018667 7.55534595,21.4361231 8.42145405,21.4361231 C10.6122649,21.4361231 12.7440486,20.5832 14.3457243,18.9901744 C16.3151838,17.0338667 17.1699405,14.2246359 16.6557243,11.5237128 L21.3143189,6.89468718 L19.7092378,5.29940513 L14.6056703,10.3706872 Z" id="Fill-4" fill="#FFFFFF" mask="url(#mask-2)"></path>
                    </g>
                    <polygon id="Fill-7" fill="#FFFFFF" points="24.7403838 20.6061026 21.2680054 17.1549231 19.6629243 18.7502051 23.1353027 22.2013846"></polygon>
                    <polygon id="Fill-9" fill="#FFFFFF" points="25.2154378 24.2682564 26.8205189 22.6729744 26.3460324 22.2013846 24.7409514 23.7966667"></polygon>
                    <polygon id="Fill-11" fill="#FFFFFF" points="22.919627 25.6069846 21.3145459 27.2022667 21.7890324 27.6738564 23.3941135 26.0785744"></polygon>
                    <polygon id="Fill-13" fill="#FFFFFF" points="16.2368595 22.1562564 19.7092378 25.6074359 21.3143189 24.0121538 17.8419405 20.5609744"></polygon>
                    <path d="M7.98056757,10.7584513 C7.76375676,10.5440923 7.4742973,10.4278872 7.17802703,10.4278872 C7.04975676,10.4278872 6.92035135,10.4504513 6.79662162,10.4944513 L5.26645946,11.0371179 L2.85543243,5.62850256 L4.87937838,3.61691282 L10.5266757,6.42275897 L9.7842973,7.79691282 C9.54705405,8.23578462 9.62764865,8.77619487 9.98181081,9.12819487 L18.0582973,17.1553744 L19.6633784,15.5600923 L12.183973,8.12522051 L13.0784595,6.46675897 C13.2237568,6.19824615 13.2532703,5.88347692 13.1601892,5.5924 C13.0682432,5.30245128 12.8605135,5.06101538 12.5869459,4.92450256 L5.16316216,1.23527179 C4.725,1.01527179 4.19716216,1.10101538 3.85321622,1.44624615 L0.699810811,4.5804 C0.367216216,4.9098359 0.274135135,5.40963077 0.464837838,5.83609231 L3.61824324,12.9088103 C3.85775676,13.4492205 4.47867568,13.7143487 5.03716216,13.5135282 L6.88289189,12.858041 L14.6324595,20.5602974 L16.2364054,18.9638872 L7.98056757,10.7584513 Z" id="Fill-15" fill="#FFFFFF"></path>
                    <polygon id="Fill-17" fill="#FFFFFF" points="21.3145459 24.0115897 19.7094649 25.6068718 21.3145459 27.2021538 22.919627 25.6068718"></polygon>
                    <polygon id="Fill-19" fill="#FFFFFF" points="23.1353027 22.2013846 24.7415189 23.7966667 26.3466 22.2013846 24.7403838 20.6061026"></polygon>
                    <polygon id="Fill-21" fill="#FFFFFF" points="17.8420541 20.5608615 16.236973 18.9644513 14.6318919 20.5608615 16.236973 22.1561436"></polygon>
                    <polygon id="Fill-23" fill="#FFFFFF" points="19.6633784 18.7506564 21.2684595 17.1553744 19.6633784 15.5600923 18.0582973 17.1553744"></polygon>
                    <path d="M28.7848703,22.3160103 L30.1878973,23.7104718 C30.3683838,23.7386769 30.5454649,23.7928308 30.6998432,23.9067795 L31.5160054,24.5171385 C31.5920595,24.3637026 31.6420054,24.201241 31.6420054,24.0274974 C31.6420054,23.7273949 31.5216811,23.4408308 31.3094108,23.2298564 L29.5874108,21.5183692 C29.143573,21.077241 28.4261676,21.077241 27.9823297,21.5183692 L26.8210865,22.6725231 L27.623627,23.4701641 L28.7848703,22.3160103 Z" id="Fill-25" fill="#FFFFFF"></path>
                    <path d="M23.3941135,26.0784615 L25.2148703,24.2688205 L23.3941135,26.0784615 Z" id="Fill-27" fill="#FFFFFF"></path>
                    <path d="M22.9750216,30.8811179 L21.5708595,29.4866564 L22.5913459,28.4712718 L21.7888054,27.6736308 L20.7683189,28.6878872 C20.3256162,29.1278872 20.3256162,29.842041 20.7683189,30.2831692 L22.4891838,31.9935282 C22.7025892,32.2056308 22.9909135,32.3240923 23.2917243,32.3240923 C23.4676703,32.3240923 23.6322649,32.2744513 23.7855081,32.1988615 L23.1725351,31.3876821 C23.0567514,31.2342462 23.0022649,31.0593744 22.9750216,30.8811179" id="Fill-29" fill="#FFFFFF"></path>
                    <polygon id="Fill-31" fill="#FFFFFF" points="27.623173 23.4706154 26.8206324 22.6729744 25.2155514 24.2682564 23.3936595 26.0790256 21.7885784 27.6743077 22.5911189 28.4719487"></polygon>
                    <path d="M37.7135027,37.4244821 L36.7679351,38.3642769 C35.9790162,39.1472513 34.8881514,39.5613026 33.7791243,39.4733026 C32.667827,39.3954564 31.6462054,38.8437641 30.9764757,37.9581231 L25.5800432,30.8165846 L30.1239892,26.3003795 L37.3037189,31.6604821 C38.1959351,32.3249949 38.7532865,33.3426359 38.8316108,34.4482769 C38.9099351,35.5550462 38.5024216,36.6403795 37.7135027,37.4244821 Z M38.6670162,29.8553538 L31.5168,24.5178154 C31.4623135,24.6272513 31.3987459,24.735559 31.3090703,24.8246872 L24.0941514,31.9944308 C24.0056108,32.083559 23.897773,32.1444821 23.7853946,32.1986359 L29.1613946,39.3130974 C30.2261514,40.7210974 31.8505297,41.5999692 33.6190703,41.7252 C33.7632324,41.7342256 33.9073946,41.7398667 34.0504216,41.7398667 C35.6668541,41.7398667 37.2219892,41.103559 38.3730162,39.959559 L39.3185838,39.0197641 C40.5740432,37.7730974 41.2210703,36.0480718 41.0962054,34.2892 C40.9702054,32.5303282 40.0848,30.9136103 38.6670162,29.8553538 Z" id="Fill-33" fill="#FFFFFF"></path>
                    <path d="M31.3089568,24.8246872 C31.3986324,24.735559 31.4622,24.6272513 31.5166865,24.5178154 L30.6993892,23.9074564 C30.5450108,23.7923795 30.3679297,23.7382256 30.1885784,23.7111487 L30.5064162,24.0270462 L23.2926324,31.1967897 L22.9747946,30.8808923 C23.003173,31.0591487 23.0565243,31.2351487 23.1734432,31.3874564 L23.7864162,32.1986359 C23.8976595,32.1444821 24.0054973,32.083559 24.095173,31.9933026 L31.3089568,24.8246872 Z" id="Fill-35" fill="#FFFFFF"></path>
                </g>
            </g>
        </g>
    </g>
</svg>