<?xml version="1.0" encoding="UTF-8"?>
<svg width="850px" height="485px" viewBox="0 0 850 485" version="1.1" xmlns="http://www.w3.org/2000/svg" xmlns:xlink="http://www.w3.org/1999/xlink">
    <!-- Generator: Sketch 52.6 (67491) - http://www.bohemiancoding.com/sketch -->
    <title>Group 7</title>
    <desc>Created with Sketch.</desc>
    <defs>
        <polygon id="path-1" points="0 0 523 0 523 333 0 333"></polygon>
        <polygon id="path-3" points="0.793268075 0.290038944 118.052966 0.290038944 118.052966 186.187625 0.793268075 186.187625"></polygon>
        <polygon id="path-5" points="0.0542863689 0.304831319 152.478905 0.304831319 152.478905 223.950009 0.0542863689 223.950009"></polygon>
        <polygon id="path-7" points="0.0542863689 0.373499411 152.478905 0.373499411 152.478905 224.018908 0.0542863689 224.018908"></polygon>
        <polygon id="path-9" points="0.407399304 0.10203935 20.3416042 0.10203935 20.3416042 18.4431138 0.407399304 18.4431138"></polygon>
    </defs>
    <g id="Page-1" stroke="none" stroke-width="1" fill="none" fill-rule="evenodd">
        <g id="index" transform="translate(-305.000000, -677.000000)">
            <g id="Group-7" transform="translate(305.000000, 677.000000)">
                <path d="M485,470.499332 C485,478.509098 452.09261,485 411.5,485 C370.90739,485 338,478.509098 338,470.499332 C338,462.490902 370.90739,456 411.5,456 C452.09261,456 485,462.490902 485,470.499332" id="Fill-1" fill="#BFC4C4" opacity="0.206682478"></path>
                <g id="Group-3" opacity="0.241187686" transform="translate(122.000000, 22.000000)">
                    <mask id="mask-2" fill="white">
                        <use xlink:href="#path-1"></use>
                    </mask>
                    <g id="Clip-2"></g>
                    <path d="M439.674259,319.546877 C478.240946,297.411928 505.860665,251.543964 516.158686,209.295078 C534.60432,133.610101 515.187733,51.1333416 464.70436,38.5189733 C414.220987,25.9058381 401.601069,80.2413356 313.255474,45.3132225 C267.406025,27.184538 216.244096,-9.44522004 163.99154,2.26407041 C96.3949713,17.411177 124.503251,82.69639 104.524079,129.729611 C83.7503786,178.628476 -22.1439219,188.246469 4.17543579,258.283958 C19.8661306,300.037147 74.9772593,320.881065 116.174278,320.881065 C174.422805,320.881065 208.402449,284.980055 276.360504,297.59319 C308.07377,303.479895 334.77682,321.290446 365.51173,329.550823 C392.927882,336.919685 418.025838,331.972584 439.674259,319.546877" id="Fill-1" fill="#DEE0DD" mask="url(#mask-2)"></path>
                </g>
                <g id="Group-59" transform="translate(311.000000, 34.000000)">
                    <g id="Group-3" transform="translate(38.886957, 252.934132)">
                        <mask id="mask-4" fill="white">
                            <use xlink:href="#path-3"></use>
                        </mask>
                        <g id="Clip-2"></g>
                        <path d="M7.18829913,12.0129635 L8.60941714,28.5629746 L0.793268075,102.348441 L14.2938892,167.858901 C14.2938892,167.858901 0.793268075,182.340161 3.6355041,185.78808 C6.47774012,189.235999 22.8205973,169.238069 22.8205973,169.238069 L20.6889202,104.417192 L43.4268084,43.7338181 L74.6914047,103.038024 L104.534883,167.169317 C104.534883,167.169317 108.798237,181.650577 115.903827,182.340161 C123.009417,183.029745 110.219355,164.410982 110.219355,164.410982 L93.1659389,96.8317703 L65.4541376,0.290038944 C65.4541376,0.290038944 29.9261873,14.7712986 7.18829913,12.0129635" id="Fill-1" fill="#393762" mask="url(#mask-4)"></path>
                    </g>
                    <path d="M104.233995,252.934132 C104.233995,252.934132 68.7996927,267.333199 46.1217391,264.59052 L46.4562389,268.47004 C52.3028989,271.044045 67.3681469,276.901037 78.0126114,274.189898 C87.8789386,271.677604 100.020148,262.912 105.808696,258.404406 L104.233995,252.934132 Z" id="Fill-4" fill="#1D1D1D"></path>
                    <polygon id="Fill-6" fill="#BFBFC0" points="69.6347826 270.892188 71.2170035 275.768463 80.4869565 274.283562 79.3572078 269.620758"></polygon>
                    <polyline id="Fill-8" fill="#393762" points="94.0518875 268.742515 92.2434783 261.877725 93.8256574 260.838323 96.7652174 268.118084"></polyline>
                    <polyline id="Fill-10" fill="#393762" points="51.6074031 272.101044 50.6434783 266.107784 53.2954172 266.520075 54.2608696 273.133733"></polyline>
                    <path d="M90.4347826,161.540358 L126.306643,179.182207 C128.799284,180.407507 131.84474,179.312704 132.903473,176.811279 L150.121739,136.127745 L160.069565,138.875054 L143.726708,193.821246 C142.436333,199.212841 136.63675,202.370874 131.198132,200.64419 L94.6981366,192.447591 L90.4347826,161.540358 Z" id="Fill-12" fill="#F6BA99"></path>
                    <path d="M127.513043,178.90449 C127.188197,178.821183 126.869075,178.703165 126.557108,178.550435 L90.4347826,160.718563 L94.7279043,191.958704 L123.667837,198.483034 L127.513043,178.90449 Z" id="Fill-14" fill="#B57053"></path>
                    <path d="M48.6632684,164.17477 L21.7043478,179.382084 L45.8254873,264.404791 C45.8254873,264.404791 62.8521739,272.699689 77.0410795,269.934723 C91.229985,267.169757 104,252.653685 104,252.653685 L90.5205397,160.718563 L57.1766117,162.101046 L48.6632684,164.17477 Z" id="Fill-16" fill="#B57053"></path>
                    <path d="M37.0777419,142.299417 C37.0777419,142.299417 30.888798,135.78407 29.9357775,140.439081 C28.9841794,145.091311 35.6496335,148.814764 38.02934,149.280543 C40.410469,149.744932 37.0777419,142.299417 37.0777419,142.299417" id="Fill-18" fill="#F6BA99"></path>
                    <path d="M65.1130435,140.400656 C65.1130435,140.400656 66.3796536,131.912391 69.8888334,135.078733 C73.3980132,138.246417 70.1039719,144.782863 68.4213323,146.434402 C66.7386927,148.0846 65.1130435,140.400656 65.1130435,140.400656" id="Fill-20" fill="#F6BA99"></path>
                    <path d="M43.4086957,156.089819 L46.4199452,171.883042 L51.3483665,175.436723 C56.2086797,178.940819 63.1991839,177.624028 66.2857871,172.619948 L68.7304348,168.65718 L64.7830605,152.814371 L43.4086957,156.089819 Z" id="Fill-22" fill="#F2957E"></path>
                    <path d="M48.4371749,115.135042 C48.4371749,115.135042 41.5692276,113.766279 36.0834816,122.004918 C31.6900048,128.603235 36.8470653,147.690491 39.0746628,155.029422 C39.6373034,156.880955 41.0051517,158.411556 42.8251218,159.244061 L52.2837995,163.567049 C55.5519951,165.06062 59.4732556,163.962043 61.3807796,161.017419 L66.7631834,152.708833 C67.699004,151.266008 68.0334307,149.539281 67.7004393,147.871529 L63.2251499,125.418597 C62.1457986,120.005262 57.5614258,115.791994 51.8331128,115.155615 C50.7351025,115.033551 49.5940329,115.012978 48.4371749,115.135042" id="Fill-24" fill="#F6BA99"></path>
                    <path d="M55.0506678,152.086296 C55.3512699,153.288566 55.039932,154.393235 54.3543752,154.551468 C53.6688184,154.711179 52.8682353,153.86678 52.5676332,152.66451 C52.2654974,151.462239 52.5768353,150.359049 53.2623921,150.199338 C53.9494826,150.038148 54.748532,150.884026 55.0506678,152.086296" id="Fill-26" fill="#393762"></path>
                    <path d="M37.036053,142.191721 C37.036053,142.191721 39.3985742,141.736147 38.9255051,139.452817 C38.4538482,137.170851 36.5629839,133.518068 37.50771,128.952772 C38.4538482,124.388841 44.1250288,121.648572 44.1250288,121.648572 C44.1250288,121.648572 45.0697549,123.474963 51.2154168,125.758293 C57.3582544,128.040259 61.1399829,128.040259 61.1399829,128.040259 C61.1399829,128.040259 61.1399829,133.975007 62.5577781,135.800034 C63.9755733,137.626426 66.3380945,140.822269 66.8111636,137.626426 C67.2828206,134.431946 64.9202993,124.388841 64.9202993,124.388841 C64.9202993,124.388841 68.2289588,124.388841 66.3380945,118.454092 C64.4486424,112.519344 52.6317998,109.780439 44.1250288,109.780439 C35.6182578,109.780439 25.6922796,122.562449 28.529282,127.584684 C31.3634602,132.605555 32.3095984,136.256973 32.3095984,136.256973 C32.3095984,136.256973 35.6182578,143.104235 37.036053,142.191721" id="Fill-28" fill="#393762"></path>
                    <g id="Group-32" transform="translate(55.165217, 0.000000)">
                        <mask id="mask-6" fill="white">
                            <use xlink:href="#path-5"></use>
                        </mask>
                        <g id="Clip-31"></g>
                        <path d="M9.46905765,191.50469 C13.0776567,177.864523 28.5099337,169.800976 43.5478982,173.536194 C57.9481301,177.112789 67.7931285,191.455034 64.1845295,205.09658 C60.5759304,218.738127 44.8233636,226.720293 30.1071124,223.063697 C15.0663008,219.328479 5.86045862,205.147616 9.46905765,191.50469 M25.5533024,142.305467 L27.7682847,133.93433 C39.1706035,90.8386296 95.9786357,102.967054 104.098339,72.2742643 C107.625798,58.9416873 98.7217404,47.479478 82.0851736,43.3470136 C63.8471575,38.8173029 49.7857211,45.5663511 46.1771221,59.2078974 L45.2746164,62.6175944 C44.3721108,66.0286706 42.0404006,67.1017872 38.5214828,66.2272937 L4.61203994,56.4823468 C1.41341192,55.6878543 -0.415799034,53.5816216 0.159299195,51.4119399 L1.06180483,48.0008636 C10.9850963,10.4873008 48.5088322,-7.61636913 93.6255729,3.59066466 C137.781444,14.5590748 159.861515,45.81463 150.264207,82.0881776 C136.646906,133.555015 79.2922461,119.637603 71.8287807,147.851742 L70.3511768,153.4325 C69.4486712,156.843576 67.0372444,158.224282 63.5169031,157.349789 L29.6003427,148.924858 C26.0814248,148.051744 24.6522203,145.715164 25.5533024,142.305467" id="Fill-30" fill="#C2DEFA" mask="url(#mask-6)"></path>
                    </g>
                    <g id="Group-35" transform="translate(55.165217, 4.391218)">
                        <mask id="mask-8" fill="white">
                            <use xlink:href="#path-7"></use>
                        </mask>
                        <g id="Clip-34"></g>
                        <path d="M9.46905765,191.57407 C13.0776567,177.933903 28.5099337,169.870356 43.5478982,173.605574 C57.9481301,177.18217 67.7931285,191.524414 64.1845295,205.164581 C60.5759304,218.807507 44.8233636,226.788294 30.1071124,223.133077 C15.0663008,219.39648 5.86045862,205.216996 9.46905765,191.57407 M25.5533024,142.374847 L27.7682847,134.00371 C39.1706035,90.9080097 95.9786357,103.036434 104.098339,72.3436445 C107.625798,59.0110674 98.7217404,47.5488581 82.0851736,43.4163937 C63.8471575,38.8853037 49.7857211,45.6357312 46.1771221,59.2772776 L45.2746164,62.6869745 C44.3721108,66.0980508 42.0404006,67.1711674 38.5214828,66.2966739 L4.61203994,56.551727 C1.41341192,55.7572345 -0.415799034,53.6510018 0.159299195,51.4813201 L1.06180483,48.0702438 C10.9850963,10.556681 48.5088322,-7.54698897 93.6255729,3.66004482 C137.781444,14.628455 159.861515,45.8840101 150.264207,82.1575578 C136.646906,133.624395 79.2922461,119.706983 71.8287807,147.921122 L70.3511768,153.50188 C69.4486712,156.911577 67.0372444,158.293662 63.5169031,157.419169 L29.6003427,148.994238 C26.0814248,148.121124 24.6522203,145.784544 25.5533024,142.374847" id="Fill-33" fill="#7EB9F5" mask="url(#mask-8)"></path>
                    </g>
                    <path d="M160.250435,138.762475 L172.549565,127.078018 L175.443478,107.145709 C175.443478,107.145709 173.996522,107.145709 169.655652,109.894993 C165.314783,112.644277 160.973913,122.954092 160.973913,122.954092 C160.973913,122.954092 154.462609,128.45266 152.292174,130.514623 C150.121739,132.576586 150.121739,136.013191 150.121739,136.013191 L160.250435,138.762475 Z" id="Fill-36" fill="#F6BA99"></path>
                    <polygon id="Fill-38" fill="#F6BA99" points="62.4 216.487026 82.3908467 211.656687 94.5281465 213.726832 93.1002288 217.177074 83.1048055 217.177074 92.38627 223.387511 103.095652 226.147705 99.5258581 229.597947 81.6768879 230.978044 65.9697941 223.387511"></polygon>
                    <path d="M21.4234418,180.03992 L0.401464225,230.038885 C-1.22327172,233.905934 2.33635117,237.938242 6.536194,236.983874 L66.9217391,223.591048 L62.6820604,216.53451 L27.1142857,217.223087 L29.9597077,208.960161 L21.4234418,180.03992 Z" id="Fill-40" fill="#F6BA99"></path>
                    <path d="M27.0414711,216.926148 L29.8434783,208.729208 L21.4374566,180.03992 L8.13913043,211.901424 C20.404917,210.487452 27.0414711,216.926148 27.0414711,216.926148" id="Fill-42" fill="#B57053"></path>
                    <path d="M46.0801024,141.23141 C46.2294152,142.196648 45.9645053,143.054489 45.4876676,143.145777 C45.012034,143.237065 44.5038887,142.528239 44.3545759,141.563001 C44.205263,140.597763 44.471377,139.739922 44.9470106,139.648634 C45.4238484,139.557346 45.9307895,140.266172 46.0801024,141.23141" id="Fill-44" fill="#393762"></path>
                    <path d="M56.9322763,139.474923 C57.0815891,140.440161 56.8166792,141.298002 56.3398415,141.38929 C55.8642079,141.480578 55.3560626,140.771752 55.2067498,139.806514 C55.0574369,138.841276 55.3235509,137.983435 55.7991846,137.892147 C56.2760223,137.800859 56.7829634,138.509685 56.9322763,139.474923" id="Fill-46" fill="#393762"></path>
                    <path d="M42.5043478,135.249501 C42.5043478,135.249501 43.0205593,133.493014 46.1217391,133.493014" id="Stroke-48" stroke="#393762" stroke-linecap="round"></path>
                    <path d="M53.3565217,135.249501 C53.3565217,135.249501 55.0244521,131.720565 57.8782609,132.830916" id="Stroke-50" stroke="#393762" stroke-linecap="round"></path>
                    <polyline id="Stroke-52" stroke="#393762" stroke-width="0.5" stroke-linecap="round" points="51.0617194 137.005988 53.3565217 146.108644 50.6434783 146.666667"></polyline>
                    <g id="Group-56" transform="translate(41.600000, 420.678643)">
                        <mask id="mask-10" fill="white">
                            <use xlink:href="#path-9"></use>
                        </mask>
                        <g id="Clip-55"></g>
                        <path d="M20.3416042,1.4821363 C13.1068216,2.86223325 11.659865,0.10203935 11.659865,0.10203935 C11.659865,0.10203935 -2.08622191,14.5930573 0.80769113,18.0432997 C3.70160417,21.4935421 20.3416042,1.4821363 20.3416042,1.4821363" id="Fill-54" fill="#B57053" mask="url(#mask-10)"></path>
                    </g>
                    <path d="M143.791304,420.664186 C144.83833,423.657902 148.929001,434.133208 155.15735,434.712245 C162.428362,435.387113 149.340541,417.165669 149.340541,417.165669 C149.340541,417.165669 148.036121,419.560101 143.791304,420.664186" id="Fill-57" fill="#B57053"></path>
                </g>
                <g id="Group-5" transform="translate(35.000000, 1.000000)">
                    <path d="M226.385365,0 L12.6132921,0 C5.64738202,0 0,5.63270485 0,12.5818502 L0,117.321233 C0,124.270379 5.64738202,129.903084 12.6132921,129.903084 L156.591994,129.903084 L195.36236,152 L178.242978,129.903084 L226.385365,129.903084 C233.351275,129.903084 239,124.270379 239,117.321233 L239,12.5818502 C239,5.63270485 233.351275,0 226.385365,0" id="Fill-1" fill="#FFFFFF"></path>
                    <path d="M226.385365,0 L12.6132921,0 C5.64738202,0 0,5.63270485 0,12.5818502 L0,117.321233 C0,124.270379 5.64738202,129.903084 12.6132921,129.903084 L156.591994,129.903084 L195.36236,152 L178.242978,129.903084 L226.385365,129.903084 C233.351275,129.903084 239,124.270379 239,117.321233 L239,12.5818502 C239,5.63270485 233.351275,0 226.385365,0 Z" id="Stroke-3" stroke="#B9B9B9"></path>
                </g>
                <g id="Group-5-Copy" transform="translate(145.500000, 360.500000) scale(1, -1) translate(-145.500000, -360.500000) translate(1.000000, 286.000000)">
                    <path d="M273.74632,0 L15.2520562,0 C6.8288427,0 0,5.52153304 0,12.3335242 L0,115.005683 C0,121.817674 6.8288427,127.339207 15.2520562,127.339207 L189.351826,127.339207 L236.233146,149 L215.532303,127.339207 L273.74632,127.339207 C282.169534,127.339207 289,121.817674 289,115.005683 L289,12.3335242 C289,5.52153304 282.169534,0 273.74632,0" id="Fill-1" fill="#FFFFFF"></path>
                    <path d="M273.74632,0 L15.2520562,0 C6.8288427,0 0,5.52153304 0,12.3335242 L0,115.005683 C0,121.817674 6.8288427,127.339207 15.2520562,127.339207 L189.351826,127.339207 L236.233146,149 L215.532303,127.339207 L273.74632,127.339207 C282.169534,127.339207 289,121.817674 289,115.005683 L289,12.3335242 C289,5.52153304 282.169534,0 273.74632,0 Z" id="Stroke-3" stroke="#B9B9B9"></path>
                </g>
                <g id="Group-5" transform="translate(717.500000, 157.000000) scale(-1, 1) translate(-717.500000, -157.000000) translate(586.000000, 77.000000)">
                    <path d="M249.118624,0 L13.8798989,0 C6.21448315,0 0,5.929163 0,13.2440529 L0,123.496035 C0,130.810925 6.21448315,136.740088 13.8798989,136.740088 L172.316713,136.740088 L214.980337,160 L196.141854,136.740088 L249.118624,136.740088 C256.784039,136.740088 263,130.810925 263,123.496035 L263,13.2440529 C263,5.929163 256.784039,0 249.118624,0" id="Fill-1" fill="#FFFFFF"></path>
                    <path id="Stroke-3" d="M197.19023,137.240088 L215.368886,159.68531 L216.958431,161.647924 L214.740999,160.438996 L172.18927,137.240088 L13.8798989,137.240088 C5.94322426,137.240088 -0.5,131.092234 -0.5,123.496035 L-0.5,13.2440529 C-0.5,5.64785413 5.94322426,-0.5 13.8798989,-0.5 L249.118624,-0.5 C257.055565,-0.5 263.5,5.64810571 263.5,13.2440529 L263.5,123.496035 C263.5,131.091982 257.055565,137.240088 249.118624,137.240088 L197.19023,137.240088 Z M213.002243,158.352076 L195.753305,137.054778 L195.093478,136.240088 L196.141854,136.240088 L249.118624,136.240088 C256.513535,136.240088 262.5,130.528894 262.5,123.496035 L262.5,13.2440529 C262.5,6.21119396 256.513535,0.5 249.118624,0.5 L13.8798989,0.5 C6.48528512,0.5 0.5,6.21090783 0.5,13.2440529 L0.5,123.496035 C0.5,130.52918 6.48528512,136.240088 13.8798989,136.240088 L172.316713,136.240088 L172.444157,136.240088 L172.556051,136.301092 L213.002243,158.352076 Z" fill="#B9B9B9" fill-rule="nonzero"></path>
                </g>
                <g id="Group-5-Copy-2" transform="translate(657.500000, 372.000000) scale(-1, -1) translate(-657.500000, -372.000000) translate(517.000000, 296.000000)">
                    <path d="M266.168567,0 L14.8298539,0 C6.63980899,0 0,5.63270485 0,12.5818502 L0,117.321233 C0,124.270379 6.63980899,129.903084 14.8298539,129.903084 L184.110253,129.903084 L229.69382,152 L209.566011,129.903084 L266.168567,129.903084 C274.358612,129.903084 281,124.270379 281,117.321233 L281,12.5818502 C281,5.63270485 274.358612,0 266.168567,0" id="Fill-1" fill="#FFFFFF"></path>
                    <path d="M266.168567,0 L14.8298539,0 C6.63980899,0 0,5.63270485 0,12.5818502 L0,117.321233 C0,124.270379 6.63980899,129.903084 14.8298539,129.903084 L184.110253,129.903084 L229.69382,152 L209.566011,129.903084 L266.168567,129.903084 C274.358612,129.903084 281,124.270379 281,117.321233 L281,12.5818502 C281,5.63270485 274.358612,0 266.168567,0 Z" id="Stroke-3" stroke="#B9B9B9"></path>
                </g>
                <text id="갑자기-프린트가-고장났어요.-수리접수" font-family="NotoSansCJKkr-Light, Noto Sans CJK KR" font-size="13" font-weight="300" letter-spacing="-0.6066666" fill="#000000">
                    <tspan x="82.2789995" y="52">갑자기 프린트가 고장났어요.</tspan>
                    <tspan x="80.4264995" y="71">수리접수한지 2일이 지났는데</tspan>
                    <tspan x="89.2773329" y="90">아직도 처리가 안돼요ㅜㅜ</tspan>
                </text>
                <text id="수리비용-견적이-생각보다-너무-비싸요" font-family="NotoSansCJKkr-Light, Noto Sans CJK KR" font-size="13" font-weight="300" letter-spacing="-0.6066666" fill="#000000">
                    <tspan x="622.292999" y="124">수리비용 견적이 생각보다 너무 비싸요.</tspan>
                    <tspan x="657.674666" y="143">확인 할 방법도 없고 ㅠㅠ</tspan>
                    <tspan x="654.277333" y="162">검증되고 객관화된 업체를 </tspan>
                    <tspan x="653.558" y="181">어떻게 찾을수 있을까요 ??</tspan>
                </text>
                <text id="다양한-종류의-프린트-중에서-나에게" font-family="NotoSansCJKkr-Light, Noto Sans CJK KR" font-size="13" font-weight="300" letter-spacing="-0.6066666" fill="#000000">
                    <tspan x="587.461" y="359">다양한 종류의 프린트 중에서</tspan>
                    <tspan x="587.461" y="378">나에게 맞는 프린트를 한번에 </tspan>
                    <tspan x="577.247333" y="397">비교해보고 렌탈/ 구매 할 수 있는</tspan>
                    <tspan x="621.172166" y="416">방법은 없나요?</tspan>
                </text>
                <text id="간단한-문제인-것-같은데-무조건-전화" font-family="NotoSansCJKkr-Light, Noto Sans CJK KR" font-size="13" font-weight="300" letter-spacing="-0.6066666" fill="#000000">
                    <tspan x="86.3143329" y="350">간단한 문제인 것 같은데</tspan>
                    <tspan x="94.270333" y="369">무조건 전화접수하고 </tspan>
                    <tspan x="94.088333" y="388">방문수리해야한데요. </tspan>
                    <tspan x="62.2859994" y="407">간단하게 고장문의를 하고 싶어요.</tspan>
                </text>
            </g>
        </g>
    </g>
</svg>