<?xml version="1.0" encoding="UTF-8"?>
<svg width="42px" height="45px" viewBox="0 0 42 45" version="1.1" xmlns="http://www.w3.org/2000/svg" xmlns:xlink="http://www.w3.org/1999/xlink">
    <!-- Generator: Sketch 52.6 (67491) - http://www.bohemiancoding.com/sketch -->
    <title>Group 6</title>
    <desc>Created with Sketch.</desc>
    <defs>
        <polygon id="path-1" points="0.85884 1.20271795 18.69204 1.20271795 18.69204 23.3491179 0.85884 23.3491179"></polygon>
    </defs>
    <g id="Symbols" stroke="none" stroke-width="1" fill="none" fill-rule="evenodd">
        <g id="shopping-ico-w" transform="translate(0.000000, -1.000000)">
            <g id="Group-6">
                <path d="M2.4,43.3867846 L38.7504,43.3867846 L38.7504,24.2095795 C38.7504,18.4888359 34.116,13.8346308 28.4196,13.8346308 L12.7308,13.8346308 C7.0344,13.8346308 2.4,18.4888359 2.4,24.2095795 L2.4,43.3867846 Z M39.9504,45.797041 L1.2,45.797041 C0.5376,45.797041 0,45.2583487 0,44.5919128 L0,24.2095795 C0,17.1595795 5.7108,11.4243744 12.7308,11.4243744 L28.4196,11.4243744 C35.4396,11.4243744 41.1504,17.1595795 41.1504,24.2095795 L41.1504,44.5919128 C41.1504,45.2583487 40.614,45.797041 39.9504,45.797041 Z" id="Fill-1" fill="#FFFFFF"></path>
                <g id="Group-5" transform="translate(10.800000, 0.002410)">
                    <mask id="mask-2" fill="white">
                        <use xlink:href="#path-1"></use>
                    </mask>
                    <g id="Clip-4"></g>
                    <path d="M17.49204,23.3491179 C16.82964,23.3491179 16.29204,22.8104256 16.29204,22.1439897 L16.29204,10.1577846 C16.29204,6.54963077 13.36884,3.61273333 9.77484,3.61273333 C6.18204,3.61273333 3.25884,6.54963077 3.25884,10.1577846 L3.25884,22.1439897 C3.25884,22.8104256 2.72124,23.3491179 2.05884,23.3491179 C1.39644,23.3491179 0.85884,22.8104256 0.85884,22.1439897 L0.85884,10.1577846 C0.85884,5.21916923 4.85844,1.20247692 9.77484,1.20247692 C14.69244,1.20247692 18.69204,5.21916923 18.69204,10.1577846 L18.69204,22.1439897 C18.69204,22.8104256 18.15444,23.3491179 17.49204,23.3491179" id="Fill-3" fill="#FFFFFF" mask="url(#mask-2)"></path>
                </g>
            </g>
        </g>
    </g>
</svg>