<?xml version="1.0" encoding="utf-8"?>
<!-- Generator: Adobe Illustrator 25.2.0, SVG Export Plug-In . SVG Version: 6.00 Build 0)  -->
<svg version="1.2" baseProfile="tiny" id="Layer_1" xmlns="http://www.w3.org/2000/svg" xmlns:xlink="http://www.w3.org/1999/xlink"
	 x="0px" y="0px" width="1475.8px" height="392.9px" viewBox="0 0 1475.8 392.9" overflow="visible" xml:space="preserve">
<g>
	<g>
		<polygon fill="none" points="341.6,154.7 366.6,245.4 391.5,154.7 366.6,64 		"/>
		<polygon fill="none" points="276.8,154.7 301.8,245.4 326.7,154.7 301.8,64 		"/>
		<polygon fill="none" points="212,154.7 236.9,245.4 261.9,154.7 236.9,64 		"/>
		<polygon fill="none" points="406.5,154.7 431.4,245.4 456.3,154.7 431.4,64 		"/>
		<polygon fill="none" points="17.6,154.7 42.5,245.4 67.4,154.7 42.5,64 		"/>
		<polygon fill="none" points="471.3,154.7 496.2,245.4 521.1,154.7 496.2,64 		"/>
		<polygon fill="none" points="147.2,154.7 172.1,245.4 197,154.7 172.1,64 		"/>
		<polygon fill="none" points="82.4,154.7 107.3,245.4 132.2,154.7 107.3,64 		"/>
		<polygon fill="none" points="825.6,274.3 852.7,373.1 879.8,274.3 852.7,175.6 		"/>
		<polygon fill="none" points="501.5,274.3 528.6,373.1 555.7,274.3 528.6,175.6 		"/>
		<polygon fill="none" points="436.7,274.3 463.8,373.1 490.9,274.3 463.8,175.6 		"/>
		<polygon fill="none" points="371.9,274.3 399,373.1 426.1,274.3 399,175.6 		"/>
		<polygon fill="none" points="695.9,274.3 723.1,373.1 750.2,274.3 723.1,175.6 		"/>
		<polygon fill="none" points="631.1,274.3 658.2,373.1 685.4,274.3 658.2,175.6 		"/>
		<polygon fill="none" points="566.3,274.3 593.4,373.1 620.5,274.3 593.4,175.6 		"/>
		<polygon fill="none" points="112.6,274.3 139.7,373.1 166.8,274.3 139.7,175.6 		"/>
		<polygon fill="none" points="47.8,274.3 74.9,373.1 102,274.3 74.9,175.6 		"/>
		<polygon fill="none" points="242.2,274.3 269.3,373.1 296.5,274.3 269.3,175.6 		"/>
		<polygon fill="none" points="307,274.3 334.2,373.1 361.3,274.3 334.2,175.6 		"/>
		<polygon fill="none" points="177.4,274.3 204.5,373.1 231.7,274.3 204.5,175.6 		"/>
		<polygon fill="none" points="1344.1,274.3 1371.2,373.1 1398.3,274.3 1371.2,175.6 		"/>
		<polygon fill="none" points="1279.3,274.3 1306.4,373.1 1333.5,274.3 1306.4,175.6 		"/>
		<polygon fill="none" points="1378.7,154.7 1403.6,245.4 1428.5,154.7 1403.6,64 		"/>
		<polygon fill="none" points="1408.9,274.3 1436,373.1 1463.1,274.3 1436,175.6 		"/>
		<polygon fill="none" points="1214.5,274.3 1241.6,373.1 1268.7,274.3 1241.6,175.6 		"/>
		<polygon fill="none" points="1084.8,274.3 1111.9,373.1 1139.1,274.3 1111.9,175.6 		"/>
		<polygon fill="none" points="1149.6,274.3 1176.8,373.1 1203.9,274.3 1176.8,175.6 		"/>
		<polygon fill="none" points="536.1,154.7 561,245.4 585.9,154.7 561,64 		"/>
		<polygon fill="none" points="890.4,274.3 917.5,373.1 944.6,274.3 917.5,175.6 		"/>
		<polygon fill="none" points="760.7,274.3 787.9,373.1 815,274.3 787.9,175.6 		"/>
		<polygon fill="none" points="1020,274.3 1047.1,373.1 1074.2,274.3 1047.1,175.6 		"/>
		<polygon fill="none" points="955.2,274.3 982.3,373.1 1009.4,274.3 982.3,175.6 		"/>
		<polygon fill="none" points="665.7,154.7 690.6,245.4 715.6,154.7 690.6,64 		"/>
		<polygon fill="none" points="730.5,154.7 755.5,245.4 780.4,154.7 755.5,64 		"/>
		<polygon fill="none" points="1249.1,154.7 1274,245.4 1298.9,154.7 1274,64 		"/>
		<polygon fill="none" points="795.4,154.7 820.3,245.4 845.2,154.7 820.3,64 		"/>
		<polygon fill="none" points="1119.4,154.7 1144.3,245.4 1169.3,154.7 1144.3,64 		"/>
		<polygon fill="none" points="1054.6,154.7 1079.5,245.4 1104.5,154.7 1079.5,64 		"/>
		<polygon fill="none" points="1313.9,154.7 1338.8,245.4 1363.7,154.7 1338.8,64 		"/>
		<polygon fill="none" points="860.2,154.7 885.1,245.4 910,154.7 885.1,64 		"/>
		<polygon fill="none" points="600.9,154.7 625.8,245.4 650.8,154.7 625.8,64 		"/>
		<polygon fill="none" points="1184.2,154.7 1209.2,245.4 1234.1,154.7 1209.2,64 		"/>
		<polygon fill="none" points="925,154.7 949.9,245.4 974.8,154.7 949.9,64 		"/>
		<polygon fill="none" points="989.8,154.7 1014.7,245.4 1039.6,154.7 1014.7,64 		"/>
		<polygon points="17.6,154.7 2.6,154.7 0,164.2 0,212.3 10.1,175.6 37.2,274.3 10.1,373.1 0,336.3 0,384.5 2.3,392.9 17.9,392.9
			42.5,303.2 42.5,245.4 		"/>
		<polygon points="42.5,64 42.5,6.2 40.8,0 27.6,0 37.2,35.1 10.1,133.8 0,97.1 0,145.3 2.6,154.7 17.6,154.7 		"/>
		<path d="M82.4,154.7h-15l-24.9,90.7v57.8l24.6,89.7h15.5l24.6-89.7v-57.8L82.4,154.7z M74.9,373.1l-27.1-98.7l27.1-98.7l27.1,98.7
			L74.9,373.1z"/>
		<polygon points="67.4,154.7 82.4,154.7 107.3,64 107.3,6.2 105.6,0 92.4,0 102,35.1 74.9,133.8 47.8,35.1 57.4,0 44.2,0 42.5,6.2
			42.5,64 		"/>
		<path d="M147.2,154.7h-15l-24.9,90.7v57.8l24.6,89.7h15.5l24.6-89.7v-57.8L147.2,154.7z M139.7,373.1l-27.1-98.7l27.1-98.7
			l27.1,98.7L139.7,373.1z"/>
		<polygon points="132.2,154.7 147.2,154.7 172.1,64 172.1,6.2 170.4,0 157.2,0 166.8,35.1 139.7,133.8 112.6,35.1 122.2,0 109,0
			107.3,6.2 107.3,64 		"/>
		<path d="M212,154.7h-15l-24.9,90.7v57.8l24.6,89.7h15.5l24.6-89.7v-57.8L212,154.7z M204.5,373.1l-27.1-98.7l27.1-98.7l27.1,98.7
			L204.5,373.1z"/>
		<polygon points="197,154.7 212,154.7 236.9,64 236.9,6.2 235.2,0 222,0 231.7,35.1 204.5,133.8 177.4,35.1 187.1,0 173.8,0
			172.1,6.2 172.1,64 		"/>
		<path d="M276.8,154.7h-15l-24.9,90.7v57.8l24.6,89.7h15.5l24.6-89.7v-57.8L276.8,154.7z M269.3,373.1l-27.1-98.7l27.1-98.7
			l27.1,98.7L269.3,373.1z"/>
		<polygon points="261.9,154.7 276.8,154.7 301.8,64 301.8,6.2 300,0 286.8,0 296.5,35.1 269.3,133.8 242.2,35.1 251.9,0 238.6,0
			236.9,6.2 236.9,64 		"/>
		<path d="M341.6,154.7h-15l-24.9,90.7v57.8l24.6,89.7h15.5l24.6-89.7v-57.8L341.6,154.7z M334.2,373.1L307,274.3l27.1-98.7
			l27.1,98.7L334.2,373.1z"/>
		<polygon points="326.7,154.7 341.6,154.7 366.6,64 366.6,6.2 364.9,0 351.6,0 361.3,35.1 334.2,133.8 307,35.1 316.7,0 303.5,0
			301.8,6.2 301.8,64 		"/>
		<path d="M406.5,154.7h-15l-24.9,90.7v57.8l24.6,89.7h15.5l24.6-89.7v-57.8L406.5,154.7z M399,373.1l-27.1-98.7l27.1-98.7
			l27.1,98.7L399,373.1z"/>
		<polygon points="391.5,154.7 406.5,154.7 431.4,64 431.4,6.2 429.7,0 416.4,0 426.1,35.1 399,133.8 371.9,35.1 381.5,0 368.3,0
			366.6,6.2 366.6,64 		"/>
		<path d="M471.3,154.7h-15l-24.9,90.7v57.8l24.6,89.7h15.5l24.6-89.7v-57.8L471.3,154.7z M463.8,373.1l-27.1-98.7l27.1-98.7
			l27.1,98.7L463.8,373.1z"/>
		<polygon points="456.3,154.7 471.3,154.7 496.2,64 496.2,6.2 494.5,0 481.3,0 490.9,35.1 463.8,133.8 436.7,35.1 446.3,0 433.1,0
			431.4,6.2 431.4,64 		"/>
		<path d="M536.1,154.7h-15l-24.9,90.7v57.8l24.6,89.7h15.5l24.6-89.7v-57.8L536.1,154.7z M528.6,373.1l-27.1-98.7l27.1-98.7
			l27.1,98.7L528.6,373.1z"/>
		<polygon points="521.1,154.7 536.1,154.7 561,64 561,6.2 559.3,0 546.1,0 555.7,35.1 528.6,133.8 501.5,35.1 511.1,0 497.9,0
			496.2,6.2 496.2,64 		"/>
		<path d="M600.9,154.7h-15L561,245.4v57.8l24.6,89.7h15.5l24.6-89.7v-57.8L600.9,154.7z M593.4,373.1l-27.1-98.7l27.1-98.7
			l27.1,98.7L593.4,373.1z"/>
		<polygon points="585.9,154.7 600.9,154.7 625.8,64 625.8,6.2 624.1,0 610.9,0 620.5,35.1 593.4,133.8 566.3,35.1 576,0 562.7,0
			561,6.2 561,64 		"/>
		<path d="M665.7,154.7h-15l-24.9,90.7v57.8l24.6,89.7H666l24.6-89.7v-57.8L665.7,154.7z M658.2,373.1l-27.1-98.7l27.1-98.7
			l27.1,98.7L658.2,373.1z"/>
		<polygon points="650.8,154.7 665.7,154.7 690.6,64 690.6,6.2 688.9,0 675.7,0 685.4,35.1 658.2,133.8 631.1,35.1 640.8,0 627.5,0
			625.8,6.2 625.8,64 		"/>
		<path d="M730.5,154.7h-15l-24.9,90.7v57.8l24.6,89.7h15.5l24.6-89.7v-57.8L730.5,154.7z M723.1,373.1l-27.1-98.7l27.1-98.7
			l27.1,98.7L723.1,373.1z"/>
		<polygon points="715.6,154.7 730.5,154.7 755.5,64 755.5,6.2 753.7,0 740.5,0 750.2,35.1 723.1,133.8 695.9,35.1 705.6,0 692.4,0
			690.6,6.2 690.6,64 		"/>
		<path d="M795.4,154.7h-15l-24.9,90.7v57.8l24.6,89.7h15.5l24.6-89.7v-57.8L795.4,154.7z M787.9,373.1l-27.1-98.7l27.1-98.7
			l27.1,98.7L787.9,373.1z"/>
		<polygon points="780.4,154.7 795.4,154.7 820.3,64 820.3,6.2 818.6,0 805.3,0 815,35.1 787.9,133.8 760.7,35.1 770.4,0 757.2,0
			755.5,6.2 755.5,64 		"/>
		<path d="M860.2,154.7h-15l-24.9,90.7v57.8l24.6,89.7h15.5l24.6-89.7v-57.8L860.2,154.7z M852.7,373.1l-27.1-98.7l27.1-98.7
			l27.1,98.7L852.7,373.1z"/>
		<polygon points="845.2,154.7 860.2,154.7 885.1,64 885.1,6.2 883.4,0 870.2,0 879.8,35.1 852.7,133.8 825.6,35.1 835.2,0 822,0
			820.3,6.2 820.3,64 		"/>
		<path d="M925,154.7h-15l-24.9,90.7v57.8l24.6,89.7h15.5l24.6-89.7v-57.8L925,154.7z M917.5,373.1l-27.1-98.7l27.1-98.7l27.1,98.7
			L917.5,373.1z"/>
		<polygon points="910,154.7 925,154.7 949.9,64 949.9,6.2 948.2,0 935,0 944.6,35.1 917.5,133.8 890.4,35.1 900,0 886.8,0
			885.1,6.2 885.1,64 		"/>
		<path d="M989.8,154.7h-15l-24.9,90.7v57.8l24.6,89.7h15.5l24.6-89.7v-57.8L989.8,154.7z M982.3,373.1l-27.1-98.7l27.1-98.7
			l27.1,98.7L982.3,373.1z"/>
		<polygon points="974.8,154.7 989.8,154.7 1014.7,64 1014.7,6.2 1013,0 999.8,0 1009.4,35.1 982.3,133.8 955.2,35.1 964.8,0
			951.6,0 949.9,6.2 949.9,64 		"/>
		<path d="M1054.6,154.7h-15l-24.9,90.7v57.8l24.6,89.7h15.5l24.6-89.7v-57.8L1054.6,154.7z M1047.1,373.1l-27.1-98.7l27.1-98.7
			l27.1,98.7L1047.1,373.1z"/>
		<polygon points="1039.6,154.7 1054.6,154.7 1079.5,64 1079.5,6.2 1077.8,0 1064.6,0 1074.2,35.1 1047.1,133.8 1020,35.1 1029.7,0
			1016.4,0 1014.7,6.2 1014.7,64 		"/>
		<path d="M1119.4,154.7h-15l-24.9,90.7v57.8l24.6,89.7h15.5l24.6-89.7v-57.8L1119.4,154.7z M1111.9,373.1l-27.1-98.7l27.1-98.7
			l27.1,98.7L1111.9,373.1z"/>
		<polygon points="1104.5,154.7 1119.4,154.7 1144.3,64 1144.3,6.2 1142.6,0 1129.4,0 1139.1,35.1 1111.9,133.8 1084.8,35.1
			1094.5,0 1081.2,0 1079.5,6.2 1079.5,64 		"/>
		<path d="M1184.2,154.7h-15l-24.9,90.7v57.8l24.6,89.7h15.5l24.6-89.7v-57.8L1184.2,154.7z M1176.8,373.1l-27.1-98.7l27.1-98.7
			l27.1,98.7L1176.8,373.1z"/>
		<polygon points="1169.3,154.7 1184.2,154.7 1209.2,64 1209.2,6.2 1207.5,0 1194.2,0 1203.9,35.1 1176.8,133.8 1149.6,35.1
			1159.3,0 1146.1,0 1144.3,6.2 1144.3,64 		"/>
		<path d="M1249.1,154.7h-15l-24.9,90.7v57.8l24.6,89.7h15.5l24.6-89.7v-57.8L1249.1,154.7z M1241.6,373.1l-27.1-98.7l27.1-98.7
			l27.1,98.7L1241.6,373.1z"/>
		<polygon points="1234.1,154.7 1249.1,154.7 1274,64 1274,6.2 1272.3,0 1259,0 1268.7,35.1 1241.6,133.8 1214.5,35.1 1224.1,0
			1210.9,0 1209.2,6.2 1209.2,64 		"/>
		<path d="M1313.9,154.7h-15l-24.9,90.7v57.8l24.6,89.7h15.5l24.6-89.7v-57.8L1313.9,154.7z M1306.4,373.1l-27.1-98.7l27.1-98.7
			l27.1,98.7L1306.4,373.1z"/>
		<polygon points="1298.9,154.7 1313.9,154.7 1338.8,64 1338.8,6.2 1337.1,0 1323.9,0 1333.5,35.1 1306.4,133.8 1279.3,35.1
			1288.9,0 1275.7,0 1274,6.2 1274,64 		"/>
		<path d="M1378.7,154.7h-15l-24.9,90.7v57.8l24.6,89.7h15.5l24.6-89.7v-57.8L1378.7,154.7z M1371.2,373.1l-27.1-98.7l27.1-98.7
			l27.1,98.7L1371.2,373.1z"/>
		<polygon points="1363.7,154.7 1378.7,154.7 1403.6,64 1403.6,6.2 1401.9,0 1388.7,0 1398.3,35.1 1371.2,133.8 1344.1,35.1
			1353.7,0 1340.5,0 1338.8,6.2 1338.8,64 		"/>
		<path d="M1443.5,154.7h-15l-24.9,90.7v57.8l24.6,89.7h15.5l24.6-89.7v-57.8L1443.5,154.7z M1436,373.1l-27.1-98.7l27.1-98.7
			l27.1,98.7L1436,373.1z"/>
		<polygon points="1428.5,154.7 1443.5,154.7 1468.4,64 1468.4,6.2 1466.7,0 1453.5,0 1463.1,35.1 1436,133.8 1408.9,35.1 1418.5,0
			1405.3,0 1403.6,6.2 1403.6,64 		"/>
		<polygon points="1475.8,282 1473.7,274.3 1475.8,266.7 1475.8,218.5 1468.4,245.4 1468.4,303.2 1475.8,330.2 		"/>
		<polygon points="1475.8,90.9 1475.8,42.8 1473.7,35.1 1475.8,27.5 1475.8,0 1470.1,0 1468.4,6.2 1468.4,64 		"/>
	</g>
</g>
</svg>
