<svg width="42" height="42" viewBox="0 0 42 42" fill="none" xmlns="http://www.w3.org/2000/svg">
<g id="apple">
<path id="Fill 1" d="M28.053 4.73191L27.5563 4.67437L27.5563 4.67439L28.053 4.73191ZM26.6251 3.54912L26.7704 4.02755L26.7705 4.02752L26.6251 3.54912ZM22.9305 5.93199L23.3087 6.25909L23.3106 6.25682L22.9305 5.93199ZM21.0724 10.0414L20.5753 9.9876L20.5753 9.98766L21.0724 10.0414ZM22.4018 11.2348L22.3044 10.7443L22.3043 10.7444L22.4018 11.2348ZM26.2493 8.8531L25.8638 8.53465L25.8637 8.53476L26.2493 8.8531ZM34.5032 28.438L34.7552 28.0062L34.7552 28.0062L34.5032 28.438ZM34.9796 29.7889L34.5123 29.6111L34.5122 29.6112L34.9796 29.7889ZM32.8961 33.7943L32.4835 33.5119L32.4835 33.512L32.8961 33.7943ZM27.5649 38.0732L27.5557 37.5733L27.5557 37.5733L27.5649 38.0732ZM16.1116 38.1163L16.1304 38.6159L16.1312 38.6159L16.1116 38.1163ZM10.6128 33.7083L10.2016 33.9928L10.2018 33.993L10.6128 33.7083ZM8.40554 16.1619L7.97229 15.9123L7.97226 15.9123L8.40554 16.1619ZM15.6117 11.7969L15.6189 12.2969L15.6212 12.2968L15.6117 11.7969ZM28.0262 11.7136L27.9757 12.2111L27.9905 12.2125L28.0053 12.2132L28.0262 11.7136ZM33.6146 14.1968L33.2512 14.5402L33.2512 14.5403L33.6146 14.1968ZM33.5143 15.8021L33.8335 16.187L33.8336 16.1869L33.5143 15.8021ZM30.6321 21.7946L30.1321 21.7991L30.1321 21.7993L30.6321 21.7946ZM28.5496 4.78945C28.6836 3.63308 27.582 2.73582 26.4798 3.07071L26.7705 4.02752C27.1951 3.89851 27.606 4.24541 27.5563 4.67437L28.5496 4.78945ZM26.4799 3.07069C25.0226 3.51318 23.5434 4.44527 22.5504 5.60716L23.3106 6.25682C24.1716 5.2494 25.4837 4.41826 26.7704 4.02755L26.4799 3.07069ZM22.5524 5.6049C21.6134 6.69047 20.7587 8.29385 20.5753 9.9876L21.5695 10.0953C21.7265 8.64493 22.4727 7.22563 23.3087 6.25908L22.5524 5.6049ZM20.5753 9.98766C20.457 11.081 21.4489 11.9341 22.4994 11.7251L22.3043 10.7444C21.8877 10.8272 21.5269 10.4888 21.5695 10.0952L20.5753 9.98766ZM22.4993 11.7252C24.1251 11.4021 25.6315 10.3867 26.6349 9.17143L25.8637 8.53476C24.9832 9.60131 23.67 10.473 22.3044 10.7443L22.4993 11.7252ZM26.6348 9.17154C27.6167 7.98291 28.3592 6.43349 28.5496 4.78944L27.5563 4.67439C27.3909 6.1022 26.7395 7.47465 25.8638 8.53465L26.6348 9.17154ZM34.2512 28.8699C34.508 29.0197 34.6184 29.3321 34.5123 29.6111L35.4469 29.9666C35.7265 29.2316 35.4353 28.4031 34.7552 28.0062L34.2512 28.8699ZM34.5122 29.6112C34.1637 30.5277 33.5137 32.0062 32.4835 33.5119L33.3088 34.0766C34.3973 32.4857 35.0805 30.9302 35.447 29.9666L34.5122 29.6112ZM32.4835 33.512C31.753 34.5796 31.0428 35.5922 30.2347 36.3477C29.4365 37.094 28.5792 37.5545 27.5557 37.5733L27.5741 38.5731C28.9239 38.5483 30.0064 37.9301 30.9176 37.0782C31.8189 36.2355 32.5878 35.1304 33.3088 34.0766L32.4835 33.512ZM27.5557 37.5733C26.5087 37.5926 25.8274 37.2903 25.0148 36.939C24.1873 36.5813 23.2559 36.1905 21.8172 36.1905V37.1905C23.0445 37.1905 23.8212 37.5125 24.618 37.857C25.4298 38.2079 26.2893 38.5969 27.5741 38.5731L27.5557 37.5733ZM21.8172 36.1905C20.3856 36.1905 19.4381 36.5551 18.598 36.9103C17.766 37.2621 17.0895 37.5775 16.0919 37.6167L16.1312 38.6159C17.341 38.5684 18.1847 38.1708 18.9875 37.8314C19.7821 37.4954 20.5837 37.1905 21.8172 37.1905V36.1905ZM16.0927 37.6167C15.1385 37.6527 14.2543 37.179 13.394 36.3727C12.5328 35.5656 11.7585 34.4847 11.0239 33.4237L10.2018 33.993C10.9307 35.0458 11.7605 36.2122 12.7101 37.1023C13.6606 37.9931 14.7939 38.6665 16.1304 38.6159L16.0927 37.6167ZM11.0241 33.4239C9.57001 31.3218 8.27843 28.3347 7.72925 25.225C7.17937 22.1113 7.38385 18.9377 8.83882 16.4114L7.97226 15.9123C6.35836 18.7146 6.17116 22.1524 6.74448 25.3989C7.31851 28.6493 8.66501 31.7712 10.2016 33.9928L11.0241 33.4239ZM8.83879 16.4115C10.2812 13.9077 12.8495 12.3371 15.6189 12.2968L15.6044 11.297C12.4596 11.3427 9.57889 13.1235 7.97229 15.9123L8.83879 16.4115ZM15.6212 12.2968C16.6379 12.2774 17.6493 12.6202 18.6318 13.0033C19.1084 13.1892 19.5952 13.3912 20.0368 13.5412C20.4779 13.691 20.9315 13.8102 21.3595 13.8102V12.8102C21.0998 12.8102 20.7724 12.7349 20.3584 12.5943C19.9448 12.4538 19.5023 12.2695 18.9951 12.0717C18.0098 11.6874 16.8349 11.2735 15.6021 11.297L15.6212 12.2968ZM21.3595 13.8102C21.7973 13.8102 22.2878 13.665 22.7682 13.4928C23.2385 13.3242 23.8258 13.0799 24.3666 12.877C25.5105 12.448 26.7414 12.086 27.9757 12.2111L28.0766 11.2161C26.5986 11.0664 25.1833 11.5027 24.0154 11.9407C23.4004 12.1714 22.9155 12.3777 22.4308 12.5514C21.9561 12.7216 21.6088 12.8102 21.3595 12.8102V13.8102ZM28.0053 12.2132C28.9523 12.2526 31.3814 12.5615 33.2512 14.5402L33.978 13.8534C31.845 11.5961 29.0985 11.2579 28.047 11.214L28.0053 12.2132ZM33.2512 14.5403C33.4875 14.7903 33.4636 15.1945 33.1951 15.4173L33.8336 16.1869C34.5429 15.5984 34.6145 14.5269 33.978 13.8534L33.2512 14.5403ZM33.1951 15.4172C32.0162 16.395 30.1024 18.4902 30.1321 21.7991L31.1321 21.7901C31.1062 18.909 32.7663 17.0721 33.8335 16.187L33.1951 15.4172ZM30.1321 21.7993C30.1707 25.9471 32.8528 28.0539 34.2512 28.8699L34.7552 28.0062C33.4996 27.2736 31.166 25.4319 31.1321 21.79L30.1321 21.7993Z" fill="#88B2C4"/>
</g>
</svg>
