<svg width="42" height="42" viewBox="0 0 42 42" fill="none" xmlns="http://www.w3.org/2000/svg">
<g id="chat">
<path id="Combined Shape" d="M15.4416 32.5291L15.571 32.0461C15.4529 32.0145 15.3274 32.0272 15.218 32.0818L15.4416 32.5291ZM6.9998 36.75L6.50482 36.6793C6.47852 36.8634 6.55657 37.0469 6.70744 37.1556C6.85831 37.2643 7.05706 37.2804 7.2234 37.1972L6.9998 36.75ZM8.14297 28.7478L8.63794 28.8185C8.66199 28.6501 8.59883 28.4811 8.47028 28.3698L8.14297 28.7478ZM21 33.75C30.8312 33.75 39 27.3565 39 19.25H38C38 26.6075 30.4987 32.75 21 32.75V33.75ZM15.3123 33.012C17.1011 33.491 19.0136 33.75 21 33.75V32.75C19.1004 32.75 17.2748 32.5023 15.571 32.0461L15.3123 33.012ZM7.2234 37.1972L15.6653 32.9763L15.218 32.0818L6.77619 36.3028L7.2234 37.1972ZM7.64799 28.6771L6.50482 36.6793L7.49477 36.8207L8.63794 28.8185L7.64799 28.6771ZM3 19.25C3 23.0848 4.84364 26.5522 7.81566 29.1258L8.47028 28.3698C5.67823 25.9521 4 22.7463 4 19.25H3ZM21 4.75C11.1688 4.75 3 11.1435 3 19.25H4C4 11.8925 11.5013 5.75 21 5.75V4.75ZM39 19.25C39 11.1435 30.8312 4.75 21 4.75V5.75C30.4987 5.75 38 11.8925 38 19.25H39Z" fill="#88B2C4"/>
</g>
</svg>
