<svg width="60" height="60" viewBox="0 0 60 60" fill="none" xmlns="http://www.w3.org/2000/svg">
<path d="M54.8012 29.9999C54.8012 43.6966 43.6978 54.7999 30.0012 54.7999C16.3045 54.7999 5.20117 43.6966 5.20117 29.9999C5.20117 16.3033 16.3045 5.19995 30.0012 5.19995C43.6978 5.19995 54.8012 16.3033 54.8012 29.9999Z" fill="white"/>
<path fill-rule="evenodd" clip-rule="evenodd" d="M30.0012 54.3999C43.4769 54.3999 54.4012 43.4757 54.4012 29.9999C54.4012 16.5242 43.4769 5.59995 30.0012 5.59995C16.5254 5.59995 5.60117 16.5242 5.60117 29.9999C5.60117 43.4757 16.5254 54.3999 30.0012 54.3999ZM30.0012 54.7999C43.6978 54.7999 54.8012 43.6966 54.8012 29.9999C54.8012 16.3033 43.6978 5.19995 30.0012 5.19995C16.3045 5.19995 5.20117 16.3033 5.20117 29.9999C5.20117 43.6966 16.3045 54.7999 30.0012 54.7999Z" fill="black"/>
<path fill-rule="evenodd" clip-rule="evenodd" d="M12.6012 32.16C12.6012 41.2291 20.3807 48.6 30.0012 48.6C39.6216 48.6 47.4012 41.2291 47.4012 32.16H47.8012C47.8012 41.4709 39.8211 49 30.0012 49C20.1812 49 12.2012 41.4709 12.2012 32.16H12.6012Z" fill="black"/>
<path fill-rule="evenodd" clip-rule="evenodd" d="M31.7992 29.5999C31.7992 28.6058 30.9933 27.7999 29.9992 27.7999C29.0051 27.7999 28.1992 28.6058 28.1992 29.5999L27.7992 29.5999C27.7992 28.3849 28.7842 27.3999 29.9992 27.3999C31.2142 27.3999 32.1992 28.3849 32.1992 29.5999L31.7992 29.5999Z" fill="black"/>
<path d="M26.0008 25.6C26.0008 26.4837 25.2844 27.2 24.4008 27.2C23.5171 27.2 22.8008 26.4837 22.8008 25.6C22.8008 24.7163 23.5171 24 24.4008 24C25.2844 24 26.0008 24.7163 26.0008 25.6Z" fill="black"/>
<path d="M37.2 25.5998C37.2 26.4834 36.4837 27.1998 35.6 27.1998C34.7163 27.1998 34 26.4834 34 25.5998C34 24.7161 34.7163 23.9998 35.6 23.9998C36.4837 23.9998 37.2 24.7161 37.2 25.5998Z" fill="black"/>
</svg>
