<svg width="1054" height="739" viewBox="0 0 1054 739" fill="none" xmlns="http://www.w3.org/2000/svg">
<path d="M112.999 720.135V722.055L0.999218 674.215L0.199219 672.455L112.999 632.135V645.735L77.7992 658.215V704.935L112.999 720.135ZM18.2792 679.175L76.1992 704.295V658.695L18.2792 679.175Z" fill="#88B2C4"/>
<path d="M51.3992 520.365C44.8926 520.365 40.3059 521.219 37.6392 522.925C34.9726 524.632 33.6392 527.885 33.6392 532.685C33.6392 539.085 36.3059 544.792 41.6392 549.805C46.9726 554.712 51.7726 557.165 56.0392 557.165H112.999V568.365H51.3992C44.8926 568.365 40.3059 569.219 37.6392 570.925C34.9726 572.632 33.6392 576.259 33.6392 581.805C33.6392 587.352 36.1992 592.632 41.3192 597.645C46.4392 602.552 51.1859 605.219 55.5592 605.645H112.999V616.845H32.9992V605.645H51.0792C46.4926 603.939 42.2259 600.792 38.2792 596.205C34.3326 591.619 32.3592 586.499 32.3592 580.845C32.3592 575.192 32.8926 570.712 33.9592 567.405C34.9192 563.992 36.4659 561.592 38.5992 560.205C40.7326 558.819 42.5992 557.965 44.1992 557.645C45.7992 557.325 48.0392 557.165 50.9192 557.165C46.3326 555.459 42.1192 552.365 38.2792 547.885C34.3326 543.405 32.3592 538.605 32.3592 533.485C32.3592 528.365 32.7859 524.259 33.6392 521.165C34.4926 518.072 35.4526 515.779 36.5192 514.285C37.5859 512.685 39.1326 511.512 41.1592 510.765C43.1859 509.912 44.8392 509.432 46.1192 509.325C47.3992 509.219 49.2126 509.165 51.5592 509.165H101.639C104.733 509.165 107.133 508.579 108.839 507.405C110.439 506.125 111.293 504.845 111.399 503.565L111.719 501.805V496.845H112.999V506.605C112.999 510.979 112.039 514.339 110.119 516.685C108.199 518.925 106.279 520.099 104.359 520.205L101.639 520.365H51.3992Z" fill="#88B2C4"/>
<path d="M124.093 420.883C122.87 428.032 120.667 432.688 117.484 434.849C114.758 436.871 112.553 437.739 110.871 437.451L107.559 436.885C116.035 443.637 119.303 452.69 117.361 464.046C115.095 477.293 107.817 483.786 95.5249 483.523C94.2273 483.518 92.9476 483.407 91.6859 483.192C90.3191 482.958 88.8831 482.496 87.3779 481.806C85.8727 481.115 84.3447 479.609 82.7938 477.288C79.692 472.646 78.8803 463.471 80.3587 449.764C80.6187 446.345 80.9914 443.217 81.4769 440.378C81.9624 437.539 82.508 434.981 83.1139 432.704L56.934 428.227C56.7929 428.419 56.3197 428.338 55.5146 427.984C54.6043 427.612 53.4118 427.625 51.9371 428.022C50.3752 428.296 48.8299 428.789 47.3013 429.501C45.7726 430.214 44.3284 431.698 42.9686 433.955C41.5036 436.193 40.4385 439.257 39.7732 443.148C39.1079 447.038 39.0617 451.737 39.6347 457.246C40.1204 462.632 40.8399 466.65 41.7932 469.302L40.5814 469.744C37.8709 459.65 37.3428 449.766 38.997 440.093C40.849 429.264 44.0168 422.447 48.5004 419.642C52.0169 417.43 55.4575 416.612 58.8219 417.187L111.655 426.222C114.704 426.744 117.169 426.57 119.049 425.701C120.841 424.709 121.898 423.592 122.219 422.348L122.831 420.667L123.667 415.778L124.929 415.994L124.093 420.883ZM116.531 461.306C117.484 455.734 116.445 450.416 113.415 445.353C110.298 440.167 106.979 437.11 103.459 436.183L84.3756 432.92C83.6798 435.723 83.0802 438.596 82.5767 441.54C82.0913 444.379 81.7635 447.245 81.5934 450.137C81.1732 458.29 82.0705 463.8 84.2854 466.668C86.5004 469.535 89.9209 471.365 94.5471 472.156C95.3882 472.3 96.3435 472.409 97.4129 472.484C108.72 473.443 115.092 469.718 116.531 461.306Z" fill="#88B2C4"/>
<path d="M57.1725 370.077L55.9792 369.614L76.0709 317.857L77.2641 318.32L131.969 391.389L145.808 355.741C148.471 348.879 148.084 343.981 144.647 341.045L145.442 340.323C145.84 340.478 146.401 341.096 147.125 342.178C147.75 343.222 148.187 344.307 148.436 345.433C149.101 348.437 148.622 352.027 147.001 356.204L129.11 402.293L127.916 401.83L73.211 328.761L57.1725 370.077Z" fill="#88B2C4"/>
<path d="M167.382 316.63C165.227 320.435 162.736 322.886 159.909 323.982C157.135 324.985 154.886 325.06 153.162 324.206L150.717 323.005L90.9883 289.183L96.5071 279.437L156.236 313.26C158.927 314.784 161.305 315.456 163.368 315.276C165.391 314.95 166.738 314.303 167.409 313.335L168.634 311.822L171.078 307.506L172.191 308.137L167.382 316.63ZM75.8679 279.517C74.1234 280 72.4157 279.769 70.745 278.823C69.0743 277.877 67.9974 276.532 67.5143 274.787C66.9384 272.99 67.1234 271.256 68.0695 269.585C69.0156 267.915 70.4073 266.864 72.2447 266.433C74.0418 265.857 75.7757 266.043 77.4464 266.989C79.1172 267.935 80.1678 269.326 80.5983 271.164C81.0814 272.908 80.8499 274.616 79.9038 276.287C78.9577 277.957 77.6124 279.034 75.8679 279.517Z" fill="#88B2C4"/>
<path d="M221.452 241.276C218.727 244.697 215.882 246.726 212.918 247.365C210.021 247.921 207.788 247.642 206.22 246.529L203.993 244.959L164.7 213.652C158.109 208.401 152.534 206.755 147.973 208.713C145.743 209.8 143.598 211.637 141.537 214.223C137.283 219.562 135.589 226.054 136.453 233.698C137.235 241.277 139.294 246.395 142.631 249.054L187.054 284.449L180.075 293.208L117.507 243.356L124.486 234.597L138.752 245.963C136.294 241.687 135.051 236.4 135.022 230.103C134.909 223.74 136.681 218.264 140.337 213.675C143.993 209.087 147.409 205.74 150.587 203.635C153.748 201.38 156.652 200.216 159.301 200.145C163.549 200.119 167.717 201.735 171.804 204.992L210.972 236.2C213.391 238.127 215.634 239.164 217.7 239.31C219.749 239.306 221.214 238.836 222.095 237.902L223.442 236.725L226.533 232.845L227.534 233.643L221.452 241.276Z" fill="#88B2C4"/>
<path d="M210.925 198.55C202.091 187.863 197.85 177.459 198.204 167.341C198.559 157.222 203.915 147.881 214.274 139.318C221.92 132.998 230.811 127.932 240.946 124.121L290.184 183.684C306.276 203.319 305.813 220.171 288.795 234.239C279.423 241.986 268.892 245.57 257.204 244.991L257.455 243.538C269.419 243.613 279.594 240.184 287.979 233.252C299.325 223.873 297.182 209.73 281.551 190.82L271.459 178.612C272.275 182.78 271.793 187.47 270.01 192.68C268.228 197.89 264.87 202.534 259.937 206.611C242.826 220.064 226.489 217.377 210.925 198.55ZM259.245 205.523C264.753 200.969 268.257 195.582 269.757 189.36C271.257 183.138 270.94 178.487 268.808 175.405L232.823 131.873C224.865 134.3 218.83 137.212 214.72 140.61C207.403 146.659 204.273 154.09 205.331 162.903C206.32 171.634 211.063 181.138 219.558 191.415C234.917 209.995 248.146 214.698 259.245 205.523Z" fill="#88B2C4"/>
<path d="M398.977 128.425C392.245 131.125 387.125 131.684 383.617 130.103C380.467 128.838 378.574 127.413 377.939 125.829L376.688 122.711C375.371 133.467 369.366 140.989 358.673 145.277C346.199 150.28 336.857 147.475 330.648 136.864C329.974 135.755 329.398 134.607 328.922 133.419C328.406 132.132 328.048 130.666 327.849 129.022C327.649 127.379 328.132 125.288 329.299 122.752C331.632 117.679 339.025 112.186 351.479 106.273C354.528 104.705 357.389 103.385 360.062 102.313C362.735 101.242 365.2 100.368 367.458 99.6924L357.572 75.0407C357.334 75.0211 357.156 74.5756 357.036 73.7042C356.877 72.7338 356.242 71.7241 355.132 70.6753C354.081 69.4878 352.852 68.4292 351.445 67.4994C350.038 66.5697 348.017 66.1159 345.382 66.138C342.708 66.0611 339.54 66.7572 335.877 68.2261C332.214 69.6951 328.185 72.1152 323.791 75.4863C319.456 78.7187 316.408 81.435 314.647 83.6352L313.636 82.8339C320.819 75.2413 328.965 69.6187 338.073 65.9662C348.271 61.8769 355.737 61.0087 360.473 63.3617C364.199 65.2005 366.697 67.704 367.967 70.872L387.917 120.621C389.069 123.492 390.506 125.501 392.231 126.649C394.014 127.657 395.52 127.973 396.748 127.595L398.5 127.237L403.104 125.391L403.58 126.579L398.977 128.425ZM360.573 143.136C365.82 141.032 369.808 137.364 372.537 132.133C375.325 126.762 376.193 122.335 375.14 118.849L367.934 100.88C365.182 101.754 362.419 102.747 359.647 103.859C356.974 104.931 354.361 106.151 351.807 107.52C344.64 111.429 340.414 115.077 339.13 118.465C337.845 121.853 338.076 125.725 339.823 130.082C340.141 130.874 340.547 131.745 341.044 132.695C346.143 142.832 352.653 146.312 360.573 143.136Z" fill="#88B2C4"/>
<path d="M484.503 110.985C480.192 111.722 476.718 111.342 474.082 109.845C471.55 108.33 470.07 106.635 469.641 104.761L469.025 102.106L460.56 52.5848C459.14 44.2787 456.077 39.3375 451.371 37.7613C448.983 37.0873 446.159 37.0289 442.9 37.5861C436.171 38.7365 430.584 42.451 426.138 48.7299C421.675 54.9037 419.802 60.0934 420.521 64.299L430.092 120.287L419.052 122.174L405.572 43.318L416.612 41.4307L419.685 59.4099C420.7 54.5833 423.293 49.8115 427.464 45.0944C431.618 40.2723 436.586 37.3669 442.369 36.3784C448.152 35.3898 452.929 35.1682 456.702 35.7137C460.561 36.136 463.503 37.2023 465.527 38.9124C468.713 41.7224 470.746 45.7034 471.627 50.8553L480.065 100.219C480.587 103.268 481.569 105.535 483.013 107.02C484.545 108.381 485.95 109.007 487.23 108.896L489.019 108.915L493.908 108.079L494.123 109.341L484.503 110.985Z" fill="#88B2C4"/>
<path d="M519.485 110.312C515.112 110.379 511.738 109.471 509.362 107.588C507.092 105.702 505.889 103.801 505.753 101.883L505.551 99.1653L504.492 30.5335L515.69 30.3606L516.75 98.9924C516.798 102.085 517.421 104.476 518.621 106.164C519.925 107.744 521.165 108.579 522.34 108.667L524.265 108.958L529.224 108.881L529.244 110.161L519.485 110.312ZM505.175 12.6008C503.875 11.3407 503.211 9.7508 503.181 7.83103C503.151 5.91126 503.767 4.30157 505.027 3.00196C506.285 1.5957 507.874 0.877749 509.794 0.848112C511.714 0.818474 513.324 1.48703 514.626 2.85377C516.032 4.11222 516.75 5.70132 516.779 7.6211C516.809 9.54087 516.14 11.1514 514.774 12.4526C513.514 13.7522 511.924 14.4169 510.004 14.4465C508.084 14.4761 506.475 13.8609 505.175 12.6008Z" fill="#88B2C4"/>
<path d="M653.261 65.0976C654.528 58.7156 654.585 54.0506 653.43 51.1025C652.276 48.1545 649.345 46.2129 644.637 45.2777C638.359 44.0308 632.242 45.5346 626.286 49.789C620.434 54.0643 617.093 58.2943 616.262 62.4792L605.165 118.348L594.179 116.166L606.18 55.7461C607.448 49.3641 607.505 44.6991 606.35 41.751C605.196 38.803 601.898 36.7886 596.458 35.708C591.018 34.6274 585.34 36.1097 579.425 40.1549C573.615 44.2208 570.075 48.357 568.804 52.5634L557.614 108.903L546.628 106.721L562.214 28.2537L573.199 30.4357L569.677 48.1693C572.245 44.003 576.162 40.4311 581.43 37.4537C586.698 34.4762 592.104 33.5382 597.649 34.6396C603.194 35.741 607.484 37.1369 610.52 38.8273C613.68 40.4339 615.733 42.4185 616.678 44.7811C617.622 47.1437 618.095 49.1409 618.098 50.7726C618.1 52.4043 617.82 54.6325 617.259 57.4573C619.827 53.291 623.682 49.7611 628.824 46.8675C633.987 43.8693 639.079 42.8689 644.101 43.8664C649.123 44.8639 653.068 46.0824 655.936 47.5221C658.804 48.9617 660.866 50.3501 662.123 51.6873C663.485 53.0452 664.334 54.7908 664.672 56.9241C665.114 59.0782 665.262 60.7934 665.118 62.0696C664.973 63.3459 664.672 65.1349 664.215 67.4366L654.458 116.557C653.855 119.591 653.963 122.059 654.782 123.962C655.725 125.781 656.815 126.867 658.049 127.221L659.713 127.878L664.578 128.844L664.329 130.099L654.756 128.198C650.466 127.346 647.358 125.75 645.43 123.409C643.607 121.09 642.83 118.978 643.1 117.074L643.473 114.375L653.261 65.0976Z" fill="#88B2C4"/>
<path d="M732.546 165.938C726.046 162.72 722.215 159.277 721.056 155.609C719.898 152.417 719.698 150.057 720.455 148.527L721.945 145.516C713.05 151.705 703.44 152.245 693.115 147.135C681.07 141.173 676.932 132.341 680.701 120.638C681.077 119.396 681.55 118.202 682.117 117.055C682.733 115.812 683.586 114.568 684.678 113.324C685.771 112.079 687.651 111.046 690.319 110.224C695.655 108.58 704.678 110.428 717.389 115.767C720.59 116.995 723.481 118.247 726.062 119.525C728.643 120.802 730.938 122.057 732.947 123.289L744.729 99.4858C744.585 99.2955 744.798 98.8653 745.367 98.1952C745.984 97.4294 746.314 96.2832 746.355 94.7566C746.54 93.1816 746.509 91.5598 746.264 89.8912C746.019 88.2226 745.01 86.4139 743.237 84.4653C741.511 82.421 738.88 80.5235 735.343 78.7728C731.806 77.022 727.316 75.6329 721.874 74.6054C716.574 73.5296 712.518 73.0689 709.704 73.2234L709.627 71.9357C720.075 72.2275 729.697 74.55 738.492 78.9032C748.338 83.7768 753.964 88.763 755.368 93.8615C756.481 97.8641 756.28 101.395 754.766 104.454L730.989 152.492C729.617 155.264 729.078 157.675 729.373 159.725C729.81 161.727 730.579 163.06 731.679 163.723L733.114 164.791L737.559 166.991L736.992 168.138L732.546 165.938ZM695.977 147.123C701.044 149.631 706.437 150.158 712.155 148.704C718.017 147.201 721.895 144.896 723.791 141.788L732.379 124.437C729.892 122.968 727.311 121.571 724.634 120.246C722.053 118.969 719.401 117.834 716.678 116.844C708.986 114.108 703.45 113.391 700.068 114.692C696.687 115.994 693.955 118.748 691.873 122.954C691.494 123.719 691.116 124.603 690.739 125.606C686.583 136.166 688.33 143.338 695.977 147.123Z" fill="#88B2C4"/>
<path d="M794.81 112.754L795.567 111.721L798.277 113.707L807.735 100.802L816.768 107.423L807.31 120.328L827.055 134.799L826.299 135.831L806.554 121.36L772.127 168.336C768.028 173.928 765.667 178.413 765.043 181.791C764.505 185.232 766.215 188.402 770.173 191.303C774.216 194.266 778.902 196.444 784.23 197.836L783.86 199.152C778.36 197.634 772.814 194.826 767.222 190.727C761.716 186.692 758.406 182.547 757.292 178.292C756.241 173.952 758.207 168.383 763.188 161.586L797.52 114.74L794.81 112.754Z" fill="#88B2C4"/>
<path d="M830.124 190.812C820.637 200.029 815.273 208.438 814.032 216.039C812.865 223.716 814.921 230.27 820.198 235.702C827.631 243.353 835.394 249.047 843.486 252.784L843.018 253.909C834.7 250.093 826.787 244.321 819.28 236.594C811.847 228.944 808.084 220.479 807.992 211.199C807.9 201.92 812.635 192.634 822.198 183.343C831.761 174.052 841.635 169.367 851.82 169.288C862.004 169.208 870.887 173.071 878.469 180.874C884.564 187.148 887.818 194.247 888.232 202.174C888.645 210.1 885.18 217.631 877.835 224.767C877.453 225.138 877.07 225.51 876.688 225.882L836.885 184.913C834.596 186.69 832.343 188.657 830.124 190.812ZM870.024 217.186C877.295 209.974 881.351 203.281 882.195 197.108C883.038 190.935 881.342 185.668 877.105 181.307C872.868 176.946 867.165 174.903 859.995 175.176C852.899 175.526 845.539 178.513 837.915 184.136L870.024 217.186Z" fill="#88B2C4"/>
<path d="M883.234 250.408C895.041 243.136 905.93 240.375 915.903 242.124C925.876 243.874 934.386 250.471 941.435 261.914C944.735 267.273 946.701 273.516 947.333 280.643L984.797 257.568L990.67 267.104L898.306 323.996C895.672 325.618 893.936 327.376 893.098 329.27C892.407 331.199 892.352 332.737 892.933 333.882L893.583 335.549L896.184 339.772L895.094 340.443L889.976 332.133C887.682 328.409 886.738 325.045 887.142 322.04C887.602 319.126 888.621 317.12 890.2 316.022L892.432 314.459L894.612 313.117C890.37 313.349 885.792 312.223 880.879 309.737C875.965 307.251 871.83 303.284 868.474 297.834C857.516 279.027 862.436 263.218 883.234 250.408ZM869.648 297.299C873.396 303.384 878.247 307.6 884.202 309.945C890.156 312.291 894.807 312.621 898.154 310.935L946.107 281.398C944.951 273.216 942.946 266.809 940.093 262.177C935.114 254.094 928.188 249.967 919.313 249.796C910.529 249.569 900.461 252.952 889.108 259.944C868.582 272.587 862.096 285.039 869.648 297.299Z" fill="#88B2C4"/>
<path d="M999.36 422.582C1000.3 420.593 1000.77 417.619 1000.78 413.661C1000.82 409.806 1000.61 406.947 1000.15 405.083C999.691 403.219 999.423 402.131 999.346 401.821C997.863 396.254 995.417 392.573 992.007 390.777C988.701 388.956 985.34 388.467 981.922 389.31C978.505 390.154 975.873 391.956 974.028 394.719C972.286 397.456 971.138 400.595 970.584 404.138C970.159 407.759 969.578 411.637 968.841 415.774C968.129 420.015 967.289 423.958 966.321 427.602C965.481 431.325 963.673 434.683 960.896 437.675C958.222 440.642 954.451 442.726 949.584 443.927C944.716 445.128 940.152 444.441 935.892 441.867C931.631 439.293 928.407 436.023 926.22 432.058C924.059 428.197 922.378 423.832 921.177 418.965C918.571 408.402 918.946 399.904 922.303 393.473L923.466 394.175C922.009 396.732 921.157 400.183 920.911 404.528C920.691 408.977 921.053 413.118 921.998 416.949C923.506 423.06 926.402 427.673 930.687 430.791C935.101 433.987 939.793 434.971 944.764 433.745C949.839 432.493 953.507 429.995 955.77 426.251C958.135 422.481 959.61 418.217 960.194 413.458C960.907 408.778 961.555 404.058 962.139 399.3C962.827 394.516 964.301 390.252 966.564 386.508C968.93 382.738 972.132 380.355 976.171 379.358C980.21 378.362 983.702 378.489 986.647 379.74C989.696 380.965 992.122 383.003 993.924 385.855C996.987 390.702 999.171 395.766 1000.47 401.048C1002.67 409.954 1002.73 417.302 1000.64 423.09L999.36 422.582Z" fill="#88B2C4"/>
<path d="M932.988 483.63C931.977 474.298 933.778 468.148 938.392 465.18C939.395 464.535 940.321 464.167 941.169 464.075L1050.13 452.265L1051.34 463.4L943.489 475.089C940.414 475.422 938.091 476.264 936.521 477.614C935.068 479.059 934.358 480.424 934.389 481.708L934.261 483.492L934.795 488.423L933.523 488.561L932.988 483.63Z" fill="#88B2C4"/>
<path d="M934.612 521.035C934.578 516.661 935.512 513.294 937.414 510.933C939.317 508.678 941.228 507.49 943.147 507.368L945.865 507.187L1014.5 506.657L1014.59 517.857L945.952 518.387C942.859 518.411 940.463 519.016 938.766 520.202C937.176 521.495 936.332 522.728 936.234 523.902L935.929 525.825L935.967 530.784L934.687 530.794L934.612 521.035ZM1032.43 507.479C1033.7 506.189 1035.3 505.537 1037.22 505.522C1039.14 505.507 1040.74 506.135 1042.03 507.405C1043.43 508.674 1044.13 510.269 1044.15 512.188C1044.16 514.108 1043.48 515.714 1042.1 517.004C1040.83 518.401 1039.24 519.107 1037.32 519.121C1035.4 519.136 1033.8 518.455 1032.5 517.079C1031.21 515.808 1030.56 514.213 1030.55 512.294C1030.53 510.374 1031.16 508.769 1032.43 507.479Z" fill="#88B2C4"/>
<path d="M971.344 549.287C985.209 549.472 995.883 552.975 1003.37 559.796C1010.85 566.617 1014.5 576.746 1014.32 590.185C1014.24 596.478 1012.55 602.803 1009.27 609.159L1053.26 609.748L1053.11 620.947L944.643 619.496C941.55 619.455 939.142 620.009 937.42 621.16C935.803 622.418 934.932 623.687 934.809 624.965L934.465 626.721L934.399 631.68L933.119 631.663L933.25 621.904C933.308 617.531 934.313 614.184 936.264 611.863C938.214 609.649 940.149 608.502 942.071 608.421L944.792 608.297L947.352 608.331C943.646 606.255 940.385 602.851 937.568 598.12C934.751 593.388 933.385 587.823 933.471 581.423C934.295 559.672 946.919 548.96 971.344 549.287ZM934.748 581.6C934.653 588.746 936.491 594.905 940.262 600.076C944.033 605.247 947.783 608.017 951.512 608.387L1007.83 609.14C1011.23 601.612 1012.97 595.128 1013.05 589.688C1013.17 580.196 1009.54 573 1002.14 568.1C994.84 563.202 984.526 560.664 971.194 560.486C947.09 560.164 934.941 567.202 934.748 581.6Z" fill="#88B2C4"/>
<path d="M971.783 660.067C958.557 659.89 948.821 662.053 942.573 666.557C936.324 671.167 933.149 677.259 933.048 684.831C932.906 695.497 934.378 705.011 937.467 713.373L936.341 713.838C933.148 705.261 931.624 695.587 931.768 684.814C931.911 674.148 935.227 665.499 941.716 658.865C948.205 652.231 958.116 649.003 971.448 649.182C984.78 649.36 995.079 653.018 1002.34 660.156C1009.61 667.293 1013.17 676.302 1013.02 687.181C1012.91 695.927 1010.2 703.251 1004.89 709.154C999.583 715.057 991.811 717.94 981.572 717.803C981.038 717.796 980.505 717.789 979.972 717.782L980.736 660.667C977.86 660.308 974.876 660.108 971.783 660.067ZM981.397 706.92C991.638 706.95 999.237 705.078 1004.19 701.304C1009.15 697.53 1011.67 692.603 1011.75 686.524C1011.83 680.444 1009.24 674.969 1003.97 670.098C998.701 665.334 991.382 662.249 982.013 660.844L981.397 706.92Z" fill="#88B2C4"/>
</svg>
