<svg xmlns="http://www.w3.org/2000/svg" viewBox="0 0 170.62 174.48"><defs><style>.cls-1,.cls-2{fill:#3fa9f5;}.cls-1{opacity:0.51;}.cls-3{font-size:17px;font-family:Montserrat-Medium, Montserrat;font-weight:500;letter-spacing:-0.08em;}.cls-4{letter-spacing:-0.1em;}.cls-5{letter-spacing:-0.06em;}</style></defs><g id="레이어_2" data-name="레이어 2"><g id="레이어_5" data-name="레이어 5"><path class="cls-1" d="M78.16,14.71A16.78,16.78,0,0,1,63.94,7.25,15.76,15.76,0,0,0,50.64,0L11.38.06A11.35,11.35,0,0,0,.05,11.43v3.41H0L.19,130.25a11.41,11.41,0,0,0,11.43,11.39l147.6-.24A11.41,11.41,0,0,0,170.62,130l-.17-104A11.42,11.42,0,0,0,159,14.58Z"/><circle class="cls-2" cx="37.01" cy="163.95" r="7"/><text class="cls-3" transform="translate(49.54 168.59) rotate(0.92)">AL L <tspan class="cls-4" x="35.33" y="0">W</tspan><tspan x="52.8" y="0">OR</tspan><tspan class="cls-5" x="76.86" y="0">K</tspan></text></g></g></svg>