<svg xmlns="http://www.w3.org/2000/svg" viewBox="0 0 499 147.51"><defs><style>.cls-1{font-size:70px;font-family:Montserrat-Medium, Montserrat;font-weight:500;}.cls-2{letter-spacing:0em;}.cls-3{letter-spacing:-0.01em;}.cls-4{letter-spacing:-0.01em;}.cls-5{letter-spacing:0em;}</style></defs><g id="레이어_2" data-name="레이어 2"><g id="레이어_6" data-name="레이어 6"><path d="M289.92,2a38,38,0,0,1,38,38,37.51,37.51,0,0,1-3.26,15.4,7.82,7.82,0,0,0,.61,7.45A8,8,0,0,0,332,66.51H457.5a39.5,39.5,0,1,1,0,79H41.5a39.5,39.5,0,0,1,0-79H81.36a8,8,0,0,0,6.74-3.66,7.82,7.82,0,0,0,.6-7.45A38,38,0,0,1,123.44,2H289.92m0-2H123.44a40,40,0,0,0-40,40h0a39.76,39.76,0,0,0,3.44,16.22,6,6,0,0,1-5.52,8.29H41.5A41.5,41.5,0,0,0,0,106H0a41.5,41.5,0,0,0,41.5,41.5h416A41.5,41.5,0,0,0,499,106h0a41.5,41.5,0,0,0-41.5-41.5H332a6,6,0,0,1-5.51-8.29A39.92,39.92,0,0,0,329.92,40h0a40,40,0,0,0-40-40Z"/><text class="cls-1" transform="translate(138.01 64.86)"><tspan class="cls-2">C</tspan><tspan x="50.4" y="0">SS</tspan></text><text class="cls-1" transform="translate(59.73 126.56)">95 pe<tspan class="cls-3" x="192.78" y="0">r</tspan><tspan class="cls-4" x="220.64" y="0">c</tspan><tspan class="cls-5" x="260.05" y="0">ent</tspan></text></g></g></svg>