<svg xmlns="http://www.w3.org/2000/svg" viewBox="0 0 663 279"><defs><style>.cls-1{font-size:70px;fill:#fff;font-family:Montserrat-Medium, Montserrat;font-weight:500;}.cls-2{letter-spacing:-0.01em;}.cls-3{letter-spacing:-0.01em;}.cls-4{letter-spacing:0em;}.cls-5{letter-spacing:-0.01em;}.cls-6{letter-spacing:-0.02em;}</style></defs><g id="레이어_2" data-name="레이어 2"><g id="레이어_6" data-name="레이어 6"><path d="M615.24,0H47.76A47.76,47.76,0,0,0,0,47.76H0A47.76,47.76,0,0,0,47.76,95.52h29.1a57.27,57.27,0,0,0-16,39.82V234A45.05,45.05,0,0,0,105.87,279H557.13a45.05,45.05,0,0,0,45-45.05V135.34a57.27,57.27,0,0,0-16-39.82h29.1A47.76,47.76,0,0,0,663,47.76h0A47.76,47.76,0,0,0,615.24,0Z"/><text class="cls-1" transform="translate(52.92 70.53)">D<tspan class="cls-2" x="57.82" y="0">E</tspan><tspan class="cls-3" x="104.02" y="0">V</tspan><tspan class="cls-4" x="152.81" y="0">E</tspan><tspan class="cls-5" x="199.71" y="0">L</tspan><tspan x="240.38" y="0">O</tspan><tspan class="cls-2" x="299.18" y="0">P</tspan><tspan x="349.02" y="0">MENT</tspan></text><text class="cls-1" transform="translate(115.86 162.54)">D<tspan class="cls-2" x="57.82" y="0">E</tspan><tspan class="cls-6" x="104.02" y="0">V</tspan><tspan x="152.81" y="0">E</tspan><tspan class="cls-5" x="199.71" y="0">L</tspan><tspan x="240.38" y="0">O</tspan><tspan class="cls-2" x="299.18" y="0">P</tspan><tspan x="349.02" y="0">ER</tspan><tspan x="-16.83" y="84">&amp; FRONTEND</tspan></text></g></g></svg>