<svg xmlns="http://www.w3.org/2000/svg" viewBox="0 0 888 182.5"><defs><style>.cls-1{font-size:70px;font-family:Montserrat-Medium, Montserrat;font-weight:500;}.cls-2{letter-spacing:-0.01em;}.cls-3{letter-spacing:-0.01em;}.cls-4{letter-spacing:-0.01em;}.cls-5{letter-spacing:-0.01em;}</style></defs><g id="레이어_2" data-name="레이어 2"><g id="레이어_6" data-name="레이어 6"><path d="M45.55,0V2h796.9A43.6,43.6,0,0,1,886,45.55v8.9A43.6,43.6,0,0,1,842.45,98H585.54a7.62,7.62,0,0,0-6.48,3.58,7.74,7.74,0,0,0-.39,7.53A43.18,43.18,0,0,1,583,128.05V137a43.6,43.6,0,0,1-43.55,43.55H348.55A43.6,43.6,0,0,1,305,137v-8.9a43.18,43.18,0,0,1,4.33-18.94,7.74,7.74,0,0,0-.39-7.53A7.62,7.62,0,0,0,302.46,98H45.55A43.6,43.6,0,0,1,2,54.45v-8.9A43.6,43.6,0,0,1,45.55,2V0m0,0A45.55,45.55,0,0,0,0,45.55v8.9A45.55,45.55,0,0,0,45.55,100H302.46a5.69,5.69,0,0,1,5.07,8.24A45.34,45.34,0,0,0,303,128.05V137a45.55,45.55,0,0,0,45.55,45.55h190.9A45.55,45.55,0,0,0,585,137v-8.9a45.34,45.34,0,0,0-4.53-19.81,5.69,5.69,0,0,1,5.07-8.24H842.45A45.55,45.55,0,0,0,888,54.45v-8.9A45.55,45.55,0,0,0,842.45,0Z"/><text class="cls-1" transform="translate(64.64 70.54)">gkfl8809@n<tspan class="cls-2" x="435.75" y="0">a</tspan><tspan class="cls-3" x="476.91" y="0">v</tspan><tspan x="514.99" y="0">e</tspan><tspan class="cls-2" x="557.83" y="0">r</tspan><tspan class="cls-4" x="585.82" y="0">.</tspan><tspan class="cls-5" x="600.87" y="0">c</tspan><tspan x="640.28" y="0">om</tspan></text><text class="cls-1" transform="translate(343.1 153.04)">Email</text></g></g></svg>