<svg xmlns="http://www.w3.org/2000/svg" viewBox="0 0 216.83 90.93"><defs><style>.cls-1{fill:none;stroke:#000;stroke-miterlimit:10;stroke-width:2px;}.cls-2{fill:#ff9d33;}.cls-3{fill:#ffce31;}.cls-4{fill:#ffdf85;}.cls-5{fill:#dde8e3;}.cls-6{fill:#fff;}.cls-7{fill:#493b30;}</style></defs><g id="레이어_2" data-name="레이어 2"><g id="레이어_5" data-name="레이어 5"><rect class="cls-1" x="1" y="1" width="214.83" height="88.93" rx="43.28"/><path class="cls-2" d="M101.37,36.43A90.33,90.33,0,0,1,90.74,44.3C88.92,33.82,83.89,20.89,73.92,5.08a99.45,99.45,0,0,1-14.11,33,68.46,68.46,0,0,1-6.77-13C18.88,58.93,47.19,82.9,65,82.9,87.8,82.9,107.88,72.05,101.37,36.43Z" transform="translate(0 -0.86)"/><path class="cls-3" d="M88,66.6a45,45,0,0,0,3.66-16.85A64.23,64.23,0,0,1,84.18,55c-1.27-7-4.8-15.62-11.77-26.15a64.66,64.66,0,0,1-9.88,22,44.74,44.74,0,0,1-4.74-8.64c-5.68,8.85-7.89,15.87-8,21.35a49.11,49.11,0,0,1-5.06-2.12c5.36,15.86,16.46,19.31,21.44,19.31C75,80.74,84.08,78.13,93,65.55,93,65.55,91.07,66.09,88,66.6Z" transform="translate(0 -0.86)"/><path class="cls-4" d="M55.49,59.36s3.65,5,6.44,3.77c0,0,5.3-8.17,12.89-12.72,0,0-1.56,12.46.23,14.66,2.38,2.93,8.83-3.24,8.83-3.24,0,7.36-8.14,16.63-15.42,16.63S51,70.48,55.49,59.36Z" transform="translate(0 -0.86)"/><path class="cls-2" d="M92,26a59.66,59.66,0,0,0,4.61-8c4.6,7.49,1.88,12.05-.14,13.54C93.72,33.54,88.79,30.55,92,26Z" transform="translate(0 -0.86)"/><path class="cls-2" d="M41.91,24.71a25.74,25.74,0,0,1-3-10.27c-6.56,9.79-4,15.12-1.81,16.73C40,33.34,45,30,41.91,24.71Z" transform="translate(0 -0.86)"/><path class="cls-2" d="M57.16,14.54a14.79,14.79,0,0,0-1-6.26c6.22,4,6.15,7.44,5.33,8.78C60.44,18.87,56.78,18.09,57.16,14.54Z" transform="translate(0 -0.86)"/><path class="cls-5" d="M113.21,43.25c0,11.41,4.89,28,19.65,28s19.64-16.57,19.64-28C152.5,7.93,113.21,7.93,113.21,43.25Z" transform="translate(0 -0.86)"/><path class="cls-5" d="M152.5,43.25c0,11.41,4.9,28,19.65,28s19.65-16.57,19.65-28C191.8,7.93,152.5,7.93,152.5,43.25Z" transform="translate(0 -0.86)"/><path class="cls-6" d="M114.25,44.11c0,9.8,3.12,25.08,15.68,25.08S145.6,53.91,145.6,44.11C145.6,10.35,114.25,10.35,114.25,44.11Z" transform="translate(0 -0.86)"/><path class="cls-6" d="M153.55,44.11c0,9.8,3.12,25.08,15.68,25.08S184.9,53.91,184.9,44.11C184.9,10.35,153.55,10.35,153.55,44.11Z" transform="translate(0 -0.86)"/><path class="cls-7" d="M114.25,44.31c0,8,5.7,14.22,12.74,14.22s12.74-6.17,12.74-14.22C139.73,24.5,114.25,24.5,114.25,44.31Z" transform="translate(0 -0.86)"/><path class="cls-7" d="M153.55,44.31c0,8,5.7,14.22,12.74,14.22S179,52.36,179,44.31C179,24.5,153.55,24.5,153.55,44.31Z" transform="translate(0 -0.86)"/></g></g></svg>