<svg xmlns="http://www.w3.org/2000/svg" viewBox="0 0 339.61 149.3"><defs><style>.cls-1{font-size:70px;font-family:Montserrat-Medium, Montserrat;font-weight:500;}.cls-2{letter-spacing:-0.01em;}</style></defs><g id="레이어_2" data-name="레이어 2"><g id="레이어_6" data-name="레이어 6"><path d="M225.76,2A39.29,39.29,0,0,1,265,41.24V68.3h39.09a33.56,33.56,0,0,1,33.52,33.52v36.44a9,9,0,0,1-9,9H148.14a33.57,33.57,0,0,1-33.53-33.53V81H41.24A39.29,39.29,0,0,1,2,41.76V12.82A10.83,10.83,0,0,1,12.82,2H225.76m0-2H12.82A12.82,12.82,0,0,0,0,12.82V41.76A41.25,41.25,0,0,0,41.24,83h71.37v30.77a35.53,35.53,0,0,0,35.53,35.53H328.57a11,11,0,0,0,11-11V101.82A35.52,35.52,0,0,0,304.09,66.3H267V41.24A41.25,41.25,0,0,0,225.76,0Z"/><text class="cls-1" transform="translate(30.32 62.04)">HTML</text><text class="cls-1" transform="translate(152.82 128.34)">9<tspan class="cls-2" x="43.19" y="0">8</tspan><tspan x="87.57" y="0">%</tspan></text></g></g></svg>