<svg xmlns="http://www.w3.org/2000/svg" viewBox="0 0 494.39 150.95"><defs><style>.cls-1{font-size:70px;font-family:Montserrat-Medium, Montserrat;font-weight:500;}.cls-2{letter-spacing:-0.02em;}.cls-3{letter-spacing:-0.04em;}.cls-4{letter-spacing:-0.03em;}.cls-5{letter-spacing:0em;}.cls-6{letter-spacing:-0.03em;}</style></defs><g id="레이어_2" data-name="레이어 2"><g id="레이어_6" data-name="레이어 6"><path d="M453.4,0V2a39,39,0,0,1,39,38.23,38.27,38.27,0,0,1-11.14,27.68A40.38,40.38,0,0,1,452.59,80h-97.5a6.37,6.37,0,0,0-5.36,2.91,6.24,6.24,0,0,0-.47,6A39.76,39.76,0,0,1,313,144.8H172.52a39.79,39.79,0,0,1-39.75-39.74,39.35,39.35,0,0,1,3.45-16.2,6.24,6.24,0,0,0-.48-6A6.36,6.36,0,0,0,130.39,80H41A39,39,0,0,1,41,2H453.4V0m0,0H41A41,41,0,0,0,0,41H0A41,41,0,0,0,41,82h89.4a4.34,4.34,0,0,1,4,6.06,41.59,41.59,0,0,0-3.62,17h0a41.75,41.75,0,0,0,41.75,41.74H313a41.75,41.75,0,0,0,38.12-58.75,4.34,4.34,0,0,1,4-6.06h97.5c23,0,42.23-18.81,41.79-41.8A41,41,0,0,0,453.4,0Z"/><text class="cls-1" transform="translate(28.48 66.54)"><tspan class="cls-2">J</tspan><tspan class="cls-3" x="34.86" y="0">AV</tspan><tspan x="130.76" y="0">ASCRI</tspan><tspan class="cls-4" x="348.67" y="0">P</tspan><tspan class="cls-5" x="396.97" y="0">T</tspan></text><text class="cls-1" transform="translate(169.27 132.54)">9<tspan class="cls-6" x="43.19" y="0">4</tspan><tspan x="87.92" y="0">%</tspan></text></g></g></svg>