<svg xmlns="http://www.w3.org/2000/svg" viewBox="0 0 490.44 150.41"><defs><style>.cls-1{font-size:70px;fill:#fff;font-family:Montserrat-Medium, Montserrat;font-weight:500;}.cls-2{letter-spacing:-0.01em;}.cls-3{letter-spacing:0em;}.cls-4{letter-spacing:0em;}.cls-5{letter-spacing:-0.01em;}.cls-6{letter-spacing:-0.01em;}</style></defs><g id="레이어_2" data-name="레이어 2"><g id="레이어_6" data-name="레이어 6"><path d="M449.45,0h-348a41,41,0,0,0-41,41h0a40.84,40.84,0,0,0,4.35,18.39,4.15,4.15,0,0,1-3.71,6H42.5A42.5,42.5,0,0,0,0,107.91H0a42.5,42.5,0,0,0,42.5,42.5h384a42.5,42.5,0,0,0,42.5-42.5h0a42.31,42.31,0,0,0-6.55-22.68,4.13,4.13,0,0,1,1.95-6,41,41,0,0,0,26-38.18h0A41,41,0,0,0,449.45,0Z"/><text class="cls-1" transform="translate(129.39 64.86)">JQUE<tspan class="cls-2" x="196.98" y="0">R</tspan><tspan class="cls-3" x="247.17" y="0">Y</tspan></text><text class="cls-1" transform="translate(44.84 128.45)"><tspan class="cls-4">9</tspan><tspan x="42.98" y="0">2 pe</tspan><tspan class="cls-5" x="192.57" y="0">r</tspan><tspan class="cls-6" x="220.43" y="0">c</tspan><tspan x="259.84" y="0">ent</tspan></text></g></g></svg>