<svg xmlns="http://www.w3.org/2000/svg" viewBox="0 0 531.97 259.08"><defs><style>.cls-1{font-size:70px;font-family:Montserrat-Medium, Montserrat;font-weight:500;}.cls-2{letter-spacing:-0.03em;}.cls-3{letter-spacing:-0.01em;}.cls-4{letter-spacing:0em;}.cls-5{letter-spacing:-0.02em;}.cls-6{letter-spacing:0em;}.cls-7{letter-spacing:-0.01em;}.cls-8{letter-spacing:-0.02em;}</style></defs><g id="레이어_2" data-name="레이어 2"><g id="레이어_6" data-name="레이어 6"><path d="M431.47,2a13.92,13.92,0,0,1,13.89,13.83l.13,30.29a52.8,52.8,0,0,1-52.57,53l-38,.15a6.78,6.78,0,0,0-6.33,9.13,48.63,48.63,0,0,1-3,40.1,6.61,6.61,0,0,0,.12,6.62,6.76,6.76,0,0,0,5.89,3.35l120.9-.5h.24a57.22,57.22,0,0,1,57.1,56.87l.1,25A15.16,15.16,0,0,1,514.89,255l-497.58,2h-.06A15.18,15.18,0,0,1,2.1,242L2,217a57.1,57.1,0,0,1,56.87-57.34l120.9-.5a6.76,6.76,0,0,0,5.86-3.39,6.63,6.63,0,0,0,.07-6.63,48.64,48.64,0,0,1-3.3-40.08A6.77,6.77,0,0,0,176,100l-38,.16h-.23A52.89,52.89,0,0,1,85,47.6l-.12-30.28A13.9,13.9,0,0,1,98.69,3.37L431.42,2h.05m0-2h-.06L98.69,1.37a15.89,15.89,0,0,0-15.83,16L83,47.61a54.79,54.79,0,0,0,54.78,54.56H138l38-.16h0a4.78,4.78,0,0,1,4.49,6.4,50.35,50.35,0,0,0-3,17.3h0a50.36,50.36,0,0,0,6.4,24.42,4.77,4.77,0,0,1-4.19,7l-120.9.5A59.1,59.1,0,0,0,0,217l.1,25a17.15,17.15,0,0,0,17.15,17.07h.07L514.9,257A17.14,17.14,0,0,0,532,239.81l-.1-25A59.11,59.11,0,0,0,472.77,156h-.25l-120.9.5h0a4.77,4.77,0,0,1-4.23-7,50.28,50.28,0,0,0,6.2-24.47h0a50.19,50.19,0,0,0-3.11-17.28,4.78,4.78,0,0,1,4.46-6.44l38-.15a54.79,54.79,0,0,0,54.56-55l-.13-30.28A15.88,15.88,0,0,0,431.47,0Z"/><text class="cls-1" transform="translate(137.41 76.04) rotate(-0.24)"><tspan class="cls-2">K</tspan><tspan x="48.37" y="0">A</tspan><tspan class="cls-2" x="99.61" y="0">K</tspan><tspan class="cls-3" x="147.98" y="0">A</tspan><tspan class="cls-4" x="198.52" y="0">O</tspan></text><text class="cls-1" transform="translate(216.48 151.71) rotate(-0.24)"><tspan class="cls-3">T</tspan><tspan x="40.39" y="0">O</tspan></text><text class="cls-1" transform="translate(75.46 232.29) rotate(-0.24)"><tspan class="cls-5">k</tspan><tspan x="41.58" y="0">do</tspan><tspan class="cls-6" x="133.77" y="0">n</tspan><tspan class="cls-7" x="181.65" y="0">g</tspan><tspan x="229.46" y="0">12</tspan><tspan class="cls-8" x="295.54" y="0">2</tspan><tspan x="334.39" y="0">4</tspan></text></g></g></svg>