<svg xmlns="http://www.w3.org/2000/svg" viewBox="0 0 527.26 212.74"><defs><style>.cls-1,.cls-4{font-size:70px;fill:#fff;font-family:Montserrat-Medium, Montserrat;font-weight:500;}.cls-2{letter-spacing:-0.01em;}.cls-3{letter-spacing:0em;}.cls-4{letter-spacing:-0.01em;}.cls-5{letter-spacing:-0.03em;}.cls-6{letter-spacing:-0.01em;}.cls-7{letter-spacing:-0.01em;}.cls-8{letter-spacing:0em;}</style></defs><g id="레이어_2" data-name="레이어 2"><g id="레이어_6" data-name="레이어 6"><path d="M485.76,127.34h0a1.22,1.22,0,0,1-1.06-1.84,40.09,40.09,0,0,0,5.42-20.18h0a40.25,40.25,0,0,0-40.25-40.25h-32.6a1.23,1.23,0,0,1-1.06-1.84,41.74,41.74,0,0,0,5.72-21.17h0A42.06,42.06,0,0,0,379.87,0H147.39a42.06,42.06,0,0,0-42.06,42.06h0a41.9,41.9,0,0,0,5.72,21.18A1.22,1.22,0,0,1,110,65.07H77.39a40.25,40.25,0,0,0-40.25,40.25h0a40.09,40.09,0,0,0,5.42,20.18,1.22,1.22,0,0,1-1.05,1.84h0A41.5,41.5,0,0,0,0,168.84v2.4a41.5,41.5,0,0,0,41.51,41.5H485.76a41.5,41.5,0,0,0,41.5-41.5v-2.4A41.5,41.5,0,0,0,485.76,127.34Z"/><text class="cls-1" transform="translate(136.16 62.61)">M<tspan class="cls-2" x="66.85" y="0">Y</tspan><tspan class="cls-3" x="111.09" y="0">SQL</tspan></text><text class="cls-4" transform="translate(68.44 129.87)">D<tspan class="cls-5" x="57.12" y="0">AT</tspan><tspan class="cls-3" x="144.55" y="0">ABASE</tspan></text><text class="cls-1" transform="translate(72.92 194.11)">82 pe<tspan class="cls-6" x="194.67" y="0">r</tspan><tspan class="cls-7" x="222.53" y="0">c</tspan><tspan class="cls-8" x="261.94" y="0">ent</tspan></text></g></g></svg>