<svg xmlns="http://www.w3.org/2000/svg" viewBox="0 0 534.02 151.14"><defs><style>.cls-1{font-size:70px;font-family:Montserrat-Medium, Montserrat;font-weight:500;}.cls-2{letter-spacing:0em;}.cls-3{letter-spacing:0.01em;}.cls-4{letter-spacing:-0.01em;}.cls-5{letter-spacing:-0.01em;}.cls-6{letter-spacing:-0.05em;}.cls-7{letter-spacing:-0.02em;}.cls-8{letter-spacing:-0.02em;}.cls-9{letter-spacing:-0.01em;}</style></defs><g id="레이어_2" data-name="레이어 2"><g id="레이어_6" data-name="레이어 6"><path d="M415.86,2a39.38,39.38,0,0,1,34,59.27,5.31,5.31,0,0,0,0,5.35,5.36,5.36,0,0,0,4.71,2.74h37.87A39.66,39.66,0,0,1,532,109v.43A39.66,39.66,0,0,1,492.41,149H41.61A39.66,39.66,0,0,1,2,109.4V109A39.66,39.66,0,0,1,41.61,69.36h94.56a5.36,5.36,0,0,0,4.7-2.74,5.26,5.26,0,0,0,0-5.35A39.38,39.38,0,0,1,174.85,2h241m0-2h-241a41.39,41.39,0,0,0-41.39,41.39h0a41.13,41.13,0,0,0,5.67,20.89,3.4,3.4,0,0,1-3,5.08H41.61A41.61,41.61,0,0,0,0,109v.43A41.61,41.61,0,0,0,41.61,151h450.8A41.61,41.61,0,0,0,534,109.4V109a41.61,41.61,0,0,0-41.61-41.61H454.54a3.4,3.4,0,0,1-3-5.08A41.39,41.39,0,0,0,415.86,0Z"/><text class="cls-1" transform="translate(24.08 132.73)"><tspan class="cls-2">0</tspan><tspan x="46.48" y="0">1</tspan><tspan class="cls-3" x="72.38" y="0">0</tspan><tspan class="cls-4" x="119.56" y="0">-</tspan><tspan x="145.46" y="0">2</tspan><tspan class="cls-5" x="185.64" y="0">3</tspan><tspan x="224.84" y="0">7</tspan><tspan class="cls-6" x="266.7" y="0">7</tspan><tspan class="cls-4" x="305.06" y="0">-</tspan><tspan class="cls-7" x="330.96" y="0">2</tspan><tspan class="cls-8" x="369.81" y="0">4</tspan><tspan x="414.89" y="0">18</tspan></text><text class="cls-1" transform="translate(160.74 66.93)"><tspan class="cls-9">P</tspan><tspan x="49.84" y="0">HONE</tspan></text></g></g></svg>