<svg xmlns="http://www.w3.org/2000/svg" viewBox="0 0 465.62 149.47"><defs><style>.cls-1{font-size:70px;fill:#fff;font-family:Montserrat-Medium, Montserrat;font-weight:500;}.cls-2{letter-spacing:-0.01em;}.cls-3{letter-spacing:-0.01em;}.cls-4{letter-spacing:-0.01em;}</style></defs><g id="레이어_2" data-name="레이어 2"><g id="레이어_6" data-name="레이어 6"><path d="M424.59,67.41h-102a42.32,42.32,0,0,0,8.08-24.91h0A42.5,42.5,0,0,0,288.12,0H155.86a42.5,42.5,0,0,0-42.5,42.5h0a42.31,42.31,0,0,0,8.07,24.91H41a41,41,0,0,0-41,41H0a41,41,0,0,0,41,41H424.59a41,41,0,0,0,41-41h0A41,41,0,0,0,424.59,67.41Z"/><text class="cls-1" transform="translate(143.38 63.05)"><tspan class="cls-2">P</tspan><tspan x="49.84" y="0">HP</tspan></text><text class="cls-1" transform="translate(40.59 128.99)">89 pe<tspan class="cls-3" x="197.68" y="0">r</tspan><tspan class="cls-4" x="225.54" y="0">c</tspan><tspan x="264.95" y="0">ent</tspan></text></g></g></svg>