<svg xmlns="http://www.w3.org/2000/svg" viewBox="0 0 300 213.7"><defs><style>.cls-1,.cls-4{font-size:70px;font-family:Montserrat-Medium, Montserrat;font-weight:500;}.cls-2{letter-spacing:-0.01em;}.cls-3{letter-spacing:-0.01em;}.cls-4{letter-spacing:-0.09em;}.cls-5{letter-spacing:-0.08em;}.cls-6{letter-spacing:-0.01em;}</style></defs><g id="레이어_2" data-name="레이어 2"><g id="레이어_6" data-name="레이어 6"><path d="M258.5,2a39.5,39.5,0,0,1,0,79H222.16a5.08,5.08,0,0,0-4.62,7.2A33,33,0,0,1,214,121.6a5.08,5.08,0,0,0,4.05,8.15,40,40,0,0,1,0,80H82a40,40,0,0,1,0-80,5.08,5.08,0,0,0,4-8.15,33,33,0,0,1-3.59-33.4A5.08,5.08,0,0,0,77.84,81H41.5a39.5,39.5,0,0,1,0-79h217m0-2H41.5A41.5,41.5,0,0,0,0,41.5H0A41.5,41.5,0,0,0,41.5,83H77.84a3.08,3.08,0,0,1,2.8,4.37,35,35,0,0,0,3.81,35.43,3.08,3.08,0,0,1-2.45,5h0a42,42,0,0,0-42,42h0a42,42,0,0,0,42,42H218a42,42,0,0,0,42-42h0a42,42,0,0,0-42-42,3.08,3.08,0,0,1-2.45-5,35,35,0,0,0,3.81-35.43,3.08,3.08,0,0,1,2.8-4.37H258.5A41.5,41.5,0,0,0,300,41.5h0A41.5,41.5,0,0,0,258.5,0Z"/><text class="cls-1" transform="translate(30.27 67.04)">RE<tspan class="cls-2" x="97.79" y="0">A</tspan><tspan class="cls-3" x="148.33" y="0">C</tspan><tspan x="198.38" y="0">T</tspan></text><text class="cls-4" transform="translate(104.75 131.08)">T<tspan class="cls-5" x="35.07" y="0">O</tspan></text><text class="cls-1" transform="translate(75.77 195.29)">8<tspan class="cls-6" x="45.08" y="0">8</tspan><tspan x="89.46" y="0">%</tspan></text></g></g></svg>