<svg width="166" height="166" viewBox="0 0 166 166" fill="none" xmlns="http://www.w3.org/2000/svg">
<mask id="path-1-inside-1" fill="white">
<path fill-rule="evenodd" clip-rule="evenodd" d="M83 0C69.7995 0 59.0248 10.3862 58.4021 23.4326C48.7435 14.4745 33.6481 14.6925 24.2541 24.0865C14.8098 33.5308 14.64 48.7377 23.7448 58.3891C10.5524 58.8533 0 69.6944 0 83C0 96.1673 10.3339 106.921 23.3339 107.593C14.4762 117.256 14.7271 132.275 24.0865 141.634C33.5297 151.077 48.7339 151.248 58.3855 142.147C58.7939 155.39 69.6579 166 83 166C96.3121 166 107.157 155.437 107.612 142.236C117.275 151.076 132.28 150.82 141.634 141.466C150.937 132.163 151.241 117.267 142.544 107.599C155.601 106.988 166 96.2084 166 83C166 69.6543 155.384 58.7881 142.136 58.3852C151.078 48.7259 150.855 33.6428 141.466 24.2543C132.161 14.9491 117.262 14.6472 107.594 23.3486C106.929 10.3417 96.1722 0 83 0Z"/>
</mask>
<path fill-rule="evenodd" clip-rule="evenodd" d="M83 0C69.7995 0 59.0248 10.3862 58.4021 23.4326C48.7435 14.4745 33.6481 14.6925 24.2541 24.0865C14.8098 33.5308 14.64 48.7377 23.7448 58.3891C10.5524 58.8533 0 69.6944 0 83C0 96.1673 10.3339 106.921 23.3339 107.593C14.4762 117.256 14.7271 132.275 24.0865 141.634C33.5297 151.077 48.7339 151.248 58.3855 142.147C58.7939 155.39 69.6579 166 83 166C96.3121 166 107.157 155.437 107.612 142.236C117.275 151.076 132.28 150.82 141.634 141.466C150.937 132.163 151.241 117.267 142.544 107.599C155.601 106.988 166 96.2084 166 83C166 69.6543 155.384 58.7881 142.136 58.3852C151.078 48.7259 150.855 33.6428 141.466 24.2543C132.161 14.9491 117.262 14.6472 107.594 23.3486C106.929 10.3417 96.1722 0 83 0Z" fill="white"/>
<path d="M58.4021 23.4326L55.002 27.0985L62.8839 34.4087L63.3964 23.6709L58.4021 23.4326ZM24.2541 24.0865L20.7186 20.551L24.2541 24.0865ZM23.7448 58.3891L23.9206 63.386L34.9658 62.9974L27.3819 54.9581L23.7448 58.3891ZM23.3339 107.593L27.0197 110.972L34.1917 103.148L23.5921 102.6L23.3339 107.593ZM24.0865 141.634L27.6221 138.098H27.6221L24.0865 141.634ZM58.3855 142.147L63.3832 141.993L63.0406 130.885L54.9552 138.509L58.3855 142.147ZM107.612 142.236L110.986 138.547L102.987 131.229L102.615 142.064L107.612 142.236ZM142.544 107.599L142.311 102.605L131.77 103.098L138.827 110.943L142.544 107.599ZM142.136 58.3852L138.467 54.9885L131.005 63.0491L141.984 63.3829L142.136 58.3852ZM141.466 24.2543L145.002 20.7188V20.7188L141.466 24.2543ZM107.594 23.3486L102.6 23.6038L103.136 34.0874L110.939 27.0651L107.594 23.3486ZM63.3964 23.6709C63.8925 13.2775 72.4811 5 83 5V-5C67.1179 -5 54.1571 7.49497 53.4078 23.1942L63.3964 23.6709ZM27.7897 27.6221C35.2756 20.1361 47.3069 19.9616 55.002 27.0985L61.8022 19.7666C50.18 8.98739 32.0207 9.24887 20.7186 20.551L27.7897 27.6221ZM27.3819 54.9581C20.1276 47.2683 20.2634 35.1483 27.7897 27.6221L20.7186 20.551C9.35614 31.9134 9.15246 50.207 20.1078 61.8202L27.3819 54.9581ZM5 83C5 72.3969 13.41 63.7558 23.9206 63.386L23.569 53.3922C7.69476 53.9507 -5 66.9918 -5 83H5ZM23.5921 102.6C13.2358 102.064 5 93.4923 5 83H-5C-5 98.8422 7.43206 111.778 23.0757 112.586L23.5921 102.6ZM27.6221 138.098C20.1638 130.64 19.963 118.67 27.0197 110.972L19.6481 104.214C8.98951 115.842 9.29039 133.909 20.551 145.17L27.6221 138.098ZM54.9552 138.509C47.2653 145.76 35.1473 145.624 27.6221 138.098L20.551 145.17C31.912 156.531 50.2025 156.736 61.8159 145.784L54.9552 138.509ZM83 161C72.3677 161 63.7085 152.544 63.3832 141.993L53.3879 142.301C53.8793 158.236 66.9481 171 83 171V161ZM102.615 142.064C102.253 152.582 93.6083 161 83 161V171C99.016 171 112.062 158.293 112.609 142.408L102.615 142.064ZM138.098 137.931C130.645 145.384 118.685 145.59 110.986 138.547L104.237 145.925C115.865 156.563 133.916 156.255 145.169 145.002L138.098 137.931ZM138.827 110.943C145.755 118.645 145.512 130.517 138.098 137.931L145.169 145.002C156.363 133.808 156.727 115.89 146.262 104.255L138.827 110.943ZM161 83C161 93.5252 152.713 102.118 142.311 102.605L142.778 112.594C158.49 111.858 171 98.8915 171 83H161ZM141.984 63.3829C152.539 63.7039 161 72.3648 161 83H171C171 66.9438 158.229 53.8722 142.288 53.3875L141.984 63.3829ZM137.931 27.7898C145.412 35.2713 145.591 47.293 138.467 54.9885L145.805 61.7819C156.565 50.1588 156.297 32.0143 145.002 20.7188L137.931 27.7898ZM110.939 27.0651C118.641 20.1332 130.516 20.375 137.931 27.7898L145.002 20.7188C133.806 9.52319 115.883 9.1612 104.249 19.6321L110.939 27.0651ZM83 5C93.4963 5 102.071 13.242 102.6 23.6038L112.587 23.0934C111.787 7.44143 98.8481 -5 83 -5V5Z" fill="black" mask="url(#path-1-inside-1)"/>
<circle cx="83.228" cy="83.2281" r="36.0357" fill="#FFC700" stroke="black" stroke-width="5"/>
</svg>
