<svg width="321" height="338" viewBox="0 0 321 338" fill="none" xmlns="http://www.w3.org/2000/svg">
<path d="M276.565 161.952L276.527 162.747L276.955 163.418L312.539 219.159C322.089 234.12 317.646 253.89 302.613 263.326C293.544 269.018 282.69 269.655 273.393 265.97L267.742 263.73L270.182 269.297C280.308 292.407 270.349 319.439 247.353 330.357C223.792 341.542 195.472 331.577 184.107 308.103L165.091 268.826L164.427 267.454L162.903 267.416C162.573 267.408 162.243 267.398 161.914 267.387L159.39 267.302L159.33 269.827L158.871 289.172C158.252 315.231 136.636 335.687 110.583 334.869C84.5153 334.05 63.8796 312.244 64.4987 286.171L65.4308 246.915C65.5919 240.13 67.1745 233.733 69.8835 227.993L73.9577 219.36L66.175 224.888L46.5069 238.857C33.9587 247.769 16.5618 244.821 7.64973 232.273C-1.26231 219.725 1.68533 202.328 14.2335 193.416L53.8998 165.244L55.0287 164.442L54.9479 163.06C54.8207 160.883 54.7562 158.69 54.7562 156.481V113.662C54.7562 52.3744 104.439 2.69116 165.727 2.69116C227.014 2.69116 276.698 52.3744 276.698 113.662V156.481C276.698 158.315 276.653 160.139 276.565 161.952Z" fill="#20B94B" stroke="black" stroke-width="5"/>
<path d="M280.979 111.52C280.979 157.436 243.757 194.658 197.841 194.658C151.925 194.658 114.703 157.436 114.703 111.52C114.703 65.6036 151.925 28.3813 197.841 28.3813C243.757 28.3813 280.979 65.6036 280.979 111.52Z" fill="white" stroke="black" stroke-width="5"/>
<path d="M263.852 94.3924C263.852 116.66 245.8 134.711 223.533 134.711C201.265 134.711 183.214 116.66 183.214 94.3924C183.214 72.1247 201.265 54.0732 223.533 54.0732C245.8 54.0732 263.852 72.1247 263.852 94.3924Z" fill="black" stroke="black" stroke-width="5"/>
</svg>
