<svg width="247" height="185" viewBox="0 0 247 185" fill="none" xmlns="http://www.w3.org/2000/svg">
<path d="M169.778 24.1089L169.894 23.9333L169.98 23.7408C173.835 15.059 181.939 8.51031 192.027 7.08694C207.589 4.89125 221.984 15.7266 224.18 31.2883C226.376 46.85 215.54 61.2453 199.978 63.4409C199.379 63.5255 198.782 63.5907 198.188 63.6371L196.496 63.7691L195.994 65.3896L183.703 105.061L182.536 108.828L186.44 108.277L198.549 106.568C212.32 104.625 225.059 114.214 227.002 127.985C228.945 141.756 219.356 154.495 205.585 156.438L48.7858 178.562C35.0146 180.505 22.2757 170.916 20.3327 157.145C18.3896 143.374 27.9782 130.635 41.7494 128.692L101.161 120.309L102.883 120.066L103.254 118.367C106.599 103.055 119.144 90.7171 135.564 88.4003C139.397 87.8594 143.174 87.9016 146.807 88.4577L148.936 88.7835L149.573 86.7263L167.456 29.0085C168.009 27.2246 168.798 25.5842 169.778 24.1089Z" fill="#F38E8E" stroke="black" stroke-width="5"/>
<path d="M217.415 34.7181C218.979 45.8031 211.23 56.076 200.088 57.6482C188.945 59.2204 178.656 51.4925 177.092 40.4075C175.528 29.3224 183.277 19.0495 194.42 17.4773C205.563 15.9051 215.851 23.633 217.415 34.7181Z" fill="#FFC2C2" stroke="black" stroke-width="5"/>
<path d="M201.448 35.4143C201.916 38.7337 199.605 41.8043 196.286 42.2727C192.966 42.741 189.896 40.4298 189.427 37.1104C188.959 33.791 191.27 30.7204 194.59 30.2521C197.909 29.7837 200.98 32.095 201.448 35.4143Z" fill="black"/>
<path d="M227.89 83.5771C226.071 70.3665 219.876 58.4318 210.734 49.4064C218.439 45.229 224.192 38.1651 226.762 29.8532C235.57 36.6769 240.914 47.6239 240.084 59.5647C239.41 69.2716 234.789 77.762 227.89 83.5771Z" fill="white" stroke="black" stroke-width="5"/>
</svg>
