<svg width="586" height="438" viewBox="0 0 586 438" fill="none" xmlns="http://www.w3.org/2000/svg">
<path d="M399.47 54.8396L399.587 54.664L399.672 54.4715C409.27 32.8564 429.456 16.5371 454.589 12.991C493.352 7.52172 529.21 34.5118 534.679 73.2749C540.148 112.038 513.158 147.896 474.395 153.365C472.904 153.575 471.418 153.738 469.938 153.853L468.247 153.985L467.745 155.606L438.607 249.648L437.441 253.415L441.345 252.864L470.048 248.814C504.567 243.944 536.498 267.978 541.369 302.497C546.239 337.015 522.204 368.947 487.686 373.817L115.989 426.261C81.4707 431.132 49.5396 407.097 44.6692 372.578C39.7988 338.06 63.8334 306.129 98.3521 301.258L239.189 281.387L240.911 281.144L241.282 279.445C249.507 241.794 280.353 211.445 320.742 205.746C330.163 204.417 339.452 204.52 348.391 205.888L350.52 206.214L351.157 204.157L393.549 67.3353C394.957 62.7912 396.97 58.6064 399.47 54.8396Z" fill="#F38E8E" stroke="black" stroke-width="5"/>
<path d="M518.644 81.4045C522.617 109.566 502.931 135.643 474.654 139.632C446.377 143.622 420.245 124.011 416.271 95.8488C412.298 67.6869 431.984 41.6107 460.261 37.6209C488.538 33.6311 514.67 53.2427 518.644 81.4045Z" fill="#FFC2C2" stroke="black" stroke-width="5"/>
<path d="M477.4 83.5346C478.51 91.4033 473.031 98.6822 465.163 99.7924C457.294 100.903 450.015 95.4239 448.905 87.5552C447.795 79.6865 453.273 72.4076 461.142 71.2974C469.011 70.1871 476.29 75.666 477.4 83.5346Z" fill="black"/>
<path d="M537.377 204.169C534.16 169.577 518.004 138.364 493.528 115.825C514.615 106.061 530.039 87.0656 535.418 64.6648C559.578 81.1903 574.58 109.72 572.407 141.021C570.587 167.233 557.107 189.854 537.377 204.169Z" fill="white" stroke="black" stroke-width="5"/>
</svg>
