<svg width="187" height="187" viewBox="0 0 187 187" fill="none" xmlns="http://www.w3.org/2000/svg">
<circle cx="93.5" cy="93.5" r="91" fill="#E0DCFA" stroke="black" stroke-width="5"/>
<path d="M104.021 61.5475L120.09 52.1246L118.195 70.6564L118.032 72.2427L119.625 72.3078L138.238 73.0686L126.625 87.6336L125.63 88.8803L126.935 89.7965L142.182 100.499L124.538 106.473L123.027 106.985L123.63 108.461L130.67 125.708L112.597 121.194L111.05 120.808L110.758 122.375L107.356 140.691L94.5926 127.122L93.5 125.961L92.4074 127.122L79.6435 140.691L76.2416 122.375L75.9504 120.808L74.4033 121.194L56.33 125.708L63.37 108.461L63.9726 106.985L62.4623 106.473L44.8176 100.499L60.0645 89.7965L61.3696 88.8803L60.3755 87.6336L48.7615 73.0686L67.3745 72.3078L68.9678 72.2427L68.8055 70.6564L66.9097 52.1246L82.9792 61.5475L84.3547 62.3541L85.0758 60.9319L93.5 44.317L101.924 60.9319L102.645 62.3541L104.021 61.5475Z" fill="#FFC700" stroke="black" stroke-width="3"/>
<path d="M97 87.5H113.5V94.7111L107.984 108.5H83.5V86.2889L88.0433 74.9306C88.6305 73.4626 90.0523 72.5 91.6334 72.5C93.7689 72.5 95.5 74.2311 95.5 76.3666V86V87.5H97ZM80.5 87.5V108.5H74.5V87.5H80.5Z" fill="white" stroke="black" stroke-width="3"/>
</svg>
