<svg width="305" height="293" viewBox="0 0 305 293" fill="none" xmlns="http://www.w3.org/2000/svg">
<circle cx="102.83" cy="6.83013" r="5" transform="rotate(30 102.83 6.83013)" fill="#FCD5D5"/>
<circle cx="70.8301" cy="62.2557" r="5" transform="rotate(30 70.8301 62.2557)" fill="#FCD5D5"/>
<circle cx="39.3301" cy="116.815" r="5" transform="rotate(30 39.3301 116.815)" fill="#FCD5D5"/>
<circle cx="6.83013" cy="173.107" r="5" transform="rotate(30 6.83013 173.107)" fill="#FCD5D5"/>
<circle cx="166.05" cy="43.3301" r="5" transform="rotate(30 166.05 43.3301)" fill="#FCD5D5"/>
<circle cx="134.05" cy="98.7557" r="5" transform="rotate(30 134.05 98.7557)" fill="#FCD5D5"/>
<circle cx="102.55" cy="153.315" r="5" transform="rotate(30 102.55 153.315)" fill="#FCD5D5"/>
<circle cx="70.05" cy="209.607" r="5" transform="rotate(30 70.05 209.607)" fill="#FCD5D5"/>
<circle cx="228.404" cy="79.3301" r="5" transform="rotate(30 228.404 79.3301)" fill="#FCD5D5"/>
<circle cx="196.404" cy="134.756" r="5" transform="rotate(30 196.404 134.756)" fill="#FCD5D5"/>
<circle cx="164.904" cy="189.315" r="5" transform="rotate(30 164.904 189.315)" fill="#FCD5D5"/>
<circle cx="132.404" cy="245.607" r="5" transform="rotate(30 132.404 245.607)" fill="#FCD5D5"/>
<circle cx="297.686" cy="119.33" r="5" transform="rotate(30 297.686 119.33)" fill="#FCD5D5"/>
<circle cx="265.686" cy="174.756" r="5" transform="rotate(30 265.686 174.756)" fill="#FCD5D5"/>
<circle cx="234.186" cy="229.315" r="5" transform="rotate(30 234.186 229.315)" fill="#FCD5D5"/>
<circle cx="201.686" cy="285.607" r="5" transform="rotate(30 201.686 285.607)" fill="#FCD5D5"/>
</svg>
