<svg width="1426" height="237" viewBox="0 0 1426 237" fill="none" xmlns="http://www.w3.org/2000/svg">
<path d="M564.872 124.34L589.465 102.981L580.252 134.225L579.37 137.217L582.458 136.769L614.694 132.097L590.052 153.4L587.692 155.44L590.532 156.733L620.177 170.231L587.93 174.829L584.841 175.27L586.531 177.892L604.173 205.275L574.558 191.709L571.722 190.41L571.726 193.53L571.763 226.104L554.184 198.681L552.5 196.054L550.816 198.681L533.237 226.104L533.274 193.53L533.278 190.41L530.442 191.709L500.827 205.275L518.469 177.892L520.159 175.27L517.07 174.829L484.823 170.231L514.468 156.733L517.308 155.44L514.948 153.4L490.306 132.097L522.542 136.769L525.63 137.217L524.748 134.225L515.535 102.981L540.128 124.34L542.483 126.386L543.359 123.392L552.5 92.1268L561.641 123.392L562.517 126.386L564.872 124.34Z" fill="#F99C9D" stroke="black" stroke-width="4"/>
<circle cx="1315" cy="125" r="108.5" fill="#FFC700" stroke="black" stroke-width="5"/>
<rect x="181.5" y="2.5" width="227" height="227" fill="white" stroke="black" stroke-width="5"/>
<rect x="2.5" y="87.5" width="142" height="142" fill="#AAC5DA" stroke="black" stroke-width="5"/>
<circle cx="1141" cy="159" r="75.5" fill="#F99C9D" stroke="black" stroke-width="5"/>
<rect x="738.5" y="192.5" width="279" height="41" fill="#FFC700" stroke="black" stroke-width="5"/>
</svg>
