<svg width="1426" height="243" viewBox="0 0 1426 243" fill="none" xmlns="http://www.w3.org/2000/svg">
<path d="M564.872 131.34L589.465 109.981L580.252 141.225L579.37 144.217L582.458 143.769L614.694 139.097L590.052 160.4L587.692 162.44L590.532 163.733L620.177 177.231L587.93 181.829L584.841 182.27L586.531 184.892L604.173 212.275L574.558 198.709L571.722 197.41L571.726 200.53L571.763 233.104L554.184 205.681L552.5 203.054L550.816 205.681L533.237 233.104L533.274 200.53L533.278 197.41L530.442 198.709L500.827 212.275L518.469 184.892L520.159 182.27L517.07 181.829L484.823 177.231L514.468 163.733L517.308 162.44L514.948 160.4L490.306 139.097L522.542 143.769L525.63 144.217L524.748 141.225L515.535 109.981L540.128 131.34L542.483 133.386L543.359 130.392L552.5 99.1268L561.641 130.392L562.517 133.386L564.872 131.34Z" fill="#F99C9D" stroke="black" stroke-width="4"/>
<circle cx="1315" cy="132" r="108.5" fill="#FFC700" stroke="black" stroke-width="5"/>
<rect x="181.5" y="13.5" width="227" height="227" fill="white" stroke="black" stroke-width="5"/>
<rect x="2.5" y="98.5" width="142" height="142" fill="#AAC5DA" stroke="black" stroke-width="5"/>
<circle cx="1141" cy="165" r="75.5" fill="#F99C9D" stroke="black" stroke-width="5"/>
<circle cx="474.5" cy="63.5" r="61" fill="#FFC700" stroke="black" stroke-width="5"/>
<rect x="738.5" y="199.5" width="279" height="41" fill="#FFC700" stroke="black" stroke-width="5"/>
<path d="M687.326 196.5L777.5 40.0074L867.674 196.5H687.326Z" fill="#AAC5DA" stroke="black" stroke-width="5"/>
</svg>
