<svg width="46" height="46" viewBox="0 0 46 46" fill="none" xmlns="http://www.w3.org/2000/svg">
<rect width="46" height="46" fill="#E5E5E5"/>
<rect x="1.5" y="1.5" width="43" height="43" fill="white" stroke="black" stroke-width="3"/>
<path fill-rule="evenodd" clip-rule="evenodd" d="M20.5816 10.4585C20.7956 9.977 21.2731 9.66669 21.8 9.66669C24.5246 9.66669 26.7333 11.8754 26.7333 14.6V18.0667H32.5932C33.6854 18.0567 34.7275 18.5257 35.4444 19.3501C36.1631 20.1767 36.4826 21.2771 36.3182 22.3601L34.6622 33.16C34.3835 34.9978 32.7954 36.3502 30.9374 36.3334L13.8066 36.3331C11.7302 36.3634 9.95723 34.8377 9.67869 32.7785C9.67068 32.7192 9.66666 32.6595 9.66666 32.5998V24.1998C9.66666 24.14 9.67068 24.0803 9.67869 24.021C9.94521 22.0506 11.6445 20.3023 13.8066 20.3335H16.1927L20.5816 10.4585ZM18.3333 22.083L22.6017 12.4792C23.4579 12.803 24.0667 13.6304 24.0667 14.6V19.4C24.0667 20.1364 24.6636 20.7334 25.4 20.7334H32.6L32.6151 20.7333C32.928 20.7297 33.2267 20.8638 33.432 21.0999C33.6374 21.3361 33.7287 21.6505 33.6818 21.9599L32.0261 32.7579L32.0257 32.7601C31.946 33.286 31.4909 33.6728 30.9591 33.6668L18.3333 33.6667V22.083ZM15.6667 33.6666L13.7961 33.6664L13.7724 33.6666C13.0681 33.6791 12.4624 33.1806 12.3333 32.4954V24.3029C12.4748 23.5306 13.1493 22.9889 13.7724 22.9999L13.796 23.0002H15.6667V33.6666Z" fill="black"/>
</svg>
