<svg width="46" height="46" viewBox="0 0 46 46" fill="none" xmlns="http://www.w3.org/2000/svg">
<rect width="46" height="46" fill="#E5E5E5"/>
<rect x="1.5" y="1.5" width="43" height="43" fill="white" stroke="black" stroke-width="3"/>
<path fill-rule="evenodd" clip-rule="evenodd" d="M23 11C18.5817 11 15 14.5817 15 19V31H31V19C31 14.5817 27.4183 11 23 11ZM33.6667 31V19C33.6667 13.1089 28.8911 8.33331 23 8.33331C17.109 8.33331 12.3333 13.1089 12.3333 19V31H9.66668C8.9303 31 8.33334 31.5969 8.33334 32.3333C8.33334 33.0697 8.9303 33.6666 9.66668 33.6666H18.3806C18.7041 35.9282 20.649 37.6666 23 37.6666C25.351 37.6666 27.2959 35.9282 27.6194 33.6666H36.3333C37.0697 33.6666 37.6667 33.0697 37.6667 32.3333C37.6667 31.5969 37.0697 31 36.3333 31H33.6667ZM24.8862 33.6666H21.1138C21.3884 34.4434 22.1292 35 23 35C23.8708 35 24.6116 34.4434 24.8862 33.6666Z" fill="black"/>
</svg>
