<svg width="46" height="46" viewBox="0 0 46 46" fill="none" xmlns="http://www.w3.org/2000/svg">
<rect width="46" height="46" fill="#E5E5E5"/>
<rect x="1.5" y="1.5" width="43" height="43" fill="white" stroke="black" stroke-width="3"/>
<path fill-rule="evenodd" clip-rule="evenodd" d="M22.2142 8.58945C22.6824 8.24793 23.3176 8.24793 23.7858 8.58945L26.9357 10.8872L30.8346 10.8798C31.4141 10.8787 31.928 11.252 32.106 11.8035L33.3038 15.5139L36.4624 17.7996C36.9319 18.1393 37.1281 18.7434 36.948 19.2942L35.7361 23L36.948 26.7057C37.1281 27.2565 36.9319 27.8606 36.4624 28.2004L33.3038 30.4861L32.106 34.1965C31.928 34.7479 31.4141 35.1213 30.8346 35.1202L26.9357 35.1128L23.7857 37.4105C23.3176 37.752 22.6824 37.752 22.2142 37.4105L19.0643 35.1128L15.1654 35.1202C14.5859 35.1213 14.072 34.7479 13.894 34.1965L12.6962 30.4861L9.53758 28.2004C9.0681 27.8606 8.87182 27.2565 9.05195 26.7057L10.2638 23L9.05195 19.2942C8.87182 18.7434 9.0681 18.1393 9.53758 17.7996L12.6962 15.5139L13.894 11.8035C14.072 11.252 14.5859 10.8787 15.1654 10.8798L19.0643 10.8872L22.2142 8.58945ZM23 11.317L20.2836 13.2985C20.0547 13.4655 19.7786 13.5552 19.4952 13.5547L16.1329 13.5483L15.1 16.7481C15.0129 17.0177 14.8423 17.2525 14.6128 17.4186L11.8888 19.3898L12.9339 22.5855C13.022 22.8548 13.022 23.1451 12.9339 23.4144L11.8888 26.6102L14.6128 28.5813C14.8423 28.7474 15.0129 28.9823 15.1 29.2519L16.1329 32.4517L19.4953 32.4453C19.7786 32.4448 20.0547 32.5345 20.2835 32.7014L23 34.6829L25.7164 32.7014C25.9453 32.5345 26.2214 32.4448 26.5047 32.4453L29.8671 32.4517L30.9 29.2519C30.987 28.9823 31.1577 28.7474 31.3872 28.5813L34.1111 26.6102L33.066 23.4144C32.978 23.1451 32.978 22.8548 33.066 22.5855L34.1111 19.3898L31.3872 17.4186C31.1577 17.2525 30.987 17.0177 30.9 16.7481L29.8671 13.5483L26.5047 13.5547C26.2214 13.5552 25.9453 13.4655 25.7164 13.2985L23 11.317ZM29.2761 18.7238C29.7968 19.2445 29.7968 20.0888 29.2761 20.6095L22.6095 27.2761C22.0888 27.7968 21.2445 27.7968 20.7238 27.2761L17.3905 23.9428C16.8698 23.4221 16.8698 22.5779 17.3905 22.0572C17.9112 21.5365 18.7554 21.5365 19.2761 22.0572L21.6667 24.4477L27.3905 18.7238C27.9112 18.2031 28.7554 18.2031 29.2761 18.7238Z" fill="black"/>
</svg>
