<svg width="46" height="46" viewBox="0 0 46 46" fill="none" xmlns="http://www.w3.org/2000/svg">
<rect width="46" height="46" fill="#E5E5E5"/>
<rect x="1.5" y="1.5" width="43" height="43" fill="white" stroke="black" stroke-width="3"/>
<path fill-rule="evenodd" clip-rule="evenodd" d="M8.33334 21C8.33334 14.0044 14.0044 8.33331 21 8.33331C27.9956 8.33331 33.6667 14.0044 33.6667 21C33.6667 24.0175 32.6115 26.7886 30.85 28.9644L35.7476 33.8619C36.2683 34.3826 36.2683 35.2268 35.7476 35.7475C35.2269 36.2682 34.3826 36.2682 33.8619 35.7475L28.9644 30.85C26.7886 32.6115 24.0175 33.6666 21 33.6666C14.0044 33.6666 8.33334 27.9956 8.33334 21ZM21 11C15.4772 11 11 15.4772 11 21C11 26.5228 15.4772 31 21 31C26.5228 31 31 26.5228 31 21C31 15.4772 26.5228 11 21 11ZM16.286 15.6192C17.491 14.4143 19.1595 13.6666 21 13.6666C22.8406 13.6666 24.5091 14.4143 25.714 15.6192C26.2347 16.1399 26.2347 16.9842 25.714 17.5049C25.1933 18.0256 24.3491 18.0256 23.8284 17.5049C23.1031 16.7796 22.1049 16.3333 21 16.3333C19.8951 16.3333 18.8969 16.7796 18.1715 17.5049C17.6508 18.0256 16.8066 18.0255 16.2859 17.5048C15.7652 16.9841 15.7653 16.1399 16.286 15.6192Z" fill="black"/>
</svg>
