<svg width="328" height="245" viewBox="0 0 328 245" fill="none" xmlns="http://www.w3.org/2000/svg">
<path fill-rule="evenodd" clip-rule="evenodd" d="M177.679 12.2324C176.347 12.6084 175.041 12.9773 173.765 13.3317C167.886 14.9648 163 18.8755 158.681 23.9441C154.454 28.903 150.944 34.7542 147.631 40.2784L147.379 40.6983C147.18 41.0298 146.687 42.0317 145.936 43.5607C145.754 43.9301 145.557 44.3303 145.346 44.7592C144.312 46.8564 143.015 49.4555 141.682 51.9097C140.368 54.3276 138.943 56.7467 137.647 58.4102C137.037 59.1938 136.252 60.0802 135.341 60.626C134.872 60.9071 134.115 61.2527 133.176 61.2045C132.108 61.1496 131.253 60.611 130.693 59.9121C128.449 57.1066 126.301 54.194 124.187 51.3284C123.797 50.7994 123.408 50.272 123.02 49.7472C120.511 46.3565 118.021 43.0513 115.356 39.945C110.038 33.7464 104.118 28.4533 96.312 25.1263C72.0616 14.7901 39.3002 22.0076 23.7668 42.7188C-3.40488 78.9477 2.4054 118.856 23.3994 154.605C44.4368 190.428 80.5159 221.593 112.705 239.437C114.024 240.168 114.501 241.83 113.77 243.149C113.038 244.468 111.376 244.945 110.057 244.214C77.1964 225.997 40.3185 194.2 18.69 157.371C-2.98177 120.467 -9.54596 78.0333 19.3976 39.4419C36.6092 16.4931 72.1592 8.89482 98.4534 20.1022C107.315 23.8793 113.882 29.8391 119.501 36.3888C122.305 39.6568 124.896 43.0996 127.41 46.4993C127.808 47.0365 128.203 47.5722 128.597 48.1059C130.258 50.3587 131.896 52.5783 133.574 54.7428C134.532 53.4476 135.685 51.5071 136.883 49.3022C138.161 46.9493 139.418 44.4322 140.447 42.3448C140.623 41.9872 140.796 41.6353 140.963 41.2947C141.722 39.7489 142.367 38.4361 142.696 37.8884C142.807 37.7028 142.919 37.5163 143.031 37.3288C146.284 31.9053 149.998 25.7122 154.524 20.4015C159.22 14.8913 164.973 10.1058 172.303 8.06949C173.545 7.72452 174.831 7.36098 176.154 6.9868C185.556 4.32794 196.858 1.13181 207.913 0.242087C220.566 -0.776119 233.486 1.16991 243.171 10.8546C254.875 22.5592 258.863 38.7005 258.863 54.1854V85.0119C258.863 86.9496 258.302 89.7951 257.534 92.815C256.745 95.9204 255.663 99.4817 254.48 102.977C253.297 106.472 252 109.937 250.774 112.849C249.579 115.684 248.36 118.219 247.308 119.692C245.934 121.616 244.435 124.759 242.798 128.763C241.57 131.765 240.322 135.1 239.025 138.565C238.611 139.673 238.191 140.794 237.766 141.922C236.025 146.537 234.196 151.234 232.273 155.351C230.372 159.42 228.275 163.155 225.929 165.697C224.906 166.805 223.179 166.874 222.07 165.851C220.962 164.828 220.893 163.1 221.916 161.992C223.666 160.096 225.475 156.999 227.324 153.039C229.152 149.128 230.918 144.601 232.656 139.994C233.068 138.903 233.478 137.805 233.887 136.711C235.191 133.227 236.48 129.781 237.743 126.695C239.384 122.681 241.084 119.008 242.864 116.517C243.525 115.592 244.543 113.571 245.74 110.728C246.906 107.961 248.157 104.623 249.307 101.225C250.457 97.827 251.495 94.4047 252.241 91.4693C253.009 88.4484 253.401 86.196 253.401 85.0119V54.1854C253.401 39.5233 249.619 25.0262 239.309 14.7164C231.249 6.65674 220.266 4.72714 208.352 5.68599C197.873 6.52929 187.13 9.5632 177.679 12.2324Z" fill="#1A1A1A"/>
<path d="M314.539 99.8944L291.368 76.7232L221.855 146.237L221.855 169.408L245.026 169.408L314.539 99.8944Z" fill="white"/>
<path fill-rule="evenodd" clip-rule="evenodd" d="M291.368 84.447L306.816 99.8944L242.763 163.946L227.316 163.946L227.316 148.499L291.368 84.447ZM221.855 146.237L221.855 169.408L245.026 169.408L314.539 99.8944L291.368 76.7232L221.855 146.237Z" fill="#1A1A1A"/>
<path d="M321.297 93.1356C324.496 89.9363 324.496 84.7493 321.297 81.55L309.711 69.9644C306.512 66.7651 301.325 66.7651 298.126 69.9644L288.471 79.619L311.642 102.79L321.297 93.1356Z" fill="white"/>
<path fill-rule="evenodd" clip-rule="evenodd" d="M305.849 73.8262L317.435 85.4118C318.501 86.4783 318.501 88.2073 317.435 89.2737L311.642 95.0665L296.195 79.619L301.987 73.8262C303.054 72.7598 304.783 72.7598 305.849 73.8262ZM321.297 81.55C324.496 84.7493 324.496 89.9363 321.297 93.1356L311.642 102.79L288.471 79.619L298.126 69.9644C301.325 66.7651 306.512 66.7651 309.711 69.9644L321.297 81.55Z" fill="#1A1A1A"/>
</svg>
