<svg width="192" height="196" viewBox="0 0 192 196" fill="none" xmlns="http://www.w3.org/2000/svg">
<path d="M110.019 40.4164L137.154 12.5421L132.28 51.1368L132.075 52.7639L133.615 52.2015L170.158 38.8613L149.02 71.5191L148.129 72.8958L149.761 73.0576L188.473 76.8936L155.259 97.1462L153.859 98L155.259 98.8538L188.473 119.106L149.761 122.942L148.129 123.104L149.02 124.481L170.158 157.139L133.615 143.799L132.075 143.236L132.28 144.863L137.154 183.458L110.019 155.584L108.875 154.409L108.354 155.964L96 192.851L83.6459 155.964L83.1251 154.409L81.9812 155.584L54.8456 183.458L59.7199 144.863L59.9254 143.236L58.3849 143.799L21.8424 157.139L42.9796 124.481L43.8707 123.104L42.2387 122.942L3.52698 119.106L36.7406 98.8538L38.1408 98L36.7406 97.1462L3.52698 76.8936L42.2387 73.0576L43.8707 72.8958L42.9796 71.5191L21.8424 38.8613L58.3849 52.2015L59.9254 52.7639L59.7199 51.1368L54.8456 12.5421L81.9812 40.4164L83.1251 41.5915L83.6459 40.0364L96 3.14887L108.354 40.0364L108.875 41.5915L110.019 40.4164Z" fill="#6652E4" stroke="black" stroke-width="2"/>
</svg>
