<?xml version="1.0" encoding="utf-8"?>
<!-- Generator: Adobe Illustrator 16.0.0, SVG Export Plug-In . SVG Version: 6.00 Build 0)  -->
<!DOCTYPE svg PUBLIC "-//W3C//DTD SVG 1.1//EN" "http://www.w3.org/Graphics/SVG/1.1/DTD/svg11.dtd">
<svg version="1.1" id="Layer_1" xmlns="http://www.w3.org/2000/svg" xmlns:xlink="http://www.w3.org/1999/xlink" x="0px" y="0px"
	 width="160px" height="160px" viewBox="0 0 160 160" enable-background="new 0 0 160 160" xml:space="preserve">
<polygon fill="#F37374" stroke="#000000" stroke-width="3" stroke-miterlimit="10" points="80.06,11.477 88.571,28.566 
	102.17,15.168 104.671,34.094 121.884,25.836 118.103,44.549 137.065,42.328 127.414,58.801 146.069,62.855 131.593,75.301 
	147.921,85.195 130.187,92.266 142.419,106.924 123.349,107.854 130.157,125.689 111.82,120.377 112.469,139.459 96.85,128.479 
	91.267,146.736 80.06,131.281 68.852,146.736 63.27,128.479 47.65,139.459 48.299,120.377 29.961,125.689 36.771,107.854 
	17.7,106.924 29.933,92.266 12.198,85.195 28.526,75.301 14.05,62.855 32.706,58.801 23.054,42.328 42.016,44.549 38.235,25.836 
	55.448,34.094 57.949,15.168 71.548,28.566 "/>
</svg>
