<?xml version="1.0" encoding="utf-8"?>
<!-- Generator: Adobe Illustrator 16.0.0, SVG Export Plug-In . SVG Version: 6.00 Build 0)  -->
<!DOCTYPE svg PUBLIC "-//W3C//DTD SVG 1.1//EN" "http://www.w3.org/Graphics/SVG/1.1/DTD/svg11.dtd">
<svg version="1.1" id="Layer_1" xmlns="http://www.w3.org/2000/svg" xmlns:xlink="http://www.w3.org/1999/xlink" x="0px" y="0px"
	 width="210px" height="210px" viewBox="0 0 210 210" style="enable-background:new 0 0 210 210;" xml:space="preserve">
<style type="text/css">
<![CDATA[
	.st0{font-size:12.649;}
	.st1{fill:none;}
	.st2{fill:#E4ECF2;stroke:#000000;stroke-width:4;stroke-miterlimit:10;}
	.st3{font-family:'FrancoisOne-Regular';}
]]>
</style>
<circle class="st2" cx="105" cy="105.799" r="100"/>
<path class="st1" d="M188.1,120.127c-7.914,45.895-51.533,76.686-97.428,68.771c-45.895-7.914-76.686-51.533-68.771-97.428
	c7.911-45.895,51.533-76.684,97.431-68.771C165.223,30.611,196.014,74.232,188.1,120.127z"/>
<text transform="matrix(1.2351 0.1924 -0.1539 0.9881 114.7979 21.9878)" class="st3 st0">S</text>
<text transform="matrix(1.2076 0.3229 -0.2583 0.9661 122.8945 23.2896)" class="st3 st0">C</text>
<text transform="matrix(1.1695 0.4413 -0.3531 0.9356 130.6855 25.3442)" class="st3 st0">R</text>
<text transform="matrix(1.1182 0.5587 -0.447 0.8945 138.8496 28.4185)" class="st3 st0">O</text>
<text transform="matrix(1.061 0.6609 -0.5287 0.8488 146.4248 32.2275)" class="st3 st0">L</text>
<text transform="matrix(1.0004 0.7495 -0.5996 0.8003 152.5479 36.0317)" class="st3 st0">L</text>
<text transform="matrix(0.9492 0.8133 -0.6507 0.7594 158.3496 40.4453)" class="st3 st0"> </text>
<text transform="matrix(0.8874 0.8804 -0.7043 0.7099 161.2334 42.7915)" class="st3 st0">D</text>
<text transform="matrix(0.7949 0.9647 -0.7718 0.6359 167.2959 48.7935)" class="st3 st0">O</text>
<text transform="matrix(0.6737 1.0529 -0.8423 0.5389 172.7441 55.2158)" class="st3 st0">W</text>
<text transform="matrix(0.5357 1.1294 -0.9035 0.4286 179.1563 65.356)" class="st3 st0">N</text>
<text transform="matrix(0.4462 1.1676 -0.9341 0.357 183.1211 73.9604)" class="st3 st0"> </text>
<text transform="matrix(0.3602 1.197 -0.9576 0.2882 184.5264 77.373)" class="st3 st0">A</text>
<text transform="matrix(0.2302 1.2286 -0.9829 0.1842 187.0176 85.5254)" class="st3 st0">N</text>
<text transform="matrix(0.0973 1.2462 -0.997 0.0779 188.7432 94.8018)" class="st3 st0">D</text>
<text transform="matrix(0.006 1.25 -1 0.0048 189.3281 103.3628)" class="st3 st0"> </text>
<text transform="matrix(-0.0815 1.2473 -0.9979 -0.0652 189.4277 107.0723)" class="st3 st0">C</text>
<text transform="matrix(-0.1924 1.2351 -0.9881 -0.1539 188.8906 115.0889)" class="st3 st0">H</text>
<text transform="matrix(-0.321 1.2081 -0.9665 -0.2568 187.458 123.8594)" class="st3 st0">E</text>
<text transform="matrix(-0.4303 1.1736 -0.9389 -0.3442 185.5713 131.0479)" class="st3 st0">C</text>
<text transform="matrix(-0.5452 1.1248 -0.8999 -0.4362 182.8242 138.6211)" class="st3 st0">K</text>
<text transform="matrix(-0.6272 1.0813 -0.865 -0.5017 178.9365 146.4404)" class="st3 st0"> </text>
<text transform="matrix(-0.7272 1.0167 -0.8133 -0.5818 177.2881 149.7139)" class="st3 st0">M</text>
<text transform="matrix(-0.8422 0.9236 -0.7389 -0.6738 170.0381 159.6377)" class="st3 st0">Y</text>
<text transform="matrix(-0.903 0.8643 -0.6915 -0.7224 164.7529 165.3379)" class="st3 st0"> </text>
<text transform="matrix(-0.9617 0.7985 -0.6388 -0.7694 162.1377 167.9619)" class="st3 st0">P</text>
<text transform="matrix(-1.0355 0.7002 -0.5601 -0.8284 155.8174 173.2295)" class="st3 st0">O</text>
<text transform="matrix(-1.1011 0.5917 -0.4733 -0.8809 148.7988 177.9961)" class="st3 st0">R</text>
<text transform="matrix(-1.1522 0.4847 -0.3878 -0.9217 141.1055 182.1035)" class="st3 st0">T</text>
<text transform="matrix(-1.1895 0.3843 -0.3074 -0.9516 134.3203 184.9609)" class="st3 st0">F</text>
<text transform="matrix(-1.2199 0.2726 -0.2181 -0.9759 127.5947 187.1768)" class="st3 st0">O</text>
<text transform="matrix(-1.2401 0.1573 -0.1258 -0.992 119.3184 189.0068)" class="st3 st0">L</text>
<text transform="matrix(-1.248 0.0711 -0.0569 -0.9984 112.1348 189.873)" class="st3 st0">I</text>
<text transform="matrix(-1.2498 -0.0249 0.0199 -0.9998 107.7627 190.208)" class="st3 st0">O</text>
<text transform="matrix(-1.2447 -0.1154 0.0923 -0.9957 99.2271 189.9551)" class="st3 st0"> </text>
<text transform="matrix(-1.2384 -0.1699 0.1359 -0.9907 95.5029 189.6133)" class="st3 st0"> </text>
<text transform="matrix(-1.2282 -0.2324 0.1859 -0.9826 91.7617 189.1152)" class="st3 st0"> </text>
</svg>
