<svg width="249" height="387" viewBox="0 0 249 387" fill="none" xmlns="http://www.w3.org/2000/svg">
<mask id="path-1-inside-1" fill="white">
<path fill-rule="evenodd" clip-rule="evenodd" d="M186.125 385.239L185.772 385.226C185.193 356.374 173.543 333.04 157.96 329.518L157.984 328.87C174.545 326.357 188.353 301.811 190.025 271.075L190.064 271.077C189.503 303.276 202.68 329.67 220.174 331.39L220.171 331.461C203.376 331.902 188.899 355.11 186.125 385.239Z"/>
</mask>
<path fill-rule="evenodd" clip-rule="evenodd" d="M186.125 385.239L185.772 385.226C185.193 356.374 173.543 333.04 157.96 329.518L157.984 328.87C174.545 326.357 188.353 301.811 190.025 271.075L190.064 271.077C189.503 303.276 202.68 329.67 220.174 331.39L220.171 331.461C203.376 331.902 188.899 355.11 186.125 385.239Z" fill="#C7B9FF"/>
<path d="M185.772 385.226L181.773 385.306L181.849 389.088L185.628 389.224L185.772 385.226ZM186.125 385.239L185.982 389.236L189.761 389.372L190.108 385.606L186.125 385.239ZM157.96 329.518L153.963 329.374L153.844 332.688L157.079 333.419L157.96 329.518ZM157.984 328.87L157.384 324.915L154.105 325.412L153.986 328.726L157.984 328.87ZM190.025 271.075L190.168 267.078L186.244 266.937L186.031 270.858L190.025 271.075ZM190.064 271.077L194.063 271.146L194.131 267.22L190.207 267.079L190.064 271.077ZM220.174 331.39L224.171 331.533L224.306 327.777L220.565 327.409L220.174 331.39ZM220.171 331.461L220.276 335.46L224.034 335.361L224.169 331.605L220.171 331.461ZM185.628 389.224L185.982 389.236L186.268 381.241L185.915 381.229L185.628 389.224ZM157.079 333.419C163.205 334.804 169.24 340.298 173.914 349.66C178.534 358.915 181.493 371.358 181.773 385.306L189.771 385.146C189.472 370.243 186.316 356.592 181.071 346.087C175.88 335.688 168.299 327.754 158.842 325.616L157.079 333.419ZM153.986 328.726L153.963 329.374L161.958 329.661L161.981 329.013L153.986 328.726ZM186.031 270.858C185.222 285.727 181.48 298.935 176.093 308.61C170.636 318.411 163.9 323.926 157.384 324.915L158.584 332.824C168.628 331.3 177.078 323.286 183.083 312.502C189.158 301.592 193.156 287.159 194.019 271.292L186.031 270.858ZM190.207 267.079L190.168 267.078L189.881 275.073L189.92 275.074L190.207 267.079ZM220.565 327.409C213.811 326.745 207.069 321.175 201.927 310.876C196.856 300.718 193.792 286.729 194.063 271.146L186.064 271.007C185.775 287.623 189.02 302.931 194.77 314.45C200.45 325.828 209.043 334.315 219.783 335.37L220.565 327.409ZM224.169 331.605L224.171 331.533L216.176 331.246L216.174 331.318L224.169 331.605ZM190.108 385.606C191.45 371.033 195.611 358.335 201.274 349.35C207.004 340.258 213.794 335.63 220.276 335.46L220.066 327.463C209.753 327.733 200.907 334.929 194.506 345.084C188.039 355.345 183.574 369.316 182.142 384.872L190.108 385.606Z" fill="black" mask="url(#path-1-inside-1)"/>
<mask id="path-3-inside-2" fill="white">
<path fill-rule="evenodd" clip-rule="evenodd" d="M32.2846 248.192C28.5971 227.261 17.4782 211.598 5.73934 210.799L5.6829 210.325C17.4507 206.622 24.7216 187.195 22.4588 164.638L22.4873 164.634C25.7241 188.131 38.3012 205.848 51.2269 205.119L51.2331 205.171C39.0603 207.393 31.1514 225.921 32.5431 248.161L32.2846 248.192Z"/>
</mask>
<path fill-rule="evenodd" clip-rule="evenodd" d="M32.2846 248.192C28.5971 227.261 17.4782 211.598 5.73934 210.799L5.6829 210.325C17.4507 206.622 24.7216 187.195 22.4588 164.638L22.4873 164.634C25.7241 188.131 38.3012 205.848 51.2269 205.119L51.2331 205.171C39.0603 207.393 31.1514 225.921 32.5431 248.161L32.2846 248.192Z" fill="#FF8A62"/>
<path d="M5.73934 210.799L1.76736 211.272L2.15918 214.564L5.46755 214.79L5.73934 210.799ZM32.2846 248.192L28.3452 248.886L29.0014 252.611L32.7572 252.164L32.2846 248.192ZM5.6829 210.325L4.48222 206.509L1.3191 207.504L1.71093 210.797L5.6829 210.325ZM22.4588 164.638L21.9861 160.666L18.0868 161.13L18.4788 165.037L22.4588 164.638ZM22.4873 164.634L26.4499 164.088L25.914 160.198L22.0147 160.662L22.4873 164.634ZM51.2269 205.119L55.1989 204.646L54.7547 200.914L51.0017 201.125L51.2269 205.119ZM51.2331 205.171L51.9514 209.106L55.6493 208.431L55.2051 204.699L51.2331 205.171ZM32.5431 248.161L33.0157 252.133L36.7715 251.686L36.5353 247.911L32.5431 248.161ZM5.46755 214.79C9.63377 215.073 14.397 218.102 18.7695 224.262C23.0729 230.324 26.5843 238.89 28.3452 248.886L36.2239 247.498C34.2974 236.563 30.4056 226.833 25.2929 219.631C20.2494 212.526 13.5838 207.324 6.01113 206.808L5.46755 214.79ZM1.71093 210.797L1.76736 211.272L9.71132 210.326L9.65488 209.852L1.71093 210.797ZM18.4788 165.037C19.5603 175.818 18.3409 185.69 15.58 193.166C12.7691 200.777 8.66394 205.193 4.48222 206.509L6.88359 214.14C14.4697 211.753 19.8839 204.604 23.0846 195.937C26.3354 187.134 27.6201 176.014 26.4388 164.238L18.4788 165.037ZM22.0147 160.662L21.9861 160.666L22.9314 168.61L22.96 168.606L22.0147 160.662ZM51.0017 201.125C46.5377 201.377 41.3005 198.428 36.4855 191.646C31.7607 184.99 27.9978 175.325 26.4499 164.088L18.5248 165.18C20.2137 177.44 24.3577 188.382 29.9621 196.276C35.4762 204.044 42.9904 209.59 51.4521 209.113L51.0017 201.125ZM55.2051 204.699L55.1989 204.646L47.2549 205.592L47.2611 205.644L55.2051 204.699ZM36.5353 247.911C35.8703 237.284 37.4473 227.745 40.4729 220.747C43.5483 213.634 47.7497 209.873 51.9514 209.106L50.5148 201.236C42.5437 202.691 36.7043 209.305 33.1299 217.572C29.5059 225.954 27.8242 236.798 28.5509 248.411L36.5353 247.911ZM32.7572 252.164L33.0157 252.133L32.0705 244.189L31.8119 244.22L32.7572 252.164Z" fill="black" mask="url(#path-3-inside-2)"/>
<mask id="path-5-inside-3" fill="white">
<path fill-rule="evenodd" clip-rule="evenodd" d="M197.891 105.274C202.187 79.9139 195.871 57.5419 182.813 51.8636L182.941 51.3005C197.861 51.8575 214.039 32.6622 220.619 6.02708L220.653 6.03479C214.802 34.1366 221.946 59.4423 236.978 63.8604L236.964 63.9221C222.184 61.5122 205.643 79.4234 198.199 105.344L197.891 105.274Z"/>
</mask>
<path fill-rule="evenodd" clip-rule="evenodd" d="M197.891 105.274C202.187 79.9139 195.871 57.5419 182.813 51.8636L182.941 51.3005C197.861 51.8575 214.039 32.6622 220.619 6.02708L220.653 6.03479C214.802 34.1366 221.946 59.4423 236.978 63.8604L236.964 63.9221C222.184 61.5122 205.643 79.4234 198.199 105.344L197.891 105.274Z" fill="#C9DED2"/>
<path d="M182.813 51.8636L178.913 50.9761L178.177 54.2095L181.218 55.5318L182.813 51.8636ZM197.891 105.274L193.948 104.606L193.316 108.335L197.004 109.174L197.891 105.274ZM182.941 51.3005L183.09 47.3033L179.777 47.1795L179.041 50.413L182.941 51.3005ZM220.619 6.02708L221.507 2.12678L217.678 1.25549L216.736 5.06773L220.619 6.02708ZM220.653 6.03479L224.569 6.85018L225.37 3.00578L221.541 2.1345L220.653 6.03479ZM236.978 63.8604L240.878 64.7479L241.712 61.0827L238.106 60.0227L236.978 63.8604ZM236.964 63.9221L236.32 67.87L240.03 68.4749L240.864 64.8096L236.964 63.9221ZM198.199 105.344L197.311 109.244L200.999 110.083L202.043 106.448L198.199 105.344ZM181.218 55.5318C186.182 57.6902 190.494 63.3599 193.011 72.2749C195.495 81.075 196.016 92.3962 193.948 104.606L201.835 105.942C204.063 92.7916 203.574 80.2469 200.71 70.1014C197.878 60.0708 192.503 51.7153 184.408 48.1954L181.218 55.5318ZM179.041 50.413L178.913 50.9761L186.713 52.7511L186.841 52.188L179.041 50.413ZM216.736 5.06773C213.566 17.9003 208.116 28.7805 201.838 36.2964C195.466 43.9232 188.767 47.5152 183.09 47.3033L182.792 55.2977C192.035 55.6428 200.885 49.9156 207.977 41.4253C215.163 32.824 221.092 20.789 224.502 6.98643L216.736 5.06773ZM221.541 2.1345L221.507 2.12678L219.732 9.92737L219.765 9.93509L221.541 2.1345ZM238.106 60.0227C232.51 58.3782 227.603 52.5525 224.834 42.7422C222.106 33.082 221.749 20.3953 224.569 6.85018L216.737 5.2194C213.706 19.7761 213.995 33.7932 217.135 44.9157C220.232 55.8883 226.413 64.9245 235.85 67.698L238.106 60.0227ZM240.864 64.8096L240.878 64.7479L233.077 62.9729L233.063 63.0346L240.864 64.8096ZM202.043 106.448C205.629 93.9626 211.357 83.6016 217.756 76.7365C224.241 69.7797 230.821 66.9733 236.32 67.87L237.607 59.9742C228.326 58.461 219.246 63.4052 211.904 71.2817C204.477 79.2499 198.213 90.8047 194.354 104.24L202.043 106.448ZM197.004 109.174L197.311 109.244L199.086 101.444L198.779 101.374L197.004 109.174Z" fill="black" mask="url(#path-5-inside-3)"/>
</svg>
