<svg width="367" height="445" viewBox="0 0 367 445" fill="none" xmlns="http://www.w3.org/2000/svg">
<mask id="path-1-inside-1" fill="white">
<path fill-rule="evenodd" clip-rule="evenodd" d="M32.0962 0H32.4496C34.063 28.8124 46.5416 51.7142 62.2406 54.6753V55.3239C45.7804 58.4286 32.8606 83.4545 32.2924 114.23H32.2534C31.6589 82.0314 17.5441 56.1265 0 55.0354V54.9638C16.7687 53.9209 30.4045 30.2092 32.0962 0Z"/>
</mask>
<path fill-rule="evenodd" clip-rule="evenodd" d="M32.0962 0H32.4496C34.063 28.8124 46.5416 51.7142 62.2406 54.6753V55.3239C45.7804 58.4286 32.8606 83.4545 32.2924 114.23H32.2534C31.6589 82.0314 17.5441 56.1265 0 55.0354V54.9638C16.7687 53.9209 30.4045 30.2092 32.0962 0Z" fill="#F99C9D"/>
<path d="M32.4496 0L36.4433 -0.223646L36.2318 -4H32.4496V0ZM32.0962 0V-4H28.3139L28.1024 -0.223646L32.0962 0ZM62.2406 54.6753H66.2406V51.3593L62.982 50.7447L62.2406 54.6753ZM62.2406 55.3239L62.982 59.2546L66.2406 58.6399V55.3239H62.2406ZM32.2924 114.23V118.23H36.2192L36.2917 114.304L32.2924 114.23ZM32.2534 114.23L28.254 114.304L28.3265 118.23H32.2534V114.23ZM0 55.0354H-4V58.7944L-0.248294 59.0277L0 55.0354ZM0 54.9638L-0.248294 50.9715L-4 51.2049V54.9638H0ZM32.4496 -4H32.0962V4H32.4496V-4ZM62.982 50.7447C56.8101 49.5805 50.5818 44.3063 45.5754 35.118C40.6262 26.0347 37.2234 13.7062 36.4433 -0.223646L28.4558 0.223646C29.2892 15.1061 32.9324 28.6347 38.5506 38.9457C44.1115 49.1518 51.9721 56.809 61.4992 58.606L62.982 50.7447ZM66.2406 55.3239V54.6753H58.2406V55.3239H66.2406ZM36.2917 114.304C36.5666 99.4156 39.8324 86.0816 44.8693 76.2198C49.9719 66.2293 56.5055 60.4762 62.982 59.2546L61.4992 51.3932C51.5156 53.2763 43.3591 61.5884 37.7447 72.581C32.0646 83.7022 28.5864 98.269 28.2931 114.156L36.2917 114.304ZM32.2534 118.23H32.2924V110.23H32.2534V118.23ZM-0.248294 59.0277C6.52561 59.449 13.4632 64.7741 18.9703 74.8812C24.4029 84.8516 27.9663 98.7211 28.254 114.304L36.2527 114.156C35.9459 97.5404 32.1548 82.3582 25.9952 71.0536C19.9103 59.8859 11.0185 51.7129 0.248294 51.0431L-0.248294 59.0277ZM-4 54.9638V55.0354H4V54.9638H-4ZM28.1024 -0.223646C27.2842 14.3878 23.5814 27.2265 18.2437 36.4091C12.8432 45.7 6.22384 50.569 -0.248294 50.9715L0.248294 58.9561C10.5448 58.3157 19.1277 50.8074 25.1602 40.4294C31.2555 29.9432 35.2165 15.8215 36.0899 0.223646L28.1024 -0.223646Z" fill="black" mask="url(#path-1-inside-1)"/>
<mask id="path-3-inside-2" fill="white">
<path fill-rule="evenodd" clip-rule="evenodd" d="M337.093 73.8806L337.442 73.9343C334.656 102.657 343.507 127.19 358.573 132.504L358.474 133.145C341.733 133.711 325.158 156.481 319.917 186.812L319.878 186.806C324.187 154.892 314.175 127.142 297.001 123.395L297.012 123.325C313.744 124.844 330.827 103.481 337.093 73.8806Z"/>
</mask>
<path fill-rule="evenodd" clip-rule="evenodd" d="M337.093 73.8806L337.442 73.9343C334.656 102.657 343.507 127.19 358.573 132.504L358.474 133.145C341.733 133.711 325.158 156.481 319.917 186.812L319.878 186.806C324.187 154.892 314.175 127.142 297.001 123.395L297.012 123.325C313.744 124.844 330.827 103.481 337.093 73.8806Z" fill="#6652E4"/>
<path d="M337.442 73.9343L341.424 74.3206L341.789 70.556L338.05 69.9809L337.442 73.9343ZM337.093 73.8806L337.701 69.9271L333.963 69.352L333.18 73.0523L337.093 73.8806ZM358.573 132.504L362.526 133.112L363.03 129.835L359.903 128.732L358.573 132.504ZM358.474 133.145L358.609 137.143L361.923 137.031L362.428 133.753L358.474 133.145ZM319.917 186.812L319.309 190.766L323.19 191.363L323.858 187.493L319.917 186.812ZM319.878 186.806L315.914 186.271L315.389 190.163L319.27 190.76L319.878 186.806ZM297.001 123.395L293.048 122.787L292.476 126.502L296.149 127.303L297.001 123.395ZM297.012 123.325L297.374 119.341L293.63 119.001L293.059 122.716L297.012 123.325ZM338.05 69.9809L337.701 69.9271L336.485 77.8341L336.834 77.8878L338.05 69.9809ZM359.903 128.732C353.98 126.643 348.626 120.483 345.075 110.64C341.565 100.91 340.076 88.2071 341.424 74.3206L333.461 73.5481C332.022 88.3842 333.565 102.31 337.55 113.355C341.494 124.288 348.099 133.051 357.242 136.276L359.903 128.732ZM362.428 133.753L362.526 133.112L354.619 131.896L354.521 132.537L362.428 133.753ZM323.858 187.493C326.394 172.82 331.649 160.138 338.127 151.156C344.69 142.058 352.022 137.365 358.609 137.143L358.339 129.147C348.185 129.49 338.86 136.465 331.639 146.476C324.334 156.605 318.681 170.473 315.975 186.131L323.858 187.493ZM319.27 190.76L319.309 190.766L320.525 182.859L320.486 182.853L319.27 190.76ZM296.149 127.303C302.78 128.75 308.827 135.068 312.733 145.895C316.586 156.576 317.999 170.826 315.914 186.271L323.842 187.341C326.066 170.872 324.627 155.29 320.258 143.18C315.942 131.217 308.397 121.787 297.854 119.487L296.149 127.303ZM293.059 122.716L293.048 122.787L300.955 124.004L300.966 123.933L293.059 122.716ZM333.18 73.0523C330.149 87.3693 324.537 99.4957 317.865 107.76C311.115 116.122 303.832 119.927 297.374 119.341L296.65 127.308C306.925 128.241 316.549 122.125 324.09 112.785C331.709 103.348 337.771 89.9925 341.006 74.7089L333.18 73.0523Z" fill="black" mask="url(#path-3-inside-2)"/>
<mask id="path-5-inside-3" fill="white">
<path fill-rule="evenodd" clip-rule="evenodd" d="M138.469 352.753C143.111 374.686 155.399 390.797 167.803 391.216L167.879 391.714C155.607 396.043 148.643 416.785 151.843 440.483L151.813 440.488C147.553 415.834 133.654 397.611 120.054 398.846L120.046 398.791C132.798 396.009 140.467 376.191 138.197 352.795L138.469 352.753Z"/>
</mask>
<path fill-rule="evenodd" clip-rule="evenodd" d="M138.469 352.753C143.111 374.686 155.399 390.797 167.803 391.216L167.879 391.714C155.607 396.043 148.643 416.785 151.843 440.483L151.813 440.488C147.553 415.834 133.654 397.611 120.054 398.846L120.046 398.791C132.798 396.009 140.467 376.191 138.197 352.795L138.469 352.753Z" fill="#AAC5DA"/>
<path d="M167.803 391.216L171.756 390.608L171.252 387.33L167.938 387.218L167.803 391.216ZM138.469 352.753L142.382 351.925L141.599 348.225L137.86 348.8L138.469 352.753ZM167.879 391.714L169.21 395.486L172.337 394.383L171.833 391.106L167.879 391.714ZM151.843 440.483L152.451 444.437L156.332 443.839L155.807 439.948L151.843 440.483ZM151.813 440.488L147.871 441.169L148.54 445.038L152.421 444.441L151.813 440.488ZM120.054 398.846L116.101 399.454L116.672 403.169L120.416 402.829L120.054 398.846ZM120.046 398.791L119.193 394.883L115.521 395.684L116.092 399.399L120.046 398.791ZM138.197 352.795L137.589 348.842L133.851 349.417L134.216 353.181L138.197 352.795ZM167.938 387.218C163.442 387.066 158.257 383.988 153.406 377.627C148.627 371.361 144.605 362.425 142.382 351.925L134.555 353.582C136.976 365.015 141.418 375.101 147.045 382.478C152.599 389.761 159.759 394.947 167.668 395.214L167.938 387.218ZM171.833 391.106L171.756 390.608L163.849 391.824L163.926 392.322L171.833 391.106ZM155.807 439.948C154.274 428.594 155.204 418.109 157.857 410.092C160.555 401.937 164.757 397.057 169.21 395.486L166.549 387.942C158.73 390.7 153.314 398.355 150.262 407.578C147.165 416.939 146.212 428.674 147.879 441.018L155.807 439.948ZM152.421 444.441L152.451 444.437L151.235 436.53L151.205 436.534L152.421 444.441ZM120.416 402.829C125.222 402.393 130.914 405.381 136.255 412.384C141.502 419.263 145.829 429.351 147.871 441.169L155.755 439.807C153.536 426.971 148.784 415.62 142.617 407.533C136.543 399.57 128.486 394.064 119.692 394.862L120.416 402.829ZM116.092 399.399L116.101 399.454L124.008 398.237L123.999 398.182L116.092 399.399ZM134.216 353.181C135.303 364.388 133.983 374.537 131.031 382.062C128.033 389.704 123.698 393.9 119.193 394.883L120.898 402.699C129.146 400.9 135.021 393.796 138.479 384.984C141.982 376.056 143.361 364.598 142.179 352.409L134.216 353.181ZM137.86 348.8L137.589 348.842L138.806 356.749L139.077 356.707L137.86 348.8Z" fill="black" mask="url(#path-5-inside-3)"/>
</svg>
