<?xml version="1.0" standalone="no"?>
<!DOCTYPE svg PUBLIC "-//W3C//DTD SVG 20010904//EN"
 "http://www.w3.org/TR/2001/REC-SVG-20010904/DTD/svg10.dtd">
<svg version="1.0" xmlns="http://www.w3.org/2000/svg"
 width="200.000000pt" height="200.000000pt" viewBox="0 0 200.000000 200.000000"
 preserveAspectRatio="xMidYMid meet">
<metadata>
Created by potrace 1.11, written by Peter Selinger 2001-2013
</metadata>
<g transform="translate(0.000000,200.000000) scale(0.100000,-0.100000)"
fill="#000000" stroke="none">
<path d="M896 1782 c-3 -2 -15 -5 -28 -7 -31 -5 -65 -13 -91 -21 -12 -5 -26
-8 -32 -8 -15 -1 -129 -60 -133 -69 -2 -4 -8 -5 -13 -1 -5 3 -9 0 -9 -5 0 -6
-6 -11 -13 -11 -6 0 -31 -18 -55 -40 -35 -34 -47 -39 -70 -34 -15 4 -31 10
-37 14 -5 4 -31 11 -57 14 -36 6 -55 3 -76 -10 -50 -29 -53 -44 -21 -109 15
-32 38 -69 51 -82 18 -20 20 -27 10 -41 -6 -9 -23 -38 -37 -64 -25 -48 -35
-53 -147 -75 -16 -3 -28 -9 -28 -13 0 -4 -11 -11 -24 -14 -14 -3 -38 -18 -55
-32 -29 -24 -31 -30 -31 -94 0 -50 4 -73 15 -82 9 -7 24 -20 33 -29 23 -23
101 -65 134 -73 24 -5 61 -52 63 -78 0 -3 3 -9 7 -13 4 -4 4 -13 2 -20 -3 -7
0 -16 5 -20 6 -3 9 -10 6 -15 -6 -10 49 -125 65 -135 5 -3 10 -15 10 -26 0
-10 4 -19 10 -19 5 0 16 -15 23 -32 15 -34 131 -146 202 -194 45 -30 145 -77
145 -68 0 4 7 1 15 -6 8 -7 15 -9 15 -4 0 4 5 3 12 -4 7 -7 18 -12 24 -12 7 0
25 -5 41 -11 15 -7 62 -13 103 -14 41 -1 76 -3 78 -5 2 -2 71 -2 75 0 3 2 40
10 69 15 75 11 251 81 268 106 3 4 12 9 20 11 8 2 28 15 45 30 35 32 39 33 95
13 70 -25 98 -27 133 -9 45 24 57 43 46 73 -5 13 -7 26 -5 29 5 4 -21 59 -34
72 -3 3 -11 15 -18 28 -13 24 -7 92 9 92 5 0 9 9 9 20 0 18 13 25 63 36 4 1 8
2 10 4 1 1 11 3 22 5 36 6 49 11 95 32 80 37 90 52 90 125 0 59 -2 66 -32 94
-28 26 -102 77 -118 80 -3 1 -20 7 -38 14 -30 11 -37 22 -47 76 -2 10 -4 19
-5 19 -3 0 -11 41 -11 58 0 9 -4 17 -10 17 -5 0 -9 8 -9 18 0 10 -6 26 -14 37
-7 11 -13 22 -13 25 0 4 -16 32 -78 138 -20 35 -151 153 -210 189 -71 45 -176
85 -280 110 -25 6 -234 10 -239 5z m-506 -296 c-1 -33 -11 -24 -24 21 -6 18
-4 22 8 17 10 -4 16 -18 16 -38z m-167 -356 c3 -11 1 -22 -4 -25 -4 -3 -7 -23
-5 -45 5 -59 -4 -65 -59 -40 -74 35 -85 81 -22 100 23 8 45 13 50 12 4 -1 7 3
7 8 0 19 28 10 33 -10z m1642 -183 c29 -18 53 -47 43 -51 -2 -1 -17 -11 -34
-23 -28 -19 -58 -27 -91 -24 -12 1 -12 85 0 98 3 3 3 12 0 20 -5 13 -1 15 21
9 15 -4 43 -17 61 -29z"/>
</g>
</svg>
