<svg width="97" height="59" viewBox="0 0 97 59" fill="none" xmlns="http://www.w3.org/2000/svg">
<path d="M24.8213 29.6781C30.2433 29.6781 34.6533 23.0341 34.6533 14.8671C34.6533 6.70211 30.2433 0.0581055 24.8213 0.0581055C19.3993 0.0581055 14.9883 6.70211 14.9883 14.8671C14.9883 23.0341 19.4003 29.6781 24.8213 29.6781Z" fill="#88B2C4"/>
<path d="M71.6044 29.6781C77.0264 29.6781 81.4374 23.0341 81.4374 14.8671C81.4374 6.70211 77.0264 0.0581055 71.6044 0.0581055C66.1834 0.0581055 61.7734 6.70211 61.7734 14.8671C61.7734 23.0341 66.1844 29.6781 71.6044 29.6781Z" fill="#88B2C4"/>
<path d="M95.8554 36.806C95.2554 36.201 94.3393 36.036 93.5704 36.406C81.2324 42.29 65.1254 45.53 48.2144 45.53C31.3074 45.53 15.1994 42.29 2.86035 36.407C2.09035 36.04 1.17235 36.202 0.576352 36.807C-0.0226478 37.413 -0.170648 38.333 0.207352 39.097C5.81335 50.448 25.5564 58.374 48.2154 58.374C70.8833 58.374 90.6273 50.445 96.2273 39.095C96.6033 38.332 96.4534 37.411 95.8554 36.806Z" fill="#88B2C4"/>
</svg>
