<svg width="65" height="65" viewBox="0 0 65 65" fill="none" xmlns="http://www.w3.org/2000/svg">
<g clip-path="url(#clip0)">
<path d="M5.45707 28.2794L5.27289 28.234C5.40661 27.6899 5.26028 27.4909 4.8995 27.4027L0.98901 26.4429C0.635804 26.3573 0.486953 26.4833 0.353239 27.0274L0.169067 26.982L0.840159 24.2513C1.03947 23.4377 1.68533 22.8784 2.5305 23.0875C3.48668 23.3218 3.83484 24.1153 3.62039 24.997L3.24953 26.5084L5.01304 26.9417C5.37381 27.0299 5.59583 26.914 5.74468 26.312L5.92885 26.3573L5.45707 28.2794ZM3.06788 26.4631L3.40847 25.0751C3.60021 24.2967 3.00481 23.74 2.4094 23.5939C1.82157 23.4503 1.17318 23.7097 0.983964 24.473L0.769517 25.3471C0.681216 25.7074 0.751857 25.8963 1.10506 25.982L3.06788 26.4631Z" fill="black"/>
<path d="M1.65753 21.3217L2.46991 19.581L2.64146 19.6616C2.4144 20.1478 2.45729 20.377 2.74742 20.5105L5.56803 21.823C6.40563 22.2109 7.27603 21.8507 7.68979 20.9589C7.99253 20.309 8.06318 19.3744 6.92282 18.8429L4.12997 17.5456C3.84236 17.412 3.65062 17.4977 3.41095 18.0116L3.23939 17.931L3.94328 16.4246L4.11484 16.5052C3.87516 17.0191 3.93067 17.2206 4.2208 17.3541L7.05402 18.6716C8.15905 19.1855 8.3306 20.1755 7.81593 21.2763C7.39208 22.1882 6.48889 22.7777 5.29051 22.2185L2.54559 20.9413C2.25798 20.8078 2.07633 20.8733 1.83161 21.3998L1.65753 21.3217Z" fill="black"/>
<path d="M9.06736 18.4523L8.91598 18.3389C9.25405 17.8829 9.26414 17.7041 8.94121 17.4648L5.69424 15.0742C5.39654 14.855 5.17704 14.8827 4.8415 15.3387L4.69012 15.2253L6.23919 13.1269C6.92289 12.2024 7.74031 11.9984 8.32562 12.4291C8.752 12.744 8.94626 13.2428 8.61071 14.1043C9.38524 13.3889 10.0513 13.4015 10.624 13.8222C11.2522 14.2832 11.4515 15.2203 10.7072 16.2304L9.06736 18.4523ZM7.37197 15.7191L8.202 14.593C8.66117 13.9733 8.45682 13.1647 7.98756 12.8196C7.60912 12.5425 6.92794 12.5097 6.38047 13.2503L5.92635 13.865C5.66144 14.2227 5.67658 14.4696 5.97428 14.6887L7.37197 15.7191ZM7.52587 15.8324L9.22378 17.0844C9.54671 17.3212 9.73845 17.228 10.0034 16.8703L10.4978 16.2002C11.0731 15.4218 10.8662 14.6207 10.3288 14.2252C9.799 13.8348 8.93112 13.928 8.43159 14.6031L7.52587 15.8324Z" fill="black"/>
<path d="M12.1478 14.3589L12.0191 14.2203C12.4379 13.8274 12.4253 13.6032 12.2134 13.3764L9.40035 10.3838C9.15815 10.1243 8.97398 10.1394 8.55518 10.5324L8.42651 10.3938L9.87214 9.03857L10.0008 9.17712C9.5265 9.62048 9.50379 9.79682 9.74851 10.0563L12.559 13.049C12.7709 13.2757 12.9904 13.3084 13.2982 13.0187L13.8659 12.4872C14.3957 11.9909 14.5445 11.2201 14.3402 10.3964L14.4966 10.3535L14.9936 11.6912L12.1478 14.3589Z" fill="black"/>
<path d="M12.7104 6.61521L14.3805 5.43628L14.489 5.58994C14.0072 5.93002 13.9113 6.13659 14.1308 6.44391L16.5124 9.8069C16.6865 10.0538 16.9312 10.0563 17.4131 9.71621L17.5216 9.86987L15.8539 11.0488L15.7454 10.8951C16.2273 10.5551 16.3055 10.3233 16.1314 10.0764L13.7498 6.71346C13.5303 6.40613 13.3058 6.42628 12.8239 6.76636L12.7104 6.61521Z" fill="black"/>
<path d="M17.577 8.14415C18.2153 8.50438 19.0984 8.84698 20.047 8.35827C20.7256 8.00812 21.1015 7.46652 20.6979 6.68812C20.3573 6.03064 19.8426 6.02308 18.6442 6.25736C17.7839 6.4211 16.8025 6.50171 16.3509 5.62758C16.0583 5.06331 16.0759 4.22193 17.1582 3.6627C17.6426 3.41331 18.0261 3.44606 18.2002 3.35537C18.233 3.33774 18.2608 3.32514 18.2734 3.29995L18.5408 3.01025L19.6029 3.9927L19.5373 4.11109C18.7956 3.6501 17.9984 3.44102 17.2188 3.84407C16.6739 4.12621 16.2979 4.63255 16.6562 5.32529C17.0245 6.0382 17.8218 5.96514 18.6367 5.79384C19.6736 5.57468 20.5717 5.50163 21.0183 6.36064C21.5077 7.30782 21.0158 8.0711 20.1555 8.51446C19.6786 8.76133 19.1438 8.76385 18.9874 8.84446C18.8385 8.92003 18.6922 9.11652 18.6013 9.29789L17.4711 8.26507L17.577 8.14415Z" fill="black"/>
<path d="M22.2066 7.31055L22.1536 7.12917C22.6986 6.97047 22.8045 6.79161 22.7087 6.45657L21.5557 2.48649C21.4724 2.20436 21.311 2.10863 20.7459 2.27237L20.6929 2.091L22.5396 1.55695L22.5926 1.73833C22.0628 1.89199 21.9316 2.07084 22.0149 2.35298L22.5472 4.1894L25.3905 3.36817L24.8582 1.53176C24.7749 1.24962 24.5428 1.17405 24.0408 1.32016L23.9878 1.13878L25.8345 0.604736L25.8875 0.786111C25.3628 0.937256 25.2265 1.11863 25.3098 1.40077L26.4627 5.37337C26.5586 5.70841 26.7731 5.79406 27.2978 5.64291L27.3508 5.82428L25.504 6.35833L25.4511 6.17696C25.9531 6.03085 26.1095 5.83688 26.0111 5.50436L25.4435 3.55207L22.6002 4.37329L23.1678 6.32558C23.2637 6.66062 23.4655 6.75131 24.0029 6.59513L24.0559 6.7765L22.2066 7.31055Z" fill="black"/>
<path d="M27.699 5.79129L27.6838 5.60236C28.196 5.55954 28.3877 5.38572 28.3575 5.02297L28.027 0.984874C27.9992 0.63724 27.7848 0.518843 27.2701 0.561668L27.2549 0.372736L31.2159 0.050293L31.8491 1.28716L31.7432 1.37281C31.3294 0.944569 30.9687 0.259377 29.798 0.355103L29.0588 0.415561C28.6652 0.448309 28.4735 0.599454 28.5013 0.947088L28.6501 2.76335L29.798 2.67014C30.3253 2.62732 30.5953 2.37793 30.5347 1.66251L30.7164 1.64739L30.8879 3.75587L30.7063 3.77098C30.6508 3.10091 30.3405 2.82885 29.8132 2.87419L28.6652 2.9674L28.8292 4.9877C28.8595 5.35045 29.0765 5.49152 29.4751 5.45877L30.184 5.40083C31.0595 5.3303 31.5666 4.92473 32.1014 4.03801L32.2427 4.08839L31.8391 5.45625L27.699 5.79129Z" fill="black"/>
<path d="M32.8104 5.40344L32.8305 5.21451C33.3957 5.27245 33.5647 5.11627 33.6026 4.75604L34.0264 0.712902C34.0617 0.382901 33.923 0.246871 33.3578 0.186412L33.378 0L35.8227 0.256947C36.9883 0.377863 37.5332 1.00512 37.4525 1.77344C37.3793 2.47878 36.8546 3.0481 35.8404 2.99519L36.8394 5.28756C36.9681 5.5823 37.1725 5.67298 37.5711 5.71329L37.5509 5.90222L36.5342 5.7939L35.3257 2.94733L34.2787 2.83901L34.0718 4.80894C34.034 5.16917 34.2106 5.36314 34.7379 5.41856L34.7177 5.60749L32.8104 5.40344ZM34.3014 2.65008L35.694 2.79619C36.5291 2.88435 36.8697 2.32008 36.9328 1.71802C37.0085 1.00512 36.5796 0.526489 35.7647 0.44084L35.0961 0.370306C34.7429 0.33252 34.5335 0.433283 34.4982 0.763283L34.3014 2.65008Z" fill="black"/>
<path d="M40.2352 6.5295L40.3084 6.35568C40.8054 6.56224 41.0274 6.49927 41.1737 6.14911L42.7178 2.44354C42.8641 2.0959 42.7506 1.89186 42.2535 1.68529L42.3267 1.51147L43.2703 1.90445L44.7058 7.42881L46.2221 3.78621C46.3356 3.51415 46.1994 3.32774 45.6544 3.10102L45.7276 2.9272L47.3271 3.59224L47.2539 3.76606C46.7922 3.57461 46.5349 3.60484 46.4239 3.87186L44.5544 8.36339L44.4434 8.31805L42.9499 2.47628L41.3831 6.23728C41.2368 6.58492 41.3352 6.7814 41.9104 7.02072L41.8373 7.19453L40.2352 6.5295Z" fill="black"/>
<path d="M50.9853 5.76369L49.7693 10.7968C49.6432 11.215 49.7466 11.4518 50.0771 11.681L49.9686 11.8372L48.3867 10.7439L48.4952 10.5877C48.9065 10.8724 49.126 10.9505 49.2597 10.759C49.295 10.7087 49.3253 10.6381 49.3505 10.5474L49.6684 9.2224L47.7939 7.92759L46.8326 8.59767C46.7141 8.69087 46.6232 8.76645 46.5728 8.8395C46.4164 9.0637 46.5551 9.25011 46.9664 9.53477L46.8579 9.69095L45.5005 8.75385L45.609 8.59767C45.9521 8.83446 46.1313 8.8395 46.7166 8.40622L50.5388 5.66797L50.9853 5.76369ZM50.4681 6.03072L47.9881 7.79156L49.7315 8.99568L50.4681 6.03072Z" fill="black"/>
<path d="M51.1619 13.0665L51.2982 12.9355C51.7548 13.4091 51.9314 13.4167 52.1559 13.2025L53.2786 12.1218L54.2373 9.15184C54.2903 8.85963 54.2828 8.74123 53.9396 8.38856L54.0759 8.25757L55.4307 9.6607L55.2944 9.79169C54.921 9.40627 54.7621 9.30551 54.6713 9.3962C54.6385 9.42642 54.6107 9.47429 54.5931 9.54482L53.7479 12.1546L56.2859 11.5047C56.3717 11.4744 56.4474 11.4442 56.4903 11.4014C56.6215 11.2754 56.5382 11.0815 56.1648 10.696L56.3011 10.5651L57.4894 11.7944L57.3531 11.9254C56.9797 11.5399 56.7981 11.5676 56.3717 11.6936L53.6949 12.3838L52.4789 13.5552C52.2619 13.7643 52.2745 13.9532 52.7211 14.4142L52.5848 14.5452L51.1619 13.0665Z" fill="black"/>
<path d="M53.7479 15.7468L53.9069 15.6461C54.197 16.0995 54.414 16.1751 54.7344 15.971L58.1226 13.8122C58.4405 13.6081 58.4657 13.3789 58.1756 12.9255L58.3346 12.8247L58.8845 13.6837L56.9015 19.0368L60.2318 16.9132C60.4815 16.7545 60.4765 16.5227 60.1586 16.0265L60.3176 15.9257L61.251 17.3843L61.0921 17.485C60.8221 17.0643 60.5926 16.9434 60.3504 17.0971L56.2431 19.7169L56.1775 19.6162L58.2967 13.9709L54.858 16.1625C54.5401 16.3665 54.5073 16.5832 54.8403 17.1046L54.6814 17.2054L53.7479 15.7468Z" fill="black"/>
<path d="M63.0044 21.246L59.1267 24.682C58.7836 24.9541 58.7332 25.2085 58.8744 25.5838L58.6978 25.6493L58.0267 23.8507L58.2033 23.7852C58.3774 24.2513 58.5137 24.4427 58.7332 24.3621C58.7887 24.3419 58.8568 24.2991 58.9299 24.2412L59.9492 23.3368L59.152 21.2057H57.9813C57.83 21.2132 57.7139 21.2258 57.6281 21.2561C57.3733 21.3518 57.3784 21.5835 57.5524 22.0496L57.3758 22.1151L56.7981 20.5709L56.9747 20.5054C57.121 20.8958 57.2648 21.0016 57.9914 20.9815L62.6916 20.916L63.0044 21.246ZM62.4267 21.1704L59.3841 21.1981L60.1258 23.1806L62.4267 21.1704Z" fill="black"/>
<path d="M58.7483 25.9669L58.935 25.9366C59.0233 26.4959 59.2201 26.6193 59.5783 26.5614L63.5998 25.9291C63.9278 25.8762 64.0237 25.7099 63.9354 25.1481L64.1221 25.1179L64.5055 27.5438C64.6872 28.7001 64.223 29.3853 63.4585 29.5062C62.7547 29.617 62.0709 29.2568 61.8615 28.2668L59.9013 29.8236C59.649 30.0226 59.6162 30.2443 59.6767 30.6398L59.49 30.67L59.3311 29.6624L61.7732 27.763L61.6093 26.7251L59.6515 27.0324C59.2932 27.0878 59.152 27.3095 59.2327 27.8335L59.046 27.8637L58.7483 25.9669ZM61.796 26.6974L62.0129 28.0778C62.1441 28.9066 62.7774 29.0905 63.3753 28.9948C64.0842 28.884 64.4374 28.3449 64.3113 27.5388L64.2053 26.8737C64.1498 26.5236 63.9984 26.3472 63.6705 26.4001L61.796 26.6974Z" fill="black"/>
<path d="M65.0001 34.0328L60.0905 35.698C59.6692 35.8164 59.5228 36.0305 59.5077 36.431L59.3185 36.4234L59.3967 34.5064L59.5859 34.514C59.5657 35.0128 59.6162 35.242 59.8508 35.2521C59.9114 35.2546 59.9871 35.242 60.0804 35.2168L61.3721 34.7785L61.4655 32.5063L60.3857 32.0528C60.2444 32.0025 60.1309 31.9672 60.04 31.9621C59.7676 31.9521 59.6818 32.1662 59.6616 32.665L59.4724 32.6574L59.5405 31.0125L59.7297 31.02C59.7121 31.4357 59.8054 31.5893 60.4841 31.8538L64.8411 33.6147L65.0001 34.0328ZM64.4955 33.7381L61.6799 32.5869L61.5916 34.7004L64.4955 33.7381Z" fill="black"/>
<path d="M63.9354 40.91L63.292 42.7187L63.1129 42.6557C63.292 42.1494 63.2264 41.9252 62.9287 41.8194L59.9971 40.779C59.1267 40.4717 58.2942 40.9125 57.9662 41.8396C57.7265 42.5172 57.7467 43.4543 58.9299 43.8725L61.8338 44.9028C62.134 45.0086 62.3157 44.9053 62.5049 44.3712L62.684 44.4342L62.1264 46.0011L61.9473 45.9381C62.1365 45.4041 62.0634 45.2076 61.7631 45.1018L58.8164 44.0563C57.6685 43.6483 57.4011 42.6809 57.8098 41.5347C58.1478 40.5876 58.988 39.915 60.2368 40.3583L63.0902 41.371C63.3904 41.4768 63.5645 41.3937 63.7588 40.847L63.9354 40.91Z" fill="black"/>
<path d="M56.8586 44.4719L57.0201 44.5702C56.7375 45.0261 56.7653 45.2579 57.0882 45.4544L60.5093 47.5603C60.8322 47.7593 61.0492 47.6787 61.3317 47.2228L61.4932 47.321L60.9558 48.1901L55.2642 48.7367L58.6272 50.8074C58.8795 50.9611 59.0838 50.8578 59.3941 50.3565L59.5556 50.4548L58.6448 51.9284L58.4834 51.8302C58.7458 51.4044 58.7559 51.145 58.5111 50.9938L54.361 48.4395L54.424 48.3362L60.4386 47.7845L56.9646 45.6458C56.6417 45.4468 56.4323 45.5148 56.1068 46.0413L55.9453 45.9431L56.8586 44.4719Z" fill="black"/>
<path d="M52.6858 50.5027L52.822 50.6337C52.4965 50.9738 52.2594 51.2786 52.5319 51.538L55.5745 54.44C55.8041 54.6592 55.9958 54.634 56.3313 54.2838C57.005 53.5785 56.8561 52.8933 56.6972 52.2812L56.8132 52.2459L57.4137 53.4248L54.313 56.6669L53.0642 56.0925L53.1146 55.9641C53.8034 56.1203 54.3912 56.3142 55.0396 55.6366C55.4004 55.2587 55.4811 55.0018 55.249 54.7826L52.2064 51.8806C51.9339 51.6186 51.6968 51.8126 51.3133 52.2106L51.1771 52.0796L52.6858 50.5027Z" fill="black"/>
<path d="M52.9406 57.7778L51.3184 59.0197L51.2023 58.871C51.6716 58.5133 51.7574 58.3017 51.5278 58.002L49.0175 54.7347C48.8333 54.4954 48.5886 54.5004 48.1219 54.8581L48.0058 54.707L49.628 53.4651L49.7441 53.6137C49.2748 53.9714 49.2067 54.2057 49.3909 54.445L51.9012 57.7123C52.1307 58.012 52.3553 57.9818 52.8245 57.6241L52.9406 57.7778Z" fill="black"/>
<path d="M46.2372 55.8557L46.328 56.022C45.9168 56.2462 45.5964 56.4628 45.7755 56.7953L47.7888 60.4833C47.9401 60.7629 48.1319 60.7956 48.5557 60.5639C49.4135 60.0979 49.4791 59.3976 49.5144 58.7678L49.6355 58.7703L49.8475 60.0752L45.9117 62.2215L44.8975 61.2944L44.9858 61.1861C45.5938 61.5438 46.0959 61.9066 46.9184 61.4582C47.3775 61.2088 47.5314 60.9871 47.3801 60.7075L45.3668 57.0195C45.1851 56.687 44.9026 56.8004 44.4157 57.0624L44.3248 56.8961L46.2372 55.8557Z" fill="black"/>
<path d="M39.3017 58.7249L39.3345 58.9113C38.7316 59.0196 38.6483 59.1581 38.7265 59.5889L39.4405 63.5388C39.496 63.8512 39.6297 63.9948 40.2352 63.8865L40.268 64.0729L36.4105 64.7681L35.6536 63.6446L35.7545 63.564C36.1405 63.9545 36.8091 64.5036 37.7552 64.3323L38.5373 64.1913C38.888 64.1283 39.0293 63.9343 38.9738 63.622L38.6508 61.8435L37.5635 62.04C37.0715 62.1281 36.7435 62.2642 36.8924 63.0904L36.7132 63.1232L36.3348 61.0349L36.5139 61.0021C36.6502 61.7604 37.0362 61.9291 37.5357 61.8384L38.6155 61.6445L38.2598 59.6746C38.1816 59.2438 37.9898 59.1556 37.3869 59.2639L37.3541 59.0775L39.3017 58.7249Z" fill="black"/>
<path d="M34.5587 59.5638V59.7527C33.9911 59.7502 33.8397 59.9215 33.8372 60.2867L33.8145 64.3526C33.8119 64.6851 33.9633 64.806 34.531 64.811V65L32.0711 64.9874C30.898 64.9823 30.295 64.4105 30.3001 63.6396C30.3026 62.9293 30.7693 62.3121 31.7835 62.2642L30.5625 60.0802C30.406 59.8006 30.1941 59.73 29.793 59.7275V59.5386L30.8147 59.5436L32.2982 62.2592L33.3503 62.2642L33.3603 60.2842C33.3629 59.9215 33.1661 59.7477 32.6363 59.7426V59.5537L34.5587 59.5638ZM33.3477 62.4532L31.9475 62.4456C31.1074 62.4406 30.8223 63.0376 30.8198 63.6422C30.8173 64.3601 31.2916 64.7934 32.109 64.7984L32.7826 64.8009C33.1383 64.8035 33.3351 64.6825 33.3376 64.35L33.3477 62.4532Z" fill="black"/>
<path d="M24.0962 61.2038C24.3788 59.8108 25.4334 58.584 27.0354 58.909C28.5718 59.2213 29.0537 60.7605 28.7712 62.1535C28.4861 63.5542 27.4391 64.791 25.9051 64.4787C24.3006 64.1537 23.8111 62.6045 24.0962 61.2038ZM28.2716 62.0503C28.534 60.7554 28.1985 59.3372 26.9976 59.0928C25.7361 58.8384 24.8733 60.0123 24.6084 61.3071C24.3435 62.6019 24.6815 64.0277 25.9405 64.2847C27.1414 64.529 28.0092 63.3476 28.2716 62.0503Z" fill="black"/>
<path d="M24.1265 58.4276L24.0533 58.6014C23.5588 58.3898 23.3343 58.4528 23.188 58.8004L21.6112 62.4934C21.4623 62.841 21.5733 63.0451 22.0678 63.2542L21.9947 63.428L21.0536 63.0274L19.666 57.4905L18.117 61.1205C18.0009 61.3926 18.1346 61.579 18.677 61.8107L18.6039 61.9845L17.0094 61.3044L17.0826 61.1306C17.5417 61.3271 17.8016 61.2968 17.9151 61.0323L19.8275 56.5559L19.9385 56.6038L21.3791 62.4606L22.9786 58.7122C23.1274 58.3646 23.0316 58.1681 22.4589 57.9238L22.532 57.75L24.1265 58.4276Z" fill="black"/>
<path d="M17.5367 55.2084L17.4282 55.362C17.0447 55.0925 16.7067 54.901 16.4897 55.2084L14.0627 58.6419C13.8785 58.9013 13.934 59.0878 14.3301 59.3674C15.1273 59.9291 15.7858 59.6797 16.3661 59.4329L16.4191 59.5437L15.3393 60.3095L11.671 57.7249L12.057 56.4049L12.1932 56.4352C12.1402 57.138 12.0343 57.7476 12.8012 58.2892C13.2276 58.589 13.495 58.6293 13.6792 58.3723L16.1062 54.9388C16.3257 54.6315 16.0987 54.4249 15.6471 54.1075L15.7555 53.9539L17.5367 55.2084Z" fill="black"/>
<path d="M11.5524 54.3669L8.58038 51.1122L8.86547 50.8528L11.84 54.11L11.5524 54.3669Z" fill="black"/>
<path d="M10.1875 48.3313L10.0235 48.427C9.76113 47.9862 9.52145 47.8904 9.20861 48.0743L5.71944 50.1374C5.41922 50.3138 5.4066 50.5581 5.66898 51.0015L5.50752 51.0972L3.48163 47.6864L4.31923 46.5755L4.44285 46.6359C4.2385 47.1952 3.78185 47.8174 4.37726 48.825L4.75569 49.4623C4.955 49.7999 5.17702 49.9057 5.47724 49.7294L7.04649 48.8023L6.46117 47.8149C6.19122 47.3589 5.85063 47.2279 5.23 47.5932L5.13665 47.437L6.96071 46.3588L7.05405 46.515C6.47379 46.8576 6.36783 47.2556 6.63778 47.7116L7.22309 48.6991L8.96894 47.6662C9.28178 47.4823 9.31457 47.2254 9.11022 46.8803L8.74692 46.2681C8.30037 45.5149 7.71253 45.2378 6.68067 45.1446L6.66301 44.996L8.07078 44.7617L10.1875 48.3313Z" fill="black"/>
<path d="M7.58133 43.938L7.4022 44.0009C7.2256 43.4946 7.02881 43.3712 6.67308 43.4946L2.87864 44.8197C2.52039 44.9456 2.4447 45.1622 2.62383 45.6686L2.4447 45.7316L2.10663 44.7693L5.27035 40.0132L1.53898 41.3131C1.25894 41.4113 1.211 41.6355 1.40527 42.1922L1.22614 42.2552L0.653442 40.6203L0.832568 40.5574C0.996557 41.0284 1.19334 41.1997 1.46582 41.104L6.06759 39.4968L6.10795 39.6102L2.74493 44.6181L6.59739 43.2729C6.95565 43.147 7.03638 42.9429 6.8295 42.3585L7.00863 42.2955L7.58133 43.938Z" fill="black"/>
<path d="M5.73206 38.5143L5.5378 38.5395C5.46968 38.0155 5.30064 37.8467 4.89698 37.8996L0.925935 38.4211C0.580297 38.4664 0.454152 38.673 0.524793 39.197L0.338099 39.2222L0.0328278 36.8996C-0.206848 35.0707 1.04199 34.1286 2.38669 33.9522C3.74401 33.7734 5.18964 34.3603 5.42931 36.1892L5.73206 38.5143ZM4.83391 37.4286C5.24009 37.3757 5.35615 37.1691 5.30317 36.756L5.23253 36.2169C5.05088 34.8314 3.71122 34.2974 2.44977 34.4636C1.19589 34.6274 0.0353507 35.4889 0.217 36.8769L0.287641 37.416C0.343145 37.8291 0.517225 37.9954 0.862862 37.95L4.83391 37.4286Z" fill="black"/>
<path d="M47.2464 19.5935C44.9757 19.5935 43.5604 21.5181 43.5604 24.5561V46.4646C43.5604 46.6359 43.1744 46.6787 43.0886 46.5931L22.9912 23.7449V40.3911C22.9912 43.4291 24.3208 45.3108 26.5485 45.3108C26.6772 45.3108 26.6772 45.8247 26.5485 45.8247C25.3047 45.8247 23.9776 45.7391 22.3907 45.7391C20.6777 45.7391 19.005 45.8247 17.6351 45.8247C17.4635 45.8247 17.4635 45.3108 17.6351 45.3108C20.1201 45.3108 21.707 43.4291 21.707 40.3911V22.2889C19.7795 20.193 18.5786 19.5935 17.2062 19.5935C17.0775 19.5935 17.0775 19.0796 17.2062 19.0796C18.3213 19.0796 19.6055 19.1652 20.6348 19.1652C22.691 19.1652 24.4494 19.0796 25.3476 19.0796C26.0767 19.0796 26.1196 19.6791 27.4895 21.3039L42.3166 38.3758V24.5586C42.3166 21.5206 40.987 19.596 38.7593 19.596C38.6307 19.596 38.6307 19.0821 38.7593 19.0821C40.0031 19.0821 41.3302 19.2106 42.9171 19.2106C44.4611 19.2106 46.0026 19.0821 47.2464 19.0821C47.375 19.0796 47.375 19.5935 47.2464 19.5935Z" fill="black"/>
</g>
<defs>
<clipPath id="clip0">
<rect width="65" height="65" fill="white"/>
</clipPath>
</defs>
</svg>
