<svg width="318" height="215" viewBox="0 0 318 215" fill="none" xmlns="http://www.w3.org/2000/svg">
<path d="M267.451 295.288C273.214 294.523 276.162 295.365 290.062 289.469C294.905 287.414 307.884 280.126 311.254 248.116C311.579 245.022 311.254 225.372 289.352 231.69C284.299 233.148 268.178 238.745 269.136 234.639C270.776 227.605 286.388 202.5 280.929 187.045C279.717 182.794 275.033 171.462 260.644 173.99C251.446 174.832 236.249 188.805 230.809 195.89C229.124 197.154 230.24 193.771 230.809 192.52C232.915 187.887 237.969 179.464 240.075 166.828C242.332 153.283 241.759 137.767 236.705 123.447C232.404 111.263 215.646 103.652 204.695 112.497C197.013 118.702 192.315 133.307 190.508 140.223C200.725 90.4259 183.445 61.3468 180.688 56.7925C174.315 46.263 166.368 46.7961 160.05 51.4259C153.733 56.0557 147.415 68.6942 142.932 86.8028C142.277 88.0323 143.204 82.2094 142.932 77.1485C142.591 70.8224 135.716 50.5054 124.563 40.2083C115.64 31.9706 102.953 34.8779 97.7254 37.3612C95.0587 38.2016 88.6012 43.2645 84.1046 56.7925C83.2887 58.0431 82.6456 58.1087 80.4477 54.7985C70.7606 40.2083 57.6854 34.2016 53.8313 33.3565C42.1209 30.7885 37.4874 32.0521 31.1699 36.685C27.3791 40.2082 23.3131 43.5205 24.0098 54.7984C24.8807 68.8959 39.5932 78.7183 41.2779 81.7507C43.3838 85.5414 39.5933 83.8566 32.4332 84.2778C2.95072 86.0121 8.07532 109.126 13.9014 117.972C19.3767 126.286 20.5812 128.656 39.5933 142.822C42.1204 144.705 43.3838 145.349 48.8591 148.297C51.8074 150.403 45.117 149.949 40.0145 153.351C32.4333 158.405 27.503 162.196 32.0121 173.989C37.4874 188.309 52.8937 195.844 78.7627 203.893C97.7154 209.789 112.71 207.683 113.299 209.789C113.721 213.159 104.374 212.86 96.4522 218.213C92.5089 220.527 87.6074 228.321 92.2404 238.851C95.7614 246.853 102.77 251.065 106.56 253.171C112.17 256.287 120.459 258.646 137.728 262.437C151.317 265.42 158.22 264.684 155.417 265.385C150.363 266.648 147.661 267.343 144.888 269.597C131.41 280.547 146.628 294.794 147.836 295.288L267.451 295.288Z" fill="#A16BBA"/>
<path fill-rule="evenodd" clip-rule="evenodd" d="M117.583 127.16C113.303 122.795 106.435 116.011 99.059 109.13C101.935 104.113 103.18 100.914 103.627 96.804L103.674 96.3808L103.674 96.3806L103.674 96.3805C104.122 92.2743 104.472 89.0747 103.166 86.2482C102.089 83.9189 101.102 86.0511 101.225 87.0657C101.225 89.5443 100.878 91.3088 100.609 92.6759C100.421 93.6315 100.271 94.3929 100.305 95.0681C98.731 99.0133 96.7541 103.473 94.9264 105.315C87.3498 98.4013 79.6475 91.8275 73.9705 87.9955C74.4273 88.7163 77.4667 92.3677 85.9695 101.206C87.9208 103.235 90.0863 105.404 92.4107 107.697C91.8367 108.356 90.67 109.298 88.3159 110.655C83.0718 113.679 80.4763 113.656 75.805 113.615H75.8044C75.2352 113.61 74.6352 113.605 73.9959 113.604C68.9417 113.604 68.3864 115.153 69.7841 116.552C71.0476 117.815 82.8406 117.394 84.5253 116.973C88.4431 115.994 93.056 113.776 96.5424 111.749C97.1558 112.348 97.7769 112.954 98.4049 113.567C107.649 122.588 118.391 133.071 127.993 144.236C129.792 146.327 132.833 149.797 136.83 154.32C134.366 154.921 131.442 155.015 129.594 155.015C129.2 154.993 128.777 154.973 128.334 154.952C124.987 154.792 120.436 154.574 117.583 153.195C116.442 152.306 113.844 150.917 113.169 151.932C112.325 153.201 117.068 157.894 121.17 158.906C125.273 159.917 126.646 159.934 134.648 159.934C137.479 159.934 139.557 159.529 140.985 159.013C152.665 172.183 169.951 191.516 188.1 211.642C186.538 212.335 184.466 213.06 181.82 213.846C180.465 214.265 174.843 215.196 171.291 214.688C168.342 214.267 168.342 216.373 169.606 216.794C170.964 218.201 178.451 219.321 183.505 218.479C186.415 217.994 189.46 217.034 192.013 215.979C204.561 229.878 217.355 243.969 228.854 256.509C226.234 258.023 222.369 259.567 218.042 259.567C215.375 259.708 213.409 260.41 209.619 262.28C208.356 263.403 208.777 265.397 220.57 264.386C223.842 263.659 229.304 262.284 232.931 260.948C245.672 274.803 256.486 286.365 263.081 293.04L269.004 293.028C266.057 290.423 255.34 277.468 242.809 262.321L242.809 262.321L242.808 262.321C241.299 260.496 239.762 258.639 238.21 256.764C241.113 253.381 246.544 246.937 244.577 237.431C242.556 227.659 240.926 235.841 240.786 241.456C240.248 244.896 237.572 249.734 234.646 252.464C220.356 235.238 205.405 217.457 197.647 209.875C202.897 206.874 204.266 199.705 205.062 195.533C205.187 194.879 205.297 194.299 205.407 193.82C206.215 190.283 204.545 184.137 203.274 183.303C202.257 182.635 201.658 183.831 201.486 184.512C200.933 198.659 196.237 204.114 193.174 205.488C178.869 191.41 161.867 174.22 143.117 154.481C144.869 152.075 147.486 148.16 148.548 146.035C149.908 143.316 151.075 140.56 150.631 134.7C150.223 129.329 147.322 130.245 146.982 132.584C146.931 132.931 146.882 133.341 146.827 133.792L146.827 133.792C146.575 135.871 146.217 138.829 145.178 140.56C142.865 145.847 139.89 147.978 138.015 149.093C131.392 142.075 124.568 134.757 117.583 127.16Z" fill="#8C4EB4"/>
</svg>
