<svg width="231" height="186" viewBox="0 0 231 186" fill="none" xmlns="http://www.w3.org/2000/svg">
<path d="M115.111 203.33C117.633 204.9 118.523 206.19 125.921 208.38C128.499 209.142 135.987 210.484 147.715 198.951C148.849 197.837 155.104 189.979 144.412 185.356C141.945 184.29 133.767 181.261 135.479 179.952C138.411 177.71 152.726 172.879 155.593 165.008C156.496 162.938 158.33 156.946 151.832 153.268C147.931 150.612 137.396 151.188 132.948 152.215C131.873 152.166 133.412 151.194 134.043 150.886C136.379 149.742 141.109 148.061 146.045 143.761C151.336 139.151 156.15 132.844 158.809 125.553C161.07 119.35 156.932 110.903 149.739 110.834C144.693 110.786 138.094 115.022 135.135 117.163C155.343 100.838 157.973 83.753 158.365 81.0609C159.272 74.8368 155.964 72.4653 151.968 72.2393C147.971 72.0132 141.373 74.9464 133.722 80.6335C133.064 80.9056 135.322 78.91 136.858 76.8251C138.779 74.2189 142.667 63.9705 141.613 56.2852C140.769 50.1369 134.82 47.1622 131.951 46.4434C130.626 45.9086 126.434 45.8079 120.265 49.6837C119.537 49.9119 119.262 49.7289 119.47 47.7091C120.389 38.8064 117.182 32.1892 115.937 30.6037C112.151 25.7863 109.913 24.7795 105.916 24.5547C103.276 24.713 100.596 24.6987 97.2067 29.3739C92.9704 35.218 95.5832 43.8725 95.2626 45.616C94.8619 47.7955 93.9139 45.8995 90.9526 43.7395C78.7589 34.8456 73.2715 45.6284 72.6958 51.0108C72.1549 56.0692 71.86 57.3954 74.7579 69.16C75.143 70.7238 75.4322 71.3883 76.6343 74.3301C77.1131 76.1187 74.6212 73.7663 71.5033 73.4505C66.8707 72.9814 63.6943 72.875 61.6419 78.992C59.1496 86.4197 62.779 94.3973 70.3692 105.976C75.93 114.46 82.5292 118.5 82.0776 119.522C81.1491 120.988 77.5593 117.834 72.6951 117.372C70.3876 117.004 65.9222 118.486 64.329 124.145C63.1183 128.446 64.5147 132.384 65.3258 134.446C66.5263 137.498 69.0299 141.122 74.6105 148.227C79.0022 153.818 81.9641 155.771 80.6308 155.137C78.2266 153.993 76.9352 153.389 75.1089 153.377C66.2346 153.319 67.6093 163.882 67.9253 164.47L115.111 203.33Z" fill="#A16BBA"/>
<path fill-rule="evenodd" clip-rule="evenodd" d="M110.613 88.3188C110.343 85.2065 109.837 80.2994 109.163 75.1891C111.927 74.1446 113.458 73.287 114.969 71.8112L115.125 71.6592C116.636 70.1852 117.814 69.0365 118.217 67.497C118.549 66.2284 117.467 66.7489 117.185 67.1891C116.38 68.1668 115.67 68.75 115.12 69.2019L115.12 69.202C114.735 69.5179 114.429 69.7696 114.223 70.0469C112.32 71.0919 110.092 72.209 108.772 72.342C108.03 67.1528 107.127 62.057 106.132 58.7008C106.078 59.1336 106.091 61.5614 106.574 67.8104C106.684 69.2447 106.834 70.8041 107.006 72.4643C106.566 72.5376 105.799 72.5303 104.429 72.301C101.378 71.7902 100.362 70.9379 98.5327 69.404L98.5323 69.4038C98.3095 69.2169 98.0745 69.0199 97.8224 68.8122C95.8289 67.1699 95.1063 67.6009 95.2034 68.6066C95.2913 69.5155 100.08 73.1806 100.882 73.5617C102.745 74.4482 105.286 75.0721 107.32 75.405C107.367 75.8404 107.415 76.2809 107.464 76.7264L107.464 76.7268C108.18 83.2885 109.012 90.9134 109.172 98.4373C109.202 99.8464 109.275 102.203 109.382 105.286C108.215 104.723 107.031 103.81 106.302 103.209C106.153 103.072 105.993 102.927 105.825 102.775C104.557 101.625 102.832 100.06 102.155 98.5893C101.994 97.8679 101.42 96.4758 100.824 96.6569C100.079 96.8832 100.425 100.276 101.715 102.008C103.005 103.739 103.541 104.192 106.697 106.792C107.814 107.711 108.765 108.226 109.496 108.487C109.825 117.477 110.364 130.719 110.985 144.554C110.143 144.32 109.091 143.933 107.791 143.384C107.121 143.109 104.601 141.65 103.364 140.295C102.338 139.171 101.654 140.002 102.015 140.579C102.094 141.575 104.683 144.449 106.951 145.759C108.257 146.513 109.77 147.123 111.119 147.537C111.554 157.096 112.023 166.811 112.486 175.494C110.96 175.24 108.933 174.594 107.225 173.187C106.127 172.376 105.124 172.015 103.021 171.521C102.158 171.554 101.676 172.477 106.657 175.91C108.184 176.686 110.787 177.919 112.652 178.57C113.177 188.174 113.686 196.248 114.119 201.024L116.46 202.943C116.144 200.958 116.125 192.366 116.102 182.32L116.102 182.32C116.099 181.109 116.097 179.877 116.093 178.634C118.338 178.242 122.572 177.463 124.884 173.076C127.261 168.564 123.96 171.262 122.081 173.432C120.752 174.614 118.125 175.652 116.084 175.779C116.043 164.342 115.922 152.47 115.325 146.959C118.371 147.481 121.24 145.097 122.909 143.71C123.171 143.493 123.403 143.3 123.602 143.147C125.069 142.014 126.407 139.047 126.177 138.305C125.993 137.711 125.368 137.988 125.079 138.201C120.265 143.602 116.64 144.228 114.985 143.775C113.916 133.575 112.794 121.27 111.81 107.392C113.283 107.012 115.587 106.317 116.696 105.824C118.116 105.193 119.472 104.486 121.2 102.03C122.784 99.7785 121.342 99.1974 120.448 100.009C120.316 100.13 120.163 100.275 119.995 100.435L119.995 100.436L119.995 100.436C119.22 101.174 118.117 102.225 117.146 102.57C114.515 103.904 112.65 103.778 111.547 103.609C111.215 98.6889 110.9 93.5848 110.613 88.3188Z" fill="#8C4EB4"/>
</svg>
