<svg width="221" height="194" viewBox="0 0 221 194" fill="none" xmlns="http://www.w3.org/2000/svg">
<path d="M35.391 204.987C31.3849 204.455 29.3352 205.04 19.6723 200.941C16.3058 199.513 7.28242 194.446 4.94022 172.193C4.71382 170.042 4.9399 156.382 20.1657 160.774C23.679 161.787 34.886 165.678 34.2203 162.824C33.0797 157.934 22.2262 140.482 26.0217 129.737C26.864 126.782 30.1207 118.904 40.1235 120.661C46.5177 121.246 57.0826 130.961 60.8648 135.886C62.0361 136.765 61.2601 134.413 60.8648 133.543C59.4008 130.323 55.8872 124.467 54.4232 115.683C52.8537 106.266 53.252 95.4794 56.7658 85.5246C59.7555 77.0544 71.4057 71.763 79.0185 77.9118C84.3594 82.2256 87.6253 92.3793 88.8812 97.1866C81.7789 62.5684 93.7918 42.3527 95.7081 39.1866C100.139 31.8666 105.663 32.2372 110.055 35.4558C114.447 38.6744 118.839 47.4606 121.956 60.0495C122.411 60.9043 121.766 56.8562 121.956 53.338C122.193 48.9401 126.973 34.8159 134.726 27.6575C140.929 21.9307 149.749 23.9518 153.383 25.6782C155.237 26.2624 159.726 29.7821 162.852 39.1866C163.419 40.0561 163.866 40.1017 165.394 37.8004C172.129 27.6575 181.219 23.4817 183.898 22.8941C192.039 21.1089 195.26 21.9874 199.652 25.2081C202.287 27.6574 205.114 29.9601 204.63 37.8004C204.024 47.6008 193.796 54.4292 192.625 56.5374C191.161 59.1726 193.796 58.0014 198.774 58.2942C219.27 59.4998 215.707 75.5683 211.657 81.7182C207.85 87.4978 207.013 89.1454 193.796 98.9934C192.039 100.302 191.161 100.75 187.354 102.8C185.305 104.264 189.956 103.949 193.503 106.313C198.774 109.827 202.201 112.462 199.066 120.661C195.26 130.616 184.55 135.854 166.566 141.449C153.39 145.549 142.966 144.085 142.556 145.549C142.263 147.891 148.761 147.683 154.268 151.405C157.01 153.014 160.417 158.432 157.196 165.752C154.748 171.315 149.876 174.243 147.241 175.707C143.341 177.874 137.579 179.513 125.574 182.149C116.126 184.222 111.328 183.711 113.276 184.198C116.79 185.077 118.668 185.559 120.596 187.126C129.966 194.739 119.387 204.643 118.547 204.987L35.391 204.987Z" fill="#A16BBA"/>
<path fill-rule="evenodd" clip-rule="evenodd" d="M139.577 88.1042C142.552 85.0699 147.326 80.3542 152.453 75.5711C150.454 72.0831 149.588 69.8584 149.277 67.0011L149.245 66.7069V66.7068C148.933 63.8522 148.69 61.6278 149.598 59.6628C150.346 58.0435 151.032 59.5258 150.947 60.2312C150.947 61.9542 151.188 63.1809 151.375 64.1312L151.375 64.1313C151.506 64.7957 151.61 65.325 151.587 65.7944C152.681 68.5378 154.056 71.6392 155.327 72.9192C160.594 68.1122 165.949 63.5417 169.896 60.8775C169.578 61.3786 167.465 63.917 161.554 70.0616C160.198 71.472 158.692 72.9803 157.075 74.5751C157.475 75.0328 158.286 75.6877 159.921 76.6305C163.567 78.7327 165.371 78.7167 168.619 78.688H168.619C169.015 78.6845 169.432 78.6808 169.876 78.6807C173.39 78.6801 173.776 79.7575 172.804 80.7297C171.926 81.6081 163.727 81.3153 162.556 81.0225C159.833 80.3417 156.627 78.8007 154.203 77.3916C153.777 77.8079 153.346 78.229 152.909 78.6547L152.909 78.6549C146.483 84.926 139.015 92.2135 132.34 99.9756C131.09 101.429 128.976 103.841 126.197 106.985C127.91 107.404 129.942 107.469 131.227 107.469C131.501 107.454 131.794 107.44 132.102 107.425L132.103 107.425C134.43 107.314 137.594 107.162 139.577 106.204C140.37 105.586 142.176 104.62 142.646 105.325C143.233 106.208 139.935 109.471 137.083 110.174C134.231 110.877 133.277 110.889 127.714 110.889C125.746 110.889 124.301 110.607 123.308 110.248C115.189 119.404 103.171 132.844 90.5543 146.836C91.6403 147.317 93.0804 147.821 94.9199 148.368C95.8622 148.659 99.7702 149.306 102.24 148.953C104.29 148.66 104.29 150.124 103.411 150.417C102.467 151.395 97.2623 152.174 93.7487 151.588C91.7255 151.251 89.6085 150.584 87.8339 149.851C79.111 159.513 70.2164 169.309 62.2224 178.026C64.0442 179.079 66.7308 180.152 69.739 180.152C71.5934 180.25 72.9598 180.738 75.5943 182.038C76.4727 182.819 76.1799 184.205 67.9815 183.502C65.7066 182.997 61.9098 182.041 59.3883 181.113C50.5308 190.744 43.0131 198.782 38.4281 203.423L34.3105 203.414C36.359 201.603 43.8098 192.597 52.5214 182.067C53.5711 180.798 54.6391 179.507 55.7182 178.204C53.7005 175.852 49.9246 171.372 51.2919 164.763C52.6973 157.97 53.8302 163.658 53.9278 167.562C54.3014 169.953 56.1621 173.316 58.1962 175.214C68.1303 163.239 78.5239 150.878 83.9174 145.607C80.2674 143.521 79.3161 138.537 78.7625 135.636C78.6757 135.182 78.5988 134.779 78.5227 134.446C77.9611 131.987 79.122 127.714 80.0054 127.134C80.7121 126.67 81.1286 127.502 81.2485 127.975C81.6332 137.81 84.8976 141.602 87.027 142.557C96.9716 132.771 108.791 120.82 121.826 107.098C120.608 105.425 118.789 102.703 118.051 101.226C117.105 99.3356 116.294 97.4199 116.603 93.3462C116.886 89.6122 118.903 90.2491 119.139 91.8751C119.174 92.1162 119.209 92.4009 119.247 92.7143L119.247 92.7148C119.422 94.1603 119.671 96.2169 120.393 97.4199C122.001 101.096 124.069 102.577 125.373 103.352C129.977 98.4734 134.721 93.3854 139.577 88.1042Z" fill="#8C4EB4"/>
</svg>
