<svg width="364" height="220" viewBox="0 0 364 220" fill="none" xmlns="http://www.w3.org/2000/svg">
<path d="M187.244 274.257C190.401 276.222 191.514 277.837 200.774 280.577C204 281.532 213.372 283.211 228.05 268.777C229.469 267.382 237.298 257.548 223.916 251.762C220.828 250.427 210.593 246.636 212.735 244.998C216.406 242.192 234.321 236.146 237.909 226.296C239.04 223.704 241.335 216.204 233.203 211.602C228.32 208.278 215.135 208.998 209.568 210.284C208.222 210.223 210.149 209.006 210.938 208.62C213.862 207.189 219.782 205.085 225.959 199.703C232.582 193.933 238.607 186.04 241.934 176.915C244.765 169.151 239.586 158.579 230.583 158.493C224.267 158.433 216.009 163.734 212.305 166.414C237.597 145.982 240.889 124.599 241.379 121.23C242.514 113.44 238.374 110.472 233.372 110.189C228.371 109.906 220.113 113.577 210.536 120.695C209.713 121.036 212.539 118.538 214.462 115.929C216.866 112.667 221.732 99.8403 220.412 90.2216C219.357 82.5266 211.911 78.8036 208.32 77.904C206.662 77.2346 201.415 77.1087 193.695 81.9594C192.783 82.2451 192.439 82.016 192.7 79.488C193.849 68.3458 189.836 60.0639 188.277 58.0796C183.54 52.0503 180.738 50.7902 175.735 50.5089C172.431 50.707 169.077 50.6891 164.836 56.5405C159.533 63.8547 162.804 74.6863 162.402 76.8685C161.901 79.5962 160.714 77.2232 157.008 74.5199C141.747 63.3886 134.879 76.8839 134.159 83.6203C133.482 89.9512 133.113 91.611 136.739 106.335C137.221 108.292 137.583 109.124 139.088 112.806C139.687 115.044 136.568 112.1 132.666 111.705C126.868 111.118 122.893 110.985 120.324 118.641C117.205 127.937 121.747 137.921 131.247 152.413C138.206 163.031 146.466 168.088 145.9 169.367C144.738 171.202 140.245 167.254 134.158 166.676C131.27 166.215 125.681 168.07 123.687 175.152C122.172 180.535 123.919 185.464 124.935 188.045C126.437 191.865 129.57 196.4 136.555 205.292C142.051 212.291 145.758 214.734 144.09 213.94C141.081 212.509 139.464 211.754 137.179 211.739C126.072 211.665 127.792 224.886 128.188 225.622L187.244 274.257Z" fill="#A16BBA"/>
<path fill-rule="evenodd" clip-rule="evenodd" d="M181.609 130.314C181.27 126.419 180.638 120.278 179.794 113.882C183.253 112.575 185.169 111.501 187.06 109.655L187.255 109.464C189.146 107.619 190.62 106.182 191.124 104.255C191.54 102.667 190.186 103.319 189.834 103.87C188.826 105.093 187.937 105.823 187.248 106.389C186.767 106.784 186.383 107.099 186.126 107.446C183.745 108.754 180.956 110.152 179.305 110.319C178.375 103.824 177.245 97.4462 176 93.2457C175.933 93.7873 175.949 96.8258 176.553 104.647C176.692 106.442 176.879 108.394 177.094 110.472C176.543 110.564 175.584 110.555 173.869 110.268C170.05 109.628 168.778 108.562 166.489 106.642L166.489 106.642L166.488 106.641C166.209 106.407 165.915 106.161 165.6 105.901C163.105 103.846 162.2 104.385 162.322 105.644C162.432 106.781 168.426 111.368 169.429 111.846C171.761 112.955 174.941 113.736 177.487 114.153C177.546 114.697 177.606 115.248 177.667 115.806C178.563 124.018 179.604 133.561 179.805 142.978C179.843 144.742 179.934 147.691 180.068 151.549C178.607 150.845 177.125 149.702 176.213 148.951C176.027 148.779 175.827 148.598 175.616 148.407C174.029 146.967 171.871 145.009 171.023 143.169C170.821 142.266 170.103 140.523 169.357 140.75C168.424 141.033 168.858 145.279 170.472 147.447C172.086 149.614 172.757 150.181 176.708 153.434C178.105 154.585 179.296 155.23 180.211 155.556C180.623 166.808 181.297 183.381 182.074 200.697C181.021 200.403 179.703 199.919 178.077 199.231C177.238 198.887 174.084 197.061 172.536 195.366C171.252 193.959 170.396 194.999 170.848 195.721C170.947 196.968 174.187 200.565 177.025 202.204C178.659 203.148 180.553 203.912 182.242 204.429C182.786 216.392 183.373 228.552 183.952 239.418C182.043 239.1 179.507 238.291 177.371 236.532C175.997 235.517 174.742 235.064 172.11 234.447C171.03 234.488 170.427 235.643 176.66 239.939C178.571 240.91 181.826 242.452 184.16 243.267C184.817 255.288 185.455 265.394 185.997 271.372L188.926 273.774C188.531 271.289 188.507 260.536 188.478 247.962C188.475 246.447 188.472 244.905 188.467 243.349C191.276 242.858 196.579 241.886 199.473 236.392C202.448 230.746 198.317 234.122 195.964 236.838C194.3 238.318 191.011 239.618 188.456 239.776C188.405 225.461 188.253 210.604 187.506 203.706C191.318 204.359 194.909 201.376 196.998 199.64L196.998 199.64C197.326 199.368 197.616 199.127 197.865 198.935C199.702 197.517 201.376 193.804 201.088 192.875C200.858 192.132 200.076 192.479 199.713 192.745C193.688 199.505 189.152 200.288 187.081 199.721C185.742 186.955 184.338 171.555 183.106 154.185C184.95 153.71 187.833 152.841 189.222 152.224C190.999 151.434 192.696 150.548 194.859 147.474C196.842 144.657 195.037 143.93 193.918 144.946C193.752 145.097 193.561 145.279 193.35 145.479C192.38 146.404 191.001 147.718 189.784 148.151C186.493 149.82 184.158 149.663 182.778 149.451C182.362 143.293 181.968 136.905 181.609 130.314Z" fill="#8C4EB4"/>
</svg>
