<svg width="141" height="182" viewBox="0 0 141 182" fill="none" xmlns="http://www.w3.org/2000/svg">
<path d="M1.18164 178.951C0.0104446 182.933 0.0264784 188.063 4.40244 191.541H85.524C86.2072 191.151 87.1131 188.306 85.524 184.55C82.3032 176.937 76.74 175.766 72.0552 173.716C70.4602 173.018 73.7962 170.753 81.4248 167.275C92.5512 161.126 99.2856 154.879 101.921 152.049C105.434 148.275 103.779 142.176 100.734 139.13C97.6887 136.085 94.1946 134.934 91.657 133.86C86.5037 131.283 84.2394 130.932 84.0442 130.639C83.1658 129.956 84.5127 128.121 96.9274 126.247C112.446 123.904 124.451 115.121 124.451 106.63C124.451 98.1384 121.815 90.8184 114.203 88.7688C108.112 87.1292 107.371 86.3287 107.761 86.1335C111.275 84.2791 120.351 78.5794 128.55 70.6152C138.798 60.66 140.847 54.5111 140.847 49.2409C140.847 43.9706 137.334 36.0649 130.307 35.7721C123.279 35.4793 122.694 34.0153 122.987 32.8441C123.279 31.6729 126.207 24.3529 125.622 15.8617C125.153 9.06872 121.327 4.05219 119.473 2.39304C116.838 -0.534956 109.518 -0.827756 106.004 2.39304C102.491 5.61384 97.8058 14.9834 96.9274 18.497C96.2247 21.3079 94.8778 20.6442 94.2922 19.961C90.5443 12.2311 86.289 9.71276 84.6298 9.41983C81.3114 8.34623 73.5034 7.60447 68.8186 13.2262C62.9626 20.2534 62.377 36.943 62.6698 40.7494C62.9041 43.7945 61.9866 43.1895 61.4986 42.5063C56.1111 35.7133 50.2746 36.9431 48.0298 38.4071C46.273 39.5783 42.5252 44.4388 41.5882 54.5111C40.6513 64.5834 42.5328 81.5181 45.9802 86.1335C48.6313 89.6827 53.7143 99.162 48.0298 92.2822C43.9465 87.3403 39.5545 85.5835 36.9034 85.2551C32.0234 84.7671 21.6193 86.6605 19.0426 98.1383C15.8218 112.485 27.5497 123.94 29.5993 126.283C30.1446 126.906 31.3561 128.625 30.7705 128.332C26.9779 124.54 24.2354 125.363 22.2847 125.948L22.2634 125.954C16.4074 128.999 14.1626 135.031 13.7722 137.666C11.7226 147.329 14.2898 160.822 15.8218 164.897C16.7161 167.275 17.3018 167.86 17.5786 168.996C13.7881 167.567 8.35073 169.502 6.76088 170.495C4.41848 171.959 2.07608 175.91 1.18164 178.951Z" fill="#E890A6"/>
<path fill-rule="evenodd" clip-rule="evenodd" d="M84.2343 71.802C81.8849 77.1849 79.8274 82.2042 78.4989 85.5822C75.5491 93.849 72.6413 101.784 69.8103 109.34C68.3941 108.712 66.0754 106.897 64.1518 102.857C63.4686 101.393 61.9265 98.1726 61.2238 97.0014C60.6382 96.2206 59.467 95.596 59.467 99.3438C59.467 103.294 61.7565 106.411 63.1768 108.345C63.4411 108.705 63.6752 109.023 63.859 109.299C64.5878 110.392 66.7811 111.911 68.4546 112.945C62.2236 129.453 56.3986 144.054 51.3608 156.225C49.0403 156.171 44.5845 153.942 40.435 145.021C40.1422 144.63 39.4394 144.025 38.971 144.728C38.3854 145.606 38.971 149.998 40.435 152.048C40.6332 152.325 40.8595 152.667 41.1144 153.053C42.7417 155.513 45.5375 159.74 49.6883 160.246C43.5657 174.895 38.7626 185.589 36.043 191.283H40.7278C42.2433 187.471 44.0471 182.953 46.0294 177.988C47.9462 173.187 50.0299 167.968 52.1815 162.564C54.5192 163.034 58.3967 163.564 61.5166 163.174C65.2644 162.706 67.1774 160.051 67.6654 158.782C67.9582 157.416 68.1338 155.151 66.4942 157.025C64.8545 158.899 62.4926 159.563 61.5166 159.661C57.8515 160.068 55.101 159.177 53.8033 158.489C59.9913 142.926 66.527 126.349 71.1416 114.113C72.0871 114.449 73.6737 114.707 76.1566 114.569C80.7783 114.314 82.2386 113.167 84.0913 111.712C84.3623 111.499 84.6417 111.28 84.9405 111.056C87.2829 109.299 88.1613 106.371 87.2829 105.785C86.5802 105.317 85.4285 106.957 84.9405 107.835C83.3009 109.709 80.3533 110.373 79.0845 110.47C78.0957 110.668 74.8109 110.462 72.5785 110.276C74.2827 105.687 75.6246 101.921 76.4493 99.3438C79.4359 90.0109 83.2554 80.797 86.6182 72.7641C89.6365 73.1312 95.3897 73.4392 97.8217 72.1127C100.398 70.7073 101.628 67.6231 101.921 66.2567C101.921 64.5975 101.687 62.0404 100.75 65.0855C99.5785 68.8919 97.8217 70.9415 93.1369 70.3559C89.6968 69.9259 88.4605 69.2986 88.2051 68.972C89.501 65.8669 90.6867 62.9861 91.6749 60.4014C94.7201 52.4373 95.6765 49.2751 95.7741 48.6895C92.8191 53.2451 89.1414 60.8047 85.8212 68.2132C84.0759 67.6031 80.918 65.6999 80.2538 62.1576C79.8634 61.084 79.1412 58.1169 79.3754 54.8376C79.1802 54.1544 78.6142 53.1979 77.9115 54.8376C77.0331 56.8872 76.4475 62.4503 77.9115 65.0855C79.3172 67.6158 80.9927 69.3362 84.2343 71.802Z" fill="#E67591"/>
</svg>
