<svg width="218" height="241" viewBox="0 0 218 241" fill="none" xmlns="http://www.w3.org/2000/svg">
<path d="M48.8948 248.838C48.5827 253.856 49.9817 259.911 56.086 262.842L151.902 241.019C152.604 240.374 152.908 236.77 150.021 232.761C144.169 224.636 137.283 224.749 131.198 223.588C129.126 223.193 132.457 219.62 140.532 213.459C152.02 203.204 158.294 194.014 160.645 189.962C163.78 184.56 160.183 177.8 155.767 175.023C151.351 172.245 146.915 171.825 143.629 171.24C136.849 169.582 134.08 169.777 133.77 169.483C132.549 168.913 133.646 166.383 147.806 160.83C165.505 153.888 177.321 140.284 175.037 130.255C172.753 120.225 167.671 112.288 158.128 111.915C150.493 111.617 149.402 110.871 149.811 110.536C153.462 107.4 162.649 98.2262 170.19 86.6139C179.617 72.0986 180.383 64.2844 178.965 58.0596C177.548 51.8347 171.271 43.4421 162.892 44.9867C154.513 46.5313 153.428 44.9596 153.458 43.4975C153.489 42.0354 154.978 32.6018 152.002 22.73C149.622 14.8326 143.753 9.93665 141.117 8.47583C137.216 5.72636 128.492 7.34971 125.208 12.0991C121.924 16.8486 118.912 29.1756 118.819 33.562C118.745 37.0711 116.976 36.6495 116.101 36.0001C109.594 27.8782 103.891 26.0484 101.852 26.1488C97.644 25.7734 88.2221 26.9977 84.201 34.8981C79.1747 44.7735 82.9728 64.6438 84.3426 69.0609C85.4384 72.5946 84.192 72.1267 83.4319 71.4511C75.2411 64.877 68.6782 67.8996 66.4206 70.2327C64.6606 72.0886 61.5415 78.8378 63.1444 90.9866C64.7473 103.135 71.5254 122.632 76.8388 127.156C80.9249 130.635 89.4788 140.464 80.9138 133.867C74.7613 129.128 69.1012 128.235 65.8816 128.56C59.9863 129.296 48.2069 134.332 48.2513 148.582C48.3067 166.394 65.2404 176.769 68.2914 178.984C69.1032 179.574 70.9965 181.278 70.2261 181.09C64.7263 177.631 61.7084 179.34 59.5618 180.556L59.5384 180.57C53.4408 185.742 52.412 193.47 52.6598 196.687C52.8383 208.651 59.5004 223.899 62.406 228.299C64.102 230.867 64.9514 231.401 65.5838 232.668C60.7224 232.001 54.8205 235.748 53.21 237.349C50.8371 239.709 49.1332 245.005 48.8948 248.838Z" fill="#E890A6"/>
<path fill-rule="evenodd" clip-rule="evenodd" d="M118.165 90.5874C116.838 97.578 115.758 104.061 115.097 108.408C113.837 118.966 112.537 129.121 111.226 138.807C109.384 138.446 106.157 136.926 102.799 132.672C101.598 131.127 98.9099 127.737 97.7649 126.543C96.8631 125.778 95.3118 125.356 96.32 129.782C97.3826 134.448 100.925 137.514 103.123 139.416C103.532 139.77 103.894 140.083 104.186 140.359C105.341 141.455 108.34 142.658 110.594 143.429C107.676 164.604 104.723 183.416 102.047 199.148C99.2921 199.708 93.4294 198.274 86.1283 188.853C85.6774 188.471 84.6846 187.945 84.3203 188.901C83.8649 190.096 85.7381 195.126 88.0187 197.153C88.3276 197.428 88.6868 197.771 89.0916 198.157C91.6754 200.625 96.1148 204.866 101.154 204.347C97.8627 223.297 95.0664 237.219 93.386 244.677L98.9194 243.416C99.6839 238.507 100.599 232.686 101.604 226.289C102.577 220.102 103.634 213.376 104.722 206.414C107.61 206.341 112.332 205.923 115.912 204.624C120.213 203.062 121.758 199.412 121.993 197.782C121.971 196.089 121.57 193.367 120.137 196.022C118.705 198.676 116.093 200.096 114.967 200.474C110.748 201.94 107.259 201.628 105.541 201.164C108.664 181.118 111.924 159.78 114.083 144.086C115.29 144.228 117.233 144.106 120.129 143.276C125.519 141.731 126.935 139.984 128.732 137.767C128.995 137.443 129.266 137.108 129.559 136.763C131.853 134.058 132.102 130.363 130.907 129.908C129.951 129.544 129.032 131.79 128.692 132.959C127.26 135.613 123.957 137.19 122.484 137.647C121.369 138.146 117.434 138.787 114.747 139.167C115.526 133.289 116.098 128.48 116.379 125.214C117.395 113.387 119.428 101.477 121.239 91.0844C124.902 90.7063 131.784 89.5225 134.3 87.3007C136.966 84.9475 137.588 80.9739 137.567 79.2812C137.12 77.3215 136.156 74.3642 135.868 78.2129C135.509 83.0239 133.985 85.9173 128.294 86.4859C124.104 86.9046 122.477 86.4928 122.094 86.1754C122.789 82.1603 123.414 78.4396 123.886 75.1216C125.34 64.8956 125.619 60.9033 125.577 60.1854C123.312 66.361 121.002 76.2792 119.073 85.9227C116.847 85.6705 112.609 84.2715 110.872 80.2683C110.122 79.1053 108.471 75.7951 107.865 71.8587C107.451 71.1042 106.525 70.1268 106.136 72.2525C105.65 74.9097 106.455 81.638 108.893 84.3567C111.234 86.9665 113.675 88.5477 118.165 90.5874Z" fill="#E67591"/>
</svg>
