<svg width="203" height="198" viewBox="0 0 203 198" fill="none" xmlns="http://www.w3.org/2000/svg">
<path d="M201.723 258.1C203.408 263.828 203.385 271.207 197.09 276.21H80.4005C79.4178 275.649 78.1148 271.556 80.4005 266.153C85.0335 255.203 93.0359 253.518 99.7748 250.57C102.069 249.566 97.2705 246.307 86.297 241.304C70.2922 232.459 60.6051 223.474 56.8145 219.402C51.7604 213.974 54.1418 205.2 58.522 200.82C62.9023 196.439 67.9283 194.783 71.5786 193.238C78.9913 189.532 82.2484 189.027 82.5292 188.605C83.7927 187.623 81.8553 184.983 63.9973 182.287C41.6749 178.918 24.4065 166.283 24.4065 154.069C24.4065 141.854 28.1971 131.325 39.1478 128.377C47.9083 126.018 48.9753 124.867 48.4137 124.586C43.3596 121.919 30.303 113.72 18.51 102.264C3.76875 87.9436 0.820496 79.0986 0.820496 71.5176C0.820496 63.9366 5.87465 52.5645 15.9829 52.1434C26.0912 51.7222 26.9336 49.6163 26.5124 47.9316C26.0912 46.2469 21.8794 35.7174 22.7218 23.5032C23.3957 13.7319 28.8991 6.51581 31.5666 4.12921C35.3572 -0.0825801 45.8866 -0.503759 50.9408 4.12921C55.9949 8.76218 62.7338 22.2399 63.9973 27.294C65.0082 31.3374 66.9456 30.3827 67.7879 29.3999C73.179 18.2808 79.3002 14.6583 81.6869 14.2369C86.4602 12.6926 97.6916 11.6256 104.431 19.7122C112.854 29.8205 113.696 53.8277 113.275 59.3031C112.938 63.6833 114.258 62.8129 114.96 61.8302C122.71 52.0589 131.105 53.8278 134.334 55.9337C136.861 57.6184 142.252 64.61 143.6 79.0986C144.948 93.5871 142.241 117.947 137.282 124.586C133.469 129.691 126.157 143.327 134.334 133.431C140.208 126.322 146.526 123.795 150.339 123.322C157.359 122.62 172.325 125.344 176.031 141.854C180.664 162.492 163.794 178.969 160.846 182.339C160.061 183.235 158.319 185.708 159.161 185.287C164.616 179.831 168.561 181.015 171.367 181.857L171.398 181.866C179.822 186.246 183.051 194.923 183.612 198.713C186.56 212.612 182.868 232.022 180.664 237.883C179.378 241.304 178.535 242.146 178.137 243.78C183.589 241.725 191.411 244.507 193.698 245.937C197.067 248.043 200.437 253.725 201.723 258.1Z" fill="#E890A6"/>
<path fill-rule="evenodd" clip-rule="evenodd" d="M82.997 89.6516C86.3765 97.395 89.3365 104.615 91.2474 109.475C95.4906 121.366 99.6733 132.78 103.746 143.649C105.783 142.746 109.118 140.135 111.885 134.324C112.868 132.218 115.086 127.585 116.097 125.901C116.939 124.778 118.624 123.879 118.624 129.27C118.624 134.952 115.331 139.436 113.288 142.218C112.907 142.735 112.571 143.194 112.306 143.59C111.258 145.163 108.103 147.347 105.696 148.835C114.659 172.581 123.038 193.583 130.284 211.091C133.622 211.014 140.032 207.807 146.001 194.974C146.422 194.413 147.433 193.542 148.107 194.553C148.949 195.816 148.107 202.134 146.001 205.082C145.715 205.482 145.39 205.974 145.023 206.528C142.683 210.067 138.661 216.147 132.69 216.875C141.497 237.947 148.406 253.329 152.318 261.52H145.579C143.399 256.037 140.805 249.538 137.953 242.395C135.196 235.489 132.199 227.982 129.104 220.21C125.741 220.886 120.164 221.648 115.676 221.087C110.285 220.413 107.533 216.595 106.831 214.77C106.41 212.804 106.157 209.547 108.516 212.242C110.874 214.938 114.272 215.893 115.676 216.033C120.948 216.619 124.904 215.338 126.771 214.347C117.87 191.961 108.469 168.116 101.831 150.515C100.471 150.998 98.1882 151.369 94.6168 151.172C87.9687 150.804 85.8681 149.154 83.2031 147.062C82.8133 146.755 82.4114 146.44 81.9815 146.117C78.612 143.59 77.3485 139.379 78.612 138.536C79.6229 137.862 81.2795 140.221 81.9815 141.484C84.3401 144.18 88.5799 145.135 90.4051 145.275C91.8275 145.559 96.5525 145.264 99.7637 144.995C97.3123 138.395 95.382 132.977 94.1957 129.27C89.8997 115.845 84.4055 102.591 79.5682 91.0365C75.2271 91.5646 66.9493 92.0082 63.4504 90.0997C59.7441 88.0781 57.9751 83.6417 57.5539 81.6762C57.5539 79.2895 57.8909 75.6112 59.2386 79.9914C60.9234 85.4668 63.4504 88.415 70.1893 87.5727C75.1442 86.9533 76.9208 86.0493 77.2848 85.5801C75.421 81.1142 73.7158 76.9709 72.2944 73.2534C67.9141 61.7973 66.5382 57.2486 66.3979 56.4062C70.6484 62.9592 75.9385 73.8332 80.7146 84.4898C83.2254 83.6115 87.7658 80.874 88.7209 75.7798C89.2825 74.2354 90.3214 69.9675 89.9845 65.2503C90.2653 64.2675 91.0795 62.8917 92.0904 65.2503C93.3539 68.1985 94.1962 76.2008 92.0904 79.9914C90.0686 83.6307 87.6587 86.1053 82.997 89.6516Z" fill="#E67591"/>
</svg>
