<svg width="169" height="137" viewBox="0 0 169 137" fill="none" xmlns="http://www.w3.org/2000/svg">
<path d="M38.1798 192.962C37.9387 196.838 39.0192 201.514 43.7336 203.778L117.733 186.924C118.275 186.426 118.51 183.642 116.28 180.546C111.761 174.271 106.443 174.358 101.743 173.462C100.143 173.157 102.716 170.397 108.952 165.639C117.824 157.719 122.669 150.621 124.485 147.492C126.906 143.32 124.129 138.099 120.718 135.954C117.308 133.809 113.881 133.485 111.343 133.032C106.107 131.753 103.969 131.903 103.73 131.676C102.787 131.235 103.634 129.282 114.569 124.993C128.239 119.632 137.364 109.125 135.6 101.38C133.836 93.6338 129.911 87.504 122.541 87.216C116.645 86.9856 115.802 86.4096 116.118 86.1503C118.938 83.7288 126.033 76.6437 131.857 67.6755C139.137 56.4652 139.729 50.4302 138.634 45.6227C137.539 40.8152 132.692 34.3336 126.221 35.5265C119.75 36.7193 118.911 35.5055 118.935 34.3763C118.959 33.2471 120.109 25.9615 117.811 18.3375C115.972 12.2383 111.44 8.45705 109.403 7.32885C106.391 5.20542 99.653 6.45914 97.1171 10.1272C94.5811 13.7952 92.2543 23.3155 92.183 26.7031C92.126 29.4131 90.7594 29.0876 90.0833 28.586C85.0585 22.3134 80.6536 20.9003 79.0792 20.9778C75.8291 20.6879 68.5525 21.6335 65.447 27.735C61.5652 35.3618 64.4984 50.7078 65.5563 54.1191C66.4027 56.8482 65.4401 56.4869 64.853 55.9651C58.5272 50.8879 53.4586 53.2223 51.7151 55.0241C50.3558 56.4575 47.9469 61.6699 49.1848 71.0525C50.4228 80.4352 55.6575 95.4921 59.7611 98.986C62.9168 101.673 69.5231 109.264 62.9083 104.169C58.1567 100.509 53.7853 99.8194 51.2988 100.071C46.7458 100.639 37.6485 104.528 37.6828 115.533C37.7255 129.29 50.8036 137.303 53.1599 139.014C53.7868 139.469 55.2491 140.785 54.6541 140.64C50.4065 137.968 48.0758 139.289 46.418 140.228L46.3999 140.238C41.6907 144.232 40.8961 150.201 41.0875 152.686C41.2253 161.926 46.3705 173.701 48.6146 177.1C49.9244 179.083 50.5804 179.496 51.0688 180.474C47.3143 179.959 42.7562 182.853 41.5124 184.09C39.6798 185.912 38.3639 190.002 38.1798 192.962Z" fill="#E890A6"/>
<path fill-rule="evenodd" clip-rule="evenodd" d="M91.6774 77.9652C90.6527 83.3636 89.8186 88.3698 89.3086 91.7273C88.3353 99.8811 87.3314 107.724 86.3187 115.204C84.8964 114.926 82.4043 113.752 79.8102 110.467C78.8828 109.273 76.807 106.655 75.9226 105.733C75.2262 105.142 74.0281 104.816 74.8067 108.235C75.6274 111.838 78.3636 114.206 80.0609 115.675C80.3767 115.948 80.6566 116.19 80.8814 116.403C81.7734 117.249 84.0896 118.179 85.831 118.774C83.5769 135.128 81.2968 149.657 79.23 161.806C77.1021 162.239 72.5743 161.131 66.9356 153.855C66.5874 153.56 65.8207 153.154 65.5393 153.892C65.1876 154.815 66.6343 158.7 68.3956 160.266C68.6341 160.478 68.9116 160.743 69.2242 161.041C71.2197 162.947 74.6483 166.222 78.5398 165.822C75.9982 180.456 73.8386 191.209 72.5408 196.968L76.8143 195.995C77.4047 192.204 78.1113 187.708 78.8879 182.768C79.639 177.99 80.4555 172.795 81.2957 167.418C83.5259 167.361 87.1729 167.039 89.9379 166.035C93.2593 164.829 94.4528 162.01 94.6344 160.751C94.6176 159.444 94.3074 157.342 93.201 159.392C92.0946 161.442 90.0779 162.538 89.2079 162.83C85.9493 163.963 83.2551 163.722 81.9283 163.363C84.3397 147.882 86.8575 131.402 88.5249 119.282C89.457 119.391 90.958 119.297 93.1943 118.656C97.3572 117.463 98.451 116.113 99.8388 114.401C100.042 114.151 100.251 113.893 100.477 113.626C102.249 111.537 102.442 108.683 101.519 108.332C100.78 108.05 100.071 109.785 99.8079 110.688C98.7015 112.738 96.1507 113.956 95.0136 114.308C94.1526 114.694 91.1135 115.189 89.0383 115.483C89.6395 110.943 90.0812 107.229 90.2981 104.706C91.0834 95.5727 92.6532 86.3744 94.0518 78.3482C96.881 78.0561 102.195 77.1418 104.138 75.4262C106.196 73.6088 106.677 70.54 106.66 69.2327C106.316 67.7192 105.571 65.4352 105.349 68.4076C105.071 72.1232 103.894 74.3578 99.4992 74.797C96.2675 75.1199 95.0103 74.8032 94.7117 74.5582C95.2487 71.4567 95.7317 68.5828 96.0962 66.0199C97.2193 58.1223 97.4348 55.039 97.4022 54.4845C95.6531 59.2541 93.8689 66.9142 92.3793 74.3622C90.6601 74.1678 87.3855 73.0876 86.044 69.995C85.4648 69.0968 84.1896 66.5403 83.7219 63.5002C83.4019 62.9176 82.6868 62.1627 82.3864 63.8044C82.011 65.8565 82.6326 71.0529 84.5156 73.1526C86.3233 75.1684 88.2089 76.3896 91.6774 77.9652Z" fill="#E67591"/>
</svg>
