<svg width="135" height="112" viewBox="0 0 135 112" fill="none" xmlns="http://www.w3.org/2000/svg">
<path d="M38.4261 2.30801C39.5098 4.4754 39.5098 10.2551 39.5098 10.6163C37.3424 12.0613 32.5019 14.5899 30.479 13.145C28.4561 11.7 26.7463 8.93059 26.1442 7.72649C24.6993 5.70359 25.3013 4.4754 25.783 4.11417C29.3953 1.22432 35.175 0.140625 36.2587 0.140625C37.3424 0.140625 37.3424 0.140625 38.4261 2.30801Z" fill="url(#paint0_linear_132_2586)"/>
<path d="M83.9427 9.53333C86.5436 10.1113 90.0837 12.664 91.5286 13.8681C97.1879 33.2543 108.651 73.0381 109.229 77.0838C109.807 81.1296 108.025 85.5126 107.062 87.1983C98.0308 96.9516 91.1674 100.564 82.4978 104.176C73.8282 107.789 63.7138 106.705 51.4319 105.621C39.15 104.537 27.9518 99.119 22.5334 93.3393C17.1149 87.5596 9.89027 79.2512 7.00042 67.6918C4.11057 56.1324 5.55549 42.7669 7.00042 38.7933C8.44534 34.8198 11.3352 30.485 14.9475 29.7625C18.5598 29.0401 18.1986 25.0665 23.2558 18.9256C28.3131 12.7846 32.6479 10.6173 34.454 9.53333C36.2602 8.4494 46.7359 5.19855 53.238 4.83732C59.7402 4.47609 70.2159 4.83732 73.467 6.28225C76.7181 7.72717 80.6916 8.81087 83.9427 9.53333Z" fill="url(#paint1_linear_132_2586)"/>
<path d="M83.9422 9.53333C86.543 10.1113 90.0831 12.664 91.528 13.8681C94.5383 16.2764 100.848 21.7432 102.004 24.3441C103.449 27.5951 107.422 29.4013 112.841 45.6567C118.259 61.9121 111.396 75.6389 109.951 77.0838C109.83 77.4451 109.012 77.7341 106.7 76.0001C106.218 75.5185 104.533 74.5552 101.643 74.5552C98.0304 74.5552 87.9159 74.5552 80.6913 71.6654C73.4667 68.7755 70.5768 68.0531 63.7134 62.9958C56.85 57.9386 57.2113 56.4937 52.5152 52.1589C50.3479 50.1119 44.7849 45.2955 39.8721 42.4056C33.7312 38.7933 24.7004 40.9607 22.1718 43.1281C20.8473 44.3322 17.6203 46.5237 15.3084 45.6567C12.4185 44.573 12.0573 43.4893 11.6961 41.3219C11.3348 39.1545 9.52869 35.5422 8.445 35.9035C7.36131 36.2647 9.88953 29.4013 14.947 29.7625C18.5593 29.0401 18.1981 25.0665 23.2553 18.9256C28.3125 12.7846 32.6473 10.6173 34.4535 9.53333C36.2596 8.4494 46.7353 5.19855 53.2375 4.83732C59.7397 4.47609 70.2154 4.83732 73.4665 6.28225C76.7175 7.72717 80.6911 8.81087 83.9422 9.53333Z" fill="url(#paint2_linear_132_2586)"/>
<path d="M29.7682 32.0568C31.2132 33.2127 30.1295 34.7058 29.407 35.3079C29.1661 35.4283 28.3952 35.5968 27.2393 35.3079C26.0833 35.0189 26.276 33.5017 26.5168 32.7793C26.9986 32.0568 28.3233 30.9009 29.7682 32.0568Z" fill="#515151"/>
<path d="M18.9323 27.0002C20.3772 28.1561 19.2935 29.6492 18.5711 30.2512C18.3301 30.3716 17.5593 30.5402 16.4033 30.2512C15.2474 29.9623 15.44 28.4451 15.6809 27.7226C16.1626 27.0002 17.4874 25.8442 18.9323 27.0002Z" fill="#515151"/>
<path fill-rule="evenodd" clip-rule="evenodd" d="M6.57006 48.277C5.73952 48.1583 4.43951 48.016 3.24594 47.9747C2.64828 47.954 2.08965 47.959 1.63519 48.0021C1.15224 48.0478 0.879829 48.1296 0.777184 48.198C0.547417 48.3512 0.236984 48.2891 0.0838089 48.0594C-0.0693665 47.8296 -0.00727844 47.5192 0.222481 47.366C0.553314 47.1454 1.05454 47.0526 1.54089 47.0066C2.05574 46.9578 2.66209 46.9538 3.28057 46.9753C4.51929 47.0182 5.85628 47.1649 6.71148 47.287C6.98485 47.3261 7.1748 47.5794 7.13574 47.8527C7.09669 48.1261 6.84343 48.316 6.57006 48.277ZM5.55556 56.7164C5.83171 56.7164 6.05556 56.9403 6.05556 57.2164C6.05556 57.4926 5.83171 57.7164 5.55556 57.7164C5.09324 57.7164 4.34042 57.7514 3.60284 57.856C2.83868 57.9643 2.18929 58.135 1.85937 58.3549C1.6296 58.5081 1.31917 58.446 1.16599 58.2162C1.01282 57.9865 1.07491 57.676 1.30466 57.5229C1.84171 57.1648 2.69744 56.9743 3.4625 56.8659C4.25414 56.7537 5.0546 56.7164 5.55556 56.7164ZM7.85169 63.972C7.79179 63.7025 7.5247 63.5325 7.25513 63.5924C6.69462 63.717 5.80511 63.9579 4.94029 64.2803C4.09872 64.594 3.1926 65.0158 2.67527 65.5331C2.48001 65.7284 2.48001 66.0449 2.67527 66.2402C2.87054 66.4355 3.18712 66.4355 3.38238 66.2402C3.73199 65.8906 4.45142 65.5297 5.28957 65.2173C6.10448 64.9135 6.94889 64.6848 7.47207 64.5686C7.74163 64.5087 7.9116 64.2416 7.85169 63.972ZM9.38912 69.3816C9.65405 69.3037 9.93197 69.4553 10.0099 69.7202C10.0878 69.9851 9.93621 70.263 9.67129 70.341L3.53035 72.1471C3.26543 72.225 2.9875 72.0734 2.90958 71.8085C2.83167 71.5436 2.98327 71.2657 3.24818 71.1877L9.38912 69.3816ZM12.1987 76.0006C12.1987 75.7245 11.9749 75.5006 11.6987 75.5006C11.5367 75.5006 11.3194 75.5439 11.0687 75.6138C10.8051 75.6874 10.4653 75.802 10.0428 75.9692C9.1973 76.3036 8.0044 76.855 6.40204 77.7291C6.15961 77.8613 6.07029 78.165 6.20252 78.4074C6.33475 78.6499 6.63847 78.7392 6.88089 78.607C8.45737 77.7471 9.61248 77.2148 10.4106 76.899C10.8099 76.7411 11.1158 76.6389 11.3375 76.577C11.4484 76.5461 11.5349 76.5262 11.5992 76.5143C11.6311 76.5083 11.6557 76.5048 11.6736 76.5027C11.6826 76.5017 11.689 76.5012 11.6931 76.5009L11.6987 76.5006C11.9749 76.5006 12.1987 76.2768 12.1987 76.0006ZM15.3714 81.019C15.5924 80.8533 15.9058 80.8981 16.0714 81.119C16.2371 81.3399 16.1924 81.6533 15.9715 81.819L11.6367 85.0701C11.4158 85.2358 11.1024 85.191 10.9367 84.9701C10.771 84.7492 10.8158 84.4358 11.0367 84.2701L15.3714 81.019ZM19.297 86.1448C19.1135 85.9384 18.7975 85.9198 18.5911 86.1033L15.34 88.9931C15.1336 89.1766 15.115 89.4926 15.2985 89.699C15.4819 89.9054 15.798 89.924 16.0044 89.7405L19.2554 86.8507C19.4618 86.6672 19.4804 86.3512 19.297 86.1448ZM22.589 90.7779C22.807 90.6083 23.1211 90.6476 23.2907 90.8656C23.4602 91.0835 23.4209 91.3977 23.203 91.5672C22.6701 91.9816 21.852 92.6577 21.1347 93.3335C20.7757 93.6719 20.4491 94.0035 20.1979 94.2978C19.9337 94.6074 19.7971 94.8256 19.758 94.943C19.6707 95.2049 19.3875 95.3465 19.1256 95.2592C18.8636 95.1719 18.722 94.8887 18.8093 94.6267C18.9147 94.3106 19.1665 93.9659 19.4373 93.6486C19.7212 93.316 20.0764 92.9568 20.4489 92.6058C21.1947 91.903 22.0382 91.2063 22.589 90.7779ZM28.3075 94.7917C28.1122 94.5965 27.7956 94.5965 27.6004 94.7917C27.1713 95.2208 26.5111 95.9177 25.919 96.6202C25.6231 96.9713 25.3394 97.3294 25.1089 97.6599C24.8854 97.9804 24.6859 98.3109 24.5897 98.5995C24.5024 98.8615 24.644 99.1446 24.906 99.2319C25.1679 99.3193 25.4511 99.1777 25.5384 98.9157C25.5867 98.7708 25.7154 98.5384 25.9291 98.232C26.1359 97.9356 26.3986 97.6029 26.6836 97.2646C27.2535 96.5885 27.8937 95.9127 28.3075 95.4988C28.5028 95.3036 28.5028 94.987 28.3075 94.7917ZM33.0489 98.0175C33.2585 97.8378 33.5742 97.862 33.7539 98.0717C33.9336 98.2814 33.9093 98.597 33.6996 98.7767C33.2985 99.1206 32.6705 99.7309 32.1113 100.426C31.5404 101.136 31.0944 101.87 30.9747 102.469C30.9205 102.739 30.6571 102.915 30.3863 102.861C30.1156 102.807 29.9399 102.543 29.9941 102.273C30.1634 101.426 30.7409 100.535 31.332 99.7996C31.9347 99.0501 32.6071 98.3961 33.0489 98.0175ZM42.2181 101.181C41.9596 101.084 41.6714 101.215 41.5744 101.473C41.3893 101.967 41.1135 102.776 40.8832 103.611C40.657 104.432 40.4589 105.332 40.4589 105.984C40.4589 106.26 40.6827 106.484 40.9589 106.484C41.235 106.484 41.4589 106.26 41.4589 105.984C41.4589 105.48 41.6219 104.694 41.8473 103.877C42.0685 103.075 42.3346 102.294 42.5107 101.824C42.6077 101.566 42.4767 101.278 42.2181 101.181ZM47.5552 102.922C47.6507 102.663 47.9381 102.53 48.1972 102.625C48.4563 102.721 48.5891 103.008 48.4936 103.267C48.3144 103.754 48.0518 104.581 47.8545 105.458C47.6542 106.348 47.5345 107.235 47.6047 107.866C47.6353 108.141 47.4376 108.388 47.1631 108.419C46.8887 108.449 46.6414 108.251 46.6109 107.977C46.5213 107.172 46.6738 106.151 46.8788 105.239C47.0867 104.314 47.3624 103.446 47.5552 102.922ZM57.9373 103.678C57.6612 103.678 57.4373 103.902 57.4373 104.178V104.186V104.195V104.203V104.212V104.221V104.229V104.238V104.247V104.256V104.264V104.273V104.282V104.291V104.3V104.309V104.318V104.327V104.336V104.345V104.355V104.364V104.373V104.382V104.392V104.401V104.41V104.42V104.429V104.439V104.448V104.458V104.467V104.477V104.487V104.496V104.506V104.516V104.525V104.535V104.545V104.555V104.565V104.575V104.585V104.595V104.605V104.615V104.625V104.635V104.645V104.655V104.665V104.676V104.686V104.696V104.707V104.717V104.727V104.738V104.748V104.758V104.769V104.779V104.79V104.801V104.811V104.822V104.832V104.843V104.854V104.864V104.875V104.886V104.897V104.908V104.918V104.929V104.94V104.951V104.962V104.973V104.984V104.995V105.006V105.017V105.028V105.039V105.05V105.062V105.073V105.084V105.095V105.106V105.118V105.129V105.14V105.152V105.163V105.174V105.186V105.197V105.208V105.22V105.231V105.243V105.254V105.266V105.277V105.289V105.301V105.312V105.324V105.335V105.347V105.359V105.37V105.382V105.394V105.406V105.417V105.429V105.441V105.453V105.465V105.477V105.488V105.5V105.512V105.524V105.536V105.548V105.56V105.572V105.584V105.596V105.608V105.62V105.632V105.644V105.656V105.668V105.68V105.692V105.705V105.717V105.729V105.741V105.753V105.765V105.778V105.79V105.802V105.814V105.827V105.839V105.851V105.863V105.876V105.888V105.9V105.913V105.925V105.937V105.95V105.962V105.974V105.987V105.999V106.012V106.024V106.036V106.049V106.061V106.074V106.086V106.099V106.111V106.123V106.136V106.148V106.161V106.173V106.186V106.198V106.211V106.223V106.236V106.249V106.261V106.274V106.286V106.299V106.311V106.324V106.336V106.349V106.362V106.374V106.387V106.399V106.412V106.424V106.437V106.45V106.462V106.475V106.487V106.5V106.513V106.525V106.538V106.55V106.563V106.576V106.588V106.601V106.614V106.626V106.639V106.651V106.664V106.677V106.689V106.702V106.714V106.727V106.74V106.752V106.765V106.777V106.79V106.803V106.815V106.828V106.84V106.853V106.866V106.878V106.891V106.903V106.916V106.928V106.941V106.954V106.966V106.979V106.991V107.004V107.016V107.029V107.041V107.054V107.066V107.079V107.091V107.104V107.116V107.129V107.141V107.154V107.166V107.179V107.191V107.204V107.216V107.228V107.241V107.253V107.266V107.278V107.29V107.303V107.315V107.327V107.34V107.352V107.364V107.377V107.389V107.401V107.414V107.426V107.438V107.45V107.463V107.475V107.487V107.499V107.511V107.523V107.536V107.548V107.56V107.572V107.584V107.596V107.608V107.62V107.632V107.644V107.656V107.668V107.68V107.692V107.704V107.716V107.728V107.74V107.752V107.764V107.776V107.788V107.8V107.811V107.823V107.835V107.847V107.858V107.87V107.882V107.894V107.905V107.917V107.929V107.94V107.952V107.963V107.975V107.987V107.998V108.01V108.021V108.033V108.044V108.055V108.067V108.078V108.09V108.101V108.112V108.124V108.135V108.146V108.157V108.169V108.18V108.191V108.202V108.213V108.224V108.235V108.246V108.258V108.269V108.28V108.29V108.301V108.312V108.323V108.334V108.345V108.356V108.367V108.377V108.388V108.399V108.409V108.42V108.431V108.441V108.452V108.463V108.473V108.484V108.494V108.505V108.515V108.525V108.536V108.546V108.556V108.567V108.577V108.587V108.597V108.608V108.618V108.628V108.638V108.648V108.658V108.668V108.678V108.688V108.698V108.708V108.717V108.727V108.737V108.747V108.756V108.766V108.776V108.785V108.795V108.805V108.814V108.824V108.833V108.842V108.852V108.861V108.87V108.88V108.889V108.898V108.907V108.917V108.926V108.935V108.944V108.953V108.962V108.971V108.98V108.988V108.997V109.006V109.015V109.023V109.032V109.041V109.049V109.058V109.066V109.075V109.083V109.092V109.1V109.109V109.117V109.125V109.133V109.142V109.15V109.158V109.166V109.174V109.182V109.19V109.198V109.206V109.213V109.221V109.229V109.237V109.244V109.252V109.259V109.267V109.274V109.282V109.289V109.297V109.304V109.311V109.318V109.326V109.333V109.34V109.347V109.354V109.361V109.368V109.375V109.382V109.388V109.395V109.402V109.408V109.415V109.422V109.428V109.435V109.441V109.447V109.454V109.46V109.466V109.472V109.479V109.485V109.491V109.497V109.503V109.509V109.514V109.52V109.526V109.532V109.537V109.543V109.549V109.554V109.56V109.565V109.57V109.576V109.581V109.586V109.591V109.596C57.4373 109.872 57.6612 110.096 57.9373 110.096C58.2135 110.096 58.4373 109.872 58.4373 109.596V109.591V109.586V109.581V109.576V109.57V109.565V109.56V109.554V109.549V109.543V109.537V109.532V109.526V109.52V109.514V109.509V109.503V109.497V109.491V109.485V109.479V109.472V109.466V109.46V109.454V109.447V109.441V109.435V109.428V109.422V109.415V109.408V109.402V109.395V109.388V109.382V109.375V109.368V109.361V109.354V109.347V109.34V109.333V109.326V109.318V109.311V109.304V109.297V109.289V109.282V109.274V109.267V109.259V109.252V109.244V109.237V109.229V109.221V109.213V109.206V109.198V109.19V109.182V109.174V109.166V109.158V109.15V109.142V109.133V109.125V109.117V109.109V109.1V109.092V109.083V109.075V109.066V109.058V109.049V109.041V109.032V109.023V109.015V109.006V108.997V108.988V108.98V108.971V108.962V108.953V108.944V108.935V108.926V108.917V108.907V108.898V108.889V108.88V108.87V108.861V108.852V108.842V108.833V108.824V108.814V108.805V108.795V108.785V108.776V108.766V108.756V108.747V108.737V108.727V108.717V108.708V108.698V108.688V108.678V108.668V108.658V108.648V108.638V108.628V108.618V108.608V108.597V108.587V108.577V108.567V108.556V108.546V108.536V108.525V108.515V108.505V108.494V108.484V108.473V108.463V108.452V108.441V108.431V108.42V108.409V108.399V108.388V108.377V108.367V108.356V108.345V108.334V108.323V108.312V108.301V108.29V108.28V108.269V108.258V108.246V108.235V108.224V108.213V108.202V108.191V108.18V108.169V108.157V108.146V108.135V108.124V108.112V108.101V108.09V108.078V108.067V108.055V108.044V108.033V108.021V108.01V107.998V107.987V107.975V107.963V107.952V107.94V107.929V107.917V107.905V107.894V107.882V107.87V107.858V107.847V107.835V107.823V107.811V107.8V107.788V107.776V107.764V107.752V107.74V107.728V107.716V107.704V107.692V107.68V107.668V107.656V107.644V107.632V107.62V107.608V107.596V107.584V107.572V107.56V107.548V107.536V107.523V107.511V107.499V107.487V107.475V107.463V107.45V107.438V107.426V107.414V107.401V107.389V107.377V107.364V107.352V107.34V107.327V107.315V107.303V107.29V107.278V107.266V107.253V107.241V107.228V107.216V107.204V107.191V107.179V107.166V107.154V107.141V107.129V107.116V107.104V107.091V107.079V107.066V107.054V107.041V107.029V107.016V107.004V106.991V106.979V106.966V106.954V106.941V106.928V106.916V106.903V106.891V106.878V106.866V106.853V106.84V106.828V106.815V106.803V106.79V106.777V106.765V106.752V106.74V106.727V106.714V106.702V106.689V106.677V106.664V106.651V106.639V106.626V106.614V106.601V106.588V106.576V106.563V106.55V106.538V106.525V106.513V106.5V106.487V106.475V106.462V106.45V106.437V106.424V106.412V106.399V106.387V106.374V106.362V106.349V106.336V106.324V106.311V106.299V106.286V106.274V106.261V106.249V106.236V106.223V106.211V106.198V106.186V106.173V106.161V106.148V106.136V106.123V106.111V106.099V106.086V106.074V106.061V106.049V106.036V106.024V106.012V105.999V105.987V105.974V105.962V105.95V105.937V105.925V105.913V105.9V105.888V105.876V105.863V105.851V105.839V105.827V105.814V105.802V105.79V105.778V105.765V105.753V105.741V105.729V105.717V105.705V105.692V105.68V105.668V105.656V105.644V105.632V105.62V105.608V105.596V105.584V105.572V105.56V105.548V105.536V105.524V105.512V105.5V105.488V105.477V105.465V105.453V105.441V105.429V105.417V105.406V105.394V105.382V105.37V105.359V105.347V105.335V105.324V105.312V105.301V105.289V105.277V105.266V105.254V105.243V105.231V105.22V105.208V105.197V105.186V105.174V105.163V105.152V105.14V105.129V105.118V105.106V105.095V105.084V105.073V105.062V105.05V105.039V105.028V105.017V105.006V104.995V104.984V104.973V104.962V104.951V104.94V104.929V104.918V104.908V104.897V104.886V104.875V104.864V104.854V104.843V104.832V104.822V104.811V104.801V104.79V104.779V104.769V104.758V104.748V104.738V104.727V104.717V104.707V104.696V104.686V104.676V104.665V104.655V104.645V104.635V104.625V104.615V104.605V104.595V104.585V104.575V104.565V104.555V104.545V104.535V104.525V104.516V104.506V104.496V104.487V104.477V104.467V104.458V104.448V104.439V104.429V104.42V104.41V104.401V104.392V104.382V104.373V104.364V104.355V104.345V104.336V104.327V104.318V104.309V104.3V104.291V104.282V104.273V104.264V104.256V104.247V104.238V104.229V104.221V104.212V104.203V104.195V104.186V104.178C58.4373 103.902 58.2135 103.678 57.9373 103.678ZM75.1387 103.849C75.1191 103.574 75.3264 103.335 75.6018 103.315C75.8773 103.295 76.1165 103.503 76.1362 103.778L76.4974 108.835C76.5171 109.111 76.3098 109.35 76.0343 109.37C75.7589 109.389 75.5196 109.182 75.5 108.906L75.1387 103.849ZM66.5722 103.679C66.2967 103.697 66.0882 103.936 66.1066 104.211C66.1664 105.108 66.2381 106.508 66.259 107.789C66.2695 108.43 66.2671 109.035 66.2448 109.53C66.2215 110.046 66.1782 110.381 66.1311 110.522C66.0438 110.784 66.1854 111.067 66.4473 111.154C66.7093 111.242 66.9925 111.1 67.0798 110.838C67.1772 110.546 67.2212 110.077 67.2438 109.575C67.2674 109.051 67.2695 108.423 67.2589 107.773C67.2377 106.471 67.1649 105.053 67.1043 104.145C67.086 103.869 66.8477 103.661 66.5722 103.679ZM83.51 100.814C83.373 100.574 83.4563 100.268 83.6961 100.131C83.9358 99.9945 84.2413 100.078 84.3783 100.318C84.8751 101.187 85.9437 103.441 86.2453 105.552C86.2843 105.825 86.0944 106.079 85.821 106.118C85.5477 106.157 85.2944 105.967 85.2553 105.694C84.9789 103.759 83.9765 101.63 83.51 100.814ZM92.3078 95.4753C92.0898 95.6449 92.0505 95.959 92.2201 96.177C92.626 96.6989 93.2414 97.5953 93.7525 98.568C94.2735 99.5593 94.6434 100.551 94.6434 101.288C94.6434 101.565 94.8672 101.788 95.1434 101.788C95.4195 101.788 95.6434 101.565 95.6434 101.288C95.6434 100.292 95.1704 99.1163 94.6377 98.1028C94.0953 97.0707 93.4463 96.1248 93.0094 95.563C92.8399 95.3451 92.5257 95.3058 92.3078 95.4753ZM98.0397 90.8052C97.8444 90.6099 97.8444 90.2933 98.0397 90.0981C98.2349 89.9028 98.5515 89.9028 98.7468 90.0981C99.2387 90.59 100.009 91.4154 100.732 92.3034C101.444 93.1785 102.15 94.1626 102.47 94.9619C102.572 95.2183 102.448 95.5093 102.191 95.6119C101.935 95.7144 101.644 95.5897 101.541 95.3333C101.283 94.6877 100.665 93.8055 99.9561 92.9346C99.2579 92.0766 98.511 91.2765 98.0397 90.8052ZM102.63 85.1967C102.521 85.4505 102.638 85.7445 102.892 85.8532C103.821 86.2513 104.702 86.9549 105.434 87.6958C106.163 88.4341 106.718 89.1817 107 89.6322C107.146 89.8664 107.455 89.9376 107.689 89.7912C107.923 89.6449 107.994 89.3364 107.848 89.1022C107.527 88.5894 106.927 87.7838 106.145 86.9929C105.366 86.2045 104.38 85.403 103.286 84.9341C103.032 84.8253 102.738 84.9429 102.63 85.1967ZM110.363 84.3369C109.77 83.862 108.825 83.1493 107.927 82.5581C107.476 82.2619 107.047 82.0025 106.684 81.8189C106.503 81.7271 106.346 81.6584 106.217 81.6136C106.081 81.5666 106.007 81.5567 105.98 81.5567C105.704 81.5567 105.48 81.3328 105.48 81.0567C105.48 80.7805 105.704 80.5567 105.98 80.5567C106.17 80.5567 106.366 80.607 106.545 80.669C106.73 80.7333 106.93 80.8227 107.136 80.9266C107.546 81.1343 108.011 81.4167 108.476 81.7226C109.408 82.3355 110.378 83.0678 110.988 83.5561C111.204 83.7286 111.239 84.0432 111.066 84.2589C110.894 84.4745 110.579 84.5095 110.363 84.3369Z" fill="#F88D9C"/>
<path d="M40.2342 14.9502C41.1012 14.0832 40.5954 12.9032 40.2342 12.4216C39.1502 10.9767 36.9835 10.9767 35.8998 12.4216C34.8161 13.8665 35.5385 15.3114 36.261 16.0339C36.9835 16.7564 39.1505 16.0339 40.2342 14.9502Z" fill="#FEE4E7"/>
<path d="M49.9883 11.3387C49.9883 10.7608 49.2658 10.1346 48.9046 9.8938C48.3025 9.65298 47.0262 9.38808 46.7372 10.255C46.376 11.3387 46.7372 13.1449 48.1821 13.1449C49.627 13.1449 49.9883 12.0612 49.9883 11.3387Z" fill="#FEE4E7"/>
<path d="M53.2375 16.7551C53.8155 16.1772 53.4783 15.0694 53.2375 14.5877C52.1536 13.504 50.7091 13.8652 49.9867 14.2264C49.2642 14.5877 48.903 16.7551 49.9867 17.4776C51.6052 18.5567 52.5151 17.4776 53.2375 16.7551Z" fill="#E05C6D"/>
<path d="M47.4594 22.8984C48.9043 21.7424 48.3023 19.286 47.8206 18.2024C47.0178 16.3959 41.3184 15.3125 40.5959 18.9248C39.8735 22.5371 41.6796 23.2596 42.0409 23.6208C42.4021 23.9821 45.6532 24.3433 47.4594 22.8984Z" fill="#E05C6D"/>
<path d="M59.0181 23.9794C60.1964 22.4856 62.2093 22.859 63.0685 23.2325C67.7816 25.9213 65.5232 29.0832 63.8049 30.328C62.8517 31.0186 59.3863 31.8218 58.2816 28.8342C57.3979 26.4442 58.4044 24.6018 59.0181 23.9794Z" fill="#FEE4E7"/>
<path d="M88.6404 33.7337C89.5073 31.9998 88.7608 30.3622 88.2791 29.7602C87.5573 28.6765 86.1111 28.3152 84.6662 28.6765C83.2213 29.0377 81.7763 30.8439 81.7763 32.65C81.7763 34.4562 83.2213 35.9011 84.6662 35.9011C86.1111 35.9011 87.5567 35.9011 88.6404 33.7337Z" fill="#E05C6D"/>
<path d="M103.814 14.9502C103.406 14.1325 101.045 11.2175 99.8408 9.89298C97.6727 7.72579 95.5053 8.08683 93.6992 8.80929C92.2543 9.38726 90.6889 10.7359 90.0869 11.3379C86.1133 14.9502 81.7786 20.3687 80.6949 22.1749C79.6112 23.981 81.0561 25.7872 81.7786 26.1484C82.501 26.5096 86.1133 26.5096 90.0869 25.7872C94.0604 25.0647 100.563 20.7299 102.731 18.9238C104.896 17.119 104.536 16.3965 103.816 14.9536L103.814 14.9502Z" fill="url(#paint3_linear_132_2586)"/>
<path d="M128.374 61.1908C123.75 61.4798 116.573 63.9603 113.563 65.1644C111.035 69.3788 106.844 77.5187 110.312 76.3628C114.647 74.9179 125.484 78.5302 126.929 78.8914C128.374 79.2526 129.457 78.8914 131.986 74.5566C134.514 70.2219 134.514 64.0807 134.153 62.6358C133.792 61.1908 134.153 60.8296 128.374 61.1908Z" fill="url(#paint4_linear_132_2586)"/>
<path fill-rule="evenodd" clip-rule="evenodd" d="M34.6789 0.444828C34.7094 0.170375 34.9566 -0.0273926 35.2311 0.00310223C35.5055 0.033597 35.7033 0.280806 35.6728 0.55526C35.5564 1.60281 35.5404 4.17524 36.3579 6.08279C36.4667 6.3366 36.3491 6.63054 36.0953 6.73932C35.8415 6.8481 35.5475 6.73052 35.4387 6.47671C34.5223 4.33846 34.5545 1.56467 34.6789 0.444828ZM32.332 0.726829C32.057 0.701828 31.8138 0.904499 31.7888 1.17951C31.7249 1.88283 31.7263 3.06165 31.9281 4.36286C32.1297 5.66202 32.5365 7.1193 33.3077 8.35317C33.4541 8.58734 33.7625 8.65853 33.9967 8.51217C34.2309 8.36582 34.3021 8.05734 34.1557 7.82317C33.4819 6.74517 33.1061 5.433 32.9163 4.20956C32.7269 2.98818 32.7283 1.89124 32.7847 1.27004C32.8097 0.995035 32.6071 0.75183 32.332 0.726829ZM29.1061 1.81121C28.8327 1.77215 28.5794 1.9621 28.5404 2.23547C28.3982 3.23052 28.7152 5.83063 30.7809 9.07679C30.9292 9.30976 31.2382 9.37843 31.4712 9.23018C31.7041 9.08192 31.7728 8.77288 31.6246 8.53991C29.6445 5.42839 29.4316 3.06759 29.5303 2.37689C29.5694 2.10352 29.3794 1.85026 29.1061 1.81121Z" fill="#FEE4E7" fill-opacity="0.7"/>
<path fill-rule="evenodd" clip-rule="evenodd" d="M99.8608 9.21117C99.684 8.99903 99.3688 8.97037 99.1566 9.14715C96.983 10.9585 91.552 15.6652 87.2025 20.0147C87.0073 20.2099 87.0073 20.5265 87.2025 20.7218C87.3978 20.917 87.7144 20.917 87.9096 20.7218C92.2297 16.4017 97.6356 11.7164 99.7968 9.91537C100.009 9.73859 100.038 9.42331 99.8608 9.21117ZM101.614 11.3235C101.406 11.1416 101.09 11.1627 100.908 11.3705C99.6801 12.7744 96.8828 15.1121 94.2836 17.1589C92.9915 18.1763 91.7604 19.1126 90.8172 19.8119C90.3454 20.1616 89.947 20.4511 89.6498 20.6613C89.501 20.7665 89.3795 20.8505 89.2877 20.9118C89.2418 20.9425 89.2052 20.9662 89.1775 20.9835C89.1553 20.9973 89.144 21.0037 89.1408 21.0056L89.1405 21.0058C88.8935 21.1293 88.7934 21.4296 88.9169 21.6766C89.0404 21.9236 89.3407 22.0237 89.5877 21.9002C89.7025 21.8428 89.9409 21.6803 90.2273 21.4777C90.5326 21.2618 90.9374 20.9676 91.4127 20.6152C92.3637 19.9102 93.6025 18.968 94.9023 17.9445C97.4867 15.9094 100.361 13.515 101.661 12.029C101.843 11.8212 101.822 11.5053 101.614 11.3235ZM89.1401 21.006L89.1405 21.0058L89.1401 21.006ZM102.375 13.8714C102.57 13.6761 102.887 13.6761 103.082 13.8714C103.277 14.0667 103.277 14.3832 103.082 14.5785C99.9721 17.6884 97.4357 19.4799 94.2586 21.7239L94.2584 21.7241C93.7081 22.1128 93.1385 22.5151 92.5434 22.9401C92.3187 23.1006 92.0064 23.0486 91.8459 22.8239C91.6854 22.5992 91.7375 22.2869 91.9622 22.1264C92.5639 21.6966 93.1374 21.2915 93.6894 20.9015L93.69 20.9011L93.69 20.9011C96.8636 18.6591 99.3291 16.9173 102.375 13.8714Z" fill="#FEE4E7" fill-opacity="0.7"/>
<path fill-rule="evenodd" clip-rule="evenodd" d="M116.224 67.8112C122.502 66.099 130.769 66.1434 134.119 66.3826C134.394 66.4023 134.633 66.1949 134.653 65.9195C134.673 65.6441 134.465 65.4048 134.19 65.3851C130.796 65.1427 122.399 65.0908 115.961 66.8464C115.695 66.9191 115.538 67.1939 115.61 67.4604C115.683 67.7268 115.958 67.8838 116.224 67.8112ZM128.534 70.517C130.955 70.7087 132.356 71.0297 132.885 71.2414C133.142 71.3439 133.433 71.2192 133.535 70.9628C133.638 70.7064 133.513 70.4154 133.257 70.3129C132.582 70.0429 131.057 69.7136 128.613 69.5201C126.153 69.3253 122.728 69.2654 118.228 69.5557C117.953 69.5735 117.744 69.8113 117.762 70.0868C117.779 70.3624 118.017 70.5714 118.293 70.5536C122.752 70.2659 126.129 70.3265 128.534 70.517ZM131.085 76.1018C129.843 75.6287 127.719 74.95 125.407 74.4621C123.085 73.9721 120.626 73.6857 118.691 73.9621C118.417 74.0012 118.164 73.8113 118.125 73.5379C118.086 73.2645 118.276 73.0113 118.549 72.9722C120.66 72.6707 123.257 72.9863 125.614 73.4837C127.98 73.9831 130.154 74.6771 131.441 75.1673C131.699 75.2656 131.828 75.5545 131.73 75.8126C131.632 76.0706 131.343 76.2001 131.085 76.1018Z" fill="#FEE4E7" fill-opacity="0.7"/>
<path d="M33.7324 36.6252C31.6854 35.4211 26.7968 34.0243 23.6179 38.0701" stroke="#A54E59" stroke-linecap="round"/>
<path d="M20.7285 34.819C19.8856 33.6148 17.8387 32.2904 16.755 33.374C15.2814 34.8475 17.2366 36.0228 18.1999 36.2636C17.1162 35.7819 15.3144 35.1669 14.9488 36.2636C14.5876 37.3473 14.2263 38.431 17.8387 38.7922" stroke="#A54E59" stroke-linecap="round"/>
<path fill-rule="evenodd" clip-rule="evenodd" d="M70.5983 80.1249C70.4149 79.9184 70.4337 79.6024 70.6402 79.4191C70.8467 79.2357 71.1627 79.2545 71.3461 79.461L74.202 82.6776C74.3854 82.8841 74.3666 83.2001 74.1601 83.3835C73.9536 83.5668 73.6376 83.548 73.4542 83.3415L70.5983 80.1249ZM69.0428 80.2312C68.7857 80.3321 68.659 80.6222 68.7599 80.8793L70.4747 85.251C70.5755 85.5081 70.8657 85.6347 71.1227 85.5339C71.3798 85.433 71.5065 85.1429 71.4056 84.8858L69.6908 80.5141C69.59 80.257 69.2998 80.1304 69.0428 80.2312ZM67.0211 80.1981C66.7458 80.2189 66.5394 80.4589 66.5602 80.7343L66.9298 85.6337C66.9506 85.909 67.1907 86.1154 67.466 86.0946C67.7414 86.0739 67.9478 85.8338 67.927 85.5584L67.5573 80.6591C67.5365 80.3837 67.2965 80.1773 67.0211 80.1981Z" fill="#E05C6D"/>
<path fill-rule="evenodd" clip-rule="evenodd" d="M43.131 78.8984C43.3263 78.7031 43.6429 78.7031 43.8381 78.8984C44.0334 79.0937 44.0334 79.4102 43.8381 79.6055L40.9483 82.4954C40.753 82.6906 40.4364 82.6906 40.2412 82.4954C40.0459 82.3001 40.0459 81.9835 40.2412 81.7883L43.131 78.8984ZM45.5356 79.4654C45.6169 79.2014 45.8967 79.0533 46.1606 79.1345C46.4245 79.2157 46.5726 79.4955 46.4914 79.7595L45.0465 84.4555C44.9653 84.7194 44.6855 84.8675 44.4216 84.7863C44.1576 84.7051 44.0095 84.4253 44.0907 84.1614L45.5356 79.4654Z" fill="#E05C6D"/>
<path fill-rule="evenodd" clip-rule="evenodd" d="M34.5936 54.9631C34.8406 54.8396 35.1409 54.9397 35.2644 55.1867C35.3879 55.4336 35.2878 55.734 35.0408 55.8575L31.4285 57.6636C31.1815 57.7871 30.8812 57.687 30.7577 57.44C30.6342 57.193 30.7343 56.8927 30.9813 56.7692L34.5936 54.9631ZM36.4846 56.4068C36.2376 56.2833 35.9373 56.3834 35.8138 56.6304L33.6464 60.9652C33.5229 61.2122 33.623 61.5125 33.87 61.636C34.117 61.7595 34.4173 61.6594 34.5408 61.4124L36.7082 57.0776C36.8317 56.8307 36.7316 56.5303 36.4846 56.4068ZM38.0977 57.0428C37.8216 57.0395 37.5951 57.2607 37.5918 57.5368L37.548 61.2204C37.5447 61.4965 37.7659 61.723 38.0421 61.7263C38.3182 61.7296 38.5447 61.5084 38.548 61.2323L38.5918 57.5487C38.595 57.2725 38.3739 57.046 38.0977 57.0428Z" fill="#E05C6D"/>
<defs>
<linearGradient id="paint0_linear_132_2586" x1="32.3741" y1="0.140625" x2="32.3741" y2="13.5764" gradientUnits="userSpaceOnUse">
<stop stop-color="#C45A67"/>
<stop offset="1" stop-color="#F57686"/>
</linearGradient>
<linearGradient id="paint1_linear_132_2586" x1="5.72372" y1="17.8704" x2="109.017" y2="112.937" gradientUnits="userSpaceOnUse">
<stop stop-color="#FEE4E7"/>
<stop offset="1" stop-color="#EEBEC4"/>
</linearGradient>
<linearGradient id="paint2_linear_132_2586" x1="37.2585" y1="9.18647" x2="130.497" y2="95.1117" gradientUnits="userSpaceOnUse">
<stop stop-color="#F88D9C"/>
<stop offset="1" stop-color="#E05C6D"/>
</linearGradient>
<linearGradient id="paint3_linear_132_2586" x1="100.792" y1="11.469" x2="80.6815" y2="25.6375" gradientUnits="userSpaceOnUse">
<stop stop-color="#E05C6D"/>
<stop offset="1" stop-color="#F17F8E"/>
</linearGradient>
<linearGradient id="paint4_linear_132_2586" x1="134.61" y1="68.1457" x2="109.929" y2="70.4309" gradientUnits="userSpaceOnUse">
<stop stop-color="#E05C6D"/>
<stop offset="1" stop-color="#E7697A"/>
</linearGradient>
</defs>
</svg>
