<svg width="1920" height="1080" viewBox="0 0 1920 1080" fill="none" xmlns="http://www.w3.org/2000/svg">
<g clip-path="url(#clip0_344_615)">
<path fill-rule="evenodd" clip-rule="evenodd" d="M1351.69 518.592C1351.14 518.021 1350.6 517.452 1350.05 516.879C1346.2 516.581 1336.2 512.188 1327.18 508.227C1322.85 506.325 1318.75 504.523 1315.67 503.322C1313.43 502.453 1307.81 499.706 1300.41 496.084C1276.23 484.266 1233.02 463.14 1226.36 467.611L1209.54 472.571L1195.33 472.571L1188.66 472.571L1176.47 484.144C1173.19 489.986 1162.78 505.835 1157.91 507.951C1155.71 508.904 1153.03 512.551 1149.3 517.601C1144.76 523.768 1138.67 532.026 1130.06 540.025C1118.62 550.652 1096.41 584.664 1093.51 590.285C1088.94 590.849 1087.22 596.164 1085.24 602.28C1082.58 610.505 1079.46 620.18 1068.28 621.697C1043.91 625.003 1033.76 628.31 1029.41 633.931C1027.01 637.036 1022.35 642.308 1020.71 643.52C1019.06 644.733 1015.78 647.885 1015.78 650.795C1015.78 654.432 979.809 698.409 965.306 714.942C953.075 728.885 940.047 789.925 932.239 826.504C930.789 833.299 929.519 839.25 928.468 843.898C922.185 871.672 903.999 991.7 903.999 1048.9L1369.23 1199.46L1919.77 1199.46L1919.77 997.427C1919.77 967.007 1897.44 885.004 1882.94 868.471C1868.43 851.938 1832.46 807.961 1832.46 804.324C1832.46 801.414 1829.18 798.262 1827.53 797.049C1825.89 795.837 1821.23 790.565 1818.83 787.46C1814.48 781.839 1804.33 778.533 1779.96 775.226C1768.78 773.709 1765.66 764.035 1763 755.809C1761.02 749.693 1759.3 744.378 1754.73 743.814C1751.83 738.193 1729.62 704.182 1718.18 693.554C1709.57 685.556 1703.48 677.297 1698.94 671.13C1695.21 666.081 1692.53 662.434 1690.33 661.481C1685.46 659.365 1675.06 643.515 1671.77 637.674L1659.59 626.101L1652.91 626.101L1638.7 626.101L1621.88 621.141C1613.18 615.299 1593.39 604.542 1583.88 608.245C1577.94 610.556 1568.42 606.723 1560.72 603.62C1556.07 601.749 1552.09 600.144 1549.94 600.31C1436.53 548.089 1406.86 542.295 1367.88 542.019C1362.09 529.409 1356.76 523.867 1351.69 518.592Z" fill="url(#paint0_linear_344_615)"/>
<path d="M1169.56 884.564C1173.66 888.056 1175.2 894.204 1180.2 896.854L1180.18 904.368L952.005 903.705C958.768 889.884 999.243 841.757 1005.58 837.426C1010.65 833.961 1018.28 821.513 1021.46 815.722C1027.18 806.881 1036.55 796.257 1040.51 792.051C1050.04 778.633 1055.62 765.205 1059.59 758.494C1063.57 751.783 1068.7 752.984 1072.26 754.576C1075.81 756.168 1122.36 796.243 1136.54 816.056C1150.72 835.87 1146.62 847.104 1153.41 860.791C1160.1 874.255 1164.43 880.2 1169.56 884.564Z" fill="url(#paint1_linear_344_615)"/>
<path d="M1132.79 880.898C1133.09 886.593 1142.9 893.318 1147.77 895.968L1147.74 906.25L998.275 903.048C998.548 899.622 999.572 891.901 1001.48 888.427C1003.87 884.084 1013.02 862.756 1028.47 853.31C1043.92 843.864 1047.89 839.131 1057.42 826.899C1066.94 814.668 1068.16 805.576 1069.36 801.229C1070.55 796.883 1074.14 788.984 1079.67 791.373C1084.09 793.284 1095.71 804.074 1100.97 809.23C1104.76 812.088 1110.96 819.409 1113.58 822.712C1121.46 833.412 1129.33 846.484 1131.28 856.376C1133.23 866.268 1135.99 868.253 1138.35 872.61C1140.24 876.095 1139.13 876.962 1138.34 876.959C1136.36 875.899 1132.49 875.203 1132.79 880.898Z" fill="url(#paint2_linear_344_615)"/>
<path d="M1132.79 880.897C1133.09 886.592 1142.9 893.317 1147.77 895.968L1147.74 906.25L1018.05 903.105C1017.39 902.181 1017.03 898.673 1020.85 892.041C1025.62 883.75 1033.16 872.304 1036.73 867.965C1039.59 864.493 1046.9 861.535 1050.2 860.49C1058.9 859.329 1071.59 848.294 1072.41 838.41C1073.23 828.526 1075.21 827.345 1079.18 822.611C1083.15 817.877 1091.46 816.715 1095.03 812.771C1097.88 809.616 1100.18 809.095 1100.97 809.229C1104.76 812.087 1110.96 819.408 1113.58 822.711C1121.46 833.411 1129.33 846.483 1131.28 856.375C1133.23 866.267 1135.99 868.252 1138.35 872.609C1140.24 876.095 1139.13 876.961 1138.34 876.959C1136.36 875.898 1132.49 875.202 1132.79 880.897Z" fill="#332D4E"/>
<path d="M1145.71 625.053C1175.47 633.65 1194.25 633.65 1213.82 648.199C1221.98 654.15 1230.69 664.731 1234.98 677.627C1237.3 681.485 1245.56 689.597 1260.11 691.184C1274.66 692.771 1295.93 715.652 1304.75 726.895L1320.62 752.025L1326.91 777.485" stroke="#5E4F5E" stroke-opacity="0.29" stroke-width="3.96787" stroke-linecap="round"/>
</g>
<defs>
<linearGradient id="paint0_linear_344_615" x1="1238" y1="479" x2="1476" y2="994.5" gradientUnits="userSpaceOnUse">
<stop stop-color="#776577"/>
<stop offset="1" stop-color="#605060"/>
</linearGradient>
<linearGradient id="paint1_linear_344_615" x1="1066" y1="801.5" x2="1066.09" y2="904.036" gradientUnits="userSpaceOnUse">
<stop stop-color="#887C88"/>
<stop offset="1" stop-color="#7C727C"/>
</linearGradient>
<linearGradient id="paint2_linear_344_615" x1="1073.34" y1="790.92" x2="1073.01" y2="906.033" gradientUnits="userSpaceOnUse">
<stop stop-color="#615C78"/>
<stop offset="1" stop-color="#484554"/>
</linearGradient>
<clipPath id="clip0_344_615">
<rect width="1920" height="1080" fill="white"/>
</clipPath>
</defs>
</svg>
