<svg width="328" height="414" viewBox="0 0 328 414" fill="none" xmlns="http://www.w3.org/2000/svg">
<path d="M21.2242 92.2344L0.0210571 44.5273H327.609V405.334L305.699 400.033L253.752 412.402C217.282 415.229 203.924 413.58 201.804 412.402L173.18 371.409C169.222 361.514 163.05 357.391 160.458 356.567C154.804 354.918 142.577 351.478 138.902 350.913C135.226 350.347 134.072 348.321 133.954 347.379L129.714 333.243C118.759 296.373 97.2021 222.351 98.6157 221.22C100.029 220.089 99.4403 219.335 98.9691 219.1C82.4778 209.676 49.3538 190.617 48.7883 189.769C48.0816 188.709 42.074 160.084 41.7206 157.257C41.4379 154.996 40.6605 153.959 40.3071 153.723C32.674 147.504 22.7556 132.756 18.7506 126.159C17.926 124.746 16.5596 121.919 17.6904 121.919C18.8213 121.919 19.3396 121.448 19.4574 121.212C19.5752 118.267 19.8107 110.681 19.8107 103.896C19.8107 95.4148 20.8708 95.4148 21.2242 94.3547C21.5069 93.5066 21.342 92.5878 21.2242 92.2344Z" fill="#5F4172"/>
<path d="M253.752 15.549L328.316 0L327.963 130.046C322.073 128.868 308.668 126.371 302.166 125.805C294.038 125.098 280.256 119.444 256.579 111.316C232.902 103.189 223.361 100.008 219.474 96.4742C216.364 93.6471 214.409 94.3539 213.82 95.0607C211.935 96.7098 207.671 100.503 205.692 102.482C203.746 104.427 201.186 105.28 200.092 105.644L200.038 105.662L194.737 106.722L185.902 107.429L165.052 104.602C133.248 104.602 110.702 93.5058 108.157 92.9404C105.613 92.3749 100.814 91.0215 101.09 87.993C101.443 84.1057 120.526 73.5482 120.526 67.85C120.526 64.6695 115.814 63.6094 114.872 63.256C106.037 60.0755 97.6971 56.6123 95.4354 55.4815C92.6083 54.068 85.1872 53.7146 73.5255 56.8951C67.1646 58.6299 58.6821 59.3394 58.33 59.3688C54.0893 59.7221 42.8988 58.1908 34.6531 57.6018C31.5433 57.6018 30.0591 56.6595 29.7057 56.1883C28.0566 54.1858 24.6877 50.1101 24.4049 49.8273C24.0516 49.474 20.5177 46.6469 19.4576 45.9401C18.3974 45.2333 6.73569 45.9401 5.32214 45.5867C3.9086 45.2333 0.728119 45.9401 0.0213623 44.1732C-0.685425 42.4062 15.5703 40.9927 25.8185 36.7521C34.017 33.3596 38.6582 32.0403 39.9539 31.8047L97.9091 19.4362C104.411 17.1745 107.922 16.8447 108.864 16.9625C146.794 20.0252 223.432 26.2919 226.541 26.8573C229.651 27.4227 231.135 27.0929 231.489 26.8573C231.96 26.6217 234.669 25.161 241.737 21.2031C248.805 17.2452 252.692 15.7845 253.752 15.549Z" fill="#C7A1C7"/>
</svg>
