<svg width="217" height="32" viewBox="0 0 217 32" fill="none" xmlns="http://www.w3.org/2000/svg">
<path d="M109.307 0.125365C93.1527 2.15226 43.1199 0.969905 20.1227 0.125365C13.3938 -0.101683 8.90539 0.0307616 7.50232 0.125365C-1.99914 1 1.612 3.22201 4.13447 3.50353C8.50086 3.50353 14.5009 4.5 16.7549 6.03715C19.6791 8.03136 18.5009 9.5 16.7549 9.41531C7.50232 10.5 4.22041 11.0924 4.50086 12.5C4.50086 14 19.0249 16.7692 20.1227 17C22.5009 17.5 32.0009 18.5 30.2166 20.3943C27.5009 24 2.50086 22 1.6128 22.9279C-2.99893 24.5 5 29.6843 7.50232 29.6843C89.1142 34.7515 135.389 30.5288 173.25 26.3061C211.111 22.0834 217.001 17.0162 217.001 12.7935C217.001 9.41531 212.514 11.3859 210.27 12.7935C185.871 22.0834 104.259 12.7935 90.7969 12.7935C80.0275 12.7935 81 7.39773 84 8C87.3654 8.67563 107.5 7.67516 109.307 6.88169C120.076 2.15226 111.5 -0.5 109.307 0.125365Z" fill="#A77A96" fill-opacity="0.33"/>
</svg>
