<svg width="344" height="105" viewBox="0 0 344 105" fill="none" xmlns="http://www.w3.org/2000/svg">
<path d="M95.5587 8.7766C79.4013 4.56013 61.1207 2.50209 54 2.00013C42.3333 0.83346 15.1 -0.799874 -0.5 2.00013V104.5C11.6667 103.388 31 99.5 54.5 97L100.5 92C168 84 242.244 88.2119 274.999 87.459C303.896 85.6519 323.031 81.9374 328.987 80.306C340.173 76.3907 337.014 71.1452 334.036 69.0119C315.082 62.9884 264.513 58.9727 241.597 57.7178C229.79 56.5131 227.097 54.204 227.226 53.2001C227.226 49.586 233.182 47.4276 236.159 46.8001C247.967 43.186 289.5 41.7805 308.79 41.5295C328.676 40.9272 340.38 34.0001 343.746 30.6119C345.61 25.4919 336.755 22.455 332.094 21.5766C308.169 16.1554 253.508 15.804 229.168 16.306C178.676 16.306 115.756 14.0472 95.5587 8.7766Z" fill="#3D2C61" fill-opacity="0.2"/>
</svg>
