<svg width="360" height="109" viewBox="0 0 360 109" fill="none" xmlns="http://www.w3.org/2000/svg">
<path d="M273.195 13.1204C289.419 5.8537 348.233 1.34568 375.612 0H393.865C396.231 36.3333 399.543 109 393.865 109C386.766 109 342.149 104.963 324.91 101.935C307.672 98.9074 280.266 95.0093 251.873 98.037C229.158 100.459 201.5 102 187.5 102C168.5 102 153.5 104.963 141.37 104.963C129.202 106.981 112.978 102.944 113.992 98.9074C114.803 95.6778 129.878 94.8704 137.314 94.8704C155.972 94.063 174.833 87.8055 181.932 84.7778C188.422 79.1259 179.228 76.3673 173.819 75.6944C154.553 71.6574 109.935 75.6944 84.5846 75.6944H13.6032C-3.43256 76.5018 -0.931276 71.9938 2.44883 69.6389C20.2958 63.1796 66.6709 59.5463 87.6276 58.537C108.5 58.537 122.5 55.4386 132.245 54.5C157.393 52.0778 221.142 50.1265 249.873 49.4537H285.364C291.854 49.4537 295.504 48.108 296.518 47.4352C304.631 43.3981 322.883 41.716 330.995 41.3796C341.541 39.7648 338.77 35.9969 336.066 34.3148C323.897 32.2963 315.785 32.2963 292.462 28.2593C269.139 24.2222 264.068 29.2685 260.012 24.2222C256.767 20.1852 267.448 15.1389 273.195 13.1204Z" fill="#B07777" fill-opacity="0.19"/>
</svg>
