<svg width="446" height="67" viewBox="0 0 446 67" fill="none" xmlns="http://www.w3.org/2000/svg">
<path d="M138.317 2.52668C99.7559 -1.94598 49.4922 0.698698 42.9651 2.87526C34.5824 5.67062 21.9971 3.50011 7.4975 7.00011C-10.5055 10.3103 9.49715 14.5001 21.4993 14.5001C45.4993 16.0001 67.646 29.0827 90 28.3839C107.883 27.8248 114.5 44.687 120.388 47.9517C134 55.5001 154.037 57.3856 173.594 58.4345C204.331 57.7356 213.412 58.7839 228.082 63.3265C242.752 67.869 310.163 68.5679 359.412 63.3265C398.811 59.1334 419.372 58.318 424.728 58.4345C436.257 58.4345 446.118 57.7368 445 55.5005C443.882 53.2642 433.5 51.5005 428.5 50.5005C421.688 49.138 417.745 48.0397 411.805 46.554C391.686 41.5223 326.114 40.7302 295.843 40.9632C267.9 41.5223 284.2 32.8099 295.843 28.3839C310.373 24.7498 311.444 20.3471 310.163 18.5999C299.545 14.9659 261.031 19.1826 243.101 18.6002C217.394 19.9979 162.533 8.4669 138.317 2.52668Z" fill="#4F416B" fill-opacity="0.2"/>
</svg>
