<svg width="1920" height="1080" viewBox="0 0 1920 1080" fill="none" xmlns="http://www.w3.org/2000/svg">
<g clip-path="url(#clip0_344_615)">
<path d="M1768.18 851.889C1767.31 853.111 1765.72 860.151 1765.03 863.518C1765.18 864.914 1765.81 867.249 1767.11 865.416C1768.75 863.125 1769.32 856.71 1770.33 854.485C1771.35 852.26 1769.27 850.362 1768.18 851.889Z" fill="url(#paint0_linear_344_615)"/>
<path d="M1794.74 934.006C1793.77 933.22 1793.6 926.715 1793.63 923.561L1793.03 923.07C1793.11 922.134 1793.79 920.876 1795.83 923.328C1798.38 926.394 1798.41 931.949 1798.16 934.756C1797.9 937.563 1795.96 934.989 1794.74 934.006Z" fill="url(#paint1_linear_344_615)"/>
<path d="M1792.59 924.228C1792.06 923.395 1792.18 922.048 1792.3 921.479C1796.58 919.913 1795.72 922.229 1795.83 923.328C1795.95 924.428 1793.26 925.269 1792.59 924.228Z" fill="url(#paint2_linear_344_615)"/>
<path d="M1794.5 921.245C1793.29 918.26 1788.21 914.315 1785.81 912.716C1783.4 910.929 1781.95 913.015 1781.53 914.282L1789.55 921.77C1791.7 922.839 1795.71 924.231 1794.5 921.245Z" fill="url(#paint3_linear_344_615)"/>
<path d="M1808.77 916.088C1807.79 915.301 1806.24 916.726 1805.58 917.537L1806.46 925.783C1807.1 928.309 1808.74 932.656 1810.22 929.831C1812.07 926.299 1811 921.41 1810.71 918.662C1810.42 915.913 1809.98 917.071 1808.77 916.088Z" fill="url(#paint4_linear_344_615)"/>
<path d="M1806.16 912.472C1802.62 908.401 1794.71 904.051 1791.19 902.385C1789.04 901.316 1785.64 900.305 1789.23 904.817C1793.72 910.456 1802.55 915.079 1805.47 916.437C1808.39 917.794 1808.88 917.186 1809.32 916.029C1809.66 915.103 1807.36 913.272 1806.16 912.472Z" fill="url(#paint5_linear_344_615)"/>
<path d="M1821.43 899.18C1819.04 897.654 1816.98 897.427 1816.25 897.505C1813.83 897.391 1809.91 897.51 1813.61 898.896C1817.32 900.282 1819.73 904.177 1820.48 905.951C1824.24 909.999 1822.94 913.472 1825.2 913.789C1827.46 914.105 1826.03 905.918 1825.8 903.719C1825.57 901.52 1824.41 901.087 1821.43 899.18Z" fill="url(#paint6_linear_344_615)"/>
<path d="M1816.13 896.407C1811.89 894.188 1798.66 894.182 1792.58 894.456C1789.81 894.564 1785.66 895.3 1791.22 897.38C1796.77 899.459 1810.01 899.835 1815.93 899.763C1818.13 899.53 1816.98 897.429 1816.13 896.407Z" fill="url(#paint7_linear_344_615)"/>
<path d="M1816.72 889.091C1814.33 887.565 1813.87 884.946 1813.94 883.827C1813.84 882.911 1813.98 881.043 1815.29 880.904C1816.94 880.729 1824.18 886.076 1825.08 889.316C1825.98 892.556 1824.51 894.38 1823.84 893.339C1823.17 892.298 1819.7 890.998 1816.72 889.091Z" fill="url(#paint8_linear_344_615)"/>
<path d="M1813.89 880.524C1809.84 880.064 1797.55 881.886 1791.9 882.854C1790.27 883.129 1786.81 887.285 1791.21 886.819L1814.3 884.372C1815.85 883.281 1817.94 880.984 1813.89 880.524Z" fill="url(#paint9_linear_344_615)"/>
<path d="M1703.31 922.818C1703.07 920.619 1706.7 916.344 1708.54 914.481C1709.68 914.731 1711.76 915.474 1710.97 916.447C1709.99 917.663 1705.25 925.392 1704.15 925.508C1703.05 925.625 1703.6 925.567 1703.31 922.818Z" fill="url(#paint10_linear_344_615)"/>
<path d="M1747.5 850.238C1746.57 853.112 1748.66 861.217 1748.74 861.903C1748.87 862.583 1753.9 864.132 1752.47 862.202C1751.03 860.273 1749.55 852.102 1750.08 851.352C1750.62 850.601 1748.43 847.364 1747.5 850.238Z" fill="url(#paint11_linear_344_615)"/>
<path d="M1745.74 852.064C1743.92 851.268 1743.52 848.274 1745.47 846.543C1749.97 843.526 1752.47 848.94 1750.88 850.679C1749.3 852.417 1748.02 853.059 1745.74 852.064Z" fill="#42322B"/>
<path d="M1767.98 853.874C1765.23 852.227 1767.2 849.087 1768.46 848.287C1772.85 846.964 1773.38 850.288 1773.43 851.392C1773.49 852.627 1772.2 856.405 1767.98 853.874Z" fill="#42322B"/>
<path d="M1708.59 915.031C1708.5 914.151 1709.13 913.121 1709.46 912.716C1713.31 912.308 1712.56 915.722 1711.52 916.389C1710.48 917.055 1708.71 916.13 1708.59 915.031Z" fill="url(#paint12_linear_344_615)"/>
<path d="M1710.56 912.599C1711.69 910.7 1718.38 907.693 1721.58 906.428L1722.13 906.369C1723.41 906.233 1725.39 906.691 1723.03 909.609C1720.67 912.528 1715.07 914.9 1712.56 915.722C1711.42 915.472 1709.43 914.497 1710.56 912.599Z" fill="url(#paint13_linear_344_615)"/>
<path d="M1693.7 916.054C1693.46 913.855 1696.31 909.291 1697.77 907.284C1698.54 907.572 1700.1 908.26 1700.14 908.7C1700.2 909.249 1699.51 913.214 1698.58 914.979C1697.66 916.745 1695.67 924.183 1694.34 922.1C1693.27 920.435 1693.47 917.375 1693.7 916.054Z" fill="url(#paint14_linear_344_615)"/>
<path d="M1699.79 905.402C1698.87 905.055 1697.69 906.551 1697.22 907.342C1698.12 910.582 1701.36 909.683 1701.85 909.075C1702.34 908.467 1700.95 905.835 1699.79 905.402Z" fill="url(#paint15_linear_344_615)"/>
<path d="M1700.78 904.187C1703.57 901.222 1713.72 898.738 1718.45 897.866C1719.75 897.913 1721.23 898.906 1716.72 902.497C1712.21 906.088 1703.79 908.129 1700.14 908.701C1699.19 908.431 1697.98 907.151 1700.78 904.187Z" fill="url(#paint16_linear_344_615)"/>
<path d="M1698.54 888.303C1705.23 888.483 1713.9 888.157 1717.4 887.971C1719.9 888.818 1723.17 891.028 1716.28 893.093C1707.66 895.675 1700.16 893.134 1699.06 893.25C1698.18 893.343 1695.17 898.481 1693.77 901.037C1692.5 903.025 1689.95 905.89 1689.92 901.445C1689.89 895.89 1690.93 895.224 1693.33 891.634C1695.25 888.762 1697.6 888.217 1698.54 888.303Z" fill="url(#paint17_linear_344_615)"/>
<path d="M1698.3 875.544C1701.17 877.463 1712.98 881.214 1718.53 882.85C1721.63 886.968 1718.7 888.019 1716.85 888.03C1711.69 886.539 1701 883.261 1699.54 882.082C1698.09 880.903 1697.03 881.052 1696.68 881.274C1694.8 882.77 1690.36 885.613 1687.63 885.013C1684.89 884.413 1686.26 882.564 1687.28 881.715C1689.75 878.858 1695.43 873.625 1698.3 875.544Z" fill="url(#paint18_linear_344_615)"/>
<path d="M1715.7 850.906C1705.38 854.224 1698.12 845.913 1695.78 841.343C1694.05 837.526 1694.32 832.789 1694.68 830.898C1696.96 826.208 1700.28 820.854 1704.45 818.189C1708.61 815.524 1716.63 812.452 1722.85 813.46C1729.07 814.468 1733.27 817.358 1734.17 820.598C1735.06 823.838 1734.08 825.054 1730.53 828.211C1727.68 830.736 1720.68 834.998 1717.54 836.814L1721.27 835.307C1724.43 833.675 1731.11 830.595 1732.52 831.335C1733.94 832.074 1733.17 835.713 1732.62 837.44C1731.28 840.546 1726.02 847.589 1715.7 850.906Z" fill="url(#paint19_linear_344_615)"/>
<path d="M1700.22 856.994C1699.41 853.522 1700.65 848.795 1701.37 846.866C1704.82 841.609 1709.97 845.77 1712.11 848.507C1711.99 850.928 1711.47 856.135 1710.29 857.594C1709.11 859.053 1709.61 863.41 1710.01 865.407C1709.56 866.381 1707.93 867.85 1705.06 865.931C1702.19 864.012 1700.64 859.173 1700.22 856.994Z" fill="url(#paint20_linear_344_615)"/>
<path d="M1703.21 869.462C1702.24 868.676 1703.27 866.492 1703.9 865.498C1706.91 862.4 1710.5 864.799 1710.67 866.448C1710.85 868.097 1709.92 869.863 1707.78 870.645C1705.64 871.428 1704.43 870.445 1703.21 869.462Z" fill="url(#paint21_linear_344_615)"/>
<path d="M1720 881.023C1716 881.002 1709.86 874.5 1707.29 871.252C1706.01 869.633 1708.24 864.484 1710.25 867.605C1713.19 872.189 1719.93 875.101 1722.23 875.784C1723.15 877.539 1724.01 881.043 1720 881.023Z" fill="url(#paint22_linear_344_615)"/>
<path d="M1787.51 846.631C1783.67 843.925 1782.35 839.951 1782.18 838.302C1781.56 835.958 1780.69 830.565 1782.17 827.74C1783.65 824.915 1785.32 825.925 1785.96 826.783C1786.48 828.21 1788.32 831.202 1791.49 831.755C1794.66 832.309 1794.57 831.059 1794.12 830.365C1792.28 828.707 1788.54 824.842 1788.3 822.643C1788.07 820.444 1790.13 818.929 1791.19 818.446C1792.82 818.088 1796.99 817.499 1800.6 818.005C1805.11 818.639 1813.33 822.77 1815.19 829.8C1817.04 836.83 1816.64 843.543 1815.29 846.466C1813.93 849.39 1808.72 852.721 1800.97 852.987C1793.21 853.253 1792.32 850.013 1787.51 846.631Z" fill="url(#paint23_linear_344_615)"/>
<path d="M1799.99 864.763C1800.59 862.032 1799.31 854.83 1798.59 851.57C1801.05 849.532 1806.46 848.883 1808.86 848.814C1809.37 850.058 1810.26 853.558 1809.8 857.61C1809.34 861.661 1805.79 865.261 1804.07 866.554C1802.46 867.096 1799.39 867.495 1799.99 864.763Z" fill="url(#paint24_linear_344_615)"/>
<path d="M1799.13 867.078C1798.11 865.852 1799.93 864.213 1800.98 863.547C1801.69 863.286 1803.38 863.18 1804.45 864.846C1805.78 866.928 1804.92 869.244 1803.27 869.419C1801.62 869.593 1800.4 868.61 1799.13 867.078Z" fill="url(#paint25_linear_344_615)"/>
<path d="M1796.06 869.626C1794 871.178 1789.98 873.421 1788.23 874.348C1786.54 875.267 1787.47 877.702 1788.14 878.804C1788.38 879.334 1789.93 879.949 1794.19 878.163C1799.51 875.931 1798.79 874.341 1801.73 870.693C1804.68 867.045 1802.48 867.277 1802.37 866.178C1802.25 865.079 1798.64 867.685 1796.06 869.626Z" fill="url(#paint26_linear_344_615)"/>
<path d="M1748.68 861.282C1737.13 862.506 1731.56 867.645 1727.88 869.636C1721.57 873.049 1716.1 887.761 1716.6 892.476C1717.62 898.604 1722.66 911.683 1732.83 916.327C1745.55 922.131 1763.79 919.16 1771.95 918.295C1780.11 917.43 1784.96 912.577 1789.04 906.475C1796.24 895.709 1794.2 883.484 1791.63 878.409C1786.01 867.331 1777.4 864.937 1776.26 864.509C1775.11 864.08 1760.69 860.008 1748.68 861.282Z" fill="url(#paint27_linear_344_615)"/>
<path d="M1754.04 864.33C1755.48 866.014 1759.09 867.938 1763.42 865.052" stroke="#42322B" stroke-width="1.32262" stroke-linecap="round"/>
</g>
<defs>
<linearGradient id="paint0_linear_344_615" x1="1767.1" y1="851.547" x2="1768.62" y2="865.839" gradientUnits="userSpaceOnUse">
<stop stop-color="#DC6127"/>
<stop offset="1" stop-color="#BE4F1B"/>
</linearGradient>
<linearGradient id="paint1_linear_344_615" x1="1795.08" y1="921.772" x2="1796.6" y2="936.118" gradientUnits="userSpaceOnUse">
<stop stop-color="#DC6127"/>
<stop offset="1" stop-color="#BE4F1B"/>
</linearGradient>
<linearGradient id="paint2_linear_344_615" x1="1793.86" y1="921.011" x2="1794.25" y2="924.658" gradientUnits="userSpaceOnUse">
<stop stop-color="#DC6127"/>
<stop offset="1" stop-color="#BE4F1B"/>
</linearGradient>
<linearGradient id="paint3_linear_344_615" x1="1787.43" y1="911.651" x2="1788.7" y2="923.579" gradientUnits="userSpaceOnUse">
<stop stop-color="#DC6127"/>
<stop offset="1" stop-color="#BE4F1B"/>
</linearGradient>
<linearGradient id="paint4_linear_344_615" x1="1807.94" y1="915.869" x2="1809.51" y2="930.72" gradientUnits="userSpaceOnUse">
<stop stop-color="#DC6127"/>
<stop offset="1" stop-color="#BE4F1B"/>
</linearGradient>
<linearGradient id="paint5_linear_344_615" x1="1797.61" y1="900.484" x2="1799.48" y2="918.124" gradientUnits="userSpaceOnUse">
<stop stop-color="#DC6127"/>
<stop offset="1" stop-color="#BE4F1B"/>
</linearGradient>
<linearGradient id="paint6_linear_344_615" x1="1818.57" y1="896.978" x2="1820.4" y2="914.324" gradientUnits="userSpaceOnUse">
<stop stop-color="#DC6127"/>
<stop offset="1" stop-color="#BE4F1B"/>
</linearGradient>
<linearGradient id="paint7_linear_344_615" x1="1802.44" y1="893.366" x2="1803.26" y2="901.106" gradientUnits="userSpaceOnUse">
<stop stop-color="#DC6127"/>
<stop offset="1" stop-color="#BE4F1B"/>
</linearGradient>
<linearGradient id="paint8_linear_344_615" x1="1818.9" y1="880.522" x2="1820.33" y2="894.054" gradientUnits="userSpaceOnUse">
<stop stop-color="#DC6127"/>
<stop offset="1" stop-color="#BE4F1B"/>
</linearGradient>
<linearGradient id="paint9_linear_344_615" x1="1802.37" y1="881.254" x2="1802.83" y2="885.587" gradientUnits="userSpaceOnUse">
<stop stop-color="#DC6127"/>
<stop offset="1" stop-color="#BE4F1B"/>
</linearGradient>
<linearGradient id="paint10_linear_344_615" x1="1706.65" y1="914.681" x2="1707.76" y2="925.125" gradientUnits="userSpaceOnUse">
<stop stop-color="#DC6127"/>
<stop offset="1" stop-color="#BE4F1B"/>
</linearGradient>
<linearGradient id="paint11_linear_344_615" x1="1749.04" y1="849.013" x2="1750.56" y2="863.306" gradientUnits="userSpaceOnUse">
<stop stop-color="#DC6127"/>
<stop offset="1" stop-color="#BE4F1B"/>
</linearGradient>
<linearGradient id="paint12_linear_344_615" x1="1710.25" y1="912.631" x2="1710.68" y2="916.626" gradientUnits="userSpaceOnUse">
<stop stop-color="#DC6127"/>
<stop offset="1" stop-color="#BE4F1B"/>
</linearGradient>
<linearGradient id="paint13_linear_344_615" x1="1716.79" y1="906.935" x2="1717.67" y2="915.181" gradientUnits="userSpaceOnUse">
<stop stop-color="#DC6127"/>
<stop offset="1" stop-color="#BE4F1B"/>
</linearGradient>
<linearGradient id="paint14_linear_344_615" x1="1696.15" y1="907.455" x2="1697.71" y2="922.164" gradientUnits="userSpaceOnUse">
<stop stop-color="#DC6127"/>
<stop offset="1" stop-color="#BE4F1B"/>
</linearGradient>
<linearGradient id="paint15_linear_344_615" x1="1699.31" y1="905.367" x2="1699.77" y2="909.716" gradientUnits="userSpaceOnUse">
<stop stop-color="#DC6127"/>
<stop offset="1" stop-color="#BE4F1B"/>
</linearGradient>
<linearGradient id="paint16_linear_344_615" x1="1708.96" y1="898.872" x2="1709.89" y2="907.667" gradientUnits="userSpaceOnUse">
<stop stop-color="#DC6127"/>
<stop offset="1" stop-color="#BE4F1B"/>
</linearGradient>
<linearGradient id="paint17_linear_344_615" x1="1704.27" y1="887.651" x2="1705.81" y2="902.217" gradientUnits="userSpaceOnUse">
<stop stop-color="#DC6127"/>
<stop offset="1" stop-color="#BE4F1B"/>
</linearGradient>
<linearGradient id="paint18_linear_344_615" x1="1701.87" y1="874.578" x2="1703.45" y2="889.476" gradientUnits="userSpaceOnUse">
<stop stop-color="#DC6127"/>
<stop offset="1" stop-color="#BE4F1B"/>
</linearGradient>
<linearGradient id="paint19_linear_344_615" x1="1712.87" y1="813.935" x2="1716.81" y2="851.133" gradientUnits="userSpaceOnUse">
<stop stop-color="#DC6127"/>
<stop offset="1" stop-color="#BE4F1B"/>
</linearGradient>
<linearGradient id="paint20_linear_344_615" x1="1705.24" y1="844.336" x2="1707.63" y2="866.887" gradientUnits="userSpaceOnUse">
<stop stop-color="#DC6127"/>
<stop offset="1" stop-color="#BE4F1B"/>
</linearGradient>
<linearGradient id="paint21_linear_344_615" x1="1706.38" y1="864.055" x2="1707.1" y2="870.866" gradientUnits="userSpaceOnUse">
<stop stop-color="#DC6127"/>
<stop offset="1" stop-color="#BE4F1B"/>
</linearGradient>
<linearGradient id="paint22_linear_344_615" x1="1714.09" y1="866.064" x2="1715.73" y2="881.513" gradientUnits="userSpaceOnUse">
<stop stop-color="#DC6127"/>
<stop offset="1" stop-color="#BE4F1B"/>
</linearGradient>
<linearGradient id="paint23_linear_344_615" x1="1797.03" y1="817.687" x2="1800.78" y2="853.078" gradientUnits="userSpaceOnUse">
<stop stop-color="#DC6127"/>
<stop offset="1" stop-color="#BE4F1B"/>
</linearGradient>
<linearGradient id="paint24_linear_344_615" x1="1803.8" y1="849.282" x2="1805.63" y2="866.577" gradientUnits="userSpaceOnUse">
<stop stop-color="#DC6127"/>
<stop offset="1" stop-color="#BE4F1B"/>
</linearGradient>
<linearGradient id="paint25_linear_344_615" x1="1801.63" y1="863.408" x2="1802.28" y2="869.523" gradientUnits="userSpaceOnUse">
<stop stop-color="#DC6127"/>
<stop offset="1" stop-color="#BE4F1B"/>
</linearGradient>
<linearGradient id="paint26_linear_344_615" x1="1794.7" y1="866.691" x2="1795.98" y2="878.71" gradientUnits="userSpaceOnUse">
<stop stop-color="#DC6127"/>
<stop offset="1" stop-color="#BE4F1B"/>
</linearGradient>
<linearGradient id="paint27_linear_344_615" x1="1752.18" y1="860.91" x2="1758.42" y2="919.781" gradientUnits="userSpaceOnUse">
<stop stop-color="#DC6127"/>
<stop offset="1" stop-color="#BE4F1B"/>
</linearGradient>
<clipPath id="clip0_344_615">
<rect width="1920" height="1080" fill="white"/>
</clipPath>
</defs>
</svg>
