<svg width="321" height="195" viewBox="0 0 321 195" fill="none" xmlns="http://www.w3.org/2000/svg">
<ellipse cx="193.595" cy="173.313" rx="58.954" ry="10.694" fill="#4B4B4B" fill-opacity="0.21"/>
<path d="M244.351 20.8426C255.507 29.4493 266.797 53.9148 271.047 65.0717C274.235 75.4314 279.583 89.2368 285.79 94.5575C294.956 102.414 296.55 109.301 297.745 112.488C299.206 116.606 298.063 127.152 294.557 136.396C290.173 147.951 275.034 153.53 271.048 152.334C269.485 151.865 268.816 153.21 268.666 153.513L268.657 153.53C261.007 164.049 249.265 169.734 243.952 171.859C222.037 179.031 202.114 181.422 173.026 178.234C149.756 175.684 126.672 166.28 118.039 161.897C93.4935 151.697 78.8566 131.083 74.6064 122.051C74.6064 116.492 84.7007 113.625 89.7479 112.887C90.0667 114.799 95.1935 116.074 97.7171 116.473C101.303 117.27 103.561 116.207 104.491 114.879C122.285 87.9903 133.016 80.722 145.25 72.435L145.532 72.2437C155.414 65.5496 169.042 62.0166 174.62 61.0868C175.576 55.0302 177.144 49.2658 177.808 47.1407C183.227 24.1894 201.051 16.3266 209.286 15.2641C216.325 13.5375 233.194 12.2358 244.351 20.8426Z" fill="#F7F7F7"/>
<path d="M182.987 74.6328C185.777 80.8754 189.682 95.8309 182.987 105.713C174.62 118.065 160.674 118.463 159.08 118.463C157.486 118.463 151.509 118.065 148.72 109.697C148.189 110.494 146.648 111.61 144.736 109.697C142.345 107.307 140.751 91.3681 144.736 86.1882" stroke="#9DA7B3" stroke-width="1.98393" stroke-linecap="round"/>
<path d="M161.473 75.8303C164.66 75.8303 166.653 71.8454 166.254 70.2518C164.979 67.7017 162.535 69.1893 161.473 70.2518C160.144 72.1113 158.285 75.8303 161.473 75.8303Z" fill="#E0DBDB"/>
<path d="M148.72 76.6279C151.27 76.6279 153.9 73.8388 153.9 72.2448C152.705 69.0571 149.915 71.0494 148.72 72.2448C147.525 73.4402 145.532 76.6279 148.72 76.6279Z" fill="#E0DBDB"/>
<path d="M149.517 86.191C151.748 86.8286 154.299 83.4018 153.9 80.6126C152.705 77.4249 150.18 79.618 149.517 80.6126C148.72 81.808 146.728 85.3941 149.517 86.191Z" fill="#E0DBDB"/>
<path d="M135.571 88.1833C138.121 88.1833 142.345 84.9956 142.345 83.0033C142.345 81.4095 142.345 80.6126 139.157 80.6126C136.607 80.6126 134.641 83.269 133.977 84.5972C133.446 85.7926 133.021 88.1833 135.571 88.1833Z" fill="#E0DBDB"/>
<path d="M131.985 101.731C134.535 101.093 135.438 98.012 135.571 96.551C135.172 92.1679 131.135 93.7618 130.391 96.551C129.86 98.5433 129.434 102.369 131.985 101.731Z" fill="#E0DBDB"/>
<path d="M125.211 99.3402C127.442 98.3839 128.797 94.9572 127.602 92.9648C127.07 92.4336 125.45 91.9289 123.219 94.1602C120.987 96.3916 120.961 98.5433 121.226 99.3402C121.625 99.7387 122.979 100.297 125.211 99.3402Z" fill="#E0DBDB"/>
<path d="M123.219 117.271C126.406 117.59 130.789 111.692 130.391 109.302C129.195 104.122 125.211 106.911 124.414 107.708C122.897 109.225 119.234 116.872 123.219 117.271Z" fill="#E0DBDB"/>
<path d="M115.648 117.271C118.198 115.04 118.437 110.896 117.242 109.302C116.046 108.106 114.054 107.708 112.46 111.294C111.185 114.163 111.53 116.474 111.663 117.271C111.929 118.201 113.098 119.502 115.648 117.271Z" fill="#E0DBDB"/>
<path d="M245.547 60.6898C242.758 56.7052 236.515 55.2441 231.999 55.1113L224.429 59.0959C224.562 62.4164 225.597 68.9343 228.015 71.0497C231.203 73.839 237.578 75.4328 243.953 72.2451C249.053 69.695 247.141 63.479 245.547 60.6898Z" fill="#C6C6C6"/>
<path d="M203.312 60.6898C206.101 56.7052 212.344 55.2441 216.86 55.1113L224.431 59.0959C224.298 62.4164 223.262 68.9343 220.844 71.0497C217.657 73.839 211.282 75.4328 204.906 72.2451C199.806 69.695 201.719 63.479 203.312 60.6898Z" fill="#C6C6C6"/>
<path d="M206.88 49.6359C208.781 47.81 212.075 48.7362 212.989 50.0923C213.805 51.3028 213.153 52.6044 212.474 53.5174C211.795 54.4303 209.595 54.2002 208.916 54.2002C208.238 54.2002 204.504 51.9182 206.88 49.6359Z" fill="#746766"/>
<path d="M239.043 46.4982C237.976 44.616 233.991 45.5482 232.71 46.9046C231.956 48.2745 232.864 50.1859 233.464 50.556C234.39 51.1266 236.326 51.1768 236.78 51.0626C237.891 50.7838 240.764 49.5334 239.043 46.4982Z" fill="#746766"/>
<path d="M219.648 51.9199H228.812C230.406 51.9199 231.336 53.2481 231.602 53.9122C232.797 59.4907 226.023 62.2799 224.429 62.2799C222.835 62.2799 218.054 60.2876 216.859 56.7014C215.902 53.8325 218.32 52.3184 219.648 51.9199Z" fill="#746766"/>
<path d="M214.865 60.288C210.211 59.7481 197.957 59.3647 192.551 62.2802" stroke="#746766" stroke-width="1.32262" stroke-linecap="round"/>
<path d="M213.67 62.679C210.358 62.3895 201.497 63.236 197.333 67.0573" stroke="#746766" stroke-width="1.32262" stroke-linecap="round"/>
<path d="M213.273 65.4707C209.289 67.0645 206.101 67.0645 199.726 72.643" stroke="#746766" stroke-width="1.32262" stroke-linecap="round"/>
<path d="M235.186 60.2892C238.241 59.0938 246.264 57.4202 253.914 60.2892" stroke="#746766" stroke-width="1.32262" stroke-linecap="round"/>
<path d="M236.782 62.4091C240.9 62.0107 250.569 62.3295 256.307 66.7922" stroke="#746766" stroke-width="1.32262" stroke-linecap="round"/>
<path d="M235.983 64.6719C240.234 65.336 249.531 67.5408 252.719 71.0472" stroke="#746766" stroke-width="1.32262" stroke-linecap="round"/>
</svg>
