<svg width="321" height="195" viewBox="0 0 321 195" fill="none" xmlns="http://www.w3.org/2000/svg">
<path d="M99.8499 120.09C103.506 120.445 108.778 120.417 110.776 120.339C118.244 123.159 129.264 127.599 131.184 133.409C133.584 140.671 144.605 151.204 125.54 162.709C99.9376 155.566 82.9044 136.884 77.5882 128.435C74.8568 129.733 69.0075 130.664 65.8206 130.679C52.1797 130.743 40.4761 126.957 32.7833 119.87C29.039 115.511 28.2964 116.004 28.9422 114.72C34.1494 108.061 36.9172 107.722 43.196 106.552C60.6961 105.213 63.8022 106.508 66.1757 107.352C69.5343 108.547 74.4635 114.046 75.499 114.641C77.2263 115.634 77.5279 114.582 76.9833 113.656C71.9147 105.044 70.8897 99.9507 71.3582 90.6604C71.7329 83.2281 75.214 75.7367 75.7505 74.0653C77.4941 68.6332 78.4788 70.1184 79.3658 70.8127C81.502 72.9598 86.8753 79.6884 91.2788 89.4261C96.7833 101.598 96.5248 106.046 95.427 110.194C94.3291 114.343 90.818 115.174 91.504 117.499C92.0528 119.359 97.2966 120.001 99.8499 120.09Z" fill="#F7F7F7"/>
</svg>
