<svg width="1920" height="350" viewBox="0 0 1920 350" fill="none" xmlns="http://www.w3.org/2000/svg">
<path d="M-5 7C-5 7 36 12 80 45C80 45 161 104 203 118C203 118 274 140 329 161C329 161 341 172 373 172C373 172 525 185 643 179C643 179 833 171 955 151C955 151 1077 135 1142 129C1142 129 1359 115 1509 110C1509 110 1621 104 1699 111C1699 111 1817 118 1853 111C1853 111 1919 103 1923 102C1927 101 1923 350 1923 350H-5V7Z" fill="#0D1014"/>
<path d="M768.245 124.23C768.245 124.23 769.733 120.51 772.337 119.395C772.337 119.395 774.197 121.998 772.709 127.206C771.221 132.413 768.097 124.007 768.245 124.23Z" fill="#0D1014"/>
<path d="M766.758 124.23C766.758 124.23 764.303 119.766 762.071 119.171C761.997 119.394 760.063 123.486 762.294 127.205C763.485 129.214 766.758 124.23 766.758 124.23Z" fill="#0D1014"/>
<path d="M1142.44 21.5674C1142.44 21.5674 1143.18 28.2628 1146.16 31.2385C1146.16 31.2385 1146.9 32.7264 1151.37 33.4703C1151.37 33.4703 1161.78 37.1899 1166.25 43.8853C1166.25 43.8853 1169.97 45.3732 1175.17 64.7153C1175.17 64.7153 1181.13 76.6182 1181.87 113.815C1181.87 113.815 1178.89 127.28 1172.94 131.669L1123.1 139.852C1123.1 139.852 1115.66 137.62 1113.43 128.693C1113.43 128.693 1113.43 124.974 1109.71 119.022C1109.71 119.022 1100.78 112.327 1101.52 107.119C1101.52 107.119 1101.52 104.144 1108.22 102.656C1108.22 102.656 1111.94 101.168 1105.24 95.9604C1105.24 95.9604 1099.29 87.0332 1082.93 71.4107C1082.93 71.4107 1076.97 60.9957 1089.62 54.3003C1089.62 54.3003 1096.69 53.1844 1106.36 55.4162C1106.36 55.4162 1113.8 56.1601 1119.01 47.9769C1119.01 47.9769 1130.24 38.529 1131.73 37.3387C1131.73 37.3387 1133.23 33.6954 1131 27C1131 27 1138.57 11.7475 1142.44 21.5674Z" fill="#0D1014"/>
<path d="M1131.51 0.886101C1131.51 0.886101 1124.74 1.7044 1123.92 12.7146C1123.92 12.7146 1123.1 23.7247 1126.45 27.9651C1126.45 27.9651 1128.16 29.6762 1131.51 30.4945C1131.51 30.4945 1139.84 31.908 1143.71 22.3113C1143.71 22.3113 1146.76 16.955 1145.05 5.12651C1145.05 5.05212 1141.62 -2.53598 1131.51 0.886101Z" fill="#0D1014"/>
<path d="M760.807 127.949C760.807 127.949 761.551 124.973 763.783 123.485C764.081 123.337 764.825 122.89 765.866 122.593C768.693 121.998 772.561 123.262 774.198 126.461C774.421 126.833 775.24 128.991 774.719 131.222C774.198 133.454 772.71 134.644 772.71 134.644C772.71 134.644 771.222 136.876 773.454 139.108C775.686 141.34 786.845 155.474 784.613 167.377C782.381 179.28 760.807 172.585 760.807 172.585C760.807 172.585 755.6 167.377 757.088 156.962C757.088 156.962 760.659 147.589 762.295 143.572C763.783 139.852 762.295 138.364 761.551 136.132C760.807 133.9 760.063 132.413 760.807 127.949Z" fill="#0D1014"/>
<path d="M763.038 168.865C763.038 168.865 756.492 171.023 753.144 164.104C753.144 164.104 750.317 157.93 751.136 152.499C751.136 152.499 749.648 151.011 749.35 152.871C749.35 152.871 748.16 160.682 750.168 165.22C750.168 165.22 754.037 173.999 761.923 172.139C770.999 170.056 764.303 170.056 763.038 168.865Z" fill="#0D1014"/>
<path d="M927.894 155.549C924.919 150.044 915.917 148.407 915.917 148.407C911.454 148.407 907.734 143.943 907.734 143.943C900.295 136.504 886.16 124.601 886.16 124.601C883.184 121.625 889.136 120.138 889.136 120.138C897.319 117.162 893.599 108.235 893.599 108.235C891.739 99.6795 877.977 100.795 877.977 100.795C871.281 100.795 866.818 100.795 863.098 97.0757C859.378 93.3561 849.707 85.9168 849.707 85.9168C843.384 82.7923 842.64 80.3373 842.789 79.2214C842.863 78.7751 843.012 78.4775 843.012 78.4775C844.5 75.5018 845.244 76.2457 845.244 76.2457C848.219 76.9896 849.707 76.2457 849.707 76.2457C851.939 74.0139 855.51 60.4744 851.195 52.4399C848.591 47.6044 842.64 46.8605 842.64 46.8605C842.64 46.8605 841.896 46.8605 841.152 46.8605C838.251 46.7117 836.019 47.0836 834.308 47.8276C833.415 48.1251 814.073 55.49 792.053 110.095C792.053 110.095 794.359 112.996 801.277 115.525C800.831 117.013 800.608 117.906 800.608 117.906C793.169 143.943 797.632 169.237 797.632 169.237C831.035 176.527 861.238 167.377 861.238 167.377C864.735 164.55 867.562 153.614 867.562 153.614C868.306 148.407 870.537 149.895 870.537 149.895C872.769 149.895 888.392 156.59 888.392 156.59C901.038 161.054 905.353 160.087 905.353 160.087C914.801 160.235 920.306 159.789 923.728 159.194C930.275 158.078 927.894 155.549 927.894 155.549ZM841.896 86.2888C841.822 86.14 841.747 86.0656 841.747 85.9912C842.119 86.2887 842.789 86.7351 843.533 87.2559C842.491 86.6607 841.896 86.2888 841.896 86.2888Z" fill="#0D1014"/>
</svg>
