<svg width="7192" height="463" viewBox="0 0 7192 463" fill="none" xmlns="http://www.w3.org/2000/svg">
<path d="M705.966 229.26C709.784 222.101 714.451 199.431 716.307 188.99H709.943L465.739 206.888L409.262 241.192L429.944 265.056C479.527 264.161 579.091 262.073 580.682 260.879C582.671 259.388 583.068 252.229 585.455 251.334C587.364 250.618 588.637 248.252 589.034 247.158C588.769 244.871 588.716 240.476 590.625 241.192C592.534 241.908 596.194 241.888 597.784 241.788C603.75 238.806 604.546 232.541 606.137 229.26C607.409 226.635 608.788 226.774 609.319 227.172C611.837 230.056 617.273 236.061 618.864 237.016C620.455 237.97 622.443 237.413 623.239 237.016C626.818 240.595 626.818 246.561 630.398 245.368C633.978 244.175 642.33 230.155 643.921 224.189C645.193 219.416 647.633 223.394 648.693 225.979C653.466 234.928 651.08 245.666 652.671 248.948C653.943 251.573 656.913 251.632 658.239 251.334C662.693 248.232 669.906 236.916 672.955 231.646C673.75 229.956 675.739 226.516 677.33 226.277C679.318 225.979 678.921 226.277 681.705 228.067C683.932 229.499 686.61 229.459 687.671 229.26C690.853 229.26 690.853 224.786 690.853 221.803C690.853 219.416 692.443 219.416 693.239 219.715C695.466 220.908 697.349 224.388 698.012 225.979C700.557 230.036 704.375 229.857 705.966 229.26Z" fill="#5F4172"/>
<path d="M152.329 139.175C107.148 140.13 31.9507 144.345 0 146.334V279.672V319.949L804.999 327.108L792.67 265.354C760.056 268.934 694.034 266.249 676.931 265.354C663.25 264.638 654.924 263.863 652.67 262.968C630.397 258.792 585.852 260.283 577.897 259.687C571.534 259.209 567.159 258.295 566.363 257.599C561.591 253.721 529.375 255.511 528.181 255.511C526.988 255.511 521.42 255.511 523.409 256.704C525 257.658 521.685 258.096 519.829 258.195C502.329 259.388 482.045 257.698 474.091 256.704C436.704 252.528 432.727 251.036 427.954 249.246C423.182 247.457 420 242.982 429.943 237.613C439.886 232.243 464.545 231.945 501.931 231.05C539.318 230.155 550.454 228.962 561.591 226.576C572.727 224.19 572.727 223.593 573.522 222.698C574.318 221.803 573.522 221.207 566.363 220.61C559.204 220.013 558.409 217.925 564.375 215.837C570.341 213.749 586.647 214.346 619.659 213.451C652.67 212.556 664.204 208.976 666.988 207.783C669.216 206.829 666.59 206.789 665 206.888C649.727 207.843 642.462 207.286 640.738 206.888C636.92 205.695 640.473 204.999 642.727 204.8C666.591 203.369 685.018 199.829 691.25 198.238C715.113 191.377 715.909 188.394 715.511 186.903C715.193 185.709 711.401 184.417 709.545 183.92C626.022 159.161 642.727 164.232 579.091 151.703C515.454 139.174 409.261 137.386 384.204 137.982C364.159 138.459 352.784 138.18 349.602 137.982C344.034 136.789 343.238 135.297 334.091 135.894C324.943 136.49 308.238 140.965 265.682 146.334C231.636 150.629 206.42 151.703 198.068 151.703C175.477 150.033 169.034 146.433 168.636 144.843C165.773 140.07 156.572 139.076 152.329 139.175Z" fill="#C7A1C7"/>
<path d="M1906.65 308.835C1502.89 262.081 467.316 248.713 0 247.874V463H7192V0C7055.08 128.135 6529.91 369.292 5524.62 308.835C4268 233.263 3413.28 328.483 3251.12 345.109C3088.96 361.734 2411.35 367.276 1906.65 308.835Z" fill="#C7A1C7"/>
</svg>
