<svg width="1916" height="6333" viewBox="0 0 1916 6333" fill="none" xmlns="http://www.w3.org/2000/svg">
<g clip-path="url(#clip0_245_30)">
<path d="M0 0H1920V6333H0V0Z" fill="url(#paint0_linear_245_30)"/>
<path d="M-3369.35 6178.83C-3773.11 6132.08 -4808.68 6118.71 -5276 6117.87V6333H1916V6005.5C1779.08 6133.64 1245.67 6261.35 240.379 6200.89C-1016.23 6125.32 -1862.34 6196.87 -2024.5 6213.5C-2186.66 6230.13 -2864.65 6237.28 -3369.35 6178.83Z" fill="#C7A1C7"/>
<path d="M1348.22 6047.05C1343.84 6046.37 1338.26 6036.67 1336.02 6031.9L1344.43 6018.86L1518.57 6002.46L1614.48 6021.39L1619.52 6061.77C1596.11 6071.16 1547.76 6089.95 1541.71 6089.95C1534.14 6089.95 1533.71 6083.64 1532.45 6081.54C1531.19 6079.43 1527.41 6080.28 1525.72 6080.7C1524.04 6081.12 1521.94 6089.53 1518.57 6088.69C1515.88 6088.01 1515.21 6088.69 1515.21 6089.11C1514.53 6093.48 1513.52 6094.58 1513.1 6094.58H1511.42C1510.75 6094.58 1510.86 6090.09 1511 6087.85C1511.42 6076.07 1508.48 6079.01 1506.79 6077.75C1505.11 6076.49 1501.75 6078.17 1501.33 6081.54C1500.99 6084.23 1500.63 6084.9 1500.49 6084.9C1498.13 6085.91 1497.26 6088.69 1497.12 6089.95H1495.02C1494.6 6089.95 1494.18 6087.01 1492.07 6085.74C1490.39 6084.73 1489.69 6082.24 1489.55 6081.12C1487.45 6069.34 1481.56 6064.29 1480.72 6057.98C1480.04 6052.93 1478.47 6052.79 1477.77 6053.36C1477.35 6054.9 1475.58 6058.32 1471.88 6059.66C1467.26 6061.35 1470.2 6065.97 1467.68 6067.66C1465.66 6069 1464.87 6068.22 1464.73 6067.66C1463.89 6058.4 1462.21 6060.51 1459.68 6055.88C1457.67 6052.18 1454.64 6045.08 1453.37 6042C1452.37 6035.94 1450.43 6037.79 1449.59 6039.47C1449.59 6041.3 1448.83 6044.94 1445.8 6044.94C1442.77 6044.94 1442.58 6046.91 1442.86 6047.89C1441.85 6054.62 1439.63 6059.1 1438.65 6060.51C1437.81 6060.93 1435.88 6061.52 1434.87 6060.51C1433.86 6059.5 1430.8 6049.71 1429.4 6044.94C1427.38 6042.59 1425.47 6043.96 1424.77 6044.94C1418.88 6052.51 1409.63 6061.77 1406.26 6064.29C1403.57 6066.31 1399.25 6066.25 1397.43 6065.97C1396.03 6065.69 1393.65 6064.21 1395.33 6060.51C1397.01 6056.8 1396.87 6054.76 1396.59 6054.2C1394.91 6052.51 1394.49 6049.29 1394.49 6047.89C1394.15 6038.8 1392.1 6039.05 1391.12 6040.32C1388.88 6043.12 1383.72 6049.15 1381.03 6050.83C1377.66 6052.93 1377.24 6052.93 1375.98 6050.83C1374.72 6048.73 1375.98 6047.05 1370.93 6045.78C1365.88 6044.52 1365.88 6039.89 1364.2 6037.37C1362.86 6035.35 1359.43 6036.53 1357.89 6037.37C1356.49 6040.88 1352.59 6047.72 1348.22 6047.05Z" fill="#5F4172"/>
<path d="M1280.92 6156.83C1197.63 6155.57 1174.08 6161.03 1139.59 6166.08C1119.96 6169.73 1077.67 6177.36 1065.56 6178.71C1053.44 6180.06 1043.4 6212.08 1042 6219.09L1916.49 6206.47V6186.27C1917.61 6113.92 1924.12 5955.5 1916.91 5953.24C1910.18 5951.14 1894.61 5950.72 1885.36 5950.3H1720.89C1714.84 5950.3 1706.87 5947.21 1703.65 5945.67C1696.08 5944.41 1679.08 5942.64 1671.68 5945.67C1664.28 5948.7 1653.17 5949.18 1648.55 5949.04L1573.67 5947.36C1553.9 5946.23 1510.5 5945 1495.02 5949.04C1479.54 5953.08 1471.74 5953.24 1469.78 5952.82C1441.32 5954.65 1374.04 5960.82 1332.65 5970.91C1280.92 5983.53 1278.81 5990.26 1272.08 5993.2C1266.7 5995.56 1262.83 6002.04 1261.57 6004.98C1257.92 6012.27 1256.02 6028.2 1277.55 6033.58C1299.09 6038.97 1330.83 6035.83 1344.01 6033.58C1382.71 6022.82 1461.65 6020.68 1496.28 6020.97C1504.97 6020.68 1522.19 6020.63 1521.52 6022.65C1520.68 6025.17 1520.68 6024.33 1514.37 6026.85C1509.32 6028.87 1508.62 6031.06 1508.9 6031.9C1508.9 6037.37 1521.52 6036.95 1529.93 6037.37C1534.42 6037.23 1546 6037.96 1556.43 6042C1566.86 6046.03 1589.94 6047.32 1600.17 6047.46C1602.84 6049.01 1606.06 6053.44 1597.65 6058.82C1587.13 6065.55 1542.55 6088.69 1510.58 6094.58C1485.01 6099.29 1439.91 6115.19 1420.14 6123.6C1407.11 6129.35 1382.71 6138.32 1366.73 6139.16C1349.04 6140.09 1309.1 6147.57 1301.95 6151.36C1296.23 6154.39 1285.26 6156.41 1280.92 6156.83Z" fill="#C7A1C7"/>
</g>
<defs>
<linearGradient id="paint0_linear_245_30" x1="960" y1="-1243.74" x2="960" y2="6333" gradientUnits="userSpaceOnUse">
<stop offset="0.296875" stop-color="#8378AC"/>
<stop offset="0.624692" stop-color="#BF9FB7"/>
<stop offset="0.822075" stop-color="#EFBDC0"/>
<stop offset="0.983457" stop-color="#F9DFD6"/>
</linearGradient>
<clipPath id="clip0_245_30">
<rect width="1916" height="6333" fill="white"/>
</clipPath>
</defs>
</svg>
