<svg width="1920" height="1080" viewBox="0 0 1920 1080" fill="none" xmlns="http://www.w3.org/2000/svg">
<g clip-path="url(#clip0_344_615)">
<g opacity="0.8">
<path d="M848.241 1013.76C845.059 1011.89 841.561 1008.35 840.209 1006.82V1003.62L915.696 984.514C918.451 986.333 923.728 990.019 922.792 990.206C921.622 990.44 919.439 993.95 917.645 997.381C916.21 1000.13 912.628 1003.88 911.017 1005.41C901.659 1012.51 902.907 1011.18 895.498 1015.16C888.09 1019.14 882.241 1020.78 878.186 1021.09C874.131 1021.4 868.75 1020.78 864.773 1019.84C860.796 1018.9 852.218 1016.1 848.241 1013.76Z" fill="url(#paint0_linear_344_615)"/>
<path d="M842.625 957.686C842.563 958.123 841.871 958.7 841.533 958.934L920.451 976.948L925.13 973.361C921.699 972.737 918.58 962.521 911.483 957.686C904.387 952.851 890.35 944.507 879.355 944.039C868.359 943.571 860.171 947.392 852.997 950.2C845.822 953.007 842.703 957.14 842.625 957.686Z" fill="url(#paint1_linear_344_615)"/>
<path d="M855.175 951.564C853.667 952.708 850.621 955.323 850.496 956.633" stroke="#744215" stroke-width="0.687185" stroke-linecap="round"/>
<path d="M855.042 1014.38C853.535 1013.23 850.488 1010.62 850.363 1009.31" stroke="#744215" stroke-width="0.687185" stroke-linecap="round"/>
<path d="M859.846 952.201C858.965 952.959 857.171 955.156 857.047 957.883M865.212 950.876C864.512 951.254 863.066 952.694 862.879 955.421M874.076 947.277C872.651 948.193 869.457 951.103 868.089 955.421M879.053 948.319C876.461 949.992 871.121 954.247 870.499 957.883M884.341 949.266C883.563 950.876 879.675 951.065 877.342 957.883" stroke="#744215" stroke-width="0.687185" stroke-linecap="round"/>
<path d="M859.713 1013.74C858.832 1012.98 857.038 1010.78 856.914 1008.06M865.079 1015.06C864.379 1014.69 862.933 1013.25 862.746 1010.52M873.944 1018.66C872.518 1017.75 869.325 1014.84 867.956 1010.52M878.92 1017.62C876.328 1015.95 870.989 1011.69 870.367 1008.06M884.208 1016.67C883.43 1015.06 879.542 1014.87 877.209 1008.06" stroke="#744215" stroke-width="0.687185" stroke-linecap="round"/>
<path d="M891.688 955.559C890.543 955.755 887.874 956.714 886.363 958.988M896.97 957.185C896.176 957.15 894.195 957.639 892.63 959.88M906.422 958.665C904.729 958.716 900.493 959.566 897.096 962.563M910.152 962.121C907.069 962.22 900.301 963.118 897.895 965.915M914.197 965.655C912.702 966.635 909.271 964.795 903.761 969.439" stroke="#744215" stroke-width="0.687185" stroke-linecap="round"/>
<path d="M891.556 1010.38C890.41 1010.18 887.741 1009.23 886.23 1006.95M896.838 1008.75C896.043 1008.79 894.062 1008.3 892.497 1006.06M906.29 1007.27C904.596 1007.22 900.36 1006.37 896.964 1003.38M910.019 1003.82C906.936 1003.72 900.168 1002.82 897.762 1000.02M914.065 1000.28C912.569 999.304 909.139 1001.14 903.628 996.501" stroke="#744215" stroke-width="0.687185" stroke-linecap="round"/>
<path d="M829.759 968.682C828.137 970.865 819.777 977.442 815.8 980.457C814.864 981.172 814.994 982.419 815.176 982.953C813.383 984.434 814.786 988.022 816.97 989.503C818.717 990.689 819.777 991.869 820.089 992.311C821.898 995.056 823.91 996.418 824.69 996.756C825.574 996.964 827.622 997.801 828.745 999.485C830.149 1001.59 833.787 1004.01 835.686 1004.71C837.791 1005.49 838.415 1006.74 840.053 1007.44C868.438 1016.64 885.75 1008.53 896.512 1004.24C907.273 999.953 915.617 993.714 918.815 991.141C922.012 988.568 927.939 991.141 930.59 992.311C933.241 993.48 937.764 995.898 942.209 997.146C945.765 998.144 946.862 997.925 946.966 997.691C947.642 996.34 949.103 993.371 949.54 992.311C949.976 991.25 949.722 990.673 949.54 990.517C949.358 990.283 949.103 989.8 949.54 989.737C949.976 989.675 950.501 989.347 950.709 989.191C951.957 987.71 952.269 983.499 952.035 982.563C951.848 981.814 951.073 981.471 950.709 981.393C949.981 981.211 948.869 980.707 950.241 980.145C951.614 979.584 951.749 978.404 951.645 977.884C951.099 973.907 949.228 966.888 947.278 966.577C945.329 966.265 940.104 967.122 935.347 969.462C931.541 971.333 926.951 972.841 925.131 973.361C923.197 974.11 921.778 973.673 921.31 973.361C916.085 969.722 902.703 961.57 890.975 958.076C876.314 953.709 866.722 954.177 857.832 954.723C850.721 955.16 844.004 957.712 841.534 958.934C837.557 961.508 831.786 965.953 829.759 968.682Z" fill="url(#paint2_linear_344_615)"/>
<path d="M844.42 982.484C846.863 980.716 852.405 977.212 855.026 977.337C857.646 977.462 859.834 978.325 860.25 978.585C860.874 980.769 858.457 981.081 857.209 982.874C856.006 984.604 856.351 984.112 854.012 986.305C852.189 988.014 851.594 988.411 847.227 987.787" stroke="#B78051" stroke-width="0.858981" stroke-linecap="round"/>
<path d="M816.581 980.768C815.021 980.83 815.203 981.938 815.489 982.484C812.994 983.419 814.189 985.109 815.099 985.837C822.351 990.126 822.039 992.933 824.925 993.791C827.233 994.477 826.429 992.232 825.861 990.906C825.393 989.814 818.53 980.69 816.581 980.768Z" fill="#B78051"/>
<path d="M815.489 982.484C815.203 981.938 815.021 980.83 816.581 980.768C818.53 980.69 825.393 989.814 825.861 990.906C826.429 992.232 827.233 994.477 824.925 993.791C822.039 992.933 822.351 990.126 815.099 985.837C814.189 985.109 812.994 983.419 815.489 982.484ZM815.489 982.484C817.153 983.757 819.856 985.993 821.182 987.943C821.948 989.069 823.8 990.841 824.528 991.569" stroke="#744215" stroke-width="0.687185" stroke-linecap="round"/>
<path d="M836.076 985.76C836.18 987.189 836.185 990.532 835.374 992.466C834.361 994.884 832.645 994.572 831.787 994.806C830.929 995.04 829.76 994.962 828.59 995.975" stroke="#B78051" stroke-width="0.858981" stroke-linecap="round"/>
<path d="M839.118 977.182C840.028 978.481 841.956 981.954 842.393 985.448C842.939 989.815 840.443 994.104 838.104 995.897C835.765 997.691 835.687 997.691 833.035 998.705" stroke="#B78051" stroke-width="0.858981" stroke-linecap="round"/>
<path d="M830.397 974.367C829.736 973.54 828.149 974.244 828.071 974.868C828.071 975.117 827.915 975.386 828.071 975.776C828.355 976.004 829.271 976.004 829.696 976.004H829.696C830.17 976.004 831.021 975.147 830.397 974.367Z" fill="#3E2107"/>
<path d="M834.879 973.506C834.218 972.679 832.389 973.038 832.311 973.662C832.311 973.912 832.156 974.315 832.312 974.705C832.78 975.095 832.858 975.017 833.326 975.095C833.794 975.173 835.333 974.074 834.879 973.506Z" fill="#3E2107"/>
</g>
</g>
<defs>
<linearGradient id="paint0_linear_344_615" x1="887.5" y1="1030.5" x2="882" y2="1003" gradientUnits="userSpaceOnUse">
<stop stop-color="#B78051"/>
<stop offset="1" stop-color="#895527"/>
</linearGradient>
<linearGradient id="paint1_linear_344_615" x1="883.332" y1="944" x2="880.5" y2="964.5" gradientUnits="userSpaceOnUse">
<stop stop-color="#B78051"/>
<stop offset="1" stop-color="#895527"/>
</linearGradient>
<linearGradient id="paint2_linear_344_615" x1="864" y1="941" x2="900" y2="1022.5" gradientUnits="userSpaceOnUse">
<stop stop-color="#854C19"/>
<stop offset="1" stop-color="#5A330F"/>
</linearGradient>
<clipPath id="clip0_344_615">
<rect width="1920" height="1080" fill="white"/>
</clipPath>
</defs>
</svg>
