<svg width="1920" height="1080" viewBox="0 0 1920 1080" fill="none" xmlns="http://www.w3.org/2000/svg">
<path fill-rule="evenodd" clip-rule="evenodd" d="M240 559C237.239 559 235 561.239 235 564V603C235 605.761 237.239 608 240 608H321.375L332.742 620.991C334.566 623.076 338 621.786 338 619.016V603V598V564C338 561.239 335.761 559 333 559H240Z" fill="#F7F7F7"/>
<path d="M265.912 581.988L265.06 582.024V578.94L265.096 578.316C265.096 578.196 265.06 578.112 264.952 578.076C264.604 577.932 263.86 577.776 263.428 577.764C263.332 577.764 263.308 577.788 263.296 577.824L263.2 578.112C263.62 578.256 264.004 578.472 264.208 578.724V584.208C264.208 584.76 264.232 585.804 264.28 586.284H264.784C264.952 585.684 265.06 584.748 265.06 583.908V582.54L267.148 582.516C267.232 582.516 267.328 582.492 267.376 582.444C267.46 582.396 267.532 582.24 267.52 582.024C267.52 581.928 267.448 581.844 267.352 581.82C267.136 581.772 266.644 581.748 266.296 581.76L265.912 581.988ZM264.304 588.288C263.62 588.312 261.496 588.336 260.74 588.324C260.524 588.324 260.44 588.228 260.44 588.012V586.38L260.452 585.84C260.452 585.708 260.404 585.648 260.284 585.612C259.984 585.552 259.3 585.504 258.904 585.504C258.832 585.504 258.784 585.528 258.772 585.576L258.712 585.84C259.036 585.912 259.372 586.044 259.564 586.188V587.904C259.564 588.564 259.84 588.84 260.62 588.84L265.696 588.816C265.756 588.816 265.804 588.792 265.84 588.756C265.9 588.696 265.984 588.552 265.984 588.324C265.984 588.24 265.912 588.18 265.816 588.156C265.588 588.108 265.048 588.072 264.688 588.072L264.304 588.288ZM262.192 581.7C262.192 580.236 261.064 579.24 259.528 579.24C257.968 579.24 256.828 580.236 256.828 581.7C256.828 583.152 257.968 584.172 259.528 584.172C261.064 584.172 262.192 583.152 262.192 581.7ZM257.716 581.7C257.716 580.56 258.496 579.876 259.528 579.876C260.548 579.876 261.34 580.56 261.34 581.7C261.34 582.84 260.548 583.512 259.528 583.512C258.496 583.512 257.716 582.84 257.716 581.7ZM274.946 583.308C274.934 583.272 274.898 583.248 274.826 583.26C273.758 583.524 271.766 583.752 270.542 583.74C270.386 583.74 270.338 583.68 270.338 583.536V580.032L270.35 579.456C270.35 579.324 270.29 579.252 270.17 579.228C269.882 579.156 269.198 579.108 268.814 579.108C268.742 579.108 268.706 579.132 268.694 579.18L268.634 579.468C268.946 579.552 269.27 579.696 269.462 579.852V583.38C269.462 583.68 269.486 583.92 269.522 583.98C269.69 584.364 269.894 584.496 270.374 584.496C270.482 584.496 270.65 584.484 270.782 584.484C271.898 584.4 273.77 584.04 274.922 583.608C274.97 583.596 274.994 583.548 274.994 583.5L274.946 583.308ZM274.658 588.516C273.662 588.516 272.942 587.952 272.942 586.992C272.942 586.044 273.662 585.48 274.658 585.48C275.666 585.48 276.374 586.044 276.374 586.992C276.374 587.952 275.666 588.516 274.658 588.516ZM274.658 584.916C273.134 584.916 272.054 585.744 272.054 586.992C272.054 588.312 273.134 589.176 274.658 589.176C276.194 589.176 277.274 588.312 277.274 586.992C277.274 585.744 276.194 584.916 274.658 584.916ZM275.51 578.112C275.93 578.256 276.314 578.472 276.518 578.724V579.96C275.786 580.008 274.466 580.044 273.986 580.044C273.674 580.044 273.29 580.02 272.99 579.972L272.93 580.104C272.906 580.14 272.918 580.176 272.966 580.212C273.206 580.404 273.518 580.572 273.854 580.704C274.082 580.632 274.394 580.548 274.61 580.524C274.994 580.476 275.93 580.452 276.518 580.464V581.784C275.798 581.82 274.43 581.856 273.938 581.856C273.626 581.856 273.242 581.832 272.942 581.796L272.882 581.916C272.858 581.964 272.87 582 272.918 582.036C273.158 582.216 273.458 582.396 273.806 582.516C274.034 582.444 274.346 582.372 274.562 582.348C274.958 582.3 275.93 582.276 276.518 582.288V583.128C276.518 583.644 276.542 584.616 276.59 585.084H277.094C277.262 584.52 277.37 583.62 277.37 582.84V578.94L277.406 578.316C277.406 578.196 277.358 578.112 277.262 578.076C276.914 577.932 276.17 577.776 275.738 577.764C275.642 577.764 275.606 577.788 275.594 577.824L275.51 578.112ZM292.185 581.736L291.333 581.772V578.94L291.369 578.316C291.369 578.196 291.333 578.112 291.225 578.076C290.877 577.932 290.133 577.776 289.701 577.764C289.605 577.764 289.581 577.788 289.569 577.824L289.473 578.112C289.893 578.256 290.277 578.472 290.481 578.724V583.104C290.481 583.62 290.505 584.604 290.553 585.06H291.057C291.225 584.508 291.333 583.596 291.333 582.816V582.288L293.421 582.252C293.505 582.252 293.601 582.228 293.649 582.192C293.733 582.144 293.805 581.976 293.793 581.76C293.793 581.676 293.721 581.592 293.625 581.568C293.409 581.52 292.917 581.496 292.569 581.508L292.185 581.736ZM288.729 584.928C287.253 584.928 286.173 585.78 286.173 587.028C286.173 588.336 287.253 589.236 288.729 589.236C290.205 589.236 291.285 588.336 291.285 587.028C291.285 585.78 290.205 584.928 288.729 584.928ZM288.729 588.528C287.781 588.528 287.085 587.964 287.085 587.028C287.085 586.092 287.781 585.516 288.729 585.516C289.665 585.516 290.373 586.092 290.373 587.028C290.373 587.964 289.665 588.528 288.729 588.528ZM288.393 583.26C288.465 582.96 288.513 582.516 288.513 582.168L288.549 579.492L288.585 579.012C288.585 578.916 288.561 578.868 288.453 578.82C288.165 578.712 287.577 578.592 287.205 578.568C287.109 578.568 287.085 578.58 287.073 578.628L286.977 578.904C287.265 579.012 287.541 579.192 287.685 579.372V580.836L284.541 580.872V580.008L284.553 579.504C284.553 579.408 284.529 579.348 284.433 579.324C284.133 579.24 283.509 579.168 283.137 579.168C283.041 579.168 283.005 579.192 282.993 579.228L282.909 579.516C283.209 579.588 283.497 579.732 283.653 579.888L283.725 583.596C283.725 583.812 283.761 584.1 283.833 584.304H284.301C284.385 584.196 284.457 584.04 284.505 583.812C285.369 583.788 287.757 583.764 288.621 583.764C288.681 583.716 288.717 583.572 288.717 583.44C288.717 583.368 288.681 583.344 288.633 583.32L288.393 583.26ZM287.685 581.352V583.248L284.529 583.272L284.541 581.4L287.685 581.352ZM299.179 579.876C298.519 579.912 296.215 579.96 295.759 579.96C295.471 579.96 295.039 579.936 294.727 579.876L294.643 580.032C294.643 580.068 294.643 580.104 294.679 580.14C294.931 580.332 295.279 580.524 295.603 580.644C295.831 580.56 296.263 580.476 296.503 580.464C296.839 580.428 298.411 580.404 299.107 580.404C298.399 582.372 296.719 584.58 294.439 586.272C294.391 586.32 294.403 586.344 294.439 586.38L294.583 586.512C294.619 586.536 294.655 586.536 294.691 586.5C297.331 585.024 299.491 582.6 300.115 580.452L300.331 580.116C300.355 580.056 300.355 579.996 300.319 579.96C300.199 579.888 299.911 579.744 299.779 579.684C299.719 579.66 299.635 579.66 299.575 579.684L299.179 579.876ZM303.775 582.948L302.923 582.984V578.952L302.959 578.316C302.959 578.196 302.923 578.112 302.815 578.076C302.467 577.932 301.711 577.776 301.279 577.764C301.183 577.764 301.159 577.788 301.147 577.824L301.051 578.112C301.483 578.256 301.867 578.472 302.071 578.724V587.088C302.071 587.616 302.107 588.792 302.143 589.296H302.647C302.815 588.612 302.923 587.484 302.923 586.788V583.5L305.011 583.464C305.095 583.464 305.191 583.452 305.239 583.404C305.323 583.356 305.395 583.188 305.383 582.972C305.383 582.888 305.311 582.804 305.215 582.78C304.999 582.732 304.507 582.708 304.159 582.72L303.775 582.948ZM309.593 579.48C310.553 579.48 311.297 580.068 311.297 581.028C311.297 581.988 310.553 582.588 309.593 582.588C308.621 582.588 307.889 581.988 307.889 581.028C307.889 580.068 308.621 579.48 309.593 579.48ZM309.593 583.2C311.081 583.2 312.185 582.3 312.185 581.028C312.185 579.768 311.081 578.868 309.593 578.868C308.105 578.868 307.001 579.768 307.001 581.028C307.001 582.3 308.105 583.2 309.593 583.2ZM313.517 583.824C313.505 583.776 313.457 583.764 313.397 583.776C311.837 584.052 308.717 584.292 307.133 584.28C306.749 584.28 306.233 584.256 305.813 584.184L305.729 584.328C305.705 584.388 305.717 584.424 305.765 584.46C306.101 584.724 306.557 584.988 306.989 585.18C307.193 585.084 307.709 584.964 307.925 584.952C308.297 584.928 308.753 584.892 309.233 584.844V586.992C309.233 587.484 309.269 588.468 309.317 588.948H309.821C309.977 588.36 310.109 587.316 310.109 586.74V584.736C311.357 584.568 312.677 584.352 313.469 584.136C313.517 584.124 313.553 584.1 313.541 584.04L313.517 583.824ZM313.361 578.112C313.793 578.256 314.165 578.472 314.381 578.724V585.504C313.781 585.576 312.773 585.624 312.353 585.636C312.053 585.636 311.693 585.636 311.405 585.6L311.321 585.744C311.309 585.792 311.321 585.828 311.357 585.864C311.597 586.032 311.897 586.2 312.221 586.32C312.425 586.236 312.737 586.14 312.953 586.116C313.229 586.068 313.925 586.02 314.381 586.008V587.088C314.381 587.616 314.405 588.792 314.453 589.296H314.945C315.125 588.612 315.233 587.484 315.233 586.788V578.952L315.269 578.316C315.269 578.196 315.233 578.112 315.125 578.076C314.777 577.932 314.021 577.776 313.589 577.764C313.493 577.764 313.469 577.788 313.445 577.824L313.361 578.112Z" fill="black"/>
</svg>
