<svg width="1920" height="1080" viewBox="0 0 1920 1080" fill="none" xmlns="http://www.w3.org/2000/svg">
<path fill-rule="evenodd" clip-rule="evenodd" d="M217 559C214.239 559 212 561.239 212 564V603C212 605.761 214.239 608 217 608H321.375L332.742 620.991C334.566 623.076 338 621.786 338 619.016V603V598V564C338 561.239 335.761 559 333 559H217Z" fill="#F7F7F7"/>
<path d="M240.912 581.988L240.06 582.024V578.94L240.096 578.316C240.096 578.196 240.06 578.112 239.952 578.076C239.604 577.932 238.86 577.776 238.428 577.764C238.332 577.764 238.308 577.788 238.296 577.824L238.2 578.112C238.62 578.256 239.004 578.472 239.208 578.724V584.208C239.208 584.76 239.232 585.804 239.28 586.284H239.784C239.952 585.684 240.06 584.748 240.06 583.908V582.54L242.148 582.516C242.232 582.516 242.328 582.492 242.376 582.444C242.46 582.396 242.532 582.24 242.52 582.024C242.52 581.928 242.448 581.844 242.352 581.82C242.136 581.772 241.644 581.748 241.296 581.76L240.912 581.988ZM239.304 588.288C238.62 588.312 236.496 588.336 235.74 588.324C235.524 588.324 235.44 588.228 235.44 588.012V586.38L235.452 585.84C235.452 585.708 235.404 585.648 235.284 585.612C234.984 585.552 234.3 585.504 233.904 585.504C233.832 585.504 233.784 585.528 233.772 585.576L233.712 585.84C234.036 585.912 234.372 586.044 234.564 586.188V587.904C234.564 588.564 234.84 588.84 235.62 588.84L240.696 588.816C240.756 588.816 240.804 588.792 240.84 588.756C240.9 588.696 240.984 588.552 240.984 588.324C240.984 588.24 240.912 588.18 240.816 588.156C240.588 588.108 240.048 588.072 239.688 588.072L239.304 588.288ZM237.192 581.7C237.192 580.236 236.064 579.24 234.528 579.24C232.968 579.24 231.828 580.236 231.828 581.7C231.828 583.152 232.968 584.172 234.528 584.172C236.064 584.172 237.192 583.152 237.192 581.7ZM232.716 581.7C232.716 580.56 233.496 579.876 234.528 579.876C235.548 579.876 236.34 580.56 236.34 581.7C236.34 582.84 235.548 583.512 234.528 583.512C233.496 583.512 232.716 582.84 232.716 581.7ZM249.946 583.308C249.934 583.272 249.898 583.248 249.826 583.26C248.758 583.524 246.766 583.752 245.542 583.74C245.386 583.74 245.338 583.68 245.338 583.536V580.032L245.35 579.456C245.35 579.324 245.29 579.252 245.17 579.228C244.882 579.156 244.198 579.108 243.814 579.108C243.742 579.108 243.706 579.132 243.694 579.18L243.634 579.468C243.946 579.552 244.27 579.696 244.462 579.852V583.38C244.462 583.68 244.486 583.92 244.522 583.98C244.69 584.364 244.894 584.496 245.374 584.496C245.482 584.496 245.65 584.484 245.782 584.484C246.898 584.4 248.77 584.04 249.922 583.608C249.97 583.596 249.994 583.548 249.994 583.5L249.946 583.308ZM249.658 588.516C248.662 588.516 247.942 587.952 247.942 586.992C247.942 586.044 248.662 585.48 249.658 585.48C250.666 585.48 251.374 586.044 251.374 586.992C251.374 587.952 250.666 588.516 249.658 588.516ZM249.658 584.916C248.134 584.916 247.054 585.744 247.054 586.992C247.054 588.312 248.134 589.176 249.658 589.176C251.194 589.176 252.274 588.312 252.274 586.992C252.274 585.744 251.194 584.916 249.658 584.916ZM250.51 578.112C250.93 578.256 251.314 578.472 251.518 578.724V579.96C250.786 580.008 249.466 580.044 248.986 580.044C248.674 580.044 248.29 580.02 247.99 579.972L247.93 580.104C247.906 580.14 247.918 580.176 247.966 580.212C248.206 580.404 248.518 580.572 248.854 580.704C249.082 580.632 249.394 580.548 249.61 580.524C249.994 580.476 250.93 580.452 251.518 580.464V581.784C250.798 581.82 249.43 581.856 248.938 581.856C248.626 581.856 248.242 581.832 247.942 581.796L247.882 581.916C247.858 581.964 247.87 582 247.918 582.036C248.158 582.216 248.458 582.396 248.806 582.516C249.034 582.444 249.346 582.372 249.562 582.348C249.958 582.3 250.93 582.276 251.518 582.288V583.128C251.518 583.644 251.542 584.616 251.59 585.084H252.094C252.262 584.52 252.37 583.62 252.37 582.84V578.94L252.406 578.316C252.406 578.196 252.358 578.112 252.262 578.076C251.914 577.932 251.17 577.776 250.738 577.764C250.642 577.764 250.606 577.788 250.594 577.824L250.51 578.112ZM267.185 582.684L266.333 582.72V578.952L266.369 578.316C266.369 578.196 266.333 578.112 266.225 578.076C265.877 577.932 265.121 577.776 264.689 577.764C264.593 577.764 264.569 577.788 264.557 577.824L264.461 578.112C264.893 578.256 265.277 578.472 265.481 578.724V584.28C263.885 584.724 261.461 585.048 260.009 585.084C259.853 585.084 259.793 585.024 259.793 584.868V580.884L259.817 580.308C259.817 580.176 259.757 580.104 259.637 580.08C259.337 580.02 258.617 579.972 258.209 579.972C258.125 579.972 258.101 579.996 258.077 580.044L258.029 580.332C258.365 580.416 258.713 580.56 258.929 580.704V584.7C258.929 584.94 258.941 585.132 258.977 585.24C259.109 585.612 259.373 585.84 259.769 585.84C259.889 585.84 260.021 585.84 260.165 585.828C261.653 585.708 263.837 585.312 265.481 584.76V587.088C265.481 587.616 265.517 588.792 265.553 589.296H266.057C266.225 588.612 266.333 587.484 266.333 586.788V583.236L268.421 583.2C268.505 583.2 268.601 583.188 268.649 583.14C268.733 583.092 268.805 582.924 268.793 582.708C268.793 582.624 268.721 582.54 268.625 582.516C268.409 582.468 267.917 582.444 267.569 582.456L267.185 582.684ZM278.271 583.644C277.431 583.692 271.323 583.776 270.591 583.764C270.219 583.764 269.655 583.716 269.259 583.644L269.175 583.812C269.163 583.848 269.175 583.884 269.211 583.92C269.511 584.16 269.955 584.412 270.387 584.544C270.675 584.448 271.287 584.34 271.587 584.316C272.223 584.28 277.719 584.208 278.559 584.22C278.919 584.22 279.627 584.244 279.951 584.28C280.059 584.22 280.203 584.04 280.203 583.836C280.203 583.74 280.131 583.668 280.047 583.632C279.771 583.548 279.135 583.476 278.703 583.452L278.271 583.644ZM276.783 588.144C276.051 588.18 273.867 588.192 273.039 588.18C272.823 588.18 272.739 588.084 272.739 587.868V586.476L272.763 585.936C272.763 585.804 272.703 585.732 272.583 585.708C272.283 585.636 271.599 585.6 271.203 585.6C271.119 585.6 271.095 585.612 271.083 585.672L271.023 585.936C271.335 586.008 271.659 586.14 271.863 586.284V587.772C271.863 588.42 272.127 588.708 272.895 588.708L278.163 588.684C278.223 588.684 278.283 588.66 278.319 588.624C278.379 588.564 278.451 588.42 278.451 588.192C278.451 588.108 278.391 588.036 278.295 588.024C278.067 587.976 277.527 587.928 277.167 587.928L276.783 588.144ZM271.671 581.244C271.671 581.892 271.995 582.228 272.727 582.216L278.175 582.144C278.235 582.144 278.295 582.12 278.331 582.084C278.391 582.036 278.463 581.88 278.463 581.676C278.463 581.58 278.391 581.52 278.307 581.496C278.067 581.448 277.539 581.412 277.179 581.412L276.807 581.616C276.051 581.664 273.723 581.7 272.871 581.688C272.643 581.688 272.571 581.592 272.571 581.364V579.432L272.595 578.904C272.595 578.772 272.523 578.7 272.403 578.664C272.115 578.604 271.455 578.556 271.071 578.556C270.987 578.556 270.951 578.58 270.939 578.628L270.879 578.892C271.191 578.964 271.491 579.096 271.671 579.24V581.244ZM293.459 581.412L292.607 581.448V578.94L292.631 578.316C292.643 578.196 292.595 578.112 292.499 578.076C292.151 577.932 291.407 577.776 290.975 577.764C290.879 577.764 290.843 577.788 290.831 577.824L290.735 578.112C291.167 578.256 291.539 578.472 291.755 578.724V582.168C290.135 582.612 287.627 582.912 286.115 582.936C285.959 582.936 285.911 582.876 285.911 582.732V579.876L289.703 579.756C289.775 579.756 289.835 579.732 289.871 579.684C289.919 579.624 289.979 579.468 289.979 579.288C289.979 579.192 289.919 579.132 289.823 579.12C289.595 579.072 289.115 579.048 288.815 579.048L288.491 579.24C288.095 579.276 286.475 579.336 285.935 579.348C285.587 579.276 284.807 579.228 284.447 579.228C284.375 579.228 284.339 579.252 284.327 579.288L284.267 579.564C284.567 579.624 284.855 579.768 285.023 579.924V582.528C285.023 582.768 285.047 582.972 285.083 583.08C285.203 583.44 285.467 583.656 285.839 583.656C285.959 583.656 286.103 583.656 286.235 583.644C287.795 583.548 290.051 583.164 291.755 582.636C291.755 583.092 291.779 583.728 291.827 584.064H292.331C292.499 583.644 292.607 582.876 292.607 582.168V581.964L294.695 581.928C294.779 581.928 294.875 581.904 294.923 581.868C295.007 581.808 295.079 581.652 295.067 581.436C295.067 581.352 294.995 581.268 294.899 581.244C294.683 581.196 294.191 581.172 293.843 581.184L293.459 581.412ZM291.755 588.384C291.083 588.42 288.887 588.432 288.011 588.42C287.867 588.42 287.807 588.36 287.807 588.204V586.98L292.403 586.932C292.463 586.872 292.511 586.752 292.511 586.62C292.511 586.584 292.487 586.548 292.451 586.524L292.235 586.416C292.331 586.104 292.451 585.48 292.475 585.108L292.619 584.832C292.643 584.76 292.643 584.7 292.583 584.664C292.487 584.604 292.247 584.484 292.127 584.424C292.055 584.4 291.983 584.4 291.935 584.424L291.575 584.592C290.843 584.628 287.939 584.664 287.303 584.664C287.015 584.664 286.547 584.628 286.235 584.568L286.163 584.688C286.151 584.736 286.151 584.772 286.199 584.808C286.451 585 286.787 585.192 287.159 585.324C287.447 585.228 287.891 585.156 288.119 585.144C288.599 585.12 290.807 585.096 291.527 585.096C291.539 585.384 291.527 586.092 291.503 586.392L291.311 586.452C290.855 586.476 288.671 586.5 287.819 586.512C287.519 586.476 286.739 586.452 286.415 586.452C286.343 586.452 286.295 586.476 286.283 586.512L286.247 586.74C286.511 586.788 286.763 586.896 286.919 587.04V588.192C286.919 588.72 287.135 588.936 287.819 588.936L293.027 588.912C293.099 588.912 293.147 588.9 293.195 588.852C293.231 588.816 293.303 588.66 293.303 588.444C293.303 588.36 293.243 588.3 293.159 588.288C292.931 588.228 292.439 588.204 292.127 588.204L291.755 588.384ZM303.549 578.112C303.933 578.244 304.293 578.448 304.485 578.688V582.564L302.961 582.588V579.636L302.985 579.108C302.985 579 302.949 578.928 302.865 578.892C302.565 578.748 301.917 578.616 301.533 578.604C301.449 578.604 301.413 578.628 301.389 578.676L301.305 578.952C301.653 579.072 301.977 579.264 302.145 579.468V584.844C300.813 585.204 298.821 585.444 297.633 585.468C297.477 585.468 297.417 585.396 297.417 585.264V583.08L300.369 582.996C300.405 582.948 300.465 582.828 300.465 582.684C300.465 582.648 300.453 582.612 300.393 582.576L300.213 582.468C300.321 581.964 300.429 580.932 300.441 580.38L300.561 580.044C300.585 579.984 300.585 579.936 300.537 579.9C300.441 579.828 300.189 579.672 300.069 579.624C300.009 579.6 299.925 579.6 299.877 579.624L299.529 579.804C299.037 579.84 297.429 579.876 297.021 579.876C296.757 579.876 296.337 579.828 296.061 579.78L295.989 579.936C295.965 579.972 295.965 580.008 296.025 580.056C296.241 580.236 296.553 580.44 296.877 580.56C297.129 580.488 297.489 580.404 297.693 580.38C297.957 580.368 299.145 580.344 299.529 580.344C299.553 580.776 299.541 582 299.505 582.444L299.325 582.492C299.037 582.528 297.933 582.552 297.429 582.552C297.141 582.528 296.409 582.516 296.097 582.516C296.025 582.516 295.989 582.54 295.977 582.576L295.929 582.816C296.181 582.876 296.397 582.984 296.553 583.116V585.072C296.553 585.312 296.565 585.516 296.601 585.624C296.733 585.984 296.985 586.224 297.393 586.224C297.501 586.224 297.645 586.224 297.777 586.212C299.013 586.104 300.789 585.78 302.145 585.324V586.404C302.145 586.908 302.169 587.964 302.217 588.444H302.685C302.853 587.82 302.961 586.776 302.961 586.116V583.14L304.485 583.116V587.196C304.485 587.712 304.509 588.828 304.557 589.296H305.037C305.217 588.648 305.325 587.568 305.325 586.908V578.88L305.349 578.292C305.361 578.184 305.325 578.1 305.205 578.064C304.905 577.92 304.185 577.776 303.777 577.764C303.693 577.764 303.657 577.788 303.633 577.836L303.549 578.112ZM310.255 584.472C309.199 584.472 308.395 583.764 308.395 582.564C308.395 581.364 309.199 580.644 310.255 580.644C311.311 580.644 312.115 581.364 312.115 582.564C312.115 583.764 311.311 584.472 310.255 584.472ZM310.255 579.984C308.659 579.984 307.483 581.04 307.483 582.564C307.483 584.076 308.659 585.144 310.255 585.144C311.839 585.144 313.003 584.076 313.003 582.564C313.003 581.04 311.839 579.984 310.255 579.984ZM316.639 584.136L315.787 584.172V581.724L317.875 581.688C317.959 581.688 318.055 581.664 318.103 581.628C318.187 581.568 318.259 581.412 318.247 581.196C318.247 581.1 318.175 581.028 318.079 580.992C317.863 580.944 317.371 580.92 317.023 580.932L316.639 581.16L315.787 581.196V578.952L315.823 578.316C315.823 578.196 315.787 578.112 315.679 578.076C315.331 577.932 314.575 577.776 314.143 577.764C314.047 577.764 314.023 577.788 314.011 577.824L313.915 578.112C314.347 578.256 314.731 578.472 314.935 578.724V587.088C314.935 587.616 314.971 588.792 315.007 589.296H315.511C315.679 588.612 315.787 587.484 315.787 586.788V584.7L317.875 584.664C317.959 584.664 318.055 584.64 318.103 584.604C318.187 584.544 318.259 584.388 318.247 584.172C318.247 584.088 318.175 584.004 318.079 583.98C317.863 583.932 317.371 583.908 317.023 583.92L316.639 584.136Z" fill="black"/>
</svg>
