<svg width="1920" height="1080" viewBox="0 0 1920 1080" fill="none" xmlns="http://www.w3.org/2000/svg">
<path fill-rule="evenodd" clip-rule="evenodd" d="M177 559C174.239 559 172 561.239 172 564V603C172 605.761 174.239 608 177 608H321.375L332.742 620.991C334.566 623.076 338 621.786 338 619.016V603V598V564C338 561.239 335.761 559 333 559H177Z" fill="#F7F7F7"/>
<path d="M201.912 581.988L201.06 582.024V578.94L201.096 578.316C201.096 578.196 201.06 578.112 200.952 578.076C200.604 577.932 199.86 577.776 199.428 577.764C199.332 577.764 199.308 577.788 199.296 577.824L199.2 578.112C199.62 578.256 200.004 578.472 200.208 578.724V584.208C200.208 584.76 200.232 585.804 200.28 586.284H200.784C200.952 585.684 201.06 584.748 201.06 583.908V582.54L203.148 582.516C203.232 582.516 203.328 582.492 203.376 582.444C203.46 582.396 203.532 582.24 203.52 582.024C203.52 581.928 203.448 581.844 203.352 581.82C203.136 581.772 202.644 581.748 202.296 581.76L201.912 581.988ZM200.304 588.288C199.62 588.312 197.496 588.336 196.74 588.324C196.524 588.324 196.44 588.228 196.44 588.012V586.38L196.452 585.84C196.452 585.708 196.404 585.648 196.284 585.612C195.984 585.552 195.3 585.504 194.904 585.504C194.832 585.504 194.784 585.528 194.772 585.576L194.712 585.84C195.036 585.912 195.372 586.044 195.564 586.188V587.904C195.564 588.564 195.84 588.84 196.62 588.84L201.696 588.816C201.756 588.816 201.804 588.792 201.84 588.756C201.9 588.696 201.984 588.552 201.984 588.324C201.984 588.24 201.912 588.18 201.816 588.156C201.588 588.108 201.048 588.072 200.688 588.072L200.304 588.288ZM198.192 581.7C198.192 580.236 197.064 579.24 195.528 579.24C193.968 579.24 192.828 580.236 192.828 581.7C192.828 583.152 193.968 584.172 195.528 584.172C197.064 584.172 198.192 583.152 198.192 581.7ZM193.716 581.7C193.716 580.56 194.496 579.876 195.528 579.876C196.548 579.876 197.34 580.56 197.34 581.7C197.34 582.84 196.548 583.512 195.528 583.512C194.496 583.512 193.716 582.84 193.716 581.7ZM210.946 583.308C210.934 583.272 210.898 583.248 210.826 583.26C209.758 583.524 207.766 583.752 206.542 583.74C206.386 583.74 206.338 583.68 206.338 583.536V580.032L206.35 579.456C206.35 579.324 206.29 579.252 206.17 579.228C205.882 579.156 205.198 579.108 204.814 579.108C204.742 579.108 204.706 579.132 204.694 579.18L204.634 579.468C204.946 579.552 205.27 579.696 205.462 579.852V583.38C205.462 583.68 205.486 583.92 205.522 583.98C205.69 584.364 205.894 584.496 206.374 584.496C206.482 584.496 206.65 584.484 206.782 584.484C207.898 584.4 209.77 584.04 210.922 583.608C210.97 583.596 210.994 583.548 210.994 583.5L210.946 583.308ZM210.658 588.516C209.662 588.516 208.942 587.952 208.942 586.992C208.942 586.044 209.662 585.48 210.658 585.48C211.666 585.48 212.374 586.044 212.374 586.992C212.374 587.952 211.666 588.516 210.658 588.516ZM210.658 584.916C209.134 584.916 208.054 585.744 208.054 586.992C208.054 588.312 209.134 589.176 210.658 589.176C212.194 589.176 213.274 588.312 213.274 586.992C213.274 585.744 212.194 584.916 210.658 584.916ZM211.51 578.112C211.93 578.256 212.314 578.472 212.518 578.724V579.96C211.786 580.008 210.466 580.044 209.986 580.044C209.674 580.044 209.29 580.02 208.99 579.972L208.93 580.104C208.906 580.14 208.918 580.176 208.966 580.212C209.206 580.404 209.518 580.572 209.854 580.704C210.082 580.632 210.394 580.548 210.61 580.524C210.994 580.476 211.93 580.452 212.518 580.464V581.784C211.798 581.82 210.43 581.856 209.938 581.856C209.626 581.856 209.242 581.832 208.942 581.796L208.882 581.916C208.858 581.964 208.87 582 208.918 582.036C209.158 582.216 209.458 582.396 209.806 582.516C210.034 582.444 210.346 582.372 210.562 582.348C210.958 582.3 211.93 582.276 212.518 582.288V583.128C212.518 583.644 212.542 584.616 212.59 585.084H213.094C213.262 584.52 213.37 583.62 213.37 582.84V578.94L213.406 578.316C213.406 578.196 213.358 578.112 213.262 578.076C212.914 577.932 212.17 577.776 211.738 577.764C211.642 577.764 211.606 577.788 211.594 577.824L211.51 578.112ZM228.185 581.736L227.333 581.772V578.94L227.369 578.316C227.369 578.196 227.333 578.112 227.225 578.076C226.877 577.932 226.133 577.776 225.701 577.764C225.605 577.764 225.581 577.788 225.569 577.824L225.473 578.112C225.893 578.256 226.277 578.472 226.481 578.724V583.104C226.481 583.62 226.505 584.604 226.553 585.06H227.057C227.225 584.508 227.333 583.596 227.333 582.816V582.288L229.421 582.252C229.505 582.252 229.601 582.228 229.649 582.192C229.733 582.144 229.805 581.976 229.793 581.76C229.793 581.676 229.721 581.592 229.625 581.568C229.409 581.52 228.917 581.496 228.569 581.508L228.185 581.736ZM224.729 584.928C223.253 584.928 222.173 585.78 222.173 587.028C222.173 588.336 223.253 589.236 224.729 589.236C226.205 589.236 227.285 588.336 227.285 587.028C227.285 585.78 226.205 584.928 224.729 584.928ZM224.729 588.528C223.781 588.528 223.085 587.964 223.085 587.028C223.085 586.092 223.781 585.516 224.729 585.516C225.665 585.516 226.373 586.092 226.373 587.028C226.373 587.964 225.665 588.528 224.729 588.528ZM224.393 583.26C224.465 582.96 224.513 582.516 224.513 582.168L224.549 579.492L224.585 579.012C224.585 578.916 224.561 578.868 224.453 578.82C224.165 578.712 223.577 578.592 223.205 578.568C223.109 578.568 223.085 578.58 223.073 578.628L222.977 578.904C223.265 579.012 223.541 579.192 223.685 579.372V580.836L220.541 580.872V580.008L220.553 579.504C220.553 579.408 220.529 579.348 220.433 579.324C220.133 579.24 219.509 579.168 219.137 579.168C219.041 579.168 219.005 579.192 218.993 579.228L218.909 579.516C219.209 579.588 219.497 579.732 219.653 579.888L219.725 583.596C219.725 583.812 219.761 584.1 219.833 584.304H220.301C220.385 584.196 220.457 584.04 220.505 583.812C221.369 583.788 223.757 583.764 224.621 583.764C224.681 583.716 224.717 583.572 224.717 583.44C224.717 583.368 224.681 583.344 224.633 583.32L224.393 583.26ZM223.685 581.352V583.248L220.529 583.272L220.541 581.4L223.685 581.352ZM235.179 579.876C234.519 579.912 232.215 579.96 231.759 579.96C231.471 579.96 231.039 579.936 230.727 579.876L230.643 580.032C230.643 580.068 230.643 580.104 230.679 580.14C230.931 580.332 231.279 580.524 231.603 580.644C231.831 580.56 232.263 580.476 232.503 580.464C232.839 580.428 234.411 580.404 235.107 580.404C234.399 582.372 232.719 584.58 230.439 586.272C230.391 586.32 230.403 586.344 230.439 586.38L230.583 586.512C230.619 586.536 230.655 586.536 230.691 586.5C233.331 585.024 235.491 582.6 236.115 580.452L236.331 580.116C236.355 580.056 236.355 579.996 236.319 579.96C236.199 579.888 235.911 579.744 235.779 579.684C235.719 579.66 235.635 579.66 235.575 579.684L235.179 579.876ZM239.775 582.948L238.923 582.984V578.952L238.959 578.316C238.959 578.196 238.923 578.112 238.815 578.076C238.467 577.932 237.711 577.776 237.279 577.764C237.183 577.764 237.159 577.788 237.147 577.824L237.051 578.112C237.483 578.256 237.867 578.472 238.071 578.724V587.088C238.071 587.616 238.107 588.792 238.143 589.296H238.647C238.815 588.612 238.923 587.484 238.923 586.788V583.5L241.011 583.464C241.095 583.464 241.191 583.452 241.239 583.404C241.323 583.356 241.395 583.188 241.383 582.972C241.383 582.888 241.311 582.804 241.215 582.78C240.999 582.732 240.507 582.708 240.159 582.72L239.775 582.948ZM245.593 579.48C246.553 579.48 247.297 580.068 247.297 581.028C247.297 581.988 246.553 582.588 245.593 582.588C244.621 582.588 243.889 581.988 243.889 581.028C243.889 580.068 244.621 579.48 245.593 579.48ZM245.593 583.2C247.081 583.2 248.185 582.3 248.185 581.028C248.185 579.768 247.081 578.868 245.593 578.868C244.105 578.868 243.001 579.768 243.001 581.028C243.001 582.3 244.105 583.2 245.593 583.2ZM249.517 583.824C249.505 583.776 249.457 583.764 249.397 583.776C247.837 584.052 244.717 584.292 243.133 584.28C242.749 584.28 242.233 584.256 241.813 584.184L241.729 584.328C241.705 584.388 241.717 584.424 241.765 584.46C242.101 584.724 242.557 584.988 242.989 585.18C243.193 585.084 243.709 584.964 243.925 584.952C244.297 584.928 244.753 584.892 245.233 584.844V586.992C245.233 587.484 245.269 588.468 245.317 588.948H245.821C245.977 588.36 246.109 587.316 246.109 586.74V584.736C247.357 584.568 248.677 584.352 249.469 584.136C249.517 584.124 249.553 584.1 249.541 584.04L249.517 583.824ZM249.361 578.112C249.793 578.256 250.165 578.472 250.381 578.724V585.504C249.781 585.576 248.773 585.624 248.353 585.636C248.053 585.636 247.693 585.636 247.405 585.6L247.321 585.744C247.309 585.792 247.321 585.828 247.357 585.864C247.597 586.032 247.897 586.2 248.221 586.32C248.425 586.236 248.737 586.14 248.953 586.116C249.229 586.068 249.925 586.02 250.381 586.008V587.088C250.381 587.616 250.405 588.792 250.453 589.296H250.945C251.125 588.612 251.233 587.484 251.233 586.788V578.952L251.269 578.316C251.269 578.196 251.233 578.112 251.125 578.076C250.777 577.932 250.021 577.776 249.589 577.764C249.493 577.764 249.469 577.788 249.445 577.824L249.361 578.112ZM266.049 582.684L265.197 582.72V578.952L265.233 578.316C265.233 578.196 265.197 578.112 265.089 578.076C264.741 577.932 263.985 577.776 263.553 577.764C263.457 577.764 263.433 577.788 263.421 577.824L263.325 578.112C263.757 578.256 264.141 578.472 264.345 578.724V584.28C262.749 584.724 260.325 585.048 258.873 585.084C258.717 585.084 258.657 585.024 258.657 584.868V580.884L258.681 580.308C258.681 580.176 258.621 580.104 258.501 580.08C258.201 580.02 257.481 579.972 257.073 579.972C256.989 579.972 256.965 579.996 256.941 580.044L256.893 580.332C257.229 580.416 257.577 580.56 257.793 580.704V584.7C257.793 584.94 257.805 585.132 257.841 585.24C257.973 585.612 258.237 585.84 258.633 585.84C258.753 585.84 258.885 585.84 259.029 585.828C260.517 585.708 262.701 585.312 264.345 584.76V587.088C264.345 587.616 264.381 588.792 264.417 589.296H264.921C265.089 588.612 265.197 587.484 265.197 586.788V583.236L267.285 583.2C267.369 583.2 267.465 583.188 267.513 583.14C267.597 583.092 267.669 582.924 267.657 582.708C267.657 582.624 267.585 582.54 267.489 582.516C267.273 582.468 266.781 582.444 266.433 582.456L266.049 582.684ZM277.135 583.644C276.295 583.692 270.187 583.776 269.455 583.764C269.083 583.764 268.519 583.716 268.123 583.644L268.039 583.812C268.027 583.848 268.039 583.884 268.075 583.92C268.375 584.16 268.819 584.412 269.251 584.544C269.539 584.448 270.151 584.34 270.451 584.316C271.087 584.28 276.583 584.208 277.423 584.22C277.783 584.22 278.491 584.244 278.815 584.28C278.923 584.22 279.067 584.04 279.067 583.836C279.067 583.74 278.995 583.668 278.911 583.632C278.635 583.548 277.999 583.476 277.567 583.452L277.135 583.644ZM275.647 588.144C274.915 588.18 272.731 588.192 271.903 588.18C271.687 588.18 271.603 588.084 271.603 587.868V586.476L271.627 585.936C271.627 585.804 271.567 585.732 271.447 585.708C271.147 585.636 270.463 585.6 270.067 585.6C269.983 585.6 269.959 585.612 269.947 585.672L269.887 585.936C270.199 586.008 270.523 586.14 270.727 586.284V587.772C270.727 588.42 270.991 588.708 271.759 588.708L277.027 588.684C277.087 588.684 277.147 588.66 277.183 588.624C277.243 588.564 277.315 588.42 277.315 588.192C277.315 588.108 277.255 588.036 277.159 588.024C276.931 587.976 276.391 587.928 276.031 587.928L275.647 588.144ZM270.535 581.244C270.535 581.892 270.859 582.228 271.591 582.216L277.039 582.144C277.099 582.144 277.159 582.12 277.195 582.084C277.255 582.036 277.327 581.88 277.327 581.676C277.327 581.58 277.255 581.52 277.171 581.496C276.931 581.448 276.403 581.412 276.043 581.412L275.671 581.616C274.915 581.664 272.587 581.7 271.735 581.688C271.507 581.688 271.435 581.592 271.435 581.364V579.432L271.459 578.904C271.459 578.772 271.387 578.7 271.267 578.664C270.979 578.604 270.319 578.556 269.935 578.556C269.851 578.556 269.815 578.58 269.803 578.628L269.743 578.892C270.055 578.964 270.355 579.096 270.535 579.24V581.244ZM292.322 581.412L291.47 581.448V578.94L291.494 578.316C291.506 578.196 291.458 578.112 291.362 578.076C291.014 577.932 290.27 577.776 289.838 577.764C289.742 577.764 289.706 577.788 289.694 577.824L289.598 578.112C290.03 578.256 290.402 578.472 290.618 578.724V582.168C288.998 582.612 286.49 582.912 284.978 582.936C284.822 582.936 284.774 582.876 284.774 582.732V579.876L288.566 579.756C288.638 579.756 288.698 579.732 288.734 579.684C288.782 579.624 288.842 579.468 288.842 579.288C288.842 579.192 288.782 579.132 288.686 579.12C288.458 579.072 287.978 579.048 287.678 579.048L287.354 579.24C286.958 579.276 285.338 579.336 284.798 579.348C284.45 579.276 283.67 579.228 283.31 579.228C283.238 579.228 283.202 579.252 283.19 579.288L283.13 579.564C283.43 579.624 283.718 579.768 283.886 579.924V582.528C283.886 582.768 283.91 582.972 283.946 583.08C284.066 583.44 284.33 583.656 284.702 583.656C284.822 583.656 284.966 583.656 285.098 583.644C286.658 583.548 288.914 583.164 290.618 582.636C290.618 583.092 290.642 583.728 290.69 584.064H291.194C291.362 583.644 291.47 582.876 291.47 582.168V581.964L293.558 581.928C293.642 581.928 293.738 581.904 293.786 581.868C293.87 581.808 293.942 581.652 293.93 581.436C293.93 581.352 293.858 581.268 293.762 581.244C293.546 581.196 293.054 581.172 292.706 581.184L292.322 581.412ZM290.618 588.384C289.946 588.42 287.75 588.432 286.874 588.42C286.73 588.42 286.67 588.36 286.67 588.204V586.98L291.266 586.932C291.326 586.872 291.374 586.752 291.374 586.62C291.374 586.584 291.35 586.548 291.314 586.524L291.098 586.416C291.194 586.104 291.314 585.48 291.338 585.108L291.482 584.832C291.506 584.76 291.506 584.7 291.446 584.664C291.35 584.604 291.11 584.484 290.99 584.424C290.918 584.4 290.846 584.4 290.798 584.424L290.438 584.592C289.706 584.628 286.802 584.664 286.166 584.664C285.878 584.664 285.41 584.628 285.098 584.568L285.026 584.688C285.014 584.736 285.014 584.772 285.062 584.808C285.314 585 285.65 585.192 286.022 585.324C286.31 585.228 286.754 585.156 286.982 585.144C287.462 585.12 289.67 585.096 290.39 585.096C290.402 585.384 290.39 586.092 290.366 586.392L290.174 586.452C289.718 586.476 287.534 586.5 286.682 586.512C286.382 586.476 285.602 586.452 285.278 586.452C285.206 586.452 285.158 586.476 285.146 586.512L285.11 586.74C285.374 586.788 285.626 586.896 285.782 587.04V588.192C285.782 588.72 285.998 588.936 286.682 588.936L291.89 588.912C291.962 588.912 292.01 588.9 292.058 588.852C292.094 588.816 292.166 588.66 292.166 588.444C292.166 588.36 292.106 588.3 292.022 588.288C291.794 588.228 291.302 588.204 290.99 588.204L290.618 588.384ZM302.412 578.112C302.796 578.244 303.156 578.448 303.348 578.688V582.564L301.824 582.588V579.636L301.848 579.108C301.848 579 301.812 578.928 301.728 578.892C301.428 578.748 300.78 578.616 300.396 578.604C300.312 578.604 300.276 578.628 300.252 578.676L300.168 578.952C300.516 579.072 300.84 579.264 301.008 579.468V584.844C299.676 585.204 297.684 585.444 296.496 585.468C296.34 585.468 296.28 585.396 296.28 585.264V583.08L299.232 582.996C299.268 582.948 299.328 582.828 299.328 582.684C299.328 582.648 299.316 582.612 299.256 582.576L299.076 582.468C299.184 581.964 299.292 580.932 299.304 580.38L299.424 580.044C299.448 579.984 299.448 579.936 299.4 579.9C299.304 579.828 299.052 579.672 298.932 579.624C298.872 579.6 298.788 579.6 298.74 579.624L298.392 579.804C297.9 579.84 296.292 579.876 295.884 579.876C295.62 579.876 295.2 579.828 294.924 579.78L294.852 579.936C294.828 579.972 294.828 580.008 294.888 580.056C295.104 580.236 295.416 580.44 295.74 580.56C295.992 580.488 296.352 580.404 296.556 580.38C296.82 580.368 298.008 580.344 298.392 580.344C298.416 580.776 298.404 582 298.368 582.444L298.188 582.492C297.9 582.528 296.796 582.552 296.292 582.552C296.004 582.528 295.272 582.516 294.96 582.516C294.888 582.516 294.852 582.54 294.84 582.576L294.792 582.816C295.044 582.876 295.26 582.984 295.416 583.116V585.072C295.416 585.312 295.428 585.516 295.464 585.624C295.596 585.984 295.848 586.224 296.256 586.224C296.364 586.224 296.508 586.224 296.64 586.212C297.876 586.104 299.652 585.78 301.008 585.324V586.404C301.008 586.908 301.032 587.964 301.08 588.444H301.548C301.716 587.82 301.824 586.776 301.824 586.116V583.14L303.348 583.116V587.196C303.348 587.712 303.372 588.828 303.42 589.296H303.9C304.08 588.648 304.188 587.568 304.188 586.908V578.88L304.212 578.292C304.224 578.184 304.188 578.1 304.068 578.064C303.768 577.92 303.048 577.776 302.64 577.764C302.556 577.764 302.52 577.788 302.496 577.836L302.412 578.112ZM309.118 584.472C308.062 584.472 307.258 583.764 307.258 582.564C307.258 581.364 308.062 580.644 309.118 580.644C310.174 580.644 310.978 581.364 310.978 582.564C310.978 583.764 310.174 584.472 309.118 584.472ZM309.118 579.984C307.522 579.984 306.346 581.04 306.346 582.564C306.346 584.076 307.522 585.144 309.118 585.144C310.702 585.144 311.866 584.076 311.866 582.564C311.866 581.04 310.702 579.984 309.118 579.984ZM315.502 584.136L314.65 584.172V581.724L316.738 581.688C316.822 581.688 316.918 581.664 316.966 581.628C317.05 581.568 317.122 581.412 317.11 581.196C317.11 581.1 317.038 581.028 316.942 580.992C316.726 580.944 316.234 580.92 315.886 580.932L315.502 581.16L314.65 581.196V578.952L314.686 578.316C314.686 578.196 314.65 578.112 314.542 578.076C314.194 577.932 313.438 577.776 313.006 577.764C312.91 577.764 312.886 577.788 312.874 577.824L312.778 578.112C313.21 578.256 313.594 578.472 313.798 578.724V587.088C313.798 587.616 313.834 588.792 313.87 589.296H314.374C314.542 588.612 314.65 587.484 314.65 586.788V584.7L316.738 584.664C316.822 584.664 316.918 584.64 316.966 584.604C317.05 584.544 317.122 584.388 317.11 584.172C317.11 584.088 317.038 584.004 316.942 583.98C316.726 583.932 316.234 583.908 315.886 583.92L315.502 584.136Z" fill="black"/>
</svg>
