<svg width="1920" height="1080" viewBox="0 0 1920 1080" fill="none" xmlns="http://www.w3.org/2000/svg">
<g clip-path="url(#clip0_353_146)">
<path d="M777.92 594.186C776.419 593.765 773.166 594.829 771.727 595.414C764.97 600.676 769.475 609.446 769.475 610.499C769.475 611.551 771.727 611.902 773.791 612.253C775.443 612.534 776.356 611.668 776.607 611.2C779.234 608.043 780.36 602.079 779.985 598.571C779.609 595.063 779.797 594.712 777.92 594.186Z" fill="#E09868"/>
<path d="M746.219 578.752C744.568 579.734 742.206 579.976 740.392 579.567C736.638 579.133 736.95 580.789 737.575 582.197C738.764 584.127 739.098 585.189 740.015 586.582C741.17 588.337 742.896 586.918 745.459 583.6C747.878 580.468 753.758 580.908 755.378 581.03L755.416 581.032C759.909 581.671 760.733 583.722 760.295 585.067C758.944 588.294 754.102 592.726 751.85 594.539C749.973 596.118 746.82 600.678 749.222 606.291C751.624 611.904 759.482 616.465 763.11 618.044C767.552 620.266 777.374 626.069 777.374 631.726C777.374 636.812 776.248 638.216 772.307 639.619C768.365 641.022 764.16 640.075 763.11 635.234C762.35 631.726 766.103 629.908 767.605 630.961C768.543 631.619 769.106 632.189 770.223 634.406C771.205 636.358 772.297 630.961 768.168 628.681C765.791 627.511 761.712 627.375 759.159 631.726C756.607 636.076 758.471 639.439 759.535 640.784C762.636 644.706 767.605 646.221 774.746 644.706C781.142 643.349 782.682 638.679 783.182 636.749C783.62 633.592 784.093 626.218 778.688 621.727C771.931 616.114 770.193 609.562 772.307 598.222C773.986 589.214 777.34 586.251 778.303 585.705C779.429 585.067 782.807 583.25 783.933 584.302L784.871 585.705C786.56 587.284 788.037 586.386 788.437 586.056C789.366 585.291 790.877 582.436 787.696 581.032C784.775 579.743 784.862 582.485 783.933 582.373L783.182 582.197C782.244 582.022 778.303 577.637 778.303 576.76C778.303 574.094 780.703 569.396 781.681 569.919C782.994 570.62 784.258 570.564 784.684 570.332C785.444 569.919 786.945 568.754 785.444 566.824C784.243 565.281 782.691 565.713 782.066 566.123C779.804 567.463 781.681 568.691 780.555 569.042L779.429 569.392C773.235 571.322 771.006 567.351 770.608 566.235C770.045 564.656 770.795 562.026 771.734 562.026C772.484 562.026 773.423 562.377 774.371 561.913C776.712 560.767 775.749 558.342 774.549 557.641C773.048 556.763 771.537 556.684 770.617 558.054C769.482 559.745 771.171 560.622 770.617 561.149L769.491 561.913C768.731 562.377 763.673 563.667 762.547 561.913C761.646 560.509 760.42 560.743 759.92 561.036C758.409 561.675 758.418 564.754 755.416 569.806C751.662 576.121 748.284 577.524 746.219 578.752Z" fill="url(#paint0_linear_353_146)"/>
<path d="M757.278 607.518C754.274 598.222 758.717 594.07 761.595 590.504C762.721 589.451 762.346 589.451 763.096 589.451C763.697 589.451 763.472 590.738 763.284 591.381C758.217 600.853 759.905 609.799 760.656 611.202C761.256 612.324 760.155 612.137 759.717 611.903C758.966 610.921 758.092 608.922 757.278 607.518Z" fill="#F5D687"/>
<path d="M770.388 594.496C767.759 592.744 765.509 593.62 763.818 594.496C762.129 595.724 763.739 595.581 765.131 595.023C766.443 594.498 767.759 594.496 770.012 595.374C770.637 595.725 771.954 595.539 770.388 594.496Z" fill="#F5D687"/>
<path d="M769.193 599.085C766.858 597.287 764.861 598.186 763.36 599.085C761.861 600.344 763.29 600.198 764.526 599.625C765.69 599.086 766.859 599.085 768.859 599.985C769.414 600.345 770.583 600.155 769.193 599.085Z" fill="#F5D687"/>
<path d="M769.109 602.883C766.016 601.595 763.794 602.835 762.164 603.982C760.597 605.475 762.273 605.065 763.645 604.282C764.938 603.544 766.33 603.323 768.867 603.812C769.591 604.053 770.95 603.65 769.109 602.883Z" fill="#F5D687"/>
<path d="M769.605 607.854C767.392 606.057 765.5 606.955 764.078 607.854C762.658 609.114 764.011 608.967 765.182 608.395C766.286 607.856 767.393 607.854 769.288 608.755C769.814 609.115 770.921 608.925 769.605 607.854Z" fill="#F5D687"/>
<path d="M762.108 572.069C760.989 571.852 759.901 572.939 760.19 573.663C760.653 574.825 762.649 574.038 762.902 573.466C763.063 573.101 763.333 572.307 762.108 572.069Z" fill="#91705B"/>
</g>
<defs>
<linearGradient id="paint0_linear_353_146" x1="763" y1="557" x2="779.5" y2="645" gradientUnits="userSpaceOnUse">
<stop stop-color="#F3C551"/>
<stop offset="1" stop-color="#F2B33A"/>
</linearGradient>
<clipPath id="clip0_353_146">
<rect width="1920" height="1080" fill="white"/>
</clipPath>
</defs>
</svg>
