<svg width="1920" height="1080" viewBox="0 0 1920 1080" fill="none" xmlns="http://www.w3.org/2000/svg">
<g clip-path="url(#clip0_353_146)">
<path d="M852.095 610.88C851.462 610.703 850.091 611.151 849.485 611.398C846.638 613.615 848.536 617.311 848.536 617.755C848.536 618.198 849.485 618.346 850.355 618.494C851.051 618.612 851.436 618.248 851.541 618.05C852.648 616.72 853.123 614.207 852.965 612.728C852.807 611.25 852.886 611.102 852.095 610.88Z" fill="#E09868"/>
<path d="M838.735 604.377C838.039 604.791 837.044 604.893 836.28 604.721C834.698 604.538 834.829 605.236 835.093 605.829C835.593 606.642 835.734 607.09 836.121 607.677C836.607 608.416 837.335 607.819 838.415 606.421C839.434 605.101 841.912 605.286 842.595 605.337L842.611 605.338C844.504 605.608 844.851 606.472 844.667 607.039C844.098 608.399 842.057 610.266 841.108 611.03C840.317 611.695 838.988 613.617 840.001 615.983C841.013 618.348 844.324 620.27 845.853 620.935C847.725 621.872 851.864 624.317 851.864 626.701C851.864 628.845 851.39 629.436 849.729 630.027C848.068 630.619 846.296 630.22 845.853 628.179C845.533 626.701 847.115 625.935 847.747 626.379C848.143 626.656 848.38 626.896 848.85 627.831C849.265 628.653 849.725 626.379 847.985 625.418C846.983 624.925 845.264 624.868 844.188 626.701C843.113 628.534 843.898 629.951 844.346 630.518C845.654 632.171 847.747 632.81 850.757 632.171C853.452 631.599 854.101 629.631 854.312 628.818C854.496 627.488 854.695 624.38 852.418 622.488C849.57 620.122 848.838 617.361 849.729 612.582C850.436 608.786 851.85 607.538 852.255 607.308C852.73 607.039 854.154 606.273 854.628 606.716L855.024 607.308C855.735 607.973 856.358 607.594 856.526 607.455C856.918 607.133 857.554 605.93 856.214 605.338C854.983 604.795 855.019 605.951 854.628 605.903L854.312 605.829C853.916 605.755 852.255 603.907 852.255 603.538C852.255 602.414 853.267 600.435 853.679 600.655C854.233 600.951 854.765 600.927 854.944 600.829C855.265 600.655 855.898 600.164 855.265 599.351C854.759 598.701 854.105 598.883 853.841 599.055C852.888 599.62 853.679 600.138 853.204 600.285L852.73 600.433C850.12 601.246 849.181 599.573 849.013 599.103C848.775 598.437 849.092 597.329 849.487 597.329C849.804 597.329 850.199 597.477 850.599 597.281C851.585 596.799 851.179 595.777 850.674 595.481C850.041 595.111 849.404 595.078 849.017 595.655C848.538 596.368 849.25 596.737 849.017 596.959L848.542 597.281C848.222 597.477 846.091 598.02 845.616 597.281C845.236 596.69 844.72 596.788 844.509 596.912C843.872 597.181 843.876 598.479 842.611 600.608C841.029 603.269 839.605 603.86 838.735 604.377Z" fill="url(#paint0_linear_353_146)"/>
<path d="M843.394 616.5C842.129 612.583 844.001 610.833 845.214 609.33C845.688 608.887 845.53 608.887 845.846 608.887C846.099 608.887 846.004 609.429 845.925 609.7C843.79 613.691 844.501 617.461 844.818 618.053C845.071 618.526 844.607 618.447 844.422 618.348C844.106 617.934 843.737 617.092 843.394 616.5Z" fill="#F5D687"/>
<path d="M848.92 611.014C847.812 610.276 846.863 610.645 846.151 611.014C845.439 611.532 846.118 611.471 846.704 611.236C847.257 611.015 847.812 611.014 848.761 611.384C849.025 611.532 849.579 611.454 848.92 611.014Z" fill="#F5D687"/>
<path d="M848.419 612.945C847.435 612.188 846.593 612.566 845.961 612.945C845.329 613.476 845.931 613.414 846.452 613.173C846.942 612.946 847.435 612.945 848.278 613.325C848.512 613.476 849.004 613.396 848.419 612.945Z" fill="#F5D687"/>
<path d="M848.382 614.547C847.079 614.004 846.143 614.527 845.456 615.01C844.796 615.639 845.502 615.466 846.08 615.136C846.625 614.826 847.211 614.732 848.281 614.938C848.586 615.04 849.158 614.87 848.382 614.547Z" fill="#F5D687"/>
<path d="M848.592 616.642C847.659 615.885 846.862 616.264 846.263 616.642C845.664 617.173 846.235 617.111 846.728 616.87C847.193 616.643 847.66 616.642 848.458 617.022C848.68 617.174 849.146 617.093 848.592 616.642Z" fill="#F5D687"/>
<path d="M845.434 601.563C844.962 601.471 844.504 601.929 844.626 602.235C844.821 602.724 845.662 602.393 845.769 602.152C845.837 601.998 845.95 601.663 845.434 601.563Z" fill="#91705B"/>
</g>
<defs>
<linearGradient id="paint0_linear_353_146" x1="845.978" y1="595.211" x2="845.978" y2="632.415" gradientUnits="userSpaceOnUse">
<stop stop-color="#F3C551"/>
<stop offset="1" stop-color="#F2BD6E"/>
</linearGradient>
<clipPath id="clip0_353_146">
<rect width="1920" height="1080" fill="white"/>
</clipPath>
</defs>
</svg>
