<svg width="1920" height="1080" viewBox="0 0 1920 1080" fill="none" xmlns="http://www.w3.org/2000/svg">
<g clip-path="url(#clip0_353_146)">
<path d="M819.98 617.585C819.178 617.36 817.439 617.928 816.67 618.241C813.058 621.054 815.466 625.741 815.466 626.304C815.466 626.866 816.67 627.054 817.773 627.241C818.656 627.391 819.144 626.929 819.278 626.679C820.682 624.991 821.284 621.804 821.084 619.928C820.883 618.053 820.983 617.866 819.98 617.585Z" fill="#E09868"/>
<path d="M803.035 609.334C802.153 609.859 800.89 609.988 799.921 609.769C797.914 609.537 798.081 610.422 798.415 611.175C799.05 612.206 799.229 612.774 799.719 613.519C800.336 614.457 801.259 613.698 802.629 611.925C803.922 610.251 807.065 610.486 807.931 610.551L807.951 610.553C810.353 610.894 810.793 611.99 810.559 612.709C809.837 614.434 807.249 616.803 806.045 617.772C805.042 618.616 803.356 621.053 804.64 624.054C805.924 627.054 810.124 629.491 812.064 630.335C814.438 631.523 819.688 634.625 819.688 637.648C819.688 640.367 819.086 641.117 816.979 641.867C814.873 642.618 812.625 642.111 812.064 639.524C811.657 637.648 813.664 636.677 814.466 637.24C814.968 637.591 815.269 637.896 815.865 639.081C816.391 640.124 816.974 637.24 814.767 636.021C813.496 635.396 811.316 635.323 809.952 637.648C808.588 639.974 809.584 641.771 810.153 642.49C811.81 644.586 814.466 645.397 818.283 644.586C821.702 643.861 822.525 641.365 822.792 640.334C823.026 638.646 823.279 634.704 820.39 632.304C816.778 629.304 815.849 625.802 816.979 619.741C817.877 614.925 819.669 613.342 820.184 613.05C820.786 612.709 822.592 611.738 823.193 612.3L823.695 613.05C824.598 613.894 825.387 613.414 825.601 613.238C826.097 612.829 826.905 611.303 825.205 610.553C823.643 609.864 823.69 611.329 823.193 611.269L822.792 611.175C822.291 611.081 820.184 608.737 820.184 608.269C820.184 606.844 821.467 604.333 821.99 604.612C822.692 604.987 823.367 604.957 823.595 604.833C824.001 604.612 824.804 603.99 824.001 602.958C823.359 602.133 822.53 602.364 822.195 602.583C820.987 603.3 821.99 603.956 821.388 604.143L820.786 604.331C817.475 605.362 816.284 603.24 816.071 602.643C815.77 601.799 816.171 600.393 816.673 600.393C817.074 600.393 817.576 600.581 818.083 600.333C819.334 599.721 818.819 598.424 818.178 598.05C817.375 597.581 816.568 597.538 816.076 598.27C815.469 599.174 816.372 599.643 816.076 599.925L815.474 600.333C815.068 600.581 812.365 601.27 811.763 600.333C811.281 599.583 810.626 599.708 810.358 599.864C809.551 600.206 809.556 601.852 807.951 604.552C805.944 607.927 804.139 608.677 803.035 609.334Z" fill="url(#paint0_linear_353_146)"/>
<path d="M808.945 624.712C807.34 619.743 809.714 617.524 811.252 615.617C811.854 615.055 811.654 615.055 812.055 615.055C812.376 615.055 812.256 615.742 812.155 616.086C809.447 621.149 810.349 625.931 810.75 626.681C811.071 627.281 810.483 627.181 810.249 627.056C809.847 626.531 809.38 625.462 808.945 624.712Z" fill="#F5D687"/>
<path d="M815.954 617.75C814.548 616.813 813.346 617.281 812.442 617.75C811.539 618.406 812.4 618.33 813.144 618.031C813.845 617.751 814.549 617.75 815.752 618.219C816.087 618.406 816.791 618.307 815.954 617.75Z" fill="#F5D687"/>
<path d="M815.315 620.201C814.067 619.24 813 619.721 812.197 620.201C811.396 620.874 812.16 620.796 812.82 620.49C813.443 620.202 814.068 620.201 815.137 620.683C815.433 620.875 816.058 620.773 815.315 620.201Z" fill="#F5D687"/>
<path d="M815.269 622.233C813.616 621.544 812.428 622.207 811.557 622.82C810.72 623.618 811.615 623.399 812.349 622.98C813.04 622.586 813.784 622.468 815.14 622.729C815.527 622.858 816.253 622.643 815.269 622.233Z" fill="#F5D687"/>
<path d="M815.535 624.889C814.353 623.928 813.342 624.408 812.582 624.889C811.822 625.562 812.546 625.484 813.172 625.178C813.762 624.89 814.354 624.889 815.366 625.37C815.647 625.562 816.239 625.461 815.535 624.889Z" fill="#F5D687"/>
<path d="M811.528 605.763C810.929 605.646 810.348 606.227 810.502 606.615C810.75 607.235 811.817 606.815 811.952 606.509C812.038 606.314 812.182 605.89 811.528 605.763Z" fill="#91705B"/>
</g>
<defs>
<linearGradient id="paint0_linear_353_146" x1="812.222" y1="597.707" x2="812.222" y2="644.896" gradientUnits="userSpaceOnUse">
<stop stop-color="#F3C551"/>
<stop offset="1" stop-color="#F2BD6E"/>
</linearGradient>
<clipPath id="clip0_353_146">
<rect width="1920" height="1080" fill="white"/>
</clipPath>
</defs>
</svg>
