<svg width="1920" height="1080" viewBox="0 0 1920 1080" fill="none" xmlns="http://www.w3.org/2000/svg">
<g clip-path="url(#clip0_245_23)">
<path d="M1357 724.994C1357 724.994 1372.15 714.884 1383 712.994C1393.85 711.104 1404 708.994 1410.24 708.934C1416.86 708.874 1432.77 702.494 1432.77 702.494C1432.77 702.494 1449.57 689.994 1469.92 691.904C1490.27 693.814 1494.33 695.684 1505.18 688.124C1516.03 680.564 1556.72 684.334 1570.29 691.904C1583.86 699.474 1593.29 708.904 1617.76 707.044C1642.23 705.184 1661.16 718.394 1661.16 718.394L1691 742.994H1337L1357 724.994Z" fill="#6B7181"/>
<path d="M684.001 741.779C684.001 741.779 686.651 729.879 668.131 725.919C649.611 721.959 645.651 723.269 629.781 720.629C613.911 717.989 625.781 721.949 605.981 712.689C586.181 703.429 584.791 702.109 567.601 703.429C550.411 704.749 547.761 708.719 527.931 704.759C508.101 700.799 499.001 707.299 492.221 713.999C484.001 722.149 474.871 718.469 459.001 717.149C443.131 715.829 426.001 725.149 426.001 725.149C426.001 725.149 415.331 728.889 414.001 738.149C412.671 747.409 684.001 741.779 684.001 741.779Z" fill="#6B7081"/>
<path d="M1181.7 721.371C1181.7 721.371 1199.33 713.231 1210.18 711.871C1221.03 710.511 1227.82 711.871 1233.24 714.581C1238.66 717.291 1255.77 709.971 1255.77 709.971C1255.77 709.971 1272.57 701.021 1292.92 702.381C1313.27 703.741 1316.8 703.861 1328.18 699.661C1349 692.001 1382 698.001 1392 706.001C1403.41 715.121 1416.34 714.581 1440.76 713.231C1455.67 712.489 1470.54 715.278 1484.16 721.371L1514 739.001H1160L1181.7 721.371Z" fill="#606572"/>
<path d="M1920 739H0V1080H1920V739Z" fill="#9A808A"/>
</g>
<defs>
<clipPath id="clip0_245_23">
<rect width="1920" height="1080" fill="white"/>
</clipPath>
</defs>
</svg>
