<svg width="35" height="1270" viewBox="0 0 35 1270" fill="none" xmlns="http://www.w3.org/2000/svg">
<path d="M1.09 1249.04C1.51 1247.78 2.105 1246.66 2.84 1246.03L19.395 1246.03C20.865 1251.21 21.915 1259.19 21.985 1263.91C21.985 1264.4 21.775 1264.54 21.39 1264.54L8.265 1264.54L7.95 1253.45C7.95 1253.24 7.88 1253.1 7.74 1252.99C7.6 1252.82 7.215 1252.71 6.725 1252.71C6.48 1252.71 6.34 1252.82 6.305 1253.1C6.165 1253.76 6.095 1255.13 6.095 1255.97L6.62 1256.88C6.725 1258.03 6.865 1262.48 6.9 1264.51C6.725 1265.42 6.55 1267.62 6.55 1268.6C6.55 1268.81 6.655 1268.92 6.76 1268.95L7.46 1269.09C7.635 1268.18 7.985 1267.31 8.44 1266.78L20.795 1266.78C21.46 1266.78 22.02 1266.71 22.3 1266.61C23.315 1266.29 23.945 1265.59 23.945 1264.51C23.945 1264.19 23.945 1263.81 23.91 1263.42C23.56 1258.52 22.335 1251.38 20.62 1246.03L27.62 1246.03C29.125 1246.03 32.24 1245.96 33.745 1245.85L33.745 1244.59C31.82 1244.14 28.775 1243.86 26.815 1243.86L3.47 1243.86L1.685 1243.79C1.37 1243.79 1.125 1243.89 1.02 1244.21C0.669997 1245.15 0.214999 1247.25 0.179997 1248.44C0.179997 1248.69 0.214999 1248.76 0.354997 1248.79L1.09 1249.04ZM15.335 1209.25L15.44 1211.84L3.47 1211.84L1.685 1211.77C1.37 1211.77 1.125 1211.88 1.01999 1212.16C0.669995 1213.1 0.214997 1215.2 0.179996 1216.39C0.179996 1216.64 0.214997 1216.74 0.354995 1216.78L1.09 1216.99C1.51 1215.76 2.105 1214.64 2.84 1213.98L27.62 1213.98C29.125 1213.98 32.24 1213.94 33.745 1213.84L33.745 1212.58C31.82 1212.12 28.775 1211.84 26.815 1211.84L16.735 1211.84L16.665 1205.61C16.665 1205.44 16.595 1205.19 16.525 1205.02C16.385 1204.81 15.965 1204.6 15.405 1204.6C15.16 1204.6 14.95 1204.81 14.845 1205.05C14.705 1205.72 14.635 1207.12 14.67 1208.13L15.335 1209.25ZM19.43 1220.8L15.58 1224.97C13.06 1222.9 10.435 1221.33 7.95 1220.38L7.04 1219.72C6.865 1219.58 6.725 1219.58 6.62 1219.75C6.41 1220.03 6.06 1220.8 5.92 1221.19C5.85 1221.4 5.85 1221.61 5.92 1221.75L6.48 1222.83C6.585 1224.55 6.655 1231.27 6.655 1232.56C6.655 1233.37 6.585 1234.56 6.41 1235.43L6.83 1235.61C6.9 1235.64 7.005 1235.61 7.11 1235.5C7.635 1234.84 8.16 1233.86 8.475 1232.98C8.23 1232.35 7.985 1231.02 7.95 1230.36C7.88 1229.45 7.775 1225 7.81 1223.11C13.445 1225.32 19.78 1230.29 24.715 1236.9C24.82 1237.04 24.89 1237.01 24.96 1236.94L25.31 1236.55C25.38 1236.48 25.38 1236.38 25.275 1236.27C22.965 1232.35 19.92 1228.78 16.7 1225.91L23.385 1219.37C23.63 1219.16 23.91 1218.81 23.945 1218.63C24.085 1218.28 23.84 1217.69 23.455 1217.55C23.28 1217.48 22.965 1217.51 22.545 1217.72C21.915 1218.04 20.795 1218.7 20.025 1219.23L19.43 1220.8ZM31.05 1178.49C31.155 1180.52 31.19 1187.17 31.155 1189.48C31.155 1190.08 30.875 1190.32 30.245 1190.32L25.275 1190.32L23.805 1190.29C23.42 1190.29 23.245 1190.46 23.175 1190.78C22.965 1191.58 22.86 1193.47 22.86 1194.52C22.86 1194.73 22.895 1194.84 23.07 1194.87L23.77 1195.01C23.945 1194.1 24.295 1193.12 24.715 1192.56L29.825 1192.56C31.715 1192.56 32.45 1191.79 32.45 1189.62L32.38 1174.57C32.38 1174.4 32.345 1174.26 32.24 1174.15C32.065 1174.01 31.715 1173.8 31.12 1173.8C30.91 1173.8 30.735 1173.98 30.7 1174.22C30.56 1174.89 30.455 1176.43 30.455 1177.41L31.05 1178.49ZM11.73 1185.28C7.53 1185.28 4.66 1188.57 4.66 1193.02C4.66 1197.53 7.53 1200.86 11.73 1200.86C15.93 1200.86 18.835 1197.53 18.835 1193.02C18.835 1188.57 15.93 1185.28 11.73 1185.28ZM11.73 1198.58C8.335 1198.58 6.27 1196.17 6.27 1193.02C6.27 1189.87 8.335 1187.45 11.73 1187.45C15.16 1187.45 17.155 1189.87 17.155 1193.02C17.155 1196.17 15.16 1198.58 11.73 1198.58ZM19.22 1178.32C20.795 1178.32 23.56 1178.28 24.995 1178.18L24.995 1176.88C23.315 1176.46 20.795 1176.18 18.415 1176.18L3.47 1176.18L1.685 1176.08C1.37 1176.08 1.12499 1176.22 1.01999 1176.5C0.669994 1177.44 0.214996 1179.51 0.179994 1180.7C0.179994 1180.98 0.214996 1181.05 0.354994 1181.08L1.12499 1181.33C1.51 1180.07 2.10499 1178.95 2.84 1178.32L19.22 1178.32ZM15.965 1143.01C16.14 1145.42 16.35 1163.55 16.315 1165.65C16.315 1166.7 16.175 1168.28 15.965 1169.4L16.455 1169.64C16.56 1169.68 16.63 1169.64 16.735 1169.54C17.4 1168.7 18.03 1167.47 18.38 1166.21C18.1 1165.41 17.785 1163.69 17.715 1162.82C17.61 1161.03 17.4 1144.65 17.435 1142.2C17.435 1141.15 17.505 1139.16 17.61 1138.25C17.47 1137.93 17.015 1137.55 16.49 1137.55C16.21 1137.55 16.035 1137.72 15.965 1138C15.685 1138.77 15.51 1140.56 15.475 1141.78L15.965 1143.01ZM31.505 1146.93C31.61 1149.1 31.645 1156.27 31.61 1159.11C31.61 1159.53 31.435 1159.7 31.015 1159.7L27.34 1159.7L27.165 1145C27.06 1144.9 26.745 1144.72 26.43 1144.72C26.325 1144.72 26.22 1144.79 26.15 1144.9L25.835 1145.53C25.03 1145.25 23.245 1144.9 22.195 1144.83L21.46 1144.44C21.25 1144.37 21.11 1144.37 21.005 1144.51C20.83 1144.79 20.48 1145.42 20.34 1145.74C20.27 1145.91 20.27 1146.12 20.34 1146.26L20.83 1147.24C20.9 1149.55 21.005 1158.9 21.005 1160.79C21.005 1161.66 20.9 1162.92 20.725 1163.8L21.075 1164.01C21.18 1164.04 21.285 1164.04 21.39 1163.9C21.88 1163.17 22.405 1162.22 22.72 1161.21C22.475 1160.37 22.23 1159.11 22.195 1158.48C22.125 1156.97 22.02 1149.45 22.055 1147.28C22.895 1147.24 24.96 1147.28 25.8 1147.38L25.975 1147.94C26.045 1149.27 26.15 1156.94 26.15 1159.63C26.045 1160.51 25.975 1162.57 25.975 1163.45C25.975 1163.66 26.045 1163.76 26.15 1163.8L26.745 1163.9C26.885 1163.13 27.165 1162.4 27.585 1161.94L30.84 1161.94C32.345 1161.94 32.94 1161.38 32.94 1159.53L32.87 1143.32C32.87 1143.15 32.835 1143.01 32.695 1142.9C32.59 1142.76 32.17 1142.55 31.645 1142.55C31.4 1142.55 31.26 1142.73 31.225 1142.97C31.085 1143.57 30.98 1145 30.98 1145.91L31.505 1146.93ZM13.585 1153.68C13.585 1149.2 11.205 1145.67 7.52999 1145.67C3.88999 1145.67 1.47499 1149.2 1.47499 1153.68C1.47499 1158.16 3.88999 1161.7 7.52999 1161.7C11.205 1161.7 13.585 1158.16 13.585 1153.68ZM2.97999 1153.68C2.97999 1150.5 4.65999 1147.87 7.52999 1147.87C10.435 1147.87 12.115 1150.5 12.115 1153.68C12.115 1156.87 10.435 1159.49 7.52999 1159.49C4.65999 1159.49 2.97999 1156.87 2.97999 1153.68ZM6.93499 1087.61C7.03999 1089.29 7.14499 1095.35 7.10999 1096.54C7.10999 1097.27 7.07499 1098.39 6.96999 1099.2L7.31999 1099.37C7.42499 1099.41 7.49499 1099.41 7.59999 1099.3C8.08999 1098.67 8.61499 1097.76 8.92999 1096.92C8.71999 1096.36 8.47499 1095.17 8.43999 1094.58C8.36999 1093.7 8.26499 1089.43 8.29999 1087.72C13.865 1089.47 20.305 1093.84 25.24 1099.9C25.345 1100 25.415 1099.97 25.52 1099.86L25.87 1099.48C25.905 1099.41 25.87 1099.34 25.8 1099.2C21.39 1092.37 14.355 1086.77 8.43999 1085.3L7.38999 1084.71C7.24999 1084.64 7.14499 1084.64 7.00499 1084.74C6.82999 1085.02 6.47999 1085.72 6.33999 1086.04C6.26999 1086.21 6.26999 1086.42 6.33999 1086.56L6.93499 1087.61ZM1.08999 1077.08C1.47499 1075.92 2.03499 1074.87 2.73499 1074.31L14.25 1074.31L14.39 1079.04L5.42999 1079.04L3.95999 1078.97C3.67999 1078.97 3.46999 1079.07 3.36499 1079.35C3.01499 1080.16 2.62999 1081.98 2.59499 1082.99C2.59499 1083.24 2.66499 1083.34 2.76999 1083.38L3.50499 1083.62C3.81999 1082.61 4.37999 1081.63 4.97499 1081.1L25.38 1081.1C26.815 1081.1 29.685 1081.1 31.085 1080.96L31.085 1079.77C29.335 1079.32 26.465 1079.04 24.61 1079.04L15.825 1079.04L15.685 1074.31L27.97 1074.31C29.44 1074.31 32.38 1074.24 33.745 1074.17L33.745 1072.91C31.96 1072.46 29.055 1072.18 27.165 1072.18L3.29499 1072.18L1.64999 1072.11C1.33499 1072.07 1.12499 1072.18 0.984989 1072.53C0.63499 1073.37 0.214991 1075.36 0.179989 1076.48C0.179989 1076.69 0.214991 1076.8 0.354989 1076.83L1.08999 1077.08ZM10.96 1039.04L11.065 1041.52L3.46999 1041.52L1.68499 1041.45C1.36999 1041.45 1.12499 1041.56 1.01999 1041.87C0.669988 1042.82 0.21499 1044.88 0.179988 1046.07C0.179988 1046.32 0.21499 1046.42 0.354988 1046.46L1.12499 1046.67C1.50999 1045.44 2.10499 1044.32 2.83999 1043.69L14.145 1043.69C15.44 1043.69 17.68 1043.66 18.835 1043.52L18.835 1042.26C17.61 1041.8 15.51 1041.52 13.375 1041.52L12.36 1041.52L12.255 1035.4C12.255 1035.22 12.22 1034.98 12.115 1034.8C12.01 1034.59 11.59 1034.38 10.995 1034.38C10.785 1034.38 10.54 1034.59 10.47 1034.84C10.33 1035.5 10.26 1036.9 10.295 1037.92L10.96 1039.04ZM31.26 1043.73C31.365 1045.76 31.4 1052.51 31.365 1055.17C31.365 1055.59 31.19 1055.77 30.77 1055.77L27.095 1055.77L26.92 1041.91C26.78 1041.77 26.5 1041.66 26.185 1041.66C26.045 1041.66 25.975 1041.7 25.905 1041.8L25.625 1042.43C24.68 1042.15 22.86 1041.8 21.775 1041.73L21.04 1041.38C20.865 1041.28 20.725 1041.31 20.62 1041.45C20.445 1041.7 20.095 1042.33 19.955 1042.64C19.885 1042.82 19.885 1043.03 19.955 1043.2L20.41 1044.15C20.515 1046.35 20.62 1055.1 20.62 1056.96C20.62 1057.8 20.515 1059.09 20.34 1060L20.69 1060.18C20.795 1060.21 20.9 1060.21 21.005 1060.07C21.495 1059.37 22.02 1058.43 22.37 1057.34C22.09 1056.54 21.845 1055.24 21.81 1054.61C21.74 1053.18 21.67 1046.32 21.67 1044.22C22.545 1044.18 24.645 1044.22 25.555 1044.29L25.73 1044.81C25.8 1046.21 25.905 1053.39 25.905 1055.7C25.8 1056.54 25.73 1058.64 25.73 1059.51C25.73 1059.72 25.8 1059.83 25.905 1059.86L26.5 1059.97C26.64 1059.2 26.92 1058.46 27.305 1058.01L30.595 1058.01C32.135 1058.01 32.695 1057.45 32.695 1055.59L32.625 1040.12C32.625 1039.95 32.59 1039.81 32.485 1039.7C32.31 1039.56 31.925 1039.39 31.4 1039.39C31.155 1039.39 31.015 1039.53 30.98 1039.77C30.805 1040.4 30.735 1041.8 30.735 1042.71L31.26 1043.73ZM15.265 1050.1C14.425 1049.89 13.13 1049.71 12.115 1049.71L4.58999 1049.61L3.25999 1049.54C3.01499 1049.54 2.83999 1049.61 2.73499 1049.89C2.41999 1050.69 2.10499 1052.27 2.03499 1053.32C2.03499 1053.56 2.06999 1053.63 2.17499 1053.67L2.90999 1053.91C3.25999 1053.07 3.74999 1052.27 4.27499 1051.81L8.36999 1051.81L8.50999 1061.61L6.05999 1061.61L4.62499 1061.58C4.34499 1061.58 4.20499 1061.65 4.13499 1061.89C3.88999 1062.77 3.71499 1064.41 3.71499 1065.46C3.71499 1065.71 3.78499 1065.81 3.85499 1065.85L4.62499 1066.06C4.83499 1065.18 5.25499 1064.34 5.70999 1063.85L16.245 1063.64C16.805 1063.64 17.61 1063.57 18.135 1063.4L18.135 1062.21C17.82 1061.96 17.365 1061.79 16.7 1061.68C16.665 1059.23 16.595 1051.88 16.595 1049.36C16.455 1049.22 16.105 1049.12 15.755 1049.12C15.58 1049.12 15.51 1049.22 15.475 1049.36L15.265 1050.1ZM9.69999 1051.81L15.265 1051.81L15.37 1061.65L9.83999 1061.61L9.69999 1051.81ZM4.06499 1027.63C4.13499 1027.67 4.23999 1027.67 4.34499 1027.6C5.07999 1027 5.77999 1026.13 6.12999 1025.43C6.26999 1025.22 6.30499 1025.08 6.30499 1024.8C6.16499 1023.29 6.09499 1020.7 6.09499 1018.92C6.09499 1018.74 6.05999 1018.57 5.88499 1018.46C5.63999 1018.32 5.00999 1018.25 4.69499 1018.36C4.48499 1018.39 4.41499 1018.57 4.41499 1018.85C4.37999 1021.26 4.30999 1024.34 3.78499 1027.39L4.06499 1027.63ZM21.04 1016.71L17.645 1020.14C15.44 1018.11 13.13 1016.5 10.89 1015.56L9.90999 1014.86C9.76999 1014.75 9.59499 1014.79 9.52499 1014.89C9.31499 1015.21 8.96499 1015.94 8.85999 1016.33C8.78999 1016.5 8.78999 1016.75 8.85999 1016.89L9.38499 1017.97C9.48999 1019.55 9.62999 1026.72 9.59499 1028.09C9.59499 1028.96 9.52499 1030.19 9.38499 1031.06L9.76999 1031.27C9.87499 1031.31 9.97999 1031.27 10.05 1031.17C10.61 1030.43 11.135 1029.45 11.45 1028.54C11.205 1027.84 10.96 1026.51 10.925 1025.81C10.82 1024.8 10.715 1020.07 10.715 1018.22C15.79 1020.74 21.355 1025.81 25.59 1032.36C25.73 1032.46 25.8 1032.43 25.87 1032.36L26.185 1032.04C26.22 1031.94 26.22 1031.87 26.15 1031.73C24.225 1027.77 21.565 1024.1 18.695 1021.16L25.135 1015.03C25.415 1014.82 25.695 1014.51 25.73 1014.33C25.87 1013.98 25.66 1013.46 25.275 1013.25C25.1 1013.18 24.82 1013.21 24.4 1013.42C23.735 1013.74 22.58 1014.37 21.74 1014.96L21.04 1016.71ZM1.08999 1010.87C1.50999 1009.61 2.10499 1008.49 2.83999 1007.86L15.65 1007.86C15.755 1009.43 15.825 1011.85 15.825 1012.93C15.825 1013.81 15.755 1014.86 15.65 1015.73L15.965 1015.91C16.14 1015.98 16.21 1015.91 16.315 1015.8C16.84 1015.1 17.365 1014.23 17.75 1013.25C17.435 1012.62 17.225 1011.67 17.155 1011.01C17.085 1010.41 17.015 1008.94 16.98 1007.86L27.62 1007.86C29.125 1007.86 32.24 1007.79 33.745 1007.72L33.745 1006.42C31.82 1006 28.775 1005.72 26.815 1005.72L3.46999 1005.72L1.68499 1005.62C1.36999 1005.62 1.12499 1005.72 1.01999 1006.04C0.669986 1006.98 0.214988 1009.08 0.179987 1010.27C0.179987 1010.52 0.214988 1010.59 0.354986 1010.62L1.08999 1010.87ZM1.12499 977.064C1.50999 975.839 2.10499 974.719 2.83999 974.089L10.155 974.089C10.225 975.489 10.295 977.589 10.295 978.604C10.295 979.479 10.26 980.494 10.19 981.334L10.575 981.544C10.68 981.579 10.785 981.544 10.89 981.439C11.38 980.739 11.835 979.899 12.15 978.919C11.905 978.324 11.66 977.379 11.59 976.749C11.52 976.224 11.485 974.964 11.485 974.089L16.175 974.089C17.47 974.089 19.745 974.054 20.9 973.914L20.9 972.654C19.675 972.199 17.54 971.919 15.37 971.919L3.46999 971.919L1.68499 971.849C1.36999 971.849 1.12499 971.954 1.01998 972.269C0.669985 973.214 0.214987 975.279 0.179985 976.469C0.179985 976.714 0.214987 976.819 0.354985 976.854L1.12499 977.064ZM22.335 974.999C22.51 977.764 22.58 983.504 22.615 986.199C22.44 987.109 22.265 988.824 22.265 989.804C22.265 989.979 22.3 990.049 22.405 990.084L23 990.259C23.28 989.559 23.665 988.894 24.05 988.544L31.855 987.844C32.415 987.809 33.01 987.704 33.43 987.529L33.43 986.339C33.15 986.164 32.87 986.059 32.52 985.989L32.31 972.724C32.135 972.514 31.75 972.304 31.33 972.304C31.155 972.304 31.05 972.409 30.98 972.549L30.735 973.179C28.565 972.759 26.08 972.479 24.015 972.374L22.895 972.024C22.755 971.989 22.615 971.989 22.51 972.094C22.335 972.374 21.985 973.074 21.845 973.424C21.775 973.599 21.775 973.809 21.845 973.949L22.335 974.999ZM23.98 986.164C23.91 982.594 23.77 978.324 23.805 974.719L30.735 974.894L30.91 975.594C31.05 977.939 31.155 982.874 31.155 985.919L23.98 986.164ZM16.77 979.234C16.665 979.269 16.63 979.339 16.665 979.479C17.575 982.909 18.345 988.964 18.38 992.779C18.38 993.234 18.205 993.374 17.82 993.374L12.115 993.374L11.87 982.839C11.765 982.734 11.415 982.559 11.1 982.559C10.995 982.559 10.89 982.629 10.82 982.734L10.505 983.294C9.24499 983.014 6.68999 982.629 5.25499 982.594L4.41499 982.244C4.23999 982.174 4.09999 982.174 3.95999 982.314C3.78499 982.559 3.39999 983.189 3.18999 983.504C3.11999 983.679 3.11999 983.924 3.18999 984.064L3.71499 985.009C3.81999 986.654 3.92499 992.814 3.92499 994.144C3.92499 994.949 3.85499 996.139 3.67999 996.944L4.13499 997.189C4.20499 997.224 4.30999 997.224 4.41499 997.084C4.93999 996.384 5.46499 995.509 5.81499 994.564C5.56999 993.794 5.32499 992.674 5.28999 992.044C5.21999 991.099 5.07999 986.409 5.07999 985.009C6.19999 984.939 9.20999 984.974 10.435 985.079L10.61 985.639C10.68 986.759 10.785 991.729 10.785 993.304C10.715 994.214 10.68 996.349 10.68 997.259C10.68 997.469 10.75 997.574 10.855 997.609L11.485 997.714C11.66 996.909 11.94 996.139 12.325 995.614L17.295 995.614C18.1 995.614 18.695 995.544 18.905 995.439C19.78 995.054 20.13 994.494 20.13 993.444C20.13 993.129 20.13 992.674 20.095 992.324C19.85 988.789 18.87 983.014 17.54 979.269C17.505 979.129 17.4 979.059 17.26 979.094L16.77 979.234ZM1.08998 908.61C1.50998 907.35 2.10498 906.23 2.83998 905.6L19.395 905.6C20.865 910.78 21.915 918.76 21.985 923.485C21.985 923.975 21.775 924.115 21.39 924.115L8.26498 924.115L7.94998 913.02C7.94998 912.81 7.87998 912.67 7.73998 912.565C7.59998 912.39 7.21498 912.285 6.72498 912.285C6.47998 912.285 6.33998 912.39 6.30498 912.67C6.16498 913.335 6.09498 914.7 6.09498 915.54L6.61998 916.45C6.72498 917.605 6.86498 922.05 6.89998 924.08C6.72498 924.99 6.54998 927.195 6.54998 928.175C6.54998 928.385 6.65498 928.49 6.75998 928.525L7.45998 928.665C7.63498 927.755 7.98498 926.88 8.43998 926.355L20.795 926.355C21.46 926.355 22.02 926.285 22.3 926.18C23.315 925.865 23.945 925.165 23.945 924.08C23.945 923.765 23.945 923.38 23.91 922.995C23.56 918.095 22.335 910.955 20.62 905.6L27.62 905.6C29.125 905.6 32.24 905.53 33.745 905.425L33.745 904.165C31.82 903.71 28.775 903.43 26.815 903.43L3.46998 903.43L1.68498 903.36C1.36998 903.36 1.12498 903.465 1.01998 903.78C0.669982 904.725 0.214984 906.825 0.179982 908.015C0.179982 908.26 0.214984 908.33 0.354982 908.365L1.08998 908.61ZM21.6 879.952C21.495 879.987 21.46 880.057 21.495 880.232C22.09 882.717 22.615 887.407 22.58 890.207C22.58 890.697 22.405 890.837 21.985 890.837L15.825 890.837L15.51 883.277C15.51 883.067 15.475 882.927 15.405 882.822C15.23 882.647 14.845 882.507 14.46 882.507C14.215 882.507 14.075 882.647 14.04 882.927C13.935 883.557 13.865 884.607 13.865 885.377L14.285 886.252C14.39 887.162 14.495 889.647 14.495 890.837L8.54498 890.837L8.12498 882.017C8.12498 881.877 8.05498 881.702 7.98498 881.597C7.80998 881.457 7.38998 881.317 6.89998 881.317C6.68998 881.317 6.54998 881.422 6.47998 881.702C6.37498 882.262 6.26998 883.487 6.30498 884.222L6.79498 885.027C6.93498 885.937 7.10998 889.507 7.17998 890.802C7.00498 891.712 6.89998 893.812 6.89998 894.757C6.89998 894.967 6.96998 895.072 7.10998 895.107L7.80998 895.282C8.01998 894.442 8.29998 893.602 8.75498 893.077L21.46 893.077C22.3 893.077 22.895 893.007 23.105 892.902C24.015 892.482 24.365 891.922 24.365 890.802L24.365 889.682C24.225 887.162 23.385 882.752 22.37 879.987C22.335 879.882 22.23 879.777 22.125 879.812L21.6 879.952ZM3.60998 878.727C3.92498 877.712 4.48498 876.732 5.07998 876.207L13.585 876.207C13.655 877.222 13.69 878.517 13.69 879.322C13.69 880.057 13.69 880.897 13.62 881.597L13.935 881.772C14.075 881.842 14.18 881.807 14.285 881.667C14.705 881.142 15.09 880.477 15.37 879.707C15.16 879.147 14.985 878.307 14.915 877.712C14.88 877.397 14.88 876.767 14.88 876.207L25.66 876.207C27.095 876.207 29.965 876.207 31.4 876.067L31.4 874.842C29.615 874.422 26.71 874.142 24.89 874.142L5.53498 874.142L4.06498 874.072C3.78498 874.072 3.57498 874.177 3.46998 874.422C3.11998 875.227 2.73498 877.047 2.69998 878.097C2.69998 878.342 2.76998 878.447 2.87498 878.482L3.60998 878.727ZM1.08998 873.057C1.47498 871.902 2.03498 870.852 2.73498 870.292L27.97 870.292C29.44 870.292 32.38 870.222 33.745 870.152L33.745 868.892C31.96 868.437 29.055 868.157 27.165 868.157L3.29498 868.157L1.64998 868.087C1.33498 868.052 1.12498 868.157 0.98498 868.507C0.634981 869.347 0.214982 871.342 0.179981 872.462C0.179981 872.672 0.214982 872.777 0.35498 872.812L1.08998 873.057ZM31.365 838.203C31.435 840.268 31.47 847.198 31.435 849.928C31.435 850.348 31.26 850.558 30.84 850.558L27.025 850.558L26.85 836.418C26.71 836.278 26.43 836.173 26.115 836.173C25.975 836.173 25.905 836.208 25.835 836.313L25.52 836.943C24.645 836.663 22.685 836.313 21.6 836.243L20.865 835.858C20.69 835.788 20.515 835.788 20.41 835.963C20.235 836.208 19.92 836.838 19.745 837.153C19.675 837.328 19.675 837.538 19.745 837.678L20.235 838.658C20.34 840.968 20.445 849.683 20.445 851.538C20.445 852.378 20.34 853.673 20.165 854.583L20.48 854.758C20.585 854.793 20.69 854.793 20.83 854.653C21.32 853.918 21.81 852.973 22.16 851.923C21.88 851.118 21.635 849.823 21.6 849.193C21.53 847.758 21.46 840.793 21.495 838.693C22.37 838.658 24.575 838.693 25.485 838.763L25.66 839.323C25.73 840.723 25.835 848.248 25.835 850.488C25.695 851.293 25.625 853.393 25.625 854.268C25.625 854.478 25.73 854.583 25.835 854.618L26.43 854.758C26.535 853.953 26.85 853.218 27.235 852.763L30.7 852.763C32.205 852.763 32.765 852.203 32.765 850.383L32.695 834.563C32.695 834.423 32.66 834.318 32.555 834.178C32.415 834.038 32.03 833.828 31.47 833.828C31.26 833.828 31.085 834.003 31.05 834.248C30.91 834.878 30.805 836.278 30.805 837.188L31.365 838.203ZM10.33 845.203C6.40998 845.203 3.60998 848.388 3.60998 852.728C3.60998 857.138 6.40998 860.358 10.33 860.358C14.285 860.358 17.085 857.138 17.085 852.728C17.085 848.388 14.285 845.203 10.33 845.203ZM10.33 858.118C7.17998 858.118 5.21998 855.773 5.21998 852.728C5.21998 849.683 7.17998 847.373 10.33 847.373C13.48 847.373 15.405 849.683 15.405 852.728C15.405 855.773 13.48 858.118 10.33 858.118ZM13.76 838.063C15.055 838.063 17.295 838.063 18.45 837.923L18.45 836.628C17.225 836.173 15.125 835.928 13.025 835.928L3.46998 835.928L1.68498 835.858C1.36998 835.858 1.12498 835.963 1.01998 836.243C0.669979 837.188 0.214981 839.288 0.179979 840.478C0.179979 840.723 0.214981 840.793 0.354979 840.828L1.12498 841.073C1.50998 839.813 2.10498 838.728 2.83998 838.063L13.76 838.063ZM3.74998 824.349C3.81998 824.384 3.88998 824.384 4.02998 824.314C4.76498 823.719 5.49998 822.844 5.84998 822.144C5.95498 821.934 5.98998 821.794 5.98998 821.514C5.84998 819.869 5.77998 817.034 5.77998 815.109C5.77998 814.899 5.74498 814.759 5.56998 814.654C5.32498 814.479 4.69498 814.444 4.37998 814.549C4.16998 814.584 4.09998 814.724 4.09998 815.039C4.09998 817.594 3.95998 820.884 3.43498 824.104L3.74998 824.349ZM23.735 818.749C23.735 821.409 22.02 823.649 19.15 823.649C16.315 823.649 14.6 821.409 14.6 818.749C14.6 816.124 16.315 813.884 19.15 813.884C22.02 813.884 23.735 816.124 23.735 818.749ZM13.06 818.749C13.06 822.634 15.51 825.854 19.15 825.854C22.79 825.854 25.275 822.634 25.275 818.749C25.275 814.899 22.79 811.679 19.15 811.679C15.51 811.679 13.06 814.899 13.06 818.749ZM8.99998 812.939C9.10498 814.514 9.24498 824.594 9.20998 826.029C9.20998 826.834 9.10498 828.164 8.96498 829.144L9.38498 829.354C9.45498 829.389 9.55998 829.389 9.66498 829.249C10.225 828.549 10.82 827.464 11.135 826.519C10.925 825.924 10.68 824.629 10.645 823.964C10.54 822.669 10.365 813.639 10.4 812.204C10.4 811.469 10.4 809.824 10.505 809.159C10.365 808.879 9.90998 808.494 9.31498 808.494C9.13998 808.494 8.96498 808.634 8.89498 808.844C8.68498 809.509 8.50998 810.944 8.50998 811.889L8.99998 812.939ZM16.07 801.214L16.175 803.804L3.46998 803.804L1.68498 803.734C1.36998 803.734 1.12498 803.839 1.01998 804.119C0.669978 805.064 0.214979 807.164 0.179978 808.354C0.179978 808.599 0.214979 808.704 0.354978 808.739L1.08998 808.949C1.50998 807.724 2.10498 806.604 2.83998 805.939L27.62 805.939C29.125 805.939 32.24 805.904 33.745 805.799L33.745 804.539C31.82 804.084 28.775 803.804 26.815 803.804L17.47 803.804L17.4 797.574C17.4 797.399 17.365 797.154 17.26 796.979C17.12 796.769 16.735 796.559 16.14 796.559C15.895 796.559 15.685 796.769 15.615 797.014C15.475 797.679 15.405 799.079 15.44 800.094L16.07 801.214ZM1.08998 771.645C1.47498 770.49 2.03498 769.44 2.73498 768.88L27.97 768.88C29.44 768.88 32.38 768.81 33.745 768.74L33.745 767.48C31.96 767.025 29.055 766.745 27.165 766.745L3.29498 766.745L1.64998 766.675C1.33498 766.64 1.12498 766.745 0.984976 767.095C0.634976 767.935 0.214978 769.93 0.179976 771.05C0.179976 771.26 0.214978 771.365 0.354976 771.4L1.08998 771.645ZM3.57498 777.98C3.92498 776.965 4.44998 775.985 5.04498 775.495L14.18 775.495C14.285 777.315 14.355 780.255 14.355 781.445C14.355 781.83 14.355 782.25 14.32 782.67C12.29 781.41 10.225 780.5 8.29998 780.045L7.24998 779.415C7.10998 779.345 7.00498 779.345 6.89998 779.485C6.68998 779.73 6.33998 780.43 6.23498 780.78C6.16498 780.92 6.16498 781.165 6.23498 781.305L6.79498 782.355C6.89998 784.035 7.00498 789.775 6.96998 790.93C6.96998 791.7 6.93498 792.82 6.82998 793.59L7.17998 793.8C7.28498 793.835 7.35498 793.835 7.45998 793.73C7.94998 793.065 8.47498 792.155 8.78998 791.35C8.57998 790.755 8.33498 789.565 8.29998 788.97C8.22998 788.13 8.12498 784.07 8.15998 782.46C13.725 784.21 20.165 788.55 25.1 794.5C25.24 794.605 25.31 794.57 25.38 794.5L25.695 794.115C25.73 794.045 25.695 793.975 25.625 793.835C22.965 789.67 19.29 785.995 15.475 783.405C15.755 782.915 16.035 782.39 16.245 781.83C15.965 781.165 15.755 780.22 15.685 779.555C15.58 778.75 15.475 776.825 15.475 775.495L25.45 775.495C26.885 775.495 29.72 775.46 31.155 775.32L31.155 774.13C29.405 773.675 26.5 773.43 24.645 773.43L5.53498 773.43L4.02998 773.325C3.74998 773.325 3.53998 773.465 3.43498 773.71C3.08498 774.515 2.69998 776.335 2.66498 777.385C2.66498 777.595 2.73498 777.7 2.83998 777.735L3.57498 777.98ZM27.935 724.227C29.16 724.227 30.105 723.247 30.105 722.022C30.105 720.832 29.16 719.887 27.935 719.887C26.745 719.887 25.765 720.832 25.765 722.022C25.765 723.247 26.745 724.227 27.935 724.227ZM27.935 689.227C29.16 689.227 30.105 688.247 30.105 687.022C30.105 685.832 29.16 684.887 27.935 684.887C26.745 684.887 25.765 685.832 25.765 687.022C25.765 688.247 26.745 689.227 27.935 689.227ZM6.93497 608.377C7.03997 610.057 7.14497 616.112 7.10997 617.302C7.10997 618.037 7.07497 619.157 6.96997 619.962L7.31997 620.137C7.42497 620.172 7.49497 620.172 7.59997 620.067C8.08997 619.437 8.61497 618.527 8.92997 617.687C8.71997 617.127 8.47497 615.937 8.43997 615.342C8.36997 614.467 8.26497 610.197 8.29997 608.482C13.865 610.232 20.305 614.607 25.24 620.662C25.345 620.767 25.415 620.732 25.52 620.627L25.87 620.242C25.905 620.172 25.87 620.102 25.8 619.962C21.39 613.137 14.355 607.537 8.43997 606.067L7.38997 605.472C7.24997 605.402 7.14497 605.402 7.00497 605.507C6.82997 605.787 6.47997 606.487 6.33997 606.802C6.26997 606.977 6.26997 607.187 6.33997 607.327L6.93497 608.377ZM1.08997 597.842C1.47497 596.687 2.03497 595.637 2.73497 595.077L14.25 595.077L14.39 599.802L5.42997 599.802L3.95997 599.732C3.67997 599.732 3.46997 599.837 3.36497 600.117C3.01497 600.922 2.62997 602.742 2.59497 603.757C2.59497 604.002 2.66497 604.107 2.76997 604.142L3.50497 604.387C3.81997 603.372 4.37997 602.392 4.97497 601.867L25.38 601.867C26.815 601.867 29.685 601.867 31.085 601.727L31.085 600.537C29.335 600.082 26.465 599.802 24.61 599.802L15.825 599.802L15.685 595.077L27.97 595.077C29.44 595.077 32.38 595.007 33.745 594.937L33.745 593.677C31.96 593.222 29.055 592.942 27.165 592.942L3.29497 592.942L1.64997 592.872C1.33497 592.837 1.12497 592.942 0.984968 593.292C0.634969 594.132 0.21497 596.127 0.179968 597.247C0.179968 597.457 0.21497 597.562 0.354968 597.597L1.08997 597.842ZM10.96 559.803L11.065 562.288L3.46997 562.288L1.68497 562.218C1.36997 562.218 1.12497 562.323 1.01997 562.638C0.669967 563.583 0.214969 565.648 0.179967 566.838C0.179967 567.083 0.214969 567.188 0.354967 567.223L1.12497 567.433C1.50997 566.208 2.10497 565.088 2.83997 564.458L14.145 564.458C15.44 564.458 17.68 564.423 18.835 564.283L18.835 563.023C17.61 562.568 15.51 562.288 13.375 562.288L12.36 562.288L12.255 556.163C12.255 555.988 12.22 555.743 12.115 555.568C12.01 555.358 11.59 555.148 10.995 555.148C10.785 555.148 10.54 555.358 10.47 555.603C10.33 556.268 10.26 557.668 10.295 558.683L10.96 559.803ZM31.26 564.493C31.365 566.523 31.4 573.278 31.365 575.938C31.365 576.358 31.19 576.533 30.77 576.533L27.095 576.533L26.92 562.673C26.78 562.533 26.5 562.428 26.185 562.428C26.045 562.428 25.975 562.463 25.905 562.568L25.625 563.198C24.68 562.918 22.86 562.568 21.775 562.498L21.04 562.148C20.865 562.043 20.725 562.078 20.62 562.218C20.445 562.463 20.095 563.093 19.955 563.408C19.885 563.583 19.885 563.793 19.955 563.968L20.41 564.913C20.515 567.118 20.62 575.868 20.62 577.723C20.62 578.563 20.515 579.858 20.34 580.768L20.69 580.943C20.795 580.978 20.9 580.978 21.005 580.838C21.495 580.138 22.02 579.193 22.37 578.108C22.09 577.303 21.845 576.008 21.81 575.378C21.74 573.943 21.67 567.083 21.67 564.983C22.545 564.948 24.645 564.983 25.555 565.053L25.73 565.578C25.8 566.978 25.905 574.153 25.905 576.463C25.8 577.303 25.73 579.403 25.73 580.278C25.73 580.488 25.8 580.593 25.905 580.628L26.5 580.733C26.64 579.963 26.92 579.228 27.305 578.773L30.595 578.773C32.135 578.773 32.695 578.213 32.695 576.358L32.625 560.888C32.625 560.713 32.59 560.573 32.485 560.468C32.31 560.328 31.925 560.153 31.4 560.153C31.155 560.153 31.015 560.293 30.98 560.538C30.805 561.168 30.735 562.568 30.735 563.478L31.26 564.493ZM15.265 570.863C14.425 570.653 13.13 570.478 12.115 570.478L4.58997 570.373L3.25997 570.303C3.01497 570.303 2.83997 570.373 2.73497 570.653C2.41997 571.458 2.10497 573.033 2.03497 574.083C2.03497 574.328 2.06997 574.398 2.17497 574.433L2.90997 574.678C3.25997 573.838 3.74997 573.033 4.27497 572.578L8.36997 572.578L8.50997 582.378L6.05997 582.378L4.62497 582.343C4.34497 582.343 4.20497 582.413 4.13497 582.658C3.88997 583.533 3.71497 585.178 3.71497 586.228C3.71497 586.473 3.78497 586.578 3.85497 586.613L4.62497 586.823C4.83497 585.948 5.25497 585.108 5.70997 584.618L16.245 584.408C16.805 584.408 17.61 584.338 18.135 584.163L18.135 582.973C17.82 582.728 17.365 582.553 16.7 582.448C16.665 579.998 16.595 572.648 16.595 570.128C16.455 569.988 16.105 569.883 15.755 569.883C15.58 569.883 15.51 569.988 15.475 570.128L15.265 570.863ZM9.69997 572.578L15.265 572.578L15.37 582.413L9.83997 582.378L9.69997 572.578ZM15.965 527.364C16.14 529.779 16.35 547.909 16.315 550.009C16.315 551.059 16.175 552.634 15.965 553.754L16.455 553.999C16.56 554.034 16.63 553.999 16.735 553.894C17.4 553.054 18.03 551.829 18.38 550.569C18.1 549.764 17.785 548.049 17.715 547.174C17.61 545.389 17.4 529.009 17.435 526.559C17.435 525.509 17.505 523.514 17.61 522.604C17.47 522.289 17.015 521.904 16.49 521.904C16.21 521.904 16.035 522.079 15.965 522.359C15.685 523.129 15.51 524.914 15.475 526.139L15.965 527.364ZM31.505 531.284C31.61 533.454 31.645 540.629 31.61 543.464C31.61 543.884 31.435 544.059 31.015 544.059L27.34 544.059L27.165 529.359C27.06 529.254 26.745 529.079 26.43 529.079C26.325 529.079 26.22 529.149 26.15 529.254L25.835 529.884C25.03 529.604 23.245 529.254 22.195 529.184L21.46 528.799C21.25 528.729 21.11 528.729 21.005 528.869C20.83 529.149 20.48 529.779 20.34 530.094C20.27 530.269 20.27 530.479 20.34 530.619L20.83 531.599C20.9 533.909 21.005 543.254 21.005 545.144C21.005 546.019 20.9 547.279 20.725 548.154L21.075 548.364C21.18 548.399 21.285 548.399 21.39 548.259C21.88 547.524 22.405 546.579 22.72 545.564C22.475 544.724 22.23 543.464 22.195 542.834C22.125 541.329 22.02 533.804 22.055 531.634C22.895 531.599 24.96 531.634 25.8 531.739L25.975 532.299C26.045 533.629 26.15 541.294 26.15 543.989C26.045 544.864 25.975 546.929 25.975 547.804C25.975 548.014 26.045 548.119 26.15 548.154L26.745 548.259C26.885 547.489 27.165 546.754 27.585 546.299L30.84 546.299C32.345 546.299 32.94 545.739 32.94 543.884L32.87 527.679C32.87 527.504 32.835 527.364 32.695 527.259C32.59 527.119 32.17 526.909 31.645 526.909C31.4 526.909 31.26 527.084 31.225 527.329C31.085 527.924 30.98 529.359 30.98 530.269L31.505 531.284ZM13.585 538.039C13.585 533.559 11.205 530.024 7.52997 530.024C3.88997 530.024 1.47497 533.559 1.47497 538.039C1.47497 542.519 3.88997 546.054 7.52997 546.054C11.205 546.054 13.585 542.519 13.585 538.039ZM2.97997 538.039C2.97997 534.854 4.65997 532.229 7.52997 532.229C10.435 532.229 12.115 534.854 12.115 538.039C12.115 541.224 10.435 543.849 7.52997 543.849C4.65997 543.849 2.97997 541.224 2.97997 538.039ZM1.08996 463.181C1.50996 461.921 2.10496 460.801 2.83996 460.171L19.395 460.171C20.865 465.351 21.915 473.331 21.985 478.056C21.985 478.546 21.775 478.686 21.39 478.686L8.26496 478.686L7.94996 467.591C7.94996 467.381 7.87996 467.241 7.73996 467.136C7.59996 466.961 7.21496 466.856 6.72496 466.856C6.47996 466.856 6.33996 466.961 6.30496 467.241C6.16496 467.906 6.09496 469.271 6.09496 470.111L6.61996 471.021C6.72496 472.176 6.86496 476.621 6.89996 478.651C6.72496 479.561 6.54996 481.766 6.54996 482.746C6.54996 482.956 6.65496 483.061 6.75996 483.096L7.45996 483.236C7.63496 482.326 7.98497 481.451 8.43996 480.926L20.795 480.926C21.46 480.926 22.02 480.856 22.3 480.751C23.315 480.436 23.945 479.736 23.945 478.651C23.945 478.336 23.945 477.951 23.91 477.566C23.56 472.666 22.335 465.526 20.62 460.171L27.62 460.171C29.125 460.171 32.24 460.101 33.745 459.996L33.745 458.736C31.82 458.281 28.775 458.001 26.815 458.001L3.46996 458.001L1.68496 457.931C1.36996 457.931 1.12496 458.036 1.01996 458.351C0.669962 459.296 0.214964 461.396 0.179963 462.586C0.179963 462.831 0.214964 462.901 0.354962 462.936L1.08996 463.181ZM15.335 423.392L15.44 425.982L3.46996 425.982L1.68496 425.912C1.36996 425.912 1.12496 426.017 1.01996 426.297C0.669961 427.242 0.214963 429.342 0.179961 430.532C0.179961 430.777 0.214963 430.882 0.354961 430.917L1.08996 431.127C1.50996 429.902 2.10496 428.782 2.83996 428.117L27.62 428.117C29.125 428.117 32.24 428.082 33.745 427.977L33.745 426.717C31.82 426.262 28.775 425.982 26.815 425.982L16.735 425.982L16.665 419.752C16.665 419.577 16.595 419.332 16.525 419.157C16.385 418.947 15.965 418.737 15.405 418.737C15.16 418.737 14.95 418.947 14.845 419.192C14.705 419.857 14.635 421.257 14.67 422.272L15.335 423.392ZM19.43 434.942L15.58 439.107C13.06 437.042 10.435 435.467 7.94996 434.522L7.03996 433.857C6.86496 433.717 6.72496 433.717 6.61996 433.892C6.40996 434.172 6.05996 434.942 5.91996 435.327C5.84996 435.537 5.84996 435.747 5.91996 435.887L6.47996 436.972C6.58496 438.687 6.65496 445.407 6.65496 446.702C6.65496 447.507 6.58496 448.697 6.40996 449.572L6.82996 449.747C6.89996 449.782 7.00496 449.747 7.10996 449.642C7.63496 448.977 8.15996 447.997 8.47496 447.122C8.22996 446.492 7.98496 445.162 7.94996 444.497C7.87996 443.587 7.77496 439.142 7.80996 437.252C13.445 439.457 19.78 444.427 24.715 451.042C24.82 451.182 24.89 451.147 24.96 451.077L25.31 450.692C25.38 450.622 25.38 450.517 25.275 450.412C22.965 446.492 19.92 442.922 16.7 440.052L23.385 433.507C23.63 433.297 23.91 432.947 23.945 432.772C24.085 432.422 23.84 431.827 23.455 431.687C23.28 431.617 22.965 431.652 22.545 431.862C21.915 432.177 20.795 432.842 20.025 433.367L19.43 434.942ZM31.05 392.633C31.155 394.663 31.19 401.313 31.155 403.623C31.155 404.218 30.875 404.463 30.245 404.463L25.275 404.463L23.805 404.428C23.42 404.428 23.245 404.603 23.175 404.918C22.965 405.723 22.86 407.613 22.86 408.663C22.86 408.873 22.895 408.978 23.07 409.013L23.77 409.153C23.945 408.243 24.295 407.263 24.715 406.703L29.825 406.703C31.715 406.703 32.45 405.933 32.45 403.763L32.38 388.713C32.38 388.538 32.345 388.398 32.24 388.293C32.065 388.153 31.715 387.943 31.12 387.943C30.91 387.943 30.735 388.118 30.7 388.363C30.56 389.028 30.455 390.568 30.455 391.548L31.05 392.633ZM11.73 399.423C7.52996 399.423 4.65996 402.713 4.65996 407.158C4.65996 411.673 7.52996 414.998 11.73 414.998C15.93 414.998 18.835 411.673 18.835 407.158C18.835 402.713 15.93 399.423 11.73 399.423ZM11.73 412.723C8.33496 412.723 6.26996 410.308 6.26996 407.158C6.26996 404.008 8.33496 401.593 11.73 401.593C15.16 401.593 17.155 404.008 17.155 407.158C17.155 410.308 15.16 412.723 11.73 412.723ZM19.22 392.458C20.795 392.458 23.56 392.423 24.995 392.318L24.995 391.023C23.315 390.603 20.795 390.323 18.415 390.323L3.46996 390.323L1.68496 390.218C1.36996 390.218 1.12496 390.358 1.01996 390.638C0.669959 391.583 0.214961 393.648 0.17996 394.838C0.17996 395.118 0.214961 395.188 0.354959 395.223L1.12496 395.468C1.50996 394.208 2.10496 393.088 2.83996 392.458L19.22 392.458ZM3.74996 378.919C3.81996 378.954 3.88996 378.954 4.02996 378.884C4.76496 378.289 5.49996 377.414 5.84996 376.714C5.95496 376.504 5.98996 376.364 5.98996 376.084C5.84996 374.439 5.77996 371.604 5.77996 369.679C5.77996 369.469 5.74496 369.329 5.56996 369.224C5.32496 369.049 4.69496 369.014 4.37996 369.119C4.16996 369.154 4.09996 369.294 4.09996 369.609C4.09996 372.164 3.95996 375.454 3.43496 378.674L3.74996 378.919ZM23.735 373.319C23.735 375.979 22.02 378.219 19.15 378.219C16.315 378.219 14.6 375.979 14.6 373.319C14.6 370.694 16.315 368.454 19.15 368.454C22.02 368.454 23.735 370.694 23.735 373.319ZM13.06 373.319C13.06 377.204 15.51 380.424 19.15 380.424C22.79 380.424 25.275 377.204 25.275 373.319C25.275 369.469 22.79 366.249 19.15 366.249C15.51 366.249 13.06 369.469 13.06 373.319ZM8.99996 367.509C9.10496 369.084 9.24496 379.164 9.20996 380.599C9.20996 381.404 9.10496 382.734 8.96496 383.714L9.38496 383.924C9.45496 383.959 9.55996 383.959 9.66496 383.819C10.225 383.119 10.82 382.034 11.135 381.089C10.925 380.494 10.68 379.199 10.645 378.534C10.54 377.239 10.365 368.209 10.4 366.774C10.4 366.039 10.4 364.394 10.505 363.729C10.365 363.449 9.90996 363.064 9.31496 363.064C9.13996 363.064 8.96496 363.204 8.89496 363.414C8.68496 364.079 8.50996 365.514 8.50996 366.459L8.99996 367.509ZM16.07 355.784L16.175 358.374L3.46996 358.374L1.68496 358.304C1.36996 358.304 1.12496 358.409 1.01996 358.689C0.669958 359.634 0.21496 361.734 0.179958 362.924C0.179958 363.169 0.21496 363.274 0.354958 363.309L1.08996 363.519C1.50996 362.294 2.10496 361.174 2.83996 360.509L27.62 360.509C29.125 360.509 32.24 360.474 33.745 360.369L33.745 359.109C31.82 358.654 28.775 358.374 26.815 358.374L17.47 358.374L17.4 352.144C17.4 351.969 17.365 351.724 17.26 351.549C17.12 351.339 16.735 351.129 16.14 351.129C15.895 351.129 15.685 351.339 15.615 351.584C15.475 352.249 15.405 353.649 15.44 354.664L16.07 355.784ZM16.945 323.346C17.085 325.761 17.33 343.891 17.295 345.991C17.295 347.041 17.155 348.616 16.945 349.736L17.435 349.981C17.54 350.016 17.61 349.981 17.68 349.876C18.38 349.036 19.01 347.811 19.395 346.551C19.115 345.746 18.8 344.031 18.73 343.156C18.625 341.336 18.415 324.991 18.45 322.541C18.45 321.491 18.52 319.496 18.625 318.586C18.45 318.271 17.995 317.886 17.47 317.886C17.19 317.886 17.015 318.061 16.91 318.341C16.665 319.111 16.49 320.896 16.455 322.121L16.945 323.346ZM29.195 327.266L25.415 333.391C24.785 332.901 24.155 332.481 23.49 332.096C23.315 332.026 23.07 331.991 22.755 331.991C22.475 331.991 22.265 332.131 22.125 332.376C21.67 333.076 21.04 334.791 20.83 336.016C20.795 336.226 20.83 336.331 20.935 336.401L21.6 336.786C22.055 335.946 22.72 335.141 23.245 334.756C26.64 336.611 30.315 340.636 32.975 345.571C33.045 345.711 33.185 345.711 33.29 345.641L33.64 345.326C33.71 345.221 33.71 345.151 33.64 345.011C31.855 340.601 29.37 336.856 26.465 334.266L33.08 324.256C33.29 323.976 33.5 323.591 33.5 323.381C33.535 323.031 33.185 322.541 32.765 322.506C32.555 322.471 32.275 322.576 31.89 322.856C31.4 323.311 30.455 324.256 29.86 324.991L29.195 327.266ZM10.68 342.806C12.5 342.806 13.34 342.001 13.305 339.796L13.06 324.361C13.06 324.221 13.025 324.081 12.92 323.976C12.78 323.871 12.43 323.696 11.94 323.696C11.695 323.696 11.555 323.836 11.52 324.081C11.415 324.781 11.31 326.286 11.31 327.301L11.87 328.316C12.01 330.381 12.08 337.416 12.08 339.796C12.08 340.391 11.835 340.601 11.205 340.601L4.44996 340.601L4.27496 324.921C4.27496 324.711 4.23996 324.571 4.09996 324.431C3.92496 324.256 3.53996 324.116 3.08496 324.116C2.83996 324.116 2.66496 324.256 2.62996 324.536C2.52496 325.306 2.41996 326.741 2.45496 327.651L2.94496 328.701C3.04996 330.556 3.15496 337.836 3.11996 340.531C2.94496 341.406 2.83996 343.541 2.83996 344.486C2.83996 344.696 2.90996 344.801 3.01496 344.836L3.71496 344.976C3.92496 344.136 4.23996 343.331 4.65996 342.806L10.68 342.806ZM11.66 253.177L11.765 255.767L3.46996 255.767L1.68496 255.697C1.36995 255.697 1.12495 255.802 1.01995 256.082C0.669954 257.027 0.214955 259.127 0.179954 260.317C0.179954 260.562 0.214955 260.632 0.354954 260.667L1.12495 260.912C1.50996 259.652 2.10495 258.567 2.83995 257.902L15.335 257.902C16.63 257.902 18.94 257.902 20.095 257.762L20.095 256.467C18.835 256.012 16.7 255.767 14.565 255.767L13.06 255.767L12.955 249.537C12.955 249.362 12.92 249.117 12.815 248.942C12.71 248.732 12.29 248.522 11.695 248.522C11.485 248.522 11.24 248.732 11.17 248.977C11.03 249.642 10.96 251.042 10.995 252.057L11.66 253.177ZM21.705 258.392C21.88 261.052 21.95 266.652 21.985 269.347C21.81 270.257 21.635 271.972 21.635 272.952C21.635 273.127 21.67 273.197 21.775 273.232L22.37 273.407C22.615 272.707 23.035 272.042 23.385 271.692L32.065 271.062C32.66 271.027 33.255 270.922 33.675 270.747L33.675 269.557C33.395 269.382 33.115 269.277 32.765 269.207L32.555 256.082C32.415 255.907 32.03 255.697 31.61 255.697C31.435 255.697 31.295 255.767 31.225 255.942L30.945 256.572C28.495 256.152 25.73 255.872 23.385 255.767L22.265 255.417C22.09 255.382 21.95 255.382 21.88 255.487C21.705 255.767 21.355 256.432 21.215 256.817C21.145 256.957 21.145 257.202 21.215 257.342L21.705 258.392ZM30.98 258.287L31.155 258.987C31.295 261.262 31.4 266.267 31.4 269.137L23.35 269.312C23.245 265.812 23.105 261.647 23.14 258.112L30.98 258.287ZM4.90496 263.467C4.76496 263.362 4.62496 263.362 4.51995 263.537C4.30995 263.782 3.95996 264.482 3.81996 264.867C3.71495 265.042 3.71495 265.287 3.81996 265.427L4.37995 266.477C4.48496 268.262 4.58996 275.157 4.58996 276.417C4.58996 277.257 4.51996 278.412 4.37995 279.252L4.79996 279.497C4.86995 279.532 4.97496 279.497 5.07996 279.392C5.60496 278.692 6.12996 277.712 6.40996 276.872C6.19996 276.242 5.95496 275.017 5.91996 274.387C5.81495 273.407 5.70996 268.437 5.70996 266.582C11.065 268.927 16.91 274.072 21.355 280.827C21.46 280.967 21.53 280.932 21.635 280.827L21.985 280.477C22.02 280.407 21.985 280.302 21.95 280.197C18.135 272.602 11.73 266.162 5.88496 264.027L4.90496 263.467ZM18.03 230.503C18.275 230.258 18.555 229.978 18.625 229.768C18.765 229.418 18.555 228.858 18.17 228.718C17.96 228.613 17.68 228.683 17.26 228.858C16.63 229.173 15.475 229.908 14.74 230.468L14.075 231.903L10.155 235.998C8.61495 235.088 7.03995 234.388 5.49995 233.933C5.28995 233.898 5.04495 233.863 4.76495 233.863C4.48495 233.863 4.27495 233.968 4.13495 234.248C3.67995 234.878 2.97995 236.593 2.76995 237.748C2.73495 237.923 2.76995 238.063 2.87495 238.133L3.53995 238.483C3.99495 237.608 4.79995 236.803 5.46495 236.488C10.015 237.818 15.335 241.458 19.465 246.323C19.57 246.463 19.675 246.498 19.78 246.393L20.06 246.078C20.13 245.973 20.13 245.903 20.025 245.728C17.54 241.983 14.53 238.938 11.38 236.803L18.03 230.503ZM31.645 227.493C31.645 230.538 29.86 232.743 26.92 232.743C23.945 232.743 22.125 230.538 22.125 227.493C22.125 224.413 23.945 222.243 26.92 222.243C29.86 222.243 31.645 224.413 31.645 227.493ZM20.69 227.493C20.69 231.903 23.21 234.983 26.92 234.983C30.7 234.983 33.325 231.903 33.325 227.493C33.325 223.048 30.7 219.968 26.92 219.968C23.21 219.968 20.69 223.048 20.69 227.493ZM1.12495 225.043C1.50995 223.818 2.10495 222.698 2.83995 222.033L9.62995 222.033C9.69995 223.783 9.80495 226.653 9.80495 227.843C9.80495 228.753 9.73495 229.803 9.62995 230.678L9.97995 230.818C10.12 230.888 10.19 230.818 10.295 230.713C10.82 230.048 11.345 229.173 11.73 228.193C11.45 227.563 11.205 226.618 11.135 225.953C11.03 225.183 10.96 223.328 10.96 222.033L15.965 222.033C17.26 222.033 19.815 222.033 21.075 221.893L21.075 220.633C19.57 220.178 16.91 219.898 15.195 219.898L3.46995 219.898L1.68495 219.828C1.36995 219.828 1.12495 219.933 1.01995 220.213C0.669952 221.193 0.214954 223.258 0.179952 224.448C0.179952 224.693 0.214954 224.763 0.354952 224.833L1.12495 225.043ZM22.265 188.615C22.44 191.065 22.615 201.39 22.615 203.035C22.615 203.98 22.51 205.345 22.3 206.36L22.72 206.57C22.86 206.605 22.965 206.57 23.035 206.465C23.63 205.66 24.19 204.575 24.54 203.525C24.26 202.79 24.015 201.285 23.98 200.515C23.875 199.01 23.735 191.17 23.735 188.545L29.545 188.545C30.77 188.545 32.835 188.51 34.06 188.37L34.06 187.04C32.73 186.69 30.42 186.41 28.95 186.41L23.945 186.34L22.965 185.955C22.825 185.885 22.685 185.885 22.58 185.99C22.37 186.235 21.985 186.865 21.81 187.18C21.74 187.32 21.74 187.53 21.81 187.705L22.265 188.615ZM19.22 194.775C19.43 194.565 19.64 194.25 19.675 194.075C19.745 193.69 19.535 193.2 19.185 193.06C18.975 192.99 18.765 193.06 18.38 193.2C17.82 193.48 16.91 194.04 16.28 194.53L15.79 195.965L12.15 200.095C10.085 198.24 7.94995 196.77 5.88495 195.825L4.97495 195.16C4.79995 195.055 4.62495 195.055 4.55495 195.195C4.37995 195.51 4.02995 196.245 3.85495 196.665C3.78495 196.805 3.78495 197.015 3.85495 197.19L4.41495 198.24C4.51995 199.99 4.62495 206.955 4.62495 208.215C4.62495 209.055 4.51995 210.245 4.37995 211.085L4.76495 211.295C4.83495 211.33 4.93995 211.295 5.04495 211.19C5.56995 210.49 6.12995 209.545 6.44495 208.67C6.19995 208.075 5.95495 206.85 5.91995 206.22C5.84995 205.24 5.70995 200.375 5.70995 198.45C10.715 200.865 16.28 205.835 20.445 212.205C20.55 212.31 20.655 212.275 20.725 212.205L21.04 211.855C21.075 211.785 21.075 211.68 21.005 211.575C18.94 207.655 16.21 204.015 13.235 201.11L19.22 194.775ZM11.03 196.315C11.205 196.385 11.275 196.315 11.38 196.21C11.905 195.545 12.43 194.67 12.815 193.725C12.5 193.06 12.29 192.15 12.22 191.485C12.15 190.855 12.08 189.35 12.045 188.265L16.28 188.265C17.575 188.265 19.885 188.23 21.04 188.09L21.04 186.83C19.78 186.375 17.645 186.095 15.51 186.095L3.46995 186.095L1.68495 186.025C1.36995 186.025 1.12495 186.13 1.01995 186.445C0.669951 187.39 0.214952 189.455 0.179951 190.645C0.179951 190.89 0.214952 190.995 0.354951 191.03L1.12495 191.24C1.50995 190.015 2.10495 188.895 2.83995 188.265L10.715 188.265C10.82 189.84 10.89 192.29 10.89 193.375C10.89 194.25 10.82 195.3 10.715 196.14L11.03 196.315ZM25.59 153.131C25.73 155.546 25.975 173.676 25.94 175.776C25.94 176.826 25.8 178.401 25.59 179.521L26.045 179.766C26.185 179.801 26.255 179.766 26.325 179.661C26.99 178.821 27.655 177.596 28.04 176.336C27.76 175.531 27.41 173.816 27.34 172.941C27.235 171.121 27.06 154.776 27.06 152.326C27.06 151.276 27.13 149.281 27.235 148.371C27.095 148.056 26.64 147.671 26.08 147.671C25.835 147.671 25.625 147.846 25.555 148.126C25.31 148.896 25.1 150.681 25.065 151.906L25.59 153.131ZM11.695 154.951C7.10995 154.951 3.92495 158.731 3.92495 163.841C3.92495 168.916 7.10995 172.696 11.695 172.696C16.245 172.696 19.465 168.916 19.465 163.841C19.465 158.731 16.245 154.951 11.695 154.951ZM11.695 157.261C15.58 157.261 17.89 160.166 17.89 163.841C17.89 167.516 15.58 170.386 11.695 170.386C7.84495 170.386 5.49995 167.516 5.49995 163.841C5.49995 160.166 7.84495 157.261 11.695 157.261ZM26.3249 119.327C26.3949 120.377 26.4649 124.367 26.5349 128.742L19.9899 128.742L19.8499 119.257C19.8499 119.117 19.8149 118.942 19.6749 118.837C19.5699 118.697 19.2199 118.522 18.6599 118.522C18.4499 118.522 18.2749 118.697 18.2399 118.907C18.0999 119.572 17.9949 121.112 18.0299 122.127L18.5549 123.107C18.6949 125.452 18.7999 133.292 18.765 136.337C18.765 136.792 18.5549 137.002 18.1 137.002L12.5349 137.002L12.3249 121.007C12.1849 120.832 11.8699 120.692 11.5199 120.692C11.3449 120.692 11.2749 120.727 11.2049 120.832L10.9249 121.532C9.66495 121.217 6.96995 120.832 5.46495 120.762L4.51995 120.377C4.34495 120.307 4.16995 120.307 4.06495 120.447C3.88995 120.727 3.53995 121.322 3.36495 121.672C3.29495 121.882 3.29495 122.092 3.36495 122.232L3.92495 123.387C4.02995 126.047 4.13495 135.427 4.09995 137.387C4.09995 138.332 3.99495 139.697 3.81995 140.642L4.23995 140.852C4.34495 140.887 4.44995 140.887 4.55495 140.747C5.14995 139.977 5.67495 138.962 6.02495 137.842C5.74495 136.967 5.46495 135.532 5.42995 134.902C5.35995 133.292 5.25495 125.557 5.28995 123.247C6.47995 123.177 9.55995 123.247 10.8549 123.387L11.0649 124.087C11.1349 125.697 11.2749 134.377 11.2749 136.932C11.1699 137.772 11.0999 139.837 11.0999 140.747C11.0999 140.957 11.1699 141.062 11.2749 141.097L11.9399 141.237C12.0799 140.467 12.3949 139.732 12.7449 139.242L17.785 139.242C19.4299 139.242 20.06 138.612 20.0949 136.792L20.0949 136.757L20.0249 130.877L26.5699 130.877C26.64 135.952 26.675 140.922 26.675 141.972C26.675 143.022 26.535 144.597 26.325 145.717L26.78 145.962C26.885 145.997 26.99 145.962 27.06 145.857C27.725 145.017 28.39 143.792 28.74 142.532C28.46 141.727 28.145 140.012 28.075 139.137C27.97 137.317 27.7599 120.972 27.7949 118.522C27.7949 117.472 27.8649 115.477 27.9699 114.567C27.8299 114.252 27.3399 113.867 26.8149 113.867C26.5349 113.867 26.3599 114.042 26.2899 114.322C26.0449 115.092 25.8349 116.877 25.7999 118.102L26.3249 119.327ZM27.9349 74.7785C29.1599 74.7785 30.1049 73.7985 30.1049 72.5735C30.1049 71.3835 29.1599 70.4385 27.9349 70.4385C26.7449 70.4385 25.7649 71.3835 25.7649 72.5735C25.7649 73.7985 26.7449 74.7785 27.9349 74.7785ZM27.9349 4.77851C29.1599 4.77851 30.1049 3.79851 30.1049 2.57351C30.1049 1.38351 29.1599 0.438514 27.9349 0.438514C26.7449 0.438514 25.7649 1.38351 25.7649 2.57351C25.7649 3.79851 26.7449 4.77851 27.9349 4.77851Z" fill="#625573"/>
</svg>
