<svg width="433" height="319" viewBox="0 0 433 319" fill="none" xmlns="http://www.w3.org/2000/svg">
<path d="M181.427 127.004C191.301 135.035 211.115 143.868 219.787 147.281L220.391 146.328C229.669 141.517 245.032 131.031 232.261 127.576C219.49 124.121 189.701 100.337 175.709 88.2147C173.167 86.6052 170.112 83.3355 169.088 81.7969C162.091 71.2833 146.716 49.2035 139.919 44.1882C133.121 39.1729 129.806 46.097 128.999 50.1859C137.545 72.6915 152.743 95.1929 159.273 103.63C162.543 108.075 171.553 118.972 181.427 127.004Z" fill="#FFCA99"/>
<path d="M185.707 180.018C215.131 188.673 235.169 185.806 241.509 183.291L243.521 180.112L241.431 162.317L194.895 149.33C181.995 143.686 154.198 131.758 146.207 129.192C138.215 126.626 127.64 116.221 123.058 112.312C119.011 108.86 101.789 96.9184 100.578 97.1905L99.1691 99.4153C84.1936 91.0035 81.6587 95.8986 82.2632 99.3976C85.6222 104.64 99.5082 120.821 128.181 143.602C156.854 166.383 178.478 177.372 185.707 180.018Z" fill="#FFCA99"/>
<path d="M383.541 140.834C383.363 143.927 375.246 138.7 371.21 135.699L369.419 135.012C367.311 134.122 364.726 131.595 371.25 128.603C377.775 125.61 386.091 125.087 389.255 125.012C391.772 125.537 390.123 126.452 389.162 127.031L379.927 129.198L391.87 129.787C394.319 130.981 392.606 131.44 391.607 131.846L380.202 132.043L389.524 133.492C390.467 133.644 392.462 134.195 392.903 135.186C393.344 136.178 391.781 136.257 390.944 136.172L379.546 135.189L388.465 137.274C391.008 138.884 389.452 139.235 388.202 139.334L378.773 137.816L383.541 140.834Z" fill="#FFCA99"/>
<path d="M385.504 194.106C385.185 191.024 377.316 196.617 373.421 199.799L371.663 200.568C369.598 201.553 367.131 204.195 373.786 206.887C380.44 209.578 388.772 209.72 391.936 209.65C394.426 209.011 392.737 208.172 391.751 207.638L382.427 205.895L394.329 204.761C396.721 203.455 394.989 203.075 393.972 202.715L382.571 203.04L391.817 201.166C392.752 200.972 394.72 200.33 395.115 199.319C395.51 198.309 393.945 198.302 393.113 198.425L381.772 199.928L390.586 197.437C393.053 195.713 391.482 195.433 390.229 195.391L380.88 197.339L385.504 194.106Z" fill="#FFCA99"/>
<path d="M241.733 130.899C244.649 134.169 248.245 135.615 249.679 135.929L252.539 137.739C249.883 153.42 243.438 183.816 239.032 184.392C234.663 184.962 218.299 189.175 213.166 189.386C203.658 189.778 194.395 185.517 191.63 183.321L182.912 180.918C177.095 173.229 181.626 161.852 184.113 152.297C186.103 144.653 188.564 143.391 189.546 143.715C195.622 146.494 198.659 146.665 199.418 146.404C202.003 146.259 201.971 144.013 201.632 142.908C196.504 141.443 193.139 138.274 192.097 136.872C191.113 130.551 201.57 116.751 206.922 110.642C212.635 115.682 220.121 117.217 223.151 117.355C234.837 120.835 240.408 127.834 241.733 130.899Z" fill="#4D4B4C"/>
<path d="M96.6867 87.1581C93.2204 85.32 73.8516 85.0197 64.4841 84.5802C57.5036 85.0583 35.289 83.1529 29.2523 81.8651C23.2637 80.5876 20.2788 79.4382 17.6629 83.5696C15.5151 86.9616 18.4505 88.3827 23.4306 95.9872C25.7026 100.275 22.0766 104.924 18.9838 106.528C13.1849 109.535 8.56258 115.957 13.562 120.013C17.9279 123.554 29.25 121.485 33.7307 121.206C60.1276 120.999 88.1545 114.701 95.5053 112.231C102.856 109.762 106.965 102.568 107.589 98.0664C108.213 93.5643 101.02 89.4559 96.6867 87.1581Z" fill="#4D4B4C"/>
<path d="M145.81 46.1333C149.325 39.4549 144.293 34.9336 141.337 33.5077C130.424 28.243 125.276 25.123 107.672 21.9898C81.5296 17.3373 64.9296 19.4175 59.9512 20.718C56.53 21.6685 51.6009 25.0478 59.2542 30.9612C68.8209 38.3529 59.6272 42.327 52.2559 48.3452C46.3589 53.1597 51.6008 55.9438 54.9588 56.734C61.9498 55.8174 74.7913 54.0041 80.3381 53.2121C88.8436 51.0282 126.787 53.6792 130.971 54.1021C135.155 54.5249 141.416 54.4812 145.81 46.1333Z" fill="#4D4B4C"/>
<path d="M323.865 117.897C343.499 115.011 361.579 121.144 368.165 124.572C372.352 126.396 373.088 127.344 372.932 127.59C372.915 128.32 372.876 130.492 372.859 133.331C372.843 136.17 372.436 137.515 372.235 137.833L365.858 137.357C355.816 136.343 347.268 136.719 344.249 137.033C329.453 136.215 311.264 141.083 304.019 143.62C283.326 147.615 282.21 164.241 284.238 172.055C288.243 178.152 299.638 191.33 313.172 195.268C330.089 200.19 362.63 199.421 368.021 197.936C372.334 196.749 373.857 197.625 374.08 198.211C374.14 199.288 374.407 202.335 374.993 205.911C375.578 209.487 374.206 210.904 373.447 211.166L366.181 212.798C336.13 217.37 315.644 215.976 301.502 213.701C290.189 211.882 269.965 199.524 261.267 193.573C255.962 195.201 248.902 194.352 246.035 193.724C238.926 193.141 237.564 189.994 237.772 188.493C235.801 165.164 246.766 140.764 252.495 131.48C258.215 129.759 270.923 132.61 276.562 134.251C297.999 122.891 299.322 121.503 323.865 117.897Z" fill="#FFFFFD"/>
<path d="M327.401 164.346C324.959 156.39 311.713 146.699 305.396 142.848C300.709 142.374 297.811 143.108 296.717 143.899C282.32 145.826 279.543 160.48 279.954 167.566C285.802 172.159 299.339 181.53 306.703 182.274C315.909 183.204 322.74 180.851 325.621 179.114C327.926 177.723 328.593 175.356 328.639 174.346C328.639 174.346 328.253 166.518 327.401 164.346Z" fill="#FFCA99"/>
<path fill-rule="evenodd" clip-rule="evenodd" d="M305.055 140.85C289.534 128.799 263.376 115.679 220.064 110.961C203.994 111.027 204.011 129.291 209.349 140.546C211.207 148.479 209.933 155.176 208.917 160.514C207.37 168.65 206.423 173.628 218.077 175.009L253.72 168.635C267.838 168.358 277.272 170.38 283.496 172.566C287.99 175.198 293.202 177.563 296.544 178.905L297.751 176.997C299.844 173.692 301.962 169.423 302.759 167.701L298.577 164.608L303.363 166.748C303.917 165.318 307.126 159.187 308.661 156.3C307.267 155.269 304.527 152.838 305.194 152.769C305.543 152.734 308.146 154.341 309.264 155.346C310.892 153.883 313.177 150.551 314.116 149.067C313.553 146.469 308.809 143.098 305.037 140.872L305.055 140.85Z" fill="#4D4B4C"/>
<path d="M315.285 149.998L314.532 149.083C310.926 148.682 293.709 176.858 296.657 178.725C297.165 179.047 298.274 179.452 298.765 179.614C298.215 178.369 297.781 177.648 300.162 172.485C301.614 169.336 306.855 159.798 309.502 157.028C311.373 155.07 313.855 151.319 315.285 149.998Z" fill="#4D4B4C"/>
<path d="M314.57 177.152C316.72 171.07 318.042 169.876 320.893 166.268L321.811 164.818L314.707 167.089L313.255 170.087L314.57 177.152Z" fill="#4D4B4C"/>
<path d="M310.711 155.116C314.905 149.64 316.784 149.711 321.464 152.572C326.461 155.624 327.068 156.121 324.112 160.787C322.497 163.338 322.018 165.841 315.399 166.701C314.07 166.873 312.926 168.226 313.456 169.77C315.411 175.46 314.666 175.888 310.429 182.402C308.187 185.849 301.543 182.262 299.402 180.016C298.035 178.583 300.451 171.459 300.853 170.689C303.735 165.17 305.581 161.814 310.711 155.116Z" fill="#ACCFD7" fill-opacity="0.6"/>
<path d="M311.315 154.163C315.509 148.687 315.832 149.101 320.512 151.963C325.509 155.015 327.067 156.121 324.112 160.787C322.497 163.338 322.018 165.841 315.398 166.701C314.069 166.873 312.925 168.226 313.455 169.77C315.411 175.46 314.666 175.888 310.429 182.402C308.187 185.849 300.591 181.652 298.449 179.407C297.083 177.973 301.055 170.505 301.457 169.735C304.338 164.216 306.185 160.86 311.315 154.163Z" stroke="#8C90B1" stroke-width="2.67699"/>
<path d="M317.019 191.42C318.449 190.109 321.832 184.288 323.344 181.541L323.344 181.541C324.85 181.066 326.959 180.402 326.192 182.555C325.234 185.246 318.433 195.336 317.125 195.628C315.818 195.921 286.496 190.409 284.008 188.386C282.017 186.767 283.977 185.468 285.206 185.021C294.58 187.98 315.233 193.059 317.019 191.42Z" fill="#4D4B4C" stroke="#4D4B4C" stroke-width="0.535398"/>
<path d="M281.585 189.353C280.209 187.553 281.958 183.433 283.164 183.545L292.93 186.201C293.781 188.214 292.871 190.912 291.351 192.009L281.585 189.353Z" fill="#8C90B1"/>
<path d="M312.506 190.717C313.653 190.859 316.043 191.098 316.428 190.915C316.812 190.733 317.97 189.202 318.501 188.459C319.738 186.105 320.109 185.438 320.345 185.522C320.581 185.606 321.383 185.972 322.699 186.76C324.016 187.548 324.261 187.981 324.219 188.099C323.73 188.724 322.359 190.631 320.782 193.264C319.206 195.897 317.783 196.455 317.268 196.405L311.929 195.702C310.915 194.063 311.891 191.696 312.506 190.717Z" fill="#8C90B1"/>
<path d="M325.261 171.283C324.69 170.893 323.469 170.322 322.711 170.878C321.73 171.598 319.718 173.945 319.802 175.473C319.869 176.695 320.717 177.348 321.133 177.522C321.139 177.515 321.144 177.508 321.15 177.501C320.973 178.771 321.248 179.015 321.724 179.907C321.781 180.013 321.886 180.149 322.03 180.309C321.706 180.673 321.345 181.166 321.406 181.449C321.505 181.914 322.83 183.557 325.075 184.576C325.705 184.975 327.033 185.495 327.497 184.53C327.778 184.678 327.994 184.761 328.114 184.757C328.919 184.73 330.932 184.664 332.949 182.723C334.966 180.782 335.681 178.821 335.52 176.171C335.39 174.052 334.96 173.181 334.762 173.01C333.824 172.416 331.537 171.049 329.89 170.329C328.402 169.677 326.351 170.593 325.261 171.283Z" fill="#4D4B4C"/>
</svg>
