<svg width="383" height="432" viewBox="0 0 383 432" fill="none" xmlns="http://www.w3.org/2000/svg">
<path d="M221.537 197.712C215.601 208.971 200.835 224.863 194.194 231.402L193.265 230.761C182.844 229.972 164.599 226.347 174.995 218.163C185.39 209.979 203.472 176.422 211.593 159.785C213.301 157.308 214.83 153.102 215.169 151.286C217.485 138.871 222.976 112.531 227.263 105.253C231.551 97.9748 237.314 103.046 239.66 106.491C240.619 130.545 235.457 157.203 232.757 167.525C231.49 172.896 227.473 186.453 221.537 197.712Z" fill="#FFCA99"/>
<path d="M238.381 248.163C214.703 267.658 195.145 272.875 188.326 273.046L185.229 270.911L180.177 253.72L217.899 223.531C227.554 213.284 248.452 191.415 254.798 185.922C261.144 180.428 266.795 166.711 269.478 161.319C271.848 156.557 283.012 138.82 284.233 138.596L286.4 140.09C296.88 126.482 301.131 129.992 301.946 133.448C300.911 139.587 294.478 159.916 277.029 192.113C259.58 224.31 243.993 242.895 238.381 248.163Z" fill="#FFCA99"/>
<path d="M41.0171 289.656C42.3926 292.432 47.8113 284.441 50.3487 280.098L51.7265 278.764C53.3173 277.119 54.7051 273.781 47.5297 273.585C40.3543 273.39 32.498 276.168 29.558 277.339C27.4482 278.809 29.3242 279.004 30.4347 279.16L39.7802 277.534L29.0245 282.757C27.2393 284.816 28.9952 284.566 30.0737 284.548L40.6427 280.259L32.6348 285.246C31.8269 285.755 30.2068 287.045 30.1898 288.13C30.1728 289.214 31.6421 288.674 32.3788 288.268L42.4794 282.896L35.0909 288.311C33.3827 290.788 34.9518 290.501 36.1406 290.103L44.2201 285.011L41.0171 289.656Z" fill="#FFCA99"/>
<path d="M60.0922 339.435C59.1774 336.475 68.6096 338.536 73.4401 339.937L75.3581 339.956C77.6442 340.052 80.9494 341.516 75.8822 346.6C70.815 351.685 63.2054 355.081 60.2673 356.257C57.7257 356.645 58.9515 355.211 59.6487 354.333L67.544 349.075L56.1491 352.697C53.4369 352.434 54.8816 351.405 55.6758 350.675L66.2925 346.505L57.0519 348.405C56.1156 348.593 54.0531 348.774 53.2936 347.999C52.534 347.224 53.9714 346.604 54.785 346.391L65.8077 343.328L56.722 344.492C53.7773 343.873 55.1124 343 56.2489 342.47L65.6136 340.597L60.0922 339.435Z" fill="#FFCA99"/>
<path d="M167.584 224.934C166.183 229.085 163.442 231.825 162.246 232.676L160.324 235.462C168.914 248.848 186.757 274.285 191.036 273.088C195.279 271.9 211.985 269.361 216.79 267.544C225.691 264.178 232.542 256.626 234.225 253.523L241.304 247.895C243.642 238.541 235.014 229.85 228.98 222.035C224.153 215.782 221.395 215.586 220.619 216.269C216.118 221.207 213.391 222.555 212.59 222.612C210.156 223.492 209.305 221.413 209.184 220.264C213.326 216.906 215.18 212.671 215.589 210.974C214.017 204.772 198.988 196.176 191.67 192.653C188.39 199.529 182.104 203.876 179.371 205.19C169.983 212.972 167.602 221.595 167.584 224.934Z" fill="#4D4B4C"/>
<path d="M283.878 127.84C286.346 124.79 304.047 116.922 312.493 112.846C319.102 110.55 338.793 100.09 343.842 96.5388C348.85 93.0163 351.146 90.7888 355.172 93.5643C358.477 95.8431 356.334 98.301 354.733 107.249C354.323 112.084 359.481 114.94 362.955 115.203C369.469 115.696 376.239 119.794 373.229 125.484C370.6 130.453 359.373 132.988 355.141 134.487C330.776 144.643 302.523 149.835 294.792 150.444C287.062 151.053 280.462 146.046 278.124 142.149C275.785 138.251 280.792 131.652 283.878 127.84Z" fill="#4D4B4C"/>
<path d="M222.606 109.353C216.754 104.587 219.612 98.4547 221.772 95.9845C229.748 86.8635 233.261 81.9754 248.229 72.1926C270.456 57.6657 286.543 53.0728 291.633 52.3179C295.153 51.8514 301.012 53.0283 296.289 61.4683C290.385 72.0183 300.401 72.0709 309.541 74.7182C316.853 76.8361 313.122 81.452 310.343 83.4952C303.552 85.3921 291.027 88.7573 285.614 90.2028C276.933 91.5275 243.064 108.839 239.381 110.868C235.697 112.897 229.921 115.31 222.606 109.353Z" fill="#4D4B4C"/>
<path d="M86.9276 245.165C67.7338 250.206 53.5043 262.935 48.7888 268.669C45.6518 271.989 45.3465 273.149 45.5859 273.314C45.8885 273.98 46.7756 275.962 47.9034 278.567C49.0312 281.173 49.9325 282.251 50.2421 282.465L55.9224 279.528C64.7632 274.658 72.7747 271.653 75.6754 270.76C88.9665 264.207 107.608 261.557 115.268 261.051C135.871 256.616 143.415 271.473 144.611 279.457C143.316 286.636 137.999 303.226 127.092 312.153C113.457 323.312 83.2191 335.359 77.6774 336.107C73.2441 336.705 72.1857 338.108 72.2107 338.734C72.5773 339.749 73.5265 342.657 74.3895 346.176C75.2525 349.696 77.0699 350.462 77.8708 350.405L85.1956 349.059C114.633 341.486 132.934 332.173 145.053 324.538C154.748 318.429 168.51 299.134 174.179 290.249C179.697 289.668 185.86 286.12 188.251 284.418C194.563 281.095 194.582 277.666 193.803 276.367C186.472 254.132 166.82 235.982 157.911 229.687C151.974 230.345 141.4 237.949 136.856 241.669C112.681 239.621 110.92 238.863 86.9276 245.165Z" fill="#FFFFFD"/>
<path d="M101.879 289.284C101.007 281.007 109.394 266.9 113.697 260.881C117.823 258.608 120.777 258.147 122.094 258.446C136.094 254.576 144.393 266.969 146.792 273.649C143.212 280.166 134.431 294.093 127.948 297.665C119.844 302.129 112.636 302.642 109.305 302.172C106.64 301.796 105.098 299.88 104.66 298.969C104.66 298.969 101.947 291.615 101.879 289.284Z" fill="#FFCA99"/>
<path fill-rule="evenodd" clip-rule="evenodd" d="M113.23 258.907C122.786 241.737 141.708 219.414 179.705 198.096C194.515 191.858 201.658 208.667 201.159 221.114C202.559 229.14 206.356 234.802 209.382 239.315C213.995 246.193 216.817 250.402 206.637 256.24L171.348 264.348C158.251 269.626 150.365 275.184 145.495 279.635C142.393 283.817 138.524 288.036 135.976 290.58L134.118 289.299C130.897 287.078 127.275 283.98 125.867 282.709L128.502 278.225L124.938 282.069C123.867 280.97 118.512 276.588 115.968 274.533C116.847 273.039 118.415 269.728 117.774 269.927C117.439 270.031 115.674 272.53 115.039 273.893C112.968 273.185 109.56 271.015 108.114 270.018C107.614 267.407 110.657 262.446 113.255 258.919L113.23 258.907Z" fill="#4D4B4C"/>
<path d="M107.402 271.334L107.736 270.197C110.896 268.415 137.78 287.588 135.799 290.461C135.457 290.956 134.596 291.764 134.208 292.105C134.226 290.744 134.343 289.911 130.129 286.095C127.558 283.767 118.998 277.046 115.478 275.535C112.989 274.468 109.235 271.989 107.402 271.334Z" fill="#4D4B4C"/>
<path d="M118.704 296.037C114.341 291.285 112.658 290.705 108.62 288.503L107.208 287.529L114.633 286.834L117.144 289.022L118.704 296.037Z" fill="#4D4B4C"/>
<path d="M113.617 274.251C107.612 270.857 105.911 271.658 102.727 276.125C99.3266 280.891 98.9628 281.586 103.511 284.721C105.997 286.435 107.419 288.55 113.845 286.746C115.135 286.384 116.718 287.18 116.835 288.808C117.267 294.809 118.12 294.911 124.571 299.243C127.985 301.535 132.692 295.631 133.781 292.726C134.477 290.871 129.461 285.265 128.79 284.714C123.976 280.766 120.962 278.402 113.617 274.251Z" fill="#ACCFD7" fill-opacity="0.6"/>
<path d="M112.688 273.61C106.683 270.216 106.548 270.725 103.364 275.192C99.9637 279.958 98.9633 281.586 103.511 284.721C105.997 286.435 107.419 288.55 113.845 286.746C115.136 286.384 116.719 287.18 116.836 288.808C117.267 294.809 118.121 294.911 124.572 299.243C127.985 301.536 133.329 294.697 134.418 291.792C135.114 289.937 128.532 284.624 127.861 284.073C123.046 280.125 120.033 277.761 112.688 273.61Z" stroke="#8C90B1" stroke-width="2.67699"/>
<path d="M122.043 310.121C120.214 309.475 114.82 305.445 112.352 303.511L112.351 303.511C110.78 303.665 108.58 303.88 110.129 305.56C112.066 307.661 122.277 314.277 123.595 314.034C124.913 313.79 149.727 297.226 151.224 294.39C152.42 292.12 150.108 291.694 148.803 291.764C141.338 298.161 124.329 310.928 122.043 310.121Z" fill="#4D4B4C" stroke="#4D4B4C" stroke-width="0.535398"/>
<path d="M153.832 294.328C154.392 292.134 151.167 289.029 150.103 289.605L142.159 295.876C142.165 298.062 144.059 300.186 145.888 300.6L153.832 294.328Z" fill="#8C90B1"/>
<path d="M125.92 307.703C124.921 308.284 122.815 309.441 122.39 309.423C121.965 309.406 120.3 308.451 119.52 307.976C117.459 306.295 116.857 305.827 116.672 305.997C116.488 306.167 115.894 306.817 114.992 308.058C114.089 309.299 114.034 309.794 114.119 309.886C114.813 310.269 116.822 311.487 119.304 313.291C121.787 315.096 123.315 315.051 123.768 314.803L128.405 312.063C128.696 310.158 126.87 308.363 125.92 307.703Z" fill="#8C90B1"/>
<path d="M106.567 294.825C106.94 294.243 107.84 293.239 108.755 293.453C109.94 293.731 112.71 295.102 113.232 296.54C113.649 297.691 113.125 298.624 112.811 298.947C112.803 298.942 112.795 298.938 112.786 298.934C113.448 300.033 113.29 300.366 113.202 301.373C113.191 301.493 113.148 301.659 113.078 301.863C113.519 302.07 114.044 302.383 114.099 302.666C114.19 303.133 113.615 305.164 111.949 306.982C111.526 307.596 110.508 308.594 109.703 307.889C109.502 308.135 109.336 308.296 109.224 308.339C108.473 308.63 106.595 309.358 103.979 308.363C101.362 307.368 99.9358 305.845 99.046 303.343C98.3342 301.342 98.3881 300.373 98.5041 300.138C99.1342 299.224 100.703 297.07 101.935 295.762C103.049 294.579 105.295 294.617 106.567 294.825Z" fill="#4D4B4C"/>
</svg>
