<svg width="1920" height="1080" viewBox="0 0 1920 1080" fill="none" xmlns="http://www.w3.org/2000/svg">
<path fill-rule="evenodd" clip-rule="evenodd" d="M586.22 486.629C585.316 484.445 589.868 480.366 599.479 478.032C607.883 475.991 616.19 480.3 621.137 483.572C622.925 481.434 625.275 478.988 627.076 478.179C628.107 477.715 627.967 478.762 627.707 480.69C627.313 483.617 626.645 488.576 629.395 493.359C629.123 494.386 627.174 494.645 621.651 488.802C616.779 491.246 611.729 492.173 603.195 492.173C599.017 492.173 590.19 490.598 586.22 486.629Z" fill="#523E52" fill-opacity="0.55"/>
<path fill-rule="evenodd" clip-rule="evenodd" d="M511 456.608C511.547 454.582 513.293 451.733 519.334 450.259C524.331 449.04 529.272 451.408 532.424 453.417C533.364 452.139 534.513 450.791 535.413 450.316C535.984 450.015 535.901 450.768 535.756 452.082C535.65 453.038 535.512 454.29 535.569 455.649C535.588 455.663 535.607 455.676 535.624 455.688C535.607 455.699 535.59 455.71 535.573 455.721C535.64 457.146 535.924 458.683 536.687 460.116C536.542 460.761 535.527 460.937 532.687 457.489C529.798 459.082 526.694 460.109 521.67 460.109C519.044 460.109 513.495 459.114 511 456.608Z" fill="#523E52" fill-opacity="0.55"/>
<path fill-rule="evenodd" clip-rule="evenodd" d="M633.279 424.64C634.696 422.743 636.379 420.808 637.709 420.106C638.58 419.646 638.452 420.718 638.22 422.653C637.864 425.632 637.263 430.655 639.684 435.286C639.442 436.359 637.641 436.594 632.439 429.905C627.928 432.412 623.105 434.031 615.25 434.031C611.182 434.031 605.228 432.408 601.363 428.527C603.124 425.593 606.938 422.365 612.805 420.899C621.864 418.635 629.089 421.971 633.279 424.64Z" fill="#523E52" fill-opacity="0.55"/>
</svg>
