<svg width="228" height="148" viewBox="0 0 228 148" fill="none" xmlns="http://www.w3.org/2000/svg">
<path d="M146.136 39.0647C146.136 49.5068 135.259 53.8094 129.82 54.6554C128.734 54.6554 129.093 55.7431 127.281 57.1934C125.83 58.3536 126.435 58.8854 126.918 59.0062C130.399 59.5864 133.928 58.0394 135.257 57.1934C140.478 52.5524 145.651 53.0842 147.585 53.9302C155.706 55.4167 158.462 52.4799 160.275 51.0296C163.901 47.4038 164.988 45.2284 170.427 39.0647C175.866 32.901 180.216 30.3628 185.293 28.9125C190.369 27.4622 193.994 26.7371 200.521 31.4505C205.742 35.2213 206.08 40.9983 205.597 43.4155C203.059 46.6787 201.246 44.5032 201.608 43.4155C201.898 42.5453 201.488 39.9106 201.246 38.702C200.158 35.0763 197.62 33.626 193.994 32.9008C191.094 32.3207 187.468 33.1426 186.018 33.626C180.216 37.9769 176.953 41.2401 175.503 48.8541C174.053 56.4682 169.702 60.8191 167.526 62.9946C165.351 65.17 161 66.6203 164.263 67.3455C167.526 68.0706 178.041 74.597 185.293 77.8601C192.544 81.1233 204.509 79.3104 211.035 78.5853C216.256 78.0052 219.254 74.2344 220.1 72.4215C221.067 70.8503 223.509 67.9256 225.539 68.7958C227.569 69.6659 227.352 72.3007 226.989 73.5092C223.364 81.4859 223.364 81.1233 217.925 86.1994C212.486 91.2754 202.334 93.8134 200.159 93.8134C197.983 93.8134 186.743 93.8134 179.492 88.3748C173.692 84.0239 165.231 81.7276 161.726 81.1233C154.112 78.9479 146.86 81.8485 144.322 82.211C141.784 82.5736 134.895 85.4742 138.158 87.6497C141.422 89.8251 145.773 93.4509 147.585 95.9889C149.036 98.0193 152.057 98.5269 153.387 98.5269C168.252 99.9772 175.142 101.79 179.492 105.778C183.843 109.767 190.007 116.656 187.832 127.895C185.656 139.135 181.305 140.948 177.317 143.849C173.329 146.749 170.428 148.562 166.44 146.387C163.249 144.646 164.627 143.728 165.715 143.486C169.195 143.486 171.758 142.278 172.604 141.673C173.692 141.311 184.206 132.609 177.68 122.094C171.153 111.58 168.978 112.667 163.902 111.217C158.826 109.767 147.586 113.03 142.873 111.942C138.159 110.854 135.259 105.778 133.083 104.328C131.343 103.168 128.007 99.9772 126.557 98.5269C124.381 94.2969 119.958 88.8824 119.668 101.065C119.305 116.293 119.668 123.182 116.405 134.784C113.794 144.066 106.132 146.387 102.627 146.387C89.9367 144.936 90.6619 144.211 84.4981 139.135C78.3343 134.059 76.5214 123.545 78.3343 120.281L78.391 120.179C80.1552 117.003 80.5517 116.289 84.4981 115.931C88.4864 115.568 88.4864 118.469 88.1238 122.457C87.7613 126.445 86.6735 131.521 91.387 133.697C96.1005 135.872 98.6385 132.246 101.177 130.071C103.715 127.895 102.264 122.094 102.627 117.743C102.917 114.263 99.6054 107.35 97.9134 104.328C93.8525 95.6263 90.4202 93.4509 89.2116 93.4509C86.7944 93.2091 81.67 93.7409 80.5098 97.8018C79.3495 101.863 77.6092 105.053 76.884 106.141C70.3577 113.755 64.1939 113.755 63.4688 114.118C62.7436 114.48 55.4921 115.205 47.878 111.217C41.7868 108.026 36.3965 107.229 34.4628 107.229C31.3204 106.624 24.0931 105.996 20.3223 108.316C15.6089 111.217 16.334 114.118 16.334 115.931C16.334 117.743 19.9597 122.094 23.9481 122.457C27.1387 122.747 26.4861 124.511 25.761 125.357C23.1504 127.678 20.3223 126.808 19.2346 126.083C11.9831 120.281 9.80765 118.469 8.71992 111.942C7.84975 106.721 10.2911 101.79 11.6205 99.9772C13.1917 97.6809 17.4217 93.0883 21.7726 93.0883C27.2112 93.0883 31.1996 94.5386 36.6382 95.9889C42.0768 97.4392 48.9657 96.714 50.0535 96.714C51.1412 96.714 55.1295 95.2637 59.4804 92.0006C63.8313 88.7374 64.919 86.1994 64.919 84.7491C64.919 83.5888 62.5019 84.0239 61.2933 84.3865C47.878 85.8368 48.2406 86.5619 32.6499 85.4742C17.0592 84.3865 14.1586 82.211 11.6205 80.7607C9.0825 79.3104 1.83102 71.6964 1.46844 65.5326C1.10588 59.3688 1.10585 57.1934 3.64388 52.8425C5.6743 49.3617 8.84079 48.7333 10.1702 48.8541C11.7414 49.0959 15.3188 50.2319 17.0592 52.8425C19.2346 56.1056 17.0592 59.0062 15.2463 57.1934C13.796 55.7431 11.4997 55.3805 10.5328 55.3805C9.44508 55.0179 6.90706 57.9185 6.90706 60.4565C6.90706 62.9946 7.26962 65.5326 11.6205 69.8835C15.9714 74.2344 15.2463 72.7841 22.4978 73.5092C29.7493 74.2344 32.2873 71.6964 45.7026 66.6203C59.1178 61.5443 75.7963 58.6437 81.9601 56.1056C88.1238 53.5676 88.4864 49.9419 88.849 45.9535C89.2116 41.9652 86.311 31.4505 91.7496 19.123C96.1005 9.26096 103.715 3.65318 106.978 2.08204C112.175 0.510884 124.019 -1.68874 129.82 2.08204C137.071 6.79552 141.422 12.9593 143.235 17.3102C145.048 21.6611 146.136 26.012 146.136 39.0647Z" fill="url(#paint0_linear_132_2683)"/>
<path d="M202.613 43.1468C203.483 42.2766 202.975 41.0922 202.613 40.6088C202.323 40.3187 201.767 40.4879 201.525 40.6088C200.945 40.6088 201.042 42.0591 201.163 42.7842C201.284 43.2676 201.743 44.017 202.613 43.1468Z" fill="#FFC5C5"/>
<path d="M202.251 38.4332C202.541 37.273 201.646 36.4995 201.163 36.2578C199.35 35.8952 199.713 37.7081 199.713 38.0706C199.713 38.3607 200.438 38.4332 200.8 38.4332C201.163 38.9166 201.961 39.5934 202.251 38.4332Z" fill="#FFC5C5"/>
<path d="M199.35 34.8072C199.93 33.6468 198.625 32.8734 197.9 32.6318C197.03 32.3417 196.812 32.9944 196.812 33.3569C197.416 34.3239 198.77 35.9676 199.35 34.8072Z" fill="#FFC5C5"/>
<path d="M192.824 31.9066C193.694 31.3264 194.395 32.1483 194.637 32.6318C194.823 32.9218 194.473 33.4778 194.274 33.7196C193.911 34.4448 191.736 32.6318 192.824 31.9066Z" fill="#FFC5C5"/>
<path d="M189.56 34.0822C188.69 33.5021 189.198 32.6319 189.56 32.2693C190.721 31.6892 191.253 32.511 191.373 32.9945C191.736 33.357 190.648 34.8072 189.56 34.0822Z" fill="#FFC5C5"/>
<path d="M187.385 34.4448C187.965 33.2845 187.143 32.7527 186.66 32.6318C186.151 32.3839 184.847 32.9945 185.572 34.0822C186.152 34.9524 187.022 34.6865 187.385 34.4448Z" fill="#FFC5C5"/>
<path d="M183.759 35.8951C183.759 35.3149 183.276 34.9281 183.034 34.8072C182.672 34.5655 181.874 34.2997 181.584 35.1699C181.221 36.2576 181.584 36.6202 182.309 36.9828C183.034 37.3454 183.759 36.6202 183.759 35.8951Z" fill="#FFC5C5"/>
<path d="M179.408 40.246C179.989 40.536 180.859 39.6417 181.221 39.1582C181.221 37.3454 179.771 36.9828 179.046 38.0706C178.321 39.1585 178.683 39.8834 179.408 40.246Z" fill="#FFC5C5"/>
<path d="M177.958 44.2343C178.538 44.2343 178.925 42.784 179.046 42.0588C179.046 41.1885 178.562 40.971 178.321 40.9711C176.695 41.6963 177.233 44.2343 177.958 44.2343Z" fill="#FFC5C5"/>
<path d="M176.508 48.9478C177.378 48.9478 177.596 47.4975 177.596 46.7723C177.611 46.4097 176.87 44.5969 176.145 46.0472C175.42 47.4975 175.42 48.9478 176.508 48.9478Z" fill="#FFC5C5"/>
<path d="M174.332 53.2987C174.912 53.0086 175.057 52.2109 175.057 51.8484C175.057 50.7606 173.97 50.3981 173.607 50.3981C173.245 50.3981 172.157 50.3981 172.157 51.8484C172.157 53.2987 173.607 53.6612 174.332 53.2987Z" fill="#FFC5C5"/>
<path d="M173.607 56.9244C174.187 56.0542 173.365 55.1115 172.882 54.7489C172.49 54.3864 170.707 54.0238 170.344 54.7489C169.981 55.4741 170.707 56.9244 171.432 57.6495C172.157 58.3747 172.882 58.0121 173.607 56.9244Z" fill="#FFC5C5"/>
<path d="M168.531 60.9127C169.401 60.9127 170.344 59.9459 170.707 59.4624C170.707 58.0121 170.344 58.0121 169.981 57.6495C169.619 57.287 167.806 57.6495 167.443 58.3747C167.081 59.0998 167.443 60.9127 168.531 60.9127Z" fill="#FFC5C5"/>
<path d="M166.718 61.6379C167.879 62.5081 166.96 63.4507 166.356 63.8133C164.543 64.5385 164.543 62.7256 164.905 62.363C165.268 62.0004 165.268 60.5501 166.718 61.6379Z" fill="#FFC5C5"/>
<path d="M164.18 65.6262C163.89 66.2063 162.609 66.3513 162.005 66.3513C160.555 66.3513 161.28 64.901 161.28 64.5385C161.28 64.1759 162.367 63.8133 163.093 63.8133C163.818 63.8133 164.543 64.901 164.18 65.6262Z" fill="#FFC5C5"/>
<path d="M159.829 67.0765C160.119 65.6262 158.742 65.2636 158.016 65.2636C156.566 65.2636 156.687 66.4722 156.929 67.0765C157.775 67.6808 159.539 68.5268 159.829 67.0765Z" fill="#FFC5C5"/>
<path d="M227.631 74.328C228.211 73.7479 227.873 72.8777 227.631 72.5151C225.455 71.4274 224.73 73.2403 225.093 73.9654C225.456 74.6906 226.906 75.0531 227.631 74.328Z" fill="#FFC5C5"/>
<path d="M224.005 79.7666C224.876 80.0567 225.335 78.9206 225.456 78.3163C225.553 77.9537 225.093 77.2286 224.005 76.866C222.918 76.5034 221.467 76.1409 221.83 77.5912C222.192 79.0415 222.918 79.404 224.005 79.7666Z" fill="#FFC5C5"/>
<path d="M222.918 81.9421C223.208 83.1023 222.072 83.6341 221.467 83.7549C220.017 83.3924 220.38 82.6672 220.017 81.9421C219.654 81.2169 220.742 80.1292 221.467 80.1292C222.192 80.1292 222.555 80.4918 222.918 81.9421Z" fill="#FFC5C5"/>
<path d="M218.204 84.8427C218.784 84.8427 219.654 86.0513 220.017 86.6555C220.017 87.7433 219.654 88.1058 218.567 88.1058C217.479 88.1058 217.479 87.3807 217.116 86.6555C216.754 85.9304 217.479 84.8427 218.204 84.8427Z" fill="#FFC5C5"/>
<path d="M215.666 89.1936C215.666 88.0333 214.699 87.2598 214.216 87.0181C213.491 87.0181 212.766 86.6555 212.766 88.4684C212.766 89.9187 213.732 90.523 214.216 90.6439C214.699 90.6439 215.666 90.3538 215.666 89.1936Z" fill="#FFC5C5"/>
<path d="M210.953 90.2813C210.953 89.7012 209.744 89.5561 209.14 89.5561C208.415 89.4992 206.964 90.6439 207.689 91.7316C208.415 92.8193 209.14 92.8193 210.227 92.4567C211.315 92.0942 210.953 91.0064 210.953 90.2813Z" fill="#FFC5C5"/>
<path d="M205.514 92.8193C205.804 91.9491 204.668 91.2482 204.064 91.0064C203.701 90.8351 201.888 91.0064 201.888 92.4567C201.888 93.907 202.613 94.2696 203.701 94.2696C204.789 94.2696 205.151 93.907 205.514 92.8193Z" fill="#FFC5C5"/>
<path d="M199.35 93.5445C199.35 92.3842 198.625 91.8524 198.263 91.7316C196.45 91.7316 195.362 92.4567 195.362 93.5445C195.362 94.6322 196.087 94.9948 197.175 94.9948C198.263 94.9948 199.35 94.9948 199.35 93.5445Z" fill="#FFC5C5"/>
<path d="M192.461 90.2813C191.881 89.7012 190.528 89.5561 189.923 89.5561C189.561 89.9187 188.908 90.8614 189.198 91.7316C189.561 92.8193 190.648 92.4567 192.461 92.8193C194.274 93.1819 194.274 91.7316 194.274 91.0064C194.274 90.2813 193.186 91.0064 192.461 90.2813Z" fill="#FFC5C5"/>
<path d="M187.023 89.5561C187.023 88.976 185.572 89.0727 184.847 89.1936C184.485 90.2813 184.485 91.369 184.847 91.7316C185.21 92.0942 186.298 91.7316 187.023 91.7316C187.748 91.7316 187.023 90.2813 187.023 89.5561Z" fill="#FFC5C5"/>
<path d="M182.309 87.7433C182.309 87.0181 179.771 86.6555 179.409 86.6555C178.321 86.5004 178.321 88.4684 178.683 89.1936C179.046 89.9187 181.221 91.0064 182.309 90.2813C183.397 89.5561 182.309 88.4684 182.309 87.7433Z" fill="#FFC5C5"/>
<path d="M176.508 84.8427C176.508 83.9725 175.783 82.7881 175.42 82.3046C174.333 81.5795 171.432 81.2169 171.795 83.0298C172.157 84.8427 172.52 86.6555 173.97 86.6555C175.42 86.6555 176.508 85.9304 176.508 84.8427Z" fill="#FFC5C5"/>
<path d="M169.982 83.0298C170.852 82.1596 170.103 80.9752 169.619 80.4918C169.015 80.1292 167.589 79.6941 166.719 80.8543C165.848 82.0146 166.356 82.7881 166.719 83.0298C167.444 83.3924 169.111 83.9 169.982 83.0298Z" fill="#FFC5C5"/>
<path d="M160.192 80.1292C159.902 78.969 161.522 78.6789 162.368 78.6789C163.238 78.0988 163.939 78.4372 164.18 78.6789C164.905 79.7666 164.905 81.9421 163.455 82.3046C162.005 82.6672 160.555 81.5795 160.192 80.1292Z" fill="#FFC5C5"/>
<path d="M155.841 81.5795C154.681 80.9994 155.116 79.404 155.479 78.6789C155.962 78.0746 157.219 77.2286 158.379 78.6789C159.83 80.4918 157.292 82.3046 155.841 81.5795Z" fill="#FFC5C5"/>
<path d="M148.59 79.404C148.88 78.8239 151.369 78.6789 152.578 78.6789C154.391 81.2169 151.128 81.5795 149.677 81.5795C148.227 81.5795 148.227 80.1292 148.59 79.404Z" fill="#FFC5C5"/>
<path d="M141.338 81.5795C141.628 80.9994 143.393 80.8543 144.239 80.8543C145.826 80.7223 146.052 80.8543 146.414 81.5795C146.777 82.3046 144.964 83.0298 143.151 83.7549C141.338 84.4801 140.976 82.3046 141.338 81.5795Z" fill="#FFC5C5"/>
<path d="M138.8 85.9304C137.35 86.2205 136.746 84.6009 136.625 83.7549C136.29 82.6672 138.438 81.2169 139.525 82.3046C140.613 83.3924 140.613 85.5678 138.8 85.9304Z" fill="#FFC5C5"/>
<path d="M129.373 97.1702C129.083 96.3 127.56 95.5991 126.835 95.3573C126.594 95.1156 125.965 94.7047 125.385 94.9948C124.66 95.3573 123.935 96.0825 125.022 97.8954C126.11 99.7082 127.56 99.7082 128.286 99.7082C129.011 99.7082 129.736 98.2579 129.373 97.1702Z" fill="#FFC5C5"/>
<path d="M132.636 101.521C134.087 102.101 134.208 103.455 134.087 104.059C133.845 104.784 132.999 106.09 131.549 105.509C130.098 104.929 129.978 103.576 130.098 102.971C130.34 102.246 131.186 100.941 132.636 101.521Z" fill="#FFC5C5"/>
<path d="M140.613 110.948C140.613 110.078 139.888 108.893 139.525 108.41C139.365 108.184 136.987 107.322 136.625 108.41C136.262 109.498 136.625 111.673 138.075 112.398C139.525 113.124 140.613 112.036 140.613 110.948Z" fill="#FFC5C5"/>
<path d="M147.139 113.486C147.72 112.906 147.381 111.794 147.139 111.311C146.052 110.585 144.964 110.948 143.876 110.948C142.789 110.948 142.789 112.761 143.151 113.486C143.514 114.211 146.414 114.211 147.139 113.486Z" fill="#FFC5C5"/>
<path d="M152.941 113.486C153.811 112.906 153.303 111.311 152.941 110.585C152.336 110.344 150.838 110.005 149.677 110.585C148.227 111.311 148.59 113.486 148.952 113.486C149.315 113.486 151.853 114.211 152.941 113.486Z" fill="#FFC5C5"/>
<path d="M158.742 112.036C159.032 110.876 158.138 110.102 157.654 109.86C156.494 109.28 155.237 109.619 154.754 109.86C154.173 111.601 154.995 112.761 155.479 113.124C156.446 113.244 158.452 113.196 158.742 112.036Z" fill="#FFC5C5"/>
<path d="M163.455 112.036C164.035 111.166 162.972 110.223 162.368 109.86C161.497 109.014 160.071 109.266 159.467 109.498C158.742 111.311 159.467 111.311 160.192 112.398C160.917 113.486 162.73 113.124 163.455 112.036Z" fill="#FFC5C5"/>
<path d="M167.444 112.761C168.024 112.471 167.927 110.706 167.806 109.86C167.565 109.498 166.791 108.845 165.631 109.135L165.631 109.135C164.18 109.498 164.18 109.498 164.18 111.311C164.18 113.124 166.719 113.124 167.444 112.761Z" fill="#FFC5C5"/>
<path d="M172.52 114.211C173.1 113.631 172.278 112.036 171.795 111.311C171.553 111.069 170.852 110.585 169.982 110.585C168.894 110.585 168.531 112.398 169.257 113.486C169.982 114.574 171.795 114.936 172.52 114.211Z" fill="#FFC5C5"/>
<path d="M175.058 117.837C176.218 117.837 176.266 116.628 176.145 116.024C175.904 115.541 175.203 114.501 174.333 114.211C173.245 113.849 172.157 114.574 172.52 115.662C172.882 116.749 173.607 117.837 175.058 117.837Z" fill="#FFC5C5"/>
<path d="M177.596 121.1C178.756 121.1 178.804 120.133 178.683 119.65C178.683 119.287 178.538 118.417 177.958 117.837C177.233 117.112 175.42 117.79 175.42 118.925C175.42 120.059 176.145 121.1 177.596 121.1Z" fill="#FFC5C5"/>
<path d="M180.496 125.451C181.076 124.291 180.255 123.276 179.771 122.913C179.771 122.671 179.409 122.26 177.958 122.55C176.508 122.841 177.112 124.363 177.596 125.088C178.321 125.693 179.916 126.611 180.496 125.451Z" fill="#FFC5C5"/>
<path d="M180.496 130.165C181.076 129.584 181.221 128.231 181.221 127.627C180.496 126.901 180.496 126.901 179.046 126.901C177.596 126.901 177.958 128.352 177.958 129.077C177.958 129.802 179.771 130.89 180.496 130.165Z" fill="#FFC5C5"/>
<path d="M179.409 134.878C179.989 134.298 180.375 132.944 180.496 132.34C179.916 129.729 178.321 130.769 177.596 131.615C176.871 134.878 178.683 135.603 179.409 134.878Z" fill="#FFC5C5"/>
<path d="M176.145 137.416C177.306 138.866 178.079 137.779 178.321 137.053C179.046 134.515 176.871 134.515 176.508 134.878C176.145 135.241 174.695 135.603 176.145 137.416Z" fill="#FFC5C5"/>
<path d="M173.245 139.591C174.115 141.042 175.541 140.196 176.145 139.591C176.508 137.416 175.42 137.416 175.058 137.416C174.695 137.416 172.157 137.779 173.245 139.591Z" fill="#FFC5C5"/>
<path d="M172.52 140.317C171.94 139.737 170.586 140.317 169.982 140.679C169.498 140.921 168.531 141.549 168.531 142.13C168.531 142.855 171.432 142.855 172.157 142.492C172.882 142.13 173.245 141.042 172.52 140.317Z" fill="#FFC5C5"/>
<path d="M166.719 143.58C167.589 143.58 167.323 142.371 167.081 141.767C166.719 141.404 163.818 140.679 164.18 142.492C164.543 144.305 165.631 143.58 166.719 143.58Z" fill="#FFC5C5"/>
<path d="M119.221 126.901C119.801 126.321 119.463 125.209 119.221 124.726C117.046 124.001 116.683 125.451 116.683 126.176C116.683 126.901 118.496 127.627 119.221 126.901Z" fill="#FFC5C5"/>
<path d="M118.496 131.252C118.786 130.962 118.617 129.439 118.496 128.714C118.375 128.593 117.988 128.424 117.408 128.714C116.683 129.077 115.233 129.077 115.595 130.527C115.958 131.977 118.133 131.615 118.496 131.252Z" fill="#FFC5C5"/>
<path d="M115.595 136.691C116.466 136.111 115.958 134.515 115.595 133.79C115.354 133.549 114.725 133.21 114.145 133.79C113.42 134.515 112.695 135.241 112.695 135.966C112.695 136.691 114.508 137.416 115.595 136.691Z" fill="#FFC5C5"/>
<path d="M111.97 134.153C113.13 133.573 112.453 132.219 111.97 131.615C111.245 131.615 110.882 131.615 110.519 132.34C110.157 133.065 110.519 134.878 111.97 134.153Z" fill="#FFC5C5"/>
<path d="M109.432 137.416C110.302 137.126 110.036 135.603 109.794 134.878C108.344 133.79 106.531 135.966 106.894 136.691C107.256 137.416 108.344 137.779 109.432 137.416Z" fill="#FFC5C5"/>
<path d="M111.97 141.404C112.84 140.534 111.849 139.108 111.245 138.504C110.954 138.173 110.157 138.366 109.794 138.504C108.344 139.591 108.707 140.317 109.069 141.042C109.432 141.767 110.882 142.492 111.97 141.404Z" fill="#FFC5C5"/>
<path d="M105.081 139.229C105.661 138.069 105.081 137.537 104.718 137.416C102.398 136.546 102.301 138.262 102.543 139.229C103.147 139.712 104.501 140.389 105.081 139.229Z" fill="#FFC5C5"/>
<path d="M107.619 143.942C108.489 143.072 107.015 142.371 106.168 142.13H104.356C103.993 142.13 102.543 144.305 103.63 145.03C104.718 145.755 106.531 145.03 107.619 143.942Z" fill="#FFC5C5"/>
<path d="M99.6422 141.042C100.222 140.172 99.6422 139.229 99.2796 138.866C95.6538 137.416 96.0164 140.317 96.0164 141.042C96.0164 141.767 98.917 142.13 99.6422 141.042Z" fill="#FFC5C5"/>
<path d="M101.818 145.393C102.398 144.232 100.609 143.701 99.6422 143.58C98.1918 143.29 97.8293 143.701 97.8293 143.942C97.1041 145.03 98.1918 146.48 98.917 146.843C99.6422 147.206 101.092 146.843 101.818 145.393Z" fill="#FFC5C5"/>
<path d="M93.8409 139.591C94.131 138.431 93.4784 137.658 93.1158 137.416C90.9404 136.691 90.5778 138.504 90.9404 139.229C91.3029 139.954 93.4784 141.042 93.8409 139.591Z" fill="#FFC5C5"/>
<path d="M94.2035 145.03C94.7836 143.87 93.7201 143.096 93.1158 142.855C91.3029 142.13 90.5778 143.942 90.9404 145.393C91.3029 146.843 93.4784 146.48 94.2035 145.03Z" fill="#FFC5C5"/>
<path d="M89.8526 141.767C89.8526 140.897 88.8858 140.196 88.4023 139.954C87.798 139.833 86.5169 139.882 86.2269 141.042C85.8643 142.492 86.2269 143.217 87.6772 143.58C89.1275 143.942 89.8526 142.855 89.8526 141.767Z" fill="#FFC5C5"/>
<path d="M89.4901 135.966C89.4901 134.805 88.7649 134.515 88.4023 134.515C87.5322 134.225 86.8312 134.636 86.5894 134.878C86.2269 136.691 86.5894 136.691 86.952 137.416C87.3146 138.141 89.4901 137.416 89.4901 135.966Z" fill="#FFC5C5"/>
<path d="M83.6888 136.691C84.559 135.241 83.568 134.395 82.9637 134.153C82.3836 133.731 81.2717 133.977 80.7883 134.153C79.7005 135.241 80.0631 136.691 80.4257 137.416C80.7883 138.141 82.6011 138.504 83.6888 136.691Z" fill="#FFC5C5"/>
<path d="M85.5017 131.977C85.5017 131.107 85.0183 130.406 84.7766 130.165C82.9637 129.077 82.2386 131.977 82.9637 132.703C83.6888 133.428 85.5017 133.065 85.5017 131.977Z" fill="#FFC5C5"/>
<path d="M80.0631 129.802C80.0631 128.932 79.5797 128.231 79.338 127.989C78.8545 127.868 77.8151 127.772 77.5251 128.352C77.1625 129.077 76.4373 130.89 77.8876 131.252C79.338 131.615 80.0631 130.89 80.0631 129.802Z" fill="#FFC5C5"/>
<path d="M83.3263 128.352C84.1965 128.352 83.9306 126.66 83.6888 125.814C82.9637 125.088 81.1508 125.814 81.1508 126.901C81.1508 127.989 82.2386 128.352 83.3263 128.352Z" fill="#FFC5C5"/>
<path d="M82.9637 123.276C83.2538 122.695 82.3594 121.825 81.876 121.463C81.453 121.1 80.4257 121.463 80.4257 121.825C80.4257 122.188 80.0631 124.001 80.7883 124.363C81.5134 124.726 82.6011 124.001 82.9637 123.276Z" fill="#FFC5C5"/>
<path d="M78.9754 125.451C79.2654 124.291 78.3711 123.034 77.8876 122.55C76.4373 121.825 75.7122 124.363 75.7122 125.088C75.7122 125.814 78.6128 126.901 78.9754 125.451Z" fill="#FFC5C5"/>
<path d="M81.876 118.562C82.166 117.692 81.7551 116.991 81.5134 116.749C81.2233 116.459 80.6674 116.628 80.4257 116.749C78.9754 117.112 78.2502 119.287 79.338 119.65C80.4257 120.012 81.5134 119.65 81.876 118.562Z" fill="#FFC5C5"/>
<path d="M78.6128 96.8076C79.773 94.7772 81.7551 95.2365 82.6011 95.7199C83.6888 97.1702 81.876 98.6205 80.0631 98.6205C78.6128 98.6205 78.4919 97.4119 78.6128 96.8076Z" fill="#FFC5C5"/>
<path d="M75.7122 101.884C75.7122 100.723 77.6459 100.433 78.6128 100.433C79.338 101.521 78.9754 102.971 77.1625 103.334C75.7122 103.624 75.5913 102.488 75.7122 101.884Z" fill="#FFC5C5"/>
<path d="M71.7239 107.322C71.7239 106.235 74.6245 104.422 74.987 104.422C75.3496 104.422 76.0748 104.639 76.0748 105.509C76.0748 106.597 74.987 108.047 73.8993 108.41C72.8116 108.773 71.7239 108.41 71.7239 107.322Z" fill="#FFC5C5"/>
<path d="M67.0104 109.86C68.4607 109.86 69.065 110.585 69.1859 110.948C69.1859 112.398 68.4607 113.124 66.6478 113.124C65.1975 113.124 65.0767 112.157 65.1975 111.673C65.1975 111.069 65.5601 109.86 67.0104 109.86Z" fill="#FFC5C5"/>
<path d="M58.3086 112.761C59.7589 112.181 61.3301 112.761 61.9344 113.124C62.5145 114.284 62.1761 115.057 61.9344 115.299C60.8466 116.024 59.0338 115.662 58.3086 115.299C57.5835 114.936 56.4957 113.486 58.3086 112.761Z" fill="#FFC5C5"/>
<path d="M50.332 110.585C52.0723 110.295 53.716 111.19 54.3203 111.673C54.6103 113.414 53.716 113.849 53.2326 113.849C50.622 114.139 49.4859 113.486 49.2442 113.124C48.6641 111.383 49.7277 110.706 50.332 110.585Z" fill="#FFC5C5"/>
<path d="M42.7179 107.322C44.7483 108.192 44.7725 109.377 44.5308 109.86C44.5308 110.102 44.1682 110.513 42.7179 110.223C40.905 109.86 39.8173 109.135 39.8173 108.41C39.8173 107.685 40.1799 106.235 42.7179 107.322Z" fill="#FFC5C5"/>
<path d="M33.2909 106.235C35.6114 105.364 36.675 106.355 36.9167 106.96C37.7869 107.707 37.521 108.722 37.2793 109.135C36.3124 109.619 34.1611 110.223 33.2909 108.773C32.4208 107.322 32.9284 106.476 33.2909 106.235Z" fill="#FFC5C5"/>
<path d="M26.0394 105.872C28.5775 104.784 29.3026 106.235 30.0278 106.235C30.3903 106.333 30.3903 107.685 30.0278 108.047C29.7377 108.338 27.7315 108.168 26.7646 108.047C25.0242 107.467 25.556 106.355 26.0394 105.872Z" fill="#FFC5C5"/>
<path d="M21.326 106.235C21.9061 105.654 23.018 106.235 23.5014 106.597C23.864 108.773 22.7763 109.498 22.4137 109.498C22.0511 109.498 19.1505 110.223 19.5131 108.773C19.8757 107.322 20.6008 106.96 21.326 106.235Z" fill="#FFC5C5"/>
<path d="M18.4254 113.486C18.4254 112.761 17.3376 111.311 16.9751 110.948C16.7245 110.658 15.9038 110.827 15.5248 110.948C15.1622 111.794 14.7271 113.631 15.8873 114.211C17.3376 114.936 18.4254 114.211 18.4254 113.486Z" fill="#FFC5C5"/>
<path d="M19.8757 119.65C20.2382 118.925 18.7879 118.2 18.4254 117.837C15.5248 116.387 15.8873 118.562 16.2499 119.65C16.6125 120.738 19.5131 120.375 19.8757 119.65Z" fill="#FFC5C5"/>
<path d="M21.326 121.825C21.9061 120.955 23.9848 121.463 24.9517 121.825C25.6769 123.638 24.2266 124.001 23.5014 124.001C22.7763 124.001 20.6008 122.913 21.326 121.825Z" fill="#FFC5C5"/>
<path d="M65.1975 82.3046C66.3578 82.8848 65.1975 83.9967 64.4724 84.4801C63.7472 84.4801 63.0221 84.8427 61.9344 84.4801C60.8466 84.1175 60.4841 83.3924 60.8466 82.6672C61.2092 81.9421 63.7472 81.5795 65.1975 82.3046Z" fill="#FFC5C5"/>
<path d="M59.0338 83.0298C59.0338 84.7702 57.3417 84.7218 56.4957 84.4801C56.4957 84.19 56.254 84.3592 56.1332 84.4801C55.7706 85.2052 53.9577 85.2052 52.87 85.2052C51.7823 85.2052 52.1448 83.0298 52.87 83.0298H54.6829C54.9729 83.0298 56.0123 82.3046 56.4957 81.9421C57.3417 81.5795 59.0338 81.2894 59.0338 83.0298Z" fill="#FFC5C5"/>
<path d="M47.4314 83.7549C47.7214 83.1748 49.2442 83.5132 49.9694 83.7549C51.1296 84.3351 50.9362 85.2052 50.6945 85.5678C49.9694 85.6887 48.3741 85.9304 47.7939 85.9304C47.0688 85.9304 47.0688 84.4801 47.4314 83.7549Z" fill="#FFC5C5"/>
<path d="M40.905 84.1175C43.8056 84.1175 43.8056 84.8427 44.1682 85.2052C44.4582 85.5598 44.289 86.0781 44.1682 86.293C42.8387 86.6555 40.1073 87.0906 39.8173 85.9304C39.5272 84.7702 40.4216 84.2384 40.905 84.1175Z" fill="#FFC5C5"/>
<path d="M33.2909 84.8427C34.1611 84.2625 35.829 84.3592 36.5541 84.4801C36.9167 84.5284 37.6418 84.8427 37.6418 85.2052C37.6418 85.5678 38.0044 87.7433 35.1038 87.0181C32.7833 86.438 32.9284 85.3261 33.2909 84.8427Z" fill="#FFC5C5"/>
<path d="M30.7529 85.5678C30.7529 84.9877 29.5443 84.3592 28.94 84.1175C27.9732 84.1175 26.0394 84.2625 26.0394 84.8427C26.0394 85.5678 26.402 86.293 27.8523 87.0181C29.3026 87.7433 30.7529 86.293 30.7529 85.5678Z" fill="#FFC5C5"/>
<path d="M23.1388 84.4801C23.1388 83.6099 21.9303 82.9089 21.326 82.6672C18.4254 81.5795 18.4254 83.7549 19.1505 84.4801C19.8757 85.2052 23.1388 85.5678 23.1388 84.4801Z" fill="#FFC5C5"/>
<path d="M15.8873 81.9421C15.8873 81.3619 15.1622 80.7335 14.7996 80.4918C14.0745 79.8402 12.2616 79.7666 12.2616 80.1292C12.2616 80.4918 12.2616 83.0298 13.7119 83.3924C15.1622 83.7549 15.8873 82.6672 15.8873 81.9421Z" fill="#FFC5C5"/>
<path d="M10.4487 79.404C10.4487 78.8239 9.24013 77.712 8.63585 77.2286C8.27327 77.2286 7.54813 77.2286 7.18555 77.5912C6.82297 77.9537 6.82297 79.404 7.91069 80.4918C8.99841 81.5795 10.4487 80.1292 10.4487 79.404Z" fill="#FFC5C5"/>
<path d="M6.82297 75.0531C6.82297 74.473 5.85611 73.1194 5.37267 72.5151C4.88924 72.3943 3.99489 72.2251 4.28494 72.5151C4.64752 72.8777 4.28494 74.6906 5.37267 75.4157C6.46039 76.1409 6.82297 75.7783 6.82297 75.0531Z" fill="#FFC5C5"/>
<path d="M4.28494 69.6145C4.86507 68.4543 3.80151 67.1974 3.19722 66.7139C1.02177 65.9888 1.02177 68.5268 1.38434 69.2519C1.74692 69.9771 3.5598 71.0648 4.28494 69.6145Z" fill="#FFC5C5"/>
<path d="M2.47208 63.8133C2.76213 62.9431 1.86778 61.7587 1.38434 61.2753C-0.428528 61.2753 -0.0659485 63.8133 0.296616 65.2636C0.659195 66.7139 2.1095 64.901 2.47208 63.8133Z" fill="#FFC5C5"/>
<path d="M2.47208 58.3747C2.76213 57.5045 2.35121 56.8035 2.1095 56.5618C1.02177 56.1992 1.02177 56.2751 0.659195 56.6377C0.296616 57.0003 -0.428528 58.4506 0.659195 59.1757C1.74692 59.9009 2.1095 59.4624 2.47208 58.3747Z" fill="#FFC5C5"/>
<path d="M4.64752 53.2987C4.64752 52.4285 4.40581 52.2109 4.28494 52.2109C2.83464 51.6308 2.35121 52.2109 2.1095 52.5735C1.74692 54.7489 2.83464 55.1115 3.19722 55.1115C3.5598 55.1115 4.64752 54.3864 4.64752 53.2987Z" fill="#FFC5C5"/>
<path d="M7.18555 50.0355C7.76567 49.1653 7.91069 48.8269 7.54813 48.5852C6.968 48.2951 5.73524 48.4643 5.37267 48.5852C3.63231 50.0355 4.04323 50.7606 4.64752 51.1232C5.25182 51.1232 6.60542 50.9057 7.18555 50.0355Z" fill="#FFC5C5"/>
<path d="M12.9867 49.6729C13.2768 49.0928 12.9867 49.1895 12.6242 48.9478C10.5938 47.7875 9.60271 48.4643 9.36099 48.9478C9.36099 49.7938 9.28848 50.7606 10.4487 50.7606C11.899 50.7606 12.6242 50.3981 12.9867 49.6729Z" fill="#FFC5C5"/>
<path d="M16.9751 54.7489C17.2651 53.8788 16.8542 52.9361 16.6125 52.5735C15.8873 51.4858 15.1622 51.8484 14.0745 52.2109C12.9867 52.5735 14.437 53.6612 14.7996 54.3864C15.1622 55.1115 16.6125 55.8367 16.9751 54.7489Z" fill="#FFC5C5"/>
<path d="M102.693 36.6415C103.985 36.534 105.878 37.4856 105.917 38.7012C105.995 41.1311 102.833 41.0635 101.633 38.9479C101.07 37.9557 101.223 36.7638 102.693 36.6415Z" fill="#6D594A"/>
<path d="M122.176 41.8001C121.307 40.8375 119.457 40.7906 118.584 41.6015C116.9 43.1665 118.993 45.3745 121.301 44.6096C122.84 44.0999 123.263 43.0032 122.176 41.8001Z" fill="#6D594A"/>
<defs>
<linearGradient id="paint0_linear_132_2683" x1="134.374" y1="6.85574" x2="54.3905" y2="213.899" gradientUnits="userSpaceOnUse">
<stop stop-color="#DA7472"/>
<stop offset="0.921875" stop-color="#8F3E3D"/>
</linearGradient>
</defs>
</svg>
