<svg width="1920" height="1080" viewBox="0 0 1920 1080" fill="none" xmlns="http://www.w3.org/2000/svg">
<path fill-rule="evenodd" clip-rule="evenodd" d="M586.296 448.873C587.531 446.632 589.201 444.032 591.646 443.471C591.727 443.453 591.67 443.859 591.57 444.567C591.2 447.202 590.241 454.017 593.621 458.651C593.389 459.681 591.724 459.938 587.001 454.061C583.027 456.827 578.881 458.639 571.926 458.639C568.484 458.639 561.212 457.065 557.941 453.101C558.659 449.895 561.443 448.157 569.361 445.825C575.989 443.873 582.32 446.492 586.296 448.873Z" fill="#523E52" fill-opacity="0.55"/>
<path fill-rule="evenodd" clip-rule="evenodd" d="M564.466 424.481C565.194 423.487 566.091 422.431 566.792 422.061C567.893 421.48 567.906 426.857 567.775 429.619C567.664 430.109 566.901 430.248 564.779 427.7C562.714 429.113 560.64 430.268 556.768 430.268C554.743 430.268 548.26 429.388 547.967 426.913C548.389 425.351 549.66 422.915 554.421 422.346C558.878 421.813 562.295 423.203 564.466 424.481Z" fill="#523E52" fill-opacity="0.55"/>
<path fill-rule="evenodd" clip-rule="evenodd" d="M634.811 461.087C635.388 458.948 637.231 455.941 643.608 454.385C648.881 453.099 654.096 455.597 657.424 457.717C658.415 456.368 659.628 454.946 660.578 454.445C662.085 453.649 662.103 461.009 661.923 464.789C661.77 465.469 660.699 465.655 657.702 462.017C654.652 463.699 651.376 464.782 646.074 464.782C643.301 464.782 637.444 463.732 634.811 461.087Z" fill="#523E52" fill-opacity="0.55"/>
</svg>
