<svg width="1920" height="342" viewBox="0 0 1920 342" fill="none" xmlns="http://www.w3.org/2000/svg">
<path d="M19.804 144.447C12.6746 143.653 3.63074 134.851 0 130.549V342H1920V69C1886.33 84.8836 1796.22 127.571 1768.5 140.476C1740.77 153.382 1740.77 153.382 1735.82 153.382C1731.86 153.382 1725.59 150.073 1722.95 148.418C1714.04 143.455 1683.34 135.513 1656.61 134.52C1629.87 133.527 1595.21 134.52 1566.5 145.44C1537.78 156.36 1524.91 169.265 1504.12 182.171C1483.32 195.076 1465.5 191.105 1453.62 191.105C1441.73 191.105 1438.76 184.156 1435.79 180.185C1433.42 177.009 1431.5 177.538 1430.84 178.2C1410.05 189.12 1396.18 197.062 1362.52 208.975C1328.85 220.887 1276.37 228.829 1213 220.887C1149.62 212.945 1129.82 223.865 1105.06 225.851C1085.26 227.439 1068.43 228.498 1062.49 228.829C1039.05 227.505 987.825 225.652 970.397 228.829C948.613 232.8 898.112 224.858 881.279 220.887C864.446 216.916 795.131 215.924 782.259 214.931C769.386 213.938 761.465 214.931 750.572 218.902C739.68 222.873 715.915 222.873 697.102 222.873C678.288 222.873 674.327 225.851 657.494 230.815C640.66 235.778 629.768 231.807 619.866 222.873C609.964 213.938 602.042 214.931 581.248 210.96C560.454 206.989 505.003 209.967 453.512 205.996C402.022 202.025 350.531 183.164 315.874 182.171C281.217 181.178 192.099 185.149 165.364 189.12C138.628 193.091 89.1181 190.113 71.2945 176.215C53.4709 162.316 28.7158 145.44 19.804 144.447Z" fill="#111C2B"/>
<path d="M1295.37 185.189C1298.39 181.352 1300.82 175.162 1301.65 172.547C1301.99 171.675 1302.21 172.038 1302.28 172.329C1303.33 175.38 1307.52 183.663 1308.56 184.971C1309.4 186.017 1308.91 185.988 1308.56 185.843C1306.05 184.971 1306.26 184.535 1305.42 183.881C1304.75 183.358 1304.86 183.663 1305 183.881C1309.4 190.856 1313.17 194.125 1314.42 194.997C1315.43 195.695 1315.26 195.869 1315.05 195.869C1314.21 196.087 1311.7 195.651 1310.66 194.779C1309.82 194.082 1309.75 194.198 1309.82 194.343C1312.33 199.139 1317.36 204.152 1319.45 205.678C1321.12 206.898 1320.7 207.058 1320.29 206.985C1317.27 206.811 1315.68 206.186 1315.26 205.896C1313.59 204.675 1313.73 205.096 1314.01 205.46C1317.15 209.165 1320.91 211.781 1323.43 213.088C1325.44 214.135 1325.1 214.396 1324.68 214.396C1324.05 214.542 1322.13 214.614 1319.45 213.742C1316.77 212.87 1316.52 212.943 1316.73 213.088C1316.73 213.742 1322.17 217.448 1323.64 218.32C1324.81 219.017 1324.4 219.191 1324.05 219.191H1319.87C1316.52 219.017 1314.56 218.392 1314.01 218.102C1313.67 218.102 1314.7 218.828 1315.26 219.191C1316.77 220.063 1316.45 220.281 1316.1 220.281C1311.7 220.281 1309.61 219.191 1308.77 218.538C1308.1 218.014 1308.07 218.174 1308.14 218.32C1308.48 219.017 1309.12 219.773 1309.4 220.063C1309.73 220.586 1309.54 220.717 1309.4 220.717C1307.1 220.935 1303.12 220.063 1302.28 218.974C1301.61 218.102 1301.44 218.32 1301.44 218.538V229H1298.93V218.538C1298.58 218.465 1297.8 218.102 1297.47 217.23C1297.13 216.358 1296.91 216.285 1296.84 216.358C1296 217.884 1294.75 218.974 1293.7 219.627C1292.65 220.281 1288.88 220.499 1287.84 220.499C1287 220.499 1287.35 220.209 1287.63 220.063C1288.13 219.889 1288.95 219.264 1289.3 218.974C1289.93 218.32 1289.79 218.392 1289.72 218.32C1285.03 219.191 1281.77 219.119 1280.72 218.974C1279.04 218.974 1279.46 218.538 1279.88 218.32C1283.86 216.14 1286.79 213.088 1286.79 212.87C1286.79 212.696 1285.67 213.234 1285.12 213.524C1283.23 214.396 1280.51 214.396 1279.46 214.178C1278.62 214.004 1279.11 213.67 1279.46 213.524C1283.31 211.432 1287.21 208.003 1288.67 206.549C1289.16 206.113 1290.01 205.285 1289.51 205.46C1288.88 205.678 1286.16 206.985 1284.07 206.767C1282.39 206.593 1282.95 206.113 1283.44 205.896C1288.88 202.626 1293.28 195.869 1293.91 194.997C1294.41 194.3 1294.26 194.125 1294.12 194.125L1294.11 194.128C1292.86 194.782 1291.18 195.651 1289.93 195.869C1288.93 196.043 1288.95 195.796 1289.09 195.651C1290.14 195.215 1297.89 186.496 1298.51 184.753C1299.02 183.358 1298.72 183.59 1298.51 183.881C1298.37 184.171 1297.72 184.927 1296.21 185.625C1294.7 186.322 1294.75 185.915 1294.95 185.625L1295.37 185.189Z" fill="#111C2B"/>
<path d="M1269.19 193.181C1270.69 190.219 1271.91 185.441 1272.33 183.422C1272.49 182.749 1272.61 183.029 1272.64 183.254C1273.16 185.609 1275.26 192.003 1275.78 193.012C1276.2 193.82 1275.96 193.798 1275.78 193.685C1274.53 193.012 1274.63 192.676 1274.21 192.171C1273.88 191.767 1273.93 192.003 1274 192.171C1276.2 197.555 1278.08 200.079 1278.71 200.752C1279.21 201.291 1279.13 201.425 1279.03 201.425C1278.61 201.593 1277.35 201.257 1276.83 200.584C1276.41 200.046 1276.37 200.135 1276.41 200.247C1277.67 203.949 1280.18 207.819 1281.22 208.997C1282.06 209.939 1281.85 210.062 1281.64 210.006C1280.14 209.872 1279.34 209.389 1279.13 209.165C1278.29 208.223 1278.36 208.548 1278.5 208.828C1280.07 211.689 1281.96 213.708 1283.21 214.717C1284.22 215.525 1284.05 215.727 1283.84 215.727C1283.53 215.839 1282.56 215.895 1281.22 215.222C1279.88 214.549 1279.76 214.605 1279.86 214.717C1279.86 215.222 1282.59 218.082 1283.32 218.756C1283.9 219.294 1283.7 219.429 1283.53 219.429H1281.43C1279.76 219.294 1278.78 218.812 1278.5 218.587C1278.34 218.587 1278.85 219.148 1279.13 219.429C1279.88 220.102 1279.72 220.27 1279.55 220.27C1277.35 220.27 1276.3 219.429 1275.89 218.924C1275.55 218.52 1275.54 218.643 1275.57 218.756C1275.74 219.294 1276.06 219.877 1276.2 220.102C1276.37 220.505 1276.27 220.606 1276.2 220.606C1275.14 220.606 1274.67 220.102 1274.5 219.765L1274.47 219.709C1274.16 219.074 1274 218.76 1274 218.924V227H1270.7V218.924C1270.7 218.679 1270.2 218.679 1270.2 217.924C1269.78 219.102 1268.87 219.26 1268.35 219.765C1267.83 220.27 1265.94 220.438 1265.42 220.438C1265 220.438 1265.17 220.214 1265.31 220.102C1265.56 219.967 1265.98 219.485 1266.15 219.26C1266.47 218.756 1266.4 218.812 1266.36 218.756C1264.02 219.429 1262.38 219.372 1261.86 219.26C1261.02 219.26 1261.23 218.924 1261.44 218.756C1263.43 217.073 1264.9 214.717 1264.9 214.549C1264.9 214.415 1264.34 214.83 1264.06 215.054C1263.12 215.727 1261.75 215.727 1261.23 215.559C1260.81 215.424 1261.06 215.166 1261.23 215.054C1263.16 213.439 1265.1 210.791 1265.84 209.67C1266.08 209.333 1266.51 208.694 1266.26 208.828C1265.94 208.997 1264.58 210.006 1263.53 209.838C1262.7 209.703 1262.98 209.333 1263.22 209.165C1265.94 206.641 1268.14 201.425 1268.45 200.752C1268.71 200.214 1268.63 200.079 1268.56 200.079L1268.56 200.082C1267.93 200.586 1267.09 201.257 1266.47 201.425C1265.96 201.56 1265.98 201.369 1266.05 201.257C1266.57 200.92 1270.44 194.19 1270.76 192.844C1271.01 191.767 1270.86 191.947 1270.76 192.171C1270.69 192.396 1270.36 192.979 1269.61 193.517C1268.85 194.056 1268.87 193.742 1268.98 193.517L1269.19 193.181Z" fill="#111C2B"/>
<path d="M398.425 143.816C402.553 138.634 405.879 130.272 407.026 126.738C407.485 125.561 407.791 126.051 407.886 126.444C409.32 130.566 415.054 141.755 416.488 143.522C417.635 144.935 416.966 144.896 416.488 144.7C413.047 143.522 413.334 142.933 412.187 142.05C411.269 141.343 411.422 141.755 411.614 142.05C417.635 151.472 422.796 155.889 424.516 157.066C425.892 158.009 425.663 158.244 425.376 158.244C424.229 158.539 420.788 157.95 419.355 156.772C418.208 155.83 418.112 155.987 418.208 156.183C421.649 162.661 428.53 169.433 431.397 171.494C433.691 173.143 433.117 173.359 432.544 173.261C428.415 173.025 426.236 172.181 425.663 171.789C423.369 170.14 423.56 170.709 423.942 171.2C428.243 176.205 433.404 179.739 436.845 181.505C439.597 182.919 439.138 183.272 438.565 183.272C437.705 183.468 435.067 183.567 431.397 182.389C427.727 181.211 427.383 181.309 427.67 181.505C427.67 182.389 435.124 187.394 437.131 188.572C438.737 189.514 438.183 189.75 437.705 189.75H431.97C427.383 189.514 424.707 188.67 423.942 188.278C423.484 188.278 424.898 189.259 425.663 189.75C427.727 190.928 427.287 191.222 426.81 191.222C420.788 191.222 417.921 189.75 416.774 188.867C415.857 188.16 415.819 188.376 415.914 188.572C416.373 189.514 417.252 190.535 417.635 190.928C418.093 191.634 417.826 191.811 417.635 191.811C414.481 192.105 409.033 190.928 407.886 189.455C406.969 188.278 406.739 188.572 406.739 188.867V203H403.299V188.867C402.821 188.768 401.75 188.278 401.292 187.1C400.833 185.922 400.527 185.824 400.432 185.922C399.285 187.983 397.564 189.455 396.131 190.339C394.697 191.222 389.536 191.517 388.103 191.517C386.956 191.517 387.434 191.124 387.816 190.928C388.504 190.692 389.632 189.848 390.11 189.455C390.97 188.572 390.779 188.67 390.683 188.572C384.261 189.75 379.788 189.652 378.354 189.455C376.06 189.455 376.634 188.867 377.207 188.572C382.655 185.628 386.669 181.505 386.669 181.211C386.669 180.975 385.14 181.702 384.375 182.094C381.795 183.272 378.067 183.272 376.633 182.978C375.486 182.742 376.155 182.291 376.633 182.094C381.909 179.268 387.242 174.635 389.249 172.672C389.918 172.083 391.084 170.964 390.396 171.2C389.536 171.494 385.809 173.261 382.941 172.966C380.648 172.731 381.412 172.083 382.081 171.789C389.536 167.372 395.557 158.244 396.417 157.066C397.105 156.124 396.895 155.889 396.704 155.889L396.696 155.893C394.976 156.776 392.688 157.95 390.97 158.244C389.594 158.48 389.632 158.146 389.823 157.95C391.257 157.361 401.865 145.583 402.726 143.227C403.414 141.343 403.012 141.657 402.726 142.05C402.534 142.442 401.636 143.463 399.571 144.405C397.507 145.347 397.564 144.798 397.851 144.405L398.425 143.816Z" fill="#111C2B"/>
<path d="M593.087 169.037C592.643 167.94 591.976 168.057 591.606 167.469C591.236 167.077 590.866 166.88 590.311 167.077C589.756 167.274 589.941 168.057 589.386 168.057C588.831 168.057 588.461 169.037 588.461 169.624C588.461 170.212 587.166 171.78 586.24 172.368C585.315 172.955 585.652 173.734 585.887 173.858C586.257 174.054 586.627 174.446 586.442 175.033C586.257 175.621 584.776 176.013 585.516 176.993C586.109 177.776 585.085 178.899 584.776 179.029C583.975 179.356 582.926 180.324 583.095 181.185C583.416 182.824 581.076 184.046 582.001 184.634C582.926 185.222 582.001 186.006 581.076 186.593C580.06 187.239 579.394 188.434 580.32 189.414C581.06 190.198 580.829 190.316 580.521 190.316C580.352 190.316 580.05 190.361 579.95 190.708C579.781 191.296 579.796 191.219 579.966 191.492C580.208 191.884 580.32 192.537 580.32 192.863C580.155 194.745 579.969 193.843 579.784 194.823C579.661 195.479 578.797 196.39 579.044 196.978C579.209 197.37 579.641 197.774 579.95 197.839C580.506 198.035 580.135 198.35 580.135 198.937C580.135 199.525 580.151 199.721 579.575 200.701C579.168 201.394 579.575 201.876 580.5 202.072C580.52 202.077 580.689 202.672 580.504 202.933C580.258 203.064 579.801 203.404 579.95 203.717C580.098 204.031 580.521 204.032 580.706 204.228C580.891 204.424 580.505 204.437 580.135 204.697C579.966 204.815 579.907 205.217 579.966 205.403C580.336 206.579 581.816 206.971 583.095 206.264C583.802 205.874 583.712 205.676 583.835 205.872C584.144 206.526 584.443 206.853 585.331 207.167C586.442 207.558 586.981 207.44 587.166 207.048C587.314 206.735 587.598 206.917 587.721 207.048C588 207 588.13 207.179 588.5 206.656L587.721 219H594L593.5 216.5V207C594.5 207.5 595.67 207.595 595.862 207.048C596 206.656 596.479 206.526 596.602 206.656C596.787 206.852 597.195 207.126 597.343 206.656C597.491 206.186 597.898 206.591 598.083 206.852C599.119 207.636 600.241 205.742 600.673 204.697C601.265 203.913 600.92 203.195 600.673 202.933C600.377 202.777 600.426 202.084 600.488 201.758C601.043 200.974 601.043 199.994 600.673 199.602C600.377 199.289 600.426 198.819 600.488 198.623C600.784 197.682 600.611 196.925 600.488 196.663C599.452 193.999 599.686 193.202 599.933 193.137C600.377 192.98 600.611 192.679 600.673 192.549C600.969 191.608 600.426 191.112 600.118 190.981C599.082 190.981 599.193 190.589 599.378 190.394C600.303 190.198 599.748 187.65 598.823 187.846C598.083 188.003 598.144 187.781 598.268 187.65C600.303 187.259 599.686 184.516 599.193 184.32C598.884 184.32 598.342 184.124 598.638 183.34C599.008 182.36 599.193 180.009 598.268 180.009C597.343 180.009 597.158 179.617 597.343 179.029C597.528 178.442 596.973 178.442 596.417 178.246C595.862 178.05 595.677 176.482 595.862 175.894C596.047 175.307 596.232 173.543 595.307 173.151C594.382 172.759 594.382 172.563 594.567 172.172C594.752 171.78 594.752 170.604 594.382 170.604C594.012 170.604 593.642 170.408 593.087 169.037Z" fill="#111C2B"/>
<path d="M456.885 157.389C456.542 156.102 456.027 156.24 455.741 155.55C455.455 155.091 455.169 154.86 454.74 155.091C454.312 155.322 454.454 156.24 454.025 156.24C453.597 156.24 453.311 157.389 453.311 158.079C453.311 158.768 452.31 160.607 451.595 161.297C450.88 161.986 451.141 162.899 451.321 163.045C451.607 163.274 451.893 163.734 451.75 164.424C451.607 165.113 450.464 165.573 451.035 166.722C451.493 167.642 450.702 168.958 450.464 169.111C449.844 169.494 449.034 170.63 449.164 171.64C449.413 173.562 447.604 174.997 448.319 175.686C449.034 176.376 448.319 177.295 447.604 177.985C446.819 178.742 446.305 180.144 447.02 181.293C447.592 182.213 447.413 182.352 447.175 182.352C447.045 182.352 446.811 182.405 446.734 182.811C446.603 183.501 446.615 183.41 446.746 183.731C446.934 184.191 447.02 184.957 447.02 185.34C446.892 187.548 446.749 186.489 446.606 187.638C446.51 188.408 445.843 189.477 446.034 190.167C446.162 190.626 446.496 191.1 446.734 191.177C447.163 191.406 446.877 191.775 446.877 192.465C446.877 193.155 446.889 193.384 446.445 194.534C446.13 195.347 446.445 195.913 447.159 196.143C447.175 196.147 447.305 196.846 447.162 197.153C446.972 197.306 446.619 197.704 446.734 198.072C446.849 198.44 447.175 198.441 447.318 198.671C447.461 198.901 447.163 198.917 446.877 199.221C446.746 199.36 446.701 199.832 446.746 200.05C447.032 201.429 448.176 201.889 449.165 201.06C449.711 200.602 449.641 200.37 449.737 200.6C449.975 201.366 450.206 201.751 450.892 202.119C451.75 202.578 452.167 202.439 452.31 201.979C452.424 201.612 452.644 201.826 452.739 201.979C453.425 203.083 454.169 202.133 454.455 201.52V216H456.313V213.012V201.979C457.6 203.588 458.744 202.899 459.03 201.979C459.259 201.244 459.507 201.366 459.602 201.52C459.745 201.75 460.059 202.071 460.174 201.52C460.288 200.968 460.603 201.443 460.746 201.75C461.546 202.669 462.414 200.447 462.747 199.221C463.205 198.302 462.938 197.459 462.747 197.153C462.519 196.969 462.557 196.157 462.604 195.774C463.033 194.854 463.033 193.705 462.747 193.245C462.519 192.877 462.557 192.326 462.604 192.096C462.833 190.993 462.7 190.104 462.604 189.798C461.804 186.672 461.985 185.737 462.175 185.66C462.519 185.476 462.7 185.124 462.747 184.971C462.976 183.867 462.557 183.285 462.318 183.132C461.518 183.132 461.604 182.672 461.747 182.442C462.461 182.213 462.032 179.225 461.318 179.454C460.746 179.638 460.793 179.378 460.889 179.225C462.461 178.765 461.985 175.547 461.604 175.317C461.365 175.317 460.946 175.087 461.175 174.168C461.461 173.019 461.604 170.261 460.889 170.261C460.174 170.261 460.031 169.801 460.174 169.111C460.317 168.422 459.888 168.422 459.459 168.192C459.03 167.962 458.887 166.123 459.03 165.434C459.173 164.744 459.316 162.676 458.601 162.216C457.886 161.756 457.886 161.526 458.029 161.067C458.172 160.607 458.172 159.228 457.886 159.228C457.6 159.228 457.314 158.998 456.885 157.389Z" fill="#111C2B"/>
<path d="M1893.89 42.3893C1893.54 41.1021 1893.03 41.2399 1892.74 40.5504C1892.46 40.0907 1892.17 39.8596 1891.74 40.0907C1891.31 40.3217 1891.45 41.24 1891.03 41.24C1890.6 41.24 1890.31 42.3893 1890.31 43.0787C1890.31 43.7682 1889.31 45.607 1888.59 46.2966C1887.88 46.9861 1888.14 47.8993 1888.32 48.0446C1888.61 48.2745 1888.89 48.7342 1888.75 49.4237C1888.61 50.1132 1887.46 50.5729 1888.04 51.7222C1888.49 52.6416 1887.7 53.9581 1887.46 54.1113C1886.84 54.4944 1886.03 55.6296 1886.16 56.6396C1886.41 58.5624 1884.6 59.9966 1885.32 60.6862C1886.03 61.3757 1885.32 62.2951 1884.6 62.9846C1883.82 63.7418 1883.3 65.144 1884.02 66.2932C1884.59 67.2126 1884.41 67.3517 1884.18 67.3517C1884.04 67.3517 1883.81 67.4047 1883.73 67.8114C1883.6 68.501 1883.62 68.4103 1883.75 68.7308C1883.93 69.1905 1884.02 69.9567 1884.02 70.3397C1883.89 72.5475 1883.75 71.489 1883.61 72.6382C1883.51 73.4077 1882.84 74.477 1883.03 75.1665C1883.16 75.6262 1883.5 76.1 1883.73 76.1766C1884.16 76.4064 1883.88 76.7754 1883.88 77.465C1883.88 78.1545 1883.89 78.3844 1883.44 79.5336C1883.13 80.3466 1883.44 80.9127 1884.16 81.1425C1884.17 81.1475 1884.31 81.8461 1884.16 82.1526C1883.97 82.3058 1883.62 82.7042 1883.73 83.072C1883.85 83.4397 1884.18 83.441 1884.32 83.6708C1884.46 83.9007 1884.16 83.9168 1883.88 84.2212C1883.75 84.3604 1883.7 84.8319 1883.75 85.0499C1884.03 86.429 1885.18 86.8887 1886.16 86.06C1886.71 85.6022 1886.64 85.3705 1886.74 85.6003C1886.97 86.3665 1887.21 86.7508 1887.89 87.1185C1888.75 87.5782 1889.17 87.4391 1889.31 86.9794C1889.42 86.6116 1889.64 86.8261 1889.74 86.9794C1890.43 88.0826 1891.17 87.1326 1891.45 86.5197V101H1893.31V98.012V86.9794C1894.6 88.5883 1895.74 87.8988 1896.03 86.9794C1896.26 86.2439 1896.51 86.3665 1896.6 86.5197C1896.74 86.7495 1897.06 87.0713 1897.17 86.5197C1897.29 85.9681 1897.6 86.4431 1897.75 86.7495C1898.55 87.6689 1899.41 85.4471 1899.75 84.2212C1900.2 83.3018 1899.94 82.4591 1899.75 82.1526C1899.52 81.9687 1899.56 81.1566 1899.6 80.7735C1900.03 79.8541 1900.03 78.7049 1899.75 78.2452C1899.52 77.8775 1899.56 77.3258 1899.6 77.096C1899.83 75.9927 1899.7 75.104 1899.6 74.7975C1898.8 71.6716 1898.98 70.7369 1899.18 70.6603C1899.52 70.4764 1899.7 70.124 1899.75 69.9707C1899.98 68.8675 1899.56 68.2852 1899.32 68.132C1898.52 68.132 1898.6 67.6723 1898.75 67.4424C1899.46 67.2126 1899.03 64.2246 1898.32 64.4544C1897.75 64.6383 1897.79 64.3778 1897.89 64.2246C1899.46 63.7649 1898.98 60.547 1898.6 60.3172C1898.37 60.3172 1897.95 60.0873 1898.17 59.168C1898.46 58.0187 1898.6 55.2606 1897.89 55.2606C1897.17 55.2606 1897.03 54.8009 1897.17 54.1113C1897.32 53.4218 1896.89 53.4218 1896.46 53.1919C1896.03 52.9621 1895.89 51.1233 1896.03 50.4338C1896.17 49.7443 1896.32 47.6756 1895.6 47.2159C1894.89 46.7562 1894.89 46.5264 1895.03 46.0667C1895.17 45.607 1895.17 44.2279 1894.89 44.2279C1894.6 44.2279 1894.31 43.9982 1893.89 42.3893Z" fill="#111C2B"/>
<path d="M364.526 157.389C364.162 156.102 363.617 156.24 363.314 155.55C363.011 155.091 362.709 154.86 362.255 155.091C361.801 155.322 361.952 156.24 361.498 156.24C361.043 156.24 360.741 157.389 360.741 158.079C360.741 158.768 359.681 160.607 358.924 161.297C358.167 161.986 358.443 162.899 358.634 163.045C358.937 163.274 359.24 163.734 359.089 164.424C358.937 165.113 357.726 165.573 358.332 166.722C358.816 167.642 357.978 168.958 357.726 169.111C357.07 169.494 356.212 170.63 356.35 171.64C356.613 173.562 354.698 174.997 355.455 175.686C356.212 176.376 355.455 177.295 354.698 177.985C353.867 178.742 353.323 180.144 354.08 181.293C354.685 182.213 354.497 182.352 354.244 182.352C354.106 182.352 353.859 182.405 353.777 182.811C353.639 183.501 353.652 183.41 353.79 183.731C353.989 184.191 354.08 184.957 354.08 185.34C353.945 187.548 353.793 186.489 353.642 187.638C353.54 188.408 352.834 189.477 353.036 190.167C353.171 190.626 353.525 191.1 353.777 191.177C354.232 191.406 353.929 191.775 353.929 192.465C353.929 193.155 353.941 193.384 353.471 194.534C353.138 195.347 353.471 195.913 354.228 196.143C354.244 196.147 354.382 196.846 354.231 197.153C354.029 197.306 353.656 197.704 353.777 198.072C353.899 198.44 354.244 198.441 354.396 198.671C354.547 198.901 354.232 198.917 353.929 199.221C353.79 199.36 353.742 199.832 353.79 200.05C354.093 201.429 355.304 201.889 356.351 201.06C356.929 200.602 356.855 200.37 356.956 200.6C357.209 201.366 357.454 201.751 358.18 202.119C359.089 202.578 359.53 202.439 359.681 201.979C359.802 201.612 360.034 201.826 360.135 201.979C360.862 203.083 361.649 202.133 361.952 201.52V216H363.92V213.012V201.979C365.283 203.588 366.494 202.899 366.796 201.979C367.039 201.244 367.301 201.366 367.402 201.52C367.553 201.75 367.886 202.071 368.008 201.52C368.129 200.968 368.462 201.443 368.613 201.75C369.461 202.669 370.379 200.447 370.733 199.221C371.217 198.302 370.934 197.459 370.733 197.153C370.49 196.969 370.531 196.157 370.581 195.774C371.035 194.854 371.035 193.705 370.733 193.245C370.49 192.877 370.531 192.326 370.581 192.096C370.823 190.993 370.682 190.104 370.581 189.798C369.733 186.672 369.925 185.737 370.127 185.66C370.49 185.476 370.682 185.124 370.733 184.971C370.975 183.867 370.531 183.285 370.278 183.132C369.431 183.132 369.521 182.672 369.673 182.442C370.43 182.213 369.976 179.225 369.219 179.454C368.613 179.638 368.664 179.378 368.764 179.225C370.43 178.765 369.925 175.547 369.521 175.317C369.269 175.317 368.825 175.087 369.067 174.168C369.37 173.019 369.521 170.261 368.764 170.261C368.008 170.261 367.856 169.801 368.008 169.111C368.159 168.422 367.705 168.422 367.251 168.192C366.796 167.962 366.645 166.123 366.796 165.434C366.948 164.744 367.099 162.676 366.342 162.216C365.585 161.756 365.585 161.526 365.737 161.067C365.888 160.607 365.888 159.228 365.585 159.228C365.283 159.228 364.98 158.998 364.526 157.389Z" fill="#111C2B"/>
<path d="M888.685 132.893C885.775 130.713 878.681 118.056 875.498 112C871.86 118.51 863.857 131.803 860.946 132.893C860.795 133.347 861.674 134.256 866.403 134.256C863.978 138.192 858.308 146.337 855.033 147.427C853.972 148.184 854.306 149.517 864.128 148.79C859.581 155.906 849.122 170.592 843.665 172.408C842.907 173.317 845.029 174.589 859.581 172.408C854.578 178.767 842.845 191.939 835.933 193.756C833.659 194.513 834.114 196.481 854.122 198.298C854.729 198.449 853.851 199.479 845.484 202.385C844.574 202.991 845.393 203.839 855.943 202.385C855.791 202.991 852.85 206.655 849.576 207.382C849.122 207.836 853.669 207.836 859.581 206.927L865.947 205.111L869.585 204.202V231H880.043V204.202L887.319 206.927C899.144 210.107 900.811 207.533 900.054 206.927L894.597 204.202C909.876 206.746 912.18 205.868 911.422 205.111C908.148 204.021 904.904 200.115 903.691 198.298C917.151 196.844 918.698 194.664 917.788 193.756C906.511 190.122 893.687 178.01 888.685 172.408C905.783 175.679 908.239 174.679 907.329 173.771C898.962 169.411 889.595 155.3 885.957 148.79C896.143 150.607 896.87 149.547 895.961 148.79C890.504 146.973 884.289 138.344 881.864 134.256C888.412 134.619 889.14 133.499 888.685 132.893Z" fill="#121C2A"/>
<path d="M114.575 136.87C112.646 135.423 107.945 127.02 105.836 123C103.425 127.322 98.122 136.147 96.1935 136.87C96.093 137.172 96.6756 137.775 99.8094 137.775C98.202 140.388 94.4447 145.795 92.2752 146.519C91.5721 147.022 91.793 147.906 98.3017 147.424C95.2884 152.148 88.3577 161.897 84.7418 163.103C84.2396 163.706 85.6458 164.55 95.2883 163.103C91.9734 167.324 84.1984 176.069 79.6182 177.275C78.1116 177.777 78.4129 179.084 91.6714 180.29C92.0735 180.391 91.4915 181.074 85.947 183.004C85.3444 183.406 85.8868 183.969 92.8776 183.004C92.7772 183.406 90.8286 185.838 88.659 186.321C88.3577 186.622 91.371 186.622 95.2883 186.019L99.5069 184.813L101.918 184.21V202H108.848V184.21L113.669 186.019C121.505 188.13 122.61 186.421 122.108 186.019L118.492 184.21C128.616 185.898 130.143 185.316 129.641 184.813C127.471 184.089 125.322 181.496 124.518 180.29C133.438 179.325 134.462 177.878 133.86 177.275C126.387 174.863 117.889 166.822 114.575 163.103C125.905 165.274 127.532 164.611 126.929 164.008C121.385 161.113 115.177 151.746 112.767 147.424C119.516 148.63 119.998 147.926 119.396 147.424C115.78 146.218 111.662 140.489 110.055 137.775C114.394 138.016 114.876 137.272 114.575 136.87Z" fill="#121C2A"/>
<path d="M1865.69 20.8931C1862.77 18.713 1855.68 6.05598 1852.5 0C1848.86 6.51018 1840.86 19.8031 1837.95 20.8931C1837.79 21.3473 1838.67 22.2557 1843.4 22.2557C1840.98 26.1921 1835.31 34.3374 1832.03 35.4275C1830.97 36.1845 1831.31 37.5168 1841.13 36.7901C1836.58 43.9059 1826.12 58.5916 1820.66 60.4084C1819.91 61.3168 1822.03 62.5886 1836.58 60.4084C1831.58 66.7672 1819.84 79.9389 1812.93 81.7557C1810.66 82.5127 1811.11 84.4809 1831.12 86.2977C1831.73 86.4491 1830.85 87.4786 1822.48 90.3855C1821.57 90.9911 1822.39 91.8389 1832.94 90.3855C1832.79 90.9911 1829.85 94.655 1826.58 95.3817C1826.12 95.8359 1830.67 95.8359 1836.58 94.9275L1842.95 93.1107L1846.58 92.2023V119H1857.04V92.2023L1864.32 94.9275C1876.14 98.1069 1877.81 95.5331 1877.05 94.9275L1871.6 92.2023C1886.88 94.7458 1889.18 93.8677 1888.42 93.1107C1885.15 92.0206 1881.9 88.1145 1880.69 86.2977C1894.15 84.8443 1895.7 82.6641 1894.79 81.7557C1883.51 78.1221 1870.69 66.0102 1865.69 60.4084C1882.78 63.6786 1885.24 62.6794 1884.33 61.771C1875.96 57.4107 1866.59 43.3003 1862.96 36.7901C1873.14 38.6069 1873.87 37.5471 1872.96 36.7901C1867.5 34.9733 1861.29 26.3435 1858.86 22.2557C1865.41 22.6191 1866.14 21.4987 1865.69 20.8931Z" fill="#121C2A"/>
<path d="M1147.63 153.031C1145.81 151.253 1141.37 140.936 1139.37 136C1137.09 141.307 1132.08 152.142 1130.26 153.031C1130.16 153.401 1130.71 154.141 1133.67 154.141C1132.15 157.35 1128.6 163.989 1126.55 164.878C1125.89 165.495 1126.1 166.581 1132.25 165.989C1129.4 171.789 1122.85 183.76 1119.43 185.24C1118.95 185.981 1120.28 187.018 1129.4 185.24C1126.27 190.424 1118.91 201.16 1114.58 202.641C1113.16 203.258 1113.44 204.863 1125.98 206.344C1126.36 206.467 1125.81 207.306 1120.57 209.676C1120 210.169 1120.51 210.86 1127.12 209.676C1127.03 210.169 1125.18 213.156 1123.13 213.748C1122.85 214.118 1125.7 214.118 1129.4 213.378L1133.39 211.897L1135.67 211.156V233H1142.22V211.156L1146.78 213.378C1154.19 215.969 1155.23 213.871 1154.76 213.378L1151.34 211.156C1160.91 213.23 1162.35 212.514 1161.88 211.897C1159.83 211.008 1157.8 207.824 1157.04 206.344C1165.47 205.159 1166.44 203.382 1165.87 202.641C1158.8 199.679 1150.77 189.807 1147.63 185.24C1158.35 187.906 1159.88 187.092 1159.31 186.351C1154.07 182.797 1148.2 171.295 1145.92 165.989C1152.31 167.469 1152.76 166.606 1152.19 165.989C1148.77 164.508 1144.88 157.473 1143.36 154.141C1147.46 154.437 1147.92 153.524 1147.63 153.031Z" fill="#121C2A"/>
<path d="M830.634 154.031C828.811 152.253 824.366 141.936 822.372 137C820.093 142.307 815.079 153.142 813.256 154.031C813.161 154.401 813.711 155.141 816.674 155.141C815.155 158.35 811.602 164.989 809.551 165.878C808.886 166.495 809.095 167.581 815.249 166.989C812.4 172.789 805.847 184.76 802.429 186.24C801.954 186.981 803.283 188.018 812.4 186.24C809.266 191.424 801.915 202.16 797.585 203.641C796.16 204.258 796.445 205.863 808.98 207.344C809.36 207.467 808.81 208.306 803.568 210.676C802.998 211.169 803.511 211.86 810.121 210.676C810.026 211.169 808.183 214.156 806.132 214.748C805.847 215.118 808.696 215.118 812.4 214.378L816.388 212.897L818.667 212.156V234H825.22V212.156L829.778 214.378C837.187 216.969 838.231 214.871 837.756 214.378L834.338 212.156C843.91 214.23 845.354 213.514 844.879 212.897C842.828 212.008 840.795 208.824 840.036 207.344C848.468 206.159 849.437 204.382 848.867 203.641C841.802 200.679 833.768 190.807 830.634 186.24C841.346 188.906 842.884 188.092 842.315 187.351C837.073 183.797 831.204 172.295 828.925 166.989C835.306 168.469 835.762 167.606 835.192 166.989C831.774 165.508 827.88 158.473 826.361 155.141C830.463 155.437 830.919 154.524 830.634 154.031Z" fill="#121C2A"/>
<path d="M71.8086 89.7328C69.7048 87.8824 64.5767 77.1399 62.2756 72C59.6458 77.5254 53.8603 88.8076 51.7565 89.7328C51.6469 90.1183 52.2825 90.8893 55.7012 90.8893C53.9476 94.2303 49.8488 101.144 47.482 102.069C46.715 102.711 46.956 103.842 54.0564 103.225C50.7692 109.265 43.2084 121.729 39.2638 123.271C38.7159 124.042 40.2499 125.121 50.769 123.271C47.1528 128.668 38.671 139.847 33.6744 141.389C32.0308 142.032 32.3596 143.702 46.8234 145.244C47.262 145.373 46.6271 146.247 40.5786 148.714C39.9212 149.228 40.5129 149.947 48.1392 148.714C48.0296 149.228 45.9039 152.337 43.5371 152.954C43.2084 153.34 46.4956 153.34 50.769 152.569L55.3711 151.027L58.0009 150.256V173H65.5616V150.256L70.8211 152.569C79.3692 155.267 80.5745 153.083 80.0266 152.569L76.082 150.256C87.127 152.414 88.7926 151.669 88.2447 151.027C85.8779 150.102 83.533 146.786 82.6564 145.244C92.3866 144.011 93.5043 142.16 92.8468 141.389C84.6945 138.305 75.4245 128.025 71.8086 123.271C84.1685 126.047 85.9436 125.198 85.2862 124.427C79.2377 120.727 72.466 108.751 69.8362 103.225C77.1996 104.767 77.7256 103.868 77.0681 103.225C73.1235 101.683 68.6309 94.3588 66.8777 90.8893C71.6113 91.1977 72.1373 90.2468 71.8086 89.7328Z" fill="#121C2A"/>
<path d="M1828.63 53.0305C1826.81 51.2534 1822.37 40.9364 1820.37 36C1818.09 41.3066 1813.08 52.142 1811.26 53.0305C1811.16 53.4008 1811.71 54.1412 1814.67 54.1412C1813.15 57.3499 1809.6 63.9893 1807.55 64.8779C1806.89 65.4949 1807.1 66.5809 1813.25 65.9886C1810.4 71.7888 1803.85 83.7595 1800.43 85.2405C1799.95 85.9809 1801.28 87.0176 1810.4 85.2405C1807.27 90.4237 1799.91 101.16 1795.58 102.641C1794.16 103.258 1794.44 104.863 1806.98 106.344C1807.36 106.467 1806.81 107.306 1801.57 109.676C1801 110.169 1801.51 110.86 1808.12 109.676C1808.03 110.169 1806.18 113.156 1804.13 113.748C1803.85 114.118 1806.7 114.118 1810.4 113.378L1814.39 111.897L1816.67 111.156V133H1823.22V111.156L1827.78 113.378C1835.19 115.969 1836.23 113.871 1835.76 113.378L1832.34 111.156C1841.91 113.23 1843.35 112.514 1842.88 111.897C1840.83 111.008 1838.8 107.824 1838.04 106.344C1846.47 105.159 1847.44 103.382 1846.87 102.641C1839.8 99.6794 1831.77 89.8066 1828.63 85.2405C1839.35 87.9061 1840.88 87.0916 1840.31 86.3511C1835.07 82.7969 1829.2 71.2952 1826.92 65.9886C1833.31 67.4695 1833.76 66.6056 1833.19 65.9886C1829.77 64.5076 1825.88 57.4733 1824.36 54.1412C1828.46 54.4374 1828.92 53.5242 1828.63 53.0305Z" fill="#121C2A"/>
<path d="M1646.12 112.363C1645.18 101.552 1643.89 91.9415 1643.49 86.5358L1653.07 85.3345C1652.67 92.9926 1651.74 105.429 1651.74 106.958C1651.74 109.66 1651.64 111.913 1652.03 113.715C1653.07 124.977 1650.08 135.188 1653.07 139.392H1648.49C1647.7 132.635 1646.12 118.58 1646.12 116.418V112.363Z" fill="#131C2B"/>
<path d="M1655.7 112.363C1654.75 101.552 1653.46 91.9415 1653.07 86.5358L1662.65 85.3345C1662.25 92.9926 1661.32 105.429 1661.32 106.958C1661.32 109.66 1661.22 111.913 1661.61 113.715C1662.65 124.977 1659.65 135.188 1662.65 139.392H1658.07C1657.28 132.635 1655.7 118.58 1655.7 116.418V112.363Z" fill="#131C2B"/>
<path d="M1669.53 81.9062C1669.6 80.0928 1668.2 77.4502 1668.01 77.1223L1665.97 77.4026C1665.98 78.7713 1665.39 80.9958 1665.67 82.5533C1665.98 84.3177 1666.12 84.4073 1666.42 84.2596C1666.65 84.1469 1666.12 81.0571 1666.52 82.95C1666.61 83.3706 1666.46 85.7623 1667.19 85.71L1667.17 82.3558C1667.34 82.3326 1667.33 86.3382 1667.7 86.398C1668.47 86.5239 1667.68 80.9086 1668.01 82.6251C1668.3 84.1007 1667.82 86.0243 1668.46 86.0666C1669.09 86.1088 1668.56 78.5144 1668.94 84.926C1668.96 85.2065 1669.08 85.2673 1669.25 85.244C1669.52 85.2092 1669.46 83.4216 1669.53 81.9062Z" fill="#131C2B"/>
<path d="M1650.7 19.2576C1652.32 18.5226 1656.84 18.7256 1658.22 22.6255C1659.36 24.0572 1660.91 34.0774 1662.15 43.0304C1665.34 43.2968 1666.75 45.9321 1669 72.0005C1669.21 74.4912 1669 78.5005 1669 78.5005H1665.23L1662.19 56.036C1662.06 56.0436 1661.91 56.0512 1661.77 56.0587C1660.99 59.4191 1659.67 66.2903 1661 68.5005C1663 74.0005 1669.84 102.964 1672.06 108C1671.17 108.899 1669.1 110.426 1668.03 109.348C1666.68 108 1661.3 109.348 1659.98 109.348C1658.67 109.348 1655.95 109.348 1651.88 108C1647.81 106.653 1643.74 106.687 1641.03 103.696C1639.5 102 1638.5 101.5 1637 101L1644.05 69.7595C1644.97 66.9971 1645.09 61.011 1644.76 56.2068C1642.63 55.9947 1641.37 55.6018 1641.7 54.9364C1642.04 54.2665 1642.5 52.2637 1643.01 49.5908L1620.7 25.29L1623.7 22.2835C1630.9 28.8979 1636.5 34.6626 1640 37.0005C1642.33 38.5597 1643.47 39.5291 1644.62 40.1667C1645.68 33.4077 1646.61 26.6347 1646.74 25.29C1647.1 21.6636 1648.76 20.1415 1650.7 19.2576Z" fill="#131C2B"/>
<path d="M1618.75 17.116C1619.18 16.0419 1624.28 22.7836 1623.51 22.784C1624.28 23.4113 1624.46 26.2264 1621.66 24.3832C1618.97 22.6069 1618.09 21.6906 1618.01 21.2326C1617.91 20.6313 1618.65 20.8031 1618.65 20.8031C1618.43 20.2019 1618.92 20.0301 1619.35 20.116C1619.35 19.4887 1619.86 19.6006 1620.24 19.6006L1618.86 17.5428C1618.86 17.5428 1618.69 17.2496 1618.75 17.116Z" fill="#131C2B"/>
<path fill-rule="evenodd" clip-rule="evenodd" d="M1684.39 112C1683.69 112.171 1682.96 113.087 1682.5 113.763L1682.47 113.755C1681.95 113.657 1681.43 113.663 1680.93 113.77C1680.51 113.089 1679.94 112.515 1679.25 112.099C1679.25 112.099 1678.58 113.053 1678.85 114.955C1678.65 115.171 1678.48 115.41 1678.33 115.669C1678 116.415 1677.91 117.246 1678.06 118.048C1678.28 118.88 1678.72 119.637 1679.33 120.239C1679.34 120.871 1679.11 121.484 1678.7 121.964C1677.53 123.005 1672.04 130.112 1673.15 136.031C1674.26 141.949 1685.04 138.628 1685.04 138.628C1685.04 138.628 1685.08 138.587 1685.15 138.505C1688.56 138.768 1690.3 134.931 1690.3 134.931C1691.31 132.651 1690.71 128.774 1690.71 128.774C1690.58 127.843 1689.83 128.576 1689.83 128.576C1689.99 130.552 1689.65 132.535 1688.84 134.346C1688.46 135.291 1687.74 136.06 1686.83 136.501C1686.63 136.594 1686.43 136.671 1686.23 136.732C1686.79 135.435 1687.27 133.472 1686.9 130.846C1686.9 130.846 1685.11 126.187 1684.31 124.184C1683.73 122.729 1684.06 121.964 1684.41 121.165L1684.41 121.165C1684.5 120.946 1684.6 120.725 1684.68 120.487C1685.21 119.197 1685.32 117.769 1684.99 116.412C1684.89 116.027 1684.73 115.661 1684.53 115.325C1684.67 114.898 1684.76 114.45 1684.77 113.997C1684.79 113.311 1684.66 112.629 1684.39 112Z" fill="#131C2B"/>
</svg>
