<svg width="1920" height="1086" viewBox="0 0 1920 1086" fill="none" xmlns="http://www.w3.org/2000/svg">
<g clip-path="url(#clip0_349_97)">
<path d="M591.598 859.346L570.498 860.146C574.998 860.546 582.398 860.246 591.598 859.346Z" fill="#1F1D39"/>
<path d="M1333.6 546.743C1339.9 578.543 1367.5 577.043 1367.5 577.043C1410.2 571.343 1443.8 541.043 1443.8 541.043C1472.8 500.843 1486.8 457.743 1486.8 457.743C1503.5 423.043 1521.9 404.443 1534.9 394.743C1514.2 396.143 1505.1 402.643 1505.1 402.643C1461.9 422.843 1369.8 480.143 1369.8 480.143C1364.4 485.043 1353.3 489.543 1340.8 492.843C1331.8 519.443 1333.6 546.743 1333.6 546.743Z" fill="#2E2D4B"/>
<path d="M1948 256.343C1875.9 244.043 1799.2 289.743 1799.2 289.743C1733.9 320.943 1693.2 339.143 1674.3 347.343L1674.2 356.743C1640.3 464.643 1507.2 685.243 1507.2 685.243L1161.5 701.743L1193.7 572.043C1209.2 558.043 1235.5 532.5 1235.5 532.5C1240.8 525.4 1220 532 1220 532C1210 531.6 1234 513 1234 513C1241.8 503.6 1232.5 504.5 1232.5 504.5C1222.4 506.6 1215 507 1215 507C1210.4 504.5 1220.6 488 1222 486C1221.3 485.8 1220.7 485.743 1220.7 485.743C1203 489.943 1147 552.143 1147 552.143C1129.4 553.943 1104.6 550.643 1104.6 550.643C1059.7 546.643 1006.4 568.843 1006.4 568.843C948.199 588.543 902.599 603.843 902.599 603.843C841.899 622.243 832.099 617.043 832.099 617.043C807.599 604.043 782.899 595.843 782.899 595.843C763.099 589.043 716.499 565.543 716.499 565.543C687.299 542.643 661.199 540.543 661.199 540.543C608.899 527.543 550.599 506.143 541.399 502.743C538.999 500.543 536.599 498.043 533.999 495.343C518.299 477.043 485.399 435.443 475.799 423.243L479.399 452.743C483.799 469.843 507.699 499.843 507.699 499.843C514.699 512.243 516.699 526.843 516.699 526.843L530.699 521.343C542.699 533.943 574.599 552.043 574.599 552.043C613.699 577.743 645.099 607.943 645.099 607.943C678.699 645.543 703.699 696.343 703.699 696.343C703.699 696.343 710.399 760.043 717.399 766.343L1918.3 837.943L1948 256.343Z" fill="#2E2D4B"/>
<path d="M474.797 422.044C473.597 420.544 472.997 419.744 472.997 419.744L472.697 419.944C473.597 420.744 474.297 421.444 474.797 422.044Z" fill="#2E2D4B"/>
<path d="M407.7 599.143C358.6 575.543 315.1 532.743 315.1 532.743C303.2 515.343 284.5 480.743 284.5 480.743C282.4 468.543 258.4 443.443 258.4 443.443L259.7 442.243C272.8 437.443 282.3 436.243 293.9 432.443C280.8 422.943 278.1 418.343 270.8 413.643C259.6 404.743 251.7 398.943 251.7 398.943C223 363.943 199.9 346.043 199.9 346.043C88.7001 308.043 -42.3 251.143 -42.3 251.143L-58 682.843L174.1 752.443L555.6 709.943C553.3 709.643 551.8 709.243 551.2 708.643C544 701.143 407.7 599.143 407.7 599.143Z" fill="#2E2D4B"/>
<path d="M1213 508.5C1213 508.5 1213 510.5 1225 508.5C1225 508.5 1240.3 501.1 1232.4 510.5C1232.4 510.5 1207.4 535.5 1217.61 536.544C1217.61 536.544 1240.9 524.5 1230.9 534.5C1230.9 534.5 1209.31 558.144 1193.81 572.044L1143.11 752.444L1509.41 752.844C1509.41 752.844 1640.31 464.544 1674.31 356.644L1674.41 347.244C1666.11 350.844 1662.01 352.544 1662.01 352.544C1619.51 367.544 1589.11 379.444 1589.11 379.444C1581.71 385.044 1574.31 387.944 1574.31 387.944C1566.51 394.944 1547.91 394.544 1547.91 394.544C1543.11 394.344 1538.81 394.444 1534.91 394.744C1521.91 404.444 1503.51 423.144 1486.81 457.744C1486.81 457.744 1472.71 500.844 1443.81 541.044C1443.81 541.044 1410.21 571.344 1367.51 577.044C1367.51 577.044 1339.91 578.444 1333.61 546.744C1333.61 546.744 1331.81 519.444 1340.81 492.844C1320.71 498.144 1314.21 502.544 1290.91 488.744C1277.31 480.644 1253.91 502.644 1253.91 502.644C1249.91 508.544 1243.81 504.744 1243.81 504.744C1232.01 490.544 1224.81 486.944 1222.11 486.044C1222 487 1222.51 487.344 1222.51 487.444C1222.51 487.444 1222.41 487.044 1222.11 486.044C1222.05 486.026 1222.11 486.044 1222 486C1220.6 488 1211.5 502.5 1213 508.5Z" fill="#1F1D39"/>
<path d="M475.699 423.144C475.699 423.144 475.399 422.744 474.799 422.044C475.099 422.344 475.399 422.744 475.699 423.144Z" fill="#1F1D39"/>
<path d="M644.903 607.742C643.603 606.442 612.703 577.042 574.503 551.942C574.503 551.942 574.503 551.942 574.403 551.942C573.203 551.242 543.603 534.342 531.303 522.042C530.703 522.242 530.003 522.142 529.503 521.642L518.503 526.042C518.303 525.042 517.203 524.442 516.303 524.842C515.503 520.442 513.102 509.542 507.702 499.942C507.702 499.842 507.603 499.842 507.603 499.742C506.103 497.842 483.702 469.442 479.402 452.842C479.402 452.742 479.402 452.642 479.402 452.642L475.902 423.642C475.702 423.442 475.602 423.142 475.602 422.842C475.402 422.542 475.202 422.342 475.002 422.142C475.002 422.142 475.002 422.142 474.902 422.042C474.502 421.542 473.902 421.042 473.202 420.342C472.902 420.542 472.502 420.542 472.202 420.242L472.002 420.342C471.802 420.042 471.302 419.942 470.902 420.142C470.702 420.242 470.402 420.242 470.202 420.142C469.902 420.042 469.702 420.042 469.402 420.142C444.402 433.342 408.302 448.142 406.902 448.742H406.802C385.302 459.642 363.702 461.342 347.302 465.342C347.302 465.342 342.502 463.042 342.202 463.142C318.102 445.242 315.102 441.142 306.102 433.842C305.802 432.742 299.202 428.542 299.102 428.542C298.102 427.542 297.102 427.442 297.102 427.442C296.102 427.442 285.702 429.042 283.602 429.942C272.202 433.642 272.602 437.242 259.802 442.042C259.702 442.142 259.602 442.142 259.502 442.242C260.102 442.842 260.002 443.842 259.402 444.442C264.102 449.442 282.402 469.642 284.402 480.442C284.502 480.542 284.502 480.742 284.502 480.842C286.002 483.642 303.602 515.842 314.902 532.542C315.002 532.642 315.002 532.742 315.102 532.742C317.502 535.142 359.802 576.042 407.502 598.942C407.602 599.042 407.702 599.042 407.702 599.142C412.102 602.442 544.003 701.142 551.103 708.542C551.703 709.142 553.203 709.542 555.403 709.842C555.503 709.842 555.703 719.142 555.803 719.142L576.403 720.942C576.403 720.942 592.303 767.542 592.003 762.442C631.503 760.342 716.603 755.242 730.003 753.442C729.503 752.442 701.403 694.342 702.503 694.242C697.603 684.642 674.603 641.142 644.903 607.742C644.903 607.742 644.903 607.842 644.903 607.742Z" fill="#1F1D39"/>
<path d="M68.9966 354.243C68.9966 354.243 129.697 404.843 167.497 466.843C152.497 475.643 356.097 758.543 382.097 751.443C432.097 737.743 -56.6035 744.499 -56.6035 744.499L-45.1035 328.243L68.9966 354.243Z" fill="#1F1D39"/>
<path d="M276.199 440.845C281.699 442.745 284.299 450.145 286.499 455.045C290.499 464.045 294.499 472.945 298.399 481.945C305.899 498.745 312.399 516.745 323.399 531.745C333.499 545.645 346.399 556.845 358.899 568.545C371.599 580.445 382.799 593.246 391.999 607.946C395.399 603.546 398.799 599.146 402.199 594.746C382.799 588.046 364.799 578.246 348.599 565.946C346.299 571.446 343.999 576.946 341.699 582.446C345.099 583.246 348.399 584.046 351.799 584.846C355.799 585.846 359.799 584.146 361.999 580.746C367.699 571.545 361.099 562.946 354.899 556.146C349.199 549.846 342.999 544.045 337.099 538.045C325.499 526.345 316.499 513.945 310.699 498.545C304.899 483.345 300.799 467.345 292.999 452.945C284.799 437.745 269.799 421.145 250.999 430.545C246.099 433.045 244.899 441.045 249.199 444.645C263.899 457.145 269.599 475.645 274.899 493.445C278.299 504.745 294.099 499.845 292.299 488.645C290.199 476.045 285.299 464.045 278.199 453.545C271.699 444.045 256.399 452.745 262.699 462.645C269.299 473.145 276.199 483.445 283.599 493.345C290.399 502.445 297.299 515.345 309.699 516.345C315.499 516.845 319.999 510.245 318.399 504.945C315.899 496.845 313.299 488.745 310.799 480.545C305.299 482.845 299.799 485.145 294.299 487.445C307.499 505.945 321.399 523.945 336.299 541.146C343.599 549.546 350.999 557.846 358.699 565.846C365.199 572.746 372.099 579.746 374.299 589.346C376.899 600.646 394.299 595.845 391.699 584.545C389.299 574.145 382.999 565.646 375.999 557.945C368.299 549.445 360.399 541.246 352.799 532.645C337.599 515.345 323.299 497.145 309.999 478.445C304.399 470.645 290.299 474.945 293.499 485.345C295.999 493.445 298.599 501.545 301.099 509.745C303.999 505.945 306.899 502.145 309.799 498.345C311.099 498.445 308.499 496.245 308.099 495.745C306.499 493.845 304.999 491.845 303.499 489.945C300.599 486.145 297.699 482.245 294.899 478.345C289.099 470.345 283.599 462.045 278.399 453.645C273.199 456.645 267.999 459.745 262.899 462.745C269.299 472.145 273.399 482.345 275.199 493.545C280.999 491.945 286.799 490.345 292.599 488.745C286.499 468.045 279.299 446.345 262.299 431.945C261.699 436.645 261.099 441.345 260.499 446.045C265.299 443.645 270.499 450.545 272.799 453.745C276.599 459.045 279.599 464.945 282.199 470.945C287.499 483.445 290.899 496.645 296.199 509.145C301.699 522.445 309.199 533.945 318.999 544.545C323.999 549.945 329.299 555.045 334.499 560.245C336.899 562.645 339.299 565.045 341.599 567.545C342.699 568.745 343.899 570.046 344.999 571.346C345.599 571.846 345.999 572.446 346.399 573.146C346.999 574.146 347.199 573.645 346.999 571.545C350.399 570.145 353.799 568.746 357.199 567.446C353.799 566.646 350.499 565.845 347.099 565.045C336.599 562.545 332.299 575.545 340.199 581.545C357.699 594.845 377.299 605.046 398.099 612.246C405.499 614.846 412.299 605.446 408.299 599.045C398.299 583.045 386.199 568.846 372.399 555.945C359.899 544.245 346.199 533.045 336.699 518.445C326.199 502.245 319.299 483.345 311.499 465.745C304.699 450.345 299.299 429.645 281.699 423.545C269.999 419.645 265.299 437.045 276.199 440.845Z" fill="#2E2D4B"/>
<path d="M1945.6 230.444C1955.3 226.744 1962 225.044 1963.7 226.544L1992.6 751.244L1646.2 739.744C1646.2 739.744 1732 610.844 1748.6 572.644C1748.6 572.644 1771.6 539.544 1769.5 476.444C1769.5 476.444 1789.8 336.544 1826.4 289.444C1863 242.344 1826.4 289.444 1826.4 289.444C1826.4 289.444 1908 244.844 1945.6 230.444Z" fill="#1F1D39"/>
<path d="M288.398 734.115C288.398 734.115 327.502 678.417 364.506 655.771C364.506 655.771 407.81 620.394 506.82 667.4C506.82 667.4 622.831 742.072 628.331 750.274C633.932 758.598 288.398 734.115 288.398 734.115Z" fill="#1F1D39"/>
</g>
<defs>
<clipPath id="clip0_349_97">
<rect width="1920" height="1086" fill="white"/>
</clipPath>
</defs>
</svg>
