<svg width="1920" height="506" viewBox="0 0 1920 506" fill="none" xmlns="http://www.w3.org/2000/svg">
<path d="M32.6598 14.052C24.5 10.5 7 3 0 0V506H1920V426.225C1887.34 428.718 1855.67 407.112 1849.73 400.464C1843.79 393.816 1824 379.689 1814.1 376.365C1806.19 373.706 1800.91 375.257 1799.26 376.365C1794.64 378.858 1782.24 382.349 1769.57 376.365C1756.9 370.382 1746.47 368.887 1742.85 368.887C1707.22 370.216 1683.13 360.577 1675.55 355.591C1653.11 343.403 1602.51 318.03 1579.55 314.041C1556.59 310.052 1527.09 316.811 1515.22 320.689C1500.37 323.182 1474.64 306.562 1452.87 309.886C1435.45 312.545 1408 312.656 1396.45 312.379C1349.94 311.548 1327.18 325.675 1270.76 319.027C1214.35 312.379 1202.47 297.421 1172.78 279.97C1143.09 262.519 1105.48 255.04 1079.75 247.561C1054.02 240.083 1043.13 234.266 1033.24 230.942C1023.34 227.618 1002.56 217.646 983.753 221.801C968.709 225.125 948.897 224.571 939 221.801C929.499 220.471 921.526 213.81 908 205.5C893.485 199.683 853.629 147.136 822.5 158.5C759.5 181.5 680.907 225.956 666.062 236.759C651.216 247.561 640.33 246.73 630.433 245.899C620.536 245.068 597.773 230.111 579.959 230.111C562.144 230.111 565.93 238.972 535.423 230.111C507.5 222 477.5 183.411 464.5 180C432.83 171.69 422.753 171.824 399 168.5C375.247 165.176 341.443 132.053 337.485 122.912C334.318 115.6 329.567 113.772 327.588 113.772C316.701 113.772 281.55 124.574 275.612 127.898C269.674 131.222 254.5 140.5 246.911 134.546C234.782 125.031 186.062 79.7008 178.144 73.0529C170.227 66.4049 157.361 69.7289 146.474 68.8979C135.588 68.0669 100.572 48.4816 80.1649 34.8272C59.5 21 42 18.1178 32.6598 14.052Z" fill="url(#paint0_linear_314_111)"/>
<defs>
<linearGradient id="paint0_linear_314_111" x1="960" y1="139.532" x2="960" y2="506" gradientUnits="userSpaceOnUse">
<stop stop-color="#12152B"/>
<stop offset="1" stop-color="#192234" stop-opacity="0"/>
</linearGradient>
</defs>
</svg>
