<svg width="272" height="42" viewBox="0 0 272 42" fill="none" xmlns="http://www.w3.org/2000/svg">
<path d="M271.001 39.7804C271.001 39.7804 273.651 27.8804 255.131 23.9204C236.611 19.9604 232.651 21.2704 216.781 18.6304C200.911 15.9904 212.781 19.9504 192.981 10.6904C173.181 1.43042 171.791 0.110417 154.601 1.43042C137.411 2.75042 134.761 6.72042 114.931 2.76042C95.101 -1.19958 86.001 5.30042 79.221 12.0004C71.001 20.1504 61.871 16.4704 46.001 15.1504C30.131 13.8304 13.001 23.1504 13.001 23.1504C13.001 23.1504 2.33097 26.8904 1.00097 36.1504C-0.329033 45.4104 271.001 39.7804 271.001 39.7804Z" fill="#6B7081"/>
</svg>
