<svg width="1920" height="684" viewBox="0 0 1920 684" fill="none" xmlns="http://www.w3.org/2000/svg">
<path d="M101.991 30.9303C60.7984 3.64277 16.8334 -0.960609 0 0.14864V684H1010.01H1920V529.26C1908.12 528.705 1880.79 525.1 1866.53 515.117C1848.71 502.638 1847.72 504.302 1841.77 505.965C1837.02 507.297 1833.19 506.52 1831.87 505.965C1794.24 500.974 1756.62 481.007 1738.79 466.864C1724.53 455.55 1714.37 457.159 1711.07 459.377C1701.5 462.15 1676.81 466.698 1654.63 462.705C1632.45 458.711 1605.12 446.066 1594.22 440.242C1589.27 438.579 1578.58 436.083 1575.41 439.411C1572.24 442.738 1567.49 443.016 1565.51 442.738C1563.2 442.184 1556.99 441.407 1550.65 442.738C1542.73 444.402 1520.95 433.587 1504.12 426.1C1487.28 418.612 1473.42 421.108 1470.45 423.604C1467.48 426.1 1459.56 421.108 1453.62 409.461C1447.67 397.814 1436.78 387.83 1434.8 385.335C1433.22 383.338 1430.18 383.393 1428.86 383.671C1424.57 384.225 1413.21 383.671 1402.12 377.015C1391.03 370.36 1382.32 369.251 1379.35 369.528C1372.09 370.36 1345.37 381.771 1331.82 365.368C1315 345 1310.5 341.5 1308.5 341.5C1307.17 341.5 1306.5 341.5 1304.5 342C1290.64 346.16 1261.52 375.351 1251.61 378.679C1241.71 382.007 1219.93 360.377 1213 352.889C1207.45 346.899 1202.1 346.511 1200.12 347.066C1190.22 346.234 1186.26 342.074 1163.49 327.099C1140.71 312.124 1117.94 306.301 1082.29 300.477C1046.64 294.654 1042.68 290.494 1010.01 272.191C977.328 253.889 858.504 250.561 831.769 252.225C810.381 253.556 788.53 240.023 780.279 233.09C763.445 223.939 737.7 228.931 695.121 230.594C652.542 232.258 646.601 224.771 628.778 214.788C610.954 204.804 611.944 189.829 606.003 183.174C601.25 177.85 590.82 176.518 586.199 176.518C568.375 177.35 569.366 169.863 541.64 160.712C513.914 151.56 496.091 159.048 444.6 157.384C393.11 155.72 381.227 135.754 329.737 119.115C278.247 102.476 286.168 111.627 220.815 96.6525C155.462 81.6777 153.481 65.0397 101.991 30.9303Z" fill="url(#paint0_linear_314_110)"/>
<defs>
<linearGradient id="paint0_linear_314_110" x1="960" y1="5.84726e-08" x2="960.349" y2="683.852" gradientUnits="userSpaceOnUse">
<stop stop-color="#1C1832"/>
<stop offset="1" stop-color="#454860"/>
</linearGradient>
</defs>
</svg>
