<svg width="1920" height="1080" viewBox="0 0 1920 1080" fill="none" xmlns="http://www.w3.org/2000/svg">
<g clip-path="url(#clip0_353_146)">
<path d="M1439.2 838.218C1440.11 835.827 1443.29 832.776 1443.68 832.348C1444.11 831.885 1444.47 831.485 1445.75 830.475C1446.25 830.08 1446.32 830.179 1446.25 829.95C1445.7 828.726 1446.08 827.603 1446.37 827.138C1447.41 825.821 1448.62 825.42 1449.49 825.204C1451.61 824.679 1453.16 824.875 1454.53 825.73C1455.9 826.586 1455.46 826.785 1456.93 826.029C1458.08 825.437 1461.65 823.243 1464.21 823.241C1466.78 823.238 1468.6 825.099 1469.33 826.392C1470 827.58 1469.93 827.643 1470.13 827.544C1472.05 826.848 1472.99 826.443 1473.95 824.897C1474.72 823.661 1475.86 823.491 1476.33 823.561C1477.48 823.767 1479.96 824.859 1480.66 827.576C1481.55 830.973 1481.37 831.655 1480.62 833.013C1480.01 834.1 1479.13 834.21 1478.04 834.156C1474.83 833.466 1474.6 833.547 1474.18 833.533C1472.27 833.468 1472.15 833.504 1472.34 834.077C1472.46 834.423 1472.86 835.438 1473.03 836.901C1473.2 838.363 1472.37 839.072 1471.93 839.243C1469.84 840.241 1467.4 840.694 1465.25 840.215C1463.79 839.891 1464.07 839.933 1463.46 840.114C1462.48 840.405 1458.71 841.645 1458.06 841.712C1457.41 841.779 1458.01 842.358 1458.28 843.16C1458.55 843.963 1458.12 844.261 1457.9 844.41C1457.57 844.634 1456.41 845.197 1454.44 844.552C1453.22 844.155 1452.83 843.923 1452.61 843.956C1449.92 844.375 1448.66 844.244 1446.14 843.981C1442.65 843.615 1440.85 842.563 1440.11 842.109C1439.19 841.374 1438.28 840.608 1439.2 838.218Z" fill="white"/>
<path d="M1478.03 834.157C1474.83 833.466 1474.6 833.548 1474.18 833.533C1474.7 832.66 1475.56 831.499 1475.15 829.704C1474.74 827.909 1473.66 826.109 1473.18 825.874C1473.59 825.499 1473.89 824.986 1473.95 824.898C1474.72 823.661 1475.86 823.492 1476.33 823.562C1477.48 823.768 1479.96 824.86 1480.66 827.577C1481.54 830.974 1481.37 831.656 1480.62 833.014C1480.01 834.101 1479.13 834.211 1478.03 834.157Z" fill="url(#paint0_linear_353_146)"/>
<path d="M1465.25 840.215C1463.79 839.891 1464.07 839.933 1463.46 840.115C1463.77 839.509 1463.95 837.479 1464.1 836.509C1464.45 834.765 1464.18 831.567 1461.18 828.293C1459.42 826.375 1458.09 825.969 1457.47 825.732C1458.62 825.14 1461.65 823.244 1464.21 823.241C1466.78 823.239 1468.6 825.1 1469.33 826.392C1470 827.581 1469.58 826.812 1470.25 828.001C1470.56 828.541 1472.15 833.505 1472.34 834.078C1472.46 834.424 1472.86 835.439 1473.03 836.901C1473.2 838.364 1472.37 839.072 1471.93 839.244C1469.84 840.241 1467.4 840.694 1465.25 840.215Z" fill="url(#paint1_linear_353_146)"/>
<path d="M1454.44 844.551C1453.22 844.154 1452.83 843.923 1452.61 843.955C1451.38 844.128 1450.34 844.205 1449.98 844.221C1449.79 843.648 1449.93 842.471 1450.27 841.487C1451.85 836.604 1451.29 835.419 1450.7 834.42C1450.07 833.347 1449.14 832.487 1448.71 832.111C1447.42 831.104 1446.21 830.628 1445.75 830.475C1446.25 830.079 1446.32 830.179 1446.25 829.949C1445.7 828.725 1446.08 827.602 1446.37 827.137C1447.41 825.821 1448.62 825.419 1449.49 825.203C1451.61 824.678 1453.16 824.874 1454.53 825.729C1455.9 826.585 1455.6 826.601 1456.33 826.323C1457.76 825.772 1461.26 837.133 1459.16 841.439C1458.73 841.575 1458.35 841.682 1458.06 841.712C1457.41 841.779 1458.01 842.357 1458.28 843.16C1458.55 843.962 1458.12 844.26 1457.9 844.409C1457.57 844.633 1456.41 845.196 1454.44 844.551Z" fill="url(#paint2_linear_353_146)"/>
<path d="M1439.2 838.217C1440.12 835.827 1443.29 832.775 1443.69 832.348C1445.88 832.707 1447.31 833.685 1447.68 834.181C1449.37 836.455 1448.35 839.407 1447.76 840.464C1446.43 842.855 1446.13 843.307 1446.15 843.98C1442.65 843.614 1440.85 842.563 1440.11 842.109C1439.19 841.374 1438.28 840.608 1439.2 838.217Z" fill="url(#paint3_linear_353_146)"/>
<path d="M1443.13 837.589C1443.06 837.983 1442.73 838.72 1441.94 838.515C1440.96 838.259 1441.61 836.73 1443.13 837.589Z" fill="#8D583A"/>
<path d="M1446.12 843.978L1446.12 843.598C1446.09 843.103 1447.63 840.881 1448.14 839.595C1448.65 838.309 1449 836.565 1447.93 834.611C1447.08 833.048 1445.52 833.056 1443.94 832.388L1443.74 832.195" stroke="#B87B58" stroke-width="0.625239"/>
<path d="M1449.98 844.222C1449.94 844.107 1450 842.701 1450.51 841.415C1451.02 840.129 1451.34 837.89 1451.21 835.911C1451.08 833.932 1449.79 832.925 1449.07 832.383C1448.28 831.79 1446.88 830.971 1446.04 830.63L1445.84 830.437" stroke="#B87B58" stroke-width="0.625239"/>
<path d="M1456.45 826.289C1456.73 826.711 1457.98 827.603 1459.32 833.512C1460.42 838.348 1458.99 840.546 1459.3 841.463" stroke="#B87B58" stroke-width="0.625239"/>
<path d="M1469.98 827.578C1470.42 828.079 1471.32 829.954 1472.32 833.695" stroke="#B87B58" stroke-width="0.625239"/>
<path d="M1457.47 825.73C1457.71 826.038 1459.22 826.656 1460.01 827.249C1460.38 827.52 1461.66 828.527 1463.25 831.21C1464.51 833.358 1464.28 835.991 1464.01 837.039L1463.51 839.96L1463.55 840.075" stroke="#B87B58" stroke-width="0.625239"/>
<path d="M1473.18 825.874C1473.38 826.067 1473.83 826.502 1474.41 827.526C1475.08 828.714 1475.48 829.48 1475.25 831.188C1475.05 832.683 1474.37 832.963 1474.32 833.609" stroke="#B87B58" stroke-width="0.625239"/>
</g>
<defs>
<linearGradient id="paint0_linear_353_146" x1="1475.12" y1="823.76" x2="1478.27" y2="834.384" gradientUnits="userSpaceOnUse">
<stop stop-color="#E59E75"/>
<stop offset="1" stop-color="#CF7C4C"/>
</linearGradient>
<linearGradient id="paint1_linear_353_146" x1="1462.72" y1="823.405" x2="1467.82" y2="840.622" gradientUnits="userSpaceOnUse">
<stop stop-color="#E59E75"/>
<stop offset="1" stop-color="#CF7C4C"/>
</linearGradient>
<linearGradient id="paint2_linear_353_146" x1="1450.13" y1="825.003" x2="1456.07" y2="845.051" gradientUnits="userSpaceOnUse">
<stop stop-color="#E69E75"/>
<stop offset="1" stop-color="#C97B4F"/>
</linearGradient>
<linearGradient id="paint3_linear_353_146" x1="1441.88" y1="832.883" x2="1445.25" y2="844.247" gradientUnits="userSpaceOnUse">
<stop stop-color="#E59E75"/>
<stop offset="1" stop-color="#CF7C4C"/>
</linearGradient>
<clipPath id="clip0_353_146">
<rect width="1920" height="1080" fill="white"/>
</clipPath>
</defs>
</svg>
