<svg width="1920" height="1080" viewBox="0 0 1920 1080" fill="none" xmlns="http://www.w3.org/2000/svg">
<g clip-path="url(#clip0_353_146)">
<path d="M1375 829.405C1375.8 825.019 1380.28 818.847 1380.82 817.997C1381.41 817.076 1381.9 816.282 1383.77 814.176C1384.51 813.351 1384.67 813.502 1384.46 813.128C1383.11 811.173 1383.4 809.126 1383.76 808.241C1385.12 805.673 1387.08 804.634 1388.51 804.012C1391.99 802.502 1394.73 802.397 1397.37 803.482C1400.02 804.567 1399.32 805.035 1401.6 803.314C1403.39 801.964 1408.84 797.158 1413.26 796.422C1417.68 795.685 1421.43 798.375 1423.12 800.397C1424.67 802.254 1424.57 802.382 1424.87 802.157C1427.96 800.407 1429.45 799.439 1430.6 796.498C1431.53 794.145 1433.44 793.528 1434.28 793.513C1436.33 793.54 1440.95 794.717 1443.06 799.203C1445.69 804.811 1445.61 806.037 1444.76 808.596C1444.07 810.643 1442.59 811.084 1440.68 811.305C1434.93 811.028 1434.55 811.235 1433.82 811.33C1430.5 811.765 1430.3 811.862 1430.83 812.795C1431.14 813.359 1432.16 814.996 1432.94 817.47C1433.71 819.944 1432.51 821.404 1431.81 821.824C1428.53 824.142 1424.46 825.621 1420.59 825.411C1417.97 825.268 1418.47 825.259 1417.47 825.748C1415.88 826.529 1409.79 829.744 1408.69 830.046C1407.58 830.348 1408.81 831.174 1409.54 832.481C1410.27 833.787 1409.61 834.427 1409.28 834.747C1408.79 835.227 1406.98 836.53 1403.36 835.98C1401.14 835.642 1400.38 835.355 1400.02 835.473C1395.52 836.965 1393.3 837.098 1388.87 837.362C1382.72 837.73 1379.27 836.429 1377.85 835.857C1376.02 834.852 1374.2 833.791 1375 829.405Z" fill="white"/>
<path d="M1440.68 811.306C1434.93 811.029 1434.55 811.235 1433.82 811.331C1434.44 809.676 1435.54 807.426 1434.24 804.448C1432.94 801.469 1430.5 798.67 1429.59 798.404C1430.18 797.64 1430.53 796.668 1430.6 796.499C1431.52 794.146 1433.44 793.528 1434.27 793.514C1436.33 793.541 1440.95 794.717 1443.06 799.204C1445.69 804.812 1445.61 806.038 1444.76 808.597C1444.07 810.644 1442.59 811.085 1440.68 811.306Z" fill="url(#paint0_linear_353_146)"/>
<path d="M1420.59 825.412C1417.97 825.269 1418.47 825.26 1417.47 825.748C1417.81 824.615 1417.46 821.06 1417.4 819.346C1417.44 816.235 1415.92 810.797 1409.68 806.005C1406.02 803.198 1403.6 802.875 1402.45 802.644C1404.24 801.294 1408.84 797.159 1413.26 796.422C1417.68 795.686 1421.43 798.376 1423.12 800.397C1424.67 802.255 1423.69 801.05 1425.24 802.908C1425.95 803.752 1430.3 811.863 1430.83 812.796C1431.14 813.359 1432.16 814.997 1432.94 817.471C1433.71 819.945 1432.51 821.404 1431.81 821.825C1428.53 824.143 1424.46 825.622 1420.59 825.412Z" fill="url(#paint1_linear_353_146)"/>
<path d="M1403.36 835.981C1401.14 835.643 1400.38 835.356 1400.02 835.473C1397.95 836.124 1396.19 836.552 1395.57 836.684C1395.04 835.751 1394.9 833.68 1395.17 831.885C1396.3 823.008 1394.96 821.123 1393.61 819.569C1392.17 817.898 1390.28 816.68 1389.41 816.155C1386.86 814.786 1384.63 814.308 1383.77 814.177C1384.51 813.351 1384.67 813.502 1384.46 813.129C1383.11 811.173 1383.4 809.127 1383.76 808.241C1385.12 805.674 1387.08 804.634 1388.51 804.013C1391.99 802.503 1394.73 802.397 1397.37 803.482C1400.02 804.567 1399.51 804.68 1400.66 803.993C1402.95 802.634 1412.71 821.233 1410.49 829.263C1409.8 829.619 1409.17 829.914 1408.69 830.046C1407.58 830.348 1408.81 831.175 1409.54 832.481C1410.27 833.788 1409.61 834.428 1409.28 834.747C1408.79 835.227 1406.98 836.53 1403.36 835.981Z" fill="url(#paint2_linear_353_146)"/>
<path d="M1375 829.405C1375.8 825.019 1380.28 818.847 1380.82 817.997C1384.73 817.99 1387.52 819.268 1388.32 820.019C1391.97 823.46 1391.17 828.845 1390.51 830.835C1389 835.339 1388.61 836.207 1388.87 837.363C1382.72 837.731 1379.27 836.43 1377.85 835.858C1376.02 834.853 1374.2 833.791 1375 829.405Z" fill="url(#paint3_linear_353_146)"/>
<path d="M1381.58 827.196C1381.59 827.895 1381.25 829.262 1379.83 829.133C1378.05 828.972 1378.68 826.148 1381.58 827.196Z" fill="#8D583A"/>
<path d="M1388.82 837.364L1388.71 836.707C1388.49 835.862 1390.42 831.589 1390.88 829.225C1391.34 826.861 1391.38 823.751 1388.89 820.685C1386.91 818.232 1384.22 818.693 1381.28 817.99L1380.87 817.714" stroke="url(#paint4_linear_353_146)" stroke-width="0.625239"/>
<path d="M1395.57 836.683C1395.46 836.496 1395.11 834.053 1395.57 831.689C1396.02 829.325 1395.84 825.371 1394.97 821.994C1394.1 818.617 1391.55 817.248 1390.12 816.519C1388.57 815.722 1385.89 814.707 1384.33 814.357L1383.93 814.082" stroke="url(#paint5_linear_353_146)" stroke-width="0.625239"/>
<path d="M1400.86 803.894C1401.48 804.543 1403.92 805.725 1408.17 815.536C1411.65 823.566 1409.91 827.765 1410.74 829.258" stroke="url(#paint6_linear_353_146)" stroke-width="0.625239"/>
<path d="M1424.62 802.258C1425.55 802.996 1427.72 805.973 1430.67 812.141" stroke="url(#paint7_linear_353_146)" stroke-width="0.625239"/>
<path d="M1402.45 802.643C1402.96 803.105 1405.77 803.74 1407.33 804.537C1408.04 804.901 1410.59 806.271 1414.2 810.448C1417.09 813.79 1417.55 818.399 1417.42 820.286L1417.52 825.467L1417.63 825.654" stroke="url(#paint8_linear_353_146)" stroke-width="0.625239"/>
<path d="M1429.59 798.402C1430 798.678 1430.92 799.299 1432.26 800.9C1433.81 802.757 1434.74 803.966 1434.9 806.979C1435.04 809.615 1433.96 810.293 1434.08 811.422" stroke="url(#paint9_linear_353_146)" stroke-width="0.625239"/>
</g>
<defs>
<linearGradient id="paint0_linear_353_146" x1="1432.26" y1="794.2" x2="1440.86" y2="811.779" gradientUnits="userSpaceOnUse">
<stop stop-color="#E59E75"/>
<stop offset="1" stop-color="#DD8A59"/>
</linearGradient>
<linearGradient id="paint1_linear_353_146" x1="1410.74" y1="797.13" x2="1424.68" y2="825.618" gradientUnits="userSpaceOnUse">
<stop stop-color="#E59E75"/>
<stop offset="1" stop-color="#DD8A59"/>
</linearGradient>
<linearGradient id="paint2_linear_353_146" x1="1389.55" y1="803.486" x2="1405.77" y2="836.655" gradientUnits="userSpaceOnUse">
<stop stop-color="#E69E75"/>
<stop offset="1" stop-color="#D0855A"/>
</linearGradient>
<linearGradient id="paint3_linear_353_146" x1="1377.88" y1="819.436" x2="1387.08" y2="838.239" gradientUnits="userSpaceOnUse">
<stop stop-color="#E59E75"/>
<stop offset="1" stop-color="#DD8A59"/>
</linearGradient>
<linearGradient id="paint4_linear_353_146" x1="1382.24" y1="817.045" x2="1391.53" y2="836.039" gradientUnits="userSpaceOnUse">
<stop stop-color="#B87B58"/>
<stop offset="1" stop-color="#B87B58"/>
</linearGradient>
<linearGradient id="paint5_linear_353_146" x1="1386.24" y1="812.949" x2="1397.41" y2="835.78" gradientUnits="userSpaceOnUse">
<stop stop-color="#B87B58"/>
<stop offset="1" stop-color="#B87B58"/>
</linearGradient>
<linearGradient id="paint6_linear_353_146" x1="1399.65" y1="804.489" x2="1411.57" y2="828.855" gradientUnits="userSpaceOnUse">
<stop stop-color="#B87B58"/>
<stop offset="1" stop-color="#B87B58"/>
</linearGradient>
<linearGradient id="paint7_linear_353_146" x1="1424.91" y1="802.12" x2="1429.97" y2="812.48" gradientUnits="userSpaceOnUse">
<stop stop-color="#B87B58"/>
<stop offset="1" stop-color="#B87B58"/>
</linearGradient>
<linearGradient id="paint8_linear_353_146" x1="1405.45" y1="801.175" x2="1417.46" y2="825.733" gradientUnits="userSpaceOnUse">
<stop stop-color="#B87B58"/>
<stop offset="1" stop-color="#B87B58"/>
</linearGradient>
<linearGradient id="paint9_linear_353_146" x1="1429.14" y1="798.619" x2="1435.15" y2="810.898" gradientUnits="userSpaceOnUse">
<stop stop-color="#B87B58"/>
<stop offset="1" stop-color="#B87B58"/>
</linearGradient>
<clipPath id="clip0_353_146">
<rect width="1920" height="1080" fill="white"/>
</clipPath>
</defs>
</svg>
