<svg width="1715" height="446" viewBox="0 0 1715 446" fill="none" xmlns="http://www.w3.org/2000/svg">
<path d="M374.27 271.102C397.702 262.188 424.834 275.675 438.384 275.644L639.598 324.723L591.071 375.439L464.646 362.094C444.321 362.141 415.129 359.082 400.002 353.384C387.9 348.826 373.427 355.357 367.703 359.192C299.515 395.832 264.623 407.901 234.384 403.28C204.146 398.66 157.735 386.781 134.677 332.112C111.618 277.443 125.122 257.086 133.926 233.092C142.73 209.098 149.989 192.925 173.436 190.786C192.194 189.075 188.912 197.004 184.926 201.182C169.94 211.224 162.394 223.819 160.494 228.862C156.857 233.561 136.689 301.359 195.121 327.803C253.553 354.247 259.781 343.288 285.82 334.889C311.859 326.49 350.839 280.016 374.27 271.102Z" fill="url(#paint0_linear_246_61)"/>
<path d="M474.316 293.624C478.075 296.534 483.995 297.914 487.814 296.863C489.552 297.206 496.787 296.546 498.448 293.624C500.524 289.971 502.471 288.76 492.558 284.093C482.645 279.425 474.884 280.906 471.761 282.998C468.639 285.09 469.617 289.987 474.316 293.624Z" fill="#EAB6B6"/>
<path d="M448.399 286.444C440.482 288.13 429.931 283.04 428.708 280.089C427.657 276.27 429.182 274.833 437.1 273.147C445.018 271.461 455.579 275.33 456.802 278.28C457.853 282.1 456.317 284.757 448.399 286.444Z" fill="#EAB6B6"/>
<path d="M385.29 274.241C387.8 277.988 395.834 279.054 398.79 280.089C400.131 280.6 412.855 277.451 411.278 271.722C409.701 265.992 396.545 261.869 388.209 262.931C379.873 263.992 382.152 269.558 385.29 274.241Z" fill="#EAB6B6"/>
<path d="M351.44 276.766C350.616 280.937 355.28 284.749 357.716 286.133C364.491 286.117 368.128 281.418 372.811 278.28C377.495 275.142 372.265 267.337 368.612 265.261C364.959 263.185 352.47 271.552 351.44 276.766Z" fill="#EAB6B6"/>
<path d="M326.463 293.501C324.39 298.509 331.177 303.914 334.83 305.99C338.129 305.287 345.558 302.421 348.88 296.576C353.032 289.27 345.196 280.95 343.635 281.996C342.074 283.042 329.054 287.241 326.463 293.501Z" fill="#EAB6B6"/>
<path d="M305.669 316.481C307.768 322.313 313.85 323.063 316.628 322.71C323.297 321.86 327.733 316.777 329.117 314.342C326.594 305.175 319.709 302.551 316.581 302.384C312.07 304.653 303.571 310.649 305.669 316.481Z" fill="#EAB6B6"/>
<path d="M285.375 330.078C285.388 335.498 292.687 336.489 296.334 336.307C302.522 337.44 307.936 332.241 309.869 329.5C307.761 319.603 304.639 321.695 298.379 319.104C292.119 316.512 285.36 323.303 285.375 330.078Z" fill="#EAB6B6"/>
<path d="M266.112 338.462C264.451 341.384 269.957 348.702 272.918 351.996C275.005 352.86 280.218 353.439 284.377 348.843L284.377 348.842C289.575 343.098 289.576 343.097 284.346 335.292C279.116 327.486 268.188 334.809 266.112 338.462Z" fill="#EAB6B6"/>
<path d="M149.592 249.199C148.768 253.37 150.162 261.701 154.335 263.429C156.073 263.772 158.14 263.828 159.343 259.415C160.438 255.402 159.403 245.164 156.159 243.822C152.916 242.479 150.622 243.985 149.592 249.199Z" fill="#EAB6B6"/>
<path d="M218.686 338.572C213.69 341.919 216.969 347.262 219.232 349.515C221.668 350.899 227.684 353.352 232.268 352.091C237.997 350.514 240.588 344.254 235.889 340.616C231.19 336.979 224.93 334.388 218.686 338.572Z" fill="#EAB6B6"/>
<path d="M198.345 331.844C193.349 335.191 195.93 339.493 197.845 341.226C198.891 342.787 202.026 346.115 206.197 346.939C211.411 347.97 217.259 339.818 213.987 334.934C210.715 330.051 204.589 327.66 198.345 331.844Z" fill="#EAB6B6"/>
<path d="M173.305 321.478C174.154 328.147 180.621 330.148 183.749 330.314C184.446 331.355 187.192 332.078 192.6 326.645C198.007 321.213 191.013 316.399 186.839 314.672C181.974 314.162 172.455 314.809 173.305 321.478Z" fill="#EAB6B6"/>
<path d="M159.707 301.185C158.883 305.356 162.164 311.602 163.907 314.204C169.121 315.234 169.121 315.234 175.365 311.05C181.61 306.867 175.865 301.668 173.773 298.546C171.681 295.424 160.738 295.97 159.707 301.185Z" fill="#EAB6B6"/>
<path d="M150.793 277.753C149.969 281.924 152.209 288.868 153.432 291.818C163.46 301.384 167.331 292.307 168.012 286.573C161.721 270.431 151.823 272.539 150.793 277.753Z" fill="#EAB6B6"/>
<path d="M524.301 291.888C515.122 288.991 513.034 294.636 514.085 298.456C518.285 311.475 535.097 303.616 535.612 301.009C536.128 298.402 535.776 295.51 524.301 291.888Z" fill="#EAB6B6"/>
<path d="M562.612 303.198C554.682 299.464 549.606 302.867 548.747 307.212C553.462 317.624 559.886 317.382 561.447 316.336C563.008 315.29 572.525 307.866 562.612 303.198Z" fill="#EAB6B6"/>
<path d="M160.173 234.473C164.344 235.297 168.499 228.894 170.055 225.59C171.439 223.154 173.789 217.659 172.115 215.162C170.023 212.04 157.535 220.407 155.458 224.06C153.382 227.713 154.959 233.442 160.173 234.473Z" fill="#EAB6B6"/>
<path d="M175.497 202C174.038 204.554 175.267 206.298 178.051 208.203C183.524 209.297 189.727 200.176 189.727 197.257C189.727 187.675 178.294 197.106 175.497 202Z" fill="#EAB6B6"/>
<path fill-rule="evenodd" clip-rule="evenodd" d="M1032.5 178.785C1032.5 226.575 984.989 248.446 960.099 252.318C956.739 252.318 955.362 253.595 952.263 256.472C950.776 257.852 948.891 259.601 946.201 261.753C939.563 267.063 942.329 269.497 944.542 270.05C960.471 272.705 968.496 267.608 974.58 263.736C995.189 247.305 1024.15 244.798 1039.13 246.819C1050.89 250.138 1088.91 234.726 1097.2 228.088C1099.18 226.114 1100.99 224.311 1102.69 222.618C1115.27 210.088 1121.74 203.637 1143.67 178.785C1168.56 150.576 1188.47 138.96 1211.7 132.322C1234.8 125.722 1251.34 122.403 1280.9 143.576C1303.32 122.327 1326.17 110.079 1344.02 105.784C1346.82 105.405 1349.61 104.704 1352.89 103.879C1366.11 100.561 1387.29 95.242 1448.86 100.83C1469.73 105.463 1479.5 115.03 1489.87 125.176C1498.04 133.174 1506.58 141.53 1521.21 148.114C1551.39 161.698 1599.43 156.061 1630.34 152.434C1633.42 152.073 1636.32 151.732 1639.02 151.432C1662.92 148.777 1676.63 131.52 1680.51 123.223C1684.93 116.032 1696.11 102.647 1705.4 106.629C1714.69 110.612 1713.7 122.67 1712.04 128.201C1696.65 162.046 1695.53 163.087 1675.62 181.571C1674.05 183.025 1672.37 184.586 1670.55 186.279C1645.66 209.51 1599.2 221.126 1589.24 221.126C1588.6 221.126 1587.75 221.136 1586.72 221.149C1571.99 221.331 1520.27 221.968 1489.24 198.697C1462.69 178.784 1402.63 174.079 1387.31 177.125C1347.35 185.074 1322.92 239.974 1312.67 291.029C1308.53 311.662 1308.29 324.554 1308.11 333.461C1307.95 341.866 1307.86 346.722 1304.63 351.184H1097.2C1119.55 351.184 1209.18 253.665 1238.04 198.697C1246.27 184.387 1255.22 171.82 1264.5 160.913C1259.38 158.52 1253.45 156.979 1246.94 155.678C1236.21 153.532 1231.52 155.412 1226.61 157.38C1225.45 157.847 1224.27 158.319 1223 158.743C1196.45 178.655 1191.06 186.916 1175.37 225.025C1162.49 256.348 1142.28 276.469 1131.81 286.889C1131.32 287.382 1130.84 287.853 1130.39 288.303L1024.2 376.25C1012.25 389.525 652.302 423.926 473.822 439.467C436.392 438.13 401.45 420.344 388.657 411.617C317.908 402.439 273.58 341.715 268.847 319.714L267.637 315.968C241.56 235.252 226.213 187.748 202.008 178.784C190.589 173.503 156.334 169.883 133.219 173.503C110.104 177.124 79.1908 178.784 65.6837 175.883C46.2152 171.702 26.4119 154.865 19.2212 144.355C13.1368 136.059 1.96375 113.491 5.94629 89.5961C10.9244 59.7274 20.8805 51.4305 54.0679 24.8805C59.046 21.5618 71.9891 17.5792 83.9366 28.1992C87.2554 32.0711 90.2426 40.1467 75.64 41.4742C57.387 43.1336 40.7932 63.0461 40.7932 71.3429C40.7932 72.2649 40.7522 73.2483 40.709 74.2863C40.3629 82.59 39.8712 94.3899 59.046 106.19C76.3036 116.81 109.38 113.934 123.762 111.168C132.612 111.168 157.281 107.517 185.158 92.9148C220.005 74.6617 253.193 77.9805 256.512 79.6398C257.035 79.9015 258.177 80.1218 259.846 80.4441C268.767 82.1655 292.749 86.7934 317.908 116.146C333.341 135.173 408.219 245.355 413.689 253.71C414.531 254.996 415.448 256.414 416.436 257.944C433.431 284.24 471.833 343.659 523.208 337.494C544.853 334.897 551.331 335.52 560.151 336.369C565.558 336.889 571.844 337.494 583.044 337.494C628.161 342.786 603.345 242.849 592.978 238.393C584.734 230.818 554.291 230.761 533.24 231.094C465.961 226.4 450.317 217.28 439.013 210.69C438.328 210.291 437.66 209.901 436.997 209.522C425.381 202.884 392.194 168.038 390.534 139.828C388.875 111.619 388.875 101.663 400.491 81.7502C409.783 65.8203 424.275 62.944 430.359 63.4971C437.55 64.6034 453.922 69.8028 461.887 81.7502C471.843 96.6846 461.887 109.96 453.59 101.663C446.953 95.0252 436.444 93.3659 432.019 93.3659C427.041 91.7065 418.663 104.517 418.663 116.133C418.663 127.749 419.08 134.931 438.993 154.844C448.49 164.341 452.74 168.855 457.954 171.366C463.671 174.12 470.549 174.465 486.778 176.335C509.377 178.938 522.823 173.348 552.181 161.143C563.132 156.591 576.297 151.118 592.978 144.806C629.428 131.015 664.046 177.156 692.064 214.5C711.239 240.058 727.323 261.495 738.785 256.775C766.994 245.159 768.654 228.566 770.313 210.313C770.72 205.84 770.229 199.574 769.624 191.831C768.505 177.527 766.992 158.183 770.013 135.802C737.285 117.637 717.356 103.157 714.426 100.433C707.595 94.0837 712.598 63.3665 724.771 55.0929C733 49.5 742.399 53.5527 748.18 56.1072L790.523 73.5674C810.799 37.0529 839.961 15.9422 853.282 9.52875C877.066 2.33813 931.273 -7.72873 957.823 9.52875C991.01 31.1006 1010.92 59.3099 1019.22 79.2224C1027.52 99.1349 1032.5 119.047 1032.5 178.785Z" fill="url(#paint1_linear_246_61)"/>
<path d="M1291.4 199.135C1295.39 195.153 1293.06 189.732 1291.4 187.52C1290.07 186.192 1287.53 186.967 1286.43 187.52C1283.77 187.52 1284.21 194.157 1284.77 197.476C1285.32 199.689 1287.42 203.118 1291.4 199.135Z" fill="#FFC5C5"/>
<path d="M1289.75 177.563C1291.07 172.253 1286.98 168.713 1284.77 167.607C1276.47 165.947 1278.13 174.244 1278.13 175.904C1278.13 177.231 1281.45 177.563 1283.11 177.563C1284.77 179.776 1288.42 182.873 1289.75 177.563Z" fill="#FFC5C5"/>
<path d="M1276.47 160.968C1279.13 155.657 1273.15 152.118 1269.83 151.012C1265.85 149.685 1264.85 152.671 1264.85 154.331C1267.62 158.756 1273.82 166.279 1276.47 160.968Z" fill="#FFC5C5"/>
<path d="M1246.6 147.693C1250.58 145.038 1253.79 148.799 1254.9 151.012C1255.75 152.339 1254.15 154.884 1253.24 155.991C1251.58 159.309 1241.62 151.012 1246.6 147.693Z" fill="#FFC5C5"/>
<path d="M1231.67 157.65C1227.68 154.995 1230.01 151.013 1231.67 149.353C1236.98 146.698 1239.41 150.459 1239.96 152.672C1241.62 154.331 1236.65 160.968 1231.67 157.65Z" fill="#FFC5C5"/>
<path d="M1223.16 162.628C1225.81 157.318 1222.05 154.884 1219.84 154.331C1217.51 153.196 1211.54 155.991 1214.86 160.969C1217.51 164.951 1221.5 163.734 1223.16 162.628Z" fill="#FFC5C5"/>
<path d="M1211.75 169.023C1211.75 166.368 1209.54 164.598 1208.44 164.044C1206.78 162.938 1203.13 161.722 1201.8 165.704C1200.14 170.682 1201.8 172.342 1205.12 174.001C1208.44 175.66 1211.75 172.342 1211.75 169.023Z" fill="#FFC5C5"/>
<path d="M1193.5 190.177C1196.16 191.505 1200.14 187.411 1201.8 185.199C1201.8 176.902 1195.16 175.243 1191.84 180.221C1188.52 185.2 1190.18 188.518 1193.5 190.177Z" fill="#FFC5C5"/>
<path d="M1183.55 208.871C1186.2 208.871 1187.97 202.234 1188.52 198.915C1188.52 194.931 1186.31 193.936 1185.2 193.937C1177.76 197.255 1180.23 208.871 1183.55 208.871Z" fill="#FFC5C5"/>
<path d="M1174.99 229.944C1178.97 229.944 1179.97 223.307 1179.97 219.988C1180.04 218.328 1176.65 210.032 1173.33 216.669C1170.01 223.307 1170.01 229.944 1174.99 229.944Z" fill="#FFC5C5"/>
<path d="M1168.61 248.65C1171.27 247.322 1171.93 243.672 1171.93 242.012C1171.93 237.034 1166.95 235.375 1165.29 235.375C1163.63 235.375 1158.65 235.375 1158.65 242.012C1158.65 248.65 1165.29 250.309 1168.61 248.65Z" fill="#FFC5C5"/>
<path d="M1161.97 262.83C1164.63 258.847 1160.87 254.533 1158.65 252.874C1156.86 251.214 1148.7 249.555 1147.04 252.874C1145.38 256.192 1148.7 262.83 1152.02 266.149C1155.34 269.467 1158.65 267.808 1161.97 262.83Z" fill="#FFC5C5"/>
<path d="M1137.68 283.763C1141.66 283.763 1145.98 279.338 1147.64 277.125C1147.64 270.488 1145.97 270.488 1144.32 268.829C1142.66 267.169 1134.36 268.829 1132.7 272.147C1131.04 275.466 1132.7 283.763 1137.68 283.763Z" fill="#FFC5C5"/>
<path d="M1128.8 285.181C1134.11 289.164 1129.9 293.478 1127.14 295.137C1118.84 298.456 1118.84 290.159 1120.5 288.5C1122.16 286.841 1122.16 280.203 1128.8 285.181Z" fill="#FFC5C5"/>
<path d="M1116.78 305.335C1115.45 307.99 1109.58 308.654 1106.82 308.654C1100.18 308.654 1103.5 302.016 1103.5 300.357C1103.5 298.697 1108.48 297.038 1111.8 297.038C1115.12 297.038 1118.43 302.016 1116.78 305.335Z" fill="#FFC5C5"/>
<path d="M1100.8 316.95C1104.47 311.268 1099 310.5 1095 310.5C1088.36 310.5 1082.5 318 1086 322.5C1089.5 327 1098.5 320.5 1100.8 316.95Z" fill="#FFC5C5"/>
<path d="M1712.92 134.897C1715.58 132.242 1714.03 128.259 1712.92 126.6C1702.97 121.622 1699.65 129.919 1701.31 133.238C1702.97 136.556 1709.61 138.216 1712.92 134.897Z" fill="#FFC5C5"/>
<path d="M1696.33 159.786C1700.31 161.114 1702.42 155.915 1702.97 153.149C1703.41 151.49 1701.31 148.171 1696.33 146.511C1691.35 144.852 1684.72 143.193 1686.38 149.83C1688.04 156.468 1691.35 158.127 1696.33 159.786Z" fill="#FFC5C5"/>
<path d="M1691.35 169.743C1692.68 175.053 1687.48 177.486 1684.72 178.039C1678.08 176.38 1679.74 173.061 1678.08 169.743C1676.42 166.424 1681.4 161.446 1684.72 161.446C1688.04 161.446 1689.69 163.105 1691.35 169.743Z" fill="#FFC5C5"/>
<path d="M1669.78 183.017C1672.44 183.017 1676.42 188.549 1678.08 191.314C1678.08 196.292 1676.42 197.952 1671.44 197.952C1666.46 197.952 1666.46 194.633 1664.8 191.314C1663.14 187.996 1666.46 183.017 1669.78 183.017Z" fill="#FFC5C5"/>
<path d="M1658.17 202.93C1658.17 197.62 1653.74 194.08 1651.53 192.974C1648.21 192.974 1644.89 191.314 1644.89 199.611C1644.89 206.249 1649.32 209.014 1651.53 209.567C1653.74 209.567 1658.17 208.24 1658.17 202.93Z" fill="#FFC5C5"/>
<path d="M1636.59 207.908C1636.59 205.253 1631.06 204.589 1628.3 204.589C1624.98 204.329 1618.34 209.567 1621.66 214.546C1624.98 219.524 1628.3 219.524 1633.28 217.864C1638.25 216.205 1636.59 211.227 1636.59 207.908Z" fill="#FFC5C5"/>
<path d="M1611.7 219.524C1613.03 215.541 1607.83 212.333 1605.07 211.227C1603.41 210.443 1595.11 211.227 1595.11 217.864C1595.11 224.502 1598.43 226.161 1603.41 226.161C1608.39 226.161 1610.04 224.502 1611.7 219.524Z" fill="#FFC5C5"/>
<path d="M1583.49 222.842C1583.49 217.532 1580.18 215.099 1578.52 214.546C1570.22 214.546 1565.24 217.864 1565.24 222.842C1565.24 227.82 1568.56 229.48 1573.54 229.48C1578.52 229.48 1583.49 229.48 1583.49 222.842Z" fill="#FFC5C5"/>
<path d="M1544.06 211.227C1540.34 210.777 1533.42 209.579 1531.2 210.821C1529.54 212.48 1528.48 212.965 1529.8 216.948C1531.46 221.926 1535.77 221.183 1544.06 222.842C1552.36 224.502 1554.59 217.864 1552.36 214.545C1550.13 211.227 1547.63 211.656 1544.06 211.227Z" fill="#FFC5C5"/>
<path d="M1520.33 207.908C1518.35 206.141 1512.54 205.695 1509.22 206.249C1505.85 207.479 1506.14 212.225 1507.8 213.884C1509.46 215.543 1516.46 215.834 1519.78 215.834C1523.1 215.834 1521.73 209.15 1520.33 207.908Z" fill="#FFC5C5"/>
<path d="M1497.13 192.498C1495.64 189.771 1485.51 187.52 1483.85 187.52C1478.87 186.81 1478.87 195.817 1480.53 199.135C1482.19 202.454 1492.15 207.432 1497.13 204.113C1502.1 200.795 1498.61 195.225 1497.13 192.498Z" fill="#FFC5C5"/>
<path d="M1462.36 186.336C1462.36 182.354 1459.04 176.933 1457.38 174.721C1452.4 171.402 1439.13 169.742 1440.79 178.039C1442.45 186.336 1444.11 194.633 1450.74 194.633C1457.38 194.633 1462.36 191.314 1462.36 186.336Z" fill="#FFC5C5"/>
<path d="M1420.53 182.414C1424.51 178.431 1421.08 173.011 1418.87 170.798C1416.1 169.139 1409.58 167.148 1405.59 172.458C1401.61 177.768 1403.93 181.308 1405.59 182.414C1408.91 184.073 1416.55 186.396 1420.53 182.414Z" fill="#FFC5C5"/>
<path d="M1368.28 182.414C1367.72 178.237 1371.9 176.287 1377.19 174.721C1384.99 172.11 1387.78 172.953 1388.88 174.059C1392.2 179.037 1388 184.097 1381.36 185.756C1374.73 187.415 1369.18 189.196 1368.28 182.414Z" fill="#FFC5C5"/>
<path d="M1346.2 209.892C1340.89 207.237 1342.89 199.936 1344.54 196.617C1346.76 193.852 1352.51 189.98 1357.82 196.617C1364.46 204.914 1352.84 213.211 1346.2 209.892Z" fill="#FFC5C5"/>
<path d="M1331.51 218.618C1336.25 211.935 1335.73 211.935 1341.26 211.935C1346.2 213.884 1340.1 229.48 1333.46 229.48C1326.83 229.48 1329.37 221.646 1331.51 218.618Z" fill="#FFC5C5"/>
<path d="M1317.03 252.317C1318.36 249.662 1318.98 243.683 1321.21 238.67C1323.44 233.657 1329.85 235.351 1331.51 238.67C1333.17 241.989 1333.63 256.981 1325.33 260.3C1317.04 263.619 1315.37 255.635 1317.03 252.317Z" fill="#FFC5C5"/>
<path d="M1317.04 288.766C1310.4 290.094 1307.63 282.682 1307.08 278.81C1305.55 273.832 1315.38 267.195 1320.35 272.173C1325.33 277.151 1325.33 287.107 1317.04 288.766Z" fill="#FFC5C5"/>
<path d="M256.789 292.977C255.675 302.167 262.359 313.029 270.435 310.244C275.414 303.606 271.549 289.914 266.258 288.243C259.929 286.244 257.903 287.964 256.789 292.977Z" fill="#FFC5C5"/>
<path d="M246.38 258.443C246.38 263.753 251.359 276.824 259.296 273.204C264.088 272.194 262.151 255.461 254.84 251.203C249.978 248.371 245.827 255.678 246.38 258.443Z" fill="#FFC5C5"/>
<path d="M232.839 224.467C232.839 229.445 240.915 239.784 242.586 241.177C244.257 242.569 251.359 241.028 251.359 237.045C251.359 232.067 243.561 226.694 241.402 223.77C239.244 220.846 232.839 219.489 232.839 224.467Z" fill="#FFC5C5"/>
<path d="M222.801 200.969C227.547 206.922 230.893 202.628 231.446 200.969C231.446 194.331 226.99 188.541 222.801 187.148C216.503 185.055 214.462 188.835 215.015 191.047C215.015 193.813 218.055 195.016 222.801 200.969Z" fill="#FFC5C5"/>
<path d="M182.709 177.366C189.347 180.021 196.537 177.366 199.303 175.707C201.958 170.397 200.409 166.857 199.303 165.751C194.325 162.432 186.028 164.091 182.709 165.751C179.391 167.41 174.412 174.048 182.709 177.366Z" fill="#FFC5C5"/>
<path d="M141.062 177.366C149.027 178.694 156.55 174.601 159.316 172.388C160.643 164.423 156.55 162.432 154.337 162.432C142.39 161.104 137.19 164.091 136.084 165.751C133.429 173.716 138.297 176.813 141.062 177.366Z" fill="#FFC5C5"/>
<path d="M101.945 181.903C111.884 180.05 111.685 174.601 110.579 172.388C109.801 171.425 107.19 169.111 100.553 170.439C92.256 172.098 89.1345 172.388 88.6705 176.925C88.2065 181.462 90.2484 184.085 101.945 181.903Z" fill="#FFC5C5"/>
<path d="M13.662 147.88C24.282 151.863 29.1494 147.327 30.2556 144.562C34.2382 141.14 33.0211 136.498 31.9149 134.605C27.4899 132.393 17.6445 129.627 13.662 136.265C9.67944 142.902 12.0026 146.774 13.662 147.88Z" fill="#FFC5C5"/>
<path d="M43.7861 171.483C55.4017 176.461 58.7206 169.824 62.0393 169.824C63.6987 169.373 63.6987 163.186 62.0393 161.527C60.7118 160.199 51.5299 160.974 47.1049 161.527C39.1399 164.182 41.5736 169.271 43.7861 171.483Z" fill="#FFC5C5"/>
<path d="M8.44019 118.627C11.0952 121.282 16.1838 118.627 18.3964 116.967C20.0558 107.011 15.0778 103.692 13.4183 103.692C11.7589 103.692 -1.51624 100.374 0.143188 107.011C1.80261 113.649 5.12146 115.308 8.44019 118.627Z" fill="#FFC5C5"/>
<path d="M18.3964 76.3062C18.3964 79.625 13.4185 86.2625 11.759 87.9218C10.6125 89.2493 6.85608 88.475 5.12134 87.9218C3.46191 84.05 1.47095 75.6424 6.78088 72.9874C13.4183 69.6687 18.3964 72.9875 18.3964 76.3062Z" fill="#FFC5C5"/>
<path d="M13.662 58.7617C12.0026 55.4429 18.64 52.1241 20.2994 50.4648C33.5745 43.8273 31.915 53.7835 30.2556 58.7617C28.5962 63.7398 15.3214 62.0804 13.662 58.7617Z" fill="#FFC5C5"/>
<path d="M37.1487 39.8C39.8037 43.7825 49.3173 41.4594 53.7423 39.8C57.061 31.5031 50.4236 29.8438 47.1049 29.8438C43.7861 29.8438 33.83 34.8219 37.1487 39.8Z" fill="#FFC5C5"/>
<path d="M573.248 223.77C586.523 223.77 586.518 227.089 588.177 228.748C589.505 230.371 588.73 232.743 588.177 233.726C587.093 235.653 569.597 237.377 568.27 232.067C566.942 226.757 571.035 224.323 573.248 223.77Z" fill="#FFC5C5"/>
<path d="M538.401 227.089C542.384 224.434 550.017 224.876 553.335 225.429C554.995 225.651 558.314 227.089 558.314 228.748C558.314 230.408 559.973 240.364 546.698 237.045C536.078 234.39 536.742 229.301 538.401 227.089Z" fill="#FFC5C5"/>
<path d="M526.786 230.408C526.786 227.753 521.254 224.876 518.489 223.77C514.064 223.77 505.214 224.434 505.214 227.089C505.214 230.408 506.873 233.726 513.511 237.045C520.148 240.364 526.786 233.726 526.786 230.408Z" fill="#FFC5C5"/>
<path d="M491.939 225.429C491.939 221.447 486.408 218.239 483.642 217.133C470.367 212.154 470.367 222.111 473.686 225.429C477.005 228.748 491.939 230.408 491.939 225.429Z" fill="#FFC5C5"/>
<path d="M458.752 213.814C458.752 211.159 455.433 208.283 453.774 207.176C450.455 204.194 442.158 203.858 442.158 205.517C442.158 207.176 442.158 218.792 448.796 220.451C455.433 222.111 458.752 217.133 458.752 213.814Z" fill="#FFC5C5"/>
<path d="M433.861 202.198C433.861 199.543 428.33 194.454 425.565 192.242C423.905 192.242 420.586 192.242 418.927 193.901C417.268 195.561 417.268 202.198 422.246 207.176C427.224 212.154 433.861 205.517 433.861 202.198Z" fill="#FFC5C5"/>
<path d="M417.268 182.286C417.268 179.631 412.843 173.436 410.63 170.67C408.418 170.117 404.325 169.343 405.652 170.67C407.312 172.329 405.652 180.626 410.63 183.945C415.608 187.264 417.268 185.604 417.268 182.286Z" fill="#FFC5C5"/>
<path d="M405.652 157.395C408.307 152.085 403.44 146.333 400.674 144.12C390.718 140.801 390.718 152.417 392.377 155.736C394.037 159.054 402.333 164.033 405.652 157.395Z" fill="#FFC5C5"/>
<path d="M397.355 130.845C398.683 126.863 394.59 121.442 392.377 119.23C384.08 119.23 385.74 130.845 387.399 137.483C389.058 144.12 395.696 135.823 397.355 130.845Z" fill="#FFC5C5"/>
<path d="M397.355 105.955C398.683 101.972 396.802 98.7639 395.696 97.6577C390.718 95.9983 390.718 96.3456 389.058 98.005C387.399 99.6643 384.08 106.302 389.058 109.621C394.037 112.939 395.696 110.933 397.355 105.955Z" fill="#FFC5C5"/>
<path d="M407.312 82.7233C407.312 78.7408 406.205 77.7452 405.652 77.7452C399.015 75.0902 396.802 77.7452 395.696 79.4046C394.036 89.3608 399.015 91.0202 400.674 91.0202C402.333 91.0202 407.312 87.7014 407.312 82.7233Z" fill="#FFC5C5"/>
<path d="M418.927 67.789C421.582 63.8065 422.246 62.2577 420.586 61.1515C417.931 59.824 412.29 60.5984 410.63 61.1515C402.665 67.789 404.546 71.1077 407.312 72.7671C410.077 72.7671 416.272 71.7715 418.927 67.789Z" fill="#FFC5C5"/>
<path d="M445.477 66.1296C446.804 63.4746 445.477 63.9171 443.818 62.8108C434.525 57.5008 429.99 60.5983 428.883 62.8108C428.883 66.6827 428.552 71.1077 433.861 71.1077C440.499 71.1077 443.817 69.4483 445.477 66.1296Z" fill="#FFC5C5"/>
<path d="M463.73 89.3608C465.057 85.3783 463.177 81.0639 462.071 79.4046C458.752 74.4265 455.433 76.0858 450.455 77.7452C445.477 79.4046 452.114 84.3827 453.774 87.7014C455.433 91.0202 462.071 94.3389 463.73 89.3608Z" fill="#FFC5C5"/>
<path d="M1308.74 310.708C1312.72 310.708 1313.72 304.07 1313.72 300.752C1313.79 299.092 1310.4 290.795 1307.08 297.433C1303.76 304.07 1303.76 310.708 1308.74 310.708Z" fill="#FFC5C5"/>
<path d="M601.854 262.621C605.753 269.862 609.945 264.28 610.499 262.621C610.499 255.983 606.043 245.911 601.854 244.519C597.665 243.126 596.005 245.354 596.005 247.582C596.005 250.348 597.955 255.38 601.854 262.621Z" fill="#FFC5C5"/>
<path d="M601.854 287.129C600.74 296.319 607.423 307.18 615.5 304.395C620.478 297.758 616.614 284.065 611.323 282.394C604.993 280.395 602.968 282.116 601.854 287.129Z" fill="#FFC5C5"/>
<ellipse cx="849.428" cy="87.7931" rx="6.5" ry="9" transform="rotate(22.2943 849.428 87.7931)" fill="#4F4F4F"/>
<ellipse cx="884.062" cy="101.072" rx="7" ry="9" transform="rotate(24.0623 884.062 101.072)" fill="#4F4F4F"/>
<path d="M714.152 100.525C706.335 94.7558 715.053 60.0949 726.5 53.5C733.499 50.5946 735.233 50.3409 741.999 53.4988C749.499 56.9989 729.892 112.142 714.152 100.525Z" fill="#BC6867"/>
<defs>
<linearGradient id="paint0_linear_246_61" x1="467.5" y1="293" x2="622" y2="328.5" gradientUnits="userSpaceOnUse">
<stop stop-color="#BC6867"/>
<stop offset="1" stop-color="#A75857"/>
</linearGradient>
<linearGradient id="paint1_linear_246_61" x1="939" y1="15" x2="859" y2="674" gradientUnits="userSpaceOnUse">
<stop stop-color="#DA7472"/>
<stop offset="1" stop-color="#B03E3C"/>
</linearGradient>
</defs>
</svg>
