<svg width="324" height="236" viewBox="0 0 324 236" fill="none" xmlns="http://www.w3.org/2000/svg">
<path d="M60.2624 256.4C57.9926 260.967 56.9133 267.177 61.4625 272.322L159.603 289.695C160.514 289.369 162.219 286.121 161.101 281.237C158.835 271.337 152.355 268.729 147.126 265.246C145.346 264.06 149.867 262.033 159.841 259.459C174.619 254.403 184.104 248.289 187.898 245.429C192.957 241.616 192.261 233.882 189.229 229.546C186.197 225.21 182.216 223.068 179.376 221.226C173.694 217.005 171.03 216.095 170.856 215.699C169.94 214.684 171.962 212.753 187.383 213.144C206.659 213.634 223.063 205.578 224.882 195.305C226.7 185.033 225.08 175.613 216.309 171.503C209.292 168.215 208.566 167.087 209.08 166.935C213.728 165.444 225.93 160.492 237.554 152.613C252.084 142.764 255.881 135.764 257.009 129.388C258.138 123.012 252.245 113.802 243.807 111.942C235.368 110.083 234.973 108.187 235.578 106.832C236.183 105.478 240.615 95.7088 244.318 86.2852C247.378 78.4991 241.652 71.0784 239.764 68.674C235.439 66.5907 229.024 63.8097 224.083 66.9537C219.143 70.0977 212.274 78.7254 210.459 82.7881C209.007 86.0382 203.208 96.1703 202.936 95.0989C199.35 80.9925 193.008 78.8615 191.064 78.1518C187.279 76.1423 178.071 75.6073 171.199 81.4052C162.61 88.6526 161.764 99.7013 161.722 104.391C161.66 111.15 166.038 131.946 165.594 131.015C170.007 142.724 170.862 146.775 167.832 148.066C163.31 149.992 135.715 119.135 128.263 129.081C118.195 142.519 126.641 150.185 129.824 156.507C132.271 161.369 128.294 173.089 122.891 163.549C119.009 156.695 108.198 147.538 105.061 146.573C99.2614 144.937 82.889 150.218 77.3137 163.552C70.3445 180.219 103.944 195.495 105.922 198.768C106.448 199.639 107.545 201.978 106.9 201.498C103.124 196.098 99.6296 196.506 97.1443 196.796L97.1171 196.8C89.3804 199.229 85.3729 206.046 84.3362 209.15C79.7873 220.401 80.0031 237.275 80.984 242.533C81.5566 245.601 82.1399 246.435 82.2315 247.868C77.9516 245.328 70.9592 246.504 68.823 247.366C65.6757 248.635 61.9957 252.913 60.2624 256.4Z" fill="#E3577A"/>
<path fill-rule="evenodd" clip-rule="evenodd" d="M111.682 257.977C114.548 254.906 118.758 250.083 123.735 243.934C118.927 242.231 115.911 234.314 114.979 230.416C114.931 227.199 116.872 227.867 117.848 228.604C118.896 235.561 123.404 239.294 126.055 240.577C126.12 240.647 126.186 240.718 126.252 240.792C136.702 227.613 149.85 209.383 161.039 189.516C161.756 188.251 162.525 186.896 163.338 185.464C160.673 181.13 159.457 176.923 160.01 174.247C161.102 168.976 163.349 171.463 163.216 173.395C163.646 176.466 164.86 179.192 165.911 180.938C173.082 168.331 182.618 151.634 190.668 137.703C189.827 137.212 188.94 136.603 188.088 135.862C184.991 133.173 182.195 129.03 181.644 124.372C181.093 119.714 182.342 117.122 183.494 118.875C184.306 122.993 186.965 131.728 191.113 133.726C191.455 134.011 191.891 134.339 192.41 134.691C197.706 125.546 202.189 117.903 204.66 113.898C205.512 113.511 205.843 115.587 200.347 126.994C199.023 129.597 197.366 132.817 195.461 136.472C198.563 138.037 202.793 139.511 207.45 139.601C209.323 139.305 213.803 138.349 216.742 136.89C217.442 137.095 218.204 137.834 215.649 139.159C215.24 139.371 214.803 139.642 214.324 139.938L214.324 139.938C211.063 141.956 205.862 145.174 194.413 139.309C194.303 139.284 194.175 139.25 194.032 139.207C187.152 152.335 177.629 170.016 168.792 185.167C170.729 186.111 172.057 186.78 173.041 187.275C174.389 187.954 175.088 188.306 175.813 188.592C176.593 188.898 177.404 189.128 179.088 189.604L179.089 189.604L179.09 189.604L179.093 189.605C179.921 189.84 180.96 190.133 182.311 190.525C189.519 192.619 185.27 193.676 182.244 193.943C177.337 193.193 170.675 190.24 166.927 188.344C164.718 192.081 162.569 195.623 160.532 198.856C151.63 212.987 139.744 230.229 130.195 243.733C132.388 245.97 136.697 248.697 142.862 248.284C145.814 248.467 144.888 251.215 141.708 251.475C139.928 251.621 131.583 250.471 127.787 247.129C123.778 252.767 120.311 257.566 117.84 260.944L111.682 257.977Z" fill="#B84A65"/>
</svg>
