<svg width="190" height="123" viewBox="0 0 190 123" fill="none" xmlns="http://www.w3.org/2000/svg">
<path d="M35.5472 150.985C34.2181 153.659 33.586 157.296 36.25 160.309L93.7214 170.483C94.2544 170.292 95.253 168.39 94.5982 165.529C93.2712 159.732 89.4768 158.205 86.4148 156.165C85.3723 155.471 88.0199 154.284 93.8607 152.776C102.514 149.816 108.069 146.235 110.291 144.56C113.253 142.327 112.845 137.798 111.07 135.259C109.295 132.72 106.964 131.466 105.3 130.387C101.973 127.915 100.413 127.382 100.311 127.15C99.7744 126.556 100.959 125.425 109.989 125.654C121.277 125.941 130.883 121.224 131.948 115.208C133.013 109.192 132.064 103.676 126.928 101.269C122.819 99.3436 122.394 98.6835 122.695 98.5941C125.417 97.7211 132.562 94.8214 139.369 90.2073C147.878 84.4397 150.101 80.3405 150.762 76.6067C151.423 72.873 147.973 67.4793 143.031 66.3905C138.089 65.3018 137.858 64.1912 138.212 63.3981C138.566 62.6051 141.162 56.8842 143.33 51.3657C145.122 46.8062 141.769 42.4606 140.663 41.0526C138.131 39.8326 134.374 38.204 131.481 40.0452C128.588 41.8863 124.565 46.9387 123.502 49.3178C122.652 51.2211 119.256 57.1544 119.097 56.527C116.997 48.2663 113.283 47.0184 112.145 46.6028C109.928 45.426 104.536 45.1128 100.512 48.508C95.4818 52.7521 94.9868 59.2222 94.9617 61.9688C94.9255 65.9266 97.4895 78.1046 97.2294 77.5594C99.8134 84.4164 100.314 86.7888 98.5402 87.5444C95.8922 88.6724 79.7324 70.6026 75.3683 76.4271C69.4725 84.2959 74.4188 88.7854 76.2823 92.4876C77.7153 95.3345 75.3867 102.198 72.2223 96.6112C69.9492 92.598 63.6181 87.2352 61.7812 86.67C58.3851 85.7123 48.7974 88.8046 45.5325 96.613C41.4513 106.373 61.127 115.319 62.2853 117.236C62.5935 117.746 63.2362 119.115 62.858 118.835C60.6468 115.672 58.6007 115.911 57.1453 116.081L57.1294 116.083C52.5988 117.506 50.2519 121.497 49.6449 123.315C46.981 129.904 47.1074 139.786 47.6818 142.864C48.0171 144.661 48.3587 145.149 48.4124 145.989C45.9061 144.501 41.8113 145.19 40.5604 145.694C38.7173 146.438 36.5623 148.943 35.5472 150.985Z" fill="#E3577A"/>
<path fill-rule="evenodd" clip-rule="evenodd" d="M65.6598 151.91C67.3379 150.112 69.8035 147.288 72.7179 143.687C69.9014 142.691 68.1346 138.053 67.5887 135.77C67.5611 133.886 68.6975 134.278 69.2691 134.709C69.8825 138.783 72.5225 140.969 74.075 141.721C74.1136 141.762 74.1525 141.804 74.1914 141.848C80.3113 134.13 88.011 123.454 94.5632 111.82C94.983 111.079 95.4331 110.286 95.9092 109.448C94.3483 106.91 93.6354 104.446 93.9598 102.878C94.5991 99.7917 95.9148 101.248 95.837 102.38C96.0887 104.178 96.7999 105.775 97.4156 106.798C101.615 99.4148 107.199 89.6364 111.914 81.4781C111.421 81.1906 110.901 80.8339 110.402 80.4002C108.589 78.825 106.951 76.3992 106.629 73.6716C106.306 70.9439 107.038 69.4256 107.712 70.4522C108.187 72.8635 109.745 77.9789 112.174 79.1493C112.374 79.3159 112.629 79.508 112.934 79.7145C116.035 74.3591 118.661 69.8834 120.107 67.5382C120.607 67.311 120.8 68.5268 117.582 75.2071C116.806 76.7316 115.836 78.6167 114.721 80.7574C116.537 81.6737 119.014 82.537 121.741 82.5894C122.837 82.4163 125.461 81.8565 127.182 81.0021C127.592 81.1217 128.038 81.5549 126.542 82.3306C126.303 82.4548 126.047 82.6132 125.766 82.7868C123.856 83.9686 120.811 85.853 114.106 82.4187C114.042 82.4036 113.967 82.3838 113.884 82.3589C109.855 90.0471 104.278 100.401 99.1032 109.273C100.237 109.826 101.015 110.218 101.591 110.508L101.591 110.508L101.591 110.508L101.591 110.508C102.381 110.906 102.79 111.112 103.214 111.279C103.671 111.459 104.146 111.593 105.132 111.872L105.133 111.872C105.618 112.009 106.228 112.182 107.02 112.412C111.241 113.637 108.753 114.257 106.981 114.413C104.107 113.974 100.206 112.245 98.0109 111.134C96.7176 113.322 95.4589 115.396 94.2664 117.289C89.0533 125.565 82.0922 135.662 76.5003 143.57C77.7849 144.88 80.3079 146.476 83.917 146.234C85.6455 146.341 85.1037 147.951 83.2415 148.103C82.1988 148.188 77.3137 147.515 75.0902 145.559C72.743 148.86 70.7129 151.67 69.2656 153.648L65.6598 151.91Z" fill="#B84A65"/>
</svg>
