<svg width="214" height="198" viewBox="0 0 214 198" fill="none" xmlns="http://www.w3.org/2000/svg">
<path d="M199.002 300.306C199.076 306.277 197.058 313.375 189.645 316.49L77.3018 284.94C76.5075 284.134 76.3596 279.841 80.021 275.258C87.4421 265.968 95.602 266.509 102.887 265.493C105.367 265.147 101.629 260.712 92.4165 252.928C79.3991 240.085 72.5022 228.816 69.9535 223.871C66.5553 217.278 71.2203 209.475 76.6217 206.442C82.0231 203.409 87.3099 203.173 91.2417 202.673C99.3805 201.109 102.653 201.503 103.037 201.174C104.519 200.569 103.368 197.504 86.9037 190.08C66.3236 180.801 53.1146 163.968 56.4169 152.208C59.7193 140.449 66.2156 131.337 77.5556 131.459C86.6275 131.557 87.966 130.737 87.5013 130.315C83.3566 126.38 73.0031 114.956 64.7467 100.739C54.4262 82.9662 53.9792 73.6535 56.0288 66.3548C58.0785 59.0562 68.9744 52.3358 78.8201 54.6633C88.6658 56.9909 90.0462 55.1911 90.0962 53.4553C90.1462 51.7194 90.4361 39.1628 91.3191 27.3414C92.0487 17.574 101.859 12.6568 105.073 11.0803C110.693 11.0808 118.873 11.4077 122.486 17.2346C126.1 23.0615 128.96 35.6521 128.81 40.8596C128.69 45.0256 129.657 58.6595 130.489 57.6678C141.439 44.6112 149.211 45.5863 151.623 45.8259C156.636 45.6297 166.62 49.745 170.922 59.3525C176.299 71.3618 171.575 83.445 169.237 88.4138C165.868 95.5739 150.681 115.283 151.623 114.527C141.018 124.635 138.058 128.474 140.597 131.374C144.388 135.704 189.175 117.181 191.981 131.459C195.771 150.748 182.966 154.542 176.397 159.593C171.345 163.477 169.583 177.861 180.131 170.544C187.708 165.288 203.765 161.123 207.564 161.699C214.512 162.921 229.098 176.811 228.202 193.709C227.083 214.83 183.881 213.868 180.131 216.315C179.134 216.966 176.787 218.875 177.712 218.698C184.439 214.92 187.917 217.127 190.391 218.696L190.418 218.713C197.344 225.208 198.107 234.434 197.622 238.235C196.703 252.413 187.9 270.102 184.194 275.149C182.03 278.094 180.991 278.677 180.166 280.143C185.971 279.639 192.749 284.432 194.564 286.426C197.239 289.365 198.947 295.747 199.002 300.306Z" fill="#E3577A"/>
<path fill-rule="evenodd" clip-rule="evenodd" d="M143.968 275.839C142.506 271.143 140.515 263.917 138.391 254.902C144.328 255.55 151.533 248.731 154.497 245.093C156.181 241.724 153.795 241.443 152.391 241.724C147.751 248.53 141.099 250.176 137.65 250.182C137.546 250.223 137.44 250.265 137.333 250.309C133.008 231.098 128.404 205.187 126.699 178.547C126.585 176.848 126.463 175.028 126.333 173.104C131.345 169.887 134.766 166.068 135.542 162.964C137.069 156.85 133.436 158.331 132.594 160.437C130.581 163.456 127.916 165.715 125.919 167.023C124.763 150.081 123.19 127.624 121.779 108.839C122.915 108.749 124.161 108.558 125.436 108.21C130.069 106.946 135.123 103.998 138.071 99.3651C141.019 94.7321 141.019 91.3627 138.913 92.6262C135.965 96.5572 128.721 104.419 123.33 104.419C122.825 104.545 122.199 104.67 121.472 104.777C120.534 92.4406 119.689 82.1008 119.118 76.6214C118.416 75.779 117.012 77.8007 117.012 92.6262C117.085 96.0446 117.197 100.282 117.349 105.105C113.282 105.18 108.071 104.586 103.113 102.313C101.288 101.05 97.0482 97.7646 94.6896 94.7321C93.8472 94.5917 92.6679 94.9848 94.6896 97.6803C95.0132 98.1119 95.3369 98.6194 95.6915 99.1756C98.1058 102.961 101.955 108.998 117.012 108.631C117.141 108.66 117.293 108.689 117.466 108.717C118.051 126.06 119.11 149.548 120.731 170.019C118.21 170.031 116.468 170.062 115.179 170.085H115.179H115.179H115.178H115.178C113.412 170.116 112.496 170.132 111.586 170.064C110.607 169.991 109.635 169.821 107.617 169.467C106.624 169.293 105.376 169.075 103.75 168.802C95.0826 167.346 99.0273 170.621 102.083 172.44C107.639 174.143 116.168 174.414 121.084 174.319C121.515 179.382 121.982 184.211 122.487 188.655C124.695 208.085 128.47 232.312 131.68 251.407C128.23 252.653 122.298 253.34 116.006 249.771C112.799 248.464 112.378 251.833 115.6 253.723C117.405 254.782 126.792 257.81 132.494 256.213C133.857 264.197 135.074 271.021 135.965 275.839H143.968Z" fill="#B84A65"/>
</svg>
