<svg width="114" height="182" viewBox="0 0 114 182" fill="none" xmlns="http://www.w3.org/2000/svg">
<path d="M-23.9419 208.294C-23.9928 212.445 -22.5903 217.379 -17.4369 219.545L60.6634 197.612C61.2156 197.051 61.3184 194.067 58.773 190.881C53.6139 184.422 47.9412 184.799 42.8768 184.092C41.1525 183.851 43.7516 180.768 50.1558 175.357C59.2053 166.429 64 158.594 65.7718 155.157C68.1342 150.574 64.8912 145.149 61.1362 143.04C57.3811 140.932 53.7058 140.768 50.9725 140.42C45.3145 139.333 43.0395 139.607 42.7724 139.378C41.742 138.958 42.5426 136.827 53.9882 131.666C68.2953 125.215 77.4781 113.513 75.1823 105.338C72.8866 97.1628 68.3704 90.828 60.487 90.913C54.1802 90.981 53.2497 90.4109 53.5728 90.1174C56.4541 87.3821 63.6518 79.4406 69.3916 69.5564C76.5663 57.2012 76.8771 50.7271 75.4521 45.6532C74.0272 40.5792 66.4525 35.9073 59.6078 37.5254C52.7632 39.1434 51.8036 37.8923 51.7688 36.6855C51.7341 35.4788 51.5325 26.7495 50.9187 18.5314C50.4115 11.7412 43.5913 8.32279 41.3573 7.22681C37.45 7.22713 31.7635 7.45438 29.2515 11.5052C26.7396 15.556 24.7514 24.3089 24.8557 27.9291C24.9391 30.8253 24.2666 40.3034 23.6884 39.614C16.0756 30.5372 10.6726 31.2151 8.99601 31.3817C5.51093 31.2452 -1.43008 34.1062 -4.42043 40.7852C-8.15837 49.134 -4.87477 57.5341 -3.24923 60.9884C-0.906834 65.966 9.65055 79.6678 8.99601 79.142C16.3684 86.1692 18.4265 88.8376 16.6612 90.854C14.026 93.8639 -17.1098 80.987 -19.0604 90.913C-21.6956 104.323 -12.7937 106.96 -8.22683 110.472C-4.71492 113.172 -3.48979 123.171 -10.8227 118.084C-16.0901 114.43 -27.2529 111.535 -29.894 111.936C-34.7242 112.785 -44.8638 122.441 -44.2412 134.188C-43.463 148.872 -13.4293 148.203 -10.8227 149.904C-10.1291 150.357 -8.498 151.684 -9.14096 151.561C-13.8177 148.935 -16.2355 150.468 -17.9553 151.559L-17.9741 151.571C-22.7887 156.086 -23.3191 162.5 -22.9825 165.143C-22.3433 174.999 -16.2234 187.297 -13.6469 190.805C-12.143 192.853 -11.4207 193.258 -10.8472 194.276C-14.8828 193.926 -19.5946 197.258 -20.8566 198.645C-22.7159 200.688 -23.903 205.125 -23.9419 208.294Z" fill="#E3577A"/>
<path fill-rule="evenodd" clip-rule="evenodd" d="M14.318 191.283C15.3343 188.018 16.718 182.995 18.1949 176.728C14.0677 177.177 9.05905 172.437 6.99853 169.908C5.82733 167.566 7.48653 167.371 8.46253 167.566C11.6884 172.297 16.3128 173.442 18.7103 173.446C18.7827 173.474 18.8562 173.503 18.9304 173.534C21.9374 160.179 25.1375 142.166 26.3228 123.646C26.4019 122.465 26.4871 121.2 26.5776 119.863C23.0922 117.626 20.7133 114.971 20.1741 112.813C19.1123 108.562 21.6383 109.592 22.2236 111.056C23.6236 113.156 25.477 114.726 26.8649 115.635C27.6688 103.858 28.7622 88.2453 29.7432 75.1864C28.9534 75.1237 28.0879 74.9905 27.2017 74.7488C23.9809 73.8704 20.4673 71.8208 18.4177 68.6C16.3681 65.3792 16.3681 63.0368 17.8321 63.9152C19.8817 66.648 24.9179 72.1136 28.6657 72.1136C29.0166 72.2014 29.4517 72.2878 29.9567 72.3626C30.6091 63.7861 31.1964 56.598 31.5932 52.7887C32.0812 52.2031 33.0572 53.6085 33.0572 63.9151C33.0063 66.2915 32.9288 69.2372 32.8232 72.5907C35.6504 72.6425 39.2733 72.2294 42.7201 70.6496C43.9889 69.7712 46.9364 67.4874 48.5761 65.3792C49.1617 65.2816 49.9815 65.5549 48.5761 67.4288C48.3511 67.7288 48.1262 68.0816 47.8797 68.4681L47.8796 68.4682L47.8795 68.4683C46.2012 71.1002 43.5249 75.2969 33.0577 75.0416C32.9677 75.0616 32.8618 75.0818 32.7413 75.1012C32.3351 87.1582 31.5987 103.487 30.4715 117.718C32.2247 117.726 33.4354 117.748 34.3313 117.764C35.5597 117.785 36.1964 117.796 36.8288 117.749C37.5095 117.699 38.1852 117.58 39.588 117.334C40.2788 117.213 41.1459 117.062 42.2767 116.872C48.3021 115.86 45.5597 118.136 43.4354 119.401C39.5728 120.585 33.6443 120.773 30.2262 120.707C29.9267 124.227 29.6019 127.584 29.2508 130.674C27.7159 144.181 25.0915 161.023 22.8603 174.298C25.2586 175.165 29.3824 175.642 33.7572 173.161C35.9863 172.252 36.2789 174.595 34.0391 175.909C32.7846 176.645 26.2584 178.75 22.2943 177.64C21.3469 183.19 20.5004 187.934 19.8812 191.283H14.318Z" fill="#B84A65"/>
</svg>
