<svg width="140" height="279" viewBox="0 0 140 279" fill="none" xmlns="http://www.w3.org/2000/svg">
<path d="M-57.4448 230.033C-58.5753 234.353 -58.3987 239.867 -53.6037 243.456L33.2805 240.678C34.0001 240.235 34.8818 237.145 33.0631 233.162C29.3768 225.089 23.382 224.021 18.3007 221.978C16.5707 221.283 20.0732 218.733 28.1356 214.733C39.8612 207.742 46.8798 200.797 49.6142 197.664C53.26 193.487 51.2973 186.987 47.9412 183.818C44.585 180.649 40.8069 179.53 38.0557 178.463C32.4562 175.87 30.0202 175.57 29.802 175.262C28.8399 174.558 30.2255 172.539 43.4638 170.099C60.0117 167.05 72.5962 157.197 72.3322 148.069C72.0682 138.941 69.0182 131.163 60.8009 129.221C54.2271 127.667 53.4077 126.832 53.8198 126.608C57.5253 124.495 67.0697 118.057 75.6029 109.215C86.2693 98.1628 88.2733 91.4827 88.1095 85.8175C87.9456 80.1523 81.2843 73.3223 73.7488 73.2482C66.2134 73.1741 65.5406 71.6205 65.8178 70.3515C66.095 69.0825 68.152 59.9157 69.6477 51.1764C70.8835 43.9556 64.681 38.6289 62.6433 36.9089C58.5814 35.9024 52.6109 34.6745 48.9479 38.257C45.2848 41.8396 40.9453 50.4667 40.1137 54.2738C39.4485 57.3194 36.2884 67.0429 35.8663 66.174C30.3092 54.7348 24.5165 54.0504 22.7303 53.7924C19.1428 52.752 11.1845 53.9508 6.34165 60.1544C0.288149 67.9088 1.52057 77.526 2.31352 81.5517C3.45616 87.3527 10.8735 104.38 10.3296 103.662C16.169 112.9 17.6157 116.216 15.257 117.867C11.736 120.331 -17.2879 98.8624 -21.8928 108.724C-28.114 122.047 -19.5448 127.095 -15.709 131.938C-12.7593 135.663 -14.0819 146.419 -20.3842 139.218C-24.9112 134.046 -35.7637 128.146 -38.6133 127.884C-43.8551 127.527 -56.903 134.997 -59.3058 147.423C-62.3093 162.956 -30.914 169.996 -28.646 172.443C-28.0425 173.095 -26.6916 174.901 -27.3279 174.607C-31.5078 170.66 -34.4195 171.638 -36.4905 172.334L-36.5131 172.342C-42.6904 175.816 -44.9072 182.376 -45.2434 185.222C-47.1382 195.679 -43.9691 210.096 -42.2016 214.423C-41.1699 216.949 -40.5243 217.558 -40.1925 218.77C-44.2967 217.364 -50.0602 219.629 -51.7321 220.752C-54.1954 222.406 -56.5813 226.733 -57.4448 230.033Z" fill="#673B81"/>
<path fill-rule="evenodd" clip-rule="evenodd" d="M-13.1718 222.148C-11.269 219.002 -8.52834 214.114 -5.36841 207.952C-9.77552 207.356 -13.7539 201.115 -15.2406 197.943C-15.8512 195.195 -14.0755 195.42 -13.1114 195.875C-10.9838 201.648 -6.47239 204.036 -3.98093 204.66C-3.94399 204.685 -3.90681 204.712 -3.86945 204.739C-3.8383 204.761 -3.80703 204.784 -3.7757 204.808C2.81225 191.64 10.808 173.661 16.8405 154.632C17.2289 153.419 17.6456 152.119 18.0865 150.746C15.043 147.512 13.2583 144.126 13.2569 141.734C13.2548 137.022 15.6142 138.749 15.8433 140.428C16.7543 142.981 18.2738 145.099 19.481 146.406C23.3695 134.318 28.5528 118.301 32.9574 104.92C32.1521 104.651 31.2865 104.288 30.4274 103.807C27.3065 102.059 24.1846 99.012 22.8885 95.1204C21.5923 91.2287 22.1995 88.7832 23.4939 90.0781C24.9165 93.4603 28.736 100.466 32.6326 101.434C32.9749 101.616 33.4051 101.819 33.9112 102.027C36.8124 93.2419 39.286 85.8891 40.6859 82.0146C41.345 81.5291 41.9955 83.2484 39.3241 94.0087C38.6552 96.4765 37.8112 99.5317 36.8323 103.005C39.7583 103.789 43.6317 104.293 47.6243 103.533C49.1712 102.943 52.8276 101.32 55.0788 99.5421C55.713 99.5914 56.4945 100.088 54.5476 101.682C54.2359 101.937 53.9105 102.247 53.554 102.587C51.1268 104.902 47.2566 108.593 36.44 105.624C36.3415 105.622 36.2265 105.616 36.0966 105.605C32.5492 118.088 27.5513 134.945 22.6907 149.513C24.5115 149.974 25.7647 150.309 26.6922 150.556L26.6923 150.556L26.6925 150.557L26.6926 150.557C27.9638 150.896 28.6228 151.072 29.2924 151.186C30.0134 151.309 30.7465 151.36 32.2689 151.465L32.2701 151.465L32.2725 151.466C33.0215 151.517 33.9613 151.583 35.1842 151.676C41.711 152.175 38.2697 153.844 35.7332 154.616C31.4103 154.855 25.1974 153.521 21.6609 152.57C20.4371 156.168 19.2293 159.589 18.0632 162.724C12.9667 176.429 5.87288 193.335 0.112428 206.619C2.3815 208.142 6.54511 209.705 11.7367 208.244C14.2898 207.871 13.9869 210.392 11.3176 211.185C9.82248 211.63 2.49177 212.143 -1.34201 209.961C-3.76576 215.512 -5.87569 220.246 -7.38777 223.584L-13.1718 222.148Z" fill="#936FA8"/>
</svg>
