<svg width="259" height="379" viewBox="0 0 259 379" fill="none" xmlns="http://www.w3.org/2000/svg">
<path d="M283.921 331.139C285.547 337.354 285.293 345.286 278.395 350.449L153.417 346.452C152.381 345.815 151.113 341.371 153.729 335.641C159.032 324.029 167.655 322.492 174.964 319.553C177.453 318.553 172.415 314.885 160.817 309.131C143.95 299.076 133.855 289.085 129.921 284.579C124.677 278.57 127.5 269.22 132.328 264.662C137.155 260.103 142.59 258.495 146.548 256.959C154.602 253.229 158.106 252.797 158.42 252.354C159.804 251.341 157.811 248.438 138.768 244.928C114.965 240.541 96.8627 226.368 97.2424 213.239C97.6222 200.109 102.009 188.92 113.83 186.126C123.286 183.891 124.464 182.69 123.872 182.368C118.541 179.328 104.812 170.068 92.5377 157.349C77.1945 141.451 74.3119 131.842 74.5476 123.693C74.7833 115.544 84.3652 105.719 95.2047 105.612C106.044 105.506 107.012 103.271 106.613 101.446C106.214 99.6202 103.255 86.4343 101.104 73.8631C99.3264 63.4763 108.248 55.8141 111.179 53.34C117.022 51.8923 125.611 50.126 130.88 55.2793C136.149 60.4326 142.391 72.8424 143.587 78.3186C144.544 82.6996 149.09 96.6864 149.697 95.4365C157.691 78.9817 166.023 77.9974 168.592 77.6261C173.753 76.1296 185.201 77.8541 192.167 86.7776C200.874 97.9319 199.102 111.766 197.961 117.557C196.317 125.901 185.648 150.394 186.43 149.362C178.031 162.649 175.95 167.42 179.342 169.794C184.407 173.338 226.157 142.457 232.781 156.643C241.73 175.808 229.403 183.068 223.886 190.035C219.643 195.393 221.545 210.865 230.611 200.507C237.123 193.067 252.733 184.581 256.832 184.203C264.373 183.689 283.141 194.435 286.598 212.309C290.918 234.653 245.757 244.779 242.495 248.3C241.627 249.237 239.683 251.836 240.599 251.412C246.611 245.734 250.8 247.142 253.779 248.143L253.811 248.154C262.697 253.151 265.886 262.588 266.369 266.682C269.095 281.723 264.536 302.462 261.994 308.686C260.51 312.319 259.581 313.196 259.104 314.938C265.008 312.916 273.298 316.175 275.703 317.79C279.246 320.169 282.679 326.393 283.921 331.139Z" fill="#673B81"/>
<path fill-rule="evenodd" clip-rule="evenodd" d="M220.234 319.797C217.497 315.271 213.555 308.241 209.01 299.378C215.35 298.522 221.075 289.543 223.213 284.98C224.092 281.027 221.537 281.35 220.151 282.006C217.09 290.309 210.601 293.744 207.017 294.641C206.919 294.71 206.819 294.782 206.719 294.856C197.243 275.915 185.741 250.052 177.063 222.678C176.504 220.934 175.905 219.066 175.271 217.091C179.65 212.438 182.217 207.568 182.219 204.127C182.222 197.349 178.828 199.833 178.499 202.249C177.188 205.922 175.002 208.968 173.265 210.849C167.672 193.46 160.216 170.419 153.88 151.172C155.038 150.784 156.284 150.263 157.52 149.57C162.01 147.055 166.5 142.672 168.365 137.074C170.229 131.476 169.356 127.959 167.494 129.821C165.447 134.686 159.953 144.764 154.348 146.156C153.856 146.418 153.236 146.71 152.508 147.01C148.334 134.372 144.776 123.795 142.762 118.222C141.814 117.523 140.879 119.996 144.721 135.475C145.683 139.025 146.898 143.42 148.306 148.417C144.097 149.544 138.526 150.268 132.783 149.176C130.558 148.328 125.299 145.992 122.06 143.435C121.148 143.506 120.024 144.221 122.825 146.513C123.273 146.88 123.741 147.326 124.253 147.815L124.254 147.815L124.254 147.815L124.254 147.815C127.745 151.145 133.312 156.454 148.871 152.184C149.013 152.181 149.178 152.172 149.364 152.156C154.467 170.112 161.656 194.361 168.648 215.315C166.03 215.978 164.228 216.46 162.894 216.816L162.894 216.816L162.894 216.816L162.894 216.816C161.065 217.305 160.117 217.558 159.153 217.722C158.116 217.899 157.062 217.972 154.872 218.123L154.872 218.123C153.794 218.198 152.44 218.292 150.678 218.427C141.29 219.144 146.24 221.545 149.889 222.656C156.106 222.999 165.042 221.082 170.129 219.713C171.889 224.888 173.627 229.809 175.304 234.319C182.635 254.034 192.84 278.353 201.126 297.461C197.862 299.652 191.874 301.899 184.408 299.797C180.735 299.26 181.171 302.886 185.011 304.028C187.161 304.668 197.703 305.406 203.218 302.269C206.704 310.252 209.739 317.062 211.914 321.862L220.234 319.797Z" fill="#936FA8"/>
</svg>
