<svg width="77" height="207" viewBox="0 0 77 207" fill="none" xmlns="http://www.w3.org/2000/svg">
<path d="M54.2559 187.246C56.1005 185.222 60.0764 179.734 61.2229 173.974C61.1626 173.366 59.9203 172.907 55.4337 175.93C50.9471 178.952 50.2823 178.128 49.1435 177.474C47.5391 176.253 43.7205 172.919 41.2803 169.357C38.2301 164.903 34.667 155.285 34.6575 147.461L34.6479 139.638C34.5721 139.39 34.9252 138.414 36.944 136.495C39.4675 134.097 42.6494 124.422 42.1646 122.629C41.6797 120.836 41.3155 120.259 39.1724 121.852C37.0293 123.446 33.578 127.317 30.4189 126.404C29.9481 126.297 29.037 125.774 29.1594 124.534L27.1524 105.863C27.1323 105.66 27.2836 105.021 28.0499 104.086C29.0078 102.917 35.755 99.7924 38.7721 86.9125C38.9955 86.0721 39.4274 83.9324 39.368 82.0973C39.1963 81.3984 38.4912 80.374 37.0439 81.8677C35.7158 83.9428 32.6189 88.2902 30.8561 89.0789C28.6527 90.0647 27.558 91.4007 25.6885 92.6603C23.8191 93.9198 22.898 86.1868 22.1741 78.8945C21.4501 71.6022 22.0482 63.7184 23.115 59.0099C23.156 58.3922 23.8701 56.7257 26.3992 55.0018C29.5605 52.8469 29.4073 54.3966 33.6194 48.9153C34.9272 46.6379 36.4345 41.7325 36.2375 41.2915C36.2073 40.9877 35.8554 40.5314 35.2357 40.4702C34.461 40.3937 33.1902 41.8839 32.378 42.5951C31.39 43.4604 29.8244 44.6897 26.9066 46.2067C26.1165 46.4897 25.0372 47.4663 23.3811 47.7841C22.9404 47.9813 22.1294 47.5403 22.4115 44.1982C22.6935 40.8562 22.7296 31.4327 22.7124 27.1388C22.7178 26.678 23.4063 25.4743 26.1172 24.346C29.5058 22.9357 37.963 16.3786 36.9857 14.829C36.6215 14.2515 36.3067 14.0426 32.8386 14.7804C30.1341 15.3558 25.229 17.2541 23.3568 18.1764C24.1143 13.9589 24.206 3.24104 20.9995 0.613706C20.3616 0.37023 18.4018 0.718183 17.516 7.24976C17.3514 10.7436 16.8614 17.6552 16.2175 17.351C15.4126 16.9706 7.80477 12.9698 5.0098 12.6336C2.21483 12.2974 2.8968 14.5311 8.2248 20.2923L8.31724 20.3946C9.31324 21.4968 11.1097 23.4849 14.9653 26.3736C15.8926 27.0684 14.3484 46.4307 13.4704 56.1321C13.3081 56.5574 12.0788 56.3317 8.46031 52.0269C4.84183 47.7222 2.94444 46.9491 2.44809 47.1006C2.09863 47.1865 1.80013 48.3003 3.40161 52.0689C5.40347 56.7796 7.28466 60.2749 13.2203 65.9759C13.4275 66.5178 13.631 69.4944 12.787 77.0651C11.943 84.6358 13.0435 93.5579 13.6993 97.0726C13.7542 98.141 12.9349 99.5725 9.21814 96.7503C4.57216 93.2226 1.70292 90.5925 0.624373 90.5462C-0.454174 90.4998 0.956185 93.8885 3.21774 96.5789C5.47929 99.2694 5.9781 102.749 12.7326 110.516C14.2457 111.849 17.3902 114.779 17.8634 115.837C18.3366 116.894 19.7758 125.312 20.4362 129.389C20.1725 129.824 18.5487 130.466 14.1621 129.552C9.77554 128.637 6.40116 127.1 5.26229 126.446C4.1938 126.501 3.71158 128.134 10.3306 134.228C16.9496 140.321 21.4 141.158 22.7978 140.815L26.2453 163.178C23.6282 162.057 17.9931 159.487 16.3898 158.173C14.3858 156.531 15.4589 161.877 18.3756 164.266L26.7258 171.108C27.9982 172.901 31.3658 177.893 34.6574 183.515L39.2514 189.956L41.2803 192.591L43.3506 194.787C41.236 195.031 39.2514 195.373 35.7378 194.787C35.2498 195.715 35.5622 198.096 40.7154 200.204C42.9297 201.034 47.157 202.839 50.3778 201.668L54.2559 206.061L76.4372 206.061L68.8242 200.789L63.261 196.69L58.2834 192.005L54.2559 187.246Z" fill="#672540"/>
</svg>
