<svg width="312" height="194" viewBox="0 0 312 194" fill="none" xmlns="http://www.w3.org/2000/svg">
<path d="M292.893 240.673L311.004 250.36H231.401H210.342C202.986 250.36 194.759 243.621 199.813 243.621C203.856 243.621 215.537 240.532 220.872 238.988L188.02 209.506C186.335 211.752 178.585 215.992 161.064 214.981C143.543 213.97 142.252 210.91 143.796 209.506C146.323 209.084 153.315 207.231 161.064 203.188C168.814 199.145 170.471 196.168 170.33 195.186C164.293 189.851 151.714 178.928 149.692 177.917C147.671 176.906 139.303 176.373 135.372 176.232C115.577 172.863 110.523 168.23 103.784 166.967C97.045 165.703 90.7273 162.334 92.412 161.07C94.0968 159.807 101.678 160.228 113.05 159.807C122.147 159.47 121.614 156.297 120.21 154.752C114.875 150.26 102.183 138.158 94.0968 125.691C86.0101 113.224 82.023 108.984 81.0402 108.423C65.0354 107.159 57.8754 104.211 49.0306 99.5779C41.9548 95.8715 41.0282 93.8218 41.4494 93.2602C42.011 92.4179 45.8297 91.2386 56.6118 93.2602C67.394 95.2819 69.528 94.1026 69.2472 93.2602C58.5773 77.5362 36.9687 46.4112 34.7105 46.5094C25.0234 46.9305 19.8289 46.0882 17.021 45.667C1.85858 43.5612 -1.93201 41.034 2.70096 38.0857C7.33392 35.1373 23.7599 31.7681 25.4446 31.3469C26.7924 31.01 18.9865 19.9751 14.9151 14.4998C8.17627 3.54912 10.7033 0.600965 11.9669 0.179688C20.0535 0.179688 33.1662 16.4652 37.2376 23.7657C38.9223 20.0593 43.9765 11.1303 47.3459 6.91845C51.6668 1.51723 52.4001 1.44322 53.6636 1.8643C57.0541 2.99421 52.4001 23.3444 49.0306 29.6621C46.3351 34.7163 46.7843 37.3837 47.3459 38.0857C52.6808 44.5436 64.2773 58.8073 67.9837 64.1988C71.69 69.5903 73.459 69.2531 73.8802 68.4106C75.9861 65.8836 76.4073 63.0756 77.2496 61.6717C79.7767 55.7753 80.619 51.9847 81.0402 49.4575C81.3864 47.3803 81.4614 43.5605 82.7249 42.7181C83.7358 42.0442 84.8308 42.2976 85.252 42.7188C86.0944 43.1406 89.885 52.4059 90.7273 57.4594C91.1485 70.9378 89.4638 68.41 87.3579 75.5701C85.6732 81.2981 86.6559 84.6956 87.3579 85.6784C91.5697 94.1019 100.414 106.737 110.523 116.846C120.631 126.954 131.582 137.483 132.845 133.272C134.109 129.06 134.109 125.69 136.215 121.479C137.899 118.109 137.197 107.72 136.636 102.947C136.973 98.904 139.303 99.5779 140.426 100.42C142.785 103.116 144.779 106.878 145.481 108.423C156.852 131.588 150.535 144.644 150.535 147.592C150.535 149.951 151.096 151.102 151.377 151.383L177.49 177.075C178.838 179.096 180.86 178.76 181.702 178.338C187.598 175.811 188.02 165.703 189.283 160.648C190.547 155.594 191.81 156.016 194.759 158.121C197.707 160.227 204.867 178.759 204.024 185.498C203.351 190.889 204.024 192.798 204.446 193.079L214.133 204.872C223.82 216.665 241.088 226.774 251.197 229.722C259.283 232.08 269.167 232.389 273.098 232.249C275.625 231.828 277.647 232.249 280.679 222.141C283.712 212.032 286.154 211.19 286.997 212.032C292.388 222.141 293.174 235.338 292.893 240.673Z" fill="#672540"/>
</svg>
