<svg width="329" height="175" viewBox="0 0 329 175" fill="none" xmlns="http://www.w3.org/2000/svg">
<path d="M351.089 133.481L371.503 135.741L297.604 165.333L278.055 173.162C271.226 175.896 261.083 172.699 265.775 170.82C269.528 169.317 279.224 162.108 283.602 158.691L242.145 143.533C241.416 146.245 235.798 153.062 219.156 158.637C202.515 164.212 200.178 161.851 201.09 159.973C203.28 158.643 209.081 154.323 214.772 147.689C220.464 141.055 220.895 137.676 220.399 136.816C212.812 134.107 197.074 128.644 194.821 128.457C192.569 128.27 184.603 130.885 180.901 132.216C161.272 136.447 154.858 134.025 148.132 135.357C141.406 136.689 134.289 135.91 135.383 134.11C136.477 132.311 143.672 129.884 154.072 125.265C162.392 121.571 160.718 118.824 158.84 117.912C152.218 115.724 135.937 109.208 123.795 100.641C111.654 92.0732 106.376 89.6194 105.255 89.4634C89.9275 94.2401 82.1845 94.1648 72.2514 93.1518C64.3048 92.3414 62.6827 90.783 62.8649 90.1051C63.0731 89.1144 66.1797 86.6 76.9407 84.4686C87.7018 82.3372 89.2444 80.4491 88.6706 79.7715C72.9201 69.1408 41.2895 48.2792 39.2297 49.2098C30.3934 53.2019 25.2579 54.3509 22.4947 55.0037C7.63608 58.6854 3.17768 57.7484 6.3826 53.2891C9.58752 48.8297 23.5838 39.5957 24.9913 38.5785C26.1172 37.7646 14.7686 30.4223 8.95356 26.8529C-1.37319 19.1921 -0.123175 15.5158 0.893217 14.655C8.40033 11.6489 26.6274 21.8928 33.1209 27.1566C33.307 23.0895 34.6797 12.9216 36.2419 7.75898C38.2453 1.13858 38.8985 0.797291 40.228 0.718479C43.7956 0.507021 47.0401 21.129 46.2607 28.2465C45.6372 33.9404 47.0458 36.2498 47.8281 36.6926C55.1814 40.7045 71.2492 49.6351 76.6942 53.2624C82.1393 56.8898 83.6561 55.9191 83.7339 54.9804C84.7495 51.8517 84.0966 49.0884 84.3567 47.4719C84.5107 41.0586 83.8836 37.2265 83.3351 34.7239C82.8843 32.6668 81.5339 29.0929 82.3938 27.8412C83.0817 26.8398 84.1924 26.668 84.74 26.9024C85.6788 26.9808 92.6421 34.173 95.3027 38.5512C100.704 50.9071 98.2005 49.1868 98.9072 56.6166C99.4726 62.5604 101.648 65.3491 102.665 66.0005C109.706 72.2547 122.614 80.6965 135.756 86.3228C148.897 91.949 162.978 97.653 162.585 93.2734C162.192 88.8937 160.94 85.7657 161.329 81.0729C161.64 77.3187 157.127 67.9355 154.831 63.7132C153.641 59.8344 156.055 59.5936 157.411 59.9581C160.602 61.5836 163.852 64.3354 165.077 65.5081C184.246 82.7855 183.234 97.2549 184.33 99.9919C185.207 102.181 186.156 103.041 186.521 103.198L220.314 117.341C222.317 118.717 224.068 117.652 224.694 116.948C229.228 112.41 225.861 102.87 225.155 97.7079C224.45 92.5463 225.779 92.4676 229.299 93.3265C232.819 94.1855 246.355 108.728 248.078 115.297C249.456 120.552 250.792 122.074 251.287 122.178L264.664 129.525C278.041 136.872 297.829 139.836 308.309 138.815C316.693 137.999 325.983 134.611 329.58 133.02C331.77 131.689 333.803 131.329 332.861 120.818C331.918 110.306 333.873 108.616 334.968 109.085C343.73 116.465 349.366 128.424 351.089 133.481Z" fill="#672540"/>
</svg>
