<svg width="144" height="116" viewBox="0 0 144 116" fill="none" xmlns="http://www.w3.org/2000/svg">
<path d="M8.40846 111.508L0 116H36.9581H46.7354C50.1505 116 53.9706 112.876 51.624 112.876C49.7468 112.876 44.3236 111.443 41.8467 110.727L57.0993 97.0573C57.8815 98.0989 61.4795 100.065 69.6142 99.5961C77.7489 99.1274 78.3486 97.7083 77.6316 97.0573C76.4583 96.862 73.2122 96.0028 69.6142 94.128C66.0162 92.2533 65.247 90.8733 65.3122 90.4176C68.115 87.944 73.9553 82.8795 74.8939 82.4109C75.8325 81.9422 79.7174 81.6948 81.5425 81.6297C90.7331 80.0674 93.0797 77.9193 96.2084 77.3334C99.3371 76.7475 102.27 75.1853 101.488 74.5994C100.706 74.0135 97.1861 74.2088 91.9064 74.0135C87.6826 73.8573 87.9303 72.3862 88.5821 71.6701C91.059 69.587 96.9515 63.9758 100.706 58.1953C104.46 52.4149 106.312 50.449 106.768 50.1886C114.199 49.6027 117.523 48.2357 121.629 46.0876C124.914 44.3691 125.345 43.4187 125.149 43.1583C124.888 42.7677 123.115 42.2209 118.109 43.1583C113.104 44.0957 112.113 43.5489 112.243 43.1583C117.197 35.8676 127.229 21.436 128.278 21.4815C132.775 21.6768 135.187 21.2862 136.491 21.0909C143.53 20.1145 145.29 18.9428 143.139 17.5757C140.988 16.2087 133.362 14.6465 132.58 14.4512C131.954 14.295 135.578 9.17846 137.468 6.63974C140.597 1.56229 139.424 0.195332 138.837 0C135.083 0 128.995 7.55106 127.105 10.936C126.322 9.21752 123.976 5.07745 122.411 3.12454C120.405 0.620172 120.065 0.585859 119.478 0.7811C117.904 1.305 120.065 10.7407 121.629 13.67C122.881 16.0134 122.672 17.2502 122.411 17.5757C119.935 20.57 114.551 27.1836 112.83 29.6835C111.109 32.1834 110.288 32.027 110.092 31.6363C109.114 30.4647 108.919 29.1627 108.528 28.5118C107.354 25.7778 106.963 24.0202 106.768 22.8485C106.607 21.8853 106.572 20.1142 105.986 19.7236C105.516 19.4112 105.008 19.5286 104.812 19.7239C104.421 19.9195 102.661 24.2155 102.27 26.5586C102.075 32.8081 102.857 31.6361 103.835 34.956C104.617 37.6119 104.161 39.1872 103.835 39.6428C101.879 43.5486 97.7728 49.4071 93.0797 54.094C88.3866 58.7809 83.3024 63.663 82.7157 61.7102C82.1291 59.7573 82.1291 58.195 81.1514 56.2422C80.3692 54.6799 80.6951 49.863 80.9558 47.6499C80.7994 45.7751 79.7174 46.0876 79.1959 46.4782C78.1009 47.728 77.1753 49.4725 76.8494 50.1886C71.5696 60.9294 74.5028 66.9832 74.5028 68.3502C74.5028 69.4438 74.2421 69.9776 74.1117 70.1078L61.9879 82.0203C61.3622 82.9576 60.4236 82.8014 60.0325 82.6061C57.2948 81.4344 57.0993 76.7474 56.5126 74.4039C55.926 72.0605 55.3394 72.2558 53.9706 73.2322C52.6017 74.2086 49.2775 82.8012 49.6686 85.9258C49.9814 88.4255 49.6686 89.3108 49.473 89.441L44.9755 94.909C40.4779 100.377 32.4606 105.064 27.7675 106.431C24.013 107.524 19.4242 107.668 17.5991 107.603C16.4258 107.407 15.4872 107.603 14.0793 102.916C12.6713 98.2289 11.5372 97.8384 11.1461 98.2289C8.64311 102.916 8.27809 109.035 8.40846 111.508Z" fill="#672540"/>
</svg>
