<svg width="163" height="175" viewBox="0 0 163 175" fill="none" xmlns="http://www.w3.org/2000/svg">
<path d="M-41.019 167.632L-53.6094 174.366H1.7298H16.3698C21.4834 174.366 27.2034 169.682 23.6898 169.682C20.8789 169.682 12.7586 167.534 9.04979 166.461L31.8882 145.965C33.0594 147.526 38.4469 150.474 50.6274 149.771C62.8078 149.069 63.7058 146.941 62.6322 145.965C60.8754 145.672 56.0149 144.384 50.6274 141.573C45.2399 138.762 44.0882 136.693 44.1858 136.01C48.3826 132.301 57.1275 124.708 58.533 124.005C59.9384 123.302 65.7554 122.931 68.4882 122.834C82.2498 120.491 85.7634 117.271 90.4482 116.392C95.1329 115.514 99.5249 113.171 98.3538 112.293C97.1826 111.415 91.9122 111.707 84.0066 111.415C77.6821 111.18 78.053 108.975 79.029 107.901C82.7378 104.778 91.5608 96.3646 97.1826 87.6977C102.804 79.0308 105.576 76.0833 106.259 75.6929C117.386 74.8145 122.363 72.7649 128.512 69.5441C133.431 66.9675 134.075 65.5425 133.783 65.1521C133.392 64.5665 130.737 63.7467 123.242 65.1521C115.746 66.5576 114.263 65.7377 114.458 65.1521C121.875 54.2209 136.897 32.5831 138.467 32.6513C145.202 32.9441 148.813 32.3585 150.765 32.0657C161.306 30.6018 163.941 28.8449 160.72 26.7953C157.499 24.7456 146.08 22.4033 144.909 22.1105C143.972 21.8763 149.399 14.205 152.229 10.3986C156.914 2.78576 155.157 0.736228 154.279 0.443359C148.657 0.443359 139.541 11.7649 136.711 16.8402C135.539 14.2635 132.026 8.05616 129.683 5.12809C126.68 1.37321 126.17 1.32176 125.291 1.61449C122.934 2.39999 126.17 16.5473 128.512 20.9393C130.386 24.4529 130.074 26.3073 129.683 26.7953C125.975 31.2847 117.913 41.2007 115.336 44.9489C112.76 48.697 111.53 48.4626 111.237 47.8769C109.773 46.1201 109.48 44.1681 108.895 43.1921C107.138 39.0929 106.552 36.4577 106.259 34.7009C106.019 33.2568 105.967 30.6013 105.088 30.0157C104.385 29.5472 103.624 29.7233 103.331 30.0161C102.746 30.3094 100.111 36.7505 99.5249 40.2637C99.2321 49.6337 100.403 47.8765 101.867 52.8541C103.039 56.8362 102.355 59.1981 101.867 59.8813C98.9393 65.7373 92.7906 74.5213 85.7634 81.5485C78.7362 88.5757 71.1234 95.8957 70.245 92.9677C69.3666 90.0396 69.3666 87.6973 67.9026 84.7693C66.7314 82.4269 67.2194 75.2048 67.6098 71.8865C67.3755 69.0756 65.7554 69.5441 64.9746 70.1297C63.3349 72.0036 61.949 74.6193 61.461 75.6929C53.5554 91.7969 57.9474 100.874 57.9474 102.923C57.9474 104.563 57.557 105.363 57.3618 105.559L39.2082 123.419C38.2712 124.825 36.8658 124.59 36.2802 124.298C32.181 122.541 31.8882 115.513 31.0098 112C30.1314 108.486 29.253 108.779 27.2034 110.243C25.1538 111.707 20.1762 124.59 20.7618 129.275C21.2303 133.023 20.7618 134.35 20.469 134.545L13.7346 142.744C7.00019 150.942 -5.0046 157.969 -12.0318 160.019C-17.6536 161.659 -24.5246 161.873 -27.2574 161.776C-29.0142 161.483 -30.4196 161.776 -32.5278 154.749C-34.6359 147.722 -36.3342 147.136 -36.9198 147.722C-40.6676 154.749 -41.2142 163.923 -41.019 167.632Z" fill="#672540"/>
</svg>
