<svg width="1920" height="422" viewBox="0 0 1920 422" fill="none" xmlns="http://www.w3.org/2000/svg">
<path d="M369.228 12.6095C275.725 -10.2275 84.1166 3.09408 0 12.6095V422H1459H1920V361.292V351.76C1920 351.76 1879 320.653 1873.5 317.643C1872.56 317.129 1841 300.403 1825.5 299.08C1792.93 296.298 1789.5 299.08 1772.5 301.086C1748.46 303.924 1738.5 308.97 1703.5 301.086C1679 295.568 1630.89 268.388 1611.5 236.365C1564.3 158.432 1526.5 141.039 1465.03 144.049C1428.19 145.853 1390.1 131.181 1383.94 126.457C1368.93 114.95 1349.8 109.589 1340.68 108.568C1326 106.922 1316.77 105.142 1316.77 105.142C1316.77 105.142 1292.92 100.737 1281.48 95.2459C1264 86.8537 1261.37 86.1111 1253.02 70.8864C1249.06 63.6547 1235.95 47.2881 1196.1 47.2881C1088.71 47.2881 991.983 55.7473 951 55.7473C910.5 55.7473 909.06 47.0284 925.5 43.7061C997.5 29.1564 1066.5 -7.61456 1017 3.06713C938.5 20.0068 788.689 19.7673 706.959 12.6095C598 3.06713 486.106 41.1559 369.228 12.6095Z" fill="url(#paint0_linear_314_42)"/>
<defs>
<linearGradient id="paint0_linear_314_42" x1="1012" y1="-244.781" x2="1012" y2="411.966" gradientUnits="userSpaceOnUse">
<stop stop-color="#131549"/>
<stop offset="1" stop-color="#8277AB"/>
</linearGradient>
</defs>
</svg>
