<svg width="1920" height="1080" viewBox="0 0 1920 1080" fill="none" xmlns="http://www.w3.org/2000/svg">
<ellipse cx="356.895" cy="801.313" rx="58.954" ry="10.694" fill="#4B4B4B" fill-opacity="0.21"/>
<path d="M407.651 648.843C418.808 657.449 430.098 681.915 434.348 693.072C437.536 703.431 442.884 717.237 449.091 722.557C458.257 730.414 459.85 737.301 461.046 740.488C462.507 744.606 461.364 755.152 457.857 764.396C453.474 775.951 438.334 781.53 434.349 780.334C432.786 779.865 432.117 781.21 431.967 781.513L431.958 781.53C424.308 792.049 412.566 797.734 407.253 799.859C385.338 807.031 365.415 809.422 336.327 806.234C313.057 803.684 289.973 794.28 281.339 789.897C256.794 779.697 242.157 759.083 237.907 750.051C235.038 751.008 229.119 751.221 225.954 750.848C212.407 749.254 201.25 744.074 194.475 736.105C191.288 731.324 190.491 731.722 191.288 730.527C197.266 724.55 200.054 724.55 206.429 724.151C223.962 724.948 226.888 726.611 229.141 727.737C232.33 729.331 236.554 735.389 237.51 736.105C239.103 737.301 239.531 736.293 239.103 735.308C235.118 726.144 234.719 720.964 236.313 711.799C237.588 704.467 241.954 697.454 242.69 695.861C245.08 690.681 245.877 692.274 246.673 693.071C248.533 695.462 253.049 702.794 256.236 712.994C260.221 725.745 259.424 730.128 257.83 734.113C256.236 738.097 252.65 738.496 253.049 740.887C253.367 742.799 258.494 744.074 261.018 744.473C264.604 745.27 266.862 744.207 267.792 742.879C285.586 715.99 296.316 708.722 308.551 700.435L308.833 700.244C318.715 693.55 332.342 690.017 337.921 689.087C338.877 683.03 340.444 677.266 341.108 675.141C346.527 652.189 364.352 644.327 372.587 643.264C379.626 641.537 396.494 640.236 407.651 648.843Z" fill="#F7F7F7"/>
<path d="M346.288 702.633C349.077 708.875 352.982 723.831 346.288 733.713C337.921 746.065 323.975 746.463 322.381 746.463C320.787 746.463 314.81 746.065 312.021 737.697C311.49 738.494 309.949 739.61 308.036 737.697C305.646 735.307 304.052 719.368 308.036 714.188" stroke="#9DA7B3" stroke-width="1.98393" stroke-linecap="round"/>
<path d="M324.773 703.83C327.961 703.83 329.953 699.845 329.555 698.252C328.28 695.702 325.836 697.189 324.773 698.252C323.445 700.111 321.586 703.83 324.773 703.83Z" fill="#E0DBDB"/>
<path d="M312.021 704.628C314.571 704.628 317.201 701.839 317.201 700.245C316.005 697.057 313.216 699.049 312.021 700.245C310.825 701.44 308.833 704.628 312.021 704.628Z" fill="#E0DBDB"/>
<path d="M312.818 714.191C315.049 714.829 317.599 711.402 317.201 708.613C316.005 705.425 313.481 707.618 312.818 708.613C312.021 709.808 310.028 713.394 312.818 714.191Z" fill="#E0DBDB"/>
<path d="M298.872 716.183C301.422 716.183 305.645 712.996 305.645 711.003C305.645 709.409 305.645 708.613 302.458 708.613C299.908 708.613 297.942 711.269 297.278 712.597C296.746 713.793 296.321 716.183 298.872 716.183Z" fill="#E0DBDB"/>
<path d="M295.285 729.731C297.836 729.093 298.739 726.012 298.872 724.551C298.473 720.168 294.435 721.762 293.692 724.551C293.16 726.543 292.735 730.369 295.285 729.731Z" fill="#E0DBDB"/>
<path d="M288.512 727.34C290.743 726.384 292.098 722.957 290.902 720.965C290.371 720.434 288.751 719.929 286.519 722.16C284.288 724.392 284.261 726.543 284.527 727.34C284.925 727.739 286.28 728.297 288.512 727.34Z" fill="#E0DBDB"/>
<path d="M286.519 745.271C289.707 745.59 294.09 739.692 293.692 737.302C292.496 732.122 288.512 734.911 287.715 735.708C286.197 737.225 282.535 744.872 286.519 745.271Z" fill="#E0DBDB"/>
<path d="M278.949 745.271C281.499 743.04 281.738 738.896 280.542 737.302C279.347 736.106 277.355 735.708 275.761 739.294C274.486 742.163 274.831 744.474 274.964 745.271C275.23 746.201 276.398 747.502 278.949 745.271Z" fill="#E0DBDB"/>
<path d="M408.848 688.69C406.059 684.705 399.816 683.244 395.3 683.111L387.73 687.096C387.862 690.416 388.898 696.934 391.316 699.05C394.503 701.839 400.879 703.433 407.254 700.245C412.354 697.695 410.442 691.479 408.848 688.69Z" fill="#C6C6C6"/>
<path d="M366.613 688.69C369.402 684.705 375.645 683.244 380.161 683.111L387.731 687.096C387.598 690.416 386.563 696.934 384.145 699.05C380.957 701.839 374.582 703.433 368.207 700.245C363.107 697.695 365.019 691.479 366.613 688.69Z" fill="#C6C6C6"/>
<path d="M370.181 677.636C372.081 675.81 375.376 676.736 376.29 678.092C377.106 679.303 376.454 680.604 375.775 681.517C375.096 682.43 372.896 682.2 372.217 682.2C371.538 682.2 367.805 679.918 370.181 677.636Z" fill="#746766"/>
<path d="M402.344 674.498C401.277 672.616 397.292 673.548 396.011 674.905C395.256 676.274 396.165 678.186 396.765 678.556C397.69 679.127 399.626 679.177 400.081 679.063C401.192 678.784 404.065 677.533 402.344 674.498Z" fill="#746766"/>
<path d="M382.949 679.92H392.113C393.707 679.92 394.637 681.248 394.902 681.912C396.098 687.491 389.324 690.28 387.73 690.28C386.136 690.28 381.355 688.288 380.159 684.701C379.203 681.833 381.62 680.318 382.949 679.92Z" fill="#746766"/>
<path d="M378.166 688.288C373.512 687.748 361.257 687.365 355.852 690.28" stroke="#746766" stroke-width="1.32262" stroke-linecap="round"/>
<path d="M376.971 690.679C373.659 690.389 364.798 691.236 360.634 695.057" stroke="#746766" stroke-width="1.32262" stroke-linecap="round"/>
<path d="M376.574 693.471C372.59 695.065 369.402 695.065 363.027 700.643" stroke="#746766" stroke-width="1.32262" stroke-linecap="round"/>
<path d="M398.487 688.289C401.542 687.094 409.564 685.42 417.215 688.289" stroke="#746766" stroke-width="1.32262" stroke-linecap="round"/>
<path d="M400.083 690.409C404.2 690.011 413.87 690.329 419.607 694.792" stroke="#746766" stroke-width="1.32262" stroke-linecap="round"/>
<path d="M399.284 692.672C403.534 693.336 412.832 695.541 416.02 699.047" stroke="#746766" stroke-width="1.32262" stroke-linecap="round"/>
</svg>
