<svg width="271" height="171" viewBox="0 0 271 171" fill="none" xmlns="http://www.w3.org/2000/svg">
<ellipse cx="165.895" cy="159.313" rx="58.954" ry="10.694" fill="#4B4B4B" fill-opacity="0.21"/>
<path d="M216.651 6.84257C227.808 15.4493 239.098 39.9148 243.348 51.0717C246.536 61.4314 251.884 75.2368 258.091 80.5575C267.257 88.4137 268.85 95.3005 270.046 98.4882C271.507 102.606 270.364 113.152 266.857 122.396C262.474 133.951 247.334 139.53 243.349 138.334C241.786 137.865 241.117 139.21 240.967 139.513L240.958 139.53C233.308 150.049 221.566 155.734 216.253 157.859C194.338 165.031 174.415 167.422 145.327 164.234C122.057 161.684 98.9727 152.28 90.3394 147.897C65.7942 137.697 51.1574 117.083 46.9072 108.051C44.0382 109.008 38.1192 109.221 34.9542 108.848C21.4065 107.254 10.2496 102.074 3.47501 94.1051C0.288116 89.3236 -0.50882 89.7221 0.288116 88.5267C6.2659 82.5498 9.05432 82.5498 15.4288 82.1513C32.9619 82.9482 35.8876 84.6111 38.1411 85.7375C41.3296 87.3313 45.5541 93.3885 46.5096 94.1051C48.1034 95.3005 48.5306 94.2928 48.1026 93.3082C44.118 84.1436 43.7195 78.9636 45.3133 69.7991C46.5884 62.4674 50.9539 55.4545 51.6896 53.8606C54.0803 48.6807 54.8772 50.2745 55.6733 51.0714C57.5328 53.4622 62.0487 60.7939 65.2364 70.9944C69.221 83.7452 68.4241 88.1282 66.8302 92.1128C65.2364 96.0974 61.6502 96.4959 62.0487 98.8867C62.3674 100.799 67.4943 102.074 70.0179 102.473C73.604 103.27 75.862 102.207 76.7917 100.879C94.5857 73.9904 105.316 66.722 117.551 58.435L117.833 58.2437C127.715 51.5496 141.342 48.0166 146.921 47.0868C147.877 41.0302 149.444 35.2658 150.108 33.1407C155.527 10.1894 173.352 2.3266 181.587 1.26412C188.626 -0.462541 205.494 -1.76418 216.651 6.84257Z" fill="#F7F7F7"/>
<path d="M155.288 60.6328C158.077 66.8754 161.982 81.8309 155.288 91.7127C146.921 104.065 132.975 104.463 131.381 104.463C129.787 104.463 123.81 104.065 121.021 95.6973C120.49 96.4942 118.949 97.6099 117.036 95.6973C114.646 93.3066 113.052 77.3681 117.036 72.1882" stroke="#9DA7B3" stroke-width="1.98393" stroke-linecap="round"/>
<path d="M133.773 61.8303C136.961 61.8303 138.953 57.8454 138.555 56.2518C137.28 53.7017 134.836 55.1893 133.773 56.2518C132.445 58.1113 130.586 61.8303 133.773 61.8303Z" fill="#E0DBDB"/>
<path d="M121.021 62.6279C123.571 62.6279 126.201 59.8388 126.201 58.2448C125.005 55.0571 122.216 57.0494 121.021 58.2448C119.825 59.4402 117.833 62.6279 121.021 62.6279Z" fill="#E0DBDB"/>
<path d="M121.818 72.191C124.049 72.8286 126.599 69.4018 126.201 66.6126C125.005 63.4249 122.481 65.618 121.818 66.6126C121.021 67.808 119.028 71.3941 121.818 72.191Z" fill="#E0DBDB"/>
<path d="M107.872 74.1833C110.422 74.1833 114.645 70.9956 114.645 69.0033C114.645 67.4095 114.645 66.6126 111.458 66.6126C108.908 66.6126 106.942 69.269 106.278 70.5972C105.746 71.7926 105.321 74.1833 107.872 74.1833Z" fill="#E0DBDB"/>
<path d="M104.285 87.731C106.836 87.0934 107.739 84.012 107.872 82.551C107.473 78.1679 103.435 79.7618 102.692 82.551C102.16 84.5433 101.735 88.3685 104.285 87.731Z" fill="#E0DBDB"/>
<path d="M97.5116 85.3402C99.743 84.3839 101.098 80.9572 99.9023 78.9648C99.3711 78.4336 97.7507 77.9289 95.5193 80.1602C93.2879 82.3916 93.2613 84.5433 93.527 85.3402C93.9254 85.7387 95.2802 86.2965 97.5116 85.3402Z" fill="#E0DBDB"/>
<path d="M95.5193 103.271C98.707 103.59 103.09 97.6925 102.692 95.3017C101.496 90.1217 97.5116 92.911 96.7147 93.7079C95.1974 95.2252 91.5347 102.872 95.5193 103.271Z" fill="#E0DBDB"/>
<path d="M87.9485 103.271C90.4987 101.04 90.7378 96.8956 89.5424 95.3017C88.347 94.1063 86.3547 93.7079 84.7609 97.294C83.4858 100.163 83.8311 102.474 83.9639 103.271C84.2296 104.201 85.3984 105.502 87.9485 103.271Z" fill="#E0DBDB"/>
<path d="M217.848 46.6898C215.059 42.7052 208.816 41.2441 204.3 41.1113L196.73 45.0959C196.862 48.4164 197.898 54.9343 200.316 57.0497C203.503 59.839 209.879 61.4328 216.254 58.2451C221.354 55.695 219.442 49.479 217.848 46.6898Z" fill="#C6C6C6"/>
<path d="M175.613 46.6898C178.402 42.7052 184.645 41.2441 189.161 41.1113L196.731 45.0959C196.598 48.4164 195.563 54.9343 193.145 57.0497C189.957 59.839 183.582 61.4328 177.207 58.2451C172.107 55.695 174.019 49.479 175.613 46.6898Z" fill="#C6C6C6"/>
<path d="M179.181 35.6359C181.081 33.81 184.376 34.7362 185.29 36.0923C186.106 37.3028 185.454 38.6044 184.775 39.5174C184.096 40.4303 181.896 40.2002 181.217 40.2002C180.538 40.2002 176.805 37.9182 179.181 35.6359Z" fill="#746766"/>
<path d="M211.344 32.4982C210.277 30.616 206.292 31.5482 205.011 32.9046C204.256 34.2745 205.165 36.1859 205.765 36.556C206.69 37.1266 208.626 37.1768 209.081 37.0626C210.192 36.7838 213.065 35.5334 211.344 32.4982Z" fill="#746766"/>
<path d="M191.949 37.9199H201.113C202.707 37.9199 203.637 39.2481 203.902 39.9122C205.098 45.4907 198.324 48.2799 196.73 48.2799C195.136 48.2799 190.355 46.2876 189.159 42.7014C188.203 39.8325 190.62 38.3184 191.949 37.9199Z" fill="#746766"/>
<path d="M187.166 46.288C182.512 45.7481 170.257 45.3647 164.852 48.2802" stroke="#746766" stroke-width="1.32262" stroke-linecap="round"/>
<path d="M185.971 48.679C182.659 48.3895 173.798 49.236 169.634 53.0573" stroke="#746766" stroke-width="1.32262" stroke-linecap="round"/>
<path d="M185.574 51.4707C181.59 53.0645 178.402 53.0645 172.027 58.643" stroke="#746766" stroke-width="1.32262" stroke-linecap="round"/>
<path d="M207.487 46.2892C210.542 45.0938 218.564 43.4202 226.215 46.2892" stroke="#746766" stroke-width="1.32262" stroke-linecap="round"/>
<path d="M209.083 48.4091C213.2 48.0107 222.87 48.3295 228.607 52.7922" stroke="#746766" stroke-width="1.32262" stroke-linecap="round"/>
<path d="M208.284 50.6719C212.534 51.336 221.832 53.5408 225.02 57.0472" stroke="#746766" stroke-width="1.32262" stroke-linecap="round"/>
</svg>
