<svg width="1920" height="1080" viewBox="0 0 1920 1080" fill="none" xmlns="http://www.w3.org/2000/svg">
<path d="M1580.5 714.299L1573.77 707.573L1583.44 692.44L1640.61 652.085L1710.81 653.767L1715.43 647.041L1697.36 632.328L1675.5 622.239L1643.97 619.297L1627.16 623.921L1611.18 622.239L1597.31 629.386L1577.55 632.328L1566.2 641.997L1551.49 647.041L1541.4 660.072L1538.04 680.67L1552.75 692.44L1558.22 714.299L1577.55 719.343L1580.5 714.299Z" fill="#FFEFE0"/>
<path d="M1710.81 647.461C1706.46 642.417 1694.25 632.749 1680.12 634.43M1675.89 630.451C1677.71 631.572 1682.98 637.373 1684.33 647.461M1629.65 626.668C1630.49 631.853 1634.22 643.678 1640.61 643.678M1597.31 634.43C1599.27 640.315 1605.18 653.908 1611.57 656.934M1570.38 642.642C1573.6 648.107 1585.17 662.483 1593.92 666.182M1550.2 663.66C1553.14 667.163 1562.42 675.794 1570.83 678.148C1579.23 680.502 1585.54 680.81 1587.64 680.67M1557.34 692.245C1560.15 694.066 1568.73 700.175 1573.77 707.573M1573.77 707.573L1580.5 714.299L1577.55 719.343L1558.22 714.299L1552.75 692.44L1538.04 680.67L1541.4 660.072L1551.49 647.041L1566.2 641.997L1577.55 632.328L1597.31 629.386L1611.18 622.239L1627.16 623.921L1643.97 619.297L1675.5 622.239L1697.36 632.328L1715.43 647.041L1710.81 653.767L1640.61 652.085L1583.44 692.44L1573.77 707.573Z" stroke="#FFD6B0" stroke-opacity="0.53" stroke-width="1.68472"/>
<path d="M1606.98 556.663L1612.44 580.203L1623.79 586.929L1642.71 592.394L1650.7 609.209L1659.52 613.833L1680.54 634.992C1683.57 634.32 1686.01 634.43 1688.53 634.992C1690.96 635.803 1693.19 636.662 1695.22 637.536C1697.24 638.406 1699.07 639.291 1700.69 640.158C1705.54 642.754 1708.63 645.194 1709.97 646.621L1762.93 705.472L1771.76 701.268L1781.43 674.785L1759.99 658.811L1752 630.227C1741.49 628.685 1720.22 625.435 1719.22 624.762C1718.21 624.089 1711.51 608.508 1708.29 600.801L1682.22 595.757L1663.31 572.637L1639.35 570.535L1630.52 552.039L1606.98 556.663Z" fill="#FFE5CD"/>
<path d="M1692.7 621.624C1695.36 624.592 1700.69 632.454 1700.69 640.158M1700.69 640.158C1705.54 642.754 1708.63 645.194 1709.97 646.621L1762.93 705.472L1771.76 701.268L1781.43 674.785L1759.99 658.811L1752 630.227C1741.49 628.685 1720.22 625.435 1719.22 624.762C1718.21 624.089 1711.51 608.508 1708.29 600.801L1682.22 595.757L1663.31 572.637L1639.35 570.535L1630.52 552.039L1606.98 556.663L1612.44 580.203L1623.79 586.929L1642.71 592.394L1650.7 609.209L1659.52 613.833L1680.54 634.992C1683.57 634.32 1686.01 634.43 1688.53 634.992C1690.96 635.803 1693.19 636.662 1695.22 637.536M1700.69 640.158C1699.07 639.291 1697.24 638.406 1695.22 637.536M1711.62 639.279C1713.44 641.521 1717.17 647.098 1717.5 651.47M1716.66 636.337C1718.05 639.56 1720.67 647.434 1720.03 653.151M1671.26 613.833C1677.43 615.267 1690.85 622.017 1695.22 637.536M1646.04 592.394C1651.36 589.592 1663.84 585.668 1671.26 592.394M1647.72 595.757C1650.13 594.851 1655.85 593.292 1659.52 594.3M1733.06 640.158C1734.46 644.199 1736.59 654.653 1737.26 659.877" stroke="#FFCB9A" stroke-opacity="0.5" stroke-width="1.68472"/>
<path d="M1618.75 562.547C1615.05 562.21 1613 564.368 1612.44 565.489H1610.34L1604.46 561.285L1587.22 560.444L1574.19 554.559L1571.25 544.47L1578.39 537.324L1589.32 543.209L1621.27 544.47C1625.62 550.496 1633.8 562.547 1631.78 562.547C1629.26 562.547 1623.37 562.967 1618.75 562.547Z" fill="#ADD3EA"/>
<path d="M1600.64 559.183C1603.44 558.483 1613.03 556.661 1618.75 558.342C1624.47 560.024 1626.74 559.603 1627.16 559.183M1612.44 565.489C1613 564.368 1615.05 562.21 1618.75 562.547C1623.37 562.967 1629.26 562.547 1631.78 562.547C1633.8 562.547 1625.62 550.496 1621.27 544.47L1589.32 543.209L1578.39 537.324L1571.25 544.47L1574.19 554.559L1587.22 560.444L1604.46 561.285L1610.34 565.489H1612.44Z" stroke="#FCFCFC" stroke-width="0.842358"/>
<path d="M1799.09 695.382C1791.35 706.143 1780.17 710.796 1775.55 711.776L1770.92 712.617V699.165L1779.33 681.93L1777.65 667.638L1758.31 660.492L1753.27 639.894L1748.22 631.067L1719.22 625.181L1709.97 599.119L1680.54 596.176L1666.67 574.317L1635.99 569.273L1628.84 549.936L1619.17 541.529L1596.05 546.573L1588.07 540.688C1582.18 535.784 1570.75 525.807 1572.09 525.135C1573.77 524.294 1580.92 524.294 1593.11 525.135C1605.3 525.976 1617.49 522.192 1622.54 520.091C1627.58 517.989 1653.22 514.205 1668.78 516.307C1681.22 517.989 1687.97 522.325 1689.79 524.283C1690.09 524.284 1690.37 524.288 1690.63 524.294C1715.86 526.396 1717.12 530.6 1725.52 534.383C1732.25 537.41 1742.34 547.297 1746.54 551.862C1769.82 558.789 1767.41 563.091 1772.6 565.49C1778.07 568.012 1782.69 573.477 1782.27 577.26C1781.94 580.287 1783.9 583.565 1784.92 584.827C1789.7 589.156 1790.71 593.091 1790.45 594.916C1794.04 598.001 1796.24 601.165 1798.25 603.743C1800.6 606.77 1800.07 614.149 1799.51 617.46C1801.09 618.744 1802.63 620.191 1804.13 621.819C1811.87 630.226 1810.9 642.417 1809.45 647.461C1809.92 649.011 1810.26 650.689 1810.44 652.505C1812.54 673.523 1808.76 681.931 1799.09 695.382Z" fill="#B4DAF1"/>
<path d="M1768.4 631.067C1773.78 630.058 1779.89 629.525 1782.27 629.385C1784.96 629.001 1804.49 631.073 1809.45 647.461M1809.45 647.461C1809.92 649.011 1810.26 650.689 1810.44 652.505C1812.54 673.523 1808.76 681.931 1799.09 695.382C1791.35 706.143 1780.17 710.796 1775.55 711.776L1770.92 712.617V699.165L1779.33 681.93L1777.65 667.638L1758.31 660.492L1753.27 639.894L1748.22 631.067L1719.22 625.181L1709.97 599.119L1680.54 596.176L1666.67 574.317L1635.99 569.273L1628.84 549.936L1619.17 541.529L1596.05 546.573L1588.07 540.688C1582.18 535.784 1570.75 525.807 1572.09 525.135C1573.77 524.294 1580.92 524.294 1593.11 525.135C1605.3 525.976 1617.49 522.192 1622.54 520.091C1627.58 517.989 1653.22 514.205 1668.78 516.307C1681.22 517.989 1687.97 522.325 1689.79 524.283M1809.45 647.461C1810.9 642.417 1811.87 630.226 1804.13 621.819C1802.63 620.191 1801.09 618.744 1799.51 617.46M1748.22 612.151C1754.11 609.208 1766.72 607.527 1774.71 607.947C1781.46 608.302 1790.91 610.459 1799.51 617.46M1799.51 617.46C1800.07 614.149 1800.6 606.77 1798.25 603.743C1796.24 601.165 1794.04 598.001 1790.45 594.916M1767.14 587.349C1770.36 587.069 1778.32 587.349 1784.38 590.712C1786.78 592.051 1788.77 593.475 1790.45 594.916M1790.45 594.916C1790.71 593.091 1789.7 589.156 1784.92 584.827M1717.96 575.999C1724.96 574.458 1741.16 571.628 1749.91 572.637C1760.83 573.898 1763.78 572.216 1777.65 579.783C1780.72 581.457 1783.1 583.171 1784.92 584.827M1784.92 584.827C1783.9 583.565 1781.94 580.287 1782.27 577.26C1782.69 573.477 1778.07 568.012 1772.6 565.49C1767.41 563.091 1769.82 558.789 1746.54 551.862M1638.06 565.294C1643.77 564.285 1653.22 562.127 1656.16 561.286C1667.6 558.932 1677.18 555.821 1679.7 550.777C1686.01 542.37 1715.44 543.211 1742.76 550.777C1744.09 551.146 1745.35 551.508 1746.54 551.862M1746.54 551.862C1742.34 547.297 1732.25 537.41 1725.52 534.383C1717.12 530.6 1715.86 526.396 1690.63 524.294C1690.37 524.288 1690.09 524.284 1689.79 524.283M1597.28 538.811C1599.38 536.71 1601.52 534.803 1606.98 532.701C1612.45 530.6 1630.1 532.281 1641.45 532.701C1650.53 533.038 1656.44 531.44 1658.27 530.6C1669.2 525.455 1683.31 524.256 1689.79 524.283" stroke="#88BCD8" stroke-width="1.26354" stroke-linecap="round" stroke-linejoin="round"/>
<path d="M1575.03 525.556C1570.99 524.884 1568.3 527.798 1567.46 529.339C1561.16 538.588 1564.52 549.937 1570.83 556.242C1577.13 562.548 1582.18 563.809 1591 563.809C1598.07 563.809 1602.35 565.49 1603.61 566.331C1612.02 572.216 1604.03 587.349 1616.65 591.132C1629.26 594.916 1630.52 590.292 1636.4 592.814C1642.29 595.336 1646.49 600.801 1646.49 607.526C1646.49 612.907 1649.85 615.934 1651.54 616.774C1663.64 621.483 1667.9 625.827 1670.45 628.124C1676.51 632.832 1677.46 632.048 1677.18 631.067C1676.2 629.946 1674.15 626.779 1673.82 623.08C1673.39 618.456 1673.39 615.093 1669.61 611.31C1665.83 607.526 1659.52 609.208 1657 608.788C1654.48 608.367 1649.85 605.004 1649.43 599.96C1649.01 594.916 1649.43 595.336 1646.49 590.292C1643.55 585.247 1634.72 583.986 1626.31 584.827C1617.91 585.668 1616.65 580.623 1615.38 578.101C1614.12 575.579 1615.38 559.185 1605.3 558.764C1597.22 558.428 1591.84 557.783 1590.16 557.503C1580.88 556.242 1569.57 547.835 1576.29 542.37C1581.67 537.998 1585.93 548.676 1591 551.198C1597.31 554.561 1600.25 552.879 1605.3 549.937C1609.33 547.583 1615.1 548.115 1617.49 548.676C1628.84 552.879 1627.15 565.07 1631.78 572.636C1636.4 580.203 1646.07 579.362 1652.8 578.101C1658.18 577.092 1661.2 578.802 1662.05 579.782C1670.45 597.438 1672.97 600.38 1676.76 602.902C1680.54 605.425 1687.69 605.845 1693.57 604.164C1698.28 602.818 1701.42 603.603 1702.4 604.164C1707.11 604.836 1708.29 612.851 1708.29 616.774C1710.81 629.806 1717.11 633.169 1721.74 636.111C1726.36 639.054 1732.25 636.111 1735.61 634.85C1738.97 633.589 1749.9 635.271 1749.06 643.257C1748.39 649.647 1749.34 653.767 1749.9 655.028C1753.68 662.594 1754.1 662.174 1759.99 666.377C1765.87 670.581 1772.18 668.059 1774.28 675.205C1776.38 682.351 1775.12 682.772 1771.76 691.179C1769.07 697.905 1769.24 705.191 1769.66 707.993C1769.99 711.693 1771.48 710.936 1772.18 710.095C1770.92 701.688 1776.38 693.701 1778.49 691.599C1780.17 689.918 1781.15 686.695 1781.43 685.294C1785.63 673.524 1782.69 668.059 1781.43 664.696C1780.17 661.333 1775.96 660.072 1771.34 659.231C1766.72 658.391 1757.89 651.665 1758.31 639.895C1758.73 628.124 1756.63 627.284 1753.26 624.341C1750.57 621.987 1740.93 621.959 1736.45 622.239C1731.12 623.22 1720.48 623.332 1720.48 615.934C1720.48 606.686 1720.48 604.164 1717.11 599.54C1713.75 594.916 1712.49 592.393 1701.14 591.553C1689.79 590.712 1692.73 591.973 1685.59 589.03C1678.44 586.088 1677.18 576.42 1676.76 575.999C1676.34 575.579 1676.34 567.592 1667.51 565.91C1660.45 564.565 1649.99 565.91 1645.65 566.751C1643.13 567.172 1637.66 565.91 1635.98 557.503C1633.88 546.994 1633.88 547.835 1631.78 543.631C1629.68 539.428 1625.47 534.804 1615.38 535.224C1605.3 535.644 1606.14 537.326 1598.57 538.166C1592.52 538.839 1588.87 532.959 1586.8 531.441C1580.49 526.817 1580.07 526.397 1575.03 525.556Z" fill="#F8F8F8"/>
<path d="M1749.9 663.854C1736.87 657.549 1733.93 658.81 1723 657.969C1718.79 652.083 1721.32 654.607 1715.85 649.563C1710.39 644.518 1691.89 646.619 1686.85 646.619C1681.8 646.619 1664.57 640.314 1649.43 641.575C1634.3 642.836 1633.04 644.097 1626.73 646.619C1621.69 648.637 1619.03 653.413 1618.33 655.549C1614.31 655.592 1610.57 655.155 1606.14 656.708C1597.73 659.651 1593.53 662.172 1588.48 668.058C1584.45 672.766 1585.12 678.682 1585.96 681.051C1581 683.179 1573.92 688.991 1572.51 697.483C1571.16 705.554 1575.59 713.177 1577.97 715.979L1590.16 721.444L1604.88 738.679H1630.1L1652.8 753.812L1676.34 747.086L1704.92 750.449L1718.79 738.679H1746.96L1770.5 713.037C1770.22 710.094 1769.49 703.368 1768.82 700.006L1768.8 699.917C1767.91 695.454 1762.84 670.117 1749.9 663.854Z" fill="#FED1CE"/>
<path d="M1604.45 753.393C1588.98 754.402 1569.98 732.234 1562.42 721.025C1565.44 717.998 1580.77 718.643 1588.06 719.344L1601.09 735.738L1630.94 738.681L1655.32 755.916L1675.92 746.667L1705.34 749.61L1722.58 741.203L1749.06 735.738C1756.91 726.49 1772.6 709.591 1772.6 715.98C1772.6 722.37 1771.76 729.572 1771.34 732.375C1765.03 752.972 1758.73 756.756 1757.47 758.017C1756.21 759.278 1748.64 764.322 1739.81 762.641C1738.73 762.436 1737.61 762.032 1736.47 761.479C1736.29 762.809 1734.48 765.217 1728.04 767.265C1718.79 770.207 1709.12 769.367 1699.46 768.106C1698.44 767.972 1697.42 767.706 1696.43 767.334C1685.97 775.665 1679.68 774.411 1670.87 774.411C1668.58 774.411 1665.65 773.463 1662.56 772.029C1659.84 773.131 1652.02 774.469 1639.76 771.889C1630.57 769.953 1619.67 761.086 1611.87 753.393H1604.45Z" fill="#B4DAF1"/>
<path d="M1612.44 753.393H1604.45C1588.98 754.402 1569.98 732.234 1562.42 721.025C1565.44 717.998 1580.77 718.643 1588.06 719.344L1601.09 735.738L1630.94 738.681L1655.32 755.916L1675.92 746.667L1705.34 749.61L1722.58 741.203L1749.06 735.738C1756.91 726.49 1772.6 709.591 1772.6 715.98C1772.6 722.37 1771.76 729.572 1771.34 732.375C1765.03 752.972 1758.73 756.756 1757.47 758.017C1756.21 759.278 1748.64 764.322 1739.81 762.641C1732.75 761.296 1723.7 751.431 1720.05 746.667M1604.45 745.406C1610.9 753.113 1626.99 769.198 1639.76 771.889C1652.54 774.579 1660.5 773.01 1662.88 771.889M1645.23 760.959C1650.83 765.443 1663.81 774.411 1670.87 774.411C1679.7 774.411 1686 775.672 1696.51 767.265M1681.8 754.234C1684.46 758.437 1691.72 767.097 1699.46 768.106C1709.12 769.367 1718.79 770.207 1728.04 767.265C1735.44 764.911 1736.73 762.08 1736.45 760.959" stroke="#8ABBDE" stroke-width="0.842358"/>
<path d="M1655.29 618.26C1660 618.933 1664.85 622.586 1666.67 624.127L1667.51 625.389C1661.79 622.362 1649.72 622.726 1644.39 623.287C1634.72 623.287 1634.3 627.07 1629.68 627.911C1625.98 628.583 1620.01 627.631 1617.49 627.07C1607.82 626.229 1604.88 630.013 1601.09 632.955C1597.31 635.898 1592.27 633.375 1585.12 634.216C1579.4 634.889 1574.05 639.541 1572.09 641.783C1570.97 643.744 1567.55 647.5 1562.84 646.827C1556.96 645.986 1550.65 652.712 1551.91 658.597C1552.92 663.305 1551.49 665.043 1550.65 665.323C1546.28 667.677 1544.62 670.788 1544.34 672.049C1540.98 678.775 1544.62 682.698 1546.87 683.819C1549.81 687.602 1558.22 687.182 1559.06 693.908C1559.9 700.634 1559.9 705.678 1565.78 711.984C1571.67 718.289 1580.92 715.767 1588.06 715.346C1593.78 715.01 1596.61 717.729 1597.31 719.13C1600.67 727.117 1600.67 730.059 1612.44 730.9C1624.21 731.741 1625.05 728.378 1628.42 728.378C1631.78 728.378 1633.46 726.276 1638.51 736.365C1643.55 746.453 1646.91 746.874 1654.9 747.294C1662.89 747.714 1667.93 743.931 1672.13 740.989C1675.5 738.635 1678.3 739.447 1679.28 740.148C1691.39 747.546 1700.58 745.753 1703.66 743.931C1712.91 743.09 1713.75 737.205 1715.01 734.263C1716.02 731.909 1721.32 732.721 1723.84 733.422C1737.29 736.785 1743.46 733.142 1744.86 730.9C1752.84 727.117 1759.15 714.926 1762.09 712.404C1765.04 709.882 1772.6 705.678 1775.54 711.563C1777.9 716.271 1775.96 718.569 1774.7 719.13C1772.32 718.849 1766.63 720.475 1762.93 729.218C1759.23 737.962 1754.67 742.67 1752.84 743.931C1746.96 748.555 1734.77 749.816 1728.04 746.874C1722.66 744.52 1720.48 745.052 1720.06 745.613C1717.03 751.33 1713.47 753.6 1712.07 754.02C1703.24 757.383 1694.83 755.701 1689.37 753.179C1685 751.161 1681.38 752.899 1680.12 754.02C1674.4 759.737 1666.53 761.166 1663.31 761.166C1640.61 763.268 1633.88 750.237 1632.62 747.714C1631.36 745.192 1629.68 741.409 1625.05 743.931C1620.43 746.453 1594.79 749.396 1592.27 735.104C1590.25 723.67 1583.86 721.932 1580.92 722.493C1568.3 723.333 1567.46 722.913 1562.84 722.493C1558.22 722.072 1549.39 717.028 1550.65 705.678C1551.66 696.598 1547.71 694.048 1545.61 693.908C1542.52 693.067 1535.6 689.62 1532.57 682.558C1528.79 673.73 1532.15 668.266 1534.26 665.323C1535.94 662.969 1536.36 660.979 1536.36 660.279C1535.68 654.898 1537.48 650.751 1538.46 649.349C1544.34 642.624 1548.13 642.624 1554.85 640.942C1561.58 639.261 1563.68 635.477 1567.88 630.853C1572.09 626.229 1580.92 625.809 1585.12 627.07C1588.48 628.079 1590.72 627.49 1591.42 627.07C1601.51 614.039 1620.43 616.561 1624.21 617.822C1627.24 618.831 1630.52 618.242 1631.78 617.822C1640.86 614.795 1648.17 615.72 1650.7 616.561C1651.64 616.876 1654.03 618.12 1655.29 618.26Z" fill="#F8F8F8"/>
<g filter="url(#filter0_f_344_148)">
<circle cx="1667.48" cy="675.01" r="33.2087" fill="#FFEAEA"/>
</g>
<g filter="url(#filter1_d_344_148)">
<circle cx="1667.48" cy="676.691" r="29.0051" fill="#FFF9F1"/>
</g>
<path d="M1696.4 658.781C1700.9 657.938 1702.37 655.252 1703.85 648.691C1702.78 655.344 1703.36 658.492 1707.07 661.183C1703.13 661.455 1700.93 666.184 1700.2 669.415C1700.93 663.386 1698.87 660.151 1696.4 658.781Z" fill="white"/>
<path d="M1701.79 672.051C1704.15 671.609 1704.91 670.201 1705.69 666.763C1705.13 670.25 1705.43 671.9 1707.38 673.31C1705.31 673.452 1704.16 675.931 1703.78 677.624C1704.16 674.464 1703.08 672.769 1701.79 672.051Z" fill="white"/>
<defs>
<filter id="filter0_f_344_148" x="1611.53" y="619.057" width="111.905" height="111.905" filterUnits="userSpaceOnUse" color-interpolation-filters="sRGB">
<feFlood flood-opacity="0" result="BackgroundImageFix"/>
<feBlend mode="normal" in="SourceGraphic" in2="BackgroundImageFix" result="shape"/>
<feGaussianBlur stdDeviation="11.3718" result="effect1_foregroundBlur_344_148"/>
</filter>
<filter id="filter1_d_344_148" x="1634.26" y="645.158" width="71.4875" height="71.4875" filterUnits="userSpaceOnUse" color-interpolation-filters="sRGB">
<feFlood flood-opacity="0" result="BackgroundImageFix"/>
<feColorMatrix in="SourceAlpha" type="matrix" values="0 0 0 0 0 0 0 0 0 0 0 0 0 0 0 0 0 0 127 0" result="hardAlpha"/>
<feOffset dx="2.52707" dy="4.21179"/>
<feGaussianBlur stdDeviation="3.36943"/>
<feComposite in2="hardAlpha" operator="out"/>
<feColorMatrix type="matrix" values="0 0 0 0 0.575 0 0 0 0 0.215625 0 0 0 0 0.215625 0 0 0 0.25 0"/>
<feBlend mode="normal" in2="BackgroundImageFix" result="effect1_dropShadow_344_148"/>
<feBlend mode="normal" in="SourceGraphic" in2="effect1_dropShadow_344_148" result="shape"/>
</filter>
</defs>
</svg>
