<svg width="184" height="227" viewBox="0 0 184 227" fill="none" xmlns="http://www.w3.org/2000/svg">
<path d="M123.563 178.779C116.76 175.378 113.996 159.647 113.465 152.206C114.74 146.254 119.311 144.766 121.437 144.766C121.791 149.194 123.456 159.434 127.283 164.961C132.066 171.87 137.381 170.276 142.164 171.339C148.411 172.727 148.541 175.059 157.576 175.059C164.804 175.059 168.383 175.768 169.268 176.122C178.835 179.842 183.618 181.968 183.618 184.625C183.618 187.283 177.24 191.534 172.457 191.534C167.674 191.534 166.611 189.94 160.765 184.625C156.088 180.374 150.667 179.665 148.541 179.842C131.96 180.692 124.98 179.488 123.563 178.779Z" fill="#808DC1"/>
<path d="M118.779 159.645C117.928 158.37 119.133 156.988 119.842 156.457C123.562 154.862 123.031 159.645 122.499 160.177C121.968 160.708 119.842 161.24 118.779 159.645Z" stroke="#474B81"/>
<path d="M122.499 170.806C121.224 169.956 121.968 167.617 122.499 166.554C122.676 166.377 123.243 166.023 124.094 166.023C125.157 166.023 126.22 167.086 126.22 168.68C126.22 170.275 124.094 171.869 122.499 170.806Z" stroke="#474B81"/>
<path d="M129.94 175.589C128.664 173.889 129.763 172.401 130.471 171.869C133.129 170.275 134.191 171.869 134.723 172.932C135.254 173.995 131.534 177.715 129.94 175.589Z" stroke="#474B81"/>
<path d="M139.506 175.589C137.805 175.164 137.735 173.641 137.912 172.932C139.506 170.275 141.632 172.401 141.632 172.932C141.632 173.463 141.632 176.121 139.506 175.589Z" stroke="#474B81"/>
<path d="M150.135 177.715C148.435 178.14 148.009 176.829 148.009 176.121C148.009 174.42 149.781 174.704 150.667 175.058C151.198 175.766 151.836 177.29 150.135 177.715Z" stroke="#474B81"/>
<path d="M159.702 179.841C158.001 179.841 158.284 178.069 158.639 177.184C160.233 174.526 162.359 176.652 162.359 177.184C162.359 177.715 161.827 179.841 159.702 179.841Z" stroke="#474B81"/>
<path d="M168.736 183.03C167.461 183.03 166.433 181.613 166.079 180.904C165.229 179.781 165.725 178.665 166.079 178.247C167.674 176.652 170.331 177.715 170.862 179.31C171.394 180.904 170.331 183.03 168.736 183.03Z" stroke="#474B81"/>
<path d="M115.59 181.967C110.566 171.919 111.869 157.696 113.464 151.673C113.464 147.847 115.589 147.953 116.652 148.484C116.652 154.685 117.503 169.53 120.904 179.309C125.156 191.533 123.561 188.344 129.407 197.91C134.084 205.563 134.545 214.563 134.191 218.106C134.368 221.472 133.978 227.885 131.002 226.609C127.282 225.015 122.498 201.631 121.967 198.442C121.435 195.253 121.435 193.659 115.59 181.967Z" fill="#A3AAD6"/>
<path d="M133.124 209.602C133.101 209.57 133.075 209.538 133.047 209.505M133.047 209.505C132.45 208.8 130.904 207.852 128.873 209.071C126.215 210.665 128.873 213.854 130.999 213.854C131.707 213.854 133.231 213.322 133.656 211.196C133.61 210.778 133.424 209.853 133.047 209.505ZM119.838 183.029C119.661 183.915 119.731 185.899 121.432 186.75C121.964 186.927 123.027 187.068 123.027 186.218C123.027 185.155 121.432 178.778 119.838 183.029ZM125.153 191.532C124.267 192.064 122.708 193.552 123.558 195.253C124.621 197.378 127.278 196.847 127.81 196.315C128.235 195.89 126.215 192.95 125.153 191.532ZM130.467 200.567C129.05 200.39 126.322 200.567 126.747 202.693C127.278 205.35 130.467 206.413 132.062 204.287C132.062 203.402 131.743 201.417 130.467 200.567Z" stroke="#565C8E"/>
<path d="M106.555 160.71C107.831 158.159 108.15 153.624 108.15 151.676C109.85 147.424 113.642 146.89 115.059 147.422C115.059 155.926 114.618 172.662 112.933 177.715C109.744 187.282 111.376 198.061 112.933 204.291C114.527 210.669 113.996 217.576 112.933 220.766C111.87 223.955 106.024 225.017 104.961 222.36C104.111 220.234 103.544 212.616 103.367 209.073C101.772 192.598 102.304 194.724 102.304 183.563C102.304 172.403 104.961 163.899 106.555 160.71Z" fill="#808DC1"/>
<path d="M109.743 160.708C108.043 159.008 109.743 157.874 110.806 157.52C111.692 157.52 113.358 158.051 112.933 160.177C112.508 162.303 110.629 161.417 109.743 160.708Z" stroke="#474B81"/>
<path d="M105.492 171.338C105.918 169.212 107.795 169.389 108.681 169.743C110.806 171.338 109.213 172.932 108.681 173.463C108.15 173.995 104.961 173.995 105.492 171.338Z" stroke="#474B81"/>
<path d="M104.962 183.561C104.111 182.711 104.607 181.081 104.962 180.372C105.183 179.841 106.556 179.309 107.619 180.372C108.469 181.223 108.327 182.498 108.15 183.03C108.15 183.561 106.025 184.624 104.962 183.561Z" stroke="#474B81"/>
<path d="M105.493 196.316C103.792 194.616 104.784 193.127 105.493 192.596C107.087 192.065 108.15 192.596 108.15 194.722C108.15 196.423 106.379 196.493 105.493 196.316Z" stroke="#474B81"/>
<path d="M105.493 205.883C104.642 203.757 105.847 202.517 106.556 202.162C107.619 201.076 110.807 202.694 109.213 205.351C107.938 207.477 106.201 206.591 105.493 205.883Z" stroke="#474B81"/>
<path d="M108.15 215.98C106.875 215.98 106.556 213.5 106.556 212.26C106.412 210.666 109.213 209.603 109.745 211.729C110.276 213.854 109.745 215.98 108.15 215.98Z" stroke="#474B81"/>
<path d="M87.4231 171.873C90.0811 165.495 95.0407 156.815 98.5838 150.614C100.709 148.489 103.367 149.02 104.431 149.552C103.722 152.917 101.667 160.393 99.116 163.37C96.565 166.346 95.9272 170.279 95.9272 171.873C96.3524 180.376 95.75 194.903 95.3957 201.103C93.2699 213.327 91.6748 215.984 88.486 219.173C85.2973 222.362 82.64 220.767 83.7029 218.11C84.5532 215.984 85.1201 204.115 85.2973 198.446C85.298 177.188 85.2081 177.188 87.4231 171.873Z" fill="#808DC1"/>
<path d="M97.5251 158.054C97.1 157.204 97.348 156.282 97.5251 155.928C98.5882 154.865 100.182 155.397 100.182 156.991C100.182 158.585 98.0566 159.117 97.5251 158.054Z" stroke="#474B81"/>
<path d="M92.2104 167.62C91.7852 167.195 92.3875 165.672 92.7418 164.963C93.8057 163.369 96.4611 163.9 95.3982 166.026C94.3353 168.152 92.7418 168.152 92.2104 167.62Z" stroke="#474B81"/>
<path d="M89.5521 177.187C88.7018 176.762 88.4892 175.238 88.4892 174.529C90.0836 171.872 91.678 173.466 92.2104 175.061C92.7427 176.655 90.6151 177.718 89.5521 177.187Z" stroke="#474B81"/>
<path d="M88.4892 187.816C87.6389 187.391 88.1349 185.867 88.4892 185.159C91.1469 183.564 92.2104 185.159 92.2104 186.753C92.2104 188.347 89.5521 188.347 88.4892 187.816Z" stroke="#474B81"/>
<path d="M87.9574 198.445C87.1071 197.17 87.6031 195.079 87.9574 194.193C90.0836 193.131 91.6773 194.193 91.6773 196.319C91.6773 198.445 89.0203 200.04 87.9574 198.445Z" stroke="#474B81"/>
<path d="M87.4256 209.074C85.7249 207.374 87.0715 205.886 87.9574 205.354C90.0838 204.079 90.9688 205.886 91.1455 206.949C91.1455 210.35 88.6656 209.783 87.4256 209.074Z" stroke="#474B81"/>
<path d="M73.602 170.277C74.4523 165.6 79.6252 151.675 82.1053 145.298C87.9523 135.732 91.6734 141.577 90.6105 146.36C89.5476 151.143 84.7618 167.088 81.0416 171.871C78.0654 175.697 75.5498 183.386 74.664 186.752C68.2891 203.758 59.7831 215.451 56.5944 220.765C54.0433 225.017 51.9906 223.6 51.2823 222.891C49.1565 219.064 51.4561 213.856 52.3418 211.73C63.5025 191.535 67.7559 181.437 70.4132 177.186C72.539 173.784 73.4248 171.162 73.602 170.277Z" fill="#737BBC"/>
<path d="M55.534 213.857C54.6836 213.432 55.1797 211.908 55.534 211.2C57.6602 210.137 58.7224 210.668 58.7224 212.263C58.7224 213.857 56.5969 214.388 55.534 213.857Z" stroke="#474B81"/>
<path d="M61.3797 202.165C60.5294 200.889 61.0254 199.862 61.3797 199.508C64.037 197.382 66.1629 199.508 65.6314 200.571C65.0999 201.634 62.4426 203.759 61.3797 202.165Z" stroke="#474B81"/>
<path d="M66.6943 192.067C66.2692 190.791 66.8715 189.41 67.2258 188.878C69.8831 187.815 70.4146 190.473 69.8831 192.067C69.3516 193.661 67.2258 193.661 66.6943 192.067Z" stroke="#474B81"/>
<path d="M72.0089 181.438C71.1586 181.012 71.6546 179.489 72.0089 178.78C74.1348 177.717 75.1977 178.78 74.6663 180.375C74.1348 181.969 73.0719 181.969 72.0089 181.438Z" stroke="#474B81"/>
<path d="M77.855 169.745C77.0047 168.895 77.1464 167.265 77.3236 166.556C77.855 164.962 80.5123 164.962 80.5123 167.088C80.5123 169.214 78.9179 170.808 77.855 169.745Z" stroke="#474B81"/>
<path d="M35.8717 162.836C41.3989 161.135 52.7013 150.435 57.6616 145.298C64.0392 134.669 72.0111 139.452 71.4796 141.046C70.9482 142.64 60.3189 156.458 56.5987 157.521C52.8785 158.584 45.438 167.619 41.1863 169.745C36.9346 171.871 22.5852 174.528 16.2076 174.528C9.83008 174.528 9.83008 172.402 9.83008 171.339C9.83008 170.276 13.0188 164.43 22.0537 164.43C31.0885 164.43 28.9627 164.962 35.8717 162.836Z" fill="#737BBC"/>
<path d="M15.6752 170.278C14.8249 169.428 15.6752 168.152 16.2067 167.621C16.7383 166.912 18.1204 165.814 19.3959 167.089C20.9903 168.684 19.9274 170.278 19.3959 170.809C18.8645 171.341 16.7381 171.341 15.6752 170.278Z" stroke="#474B81"/>
<path d="M27.8993 170.278C25.7734 170.278 25.242 168.152 25.242 167.089C27.8993 165.495 30.5566 166.558 30.5566 167.089C30.5566 167.621 30.5566 170.278 27.8993 170.278Z" stroke="#474B81"/>
<path d="M36.9341 164.432C35.6586 165.282 36.4027 166.912 36.9341 167.621C42.2488 168.684 40.6544 164.963 40.6544 164.432C40.6544 163.9 38.5285 163.369 36.9341 164.432Z" stroke="#474B81"/>
<path d="M46.5005 158.054C44.7998 158.479 45.4375 160.357 45.969 161.243C48.0948 162.518 48.6263 160.711 48.6263 159.648C48.6263 158.94 48.2011 157.629 46.5005 158.054Z" stroke="#474B81"/>
<path d="M51.2836 153.802C50.8584 155.078 52.5237 155.397 53.4095 155.397C53.9409 155.397 55.0038 154.971 55.0038 153.271C55.0038 151.145 53.9409 151.145 53.4095 151.145C52.878 151.145 51.8151 152.208 51.2836 153.802Z" stroke="#474B81"/>
<path d="M57.6611 147.425C57.1297 149.551 59.2555 150.082 59.787 150.082C60.3185 150.082 61.4877 149.657 61.9128 147.956C62.4443 145.83 60.8499 145.299 60.3185 145.299C59.787 145.299 58.1926 145.299 57.6611 147.425Z" stroke="#474B81"/>
<path d="M33.7456 142.641C38.8476 143.067 47.2092 140.693 50.7523 139.453C69.3533 131.481 87.9548 137.327 76.2627 141.047C66.9089 144.023 50.7525 148.311 43.8435 150.082C38.1746 151.499 25.3486 152.952 19.3963 147.425C11.9558 140.516 6.10955 139.453 2.92078 136.796C-0.267987 134.138 -0.267987 132.012 0.263475 130.949C0.794936 129.886 5.04663 125.103 16.2073 134.138C27.368 143.173 27.368 142.11 33.7456 142.641Z" fill="#A3AAD6"/>
<path d="M7.70162 135.734C6.42611 134.884 6.46154 133.608 6.6387 133.077C7.06435 131.801 8.23288 131.837 8.76394 132.014C10.8898 132.545 11.4213 133.077 11.4213 134.14C11.4213 135.202 9.296 136.797 7.70162 135.734Z" stroke="#565C8E"/>
<path d="M14.61 139.986C13.7597 139.136 13.5471 138.215 13.5471 137.86C13.5471 136.585 14.61 136.266 15.1415 136.266C17.2673 136.691 17.7988 138.215 17.7988 138.923C18.3303 139.986 15.6729 141.049 14.61 139.986Z" stroke="#565C8E"/>
<path d="M19.3932 143.706C18.968 142.431 20.2789 141.758 20.9876 141.58C26.3022 141.049 23.6449 144.769 23.1134 144.769C22.5819 144.769 19.9246 145.301 19.3932 143.706Z" stroke="#565C8E"/>
<path d="M29.4909 148.489C28.428 147.958 28.428 145.832 28.9595 145.301C29.4909 144.238 32.6797 143.175 33.2112 145.832C33.8365 148.959 30.5539 149.021 29.4909 148.489Z" stroke="#565C8E"/>
<path d="M45.9695 131.478C48.0953 132.329 61.0276 131.833 67.228 131.478C74.8812 130.203 76.0856 136.616 75.7311 139.982C52.3468 142.639 48.6265 141.045 44.9063 141.045C41.1861 141.045 30.0254 136.793 26.3054 127.227C23.3295 119.574 19.7508 114.826 18.3335 113.409C16.7391 110.751 8.23573 102.248 9.29866 97.4648C10.149 93.6383 14.6133 92.6817 16.7391 92.6817C18.865 92.1502 23.1167 94.8075 26.3054 100.654C29.4942 106.5 31.0886 108.626 31.62 113.409C32.0452 117.235 34.986 121.735 36.4032 123.506C40.1234 131.478 43.3122 130.415 45.9695 131.478Z" fill="#808DC1"/>
<path fill-rule="evenodd" clip-rule="evenodd" d="M22.3362 98.987C21.326 98.3135 20.012 98.517 19.0433 99.027C18.5471 99.2883 18.0986 99.6493 17.7804 100.075C17.4676 100.494 17.2612 101.005 17.3072 101.552C17.3097 102.381 17.4467 103.596 17.8872 104.521C18.1106 104.99 18.4377 105.439 18.9188 105.693C19.4213 105.958 20.0098 105.969 20.6502 105.713C22.1628 105.108 23.0504 103.757 23.3441 102.435C23.6299 101.149 23.3838 99.6854 22.3362 98.987ZM18.3047 101.48C18.2811 101.24 18.366 100.963 18.5816 100.674C18.7967 100.386 19.122 100.116 19.5091 99.9119C20.3069 99.4918 21.1973 99.4296 21.7815 99.8191C22.3283 100.184 22.6137 101.112 22.3679 102.218C22.1303 103.287 21.4235 104.327 20.2788 104.785C19.8562 104.954 19.5811 104.912 19.3861 104.809C19.1696 104.694 18.9652 104.459 18.79 104.091C18.4375 103.35 18.3071 102.293 18.3071 101.529V101.504L18.3047 101.48ZM29.9902 112.408C30.1364 111.239 29.8843 110.275 29.3658 109.568C28.85 108.863 28.0965 108.449 27.3091 108.331C25.7205 108.092 23.9907 109.063 23.6839 111.213L23.6839 111.212L23.6828 111.221C23.5922 111.946 23.5091 113.041 23.5601 113.968C23.5853 114.425 23.6448 114.882 23.7732 115.239C23.8881 115.559 24.1525 116.035 24.7104 116.035C24.8113 116.035 24.9499 116.048 25.145 116.069L25.2204 116.078L25.2204 116.078C25.3901 116.096 25.5872 116.118 25.7953 116.133C26.2741 116.168 26.8534 116.172 27.4303 116.018C28.0175 115.861 28.5986 115.542 29.0655 114.946C29.5273 114.357 29.8497 113.532 29.9902 112.408ZM27.1607 109.32C26.0925 109.159 24.9002 109.782 24.6745 111.35C24.5881 112.042 24.5122 113.07 24.5586 113.913C24.5821 114.341 24.6355 114.682 24.7142 114.901C24.7392 114.97 24.7602 115.012 24.7748 115.036C24.9245 115.04 25.0923 115.058 25.2536 115.075L25.332 115.084C25.5025 115.103 25.6797 115.122 25.8678 115.136C26.3024 115.167 26.7531 115.164 27.1727 115.052C27.5822 114.943 27.9645 114.73 28.2783 114.33C28.5972 113.923 28.8727 113.286 28.998 112.284C29.1175 111.328 28.9044 110.63 28.5591 110.159C28.2111 109.684 27.7021 109.401 27.1607 109.32ZM24.7971 115.064C24.7969 115.064 24.7936 115.062 24.7876 115.055C24.7942 115.059 24.7972 115.063 24.7971 115.064ZM33.2143 123.538H33.1332L33.0562 123.564C32.4375 123.77 31.1066 124.529 30.6141 126.006C30.4186 126.593 30.2636 127.516 30.4692 128.379C30.5738 128.819 30.7757 129.258 31.128 129.621C31.483 129.988 31.9653 130.251 32.5848 130.375C33.3149 130.521 33.9372 130.492 34.4603 130.317C34.9866 130.142 35.3815 129.83 35.6684 129.461C36.2283 128.741 36.3716 127.817 36.3716 127.227C36.3716 126.632 36.2263 125.739 35.7689 124.977C35.2959 124.189 34.4818 123.538 33.2143 123.538ZM31.5628 126.322C31.9018 125.305 32.8242 124.724 33.2979 124.54C34.1063 124.566 34.5979 124.969 34.9114 125.492C35.2513 126.058 35.3716 126.76 35.3716 127.227C35.3716 127.701 35.2492 128.371 34.8791 128.847C34.7009 129.076 34.4647 129.262 34.144 129.369C33.8201 129.477 33.3794 129.514 32.7809 129.394C32.3375 129.306 32.0447 129.13 31.8461 128.925C31.6448 128.718 31.5145 128.452 31.442 128.148C31.2933 127.523 31.4041 126.799 31.5628 126.322ZM45.9379 134.668L45.9379 134.654C45.9381 134.375 45.9388 133.416 45.2802 132.675C44.5688 131.874 43.2711 131.505 41.065 132.057L40.9494 132.086L40.8593 132.164C40.6208 132.37 40.2856 132.728 40.0235 133.159C39.7729 133.572 39.5462 134.124 39.6235 134.705C39.6292 135.208 39.75 135.944 40.1152 136.578C40.5039 137.253 41.1842 137.825 42.2492 137.825C43.4946 137.825 44.4181 137.199 45.0144 136.528C45.3126 136.192 45.5369 135.838 45.6885 135.525C45.8303 135.233 45.9379 134.917 45.9379 134.668ZM44.5328 133.339C44.1882 132.951 43.3859 132.533 41.4282 132.998C41.2623 133.156 41.0479 133.399 40.8784 133.678C40.6724 134.018 40.5773 134.336 40.6173 134.59L40.6233 134.629V134.668C40.6233 135.05 40.7183 135.622 40.9818 136.079C41.2309 136.511 41.6135 136.825 42.2492 136.825C43.1296 136.825 43.8004 136.388 44.267 135.863C44.5004 135.601 44.6746 135.324 44.7887 135.089C44.8457 134.971 44.8853 134.869 44.9098 134.789C44.9327 134.714 44.937 134.675 44.9378 134.669C44.9379 134.667 44.9379 134.667 44.9379 134.668C44.9379 134.396 44.926 133.781 44.5328 133.339ZM57.5773 134.976C57.3959 134.613 57.0291 134.223 56.582 133.904C56.1263 133.578 55.5431 133.294 54.8918 133.179C54.2347 133.063 53.5084 133.12 52.7935 133.483C52.0813 133.844 51.4182 134.488 50.8499 135.483L50.784 135.598V135.731V136.794C50.784 137.159 50.9481 137.947 51.5056 138.584C52.1001 139.264 53.0846 139.707 54.5708 139.41C57.5027 138.823 58.2777 136.376 57.5773 134.976ZM53.2456 134.375C52.7676 134.617 52.2598 135.071 51.784 135.866V136.794C51.784 136.959 51.8857 137.5 52.2582 137.926C52.5938 138.309 53.2037 138.663 54.3747 138.429C56.7574 137.953 57.0454 136.148 56.6829 135.423C56.5986 135.254 56.3675 134.979 56.0008 134.718C55.6427 134.462 55.1962 134.248 54.7181 134.164C54.2458 134.08 53.7432 134.122 53.2456 134.375Z" fill="#474B81"/>
<path d="M65.6332 153.27C69.4598 146.467 75.9007 143.703 78.3808 142.64C86.4593 137.538 86.3526 142.286 85.2894 145.298C83.3407 146.006 79.0182 148.593 77.3175 153.27C75.1917 159.116 53.2438 181.534 49.6828 185.689C46.4941 189.409 42.7575 195.899 40.1156 199.507C34.277 207.478 31.972 205.707 31.0863 204.821C28.4308 201.101 36.3963 187.815 40.1156 182.5C43.2529 178.017 60.8501 161.773 65.6332 153.27Z" fill="#808DC1"/>
<path d="M39.5926 194.193C37.8919 196.319 39.5926 197.205 40.6555 197.382C41.186 197.519 42.7823 195.788 42.7823 194.193C42.7823 192.918 40.6558 193.662 39.5926 194.193Z" stroke="#474B81"/>
<path d="M43.8452 187.284C42.5697 189.41 44.731 190.295 45.9711 190.473L47.5655 188.878C47.9198 188.347 48.3095 187.071 47.034 186.221C45.7585 185.371 44.3767 186.575 43.8452 187.284Z" stroke="#474B81"/>
<path d="M52.8801 177.186C52.0298 178.887 53.2344 180.021 53.943 180.375C56.0689 179.1 56.6003 177.009 56.6003 176.123C55.7146 175.769 53.7304 175.486 52.8801 177.186Z" stroke="#474B81"/>
<path d="M59.2576 170.277C58.4073 171.978 59.9662 172.758 60.852 172.935C64.5722 169.746 62.4464 169.214 62.4464 168.683C62.4464 168.152 60.3206 168.152 59.2576 170.277Z" stroke="#474B81"/>
<path d="M65.6352 161.774C63.9345 163.899 65.2809 165.139 66.1666 165.494C69.3554 165.494 69.3554 162.836 69.3554 162.305C69.3554 161.774 67.761 159.116 65.6352 161.774Z" stroke="#474B81"/>
<path d="M68.2925 155.928C68.2925 158.054 70.4183 158.231 71.4812 158.054C72.3316 158.028 72.8985 156.98 73.0756 156.459C73.5008 154.759 72.1899 153.979 71.4812 153.802C70.4183 153.625 68.2925 153.802 68.2925 155.928Z" stroke="#474B81"/>
<path d="M71.4788 156.989C72.7543 152.312 78.0335 146.182 80.5136 143.702C86.8902 138.388 86.3606 143.171 85.8292 147.422C85.2977 151.674 75.1999 168.149 72.0112 170.807C69.4601 172.933 66.3422 176.653 65.1022 178.247C62.4449 180.373 46.501 211.729 42.2484 218.638C37.9958 225.547 36.4023 224.484 35.8708 223.953C35.3394 223.421 33.745 215.45 42.2484 199.506C49.0511 186.751 55.3578 177.893 57.6608 175.058C57.6608 173.996 69.8844 162.835 71.4788 156.989Z" fill="#A3AAD6"/>
<path d="M41.1847 211.199C39.9092 211.624 39.5903 212.439 39.5903 212.793C39.1652 214.494 40.1218 215.273 40.6533 215.45C43.2043 215.45 43.4877 213.679 43.3106 212.793C43.1334 212.084 42.4602 210.773 41.1847 211.199Z" stroke="#565C8E"/>
<path d="M47.5622 202.695C45.4363 201.845 44.1963 203.05 43.8419 203.758C42.9946 204.681 43.8419 208.01 46.4993 206.416C48.6251 205.14 48.0936 203.404 47.5622 202.695Z" stroke="#565C8E"/>
<path d="M51.2824 194.724C50.0069 194.298 48.9794 195.255 48.6251 195.786C48.3872 196.077 48.526 196.97 48.6251 197.381C49.0503 199.081 50.9281 198.444 51.8139 197.912C52.8768 197.381 52.8768 195.255 51.2824 194.724Z" stroke="#565C8E"/>
<path d="M53.4083 187.814C52.5579 187.814 52.3453 189.586 52.3453 190.472C52.3236 191.003 52.8768 193.129 53.9397 192.598C55.0026 192.066 56.0656 191.003 56.0656 189.409C56.0656 187.814 54.4712 187.814 53.4083 187.814Z" stroke="#565C8E"/>
<path fill-rule="evenodd" clip-rule="evenodd" d="M123.181 30.9882C119.445 29.0086 116.997 25.9449 116.655 22.5299C117.033 17.9978 120.094 16.9548 123.551 15.7772C124.959 15.2976 126.432 14.7956 127.816 14.0266C130.924 12.3001 134.032 7.88099 136.265 4.70566C137.469 2.99398 138.418 1.64371 138.977 1.27142C140.571 0.208495 142.165 -0.322967 146.417 0.208495C149.041 0.536489 150.248 3.49598 151.662 6.96322C152.539 9.11409 153.496 11.4604 154.92 13.495C158.641 18.8096 160.235 22.5299 160.767 24.1243C161.298 25.7186 160.235 31.5647 154.92 32.6276C152.969 33.0179 150.445 33.3365 147.557 33.5309C147.618 39.2033 147.438 47.938 146.415 54.4167C145.085 62.8421 141.904 75.3377 139.652 84.185C139.205 85.9411 138.795 87.5534 138.443 88.9617C136.317 97.465 132.597 115.003 129.94 129.353C129.572 131.336 129.266 133.087 128.994 134.641C127.297 144.331 126.932 146.416 121.436 150.08C115.059 154.331 105.492 153.269 100.709 152.737C96.9985 152.325 90.4087 149.673 85.6552 147.761C84.2816 147.208 83.0613 146.717 82.1081 146.36C77.8565 144.765 71.4786 140.513 66.6956 132.542C65.1012 130.77 63.5068 125.314 69.8844 117.661C75.4601 110.97 78.9561 105.839 82.0086 101.358C83.3205 99.4331 84.5504 97.6279 85.8284 95.8707C90.0801 90.0246 101.241 69.2976 103.367 62.92C105.492 56.5425 109.213 48.5706 113.464 43.7874C116.28 40.6199 120.504 34.8059 123.181 30.9882Z" fill="url(#paint0_linear_132_2646)"/>
<path d="M96.9923 134.137C93.1657 130.735 91.1462 135.554 90.6147 138.388C90.0159 140.514 90.6147 142.109 93.8035 142.109C96.9923 142.109 101.775 138.388 96.9923 134.137Z" fill="#30364B"/>
<defs>
<linearGradient id="paint0_linear_132_2646" x1="113.349" y1="40.2203" x2="113.079" y2="153.256" gradientUnits="userSpaceOnUse">
<stop stop-color="#808DC1"/>
<stop offset="1" stop-color="#51619F"/>
</linearGradient>
</defs>
</svg>
