<svg width="1920" height="1080" viewBox="0 0 1920 1080" fill="none" xmlns="http://www.w3.org/2000/svg">
<path d="M1223.99 930.088C1223.09 930.535 1222.49 932.697 1222.31 933.722C1222.26 934.794 1222.08 937.608 1221.75 940.292C1221.33 943.647 1220.35 949.099 1223.15 955.11C1225.94 961.12 1228.6 964.475 1229.44 965.733C1230.11 966.74 1229.72 967.551 1229.44 967.83C1224.82 971.884 1221.33 971.325 1216.86 977.895C1212.38 984.465 1210.85 987.819 1211.13 989.078C1211.35 990.084 1211.22 991.174 1211.13 991.594C1210.71 993.271 1211.27 996.346 1213.92 994.669C1216.58 992.992 1216.86 992.992 1217.84 992.712C1218.81 992.432 1223.71 993.411 1229.44 992.572C1234.02 991.901 1236.66 990.802 1237.41 990.336C1238.8 989.637 1241.54 988.574 1241.32 989.916C1241.1 991.258 1241.41 992.805 1241.6 993.411C1242.72 997.045 1241.88 999.841 1243 1001.1C1243.89 1002.11 1244.11 1003.1 1244.11 1003.48C1244 1005.49 1244.63 1006.74 1244.95 1007.11C1247.05 1011.02 1245.93 1010.19 1248.31 1013.26C1250.68 1016.34 1252.22 1017.17 1253.2 1018.57C1253.98 1019.69 1254.37 1019.22 1254.46 1018.85C1255.72 1014.52 1257.11 1013.82 1257.53 1012.42C1257.95 1011.02 1260.47 1009.63 1261.17 1007.11C1261.87 1004.59 1264.66 1001.8 1264.38 999.422C1264.16 997.521 1264.48 995.741 1264.66 995.088C1264.94 994.25 1265.5 992.125 1265.5 990.336C1265.5 988.099 1267.18 986.561 1267.6 986.142C1268.02 985.723 1269.42 986.282 1272.91 988.099C1276.41 989.916 1280.18 991.174 1283.12 991.035C1286.05 990.895 1288.57 990.615 1290.66 989.637C1292.76 988.658 1293.6 989.357 1295.28 988.938C1296.95 988.518 1297.65 988.379 1298.63 987.54C1299.41 986.869 1301.66 986.142 1302.69 985.862C1304.03 985.639 1304.18 984.744 1304.08 984.325C1304.19 983.878 1301.8 982.181 1300.59 981.389C1298.58 979.945 1294.02 976.553 1291.78 974.54C1288.99 972.024 1287.73 971.604 1286.61 971.185C1285.49 970.766 1284.79 970.346 1283.95 969.368C1283.12 968.389 1280.88 966.991 1279.48 966.712C1278.36 966.488 1277.34 965.78 1276.96 965.454C1276.07 964.783 1276.5 964.056 1276.82 963.776C1280.04 960.282 1282.14 955.809 1282.42 953.013C1282.7 950.217 1284.09 946.862 1283.95 945.185C1283.81 943.507 1285.91 942.529 1286.33 941.69C1286.75 940.851 1286.61 940.432 1285.49 940.432H1276.27C1273.02 940.432 1270.81 940.991 1270.12 941.271C1270.12 941.271 1265.64 942.948 1262.85 944.346C1260.05 945.744 1257.81 948.4 1256.84 949.099C1255.86 949.798 1255.16 950.636 1253.76 950.217C1252.64 949.882 1251.34 949.798 1250.82 949.798C1248.87 949.798 1247.33 949.378 1245.79 947.002C1244.56 945.101 1242.95 943.507 1242.3 942.948C1238.66 940.013 1238.66 940.013 1234.19 938.335C1229.72 936.658 1228.74 934.84 1227.62 933.303C1226.5 931.765 1225.1 929.529 1223.99 930.088Z" fill="#CD4138"/>
<path d="M1231.67 943.926C1230.67 943.926 1230.04 944.764 1229.86 945.184C1229.16 946.582 1229.86 947.42 1230.56 947.281C1231.26 947.141 1231.95 946.442 1232.23 945.883C1232.51 945.324 1232.93 943.926 1231.67 943.926Z" fill="#E66C5A"/>
<path d="M1234.33 947.56C1233.77 947.672 1233.07 948.352 1232.79 948.678C1232.37 949.517 1232.51 949.238 1232.37 949.797C1232.23 950.356 1233.07 951.474 1234.05 950.915C1235.03 950.356 1235.59 949.657 1235.59 948.678C1235.59 947.7 1235.03 947.42 1234.33 947.56Z" fill="#E66C5A"/>
<path d="M1238.1 951.474C1237.41 950.915 1236.43 951.893 1236.43 952.033C1235.73 952.872 1236.01 953.99 1236.85 953.711C1237.69 953.431 1238.8 952.033 1238.1 951.474Z" fill="#E66C5A"/>
<path d="M1240.48 953.711C1239.64 953.571 1238.8 954.41 1238.8 954.549C1238.24 955.22 1238.2 955.668 1238.24 955.807C1238.52 956.646 1239.08 956.926 1239.78 956.786C1240.48 956.646 1241.18 955.388 1241.18 954.969C1241.18 954.549 1241.32 953.85 1240.48 953.711Z" fill="#E66C5A"/>
<path d="M1242.16 959.442C1241.15 959.554 1240.99 958.463 1241.04 957.904C1241.32 956.926 1242.16 956.926 1242.58 958.184C1242.91 959.19 1242.44 959.442 1242.16 959.442Z" fill="#E66C5A"/>
<path d="M1243.7 961.678C1243.14 961.79 1243.09 960.886 1243.14 960.42C1243.14 960.327 1243.25 960.141 1243.7 960.141C1244.26 960.141 1244.54 960.56 1244.4 961.119C1244.28 961.567 1243.88 961.678 1243.7 961.678Z" fill="#E66C5A"/>
<path d="M1244.95 964.894C1244.62 964.446 1245 963.775 1245.23 963.496C1245.79 963.356 1245.79 963.356 1246.21 963.356C1246.63 963.356 1247.33 963.775 1247.33 964.195C1247.33 964.614 1247.47 965.453 1246.63 965.732C1245.79 966.012 1245.37 965.453 1244.95 964.894Z" fill="#E66C5A"/>
<path d="M1248.03 965.453C1247.81 964.223 1248.87 963.542 1249.43 963.356C1250.55 963.076 1252.5 964.055 1252.08 965.453C1251.66 966.851 1250.97 967.13 1250.27 967.27C1249.57 967.41 1248.31 966.99 1248.03 965.453Z" fill="#E66C5A"/>
<path d="M1250.41 962.797C1249.96 962.349 1250.41 961.399 1250.69 960.98C1251.66 960.281 1251.52 961.399 1251.52 961.539C1251.52 961.678 1250.97 963.356 1250.41 962.797Z" fill="#E66C5A"/>
<path d="M1251.38 959.861C1251.16 959.414 1251.76 958.557 1252.08 958.184C1252.78 957.625 1252.36 959.023 1252.22 959.162C1252.08 959.302 1251.66 960.42 1251.38 959.861Z" fill="#E66C5A"/>
<path d="M1252.22 957.205C1252.11 956.87 1252.55 955.947 1252.78 955.528C1253.06 955.109 1253.34 955.388 1253.2 955.807C1253.09 956.143 1252.88 956.6 1252.78 956.786C1252.64 957.066 1252.34 957.541 1252.22 957.205Z" fill="#E66C5A"/>
<path d="M1253.06 954.549C1252.95 954.214 1253.11 953.757 1253.2 953.571C1253.36 953.06 1253.9 953.152 1253.9 953.571C1253.9 953.906 1253.71 954.27 1253.62 954.41C1253.48 954.596 1253.17 954.885 1253.06 954.549Z" fill="#E66C5A"/>
<path d="M1253.48 952.592C1253.37 952.257 1253.43 951.707 1253.48 951.474C1253.9 950.775 1254.18 951.334 1254.04 952.033C1253.9 952.732 1253.62 953.012 1253.48 952.592Z" fill="#E66C5A"/>
<path d="M1254.46 968.388C1253.23 967.717 1253.39 965.965 1253.62 965.173C1253.74 964.502 1254.42 964.241 1254.74 964.195C1256 964.334 1256.28 964.474 1257.26 965.592C1258.23 966.711 1258.09 967.969 1257.4 968.388C1256.7 968.808 1256 969.227 1254.46 968.388Z" fill="#E66C5A"/>
<path d="M1255.16 963.356C1255.05 962.909 1255.48 962.331 1255.72 962.098C1256.56 962.098 1256.56 962.238 1256.7 962.657C1256.84 963.076 1256.42 963.775 1256 963.775C1255.58 963.775 1255.3 963.915 1255.16 963.356Z" fill="#E66C5A"/>
<path d="M1257.95 961.119C1257.51 960.784 1257.67 960.141 1257.81 959.861C1258.09 959.582 1258.37 959.442 1259.07 959.861C1259.63 960.197 1259.4 960.747 1259.21 960.98C1258.98 961.166 1258.4 961.455 1257.95 961.119Z" fill="#E66C5A"/>
<path d="M1260.19 958.324C1260.19 957.764 1260.66 957.252 1260.89 957.066C1261.17 956.926 1262.15 956.786 1262.29 957.205C1262.43 957.625 1262.29 958.463 1261.59 958.743C1260.89 959.023 1260.19 959.023 1260.19 958.324Z" fill="#E66C5A"/>
<path d="M1263.13 955.528C1262.9 954.969 1263.22 954.363 1263.41 954.13C1263.74 954.018 1264.11 953.99 1264.24 953.99C1264.8 953.99 1265.64 954.41 1265.64 955.248C1265.64 956.087 1264.8 956.786 1264.24 956.646C1263.69 956.506 1263.41 956.227 1263.13 955.528Z" fill="#E66C5A"/>
<path d="M1265.92 953.291C1265.59 952.732 1265.97 952.313 1266.2 952.173C1266.38 952.033 1267.04 951.893 1267.6 952.453C1268.05 952.9 1267.69 953.385 1267.46 953.571C1267.09 953.711 1266.26 953.85 1265.92 953.291Z" fill="#E66C5A"/>
<path d="M1269.42 950.915C1269.08 950.02 1269.56 949.61 1269.84 949.517C1270.12 949.377 1270.81 949.21 1271.37 949.657C1271.93 950.104 1271.7 950.682 1271.51 950.915C1270.95 951.288 1269.75 951.81 1269.42 950.915Z" fill="#E66C5A"/>
<path d="M1273.05 947.42C1272.49 946.414 1272.82 945.603 1273.05 945.324C1273.5 944.653 1274.26 944.578 1274.59 944.625C1275.85 945.184 1276.13 945.463 1276.41 946.721C1276.63 947.728 1275.85 948.166 1275.43 948.259C1274.87 948.399 1273.61 948.427 1273.05 947.42Z" fill="#E66C5A"/>
<path d="M1277.38 943.786C1277.38 943.339 1277.85 943.04 1278.08 942.947C1279.06 942.528 1279.9 943.087 1279.62 943.786C1279.34 944.485 1278.64 944.764 1278.22 944.625C1277.8 944.485 1277.38 944.345 1277.38 943.786Z" fill="#E66C5A"/>
<path d="M1259.07 966.152C1258.74 965.928 1259.31 965.593 1259.63 965.453C1259.74 965.341 1260.05 965.22 1260.19 965.173C1260.75 965.313 1260.75 966.152 1260.61 966.292C1260.47 966.431 1259.49 966.431 1259.07 966.152Z" fill="#E66C5A"/>
<path d="M1263.97 964.894C1262.71 964.894 1262.01 965.453 1261.87 965.592C1261.87 966.012 1261.59 965.732 1262.99 966.152C1264.11 966.488 1264.38 966.012 1264.38 965.732C1264.5 965.061 1264.15 964.893 1263.97 964.894Z" fill="#E66C5A"/>
<path d="M1266.2 965.592C1265.87 965.369 1266.34 965.033 1266.62 964.894L1268.02 964.754C1269.58 964.866 1269.14 965.36 1268.72 965.592C1268.02 965.686 1266.54 965.816 1266.2 965.592Z" fill="#E66C5A"/>
<path d="M1274.31 964.754C1272.63 964.642 1271.93 964.987 1271.79 965.173C1272.58 965.956 1274.26 965.872 1275.01 965.732C1275.47 965.453 1275.99 964.866 1274.31 964.754Z" fill="#E66C5A"/>
<path d="M1258.79 973.141C1258.46 972.918 1258.65 971.93 1258.79 971.464C1258.96 970.625 1260.89 970.345 1260.89 971.464C1260.89 972.582 1260.89 973.141 1260.19 973.421C1259.49 973.7 1259.21 973.421 1258.79 973.141Z" fill="#E66C5A"/>
<path d="M1263.97 974.539C1263.18 974.427 1263.27 973.561 1263.41 973.141C1264.24 972.442 1264.8 973.141 1264.94 973.84C1265.08 974.539 1264.94 974.679 1263.97 974.539Z" fill="#E66C5A"/>
<path d="M1267.32 975.238C1266.76 974.679 1267.09 974.073 1267.32 973.84C1268.16 973.561 1267.88 973.7 1268.86 973.98C1269.64 974.204 1269.56 974.725 1269.42 974.958C1268.95 975.285 1267.88 975.797 1267.32 975.238Z" fill="#E66C5A"/>
<path d="M1271.09 976.496C1270.98 975.713 1271.51 975.331 1271.79 975.238C1273.19 974.958 1273.05 975.797 1272.63 976.216C1272.21 976.636 1271.23 977.475 1271.09 976.496Z" fill="#E66C5A"/>
<path d="M1274.59 978.173C1274.25 977.391 1275.1 976.729 1275.57 976.496C1277.02 975.713 1277.66 976.356 1277.8 976.776C1277.8 978.313 1277.11 979.292 1276.69 979.571C1276.27 979.851 1275.57 979.991 1275.57 979.432C1275.57 978.872 1275.01 979.152 1274.59 978.173Z" fill="#E66C5A"/>
<path d="M1279.62 978.733C1279.29 978.397 1279.76 977.94 1280.04 977.754C1280.4 977.436 1281.58 977.475 1281.86 977.754C1282.14 978.034 1281.86 978.733 1281.58 979.012C1281.3 979.292 1280.04 979.152 1279.62 978.733Z" fill="#E66C5A"/>
<path d="M1284.93 980.55C1284.82 979.432 1285.45 978.872 1285.77 978.733C1287.17 978.453 1286.89 979.432 1286.61 980.27C1286.33 981.109 1285.07 981.948 1284.93 980.55Z" fill="#E66C5A"/>
<path d="M1288.43 982.507C1288.43 981.836 1288.99 981.202 1289.27 980.969C1289.94 980.298 1290.57 980.69 1290.8 980.969C1291.22 981.948 1290.11 983.625 1289.55 983.765C1288.99 983.905 1288.43 983.346 1288.43 982.507Z" fill="#E66C5A"/>
<path d="M1292.62 983.485C1292.51 982.814 1292.95 982.274 1293.18 982.087C1294.86 981.668 1294.72 982.507 1294.3 983.206C1293.88 983.905 1292.76 984.324 1292.62 983.485Z" fill="#E66C5A"/>
<path d="M1295.84 983.206C1296.17 982.982 1296.91 982.833 1297.23 982.786C1297.51 982.738 1298.35 982.786 1298.35 983.206C1298.35 983.625 1298.07 984.044 1297.23 984.044C1296.4 984.044 1295.42 983.485 1295.84 983.206Z" fill="#E66C5A"/>
<path d="M1253.62 972.862C1253.29 972.414 1253.48 971.464 1253.62 971.044C1254.29 970.15 1255.21 970.485 1255.58 970.765C1255.81 971.231 1256.17 972.302 1255.72 972.862C1255.16 973.561 1254.04 973.421 1253.62 972.862Z" fill="#E66C5A"/>
<path d="M1255.86 975.098C1255.75 975.769 1255.16 975.191 1254.88 974.819C1254.88 974.399 1254.88 973.84 1255.16 973.84C1255.44 973.84 1256 974.259 1255.86 975.098Z" fill="#E66C5A"/>
<path d="M1256.28 975.937C1256.05 976.049 1256.18 976.449 1256.28 976.636C1256.7 977.475 1257.54 977.754 1257.54 977.195C1257.54 976.636 1256.56 975.797 1256.28 975.937Z" fill="#E66C5A"/>
<path d="M1257.95 977.754C1257.62 977.978 1257.81 978.5 1257.95 978.733C1259.21 979.991 1259.21 979.292 1259.21 978.872C1259.21 978.453 1258.37 977.475 1257.95 977.754Z" fill="#E66C5A"/>
<path d="M1259.63 979.991C1259.63 980.829 1260.61 981.389 1260.89 981.528C1262.15 981.948 1261.59 980.969 1261.17 980.41C1260.75 979.851 1259.63 979.152 1259.63 979.991Z" fill="#E66C5A"/>
<path d="M1262.15 981.948C1262.15 982.367 1263.69 983.485 1263.69 983.765C1264.8 985.303 1265.36 984.604 1265.08 984.044C1264.86 983.597 1264.06 982.833 1263.69 982.507C1263.41 982.227 1262.15 981.528 1262.15 981.948Z" fill="#E66C5A"/>
<path d="M1247.47 975.238C1247.02 974.679 1247.1 973.98 1247.19 973.7C1247.89 973.001 1248.45 973.141 1249.15 973.421C1249.85 973.7 1249.99 975.098 1249.57 975.518C1249.15 975.937 1248.03 975.937 1247.47 975.238Z" fill="#E66C5A"/>
<path d="M1245.93 977.195C1245.89 976.776 1246.02 975.937 1246.91 975.937C1248.03 975.937 1246.63 977.754 1245.93 977.195Z" fill="#E66C5A"/>
<path d="M1245.51 977.754C1244.84 978.124 1244.49 978.84 1244.4 979.152C1244.4 979.711 1244.67 979.991 1245.09 979.571C1245.51 979.152 1246.35 977.292 1245.51 977.754Z" fill="#E66C5A"/>
<path d="M1244.12 980.41C1243.44 980.986 1243.18 982.234 1243.14 982.786C1243.09 983.066 1243.14 983.541 1243.7 983.206C1244.26 982.87 1244.58 982.134 1244.67 981.808C1244.77 981.102 1244.79 979.834 1244.12 980.41Z" fill="#E66C5A"/>
<path d="M1242.3 987.26C1242.97 986.365 1242.86 985.209 1242.72 984.743C1242.3 983.485 1241.88 985.862 1241.46 986.84C1241.04 987.819 1241.32 988.378 1241.6 988.098C1241.82 987.875 1242.16 987.446 1242.3 987.26Z" fill="#E66C5A"/>
<path d="M1250.83 975.518C1250.6 974.958 1251.38 974.259 1251.8 973.98C1252.18 973.7 1252.95 973.281 1253.06 973.84C1253.2 974.539 1252.64 975.098 1252.5 975.238C1252.36 975.378 1251.11 976.216 1250.83 975.518Z" fill="#E66C5A"/>
<path d="M1251.52 978.733C1251.08 978.621 1251.24 978.034 1251.38 977.754C1252.08 977.055 1252.5 977.195 1252.64 977.754C1252.78 978.313 1252.08 978.872 1251.52 978.733Z" fill="#E66C5A"/>
<path d="M1250.69 981.249C1250.46 980.801 1250.78 980.317 1250.97 980.13C1251.52 979.683 1251.94 979.944 1252.08 980.13C1252.22 980.363 1252.42 980.913 1252.08 981.249C1251.66 981.668 1250.97 981.808 1250.69 981.249Z" fill="#E66C5A"/>
<path d="M1250.97 982.507C1250.07 982.507 1249.19 983.346 1248.87 983.765C1248.59 984.277 1248.11 985.414 1248.45 985.862C1248.87 986.421 1249.99 986.421 1250.97 986.281C1251.94 986.141 1252.64 985.722 1252.64 984.324C1252.64 982.926 1252.08 982.507 1250.97 982.507Z" fill="#E66C5A"/>
<path d="M1249.43 989.077C1248.98 988.965 1249.33 988.191 1249.57 987.819C1250.69 986.98 1251.52 987.26 1251.38 988.098C1251.24 988.937 1249.99 989.217 1249.43 989.077Z" fill="#E66C5A"/>
<path d="M1251.52 992.851C1249.85 993.634 1248.59 992.991 1248.17 992.571C1247.94 992.199 1247.75 991.229 1248.87 990.335C1249.99 989.44 1251.29 989.962 1251.8 990.335C1252.41 990.847 1253.2 992.068 1251.52 992.851Z" fill="#E66C5A"/>
<path d="M1250.13 995.227C1249.46 995.563 1249.38 996.113 1249.43 996.346C1250.69 997.184 1252.08 996.346 1251.8 995.786C1251.52 995.227 1250.97 994.808 1250.13 995.227Z" fill="#E66C5A"/>
<path d="M1251.38 997.743C1250.27 998.079 1249.89 998.908 1249.85 999.281C1250.55 1001.1 1252.08 1000.54 1253.06 1000.4C1254.04 1000.26 1254.6 999.281 1254.04 998.442C1253.48 997.604 1252.78 997.324 1251.38 997.743Z" fill="#E66C5A"/>
<path d="M1251.8 1002.64C1250.8 1002.52 1250.64 1003.33 1250.69 1003.75C1250.97 1004.87 1251.8 1004.59 1252.08 1004.59C1252.36 1004.59 1253.06 1002.78 1251.8 1002.64Z" fill="#E66C5A"/>
<path d="M1252.08 1008.79C1252.98 1008 1252.08 1007.34 1251.52 1007.11C1249.99 1007.39 1250.41 1008.37 1250.69 1008.79C1250.97 1009.21 1250.97 1009.77 1252.08 1008.79Z" fill="#E66C5A"/>
<path d="M1251.52 1012.42C1250.74 1012.42 1250.83 1011.49 1250.97 1011.02C1251.64 1010.46 1252.18 1010.98 1252.36 1011.3C1252.41 1011.68 1252.31 1012.42 1251.52 1012.42Z" fill="#E66C5A"/>
<path d="M1244.81 970.765C1243.92 969.535 1244.72 968.482 1245.23 968.109C1245.65 967.694 1245.93 967.969 1246.49 967.829C1247.05 967.69 1248.31 968.388 1248.03 970.066C1247.75 971.744 1246.21 972.023 1245.79 971.743C1245.46 971.52 1245 970.998 1244.81 970.765Z" fill="#E66C5A"/>
<path d="M1244.4 967.55C1244.28 967.102 1243.14 967.177 1242.58 967.27C1241.88 967.338 1242.16 968.109 1243.14 968.388C1244.12 968.668 1244.54 968.109 1244.4 967.55Z" fill="#E66C5A"/>
<path d="M1240.9 967.27C1240.57 967.046 1240.02 967.177 1239.78 967.27C1238.38 967.549 1239.78 968.109 1240.48 968.109C1241.18 968.109 1241.32 967.55 1240.9 967.27Z" fill="#E66C5A"/>
<path d="M1237.55 967.829C1237.99 967.382 1236.99 967.27 1236.43 967.27C1235.09 967.493 1235.31 967.736 1235.59 967.829C1236.05 968.016 1237.1 968.276 1237.55 967.829Z" fill="#E66C5A"/>
<path d="M1233.63 967.55C1233.74 967.102 1232.75 966.991 1232.23 966.991C1231.56 966.991 1231.67 967.177 1231.81 967.27C1232.37 967.55 1233.52 967.997 1233.63 967.55Z" fill="#E66C5A"/>
<path d="M1244.12 971.044C1243.44 970.709 1242.53 971.65 1242.16 972.163C1241.18 973.84 1243 972.722 1243.42 972.582C1243.84 972.442 1244.95 971.464 1244.12 971.044Z" fill="#E66C5A"/>
<path d="M1240.2 974.539C1240.31 973.98 1239.97 973.188 1239.78 972.862C1238.66 972.302 1238.8 972.582 1237.55 973.421C1236.54 974.092 1237.13 975.098 1237.55 975.518C1239.22 976.496 1240.06 975.238 1240.2 974.539Z" fill="#E66C5A"/>
<path d="M1235.87 977.195C1235.31 977.195 1234.75 975.937 1234.89 975.238C1235.73 973.98 1236.43 974.539 1236.85 975.937C1237.18 977.055 1236.33 977.242 1235.87 977.195Z" fill="#E66C5A"/>
<path d="M1233.63 976.822C1232.85 976.524 1232.28 977.04 1232.09 977.335C1231.53 978.229 1232.14 978.733 1232.51 978.872C1233.91 979.012 1234.05 978.453 1234.19 978.313C1234.33 978.173 1234.61 977.195 1233.63 976.822Z" fill="#E66C5A"/>
<path d="M1229.58 979.711C1229.24 979.04 1229.72 978.313 1230 978.034C1230.44 977.698 1230.74 977.987 1230.84 978.173C1231.26 979.292 1230.98 979.851 1230.84 980.13C1230.7 980.41 1230 980.55 1229.58 979.711Z" fill="#E66C5A"/>
<path d="M1224.97 980.69C1224.85 979.571 1225.38 978.919 1225.66 978.733C1226.36 978.22 1227.84 977.475 1228.18 978.593C1228.6 979.991 1228.74 981.389 1228.32 982.507C1227.98 983.401 1226.97 983.252 1226.5 983.066C1226.22 983.066 1225.1 982.087 1224.97 980.69Z" fill="#E66C5A"/>
<path d="M1224.13 983.346C1224.01 982.339 1223.05 981.994 1222.59 981.948C1222.4 981.948 1221.95 982.087 1221.61 982.647C1221.19 983.346 1222.17 983.625 1222.73 984.044C1223.29 984.464 1224.27 984.604 1224.13 983.346Z" fill="#E66C5A"/>
<path d="M1219.23 985.442C1218.26 985.442 1217.98 984.324 1217.98 984.184C1217.98 983.401 1218.26 983.113 1218.4 983.066C1219.18 982.619 1219.75 983.252 1219.93 983.625C1220.03 984.231 1220.02 985.442 1219.23 985.442Z" fill="#E66C5A"/>
<path d="M1216.44 985.163C1216.02 985.303 1216.02 985.862 1216.02 986.001C1215.91 986.896 1216.25 986.933 1216.44 986.84C1216.81 986.7 1217.56 986.309 1217.56 985.862C1217.56 985.303 1216.86 985.023 1216.44 985.163Z" fill="#E66C5A"/>
<path d="M1215.6 988.797C1215.93 988.238 1215.55 987.819 1215.32 987.679C1214.87 987.567 1214.67 987.726 1214.62 987.819C1214.17 988.378 1214.25 988.704 1214.34 988.797C1215.01 989.133 1215.46 988.937 1215.6 988.797Z" fill="#E66C5A"/>
<path d="M1212.52 990.894C1212.38 990.614 1212.8 989.496 1212.94 989.496C1213.13 989.356 1213.53 989.161 1213.64 989.496C1213.75 989.832 1213.69 990.102 1213.64 990.195C1213.64 990.475 1212.66 991.174 1212.52 990.894Z" fill="#E66C5A"/>
<path d="M1248.73 972.023C1248.62 971.576 1249.15 971.184 1249.43 971.044C1249.61 970.951 1250.07 970.877 1250.41 971.324C1250.83 971.883 1250.41 972.582 1249.99 972.862C1249.57 973.141 1248.87 972.582 1248.73 972.023Z" fill="#E66C5A"/>
<path d="M1250.27 969.926C1249.85 970.066 1249.43 968.948 1249.43 968.808C1249.32 968.473 1249.38 968.109 1249.43 967.969C1250.13 967.69 1250.69 967.829 1251.11 968.528C1251.52 969.227 1250.69 969.786 1250.27 969.926Z" fill="#E66C5A"/>
<path d="M1251.38 970.765C1251.27 970.206 1252.08 969.786 1252.5 969.647C1253.48 969.647 1252.64 971.044 1252.5 971.464C1252.36 971.883 1251.52 971.464 1251.38 970.765Z" fill="#E66C5A"/>
</svg>
