<svg width="1920" height="1080" viewBox="0 0 1920 1080" fill="none" xmlns="http://www.w3.org/2000/svg">
<g clip-path="url(#clip0_344_615)">
<path d="M1395.85 531.924C1394.67 532.51 1393.89 535.345 1393.65 536.689C1393.59 538.094 1393.35 541.784 1392.91 545.303C1392.36 549.702 1391.08 556.85 1394.75 564.731C1398.41 572.613 1401.89 577.011 1402.99 578.661C1403.87 579.98 1403.36 581.043 1402.99 581.41C1396.95 586.725 1392.36 585.992 1386.5 594.606C1380.63 603.221 1378.62 607.619 1378.98 609.269C1379.28 610.589 1379.11 612.018 1378.98 612.568C1378.43 614.767 1379.17 618.8 1382.65 616.6C1386.13 614.401 1386.5 614.401 1387.78 614.034C1389.07 613.668 1395.48 614.951 1402.99 613.851C1409.01 612.971 1412.46 611.529 1413.44 610.918C1415.27 610.002 1418.87 608.609 1418.57 610.369C1418.28 612.128 1418.7 614.156 1418.94 614.951C1420.41 619.716 1419.31 623.382 1420.77 625.031C1421.95 626.351 1422.24 627.658 1422.24 628.147C1422.09 630.786 1422.91 632.424 1423.34 632.912C1426.09 638.044 1424.62 636.945 1427.74 640.977C1430.85 645.009 1432.87 646.109 1434.15 647.941C1435.18 649.408 1435.68 648.797 1435.8 648.308C1437.45 642.626 1439.28 641.71 1439.83 639.877C1440.38 638.044 1443.68 636.211 1444.6 632.912C1445.52 629.613 1449.18 625.948 1448.82 622.832C1448.52 620.339 1448.94 618.005 1449.18 617.15C1449.55 616.05 1450.28 613.265 1450.28 610.918C1450.28 607.986 1452.48 605.97 1453.03 605.42C1453.58 604.87 1455.41 605.603 1460 607.986C1464.58 610.369 1469.53 612.018 1473.38 611.835C1477.22 611.652 1480.52 611.285 1483.27 610.002C1486.02 608.719 1487.12 609.636 1489.32 609.086C1491.52 608.536 1492.44 608.353 1493.72 607.253C1494.75 606.373 1497.69 605.42 1499.03 605.053C1500.79 604.76 1500.99 603.587 1500.87 603.037C1501.01 602.451 1497.87 600.227 1496.29 599.188C1493.66 597.295 1487.67 592.847 1484.74 590.208C1481.07 586.909 1479.42 586.359 1477.96 585.809C1476.49 585.259 1475.57 584.709 1474.47 583.426C1473.38 582.143 1470.44 580.31 1468.61 579.944C1467.14 579.651 1465.8 578.722 1465.31 578.294C1464.14 577.415 1464.7 576.461 1465.13 576.095C1469.34 571.513 1472.09 565.648 1472.46 561.982C1472.83 558.316 1474.66 553.918 1474.47 551.718C1474.29 549.519 1477.04 548.236 1477.59 547.136C1478.14 546.037 1477.96 545.487 1476.49 545.487H1464.39C1460.14 545.487 1457.25 546.22 1456.33 546.586C1456.33 546.586 1450.46 548.786 1446.8 550.619C1443.13 552.451 1440.2 555.934 1438.92 556.85C1437.64 557.767 1436.72 558.866 1434.89 558.316C1433.42 557.877 1431.71 557.767 1431.04 557.767C1428.47 557.767 1426.45 557.217 1424.44 554.101C1422.83 551.608 1420.71 549.519 1419.86 548.786C1415.09 544.937 1415.09 544.937 1409.23 542.738C1403.36 540.538 1402.08 538.155 1400.61 536.139C1399.15 534.123 1397.31 531.191 1395.85 531.924Z" fill="url(#paint0_linear_344_615)"/>
<path d="M1405.93 550.068C1404.61 550.068 1403.79 551.168 1403.55 551.718C1402.63 553.55 1403.55 554.65 1404.46 554.467C1405.38 554.284 1406.29 553.367 1406.66 552.634C1407.03 551.901 1407.58 550.068 1405.93 550.068Z" fill="url(#paint1_linear_344_615)"/>
<path d="M1409.41 554.833C1408.68 554.98 1407.76 555.872 1407.39 556.3C1406.84 557.399 1407.03 557.033 1406.84 557.766C1406.66 558.499 1407.76 559.965 1409.04 559.232C1410.33 558.499 1411.06 557.583 1411.06 556.3C1411.06 555.017 1410.33 554.65 1409.41 554.833Z" fill="url(#paint2_linear_344_615)"/>
<path d="M1414.36 559.965C1413.44 559.232 1412.16 560.515 1412.16 560.698C1411.24 561.798 1411.61 563.264 1412.71 562.898C1413.81 562.531 1415.28 560.698 1414.36 559.965Z" fill="url(#paint3_linear_344_615)"/>
<path d="M1417.47 562.898C1416.37 562.715 1415.28 563.814 1415.28 563.998C1414.54 564.877 1414.48 565.464 1414.54 565.647C1414.91 566.747 1415.64 567.113 1416.56 566.93C1417.47 566.747 1418.39 565.097 1418.39 564.547C1418.39 563.998 1418.57 563.081 1417.47 562.898Z" fill="url(#paint4_linear_344_615)"/>
<path d="M1419.67 570.412C1418.35 570.559 1418.15 569.129 1418.21 568.396C1418.57 567.113 1419.67 567.113 1420.22 568.763C1420.66 570.082 1420.04 570.412 1419.67 570.412Z" fill="url(#paint5_linear_344_615)"/>
<path d="M1421.69 573.345C1420.96 573.492 1420.9 572.306 1420.96 571.695C1420.96 571.573 1421.1 571.329 1421.69 571.329C1422.42 571.329 1422.79 571.879 1422.61 572.612C1422.46 573.198 1421.93 573.345 1421.69 573.345Z" fill="url(#paint6_linear_344_615)"/>
<path d="M1423.34 577.56C1422.9 576.974 1423.4 576.094 1423.71 575.728C1424.44 575.544 1424.44 575.544 1424.99 575.544C1425.54 575.544 1426.46 576.094 1426.46 576.644C1426.46 577.194 1426.64 578.294 1425.54 578.66C1424.44 579.027 1423.89 578.294 1423.34 577.56Z" fill="url(#paint7_linear_344_615)"/>
<path d="M1427.37 578.294C1427.08 576.681 1428.47 575.789 1429.2 575.544C1430.67 575.178 1433.24 576.461 1432.69 578.294C1432.14 580.126 1431.22 580.493 1430.3 580.676C1429.39 580.859 1427.74 580.31 1427.37 578.294Z" fill="url(#paint8_linear_344_615)"/>
<path d="M1430.49 574.811C1429.9 574.225 1430.49 572.978 1430.85 572.429C1432.14 571.512 1431.95 572.978 1431.95 573.162C1431.95 573.345 1431.22 575.544 1430.49 574.811Z" fill="url(#paint9_linear_344_615)"/>
<path d="M1431.77 570.962C1431.48 570.376 1432.26 569.252 1432.69 568.763C1433.6 568.03 1433.05 569.863 1432.87 570.046C1432.69 570.229 1432.14 571.695 1431.77 570.962Z" fill="url(#paint10_linear_344_615)"/>
<path d="M1432.87 567.48C1432.72 567.04 1433.3 565.83 1433.6 565.28C1433.97 564.731 1434.34 565.097 1434.15 565.647C1434.01 566.087 1433.73 566.686 1433.6 566.93C1433.42 567.297 1433.02 567.92 1432.87 567.48Z" fill="url(#paint11_linear_344_615)"/>
<path d="M1433.97 563.998C1433.82 563.558 1434.03 562.959 1434.15 562.715C1434.36 562.045 1435.07 562.165 1435.07 562.715C1435.07 563.154 1434.83 563.631 1434.7 563.814C1434.52 564.059 1434.12 564.437 1433.97 563.998Z" fill="url(#paint12_linear_344_615)"/>
<path d="M1434.52 561.432C1434.37 560.992 1434.46 560.271 1434.52 559.965C1435.07 559.049 1435.44 559.782 1435.25 560.698C1435.07 561.615 1434.7 561.981 1434.52 561.432Z" fill="url(#paint13_linear_344_615)"/>
<path d="M1435.8 582.142C1434.19 581.263 1434.4 578.966 1434.7 577.927C1434.86 577.047 1435.75 576.705 1436.17 576.644C1437.82 576.827 1438.19 577.011 1439.47 578.477C1440.75 579.943 1440.57 581.593 1439.65 582.142C1438.74 582.692 1437.82 583.242 1435.8 582.142Z" fill="url(#paint14_linear_344_615)"/>
<path d="M1436.72 575.544C1436.57 574.958 1437.15 574.2 1437.45 573.895C1438.55 573.895 1438.55 574.078 1438.74 574.628C1438.92 575.178 1438.37 576.094 1437.82 576.094C1437.27 576.094 1436.9 576.277 1436.72 575.544Z" fill="url(#paint15_linear_344_615)"/>
<path d="M1440.38 572.612C1439.8 572.172 1440.02 571.329 1440.2 570.962C1440.57 570.596 1440.93 570.412 1441.85 570.962C1442.58 571.402 1442.28 572.123 1442.03 572.429C1441.73 572.673 1440.97 573.052 1440.38 572.612Z" fill="url(#paint16_linear_344_615)"/>
<path d="M1443.32 568.946C1443.32 568.213 1443.93 567.541 1444.23 567.297C1444.6 567.113 1445.88 566.93 1446.07 567.48C1446.25 568.03 1446.07 569.129 1445.15 569.496C1444.23 569.863 1443.32 569.863 1443.32 568.946Z" fill="url(#paint17_linear_344_615)"/>
<path d="M1447.17 565.28C1446.87 564.547 1447.29 563.753 1447.53 563.448C1447.97 563.301 1448.45 563.264 1448.63 563.264C1449.37 563.264 1450.47 563.814 1450.47 564.914C1450.47 566.014 1449.37 566.93 1448.63 566.747C1447.9 566.563 1447.53 566.197 1447.17 565.28Z" fill="url(#paint18_linear_344_615)"/>
<path d="M1450.83 562.348C1450.39 561.615 1450.89 561.065 1451.2 560.882C1451.43 560.698 1452.3 560.515 1453.03 561.248C1453.62 561.835 1453.15 562.47 1452.85 562.715C1452.36 562.898 1451.27 563.081 1450.83 562.348Z" fill="url(#paint19_linear_344_615)"/>
<path d="M1455.41 559.232C1454.97 558.059 1455.6 557.522 1455.96 557.399C1456.33 557.216 1457.25 556.996 1457.98 557.583C1458.71 558.169 1458.41 558.927 1458.16 559.232C1457.43 559.721 1455.85 560.405 1455.41 559.232Z" fill="url(#paint20_linear_344_615)"/>
<path d="M1460.18 554.65C1459.45 553.331 1459.87 552.267 1460.18 551.901C1460.77 551.021 1461.77 550.923 1462.2 550.984C1463.84 551.718 1464.21 552.084 1464.58 553.734C1464.87 555.053 1463.84 555.628 1463.29 555.75C1462.56 555.933 1460.91 555.97 1460.18 554.65Z" fill="url(#paint21_linear_344_615)"/>
<path d="M1465.86 549.885C1465.86 549.298 1466.47 548.907 1466.78 548.785C1468.06 548.235 1469.16 548.968 1468.79 549.885C1468.43 550.801 1467.51 551.168 1466.96 550.984C1466.41 550.801 1465.86 550.618 1465.86 549.885Z" fill="url(#paint22_linear_344_615)"/>
<path d="M1441.85 579.21C1441.41 578.917 1442.16 578.477 1442.58 578.294C1442.73 578.147 1443.13 577.988 1443.32 577.927C1444.05 578.11 1444.05 579.21 1443.87 579.394C1443.68 579.577 1442.4 579.577 1441.85 579.21Z" fill="url(#paint23_linear_344_615)"/>
<path d="M1448.27 577.56C1446.62 577.56 1445.7 578.294 1445.52 578.477C1445.52 579.027 1445.15 578.66 1446.98 579.21C1448.45 579.65 1448.82 579.027 1448.82 578.66C1448.96 577.78 1448.51 577.56 1448.27 577.56Z" fill="url(#paint24_linear_344_615)"/>
<path d="M1451.2 578.477C1450.76 578.183 1451.38 577.744 1451.75 577.56L1453.58 577.377C1455.63 577.524 1455.05 578.171 1454.5 578.477C1453.58 578.599 1451.64 578.77 1451.2 578.477Z" fill="url(#paint25_linear_344_615)"/>
<path d="M1461.83 577.377C1459.63 577.231 1458.71 577.683 1458.53 577.927C1459.56 578.953 1461.77 578.843 1462.75 578.66C1463.36 578.294 1464.03 577.524 1461.83 577.377Z" fill="url(#paint26_linear_344_615)"/>
<path d="M1441.48 588.374C1441.04 588.081 1441.3 586.786 1441.48 586.175C1441.71 585.075 1444.23 584.709 1444.23 586.175C1444.23 587.641 1444.23 588.374 1443.32 588.741C1442.4 589.108 1442.03 588.741 1441.48 588.374Z" fill="url(#paint27_linear_344_615)"/>
<path d="M1448.27 590.207C1447.24 590.061 1447.35 588.924 1447.53 588.374C1448.63 587.458 1449.37 588.374 1449.55 589.291C1449.73 590.207 1449.55 590.39 1448.27 590.207Z" fill="url(#paint28_linear_344_615)"/>
<path d="M1452.66 591.124C1451.93 590.39 1452.36 589.596 1452.66 589.291C1453.76 588.924 1453.4 589.108 1454.68 589.474C1455.71 589.767 1455.6 590.452 1455.41 590.757C1454.8 591.185 1453.4 591.857 1452.66 591.124Z" fill="url(#paint29_linear_344_615)"/>
<path d="M1457.61 592.773C1457.47 591.747 1458.16 591.246 1458.53 591.124C1460.36 590.757 1460.18 591.857 1459.63 592.407C1459.08 592.956 1457.8 594.056 1457.61 592.773Z" fill="url(#paint30_linear_344_615)"/>
<path d="M1462.2 594.973C1461.76 593.946 1462.87 593.079 1463.48 592.773C1465.38 591.747 1466.23 592.59 1466.41 593.14C1466.41 595.156 1465.49 596.439 1464.94 596.805C1464.39 597.172 1463.48 597.355 1463.48 596.622C1463.48 595.889 1462.75 596.256 1462.2 594.973Z" fill="url(#paint31_linear_344_615)"/>
<path d="M1468.79 595.706C1468.35 595.266 1468.98 594.667 1469.34 594.423C1469.81 594.005 1471.36 594.056 1471.73 594.423C1472.09 594.789 1471.73 595.706 1471.36 596.072C1470.99 596.439 1469.34 596.256 1468.79 595.706Z" fill="url(#paint32_linear_344_615)"/>
<path d="M1475.76 598.088C1475.61 596.622 1476.43 595.889 1476.86 595.706C1478.69 595.339 1478.32 596.622 1477.96 597.722C1477.59 598.821 1475.94 599.921 1475.76 598.088Z" fill="url(#paint33_linear_344_615)"/>
<path d="M1480.34 600.654C1480.34 599.775 1481.07 598.944 1481.44 598.638C1482.32 597.758 1483.15 598.272 1483.46 598.638C1484.01 599.921 1482.54 602.121 1481.81 602.304C1481.07 602.487 1480.34 601.754 1480.34 600.654Z" fill="url(#paint34_linear_344_615)"/>
<path d="M1485.84 601.937C1485.69 601.058 1486.27 600.349 1486.57 600.104C1488.77 599.555 1488.59 600.654 1488.04 601.571C1487.49 602.487 1486.02 603.037 1485.84 601.937Z" fill="url(#paint35_linear_344_615)"/>
<path d="M1490.05 601.571C1490.49 601.277 1491.46 601.082 1491.89 601.021C1492.25 600.958 1493.35 601.021 1493.35 601.571C1493.35 602.121 1492.99 602.67 1491.89 602.67C1490.79 602.67 1489.5 601.937 1490.05 601.571Z" fill="url(#paint36_linear_344_615)"/>
<path d="M1434.7 588.008C1434.26 587.421 1434.52 586.175 1434.7 585.625C1435.58 584.452 1436.78 584.892 1437.27 585.259C1437.57 585.87 1438.04 587.275 1437.45 588.008C1436.72 588.924 1435.25 588.741 1434.7 588.008Z" fill="url(#paint37_linear_344_615)"/>
<path d="M1437.64 590.94C1437.49 591.82 1436.72 591.063 1436.35 590.574C1436.35 590.024 1436.35 589.291 1436.72 589.291C1437.09 589.291 1437.82 589.841 1437.64 590.94Z" fill="url(#paint38_linear_344_615)"/>
<path d="M1438.19 592.04C1437.89 592.187 1438.06 592.712 1438.19 592.956C1438.74 594.056 1439.83 594.423 1439.83 593.69C1439.83 592.956 1438.55 591.857 1438.19 592.04Z" fill="url(#paint39_linear_344_615)"/>
<path d="M1440.38 594.423C1439.94 594.716 1440.2 595.4 1440.38 595.706C1442.03 597.355 1442.03 596.439 1442.03 595.889C1442.03 595.339 1440.93 594.056 1440.38 594.423Z" fill="url(#paint40_linear_344_615)"/>
<path d="M1442.58 597.355C1442.58 598.455 1443.87 599.188 1444.23 599.371C1445.88 599.921 1445.15 598.638 1444.6 597.905C1444.05 597.172 1442.58 596.256 1442.58 597.355Z" fill="url(#paint41_linear_344_615)"/>
<path d="M1445.88 599.921C1445.88 600.471 1447.9 601.937 1447.9 602.304C1449.37 604.32 1450.1 603.404 1449.73 602.67C1449.44 602.084 1448.39 601.082 1447.9 600.654C1447.53 600.288 1445.88 599.371 1445.88 599.921Z" fill="url(#paint42_linear_344_615)"/>
<path d="M1426.64 591.124C1426.05 590.39 1426.15 589.474 1426.27 589.108C1427.19 588.191 1427.92 588.374 1428.84 588.741C1429.75 589.108 1429.94 590.94 1429.39 591.49C1428.84 592.04 1427.37 592.04 1426.64 591.124Z" fill="url(#paint43_linear_344_615)"/>
<path d="M1424.62 593.69C1424.56 593.14 1424.73 592.04 1425.91 592.04C1427.37 592.04 1425.54 594.423 1424.62 593.69Z" fill="url(#paint44_linear_344_615)"/>
<path d="M1424.07 594.423C1423.19 594.908 1422.73 595.847 1422.61 596.256C1422.61 596.989 1422.97 597.355 1423.52 596.805C1424.07 596.256 1425.17 593.816 1424.07 594.423Z" fill="url(#paint45_linear_344_615)"/>
<path d="M1422.24 597.905C1421.36 598.661 1421.02 600.297 1420.96 601.021C1420.9 601.387 1420.96 602.011 1421.69 601.571C1422.42 601.131 1422.85 600.166 1422.97 599.738C1423.1 598.812 1423.12 597.149 1422.24 597.905Z" fill="url(#paint46_linear_344_615)"/>
<path d="M1419.86 606.886C1420.74 605.713 1420.59 604.198 1420.41 603.587C1419.86 601.937 1419.31 605.053 1418.76 606.336C1418.21 607.619 1418.57 608.352 1418.94 607.986C1419.23 607.692 1419.67 607.13 1419.86 606.886Z" fill="url(#paint47_linear_344_615)"/>
<path d="M1431.04 591.49C1430.74 590.757 1431.77 589.841 1432.32 589.474C1432.81 589.108 1433.82 588.558 1433.97 589.291C1434.15 590.207 1433.42 590.94 1433.24 591.124C1433.05 591.307 1431.4 592.407 1431.04 591.49Z" fill="url(#paint48_linear_344_615)"/>
<path d="M1431.95 595.706C1431.37 595.559 1431.59 594.789 1431.77 594.423C1432.69 593.506 1433.24 593.69 1433.42 594.423C1433.6 595.156 1432.69 595.889 1431.95 595.706Z" fill="url(#paint49_linear_344_615)"/>
<path d="M1430.85 599.005C1430.56 598.418 1430.98 597.783 1431.22 597.538C1431.95 596.952 1432.5 597.294 1432.69 597.538C1432.87 597.844 1433.13 598.565 1432.69 599.005C1432.14 599.555 1431.22 599.738 1430.85 599.005Z" fill="url(#paint50_linear_344_615)"/>
<path d="M1431.22 600.654C1430.05 600.654 1428.9 601.754 1428.47 602.304C1428.1 602.976 1427.48 604.467 1427.92 605.053C1428.47 605.786 1429.94 605.786 1431.22 605.603C1432.5 605.42 1433.42 604.87 1433.42 603.037C1433.42 601.204 1432.69 600.654 1431.22 600.654Z" fill="url(#paint51_linear_344_615)"/>
<path d="M1429.2 609.269C1428.62 609.122 1429.08 608.108 1429.39 607.619C1430.85 606.519 1431.95 606.886 1431.77 607.986C1431.59 609.085 1429.94 609.452 1429.2 609.269Z" fill="url(#paint52_linear_344_615)"/>
<path d="M1431.95 614.217C1429.75 615.244 1428.1 614.4 1427.55 613.851C1427.25 613.362 1427.01 612.091 1428.47 610.918C1429.94 609.745 1431.65 610.429 1432.32 610.918C1433.11 611.59 1434.15 613.191 1431.95 614.217Z" fill="url(#paint53_linear_344_615)"/>
<path d="M1430.12 617.333C1429.24 617.773 1429.14 618.494 1429.2 618.799C1430.85 619.899 1432.69 618.799 1432.32 618.066C1431.95 617.333 1431.22 616.783 1430.12 617.333Z" fill="url(#paint54_linear_344_615)"/>
<path d="M1431.77 620.632C1430.3 621.072 1429.82 622.159 1429.75 622.648C1430.67 625.031 1432.69 624.298 1433.97 624.114C1435.25 623.931 1435.99 622.648 1435.25 621.548C1434.52 620.449 1433.6 620.082 1431.77 620.632Z" fill="url(#paint55_linear_344_615)"/>
<path d="M1432.32 627.047C1431 626.9 1430.79 627.963 1430.85 628.513C1431.22 629.979 1432.32 629.613 1432.69 629.613C1433.05 629.613 1433.97 627.23 1432.32 627.047Z" fill="url(#paint56_linear_344_615)"/>
<path d="M1432.69 635.111C1433.86 634.085 1432.69 633.217 1431.95 632.912C1429.94 633.279 1430.49 634.562 1430.85 635.111C1431.22 635.661 1431.22 636.394 1432.69 635.111Z" fill="url(#paint57_linear_344_615)"/>
<path d="M1431.95 639.877C1430.93 639.877 1431.04 638.655 1431.22 638.044C1432.1 637.311 1432.81 637.983 1433.05 638.41C1433.11 638.899 1432.98 639.877 1431.95 639.877Z" fill="url(#paint58_linear_344_615)"/>
<path d="M1423.16 585.259C1421.98 583.646 1423.03 582.265 1423.71 581.776C1424.26 581.233 1424.62 581.593 1425.36 581.41C1426.09 581.226 1427.74 582.142 1427.37 584.342C1427.01 586.542 1424.99 586.908 1424.44 586.542C1424 586.248 1423.4 585.564 1423.16 585.259Z" fill="url(#paint59_linear_344_615)"/>
<path d="M1422.61 581.043C1422.46 580.457 1420.96 580.554 1420.22 580.676C1419.31 580.766 1419.67 581.776 1420.96 582.142C1422.24 582.509 1422.79 581.776 1422.61 581.043Z" fill="url(#paint60_linear_344_615)"/>
<path d="M1418.02 580.676C1417.58 580.383 1416.86 580.554 1416.56 580.676C1414.73 581.042 1416.56 581.776 1417.47 581.776C1418.39 581.776 1418.57 581.043 1418.02 580.676Z" fill="url(#paint61_linear_344_615)"/>
<path d="M1413.63 581.41C1414.21 580.823 1412.89 580.676 1412.16 580.676C1410.4 580.969 1410.69 581.287 1411.06 581.41C1411.67 581.654 1413.04 581.996 1413.63 581.41Z" fill="url(#paint62_linear_344_615)"/>
<path d="M1408.49 581.043C1408.64 580.457 1407.33 580.31 1406.66 580.31C1405.78 580.31 1405.93 580.554 1406.11 580.676C1406.84 581.043 1408.35 581.63 1408.49 581.043Z" fill="url(#paint63_linear_344_615)"/>
<path d="M1422.24 585.625C1421.36 585.185 1420.16 586.419 1419.67 587.091C1418.39 589.291 1420.77 587.825 1421.32 587.641C1421.87 587.458 1423.34 586.175 1422.24 585.625Z" fill="url(#paint64_linear_344_615)"/>
<path d="M1417.11 590.207C1417.25 589.474 1416.8 588.435 1416.56 588.008C1415.09 587.275 1415.28 587.641 1413.63 588.741C1412.31 589.621 1413.08 590.94 1413.63 591.49C1415.82 592.773 1416.92 591.124 1417.11 590.207Z" fill="url(#paint65_linear_344_615)"/>
<path d="M1411.43 593.69C1410.69 593.69 1409.96 592.04 1410.14 591.124C1411.24 589.474 1412.16 590.207 1412.71 592.04C1413.15 593.506 1412.04 593.751 1411.43 593.69Z" fill="url(#paint66_linear_344_615)"/>
<path d="M1408.49 593.201C1407.47 592.81 1406.72 593.486 1406.48 593.873C1405.74 595.046 1406.54 595.706 1407.03 595.889C1408.86 596.072 1409.04 595.339 1409.23 595.156C1409.41 594.973 1409.78 593.69 1408.49 593.201Z" fill="url(#paint67_linear_344_615)"/>
<path d="M1403.18 596.989C1402.74 596.109 1403.36 595.156 1403.73 594.789C1404.31 594.349 1404.71 594.728 1404.83 594.973C1405.38 596.439 1405.01 597.172 1404.83 597.538C1404.64 597.905 1403.73 598.088 1403.18 596.989Z" fill="url(#paint68_linear_344_615)"/>
<path d="M1397.13 598.272C1396.98 596.805 1397.68 595.95 1398.05 595.706C1398.96 595.034 1400.91 594.056 1401.35 595.522C1401.9 597.355 1402.08 599.188 1401.53 600.654C1401.09 601.827 1399.76 601.632 1399.15 601.387C1398.78 601.387 1397.31 600.104 1397.13 598.272Z" fill="url(#paint69_linear_344_615)"/>
<path d="M1396.03 601.754C1395.88 600.434 1394.63 599.982 1394.01 599.921C1393.77 599.921 1393.17 600.104 1392.73 600.838C1392.18 601.754 1393.46 602.121 1394.2 602.67C1394.93 603.22 1396.21 603.404 1396.03 601.754Z" fill="url(#paint70_linear_344_615)"/>
<path d="M1389.62 604.503C1388.33 604.503 1387.97 603.037 1387.97 602.854C1387.97 601.827 1388.33 601.449 1388.52 601.387C1389.54 600.801 1390.29 601.632 1390.53 602.121C1390.65 602.915 1390.64 604.503 1389.62 604.503Z" fill="url(#paint71_linear_344_615)"/>
<path d="M1385.95 604.137C1385.4 604.32 1385.4 605.053 1385.4 605.236C1385.25 606.409 1385.71 606.458 1385.95 606.336C1386.44 606.153 1387.42 605.64 1387.42 605.053C1387.42 604.32 1386.5 603.953 1385.95 604.137Z" fill="url(#paint72_linear_344_615)"/>
<path d="M1384.85 608.902C1385.29 608.169 1384.79 607.619 1384.48 607.436C1383.9 607.289 1383.63 607.497 1383.57 607.619C1382.98 608.352 1383.08 608.78 1383.2 608.902C1384.08 609.342 1384.67 609.085 1384.85 608.902Z" fill="url(#paint73_linear_344_615)"/>
<path d="M1380.82 611.651C1380.63 611.285 1381.18 609.818 1381.37 609.818C1381.61 609.635 1382.14 609.379 1382.28 609.818C1382.43 610.258 1382.35 610.613 1382.28 610.735C1382.28 611.101 1381 612.018 1380.82 611.651Z" fill="url(#paint74_linear_344_615)"/>
<path d="M1428.29 586.908C1428.14 586.322 1428.84 585.808 1429.2 585.625C1429.45 585.503 1430.05 585.405 1430.49 585.992C1431.04 586.725 1430.49 587.641 1429.94 588.008C1429.39 588.374 1428.47 587.641 1428.29 586.908Z" fill="url(#paint75_linear_344_615)"/>
<path d="M1430.3 584.159C1429.75 584.342 1429.2 582.876 1429.2 582.693C1429.06 582.253 1429.14 581.776 1429.2 581.593C1430.12 581.226 1430.85 581.41 1431.4 582.326C1431.95 583.242 1430.85 583.976 1430.3 584.159Z" fill="url(#paint76_linear_344_615)"/>
<path d="M1431.77 585.259C1431.62 584.525 1432.69 583.976 1433.24 583.792C1434.52 583.792 1433.42 585.625 1433.24 586.175C1433.05 586.725 1431.95 586.175 1431.77 585.259Z" fill="url(#paint77_linear_344_615)"/>
</g>
<defs>
<linearGradient id="paint0_linear_344_615" x1="1394" y1="529" x2="1433.5" y2="645" gradientUnits="userSpaceOnUse">
<stop stop-color="#CD4138"/>
<stop offset="1" stop-color="#A33029"/>
</linearGradient>
<linearGradient id="paint1_linear_344_615" x1="1437.07" y1="548.596" x2="1437.07" y2="639.877" gradientUnits="userSpaceOnUse">
<stop stop-color="#E66C5A"/>
<stop offset="1" stop-color="#B74736"/>
</linearGradient>
<linearGradient id="paint2_linear_344_615" x1="1437.07" y1="548.596" x2="1437.07" y2="639.877" gradientUnits="userSpaceOnUse">
<stop stop-color="#E66C5A"/>
<stop offset="1" stop-color="#B74736"/>
</linearGradient>
<linearGradient id="paint3_linear_344_615" x1="1437.07" y1="548.596" x2="1437.07" y2="639.877" gradientUnits="userSpaceOnUse">
<stop stop-color="#E66C5A"/>
<stop offset="1" stop-color="#B74736"/>
</linearGradient>
<linearGradient id="paint4_linear_344_615" x1="1437.07" y1="548.596" x2="1437.07" y2="639.877" gradientUnits="userSpaceOnUse">
<stop stop-color="#E66C5A"/>
<stop offset="1" stop-color="#B74736"/>
</linearGradient>
<linearGradient id="paint5_linear_344_615" x1="1437.07" y1="548.596" x2="1437.07" y2="639.877" gradientUnits="userSpaceOnUse">
<stop stop-color="#E66C5A"/>
<stop offset="1" stop-color="#B74736"/>
</linearGradient>
<linearGradient id="paint6_linear_344_615" x1="1437.07" y1="548.596" x2="1437.07" y2="639.877" gradientUnits="userSpaceOnUse">
<stop stop-color="#E66C5A"/>
<stop offset="1" stop-color="#B74736"/>
</linearGradient>
<linearGradient id="paint7_linear_344_615" x1="1437.07" y1="548.596" x2="1437.07" y2="639.877" gradientUnits="userSpaceOnUse">
<stop stop-color="#E66C5A"/>
<stop offset="1" stop-color="#B74736"/>
</linearGradient>
<linearGradient id="paint8_linear_344_615" x1="1437.07" y1="548.596" x2="1437.07" y2="639.877" gradientUnits="userSpaceOnUse">
<stop stop-color="#E66C5A"/>
<stop offset="1" stop-color="#B74736"/>
</linearGradient>
<linearGradient id="paint9_linear_344_615" x1="1437.07" y1="548.596" x2="1437.07" y2="639.877" gradientUnits="userSpaceOnUse">
<stop stop-color="#E66C5A"/>
<stop offset="1" stop-color="#B74736"/>
</linearGradient>
<linearGradient id="paint10_linear_344_615" x1="1437.07" y1="548.596" x2="1437.07" y2="639.877" gradientUnits="userSpaceOnUse">
<stop stop-color="#E66C5A"/>
<stop offset="1" stop-color="#B74736"/>
</linearGradient>
<linearGradient id="paint11_linear_344_615" x1="1437.07" y1="548.596" x2="1437.07" y2="639.877" gradientUnits="userSpaceOnUse">
<stop stop-color="#E66C5A"/>
<stop offset="1" stop-color="#B74736"/>
</linearGradient>
<linearGradient id="paint12_linear_344_615" x1="1437.07" y1="548.596" x2="1437.07" y2="639.877" gradientUnits="userSpaceOnUse">
<stop stop-color="#E66C5A"/>
<stop offset="1" stop-color="#B74736"/>
</linearGradient>
<linearGradient id="paint13_linear_344_615" x1="1437.07" y1="548.596" x2="1437.07" y2="639.877" gradientUnits="userSpaceOnUse">
<stop stop-color="#E66C5A"/>
<stop offset="1" stop-color="#B74736"/>
</linearGradient>
<linearGradient id="paint14_linear_344_615" x1="1437.07" y1="548.596" x2="1437.07" y2="639.877" gradientUnits="userSpaceOnUse">
<stop stop-color="#E66C5A"/>
<stop offset="1" stop-color="#B74736"/>
</linearGradient>
<linearGradient id="paint15_linear_344_615" x1="1437.07" y1="548.596" x2="1437.07" y2="639.877" gradientUnits="userSpaceOnUse">
<stop stop-color="#E66C5A"/>
<stop offset="1" stop-color="#B74736"/>
</linearGradient>
<linearGradient id="paint16_linear_344_615" x1="1437.07" y1="548.596" x2="1437.07" y2="639.877" gradientUnits="userSpaceOnUse">
<stop stop-color="#E66C5A"/>
<stop offset="1" stop-color="#B74736"/>
</linearGradient>
<linearGradient id="paint17_linear_344_615" x1="1437.07" y1="548.596" x2="1437.07" y2="639.877" gradientUnits="userSpaceOnUse">
<stop stop-color="#E66C5A"/>
<stop offset="1" stop-color="#B74736"/>
</linearGradient>
<linearGradient id="paint18_linear_344_615" x1="1437.07" y1="548.596" x2="1437.07" y2="639.877" gradientUnits="userSpaceOnUse">
<stop stop-color="#E66C5A"/>
<stop offset="1" stop-color="#B74736"/>
</linearGradient>
<linearGradient id="paint19_linear_344_615" x1="1437.07" y1="548.596" x2="1437.07" y2="639.877" gradientUnits="userSpaceOnUse">
<stop stop-color="#E66C5A"/>
<stop offset="1" stop-color="#B74736"/>
</linearGradient>
<linearGradient id="paint20_linear_344_615" x1="1437.07" y1="548.596" x2="1437.07" y2="639.877" gradientUnits="userSpaceOnUse">
<stop stop-color="#E66C5A"/>
<stop offset="1" stop-color="#B74736"/>
</linearGradient>
<linearGradient id="paint21_linear_344_615" x1="1437.07" y1="548.596" x2="1437.07" y2="639.877" gradientUnits="userSpaceOnUse">
<stop stop-color="#E66C5A"/>
<stop offset="1" stop-color="#B74736"/>
</linearGradient>
<linearGradient id="paint22_linear_344_615" x1="1437.07" y1="548.596" x2="1437.07" y2="639.877" gradientUnits="userSpaceOnUse">
<stop stop-color="#E66C5A"/>
<stop offset="1" stop-color="#B74736"/>
</linearGradient>
<linearGradient id="paint23_linear_344_615" x1="1437.07" y1="548.596" x2="1437.07" y2="639.877" gradientUnits="userSpaceOnUse">
<stop stop-color="#E66C5A"/>
<stop offset="1" stop-color="#B74736"/>
</linearGradient>
<linearGradient id="paint24_linear_344_615" x1="1437.07" y1="548.596" x2="1437.07" y2="639.877" gradientUnits="userSpaceOnUse">
<stop stop-color="#E66C5A"/>
<stop offset="1" stop-color="#B74736"/>
</linearGradient>
<linearGradient id="paint25_linear_344_615" x1="1437.07" y1="548.596" x2="1437.07" y2="639.877" gradientUnits="userSpaceOnUse">
<stop stop-color="#E66C5A"/>
<stop offset="1" stop-color="#B74736"/>
</linearGradient>
<linearGradient id="paint26_linear_344_615" x1="1437.07" y1="548.596" x2="1437.07" y2="639.877" gradientUnits="userSpaceOnUse">
<stop stop-color="#E66C5A"/>
<stop offset="1" stop-color="#B74736"/>
</linearGradient>
<linearGradient id="paint27_linear_344_615" x1="1437.07" y1="548.596" x2="1437.07" y2="639.877" gradientUnits="userSpaceOnUse">
<stop stop-color="#E66C5A"/>
<stop offset="1" stop-color="#B74736"/>
</linearGradient>
<linearGradient id="paint28_linear_344_615" x1="1437.07" y1="548.596" x2="1437.07" y2="639.877" gradientUnits="userSpaceOnUse">
<stop stop-color="#E66C5A"/>
<stop offset="1" stop-color="#B74736"/>
</linearGradient>
<linearGradient id="paint29_linear_344_615" x1="1437.07" y1="548.596" x2="1437.07" y2="639.877" gradientUnits="userSpaceOnUse">
<stop stop-color="#E66C5A"/>
<stop offset="1" stop-color="#B74736"/>
</linearGradient>
<linearGradient id="paint30_linear_344_615" x1="1437.07" y1="548.596" x2="1437.07" y2="639.877" gradientUnits="userSpaceOnUse">
<stop stop-color="#E66C5A"/>
<stop offset="1" stop-color="#B74736"/>
</linearGradient>
<linearGradient id="paint31_linear_344_615" x1="1437.07" y1="548.596" x2="1437.07" y2="639.877" gradientUnits="userSpaceOnUse">
<stop stop-color="#E66C5A"/>
<stop offset="1" stop-color="#B74736"/>
</linearGradient>
<linearGradient id="paint32_linear_344_615" x1="1437.07" y1="548.596" x2="1437.07" y2="639.877" gradientUnits="userSpaceOnUse">
<stop stop-color="#E66C5A"/>
<stop offset="1" stop-color="#B74736"/>
</linearGradient>
<linearGradient id="paint33_linear_344_615" x1="1437.07" y1="548.596" x2="1437.07" y2="639.877" gradientUnits="userSpaceOnUse">
<stop stop-color="#E66C5A"/>
<stop offset="1" stop-color="#B74736"/>
</linearGradient>
<linearGradient id="paint34_linear_344_615" x1="1437.07" y1="548.596" x2="1437.07" y2="639.877" gradientUnits="userSpaceOnUse">
<stop stop-color="#E66C5A"/>
<stop offset="1" stop-color="#B74736"/>
</linearGradient>
<linearGradient id="paint35_linear_344_615" x1="1437.07" y1="548.596" x2="1437.07" y2="639.877" gradientUnits="userSpaceOnUse">
<stop stop-color="#E66C5A"/>
<stop offset="1" stop-color="#B74736"/>
</linearGradient>
<linearGradient id="paint36_linear_344_615" x1="1437.07" y1="548.596" x2="1437.07" y2="639.877" gradientUnits="userSpaceOnUse">
<stop stop-color="#E66C5A"/>
<stop offset="1" stop-color="#B74736"/>
</linearGradient>
<linearGradient id="paint37_linear_344_615" x1="1437.07" y1="548.596" x2="1437.07" y2="639.877" gradientUnits="userSpaceOnUse">
<stop stop-color="#E66C5A"/>
<stop offset="1" stop-color="#B74736"/>
</linearGradient>
<linearGradient id="paint38_linear_344_615" x1="1437.07" y1="548.596" x2="1437.07" y2="639.877" gradientUnits="userSpaceOnUse">
<stop stop-color="#E66C5A"/>
<stop offset="1" stop-color="#B74736"/>
</linearGradient>
<linearGradient id="paint39_linear_344_615" x1="1437.07" y1="548.596" x2="1437.07" y2="639.877" gradientUnits="userSpaceOnUse">
<stop stop-color="#E66C5A"/>
<stop offset="1" stop-color="#B74736"/>
</linearGradient>
<linearGradient id="paint40_linear_344_615" x1="1437.07" y1="548.596" x2="1437.07" y2="639.877" gradientUnits="userSpaceOnUse">
<stop stop-color="#E66C5A"/>
<stop offset="1" stop-color="#B74736"/>
</linearGradient>
<linearGradient id="paint41_linear_344_615" x1="1437.07" y1="548.596" x2="1437.07" y2="639.877" gradientUnits="userSpaceOnUse">
<stop stop-color="#E66C5A"/>
<stop offset="1" stop-color="#B74736"/>
</linearGradient>
<linearGradient id="paint42_linear_344_615" x1="1437.07" y1="548.596" x2="1437.07" y2="639.877" gradientUnits="userSpaceOnUse">
<stop stop-color="#E66C5A"/>
<stop offset="1" stop-color="#B74736"/>
</linearGradient>
<linearGradient id="paint43_linear_344_615" x1="1437.07" y1="548.596" x2="1437.07" y2="639.877" gradientUnits="userSpaceOnUse">
<stop stop-color="#E66C5A"/>
<stop offset="1" stop-color="#B74736"/>
</linearGradient>
<linearGradient id="paint44_linear_344_615" x1="1437.07" y1="548.596" x2="1437.07" y2="639.877" gradientUnits="userSpaceOnUse">
<stop stop-color="#E66C5A"/>
<stop offset="1" stop-color="#B74736"/>
</linearGradient>
<linearGradient id="paint45_linear_344_615" x1="1437.07" y1="548.596" x2="1437.07" y2="639.877" gradientUnits="userSpaceOnUse">
<stop stop-color="#E66C5A"/>
<stop offset="1" stop-color="#B74736"/>
</linearGradient>
<linearGradient id="paint46_linear_344_615" x1="1437.07" y1="548.596" x2="1437.07" y2="639.877" gradientUnits="userSpaceOnUse">
<stop stop-color="#E66C5A"/>
<stop offset="1" stop-color="#B74736"/>
</linearGradient>
<linearGradient id="paint47_linear_344_615" x1="1437.07" y1="548.596" x2="1437.07" y2="639.877" gradientUnits="userSpaceOnUse">
<stop stop-color="#E66C5A"/>
<stop offset="1" stop-color="#B74736"/>
</linearGradient>
<linearGradient id="paint48_linear_344_615" x1="1437.07" y1="548.596" x2="1437.07" y2="639.877" gradientUnits="userSpaceOnUse">
<stop stop-color="#E66C5A"/>
<stop offset="1" stop-color="#B74736"/>
</linearGradient>
<linearGradient id="paint49_linear_344_615" x1="1437.07" y1="548.596" x2="1437.07" y2="639.877" gradientUnits="userSpaceOnUse">
<stop stop-color="#E66C5A"/>
<stop offset="1" stop-color="#B74736"/>
</linearGradient>
<linearGradient id="paint50_linear_344_615" x1="1437.07" y1="548.596" x2="1437.07" y2="639.877" gradientUnits="userSpaceOnUse">
<stop stop-color="#E66C5A"/>
<stop offset="1" stop-color="#B74736"/>
</linearGradient>
<linearGradient id="paint51_linear_344_615" x1="1437.07" y1="548.596" x2="1437.07" y2="639.877" gradientUnits="userSpaceOnUse">
<stop stop-color="#E66C5A"/>
<stop offset="1" stop-color="#B74736"/>
</linearGradient>
<linearGradient id="paint52_linear_344_615" x1="1437.07" y1="548.596" x2="1437.07" y2="639.877" gradientUnits="userSpaceOnUse">
<stop stop-color="#E66C5A"/>
<stop offset="1" stop-color="#B74736"/>
</linearGradient>
<linearGradient id="paint53_linear_344_615" x1="1437.07" y1="548.596" x2="1437.07" y2="639.877" gradientUnits="userSpaceOnUse">
<stop stop-color="#E66C5A"/>
<stop offset="1" stop-color="#B74736"/>
</linearGradient>
<linearGradient id="paint54_linear_344_615" x1="1437.07" y1="548.596" x2="1437.07" y2="639.877" gradientUnits="userSpaceOnUse">
<stop stop-color="#E66C5A"/>
<stop offset="1" stop-color="#B74736"/>
</linearGradient>
<linearGradient id="paint55_linear_344_615" x1="1437.07" y1="548.596" x2="1437.07" y2="639.877" gradientUnits="userSpaceOnUse">
<stop stop-color="#E66C5A"/>
<stop offset="1" stop-color="#B74736"/>
</linearGradient>
<linearGradient id="paint56_linear_344_615" x1="1437.07" y1="548.596" x2="1437.07" y2="639.877" gradientUnits="userSpaceOnUse">
<stop stop-color="#E66C5A"/>
<stop offset="1" stop-color="#B74736"/>
</linearGradient>
<linearGradient id="paint57_linear_344_615" x1="1437.07" y1="548.596" x2="1437.07" y2="639.877" gradientUnits="userSpaceOnUse">
<stop stop-color="#E66C5A"/>
<stop offset="1" stop-color="#B74736"/>
</linearGradient>
<linearGradient id="paint58_linear_344_615" x1="1437.07" y1="548.596" x2="1437.07" y2="639.877" gradientUnits="userSpaceOnUse">
<stop stop-color="#E66C5A"/>
<stop offset="1" stop-color="#B74736"/>
</linearGradient>
<linearGradient id="paint59_linear_344_615" x1="1437.07" y1="548.596" x2="1437.07" y2="639.877" gradientUnits="userSpaceOnUse">
<stop stop-color="#E66C5A"/>
<stop offset="1" stop-color="#B74736"/>
</linearGradient>
<linearGradient id="paint60_linear_344_615" x1="1437.07" y1="548.596" x2="1437.07" y2="639.877" gradientUnits="userSpaceOnUse">
<stop stop-color="#E66C5A"/>
<stop offset="1" stop-color="#B74736"/>
</linearGradient>
<linearGradient id="paint61_linear_344_615" x1="1437.07" y1="548.596" x2="1437.07" y2="639.877" gradientUnits="userSpaceOnUse">
<stop stop-color="#E66C5A"/>
<stop offset="1" stop-color="#B74736"/>
</linearGradient>
<linearGradient id="paint62_linear_344_615" x1="1437.07" y1="548.596" x2="1437.07" y2="639.877" gradientUnits="userSpaceOnUse">
<stop stop-color="#E66C5A"/>
<stop offset="1" stop-color="#B74736"/>
</linearGradient>
<linearGradient id="paint63_linear_344_615" x1="1437.07" y1="548.596" x2="1437.07" y2="639.877" gradientUnits="userSpaceOnUse">
<stop stop-color="#E66C5A"/>
<stop offset="1" stop-color="#B74736"/>
</linearGradient>
<linearGradient id="paint64_linear_344_615" x1="1437.07" y1="548.596" x2="1437.07" y2="639.877" gradientUnits="userSpaceOnUse">
<stop stop-color="#E66C5A"/>
<stop offset="1" stop-color="#B74736"/>
</linearGradient>
<linearGradient id="paint65_linear_344_615" x1="1437.07" y1="548.596" x2="1437.07" y2="639.877" gradientUnits="userSpaceOnUse">
<stop stop-color="#E66C5A"/>
<stop offset="1" stop-color="#B74736"/>
</linearGradient>
<linearGradient id="paint66_linear_344_615" x1="1437.07" y1="548.596" x2="1437.07" y2="639.877" gradientUnits="userSpaceOnUse">
<stop stop-color="#E66C5A"/>
<stop offset="1" stop-color="#B74736"/>
</linearGradient>
<linearGradient id="paint67_linear_344_615" x1="1437.07" y1="548.596" x2="1437.07" y2="639.877" gradientUnits="userSpaceOnUse">
<stop stop-color="#E66C5A"/>
<stop offset="1" stop-color="#B74736"/>
</linearGradient>
<linearGradient id="paint68_linear_344_615" x1="1437.07" y1="548.596" x2="1437.07" y2="639.877" gradientUnits="userSpaceOnUse">
<stop stop-color="#E66C5A"/>
<stop offset="1" stop-color="#B74736"/>
</linearGradient>
<linearGradient id="paint69_linear_344_615" x1="1437.07" y1="548.596" x2="1437.07" y2="639.877" gradientUnits="userSpaceOnUse">
<stop stop-color="#E66C5A"/>
<stop offset="1" stop-color="#B74736"/>
</linearGradient>
<linearGradient id="paint70_linear_344_615" x1="1437.07" y1="548.596" x2="1437.07" y2="639.877" gradientUnits="userSpaceOnUse">
<stop stop-color="#E66C5A"/>
<stop offset="1" stop-color="#B74736"/>
</linearGradient>
<linearGradient id="paint71_linear_344_615" x1="1437.07" y1="548.596" x2="1437.07" y2="639.877" gradientUnits="userSpaceOnUse">
<stop stop-color="#E66C5A"/>
<stop offset="1" stop-color="#B74736"/>
</linearGradient>
<linearGradient id="paint72_linear_344_615" x1="1437.07" y1="548.596" x2="1437.07" y2="639.877" gradientUnits="userSpaceOnUse">
<stop stop-color="#E66C5A"/>
<stop offset="1" stop-color="#B74736"/>
</linearGradient>
<linearGradient id="paint73_linear_344_615" x1="1437.07" y1="548.596" x2="1437.07" y2="639.877" gradientUnits="userSpaceOnUse">
<stop stop-color="#E66C5A"/>
<stop offset="1" stop-color="#B74736"/>
</linearGradient>
<linearGradient id="paint74_linear_344_615" x1="1437.07" y1="548.596" x2="1437.07" y2="639.877" gradientUnits="userSpaceOnUse">
<stop stop-color="#E66C5A"/>
<stop offset="1" stop-color="#B74736"/>
</linearGradient>
<linearGradient id="paint75_linear_344_615" x1="1437.07" y1="548.596" x2="1437.07" y2="639.877" gradientUnits="userSpaceOnUse">
<stop stop-color="#E66C5A"/>
<stop offset="1" stop-color="#B74736"/>
</linearGradient>
<linearGradient id="paint76_linear_344_615" x1="1437.07" y1="548.596" x2="1437.07" y2="639.877" gradientUnits="userSpaceOnUse">
<stop stop-color="#E66C5A"/>
<stop offset="1" stop-color="#B74736"/>
</linearGradient>
<linearGradient id="paint77_linear_344_615" x1="1437.07" y1="548.596" x2="1437.07" y2="639.877" gradientUnits="userSpaceOnUse">
<stop stop-color="#E66C5A"/>
<stop offset="1" stop-color="#B74736"/>
</linearGradient>
<clipPath id="clip0_344_615">
<rect width="1920" height="1080" fill="white"/>
</clipPath>
</defs>
</svg>
