<svg width="454" height="298" viewBox="0 0 454 298" fill="none" xmlns="http://www.w3.org/2000/svg">
<path fill-rule="evenodd" clip-rule="evenodd" d="M2.81158 48.221C2.04564 51.8591 1.89246 60.2844 7.40716 64.88C8.21583 65.5539 8.98102 66.2317 9.74909 66.9121C15.5284 72.0317 21.4715 77.2964 47.3315 82.1134C54.2249 82.9751 75.8816 85.1006 107.361 86.709C131.889 87.9623 147.824 90.6663 162.47 93.1516C171.32 94.6534 179.7 96.0754 189.22 97.0491C214.496 99.6341 251.261 96.4746 267.058 89.294C279.208 83.7711 279.125 83.0059 278.962 81.5093C278.912 81.0601 278.856 80.545 279.121 79.8156C279.227 79.5244 279.353 79.1722 279.495 78.7735C280.893 74.8453 283.902 66.3955 285.728 67.1778C285.915 67.2581 286.085 67.321 286.24 67.3783C287.746 67.9351 287.819 67.962 288.6 78.3795C288.696 78.8582 289.519 78.8965 292.047 75.22C295.206 70.6245 306.695 62.8694 323.067 52.8165C325.799 51.1389 328.411 49.5812 330.934 48.0767C343.529 40.5664 353.899 34.3829 365.863 21.2219C377.352 8.58401 379.458 2.5523 379.076 1.11618C378.884 0.158763 378.788 -1.06673 379.937 1.69063C379.363 5.04164 374.595 15.535 360.119 30.7005C358.012 32.9025 346.275 42.0745 316.173 61.1462C310.62 64.7843 298.538 73.3242 294.632 78.3795C293.578 79.5283 292.621 81.4239 297.217 79.8156C298.078 79.5283 300.319 79.1261 302.387 79.8156C304.972 80.6775 304.684 83.837 302.387 85.8475C301.506 86.6185 299.822 87.3894 298.033 88.2089C295.155 89.5267 292.003 90.97 291.472 92.7409C290.61 95.6131 289.749 117.442 309.28 136.399C313.397 140.395 317.373 144.288 321.319 148.152C336.096 162.621 350.45 176.676 370.172 194.131C395.16 216.247 418.138 234.63 442.552 232.332C446.286 231.374 453.754 229.747 453.754 230.896C453.754 232.332 451.743 235.779 424.457 245.257C397.171 254.735 344.896 250.427 317.61 245.257C290.323 240.087 252.122 234.917 205.879 238.364C200.039 238.842 186.061 240.891 176.87 245.257C167.678 249.623 156.154 263.863 151.942 270.565C148.591 276.501 138.959 289.407 126.091 294.692C110.185 301.225 108.264 294.805 107.39 291.884L107.361 291.787C106.5 288.915 107.649 284.032 115.116 280.011C115.674 279.711 116.229 279.414 116.783 279.117C123.637 275.445 130.293 271.878 140.392 263.639C151.307 254.735 155.902 248.991 160.785 236.927C158.87 238.938 152.513 242.5 142.403 240.661C129.765 238.364 116.553 234.342 100.755 223.141C86.5908 213.097 85.5602 198.615 85.1534 192.899C85.1065 192.24 85.0679 191.697 85.0184 191.291C70.3699 208.525 63.9936 228.196 61.466 236.927C60.473 240.358 59.9563 243.022 59.5364 245.188C58.6201 249.913 58.164 252.265 54.2249 255.023C49.6293 258.24 43.6934 256.363 41.2998 255.023C39.1935 253.778 35.4979 249.738 37.5659 243.534C40.1509 235.779 43.3104 228.311 63.4161 202.748C80.3268 181.247 79.9662 180.472 78.9119 178.205C78.7127 177.777 78.4887 177.295 78.3518 176.61C78.0623 175.163 75.893 173.359 71.92 170.056C64.0659 163.525 49.163 151.133 27.8003 124.048C-1.38553 87.0449 -0.309057 64.4631 0.141285 55.0161C0.187318 54.0505 0.226808 53.2221 0.226768 52.5295C0.322654 51.0934 0.80165 47.8765 1.95055 46.4978C3.09944 45.1191 3.00327 47.0721 2.81158 48.221ZM95.9309 193.304C95.7011 201.117 109.813 209.963 116.898 213.41C118.736 214.099 119.005 213.123 118.909 212.549C118.622 208.24 112.015 200.772 105.122 196.464C99.6074 193.017 96.6968 192.921 95.9309 193.304ZM122.357 206.805C120.826 204.794 116.9 199.969 113.453 196.752C113.166 195.986 113.683 194.799 118.049 196.178C122.415 197.556 124.272 201.539 124.655 203.358C124.847 205.329 124.598 209.236 123.219 207.954L122.357 206.805ZM127.011 199.336C125.862 199.336 126.532 202.783 127.011 204.506C127.032 204.581 127.049 204.657 127.065 204.731C127.141 205.068 127.209 205.368 127.586 205.368C128.16 205.368 128.734 203.645 129.309 201.922L129.309 201.921C129.883 200.198 128.447 199.336 127.011 199.336ZM134.572 203.783C135.106 204.8 131.743 205.81 129.995 206.188C129.919 206.204 129.844 206.225 129.771 206.244C129.437 206.334 129.14 206.414 128.965 206.08C128.698 205.572 129.956 204.262 131.214 202.952L131.214 202.951C132.473 201.641 133.904 202.512 134.572 203.783ZM129.029 211.266C133.733 210.94 139.939 211.361 142.454 211.612L143.882 211.765C145.76 211.632 143.072 208.784 141.501 207.58C139.909 206.62 135.73 205.262 131.744 207.514C127.758 209.766 128.273 210.954 129.029 211.266ZM125.23 215.42C128.772 214.271 137.753 212.662 145.336 215.42C154.5 218.752 156.952 223.695 158.142 226.096C158.183 226.179 158.223 226.258 158.261 226.334C159.18 228.172 150.027 226.334 145.336 225.185C141.602 224.515 132.353 221.853 125.23 216.569C124.943 216.377 124.541 215.879 125.23 215.42Z" fill="#FBFBFB"/>
<path d="M7.40716 64.88C1.89246 60.2844 2.04564 51.8591 2.81158 48.221C3.00327 47.0721 3.09944 45.1191 1.95055 46.4978C0.80165 47.8765 0.322654 51.0934 0.226768 52.5295C0.227201 59.9973 -4.36882 83.2625 27.8003 124.048C59.9694 164.834 77.4901 172.302 78.3518 176.61C79.2134 180.919 83.5218 177.185 63.4161 202.748C61.0227 205.716 55.8338 212.226 54.2254 214.524C52.6169 216.822 51.1616 218.641 51.6403 218.545C59.6826 208.492 68.2993 201.312 70.5971 199.301C73.6921 196.593 83.235 184.94 112.245 190.11C120.861 191.646 141.263 201.233 150.445 210.216C163.658 223.141 161.934 225.151 160.785 236.927C157.626 250.714 149.727 264.214 147.573 268.522C145.275 273.118 142.978 278.001 135.51 285.756C134.437 286.87 126.032 293.312 124.596 294.085C121.955 295.507 112.819 299.255 126.319 295.234C130.671 293.937 139.531 288.341 152.743 270.82C156.955 264.118 167.678 249.623 176.87 245.257C186.061 240.891 200.039 238.842 205.879 238.364C252.122 234.917 290.323 240.087 317.61 245.257C344.896 250.427 397.171 254.735 424.457 245.257C451.743 235.779 453.754 232.332 453.754 230.896C453.754 229.747 446.286 231.374 442.552 232.332C418.138 234.63 395.16 216.247 370.172 194.131C345.183 172.015 328.811 155.356 309.28 136.399C289.749 117.442 290.61 95.6131 291.472 92.7409C292.334 89.8687 300.089 87.8581 302.387 85.8475C304.684 83.8369 304.972 80.6775 302.387 79.8156C300.319 79.1261 298.078 79.5283 297.217 79.8156C292.621 81.4239 293.578 79.5283 294.632 78.3795C298.538 73.3242 310.62 64.7843 316.173 61.1462C346.275 42.0745 358.012 32.9025 360.119 30.7005C374.595 15.535 379.363 5.04164 379.937 1.69063C378.788 -1.06673 378.884 0.158763 379.076 1.11618C379.458 2.5523 377.352 8.58401 365.863 21.2219C351.502 37.0192 339.439 42.7637 323.067 52.8165C306.695 62.8694 295.206 70.6245 292.047 75.22C289.519 78.8965 288.696 78.8582 288.6 78.3795C287.738 66.8905 287.738 68.0394 285.728 67.1778C283.717 66.3161 280.27 76.6562 279.121 79.8156C277.973 82.9751 282.855 82.1134 267.058 89.294C251.261 96.4746 214.496 99.6341 189.22 97.0491C163.945 94.4641 146.711 88.7196 107.361 86.709C75.8816 85.1005 54.2249 82.9751 47.3315 82.1134C18.0347 76.6562 14.3005 70.6245 7.40716 64.88Z" fill="url(#paint0_linear_132_2515)"/>
<path d="M184.16 223.461C180.064 223.461 177.799 226.461 177.179 227.962C176.791 229.021 176.573 231.297 178.808 231.933C181.042 232.568 183.928 230.962 185.091 230.079C186.984 228.918 188.257 223.461 184.16 223.461Z" fill="#143744"/>
<defs>
<linearGradient id="paint0_linear_132_2515" x1="95.9804" y1="15.9967" x2="394.434" y2="240.865" gradientUnits="userSpaceOnUse">
<stop stop-color="#507381"/>
<stop offset="1" stop-color="#153643"/>
</linearGradient>
</defs>
</svg>
