<svg width="1920" height="1080" viewBox="0 0 1920 1080" fill="none" xmlns="http://www.w3.org/2000/svg">
<g clip-path="url(#clip0_353_146)">
<path d="M182.784 394.227C16.0854 311.858 42.0295 359.707 -3 342V935H563V752.653C563 725.197 540.038 651.184 525.128 636.262C510.217 621.34 473.239 581.647 473.239 578.364C473.239 575.738 469.86 572.893 468.17 571.799C466.48 570.704 461.694 565.946 459.223 563.144C454.75 558.07 444.313 555.086 419.263 552.102C399.224 549.714 404.353 524.944 393.319 523.75C390.337 518.676 367.508 487.979 355.745 478.387C339.642 465.256 332.127 451.348 327.117 449.438C322.107 447.528 311.411 433.223 308.032 427.951L295.507 417.505H288.648H274.036L256.74 413.029C247.793 407.756 227.456 398.047 217.674 401.39C207.893 404.732 188.649 393.829 182.784 394.227Z" fill="url(#paint0_linear_353_146)"/>
</g>
<defs>
<linearGradient id="paint0_linear_353_146" x1="280" y1="342" x2="45" y2="770" gradientUnits="userSpaceOnUse">
<stop stop-color="#584358"/>
<stop offset="1" stop-color="#2F212F"/>
</linearGradient>
<clipPath id="clip0_353_146">
<rect width="1920" height="1080" fill="white"/>
</clipPath>
</defs>
</svg>
