<svg width="117" height="235" viewBox="0 0 117 235" fill="none" xmlns="http://www.w3.org/2000/svg">
<path d="M23.4 224.48C23.4 227.76 21.12 230.2 17.28 230.2C13.44 230.2 11.12 227.76 11.12 224.48C11.12 221.2 13.44 218.76 17.28 218.76C21.12 218.76 23.4 221.2 23.4 224.48ZM2.12 210.96C2.64 209.52 3.4 208.24 4.28 207.6L15.76 207.6C15.88 209.36 15.96 212 15.96 213.16C15.96 213.84 15.92 214.64 15.88 215.4C11.52 216.04 8.52 219.68 8.52 224.48C8.52 229.84 12.16 233.76 17.28 233.76C22.4 233.76 26 229.84 26 224.48C26 219.36 22.64 215.56 17.8 215.28C18.08 214.8 18.36 214.28 18.6 213.68C18.32 212.96 18 211.8 17.92 211.08C17.84 210.4 17.76 208.8 17.8 207.6L31.56 207.6C33.36 207.6 37.72 207.44 39.32 207.28L39.32 205.36C36.92 204.64 32.84 204.24 30.44 204.24L5 204.24L2.8 204.12C2.36 204.08 2.08 204.24 1.92 204.6C1.44 205.84 0.879997 208.52 0.839998 210.12C0.839998 210.44 0.879997 210.52 1.04 210.6L2.12 210.96ZM2.16 171.407C2.64 170.047 3.4 168.807 4.23999 168.127L16.16 168.127C16.28 169.487 16.32 171.167 16.32 172.087C16.32 172.967 16.24 173.967 16.12 174.767L16.6 175.047C16.76 175.127 16.88 175.087 17.04 174.967C17.64 174.327 18.28 173.487 18.8 172.607C18.52 171.887 18.28 170.807 18.2 170.047C18.16 169.687 18.08 168.887 18.08 168.127L31.56 168.127C33.36 168.127 37.72 168.007 39.32 167.847L39.32 165.927C36.92 165.247 32.84 164.807 30.44 164.807L4.95999 164.807L2.79999 164.687C2.36 164.687 2.08 164.807 1.92 165.207C1.44 166.367 0.879995 169.007 0.839996 170.527C0.839996 170.887 0.879995 171.007 1.04 171.047L2.16 171.407ZM21.68 175.247L18.64 177.567C15.76 175.967 12.88 174.887 10.2 174.407L8.84 173.807C8.64 173.727 8.44 173.727 8.28 173.887C8.04 174.207 7.52 175.087 7.28 175.527C7.2 175.727 7.2 176.047 7.28 176.247L8.04 177.647C8.12 178.847 8.16 181.927 8.16 182.727L8.16 183.127C7.92 183.447 7.44 184.247 7.24 184.687C7.12 184.847 7.12 185.167 7.24 185.367L7.96 186.687C8.08 187.927 8.12 191.527 8.12 192.447C8.12 193.127 8.04 194.047 7.92 194.727L8.4 195.007C8.52 195.087 8.64 195.047 8.76 194.927C9.36 194.367 9.96 193.567 10.4 192.767C10.16 192.287 10 191.207 9.96 190.687C9.92 190.167 9.88 188.207 9.92 187.127C15.16 188.527 21.64 191.967 26.4 196.647C26.6 196.767 26.72 196.727 26.84 196.567L27.24 196.007C27.28 195.927 27.24 195.727 27.08 195.567C24.96 192.727 22.24 190.127 19.36 188.047L23.56 185.287C23.88 185.087 24.24 184.807 24.32 184.567L24.36 184.407C26.52 185.847 28.56 187.407 30.44 189.167C30.64 189.247 30.76 189.207 30.84 189.047L31.24 188.527C31.32 188.447 31.28 188.247 31.12 188.087C28.28 184.447 24.64 181.247 20.8 178.807L26.52 174.887C26.88 174.687 27.24 174.327 27.4 174.087C27.6 173.607 27.4 172.767 26.88 172.407C26.64 172.247 26.24 172.207 25.72 172.367C24.92 172.567 23.56 173.127 22.64 173.567L21.68 175.247ZM19.4 185.287L17.52 186.807C15.04 185.247 12.48 184.087 10.16 183.527L10.12 183.527C10.24 183.367 10.32 183.207 10.4 183.047C10.24 182.607 10.04 181.567 10.04 181.087C9.96 180.647 9.96 179.007 10 178.047C13.8 178.927 18.16 180.687 22.32 183.167C21.64 183.327 20.8 183.647 20.2 183.927L19.4 185.287ZM35.72 130.134C35.84 132.454 35.88 139.174 35.84 141.694C35.84 142.414 35.52 142.694 34.8 142.694L30 142.694L28.12 142.614C27.64 142.614 27.4 142.814 27.28 143.254C27.04 144.334 26.88 146.814 26.88 148.254C26.88 148.494 27 148.694 27.16 148.734L28.12 148.934C28.4 147.854 28.88 146.774 29.4 146.134L34.6 146.134C36.88 146.134 37.84 145.134 37.88 142.414L37.76 125.334C37.76 125.094 37.72 124.894 37.56 124.774C37.32 124.534 36.76 124.254 35.92 124.254C35.56 124.254 35.36 124.494 35.28 124.854C35.08 125.654 34.96 127.494 34.96 128.734L35.72 130.134ZM22.04 138.494C21.8 138.254 21.24 138.014 20.52 138.014C20.32 138.014 20.16 138.134 20.04 138.334L19.76 138.934C17.04 138.574 13.84 138.294 10.88 138.134C11.24 137.614 11.56 137.054 11.84 136.454C11.6 135.734 11.4 134.734 11.32 134.014C11.24 133.294 11.2 131.654 11.24 130.374L16.64 130.374C16.72 132.094 16.76 134.254 16.76 135.334C16.76 136.294 16.68 137.374 16.56 138.294L17 138.574C17.16 138.614 17.28 138.574 17.44 138.454C18.08 137.734 18.64 136.814 19.16 135.814C18.88 135.094 18.68 134.094 18.64 133.414C18.6 132.774 18.56 131.534 18.56 130.374L22.2 130.374C24.08 130.374 27.92 130.294 29.48 130.054L29.48 128.134C27.4 127.414 23.96 127.014 21.08 127.014L4.95999 127.014L2.79999 126.894C2.35999 126.894 2.07999 127.014 1.91999 127.414C1.43999 128.614 0.879994 131.254 0.839994 132.814C0.839994 133.174 0.879994 133.254 1.03999 133.334L2.15999 133.654C2.63999 132.294 3.39999 131.014 4.23999 130.374L9.31999 130.374C9.43999 132.134 9.48 134.734 9.48 135.934C9.48 136.614 9.43999 137.374 9.35999 138.054L8.72 138.014L7.24 137.494C6.99999 137.414 6.83999 137.454 6.71999 137.574C6.43999 138.014 5.87999 139.054 5.63999 139.574C5.55999 139.774 5.55999 140.094 5.63999 140.254L6.43999 141.774C6.59999 144.134 6.63999 148.974 6.63999 151.374C6.39999 152.654 6.2 155.134 6.2 156.454C6.2 156.734 6.27999 156.854 6.4 156.894L7.39999 157.134C7.68 156.294 8.16 155.454 8.63999 155.014L21.6 154.134C22.4 154.054 23.36 153.934 24 153.734L24 151.854C23.48 151.494 22.92 151.294 22.2 151.214L22.04 138.494ZM8.67999 151.414C8.6 148.414 8.51999 144.654 8.51999 141.574L19.8 141.694L20 142.414C20.08 144.494 20.16 148.654 20.12 151.174L8.67999 151.414ZM79.12 209.24C79.6 207.96 80.32 206.76 81.12 206.16L93.64 206.16L93.72 211L84.32 211L82.48 210.88C82.08 210.88 81.84 211.04 81.68 211.36C81.2 212.4 80.68 214.72 80.64 216.08C80.64 216.4 80.72 216.52 80.88 216.6L81.92 216.96C82.36 215.8 83.04 214.68 83.76 214.16L100.24 214.16C101.28 218.2 102 224.16 102.08 227.76C102.08 228.32 101.84 228.52 101.36 228.52L88.36 228.52L87.96 219.76C87.96 219.52 87.88 219.32 87.8 219.16C87.52 218.92 86.92 218.72 86.16 218.72C85.84 218.72 85.64 218.88 85.56 219.24C85.44 219.96 85.32 221.44 85.36 222.32L86 223.32C86.08 224.08 86.24 226.8 86.32 228.44C86.16 229.6 86 232.44 86 233.68C86 233.92 86.12 234.04 86.24 234.08L87.24 234.32C87.48 233.36 87.92 232.44 88.48 231.84L100.84 231.84C101.64 231.84 102.32 231.8 102.72 231.68C104.08 231.2 104.88 230.24 104.88 228.8C104.88 228.4 104.88 227.88 104.84 227.4C104.56 223.68 103.56 218.28 102.12 214.16L106.44 214.16C108.12 214.16 111.96 214.04 113.56 213.84L113.56 212.04C111.36 211.4 107.64 211 105.36 211L95.88 211L95.8 206.16L108.88 206.16C110.64 206.16 114.8 206.04 116.32 205.84L116.32 204C114.04 203.32 110.12 202.88 107.8 202.88L81.76 202.88L79.76 202.76C79.32 202.72 79.04 202.88 78.88 203.28C78.4 204.36 77.88 206.92 77.84 208.36C77.84 208.68 77.88 208.8 78.08 208.88L79.12 209.24ZM92.12 165.407L92.24 168.007L81.96 168.007L79.8 167.927C79.36 167.887 79.08 168.047 78.92 168.407C78.44 169.607 77.88 172.247 77.84 173.847C77.84 174.167 77.88 174.287 78.04 174.327L79.16 174.687C79.64 173.287 80.4 172.047 81.24 171.367L95.4 171.367C96.76 176.647 97.72 184.607 97.8 189.447C97.8 189.967 97.56 190.167 97.08 190.167L86.08 190.167L85.68 177.927C85.68 177.687 85.6 177.487 85.44 177.367C85.24 177.127 84.64 176.927 83.88 176.927C83.56 176.927 83.36 177.127 83.28 177.487C83.12 178.287 83.04 179.927 83.04 180.967L83.72 182.087C83.84 183.367 84 188.367 84.04 190.087C83.8 191.327 83.64 194.207 83.64 195.487C83.64 195.727 83.72 195.847 83.88 195.927L84.88 196.127C85.12 195.127 85.64 194.167 86.16 193.607L96.52 193.607C97.32 193.607 98.04 193.527 98.4 193.407C99.72 192.967 100.52 191.967 100.52 190.527C100.52 190.127 100.52 189.647 100.48 189.167C100.16 184.167 98.92 176.927 97.16 171.367L98.96 171.367C100.84 171.367 104.68 171.287 106.28 171.087L106.28 169.127C104.16 168.447 100.72 168.007 97.84 168.007L94.32 168.007L94.16 161.287C94.16 160.967 94.08 160.607 93.92 160.367C93.68 160.127 93.04 159.887 92.28 159.887C91.96 159.927 91.64 160.167 91.56 160.567C91.4 161.287 91.32 162.927 91.36 164.127L92.12 165.407ZM112.76 170.847C112.84 173.127 112.92 179.727 112.88 182.167C112.88 182.847 112.56 183.127 111.84 183.127L106.84 183.127L104.96 183.087C104.48 183.087 104.24 183.287 104.16 183.727C103.92 184.807 103.72 187.287 103.72 188.687C103.72 188.967 103.84 189.127 104 189.167L105 189.407C105.24 188.327 105.72 187.207 106.24 186.567L111.64 186.567C113.88 186.567 114.88 185.607 114.88 182.887L114.8 166.047C114.8 165.847 114.72 165.647 114.6 165.487C114.36 165.287 113.8 164.967 112.92 164.967C112.6 164.967 112.36 165.207 112.32 165.567C112.12 166.407 112 168.247 112 169.487L112.76 170.847ZM80.68 152.854C80.8 152.934 80.92 152.934 81.12 152.854C82.04 152.174 83.04 151.174 83.52 150.334C83.68 150.094 83.72 149.894 83.68 149.534C83.52 147.774 83.48 144.734 83.44 142.774C83.44 142.494 83.4 142.294 83.2 142.134C82.88 141.854 81.92 141.814 81.44 142.014C81.2 142.134 81.08 142.294 81.08 142.654C81.08 145.374 80.96 149.014 80.32 152.574L80.68 152.854ZM86.24 140.494C86.36 142.294 86.56 153.094 86.52 154.814C86.52 155.734 86.4 157.374 86.2 158.534L86.72 158.814C86.8 158.854 86.96 158.854 87.08 158.694C87.84 157.894 88.64 156.574 89.12 155.454C88.88 154.734 88.6 153.254 88.56 152.454C88.44 150.974 88.24 141.214 88.24 139.614C88.24 138.694 88.28 136.734 88.4 135.974C88.2 135.614 87.52 135.094 86.76 135.094C86.48 135.094 86.24 135.294 86.16 135.534C85.92 136.294 85.68 138.014 85.6 139.214L86.24 140.494ZM96.52 151.534C93.76 151.534 92.12 149.294 92.12 146.494C92.12 143.694 93.76 141.414 96.52 141.414C99.28 141.414 100.84 143.694 100.84 146.494C100.84 149.294 99.28 151.534 96.52 151.534ZM96.52 138.214C92.56 138.214 89.96 141.934 89.96 146.494C89.96 151.094 92.56 154.854 96.52 154.854C100.48 154.854 103.12 151.094 103.12 146.494C103.12 141.934 100.52 138.214 96.52 138.214ZM113.04 132.094C113.12 134.414 113.2 141.014 113.16 143.454C113.16 144.174 112.84 144.454 112.12 144.454L108.68 144.454L106.8 144.374C106.32 144.374 106.08 144.574 106 145.014C105.76 146.094 105.56 148.574 105.56 150.014C105.56 150.254 105.68 150.454 105.84 150.494L106.84 150.694C107.08 149.614 107.56 148.534 108.08 147.894L111.92 147.894C114.2 147.894 115.16 146.894 115.16 144.174L115.08 127.334C115.08 127.094 115 126.894 114.88 126.734C114.64 126.534 114.08 126.254 113.2 126.254C112.88 126.254 112.64 126.494 112.6 126.814C112.4 127.654 112.24 129.494 112.28 130.734L113.04 132.094ZM93.16 126.774L93.28 129.374L81.96 129.374L79.8 129.294C79.36 129.254 79.08 129.414 78.92 129.774C78.44 130.974 77.88 133.614 77.84 135.214C77.84 135.534 77.88 135.654 78.04 135.694L79.16 136.054C79.64 134.654 80.4 133.414 81.24 132.734L99.68 132.734C101.56 132.734 105.44 132.654 107 132.454L107 130.534C104.92 129.814 101.48 129.374 98.6 129.374L95.36 129.374L95.2 122.654C95.2 122.334 95.12 121.974 94.96 121.734C94.72 121.494 94.08 121.254 93.32 121.254C93 121.294 92.68 121.534 92.6 121.934C92.44 122.654 92.36 124.294 92.4 125.494L93.16 126.774ZM113 78.9872C112.04 78.7872 110.6 78.5872 109.44 78.5872L102.84 78.5872L101.2 78.4672C100.84 78.4672 100.64 78.5472 100.52 78.9072C100.08 79.9072 99.68 82.3072 99.6 83.6672C99.6 83.9872 99.64 84.1072 99.8 84.1472L100.88 84.5072C101.24 83.4672 101.8 82.5072 102.32 81.9472L106.08 81.9472L106.2 93.9872L104.36 93.9872L102.68 93.9072C102.32 93.9072 102.08 94.0272 102 94.3472C101.68 95.3872 101.44 97.7472 101.48 99.0272C101.48 99.3472 101.56 99.5072 101.68 99.5472L102.68 99.8272C102.96 98.9072 103.48 97.9072 104 97.4272L114.04 97.1872C114.72 97.1872 115.72 97.0672 116.36 96.7872L116.36 94.9872C116.12 94.7072 115.72 94.4272 115.12 94.2672C115.12 90.6272 115.04 81.6672 115.04 78.2672C114.8 78.0672 114.28 77.8672 113.72 77.8672C113.52 77.8672 113.36 77.9872 113.28 78.2272L113 78.9872ZM108.12 81.9472L112.96 81.9472L113.04 94.0672L108.24 94.0272L108.12 81.9472ZM98.08 87.9472C98.36 87.6672 98.6 87.2672 98.64 86.9872C98.76 86.4672 98.4 85.7072 97.88 85.5872C97.64 85.5072 97.28 85.5472 96.8 85.8272C96.16 86.1472 95 86.9472 94.28 87.6272L93.8 89.3472L90.68 93.4272C88.68 91.5472 86.56 90.0272 84.48 88.9472L83.24 88.1072C83.04 87.9872 82.8 87.9872 82.72 88.1872C82.44 88.5872 81.96 89.6672 81.76 90.2672C81.68 90.4672 81.68 90.7472 81.76 90.9872L82.4 92.3872C82.52 94.3472 82.6 101.547 82.6 102.987C82.6 104.027 82.52 105.467 82.32 106.547L82.84 106.787C82.96 106.867 83.08 106.827 83.24 106.667C83.96 105.867 84.72 104.667 85.2 103.547C84.92 102.827 84.64 101.387 84.6 100.627C84.52 99.6272 84.44 95.3072 84.4 93.0672C89.68 95.8672 95.44 101.227 99.76 108.027C99.88 108.147 100 108.147 100.12 108.027L100.64 107.547C100.72 107.427 100.68 107.307 100.56 107.107C98.44 102.547 95.48 98.3072 92.24 94.9072L98.08 87.9472ZM92.76 81.7072C94.28 81.7072 97.44 81.5872 98.72 81.3872L98.72 79.4272C97.12 78.7872 94.12 78.3472 91.76 78.3472L81.96 78.3472L79.8 78.2272C79.36 78.2272 79.08 78.3872 78.92 78.7472C78.44 79.9472 77.88 82.5872 77.84 84.1472C77.84 84.5072 77.88 84.5872 78.04 84.6672L79.16 85.0272C79.64 83.6272 80.4 82.3472 81.24 81.7072L92.76 81.7072ZM95.76 41.1144C95.84 42.2744 95.92 46.4344 96 51.0744L91.96 51.0744L91.8 41.9144C91.8 41.7144 91.72 41.5144 91.6 41.3544C91.4 41.1944 90.88 40.9544 90.2 40.9544C89.84 40.9544 89.68 41.1544 89.6 41.4744C89.44 42.3144 89.32 44.1144 89.36 45.3144L89.96 46.4744C90.12 48.8344 90.2 56.1144 90.2 58.7944C90.2 59.4744 89.92 59.7544 89.2 59.7544L82.92 59.7544L82.68 42.3544C82.68 42.0744 82.64 41.8744 82.48 41.6744C82.24 41.4744 81.68 41.2744 80.96 41.2744C80.68 41.2744 80.4 41.4744 80.32 41.8344C80.16 42.7544 80.08 44.5144 80.08 45.6344L80.68 46.8744C80.8 49.0344 80.92 56.7544 80.88 59.6744C80.68 60.8344 80.52 63.7544 80.52 65.0344C80.52 65.2744 80.64 65.3944 80.76 65.4744L81.76 65.7144C82.04 64.7144 82.52 63.7544 83.04 63.1944L88.88 63.1944C91.04 63.1944 92.12 62.1144 92.08 59.3544L92 54.3544L96.04 54.3544C96.12 59.8344 96.16 65.1144 96.16 66.3144C96.16 67.6344 96 69.5144 95.76 70.9144L96.36 71.2344C96.48 71.2744 96.64 71.2344 96.76 71.1144C97.64 70.0744 98.52 68.5544 99 67.0344C98.68 66.0344 98.28 63.9144 98.2 62.8744C98.08 60.7144 97.84 42.8744 97.88 40.0744C97.88 38.8744 97.96 36.3944 98.08 35.3544C97.88 34.9144 97.24 34.3944 96.48 34.3944C96.12 34.3944 95.88 34.5944 95.76 34.9544C95.44 35.8744 95.16 38.0744 95.12 39.5944L95.76 41.1144ZM113.28 45.4744C113.4 47.8344 113.44 55.0744 113.4 58.0744C113.4 58.5944 113.16 58.7944 112.68 58.7944L109.12 58.7944L108.96 42.9544C108.76 42.7544 108.28 42.5544 107.76 42.5544C107.6 42.5544 107.48 42.6344 107.4 42.7944L107.04 43.4744C106.08 43.1944 104.24 42.7944 103.16 42.7144L102.12 42.1944C101.88 42.1144 101.68 42.1144 101.56 42.2744C101.32 42.6344 100.88 43.5944 100.72 44.0344C100.6 44.2744 100.6 44.5544 100.72 44.7544L101.28 45.9944C101.4 48.5544 101.48 58.5544 101.48 60.6744C101.48 61.6744 101.36 63.3144 101.16 64.3944L101.6 64.6344C101.76 64.7144 101.88 64.7144 102.04 64.5144C102.76 63.6744 103.48 62.4744 103.96 61.2344C103.64 60.2344 103.4 58.7544 103.36 57.9544C103.28 56.3544 103.16 48.9144 103.2 46.2744C104 46.2344 106 46.2744 106.92 46.3544L107.12 47.1144C107.2 48.5944 107.28 55.7544 107.32 58.7544C107.16 59.8744 107.08 62.7144 107.08 63.9144C107.08 64.1544 107.2 64.3144 107.32 64.3544L108.16 64.5144C108.36 63.5944 108.72 62.7544 109.24 62.2344L112.76 62.2344C114.6 62.2344 115.36 61.4344 115.4 59.1144L115.28 41.1144C115.28 40.9144 115.24 40.6744 115.08 40.5544C114.92 40.3544 114.32 40.1144 113.56 40.1144C113.28 40.1144 113.04 40.3144 112.96 40.6344C112.76 41.4344 112.68 43.1544 112.68 44.2344L113.28 45.4744ZM94.08 11.2016C88.96 11.2016 85.4 15.1616 85.4 20.4816C85.4 25.8816 88.96 29.8816 94.08 29.8816C99.16 29.8816 102.72 25.8816 102.72 20.4816C102.72 15.1616 99.16 11.2016 94.08 11.2016ZM94.08 14.6816C97.84 14.6816 100.08 17.2016 100.08 20.4816C100.08 23.8016 97.84 26.3216 94.08 26.3216C90.28 26.3216 88 23.8016 88 20.4816C88 17.2016 90.28 14.6816 94.08 14.6816ZM116.32 2.20156C113.92 1.52156 109.84 1.08156 107.44 1.08156L82 1.08156L79.8 0.961557C79.36 0.961557 79.08 1.08156 78.92 1.48156C78.44 2.68156 77.88 5.40156 77.84 6.96156C77.84 7.32156 77.88 7.40156 78.04 7.44156L79.12 7.80156C79.64 6.36156 80.4 5.12156 81.28 4.44156L108.56 4.44156C110.36 4.44156 114.72 4.32155 116.32 4.12156L116.32 2.20156Z" fill="#5F4172"/>
</svg>
