<svg width="68" height="501" viewBox="0 0 68 501" fill="none" xmlns="http://www.w3.org/2000/svg">
<path d="M24.0273 317.694C25.3831 317.694 26.5452 318.178 27.5137 319.146C28.4707 320.104 28.9492 321.26 28.9492 322.616C28.9492 322.901 29.0461 323.14 29.2397 323.333C29.4448 323.539 29.6898 323.641 29.9746 323.641C30.2594 323.641 30.4987 323.539 30.6924 323.333C30.8975 323.14 31 322.901 31 322.616C31 320.69 30.3164 319.05 28.9492 317.694C27.5934 316.327 25.9528 315.643 24.0273 315.643L7.50146 315.643C7.21663 315.643 6.97168 315.746 6.7666 315.951C6.56152 316.144 6.45898 316.384 6.45898 316.668C6.45898 316.953 6.56152 317.198 6.7666 317.403C6.97168 317.597 7.21663 317.694 7.50146 317.694L24.0273 317.694ZM8.52685 298.331C8.52685 295.517 9.52946 293.113 11.5347 291.119C13.5285 289.114 15.9325 288.111 18.7466 288.111C21.5607 288.111 23.9647 289.114 25.9585 291.119C27.9523 293.113 28.9492 295.517 28.9492 298.331C28.9492 301.145 27.9523 303.549 25.9585 305.543C23.9647 307.537 21.5607 308.534 18.7466 308.534C15.9325 308.534 13.5285 307.537 11.5347 305.543C9.52946 303.549 8.52685 301.145 8.52685 298.331ZM31 298.331C31 294.947 29.8037 292.059 27.4111 289.667C25.0186 287.274 22.1304 286.078 18.7466 286.078C15.3628 286.078 12.4746 287.274 10.082 289.667C7.68945 292.059 6.49316 294.947 6.49316 298.331C6.49316 301.715 7.68945 304.603 10.082 306.996C12.4746 309.388 15.3628 310.584 18.7466 310.584C22.1304 310.584 25.0186 309.388 27.4111 306.996C29.8037 304.603 31 301.715 31 298.331ZM19.8062 278.25L19.8062 271.397C19.8062 271.272 19.8062 271.158 19.8062 271.056C19.8062 271.01 19.8062 270.965 19.8062 270.919C19.8061 269.483 20.2448 268.27 21.1221 267.279C21.988 266.288 23.0589 265.792 24.335 265.792C25.611 265.792 26.6991 266.293 27.5991 267.296C28.4992 268.31 28.9492 269.529 28.9492 270.953L28.9492 278.25L19.8062 278.25ZM8.56103 278.25L8.52685 271.397C8.52685 269.951 8.9598 268.731 9.82568 267.74C10.703 266.749 11.7739 266.253 13.0386 266.253C14.3374 266.253 15.4482 266.755 16.3711 267.757C17.2939 268.76 17.7554 269.973 17.7554 271.397L17.7725 278.25L8.56103 278.25ZM31 270.953C31 268.959 30.3449 267.262 29.0347 265.86C27.7358 264.448 26.1693 263.741 24.335 263.741C23.1159 263.741 21.9936 264.066 20.9683 264.715C19.9657 265.353 19.1795 266.225 18.6099 267.33C17.9946 266.362 17.2028 265.604 16.2344 265.057C15.2432 264.487 14.1779 264.203 13.0386 264.203C11.2043 264.203 9.64909 264.898 8.37304 266.288C7.1084 267.678 6.47607 269.381 6.47607 271.397L6.51025 279.276C6.51025 279.561 6.61279 279.806 6.81787 280.011C7.01155 280.204 7.25081 280.301 7.53564 280.301L29.9746 280.301C30.2594 280.301 30.4987 280.199 30.6924 279.994C30.8975 279.8 31 279.561 31 279.276L31 270.953ZM29.9746 243.524C30.2594 243.524 30.5044 243.427 30.7095 243.233C30.9032 243.028 31 242.789 31 242.516C31 242.231 30.9032 241.986 30.7095 241.781C30.5044 241.587 30.2594 241.49 29.9746 241.49L8.52685 241.49L8.52685 234.74C8.52685 234.455 8.43001 234.216 8.23632 234.022C8.04264 233.817 7.80338 233.714 7.51855 233.714C7.23372 233.714 6.99446 233.817 6.80078 234.022C6.5957 234.216 6.49316 234.455 6.49316 234.74L6.49316 250.274C6.49316 250.559 6.5957 250.804 6.80078 251.009C6.99446 251.203 7.23372 251.3 7.51855 251.3C7.80338 251.3 8.04264 251.203 8.23632 251.009C8.43001 250.804 8.52685 250.559 8.52685 250.274L8.52685 243.524L29.9746 243.524ZM7.58691 227.784C7.30208 227.784 7.06282 227.887 6.86914 228.092C6.66406 228.285 6.56152 228.525 6.56152 228.81C6.56152 229.094 6.66406 229.334 6.86914 229.527C7.06282 229.732 7.30208 229.835 7.58691 229.835L29.9746 229.835C30.2594 229.835 30.4987 229.732 30.6924 229.527C30.8975 229.334 31 229.094 31 228.81C31 228.525 30.8975 228.285 30.6924 228.092C30.4987 227.887 30.2594 227.784 29.9746 227.784L7.58691 227.784ZM29.9746 215.531C30.2594 215.531 30.5044 215.434 30.7095 215.24C30.9032 215.035 31 214.796 31 214.522C31 214.238 30.9032 213.993 30.7095 213.788C30.5044 213.594 30.2594 213.497 29.9746 213.497L8.52685 213.497L8.52685 206.747C8.52685 206.462 8.43001 206.222 8.23632 206.029C8.04264 205.824 7.80338 205.721 7.51855 205.721C7.23372 205.721 6.99446 205.824 6.80078 206.029C6.5957 206.222 6.49316 206.462 6.49316 206.747L6.49316 222.281C6.49316 222.566 6.5957 222.811 6.80078 223.016C6.99446 223.21 7.23372 223.307 7.51855 223.307C7.80338 223.307 8.04264 223.21 8.23632 223.016C8.43001 222.811 8.52685 222.566 8.52685 222.281L8.52685 215.531L29.9746 215.531ZM6.54443 200.833C6.54443 201.118 6.64697 201.363 6.85205 201.568C7.04573 201.762 7.28499 201.859 7.56982 201.859L29.9746 201.859C30.2594 201.859 30.5044 201.762 30.7095 201.568C30.9032 201.363 31 201.118 31 200.833L31 188.734C31 188.449 30.9032 188.21 30.7095 188.016C30.5044 187.811 30.2594 187.708 29.9746 187.708C29.7012 187.708 29.4619 187.811 29.2568 188.016C29.0631 188.21 28.9663 188.449 28.9663 188.734L28.9663 199.825L7.56982 199.825C7.28499 199.825 7.04573 199.922 6.85205 200.116C6.64697 200.321 6.54443 200.56 6.54443 200.833ZM31 168.893C31 168.608 30.8975 168.368 30.6924 168.175C30.4987 167.97 30.2594 167.867 29.9746 167.867C29.6898 167.867 29.4505 167.97 29.2568 168.175C29.0518 168.368 28.9492 168.608 28.9492 168.893L28.9492 181.437L19.7549 181.437L19.7549 172.054C19.7549 171.769 19.6523 171.53 19.4473 171.336C19.2536 171.131 19.0143 171.029 18.7295 171.029C18.4447 171.029 18.2054 171.131 18.0117 171.336C17.8066 171.53 17.7041 171.769 17.7041 172.054L17.7041 181.437L8.50976 181.437L8.54394 168.893C8.54394 168.608 8.4471 168.368 8.25341 168.175C8.04833 167.97 7.80338 167.867 7.51855 167.867C7.24511 167.867 7.00585 167.97 6.80077 168.175C6.5957 168.368 6.49316 168.608 6.49316 168.893L6.45898 182.462C6.44758 182.735 6.55012 182.975 6.7666 183.18C6.96028 183.385 7.19954 183.487 7.48437 183.487L29.9746 183.487C30.2594 183.487 30.4987 183.385 30.6924 183.18C30.8975 182.986 31 182.747 31 182.462L31 168.893Z" fill="#625573"/>
<path d="M50.1582 321.08L50.1582 318.414C50.1582 316.812 50.7246 315.442 51.8574 314.303C52.9967 313.163 54.3672 312.594 55.9687 312.594C57.5703 312.594 58.9408 313.163 60.0801 314.303C61.2129 315.442 61.7793 316.816 61.7793 318.424L61.8184 321.08L50.1582 321.08ZM63 321.656L62.9609 318.414C62.9609 316.487 62.2773 314.84 60.9102 313.473C59.543 312.105 57.8958 311.422 55.9687 311.422C54.0417 311.422 52.3945 312.105 51.0273 313.473C49.6602 314.84 48.9766 316.487 48.9766 318.414L48.9766 321.666C48.9766 321.829 49.0352 321.965 49.1523 322.076C49.2695 322.193 49.4095 322.252 49.5723 322.252L62.4141 322.252C62.5768 322.252 62.7168 322.193 62.834 322.076C62.9447 321.965 63 321.829 63 321.666L63 321.656ZM63 299.703C63 299.54 62.9414 299.404 62.8242 299.293C62.7135 299.176 62.5768 299.117 62.4141 299.117C62.2513 299.117 62.1146 299.176 62.0039 299.293C61.8867 299.404 61.8281 299.54 61.8281 299.703L61.8281 306.871L56.5742 306.871L56.5742 301.51C56.5742 301.347 56.5156 301.21 56.3984 301.1C56.2878 300.982 56.151 300.924 55.9883 300.924C55.8255 300.924 55.6888 300.982 55.5781 301.1C55.4609 301.21 55.4023 301.347 55.4023 301.51L55.4023 306.871L50.1484 306.871L50.168 299.703C50.168 299.54 50.1126 299.404 50.002 299.293C49.8848 299.176 49.7448 299.117 49.582 299.117C49.4258 299.117 49.2891 299.176 49.1719 299.293C49.0547 299.404 48.9961 299.54 48.9961 299.703L48.9766 307.457C48.9701 307.613 49.0286 307.75 49.1523 307.867C49.263 307.984 49.3997 308.043 49.5625 308.043L62.4141 308.043C62.5768 308.043 62.7135 307.984 62.8242 307.867C62.9414 307.757 63 307.62 63 307.457L63 299.703ZM49.0254 287.389C48.9733 287.545 48.9831 287.695 49.0547 287.838C49.1198 287.981 49.2305 288.079 49.3867 288.131L60.6562 292.096L49.3867 296.051C49.2305 296.103 49.1198 296.201 49.0547 296.344C48.9831 296.487 48.9733 296.637 49.0254 296.793C49.0775 296.943 49.1784 297.053 49.3281 297.125C49.4714 297.197 49.6178 297.203 49.7676 297.145L62.6094 292.643C62.6029 292.643 62.6159 292.636 62.6484 292.623C62.6615 292.617 62.6712 292.613 62.6777 292.613C62.7038 292.6 62.7266 292.584 62.7461 292.564C62.7526 292.564 62.7559 292.564 62.7559 292.564C62.7624 292.558 62.7656 292.555 62.7656 292.555C62.7917 292.535 62.8177 292.512 62.8437 292.486C62.8372 292.493 62.8437 292.486 62.8633 292.467C62.8763 292.447 62.8893 292.428 62.9023 292.408C62.9089 292.402 62.9154 292.392 62.9219 292.379C62.9349 292.353 62.9479 292.327 62.9609 292.301C62.9609 292.301 62.9609 292.298 62.9609 292.291C62.9609 292.291 62.9642 292.288 62.9707 292.281C62.9642 292.288 62.9642 292.288 62.9707 292.281C62.9772 292.262 62.9837 292.239 62.9902 292.213C62.9902 292.187 62.9902 292.177 62.9902 292.184C62.9967 292.151 63 292.122 63 292.096C63 292.063 62.9967 292.031 62.9902 291.998C62.9902 292.005 62.9902 291.995 62.9902 291.969C62.9837 291.943 62.9772 291.923 62.9707 291.91C62.9642 291.897 62.9642 291.894 62.9707 291.9C62.9642 291.894 62.9609 291.891 62.9609 291.891C62.9609 291.884 62.9609 291.881 62.9609 291.881C62.9479 291.855 62.9349 291.832 62.9219 291.812C62.9154 291.799 62.9089 291.786 62.9023 291.773C62.8893 291.754 62.8763 291.734 62.8633 291.715C62.8437 291.695 62.8372 291.689 62.8437 291.695C62.8177 291.669 62.7917 291.646 62.7656 291.627C62.7786 291.633 62.7721 291.63 62.7461 291.617C62.7266 291.598 62.7038 291.581 62.6777 291.568C62.6712 291.568 62.6615 291.565 62.6484 291.559C62.6094 291.546 62.5964 291.539 62.6094 291.539L49.7676 287.037C49.6178 286.985 49.4714 286.992 49.3281 287.057C49.1784 287.128 49.0775 287.239 49.0254 287.389ZM63 275.992C63 275.829 62.9414 275.693 62.8242 275.582C62.7135 275.465 62.5768 275.406 62.4141 275.406C62.2513 275.406 62.1146 275.465 62.0039 275.582C61.8867 275.693 61.8281 275.829 61.8281 275.992L61.8281 283.16L56.5742 283.16L56.5742 277.799C56.5742 277.636 56.5156 277.499 56.3984 277.389C56.2878 277.271 56.151 277.213 55.9883 277.213C55.8255 277.213 55.6888 277.271 55.5781 277.389C55.4609 277.499 55.4023 277.636 55.4023 277.799L55.4023 283.16L50.1484 283.16L50.168 275.992C50.168 275.829 50.1126 275.693 50.002 275.582C49.8848 275.465 49.7448 275.406 49.582 275.406C49.4258 275.406 49.2891 275.465 49.1719 275.582C49.0547 275.693 48.9961 275.829 48.9961 275.992L48.9766 283.746C48.9701 283.902 49.0286 284.039 49.1523 284.156C49.263 284.273 49.3997 284.332 49.5625 284.332L62.4141 284.332C62.5768 284.332 62.7135 284.273 62.8242 284.156C62.9414 284.046 63 283.909 63 283.746L63 275.992ZM49.0254 271.9C49.0254 272.063 49.084 272.203 49.2012 272.32C49.3118 272.431 49.4486 272.486 49.6113 272.486L62.4141 272.486C62.5768 272.486 62.7168 272.431 62.834 272.32C62.9447 272.203 63 272.063 63 271.9L63 264.986C63 264.824 62.9447 264.687 62.834 264.576C62.7168 264.459 62.5768 264.4 62.4141 264.4C62.2578 264.4 62.1211 264.459 62.0039 264.576C61.8932 264.687 61.8379 264.824 61.8379 264.986L61.8379 271.324L49.6113 271.324C49.4486 271.324 49.3118 271.38 49.2012 271.49C49.084 271.607 49.0254 271.744 49.0254 271.9ZM50.1582 255.875C50.1582 254.267 50.7311 252.893 51.8769 251.754C53.0163 250.608 54.39 250.035 55.998 250.035C57.6061 250.035 58.9798 250.608 60.1191 251.754C61.2585 252.893 61.8281 254.267 61.8281 255.875C61.8281 257.483 61.2585 258.857 60.1191 259.996C58.9798 261.135 57.6061 261.705 55.998 261.705C54.39 261.705 53.0163 261.135 51.877 259.996C50.7311 258.857 50.1582 257.483 50.1582 255.875ZM63 255.875C63 253.941 62.3164 252.291 60.9492 250.924C59.582 249.557 57.9316 248.873 55.998 248.873C54.0644 248.873 52.4141 249.557 51.0469 250.924C49.6797 252.291 48.9961 253.941 48.9961 255.875C48.9961 257.809 49.6797 259.459 51.0469 260.826C52.4141 262.193 54.0645 262.877 55.998 262.877C57.9316 262.877 59.582 262.193 60.9492 260.826C62.3164 259.459 63 257.809 63 255.875ZM55.4316 244.391L50.1582 244.391L50.1582 240.523C50.1582 239.71 50.4154 239.013 50.9297 238.434C51.444 237.854 52.0658 237.564 52.7949 237.564C53.5111 237.564 54.1263 237.848 54.6406 238.414C55.1484 238.974 55.4121 239.651 55.4316 240.445L55.4316 244.391ZM48.9863 244.977C48.9863 245.139 49.0449 245.276 49.1621 245.387C49.2728 245.504 49.4095 245.562 49.5723 245.562L62.4141 245.562C62.5768 245.562 62.7135 245.504 62.8242 245.387C62.9414 245.276 63 245.139 63 244.977C63 244.814 62.9414 244.677 62.8242 244.566C62.7135 244.449 62.5768 244.391 62.4141 244.391L56.5937 244.391L56.5937 240.553C56.6003 240.514 56.6035 240.504 56.6035 240.523C56.6035 240.51 56.6003 240.497 56.5937 240.484L56.5937 240.367C56.5937 240.354 56.5937 240.328 56.5937 240.289C56.5352 239.208 56.1413 238.29 55.4121 237.535C54.6764 236.78 53.804 236.402 52.7949 236.402C51.7467 236.402 50.8516 236.803 50.1094 237.604C49.3607 238.411 48.9863 239.384 48.9863 240.523L48.9863 244.977ZM63 225.152C63 224.99 62.9414 224.853 62.8242 224.742C62.7135 224.625 62.5768 224.566 62.4141 224.566C62.2513 224.566 62.1146 224.625 62.0039 224.742C61.8867 224.853 61.8281 224.99 61.8281 225.152L61.8281 232.32L56.5742 232.32L56.5742 226.959C56.5742 226.796 56.5156 226.66 56.3984 226.549C56.2878 226.432 56.151 226.373 55.9883 226.373C55.8255 226.373 55.6888 226.432 55.5781 226.549C55.4609 226.66 55.4023 226.796 55.4023 226.959L55.4023 232.32L50.1484 232.32L50.168 225.152C50.168 224.99 50.1126 224.853 50.0019 224.742C49.8848 224.625 49.7448 224.566 49.582 224.566C49.4258 224.566 49.2891 224.625 49.1719 224.742C49.0547 224.853 48.9961 224.99 48.9961 225.152L48.9766 232.906C48.97 233.062 49.0286 233.199 49.1523 233.316C49.263 233.434 49.3997 233.492 49.5625 233.492L62.4141 233.492C62.5768 233.492 62.7135 233.434 62.8242 233.316C62.9414 233.206 63 233.069 63 232.906L63 225.152ZM52.7852 213.736C53.4948 213.736 54.1035 214.016 54.6113 214.576C55.1191 215.13 55.3796 215.803 55.3926 216.598L55.3926 220.504L50.168 220.504L50.168 216.666C50.168 215.859 50.4251 215.169 50.9394 214.596C51.4473 214.023 52.0625 213.736 52.7852 213.736ZM49.0156 221.09C49.0156 221.246 49.071 221.383 49.1816 221.5C49.2923 221.611 49.429 221.666 49.5918 221.666L62.3262 221.666C62.4824 221.666 62.6191 221.611 62.7363 221.5C62.847 221.383 62.9023 221.246 62.9023 221.09C62.9023 220.927 62.847 220.79 62.7363 220.68C62.6191 220.562 62.4824 220.504 62.3262 220.504L56.5547 220.504L56.5547 217.242L62.6777 214.225C62.8926 214.12 63 213.948 63 213.707C63 213.616 62.9805 213.531 62.9414 213.453C62.8698 213.31 62.7591 213.212 62.6094 213.16C62.4596 213.108 62.3131 213.118 62.1699 213.189L56.4961 215.973C56.3463 215.003 55.9232 214.199 55.2266 213.561C54.5234 212.91 53.7096 212.584 52.7852 212.584C51.7435 212.584 50.8548 212.981 50.1191 213.775C49.3835 214.576 49.0156 215.54 49.0156 216.666L49.0156 221.09ZM56.0078 207.408C53.6641 207.408 51.6296 206.891 49.9043 205.855C49.7676 205.771 49.6211 205.748 49.4648 205.787C49.3086 205.826 49.1881 205.914 49.1035 206.051C49.0189 206.187 48.9961 206.334 49.0352 206.49C49.0742 206.646 49.1654 206.767 49.3086 206.852C51.2161 207.997 53.4492 208.57 56.0078 208.57C58.5664 208.57 60.8027 207.997 62.7168 206.852C62.9056 206.734 63 206.568 63 206.354C63 206.243 62.974 206.142 62.9219 206.051C62.8372 205.914 62.7168 205.826 62.5605 205.787C62.4043 205.748 62.2578 205.771 62.1211 205.855C60.3893 206.891 58.3516 207.408 56.0078 207.408ZM63 194.625C63 196.559 62.3131 198.209 60.9394 199.576C59.5723 200.95 57.9219 201.637 55.9883 201.637C54.0547 201.637 52.401 200.95 51.0273 199.576C49.6602 198.209 48.9766 196.559 48.9766 194.625C48.9766 193.036 49.4583 191.614 50.4219 190.357C50.526 190.227 50.6562 190.152 50.8125 190.133C50.9753 190.107 51.1217 190.146 51.2519 190.25C51.3822 190.348 51.457 190.478 51.4766 190.641C51.4961 190.797 51.457 190.94 51.3594 191.07C50.5521 192.118 50.1484 193.303 50.1484 194.625C50.1484 196.233 50.7213 197.607 51.8672 198.746C53.0065 199.885 54.3802 200.455 55.9883 200.455C57.5963 200.455 58.97 199.885 60.1094 198.746C61.2487 197.607 61.8184 196.233 61.8184 194.625C61.8184 193.115 61.3138 191.806 60.3047 190.699C60.194 190.576 60.1419 190.432 60.1484 190.27C60.1549 190.107 60.22 189.97 60.3437 189.859C60.4609 189.755 60.6009 189.706 60.7637 189.713C60.9264 189.719 61.0631 189.781 61.1738 189.898C62.3913 191.24 63 192.815 63 194.625ZM63 190.182C63 190.344 62.9414 190.484 62.8242 190.602C62.7135 190.712 62.5768 190.768 62.4141 190.768L56.2227 190.768L56.2227 195.67C56.2227 195.833 56.1673 195.973 56.0566 196.09C55.9394 196.207 55.7995 196.266 55.6367 196.266C55.474 196.266 55.3372 196.207 55.2266 196.09C55.1094 195.973 55.0508 195.833 55.0508 195.67L55.0508 190.182C55.0508 190.019 55.1094 189.879 55.2266 189.762C55.3372 189.651 55.474 189.596 55.6367 189.596L62.4141 189.596C62.5768 189.596 62.7135 189.651 62.8242 189.762C62.9414 189.879 63 190.019 63 190.182ZM63 177.711C63 177.548 62.9414 177.411 62.8242 177.301C62.7135 177.184 62.5768 177.125 62.4141 177.125C62.2513 177.125 62.1146 177.184 62.0039 177.301C61.8867 177.411 61.8281 177.548 61.8281 177.711L61.8281 184.879L56.5742 184.879L56.5742 179.518C56.5742 179.355 56.5156 179.218 56.3984 179.107C56.2878 178.99 56.151 178.932 55.9883 178.932C55.8255 178.932 55.6888 178.99 55.5781 179.107C55.4609 179.218 55.4023 179.355 55.4023 179.518L55.4023 184.879L50.1484 184.879L50.168 177.711C50.168 177.548 50.1126 177.411 50.0019 177.301C49.8848 177.184 49.7448 177.125 49.582 177.125C49.4258 177.125 49.2891 177.184 49.1719 177.301C49.0547 177.411 48.9961 177.548 48.9961 177.711L48.9766 185.465C48.97 185.621 49.0286 185.758 49.1523 185.875C49.263 185.992 49.3997 186.051 49.5625 186.051L62.4141 186.051C62.5768 186.051 62.7135 185.992 62.8242 185.875C62.9414 185.764 63 185.628 63 185.465L63 177.711ZM62.7949 164.098C62.8144 164.078 62.834 164.059 62.8535 164.039C62.8665 164.02 62.8763 164.007 62.8828 164C62.8958 163.98 62.9088 163.958 62.9219 163.932C62.9349 163.912 62.9447 163.899 62.9512 163.893C62.9577 163.873 62.9674 163.847 62.9805 163.814C62.987 163.788 62.9902 163.775 62.9902 163.775C62.9967 163.736 63 163.697 63 163.658C63 163.626 62.9967 163.59 62.9902 163.551C62.9902 163.544 62.987 163.531 62.9805 163.512C62.974 163.486 62.9674 163.463 62.9609 163.443C62.9544 163.43 62.9479 163.417 62.9414 163.404C62.9349 163.385 62.9251 163.365 62.9121 163.346C62.9056 163.333 62.8991 163.323 62.8926 163.316C62.873 163.29 62.8665 163.284 62.873 163.297C62.8861 163.31 62.8796 163.3 62.8535 163.268C62.834 163.248 62.821 163.235 62.8144 163.229C62.8014 163.215 62.7851 163.202 62.7656 163.189C62.7461 163.176 62.7298 163.167 62.7168 163.16C62.7038 163.147 62.6875 163.137 62.668 163.131C62.6484 163.124 62.6322 163.118 62.6191 163.111C62.6061 163.105 62.5866 163.098 62.5605 163.092C62.541 163.085 62.5247 163.082 62.5117 163.082C62.4922 163.076 62.4726 163.072 62.4531 163.072C62.4141 163.072 62.401 163.072 62.4141 163.072L49.5527 163.072C49.39 163.072 49.2532 163.128 49.1426 163.238C49.0254 163.355 48.9668 163.495 48.9668 163.658C48.9668 163.814 49.0254 163.951 49.1426 164.068C49.2532 164.179 49.39 164.234 49.5527 164.234L60.7051 164.234L49.1914 173.18C48.97 173.349 48.9049 173.567 48.9961 173.834C49.0872 174.094 49.2728 174.225 49.5527 174.225L62.4141 174.225C62.5768 174.225 62.7135 174.166 62.8242 174.049C62.9414 173.938 63 173.801 63 173.639C63 173.476 62.9414 173.339 62.8242 173.229C62.7135 173.111 62.5768 173.053 62.4141 173.053L51.2617 173.053L62.7754 164.117C62.7754 164.117 62.7786 164.114 62.7851 164.107C62.7917 164.101 62.7949 164.098 62.7949 164.098ZM63 151.051C63 150.888 62.9414 150.751 62.8242 150.641C62.7135 150.523 62.5768 150.465 62.4141 150.465C62.2513 150.465 62.1146 150.523 62.0039 150.641C61.8867 150.751 61.8281 150.888 61.8281 151.051L61.8281 158.219L56.5742 158.219L56.5742 152.857C56.5742 152.695 56.5156 152.558 56.3984 152.447C56.2878 152.33 56.151 152.271 55.9883 152.271C55.8255 152.271 55.6888 152.33 55.5781 152.447C55.4609 152.558 55.4023 152.695 55.4023 152.857L55.4023 158.219L50.1484 158.219L50.168 151.051C50.168 150.888 50.1126 150.751 50.0019 150.641C49.8848 150.523 49.7448 150.465 49.582 150.465C49.4258 150.465 49.2891 150.523 49.1719 150.641C49.0547 150.751 48.9961 150.888 48.9961 151.051L48.9766 158.805C48.97 158.961 49.0286 159.098 49.1523 159.215C49.263 159.332 49.3997 159.391 49.5625 159.391L62.4141 159.391C62.5768 159.391 62.7135 159.332 62.8242 159.215C62.9414 159.104 63 158.967 63 158.805L63 151.051ZM52.7851 139.635C53.4948 139.635 54.1035 139.915 54.6113 140.475C55.1191 141.028 55.3795 141.702 55.3926 142.496L55.3926 146.402L50.168 146.402L50.168 142.564C50.168 141.757 50.4251 141.067 50.9394 140.494C51.4473 139.921 52.0625 139.635 52.7851 139.635ZM49.0156 146.988C49.0156 147.145 49.071 147.281 49.1816 147.398C49.2923 147.509 49.429 147.564 49.5918 147.564L62.3262 147.564C62.4824 147.564 62.6191 147.509 62.7363 147.398C62.847 147.281 62.9023 147.145 62.9023 146.988C62.9023 146.826 62.847 146.689 62.7363 146.578C62.6191 146.461 62.4824 146.402 62.3262 146.402L56.5547 146.402L56.5547 143.141L62.6777 140.123C62.8926 140.019 63 139.846 63 139.605C63 139.514 62.9805 139.43 62.9414 139.352C62.8698 139.208 62.7591 139.111 62.6094 139.059C62.4596 139.007 62.3131 139.016 62.1699 139.088L56.4961 141.871C56.3463 140.901 55.9232 140.097 55.2266 139.459C54.5234 138.808 53.7096 138.482 52.7851 138.482C51.7435 138.482 50.8548 138.88 50.1191 139.674C49.3835 140.475 49.0156 141.438 49.0156 142.564L49.0156 146.988ZM58.5566 133.385L51.1152 130.299L58.5566 127.213L58.5566 133.385ZM62.9512 135.836C62.9837 135.764 63 135.689 63 135.611C63 135.351 62.8795 135.172 62.6387 135.074L59.7285 133.863L59.7285 126.734L62.6387 125.523C62.8795 125.426 63 125.247 63 124.986C63 124.908 62.9837 124.833 62.9512 124.762C62.8926 124.612 62.7884 124.508 62.6387 124.449C62.4889 124.384 62.3392 124.384 62.1894 124.449L58.918 125.807L58.9082 125.807L49.3672 129.762C49.3346 129.775 49.2988 129.791 49.2598 129.811C49.2663 129.811 49.2532 129.824 49.2207 129.85C49.1947 129.869 49.1784 129.882 49.1719 129.889C49.1719 129.895 49.1588 129.911 49.1328 129.937C49.1133 129.964 49.1035 129.977 49.1035 129.977C49.0579 130.042 49.0286 130.113 49.0156 130.191C49.0156 130.185 49.0156 130.201 49.0156 130.24C49.0091 130.273 49.0059 130.292 49.0059 130.299C49.0059 130.305 49.0091 130.328 49.0156 130.367C49.0156 130.4 49.0156 130.416 49.0156 130.416C49.0286 130.488 49.0579 130.556 49.1035 130.621C49.097 130.615 49.1068 130.628 49.1328 130.66C49.1523 130.686 49.1654 130.702 49.1719 130.709C49.1784 130.715 49.1947 130.729 49.2207 130.748C49.2467 130.774 49.2598 130.787 49.2598 130.787C49.2988 130.807 49.3346 130.823 49.3672 130.836L58.9082 134.791L58.918 134.791L62.1894 136.148C62.3392 136.214 62.4889 136.214 62.6387 136.148C62.7884 136.09 62.8926 135.986 62.9512 135.836ZM49.0254 121.275C49.0254 121.438 49.084 121.578 49.2012 121.695C49.3118 121.806 49.4486 121.861 49.6113 121.861L62.4141 121.861C62.5768 121.861 62.7168 121.806 62.834 121.695C62.9447 121.578 63 121.438 63 121.275L63 114.361C63 114.199 62.9447 114.062 62.834 113.951C62.7168 113.834 62.5768 113.775 62.4141 113.775C62.2578 113.775 62.1211 113.834 62.0039 113.951C61.8932 114.062 61.8379 114.199 61.8379 114.361L61.8379 120.699L49.6113 120.699C49.4486 120.699 49.3118 120.755 49.2012 120.865C49.084 120.982 49.0254 121.119 49.0254 121.275ZM51.7012 105.201L60.3633 99.957C60.3633 99.957 60.3665 99.9538 60.373 99.9473C60.3795 99.9473 60.3828 99.9473 60.3828 99.9473C60.3958 99.9342 60.4121 99.9212 60.4316 99.9082C60.4447 99.8952 60.4577 99.8822 60.4707 99.8691C60.4837 99.8561 60.4967 99.8431 60.5098 99.8301C60.5228 99.8105 60.5358 99.7943 60.5488 99.7812C60.5683 99.7487 60.5716 99.7422 60.5586 99.7617C60.5586 99.7552 60.5618 99.752 60.5683 99.752C60.5683 99.7454 60.5683 99.7389 60.5683 99.7324C60.5814 99.7129 60.5911 99.6934 60.5976 99.6738C60.6042 99.6608 60.6107 99.6445 60.6172 99.625C60.6237 99.6055 60.6269 99.5859 60.6269 99.5664C60.6335 99.5534 60.6367 99.5371 60.6367 99.5176C60.6432 99.498 60.6465 99.4785 60.6465 99.459C60.6465 99.4395 60.6432 99.4199 60.6367 99.4004C60.6367 99.3809 60.6335 99.3646 60.6269 99.3516C60.6269 99.332 60.6237 99.3125 60.6172 99.293C60.6107 99.2734 60.6042 99.2572 60.5976 99.2441C60.5911 99.2246 60.5814 99.2051 60.5683 99.1855C60.5553 99.1595 60.5521 99.1497 60.5586 99.1562C60.5716 99.1758 60.5683 99.1693 60.5488 99.1367C60.5358 99.1237 60.5228 99.1074 60.5098 99.0879C60.4967 99.0749 60.4837 99.0618 60.4707 99.0488C60.4642 99.0423 60.4512 99.0293 60.4316 99.0098C60.4121 98.9967 60.3958 98.9837 60.3828 98.9707C60.3763 98.9707 60.373 98.9707 60.373 98.9707C60.3665 98.9642 60.3633 98.9609 60.3633 98.9609L51.7012 93.7168L62.4141 93.7168C62.5768 93.7168 62.7168 93.6615 62.834 93.5508C62.9447 93.4336 63 93.2969 63 93.1406C63 92.9779 62.9447 92.8411 62.834 92.7305C62.7168 92.6133 62.5768 92.5547 62.4141 92.5547L49.6113 92.5547C49.3183 92.5547 49.1328 92.6979 49.0547 92.9844C48.9766 93.2643 49.0644 93.4824 49.3183 93.6387L58.9375 99.459L49.3183 105.279C49.0644 105.436 48.9766 105.654 49.0547 105.934C49.1328 106.22 49.3183 106.363 49.6113 106.363L62.4141 106.363C62.5768 106.363 62.7168 106.308 62.834 106.197C62.9447 106.08 63 105.94 63 105.777C63 105.621 62.9447 105.484 62.834 105.367C62.7168 105.257 62.5768 105.201 62.4141 105.201L51.7012 105.201ZM58.5566 86.666L51.1152 83.5801L58.5566 80.4941L58.5566 86.666ZM62.9512 89.1172C62.9837 89.0456 63 88.9707 63 88.8926C63 88.6322 62.8795 88.4531 62.6387 88.3555L59.7285 87.1445L59.7285 80.0156L62.6387 78.8047C62.8795 78.707 63 78.528 63 78.2676C63 78.1895 62.9837 78.1146 62.9512 78.043C62.8926 77.8932 62.7884 77.7891 62.6387 77.7305C62.4889 77.6654 62.3392 77.6654 62.1894 77.7305L58.918 79.0879L58.9082 79.0879L49.3672 83.043C49.3346 83.056 49.2988 83.0723 49.2598 83.0918C49.2663 83.0918 49.2532 83.1048 49.2207 83.1309C49.1947 83.1504 49.1784 83.1634 49.1719 83.1699C49.1719 83.1764 49.1588 83.1927 49.1328 83.2187C49.1133 83.2448 49.1035 83.2578 49.1035 83.2578C49.0579 83.3229 49.0286 83.3945 49.0156 83.4727C49.0156 83.4661 49.0156 83.4824 49.0156 83.5215C49.0091 83.554 49.0058 83.5736 49.0058 83.5801C49.0058 83.5866 49.0091 83.6094 49.0156 83.6484C49.0156 83.681 49.0156 83.6973 49.0156 83.6973C49.0286 83.7689 49.0579 83.8372 49.1035 83.9023C49.097 83.8958 49.1068 83.9089 49.1328 83.9414C49.1523 83.9674 49.1654 83.9837 49.1719 83.9902C49.1784 83.9967 49.1947 84.0098 49.2207 84.0293C49.2467 84.0553 49.2598 84.0684 49.2598 84.0684C49.2988 84.0879 49.3346 84.1042 49.3672 84.1172L58.9082 88.0723L58.918 88.0723L62.1894 89.4297C62.3392 89.4948 62.4889 89.4948 62.6387 89.4297C62.7884 89.3711 62.8926 89.2669 62.9512 89.1172ZM62.7949 65.0352C62.8144 65.0156 62.834 64.9961 62.8535 64.9766C62.8665 64.957 62.8763 64.944 62.8828 64.9375C62.8958 64.918 62.9088 64.8952 62.9219 64.8691C62.9349 64.8496 62.9447 64.8366 62.9512 64.8301C62.9577 64.8105 62.9674 64.7845 62.9805 64.752C62.987 64.7259 62.9902 64.7129 62.9902 64.7129C62.9967 64.6738 63 64.6348 63 64.5957C63 64.5632 62.9967 64.5273 62.9902 64.4883C62.9902 64.4818 62.987 64.4687 62.9805 64.4492C62.9739 64.4232 62.9674 64.4004 62.9609 64.3809C62.9544 64.3678 62.9479 64.3548 62.9414 64.3418C62.9349 64.3223 62.9251 64.3027 62.9121 64.2832C62.9056 64.2702 62.8991 64.2604 62.8926 64.2539C62.873 64.2279 62.8665 64.2214 62.873 64.2344C62.8861 64.2474 62.8795 64.2376 62.8535 64.2051C62.834 64.1855 62.821 64.1725 62.8144 64.166C62.8014 64.153 62.7851 64.14 62.7656 64.127C62.7461 64.1139 62.7298 64.1042 62.7168 64.0977C62.7038 64.0846 62.6875 64.0749 62.668 64.0684C62.6484 64.0618 62.6322 64.0553 62.6191 64.0488C62.6061 64.0423 62.5866 64.0358 62.5605 64.0293C62.541 64.0228 62.5247 64.0195 62.5117 64.0195C62.4922 64.013 62.4726 64.0098 62.4531 64.0098C62.4141 64.0098 62.401 64.0098 62.4141 64.0098L49.5527 64.0098C49.39 64.0098 49.2532 64.0651 49.1426 64.1758C49.0254 64.293 48.9668 64.4329 48.9668 64.5957C48.9668 64.752 49.0254 64.8887 49.1426 65.0059C49.2532 65.1165 49.39 65.1719 49.5527 65.1719L60.7051 65.1719L49.1914 74.1172C48.97 74.2865 48.9049 74.5046 48.9961 74.7715C49.0872 75.0319 49.2728 75.1621 49.5527 75.1621L62.4141 75.1621C62.5768 75.1621 62.7135 75.1035 62.8242 74.9863C62.9414 74.8757 63 74.7389 63 74.5762C63 74.4134 62.9414 74.2767 62.8242 74.166C62.7135 74.0488 62.5768 73.9902 62.4141 73.9902L51.2617 73.9902L62.7754 65.0547C62.7754 65.0547 62.7786 65.0514 62.7851 65.0449C62.7917 65.0384 62.7949 65.0352 62.7949 65.0352ZM58.5566 58.3457L51.1152 55.2598L58.5566 52.1738L58.5566 58.3457ZM62.9512 60.7969C62.9837 60.7253 63 60.6504 63 60.5723C63 60.3118 62.8795 60.1328 62.6387 60.0352L59.7285 58.8242L59.7285 51.6953L62.6387 50.4844C62.8795 50.3867 63 50.2077 63 49.9473C63 49.8691 62.9837 49.7943 62.9512 49.7227C62.8926 49.5729 62.7884 49.4687 62.6387 49.4102C62.4889 49.3451 62.3392 49.3451 62.1894 49.4102L58.918 50.7676L58.9082 50.7676L49.3672 54.7227C49.3346 54.7357 49.2988 54.752 49.2598 54.7715C49.2663 54.7715 49.2532 54.7845 49.2207 54.8105C49.1946 54.8301 49.1784 54.8431 49.1719 54.8496C49.1719 54.8561 49.1588 54.8724 49.1328 54.8984C49.1133 54.9245 49.1035 54.9375 49.1035 54.9375C49.0579 55.0026 49.0286 55.0742 49.0156 55.1523C49.0156 55.1458 49.0156 55.1621 49.0156 55.2012C49.0091 55.2337 49.0058 55.2533 49.0058 55.2598C49.0058 55.2663 49.0091 55.2891 49.0156 55.3281C49.0156 55.3607 49.0156 55.377 49.0156 55.377C49.0286 55.4486 49.0579 55.5169 49.1035 55.582C49.097 55.5755 49.1068 55.5885 49.1328 55.6211C49.1523 55.6471 49.1654 55.6634 49.1719 55.6699C49.1784 55.6764 49.1946 55.6895 49.2207 55.709C49.2467 55.735 49.2598 55.748 49.2598 55.748C49.2988 55.7676 49.3346 55.7839 49.3672 55.7969L58.9082 59.752L58.918 59.752L62.1894 61.1094C62.3392 61.1745 62.4889 61.1745 62.6387 61.1094C62.7884 61.0508 62.8926 60.9466 62.9512 60.7969ZM63 40.6406C63 42.5742 62.3131 44.2246 60.9394 45.5918C59.5723 46.9655 57.9219 47.6523 55.9883 47.6523C54.0547 47.6523 52.401 46.9655 51.0273 45.5918C49.6601 44.2246 48.9766 42.5742 48.9766 40.6406C48.9766 39.0521 49.4583 37.6296 50.4219 36.373C50.526 36.2428 50.6562 36.168 50.8125 36.1484C50.9752 36.1224 51.1217 36.1615 51.2519 36.2656C51.3821 36.3633 51.457 36.4935 51.4765 36.6562C51.4961 36.8125 51.457 36.9557 51.3594 37.0859C50.5521 38.1341 50.1484 39.319 50.1484 40.6406C50.1484 42.2487 50.7213 43.6224 51.8672 44.7617C53.0065 45.901 54.3802 46.4707 55.9883 46.4707C57.5963 46.4707 58.97 45.901 60.1094 44.7617C61.2487 43.6224 61.8183 42.2487 61.8183 40.6406C61.8183 39.1302 61.3138 37.8216 60.3047 36.7148C60.194 36.5911 60.1419 36.4479 60.1484 36.2852C60.1549 36.1224 60.22 35.9857 60.3437 35.875C60.4609 35.7708 60.6009 35.722 60.7637 35.7285C60.9264 35.735 61.0631 35.7969 61.1738 35.9141C62.3913 37.2552 63 38.8307 63 40.6406ZM63 36.1973C63 36.36 62.9414 36.5 62.8242 36.6172C62.7135 36.7279 62.5768 36.7832 62.414 36.7832L56.2226 36.7832L56.2226 41.6855C56.2226 41.8483 56.1673 41.9883 56.0566 42.1055C55.9394 42.2227 55.7995 42.2812 55.6367 42.2812C55.4739 42.2812 55.3372 42.2227 55.2266 42.1055C55.1094 41.9883 55.0508 41.8483 55.0508 41.6855L55.0508 36.1973C55.0508 36.0345 55.1094 35.8945 55.2265 35.7773C55.3372 35.6667 55.4739 35.6113 55.6367 35.6113L62.414 35.6113C62.5768 35.6113 62.7135 35.6667 62.8242 35.7773C62.9414 35.8945 63 36.0345 63 36.1973ZM63 23.7266C63 23.5638 62.9414 23.4271 62.8242 23.3164C62.7135 23.1992 62.5768 23.1406 62.414 23.1406C62.2513 23.1406 62.1146 23.1992 62.0039 23.3164C61.8867 23.4271 61.8281 23.5638 61.8281 23.7266L61.8281 30.8945L56.5742 30.8945L56.5742 25.5332C56.5742 25.3704 56.5156 25.2337 56.3984 25.123C56.2877 25.0059 56.151 24.9473 55.9883 24.9473C55.8255 24.9473 55.6888 25.0059 55.5781 25.123C55.4609 25.2337 55.4023 25.3704 55.4023 25.5332L55.4023 30.8945L50.1484 30.8945L50.168 23.7266C50.168 23.5638 50.1126 23.4271 50.0019 23.3164C49.8848 23.1992 49.7448 23.1406 49.582 23.1406C49.4258 23.1406 49.289 23.1992 49.1719 23.3164C49.0547 23.4271 48.9961 23.5638 48.9961 23.7266L48.9765 31.4805C48.97 31.6367 49.0286 31.7734 49.1523 31.8906C49.263 32.0078 49.3997 32.0664 49.5625 32.0664L62.414 32.0664C62.5768 32.0664 62.7135 32.0078 62.8242 31.8906C62.9414 31.7799 63 31.6432 63 31.4805L63 23.7266ZM52.7851 12.3105C53.4948 12.3105 54.1035 12.5905 54.6113 13.1504C55.1191 13.7038 55.3795 14.3776 55.3926 15.1719L55.3926 19.0781L50.168 19.0781L50.168 15.2402C50.168 14.4329 50.4251 13.7428 50.9394 13.1699C51.4473 12.597 52.0625 12.3105 52.7851 12.3105ZM49.0156 19.6641C49.0156 19.8203 49.071 19.957 49.1816 20.0742C49.2923 20.1849 49.429 20.2402 49.5918 20.2402L62.3262 20.2402C62.4824 20.2402 62.6191 20.1849 62.7363 20.0742C62.847 19.957 62.9023 19.8203 62.9023 19.6641C62.9023 19.5013 62.847 19.3646 62.7363 19.2539C62.6191 19.1367 62.4824 19.0781 62.3262 19.0781L56.5547 19.0781L56.5547 15.8164L62.6777 12.7988C62.8926 12.6947 63 12.5221 63 12.2812C63 12.1901 62.9805 12.1055 62.9414 12.0273C62.8698 11.8841 62.7591 11.7865 62.6094 11.7344C62.4596 11.6823 62.3131 11.6921 62.1699 11.7637L56.4961 14.5469C56.3463 13.5768 55.9232 12.7728 55.2265 12.1348C54.5234 11.4837 53.7096 11.1582 52.7851 11.1582C51.7435 11.1582 50.8548 11.5553 50.1191 12.3496C49.3834 13.1504 49.0156 14.1139 49.0156 15.2402L49.0156 19.6641ZM49.0742 7.04687C49.1588 7.18359 49.276 7.27148 49.4258 7.31055C49.582 7.34961 49.7318 7.32682 49.875 7.24219C51.6068 6.20052 53.6478 5.67969 55.998 5.67969C58.3483 5.67969 60.3893 6.20052 62.1211 7.24219C62.2578 7.32682 62.4043 7.34961 62.5605 7.31055C62.7168 7.27148 62.834 7.18359 62.9121 7.04687C62.9707 6.95573 63 6.85482 63 6.74414C63 6.5293 62.9056 6.36328 62.7168 6.24609C60.8027 5.09375 58.5631 4.51758 55.998 4.51758C53.4329 4.51758 51.1901 5.09375 49.2695 6.24609C49.1328 6.33073 49.0449 6.45117 49.0058 6.60742C48.9668 6.76367 48.9896 6.91016 49.0742 7.04687Z" fill="white"/>
<path d="M38 351V501" stroke="white" stroke-width="2"/>
</svg>
