<svg width="68" height="564" viewBox="0 0 68 564" fill="none" xmlns="http://www.w3.org/2000/svg">
<path d="M6.49316 352.718C6.40202 352.98 6.41911 353.236 6.54443 353.487C6.66976 353.749 6.86344 353.925 7.12549 354.017L26.8813 360.955L7.12549 367.894C7.15967 367.871 7.14258 367.876 7.07422 367.911C7.04004 367.922 7.00586 367.939 6.97168 367.962C6.94889 367.973 6.92611 367.99 6.90332 368.013C6.86914 368.025 6.84066 368.042 6.81787 368.064C6.79508 368.087 6.7723 368.11 6.74951 368.133C6.72672 368.156 6.70394 368.178 6.68115 368.201C6.65837 368.235 6.63558 368.264 6.61279 368.287C6.6014 368.309 6.58431 368.338 6.56152 368.372C6.55013 368.395 6.53874 368.423 6.52734 368.458C6.51595 368.469 6.51025 368.48 6.51025 368.492C6.49886 368.503 6.49316 368.509 6.49316 368.509C6.50456 368.497 6.50456 368.514 6.49316 368.56C6.48177 368.583 6.47038 368.617 6.45898 368.663C6.45898 368.708 6.45329 368.737 6.44189 368.748C6.44189 368.771 6.44189 368.805 6.44189 368.851C6.44189 368.896 6.44189 368.93 6.44189 368.953C6.45329 368.976 6.45898 369.01 6.45898 369.056C6.47038 369.09 6.48177 369.124 6.49316 369.158C6.50456 369.204 6.50456 369.215 6.49316 369.192C6.48177 369.147 6.49316 369.164 6.52734 369.244C6.53874 369.278 6.55013 369.306 6.56152 369.329C6.57292 369.363 6.59001 369.397 6.61279 369.432C6.63558 369.454 6.65837 369.477 6.68115 369.5C6.70394 369.523 6.72672 369.546 6.74951 369.568C6.7609 369.591 6.78369 369.614 6.81787 369.637C6.84066 369.66 6.86914 369.682 6.90332 369.705C6.92611 369.716 6.94889 369.734 6.97168 369.756C7.00586 369.768 7.04004 369.779 7.07422 369.791C7.14258 369.825 7.15967 369.836 7.12549 369.825L26.8813 376.763L7.12549 383.685C6.86344 383.787 6.66976 383.964 6.54443 384.214C6.41911 384.465 6.40202 384.727 6.49316 385C6.58431 385.263 6.7609 385.456 7.02295 385.582C7.2736 385.707 7.53564 385.718 7.80908 385.616L30.3164 377.72C30.305 377.72 30.3278 377.709 30.3848 377.686C30.4076 377.675 30.4246 377.669 30.436 377.669C30.4816 377.646 30.5215 377.623 30.5557 377.601C30.5671 377.589 30.5728 377.583 30.5728 377.583C30.5841 377.583 30.5898 377.578 30.5898 377.566C30.6354 377.532 30.681 377.492 30.7266 377.447C30.7152 377.458 30.7266 377.447 30.7607 377.413C30.7835 377.378 30.8063 377.344 30.8291 377.31C30.8405 377.299 30.8519 377.282 30.8633 377.259C30.8861 377.213 30.9089 377.168 30.9316 377.122C30.9316 377.122 30.9316 377.116 30.9316 377.105C30.9316 377.105 30.9373 377.099 30.9487 377.088C30.9373 377.099 30.9373 377.099 30.9487 377.088C30.9601 377.054 30.9715 377.014 30.9829 376.968C30.9829 376.923 30.9829 376.906 30.9829 376.917C30.9943 376.86 31 376.809 31 376.763C31 376.706 30.9943 376.649 30.9829 376.592C30.9829 376.604 30.9829 376.587 30.9829 376.541C30.9715 376.495 30.9601 376.461 30.9487 376.438C30.9373 376.416 30.9373 376.41 30.9487 376.421C30.9373 376.41 30.9316 376.404 30.9316 376.404C30.9316 376.393 30.9316 376.387 30.9316 376.387C30.9089 376.342 30.8861 376.296 30.8633 376.25C30.8519 376.239 30.8405 376.222 30.8291 376.199C30.8063 376.165 30.7835 376.131 30.7607 376.097C30.7266 376.062 30.7152 376.051 30.7266 376.062C30.681 376.017 30.6354 375.977 30.5898 375.943C30.5898 375.943 30.5841 375.937 30.5728 375.926C30.5728 375.926 30.5671 375.926 30.5557 375.926C30.5215 375.892 30.4816 375.863 30.436 375.84C30.4246 375.84 30.4076 375.835 30.3848 375.823C30.3278 375.8 30.305 375.789 30.3164 375.789L10.5605 368.851L30.3164 361.912C30.305 361.912 30.3278 361.906 30.3848 361.895C30.4076 361.872 30.4246 361.861 30.436 361.861C30.4816 361.838 30.5215 361.815 30.5557 361.792C30.5671 361.792 30.5728 361.787 30.5728 361.775C30.5841 361.775 30.5898 361.775 30.5898 361.775C30.6354 361.73 30.681 361.684 30.7266 361.639C30.7152 361.65 30.7266 361.639 30.7607 361.604C30.7835 361.57 30.8063 361.536 30.8291 361.502C30.8405 361.491 30.8519 361.473 30.8633 361.451C30.8861 361.417 30.9089 361.371 30.9316 361.314C30.9316 361.303 30.9373 361.297 30.9487 361.297C30.9373 361.297 30.9373 361.291 30.9487 361.28C30.9601 361.246 30.9715 361.206 30.9829 361.16C30.9829 361.115 30.9829 361.097 30.9829 361.109C30.9943 361.052 31 361.001 31 360.955C31 360.898 30.9943 360.841 30.9829 360.784C30.9829 360.796 30.9829 360.778 30.9829 360.733C30.9715 360.687 30.9601 360.653 30.9487 360.63C30.9373 360.619 30.9373 360.613 30.9487 360.613C30.9373 360.613 30.9316 360.608 30.9316 360.596C30.9316 360.585 30.9316 360.579 30.9316 360.579C30.9089 360.534 30.8861 360.494 30.8633 360.459C30.8519 360.437 30.8405 360.42 30.8291 360.408C30.8063 360.363 30.7835 360.323 30.7607 360.289C30.7266 360.254 30.7152 360.243 30.7266 360.254C30.681 360.209 30.6354 360.169 30.5898 360.135C30.5898 360.135 30.5841 360.129 30.5728 360.118C30.5728 360.118 30.5671 360.118 30.5557 360.118C30.5215 360.083 30.4816 360.055 30.436 360.032C30.4246 360.032 30.4076 360.027 30.3848 360.015C30.3278 359.992 30.305 359.981 30.3164 359.981L7.80908 352.085C7.53564 351.994 7.2736 352.006 7.02295 352.12C6.7609 352.245 6.58431 352.444 6.49316 352.718ZM8.52685 336.893C8.52685 334.078 9.52946 331.674 11.5347 329.681C13.5285 327.675 15.9325 326.673 18.7466 326.673C21.5607 326.673 23.9647 327.675 25.9585 329.681C27.9523 331.674 28.9492 334.078 28.9492 336.893C28.9492 339.707 27.9523 342.111 25.9585 344.104C23.9647 346.098 21.5607 347.095 18.7466 347.095C15.9325 347.095 13.5285 346.098 11.5347 344.104C9.52946 342.111 8.52685 339.707 8.52685 336.893ZM31 336.893C31 333.509 29.8037 330.621 27.4111 328.228C25.0186 325.835 22.1304 324.639 18.7466 324.639C15.3628 324.639 12.4746 325.835 10.082 328.228C7.68945 330.621 6.49316 333.509 6.49316 336.893C6.49316 340.276 7.68945 343.165 10.082 345.557C12.4746 347.95 15.3628 349.146 18.7466 349.146C22.1304 349.146 25.0186 347.95 27.4111 345.557C29.8037 343.165 31 340.276 31 336.893ZM13.124 304.986C14.3659 304.986 15.4311 305.476 16.3198 306.456C17.2085 307.424 17.6642 308.603 17.687 309.993L17.687 316.829L8.54394 316.829L8.54394 310.113C8.54394 308.7 8.99397 307.492 9.89404 306.49C10.7827 305.487 11.8594 304.986 13.124 304.986ZM6.52734 317.854C6.52734 318.128 6.62418 318.367 6.81787 318.572C7.01155 318.766 7.25081 318.863 7.53564 318.863L29.8208 318.863C30.0942 318.863 30.3335 318.766 30.5386 318.572C30.7323 318.367 30.8291 318.128 30.8291 317.854C30.8291 317.57 30.7323 317.33 30.5386 317.137C30.3335 316.932 30.0942 316.829 29.8208 316.829L19.7207 316.829L19.7207 311.121L30.436 305.84C30.812 305.658 31 305.356 31 304.935C31 304.775 30.9658 304.627 30.8975 304.49C30.7721 304.24 30.5784 304.069 30.3164 303.978C30.0544 303.886 29.798 303.903 29.5474 304.029L19.6182 308.899C19.3561 307.202 18.6156 305.795 17.3965 304.678C16.166 303.539 14.7419 302.969 13.124 302.969C11.3011 302.969 9.74593 303.664 8.45849 305.054C7.17106 306.456 6.52734 308.142 6.52734 310.113L6.52734 317.854ZM30.8291 296.441C30.8291 296.156 30.7266 295.917 30.5215 295.723C30.3278 295.518 30.0885 295.416 29.8037 295.416L23.2754 295.416L20.0625 292.374L30.6924 282.273C30.8975 282.068 31 281.823 31 281.539C31 281.265 30.9088 281.032 30.7266 280.838C30.5329 280.633 30.2936 280.525 30.0088 280.513C29.724 280.513 29.4847 280.61 29.291 280.804L18.5928 290.972L8.2705 281.146C8.06543 280.952 7.82047 280.861 7.53564 280.872C7.2622 280.872 7.02864 280.975 6.83496 281.18C6.64127 281.385 6.54443 281.63 6.54443 281.915C6.55582 282.188 6.66406 282.422 6.86914 282.615L20.3359 295.416L7.46728 295.416C7.19384 295.416 6.95459 295.518 6.74951 295.723C6.55582 295.917 6.45898 296.156 6.45898 296.441C6.45898 296.714 6.55582 296.954 6.74951 297.159C6.95459 297.352 7.19384 297.449 7.46728 297.449L29.8037 297.449C30.0885 297.449 30.3278 297.352 30.5215 297.159C30.7266 296.954 30.8291 296.714 30.8291 296.441ZM31 252.503C31 252.218 30.8975 251.979 30.6924 251.785C30.4987 251.58 30.2594 251.478 29.9746 251.478C29.6898 251.478 29.4505 251.58 29.2568 251.785C29.0518 251.979 28.9492 252.218 28.9492 252.503L28.9492 265.047L19.7549 265.047L19.7549 255.665C19.7549 255.38 19.6523 255.14 19.4473 254.947C19.2536 254.742 19.0143 254.639 18.7295 254.639C18.4447 254.639 18.2054 254.742 18.0117 254.947C17.8066 255.14 17.7041 255.38 17.7041 255.665L17.7041 265.047L8.50976 265.047L8.54394 252.503C8.54394 252.218 8.4471 251.979 8.25341 251.785C8.04833 251.58 7.80338 251.478 7.51855 251.478C7.24511 251.478 7.00585 251.58 6.80078 251.785C6.5957 251.979 6.49316 252.218 6.49316 252.503L6.45898 266.072C6.44759 266.346 6.55012 266.585 6.7666 266.79C6.96028 266.995 7.19954 267.098 7.48437 267.098L29.9746 267.098C30.2594 267.098 30.4987 266.995 30.6924 266.79C30.8975 266.596 31 266.357 31 266.072L31 252.503ZM6.5957 229.961C6.43619 230.189 6.37922 230.446 6.4248 230.73C6.47037 231.004 6.61279 231.226 6.85204 231.397L16.9351 238.541L6.85204 245.684C6.61279 245.844 6.47037 246.066 6.4248 246.351C6.37923 246.624 6.43619 246.88 6.5957 247.12C6.7666 247.347 6.98876 247.484 7.2622 247.53C7.54703 247.575 7.80338 247.518 8.03124 247.359L18.7124 239.788L29.3765 247.359C29.6157 247.518 29.8721 247.575 30.1455 247.53C30.4303 247.484 30.6525 247.347 30.812 247.12C30.9373 246.937 31 246.738 31 246.521C31 246.168 30.8576 245.889 30.5727 245.684L20.4726 238.541L30.5727 231.397C30.8576 231.192 31 230.913 31 230.56C31 230.343 30.9373 230.144 30.812 229.961C30.6525 229.734 30.4303 229.597 30.1455 229.551C29.8721 229.494 29.6157 229.551 29.3765 229.722L18.7124 237.276L8.03124 229.722C7.80338 229.551 7.54703 229.494 7.2622 229.551C6.98876 229.597 6.76659 229.734 6.5957 229.961ZM17.7554 222.356L8.52685 222.356L8.52685 215.589C8.52685 214.165 8.97688 212.946 9.87695 211.932C10.777 210.918 11.8651 210.411 13.1411 210.411C14.3944 210.411 15.471 210.906 16.3711 211.897C17.2598 212.877 17.7212 214.062 17.7554 215.452L17.7554 222.356ZM6.47607 223.382C6.47607 223.667 6.57861 223.906 6.78368 224.1C6.97737 224.305 7.21663 224.407 7.50146 224.407L29.9746 224.407C30.2594 224.407 30.4987 224.305 30.6924 224.1C30.8975 223.906 31 223.667 31 223.382C31 223.097 30.8975 222.858 30.6924 222.664C30.4987 222.459 30.2594 222.356 29.9746 222.356L19.7891 222.356L19.7891 215.64C19.8004 215.572 19.8061 215.555 19.8061 215.589C19.8061 215.566 19.8004 215.543 19.7891 215.521L19.7891 215.315C19.7891 215.293 19.7891 215.247 19.7891 215.179C19.6865 213.287 18.9972 211.681 17.7212 210.359C16.4337 209.038 14.9071 208.377 13.1411 208.377C11.3068 208.377 9.74023 209.078 8.4414 210.479C7.13118 211.892 6.47607 213.595 6.47607 215.589L6.47607 223.382ZM31 188.689C31 188.405 30.8975 188.165 30.6924 187.972C30.4987 187.767 30.2594 187.664 29.9746 187.664C29.6898 187.664 29.4505 187.767 29.2568 187.972C29.0517 188.165 28.9492 188.405 28.9492 188.689L28.9492 201.233L19.7549 201.233L19.7549 191.851C19.7549 191.566 19.6523 191.327 19.4473 191.133C19.2536 190.928 19.0143 190.826 18.7295 190.826C18.4447 190.826 18.2054 190.928 18.0117 191.133C17.8066 191.327 17.7041 191.566 17.7041 191.851L17.7041 201.233L8.50976 201.233L8.54394 188.689C8.54394 188.405 8.44709 188.165 8.25341 187.972C8.04833 187.767 7.80338 187.664 7.51855 187.664C7.24511 187.664 7.00585 187.767 6.80077 187.972C6.59569 188.165 6.49316 188.405 6.49316 188.689L6.45898 202.259C6.44758 202.532 6.55012 202.771 6.76659 202.977C6.96028 203.182 7.19954 203.284 7.48437 203.284L29.9746 203.284C30.2594 203.284 30.4987 203.182 30.6924 202.977C30.8975 202.783 31 202.544 31 202.259L31 188.689ZM13.124 168.711C14.3659 168.711 15.4311 169.201 16.3198 170.181C17.2085 171.15 17.6642 172.329 17.687 173.719L17.687 180.555L8.54394 180.555L8.54394 173.838C8.54394 172.426 8.99397 171.218 9.89403 170.215C10.7827 169.213 11.8594 168.711 13.124 168.711ZM6.52733 181.58C6.52733 181.854 6.62418 182.093 6.81786 182.298C7.01155 182.492 7.2508 182.588 7.53564 182.588L29.8208 182.588C30.0942 182.588 30.3335 182.492 30.5386 182.298C30.7323 182.093 30.8291 181.854 30.8291 181.58C30.8291 181.295 30.7323 181.056 30.5386 180.862C30.3335 180.657 30.0942 180.555 29.8208 180.555L19.7207 180.555L19.7207 174.847L30.436 169.566C30.812 169.384 31 169.082 31 168.66C31 168.501 30.9658 168.353 30.8975 168.216C30.7721 167.965 30.5784 167.794 30.3164 167.703C30.0544 167.612 29.798 167.629 29.5474 167.754L19.6182 172.625C19.3561 170.927 18.6156 169.52 17.3965 168.404C16.166 167.264 14.7419 166.695 13.124 166.695C11.3011 166.695 9.74592 167.39 8.45849 168.78C7.17105 170.181 6.52733 171.867 6.52733 173.838L6.52733 181.58ZM7.5869 159.09C7.30207 159.09 7.06282 159.192 6.86913 159.397C6.66405 159.591 6.56151 159.83 6.56151 160.115C6.56151 160.4 6.66405 160.639 6.86913 160.833C7.06282 161.038 7.30207 161.141 7.5869 161.141L29.9746 161.141C30.2594 161.141 30.4987 161.038 30.6924 160.833C30.8975 160.639 31 160.4 31 160.115C31 159.83 30.8975 159.591 30.6924 159.397C30.4987 159.192 30.2594 159.09 29.9746 159.09L7.5869 159.09ZM31 137.625C31 137.34 30.8975 137.101 30.6924 136.907C30.4987 136.702 30.2594 136.6 29.9746 136.6C29.6898 136.6 29.4505 136.702 29.2568 136.907C29.0517 137.101 28.9492 137.34 28.9492 137.625L28.9492 150.169L19.7549 150.169L19.7549 140.787C19.7549 140.502 19.6523 140.263 19.4473 140.069C19.2536 139.864 19.0143 139.761 18.7295 139.761C18.4447 139.761 18.2054 139.864 18.0117 140.069C17.8066 140.263 17.7041 140.502 17.7041 140.787L17.7041 150.169L8.50976 150.169L8.54393 137.625C8.54393 137.34 8.44709 137.101 8.25341 136.907C8.04833 136.702 7.80337 136.6 7.51854 136.6C7.24511 136.6 7.00585 136.702 6.80077 136.907C6.59569 137.101 6.49315 137.34 6.49315 137.625L6.45897 151.194C6.44758 151.468 6.55012 151.707 6.76659 151.912C6.96028 152.117 7.19953 152.22 7.48436 152.22L29.9746 152.22C30.2594 152.22 30.4987 152.117 30.6924 151.912C30.8975 151.718 31 151.479 31 151.194L31 137.625ZM30.6411 113.802C30.6753 113.768 30.7095 113.733 30.7436 113.699C30.7664 113.665 30.7835 113.642 30.7949 113.631C30.8177 113.597 30.8405 113.557 30.8633 113.511C30.8861 113.477 30.9031 113.454 30.9145 113.443C30.9259 113.409 30.943 113.363 30.9658 113.306C30.9772 113.261 30.9829 113.238 30.9829 113.238C30.9943 113.169 31 113.101 31 113.033C31 112.976 30.9943 112.913 30.9829 112.845C30.9829 112.833 30.9772 112.811 30.9658 112.776C30.9544 112.731 30.943 112.691 30.9316 112.657C30.9202 112.634 30.9088 112.611 30.8974 112.588C30.8861 112.554 30.869 112.52 30.8462 112.486C30.8348 112.463 30.8234 112.446 30.812 112.435C30.7778 112.389 30.7664 112.378 30.7778 112.4C30.8006 112.423 30.7892 112.406 30.7436 112.349C30.7095 112.315 30.6867 112.292 30.6753 112.281C30.6525 112.258 30.624 112.235 30.5898 112.212C30.5557 112.19 30.5272 112.173 30.5044 112.161C30.4816 112.138 30.4531 112.121 30.4189 112.11C30.3848 112.098 30.3563 112.087 30.3335 112.076C30.3107 112.064 30.2765 112.053 30.2309 112.042C30.1968 112.03 30.1683 112.024 30.1455 112.024C30.1113 112.013 30.0771 112.007 30.043 112.007C29.9746 112.007 29.9518 112.007 29.9746 112.007L7.46727 112.007C7.18244 112.007 6.94318 112.104 6.7495 112.298C6.54442 112.503 6.44188 112.748 6.44188 113.033C6.44188 113.306 6.54442 113.545 6.7495 113.75C6.94318 113.944 7.18244 114.041 7.46727 114.041L26.9839 114.041L6.83495 129.695C6.44758 129.992 6.33365 130.373 6.49315 130.84C6.65266 131.296 6.97737 131.524 7.46727 131.524L29.9746 131.524C30.2594 131.524 30.4987 131.421 30.6924 131.216C30.8974 131.023 31 130.783 31 130.499C31 130.214 30.8974 129.974 30.6924 129.781C30.4987 129.576 30.2594 129.473 29.9746 129.473L10.458 129.473L30.6069 113.836C30.6069 113.836 30.6126 113.83 30.624 113.819C30.6354 113.807 30.6411 113.802 30.6411 113.802ZM31 94.6611C31 91.4824 29.9347 88.7253 27.8042 86.3896C27.6105 86.1732 27.3712 86.0592 27.0864 86.0479C26.8016 86.0365 26.5566 86.1276 26.3515 86.3213C26.1351 86.515 26.0211 86.7542 26.0098 87.0391C25.9984 87.3239 26.0895 87.5688 26.2832 87.7739C28.0491 89.7222 28.9321 92.0179 28.9321 94.6611C28.9321 97.4753 27.9352 99.8792 25.9414 101.873C23.9476 103.867 21.5436 104.864 18.7295 104.864C15.904 104.864 13.4943 103.867 11.5005 101.873C9.50666 99.8792 8.50975 97.4753 8.50975 94.6611C8.50975 92.3369 9.21044 90.2576 10.6118 88.4233C10.7941 88.2069 10.8625 87.9562 10.8169 87.6714C10.7827 87.3866 10.6517 87.1587 10.4238 86.9878C10.2073 86.8169 9.95669 86.7485 9.67186 86.7827C9.38703 86.8169 9.15917 86.9479 8.98827 87.1758C7.29068 89.3747 6.44188 91.8698 6.44188 94.6611C6.44188 98.0449 7.64387 100.933 10.0478 103.326C12.4404 105.73 15.3343 106.932 18.7295 106.932C22.1133 106.932 25.0015 105.73 27.394 103.326C29.798 100.933 31 98.0449 31 94.6611ZM31 66.3945C31 66.1097 30.8974 65.8704 30.6924 65.6768C30.4987 65.4717 30.2594 65.3691 29.9746 65.3691C29.6898 65.3691 29.4505 65.4717 29.2568 65.6768C29.0517 65.8704 28.9492 66.1097 28.9492 66.3945L28.9492 78.9385L19.7549 78.9385L19.7549 69.5562C19.7549 69.2713 19.6523 69.0321 19.4473 68.8384C19.2536 68.6333 19.0143 68.5308 18.7295 68.5308C18.4446 68.5308 18.2054 68.6333 18.0117 68.8384C17.8066 69.0321 17.7041 69.2713 17.7041 69.5562L17.7041 78.9385L8.50975 78.9385L8.54393 66.3945C8.54393 66.1097 8.44709 65.8704 8.2534 65.6768C8.04833 65.4717 7.80337 65.3691 7.51854 65.3691C7.2451 65.3691 7.00585 65.4717 6.80077 65.6768C6.59569 65.8704 6.49315 66.1097 6.49315 66.3945L6.45897 79.9639C6.44758 80.2373 6.55012 80.4766 6.76659 80.6816C6.96027 80.8867 7.19953 80.9893 7.48436 80.9893L29.9746 80.9893C30.2594 80.9893 30.4987 80.8867 30.6924 80.6816C30.8974 80.488 31 80.2487 31 79.9639L31 66.3945Z" fill="#625573"/>
<path d="M50.1582 384.08L50.1582 381.414C50.1582 379.812 50.7246 378.442 51.8574 377.303C52.9967 376.163 54.3672 375.594 55.9687 375.594C57.5703 375.594 58.9408 376.163 60.0801 377.303C61.2129 378.442 61.7793 379.816 61.7793 381.424L61.8184 384.08L50.1582 384.08ZM63 384.656L62.9609 381.414C62.9609 379.487 62.2773 377.84 60.9102 376.473C59.543 375.105 57.8958 374.422 55.9687 374.422C54.0417 374.422 52.3945 375.105 51.0273 376.473C49.6602 377.84 48.9766 379.487 48.9766 381.414L48.9766 384.666C48.9766 384.829 49.0352 384.965 49.1523 385.076C49.2695 385.193 49.4095 385.252 49.5723 385.252L62.4141 385.252C62.5768 385.252 62.7168 385.193 62.834 385.076C62.9447 384.965 63 384.829 63 384.666L63 384.656ZM63 362.703C63 362.54 62.9414 362.404 62.8242 362.293C62.7135 362.176 62.5768 362.117 62.4141 362.117C62.2513 362.117 62.1146 362.176 62.0039 362.293C61.8867 362.404 61.8281 362.54 61.8281 362.703L61.8281 369.871L56.5742 369.871L56.5742 364.51C56.5742 364.347 56.5156 364.21 56.3984 364.1C56.2878 363.982 56.151 363.924 55.9883 363.924C55.8255 363.924 55.6888 363.982 55.5781 364.1C55.4609 364.21 55.4023 364.347 55.4023 364.51L55.4023 369.871L50.1484 369.871L50.168 362.703C50.168 362.54 50.1126 362.404 50.002 362.293C49.8848 362.176 49.7448 362.117 49.582 362.117C49.4258 362.117 49.2891 362.176 49.1719 362.293C49.0547 362.404 48.9961 362.54 48.9961 362.703L48.9766 370.457C48.9701 370.613 49.0286 370.75 49.1523 370.867C49.263 370.984 49.3997 371.043 49.5625 371.043L62.4141 371.043C62.5768 371.043 62.7135 370.984 62.8242 370.867C62.9414 370.757 63 370.62 63 370.457L63 362.703ZM49.0254 350.389C48.9733 350.545 48.9831 350.695 49.0547 350.838C49.1198 350.981 49.2305 351.079 49.3867 351.131L60.6562 355.096L49.3867 359.051C49.2305 359.103 49.1198 359.201 49.0547 359.344C48.9831 359.487 48.9733 359.637 49.0254 359.793C49.0775 359.943 49.1784 360.053 49.3281 360.125C49.4714 360.197 49.6178 360.203 49.7676 360.145L62.6094 355.643C62.6029 355.643 62.6159 355.636 62.6484 355.623C62.6615 355.617 62.6712 355.613 62.6777 355.613C62.7038 355.6 62.7266 355.584 62.7461 355.564C62.7526 355.564 62.7559 355.564 62.7559 355.564C62.7624 355.558 62.7656 355.555 62.7656 355.555C62.7917 355.535 62.8177 355.512 62.8437 355.486C62.8372 355.493 62.8437 355.486 62.8633 355.467C62.8763 355.447 62.8893 355.428 62.9023 355.408C62.9089 355.402 62.9154 355.392 62.9219 355.379C62.9349 355.353 62.9479 355.327 62.9609 355.301C62.9609 355.301 62.9609 355.298 62.9609 355.291C62.9609 355.291 62.9642 355.288 62.9707 355.281C62.9642 355.288 62.9642 355.288 62.9707 355.281C62.9772 355.262 62.9837 355.239 62.9902 355.213C62.9902 355.187 62.9902 355.177 62.9902 355.184C62.9967 355.151 63 355.122 63 355.096C63 355.063 62.9967 355.031 62.9902 354.998C62.9902 355.005 62.9902 354.995 62.9902 354.969C62.9837 354.943 62.9772 354.923 62.9707 354.91C62.9642 354.897 62.9642 354.894 62.9707 354.9C62.9642 354.894 62.9609 354.891 62.9609 354.891C62.9609 354.884 62.9609 354.881 62.9609 354.881C62.9479 354.855 62.9349 354.832 62.9219 354.812C62.9154 354.799 62.9089 354.786 62.9023 354.773C62.8893 354.754 62.8763 354.734 62.8633 354.715C62.8437 354.695 62.8372 354.689 62.8437 354.695C62.8177 354.669 62.7917 354.646 62.7656 354.627C62.7786 354.633 62.7721 354.63 62.7461 354.617C62.7266 354.598 62.7038 354.581 62.6777 354.568C62.6712 354.568 62.6615 354.565 62.6484 354.559C62.6094 354.546 62.5964 354.539 62.6094 354.539L49.7676 350.037C49.6178 349.985 49.4714 349.992 49.3281 350.057C49.1784 350.128 49.0775 350.239 49.0254 350.389ZM63 338.992C63 338.829 62.9414 338.693 62.8242 338.582C62.7135 338.465 62.5768 338.406 62.4141 338.406C62.2513 338.406 62.1146 338.465 62.0039 338.582C61.8867 338.693 61.8281 338.829 61.8281 338.992L61.8281 346.16L56.5742 346.16L56.5742 340.799C56.5742 340.636 56.5156 340.499 56.3984 340.389C56.2878 340.271 56.151 340.213 55.9883 340.213C55.8255 340.213 55.6888 340.271 55.5781 340.389C55.4609 340.499 55.4023 340.636 55.4023 340.799L55.4023 346.16L50.1484 346.16L50.168 338.992C50.168 338.829 50.1126 338.693 50.002 338.582C49.8848 338.465 49.7448 338.406 49.582 338.406C49.4258 338.406 49.2891 338.465 49.1719 338.582C49.0547 338.693 48.9961 338.829 48.9961 338.992L48.9766 346.746C48.9701 346.902 49.0286 347.039 49.1523 347.156C49.263 347.273 49.3997 347.332 49.5625 347.332L62.4141 347.332C62.5768 347.332 62.7135 347.273 62.8242 347.156C62.9414 347.046 63 346.909 63 346.746L63 338.992ZM49.0254 334.9C49.0254 335.063 49.084 335.203 49.2012 335.32C49.3118 335.431 49.4486 335.486 49.6113 335.486L62.4141 335.486C62.5768 335.486 62.7168 335.431 62.834 335.32C62.9447 335.203 63 335.063 63 334.9L63 327.986C63 327.824 62.9447 327.687 62.834 327.576C62.7168 327.459 62.5768 327.4 62.4141 327.4C62.2578 327.4 62.1211 327.459 62.0039 327.576C61.8932 327.687 61.8379 327.824 61.8379 327.986L61.8379 334.324L49.6113 334.324C49.4486 334.324 49.3118 334.38 49.2012 334.49C49.084 334.607 49.0254 334.744 49.0254 334.9ZM50.1582 318.875C50.1582 317.267 50.7311 315.893 51.8769 314.754C53.0163 313.608 54.39 313.035 55.998 313.035C57.6061 313.035 58.9798 313.608 60.1191 314.754C61.2585 315.893 61.8281 317.267 61.8281 318.875C61.8281 320.483 61.2585 321.857 60.1191 322.996C58.9798 324.135 57.6061 324.705 55.998 324.705C54.39 324.705 53.0163 324.135 51.877 322.996C50.7311 321.857 50.1582 320.483 50.1582 318.875ZM63 318.875C63 316.941 62.3164 315.291 60.9492 313.924C59.582 312.557 57.9316 311.873 55.998 311.873C54.0644 311.873 52.4141 312.557 51.0469 313.924C49.6797 315.291 48.9961 316.941 48.9961 318.875C48.9961 320.809 49.6797 322.459 51.0469 323.826C52.4141 325.193 54.0645 325.877 55.998 325.877C57.9316 325.877 59.582 325.193 60.9492 323.826C62.3164 322.459 63 320.809 63 318.875ZM55.4316 307.391L50.1582 307.391L50.1582 303.523C50.1582 302.71 50.4154 302.013 50.9297 301.434C51.444 300.854 52.0658 300.564 52.7949 300.564C53.5111 300.564 54.1263 300.848 54.6406 301.414C55.1484 301.974 55.4121 302.651 55.4316 303.445L55.4316 307.391ZM48.9863 307.977C48.9863 308.139 49.0449 308.276 49.1621 308.387C49.2728 308.504 49.4095 308.562 49.5723 308.562L62.4141 308.562C62.5768 308.562 62.7135 308.504 62.8242 308.387C62.9414 308.276 63 308.139 63 307.977C63 307.814 62.9414 307.677 62.8242 307.566C62.7135 307.449 62.5768 307.391 62.4141 307.391L56.5937 307.391L56.5937 303.553C56.6003 303.514 56.6035 303.504 56.6035 303.523C56.6035 303.51 56.6003 303.497 56.5937 303.484L56.5937 303.367C56.5937 303.354 56.5937 303.328 56.5937 303.289C56.5352 302.208 56.1413 301.29 55.4121 300.535C54.6764 299.78 53.804 299.402 52.7949 299.402C51.7467 299.402 50.8516 299.803 50.1094 300.604C49.3607 301.411 48.9863 302.384 48.9863 303.523L48.9863 307.977ZM63 288.152C63 287.99 62.9414 287.853 62.8242 287.742C62.7135 287.625 62.5768 287.566 62.4141 287.566C62.2513 287.566 62.1146 287.625 62.0039 287.742C61.8867 287.853 61.8281 287.99 61.8281 288.152L61.8281 295.32L56.5742 295.32L56.5742 289.959C56.5742 289.796 56.5156 289.66 56.3984 289.549C56.2878 289.432 56.151 289.373 55.9883 289.373C55.8255 289.373 55.6888 289.432 55.5781 289.549C55.4609 289.66 55.4023 289.796 55.4023 289.959L55.4023 295.32L50.1484 295.32L50.168 288.152C50.168 287.99 50.1126 287.853 50.0019 287.742C49.8848 287.625 49.7448 287.566 49.582 287.566C49.4258 287.566 49.2891 287.625 49.1719 287.742C49.0547 287.853 48.9961 287.99 48.9961 288.152L48.9766 295.906C48.97 296.062 49.0286 296.199 49.1523 296.316C49.263 296.434 49.3997 296.492 49.5625 296.492L62.4141 296.492C62.5768 296.492 62.7135 296.434 62.8242 296.316C62.9414 296.206 63 296.069 63 295.906L63 288.152ZM52.7852 276.736C53.4948 276.736 54.1035 277.016 54.6113 277.576C55.1191 278.13 55.3796 278.803 55.3926 279.598L55.3926 283.504L50.168 283.504L50.168 279.666C50.168 278.859 50.4251 278.169 50.9394 277.596C51.4473 277.023 52.0625 276.736 52.7852 276.736ZM49.0156 284.09C49.0156 284.246 49.071 284.383 49.1816 284.5C49.2923 284.611 49.429 284.666 49.5918 284.666L62.3262 284.666C62.4824 284.666 62.6191 284.611 62.7363 284.5C62.847 284.383 62.9023 284.246 62.9023 284.09C62.9023 283.927 62.847 283.79 62.7363 283.68C62.6191 283.562 62.4824 283.504 62.3262 283.504L56.5547 283.504L56.5547 280.242L62.6777 277.225C62.8926 277.12 63 276.948 63 276.707C63 276.616 62.9805 276.531 62.9414 276.453C62.8698 276.31 62.7591 276.212 62.6094 276.16C62.4596 276.108 62.3131 276.118 62.1699 276.189L56.4961 278.973C56.3463 278.003 55.9232 277.199 55.2266 276.561C54.5234 275.91 53.7096 275.584 52.7852 275.584C51.7435 275.584 50.8548 275.981 50.1191 276.775C49.3835 277.576 49.0156 278.54 49.0156 279.666L49.0156 284.09ZM61.8379 263.699C61.8379 264.422 61.5807 265.04 61.0664 265.555C60.5521 266.069 59.9336 266.326 59.2109 266.326C58.4883 266.326 57.8698 266.069 57.3555 265.555C56.8411 265.04 56.584 264.422 56.584 263.699C56.584 262.977 56.8411 262.358 57.3555 261.844C57.8698 261.329 58.4883 261.072 59.2109 261.072C59.9336 261.072 60.5521 261.329 61.0664 261.844C61.5807 262.358 61.8379 262.977 61.8379 263.699ZM55.4219 263.699C55.4219 264.24 55.5358 264.76 55.7637 265.262L49.7871 263.152C49.6374 263.094 49.4909 263.1 49.3477 263.172C49.1979 263.243 49.097 263.354 49.0449 263.504C48.9928 263.654 49.0026 263.8 49.0742 263.943C49.1393 264.093 49.25 264.194 49.4062 264.246L57.9902 267.283C57.9772 267.283 57.9837 267.286 58.0098 267.293C58.4069 267.423 58.8073 267.488 59.2109 267.488C60.2526 267.488 61.1445 267.117 61.8867 266.375C62.6289 265.633 63 264.741 63 263.699C63 262.651 62.6289 261.756 61.8867 261.014C61.1445 260.278 60.2526 259.91 59.2109 259.91C58.1628 259.91 57.2676 260.278 56.5254 261.014C55.7897 261.756 55.4219 262.651 55.4219 263.699ZM49.1133 242.098C49.0156 242.221 48.9766 242.365 48.9961 242.527C49.0091 242.684 49.0807 242.814 49.2109 242.918L54.8164 247.4L49.2109 251.873C49.0807 251.977 49.0091 252.111 48.9961 252.273C48.9766 252.43 49.0156 252.57 49.1133 252.693C49.2174 252.824 49.3477 252.898 49.5039 252.918C49.6667 252.931 49.8099 252.889 49.9336 252.791L55.959 247.977L62.4141 247.977C62.5768 247.977 62.7135 247.921 62.8242 247.811C62.9414 247.693 63 247.557 63 247.4C63 247.238 62.9414 247.098 62.8242 246.98C62.7135 246.87 62.5768 246.814 62.4141 246.814L55.959 246.814L49.9336 242C49.8099 241.902 49.6667 241.86 49.5039 241.873C49.3476 241.893 49.2174 241.967 49.1133 242.098ZM63 230.848C63 230.685 62.9414 230.548 62.8242 230.437C62.7135 230.32 62.5768 230.262 62.4141 230.262C62.2513 230.262 62.1146 230.32 62.0039 230.437C61.8867 230.548 61.8281 230.685 61.8281 230.848L61.8281 238.016L56.5742 238.016L56.5742 232.654C56.5742 232.492 56.5156 232.355 56.3984 232.244C56.2878 232.127 56.151 232.068 55.9883 232.068C55.8255 232.068 55.6888 232.127 55.5781 232.244C55.4609 232.355 55.4023 232.492 55.4023 232.654L55.4023 238.016L50.1484 238.016L50.168 230.848C50.168 230.685 50.1126 230.548 50.0019 230.437C49.8848 230.32 49.7448 230.262 49.582 230.262C49.4258 230.262 49.2891 230.32 49.1719 230.437C49.0547 230.548 48.9961 230.685 48.9961 230.848L48.9766 238.602C48.97 238.758 49.0286 238.895 49.1523 239.012C49.263 239.129 49.3997 239.187 49.5625 239.187L62.4141 239.187C62.5768 239.187 62.7135 239.129 62.8242 239.012C62.9414 238.901 63 238.764 63 238.602L63 230.848ZM58.5566 225.408L51.1152 222.322L58.5566 219.236L58.5566 225.408ZM62.9512 227.859C62.9837 227.788 63 227.713 63 227.635C63 227.374 62.8796 227.195 62.6387 227.098L59.7285 225.887L59.7285 218.758L62.6387 217.547C62.8795 217.449 63 217.27 63 217.01C63 216.932 62.9837 216.857 62.9512 216.785C62.8926 216.635 62.7884 216.531 62.6387 216.473C62.4889 216.408 62.3392 216.408 62.1894 216.473L58.918 217.83L58.9082 217.83L49.3672 221.785C49.3346 221.798 49.2988 221.814 49.2598 221.834C49.2663 221.834 49.2532 221.847 49.2207 221.873C49.1947 221.893 49.1784 221.906 49.1719 221.912C49.1719 221.919 49.1588 221.935 49.1328 221.961C49.1133 221.987 49.1035 222 49.1035 222C49.0579 222.065 49.0286 222.137 49.0156 222.215C49.0156 222.208 49.0156 222.225 49.0156 222.264C49.0091 222.296 49.0059 222.316 49.0059 222.322C49.0059 222.329 49.0091 222.352 49.0156 222.391C49.0156 222.423 49.0156 222.439 49.0156 222.439C49.0286 222.511 49.0579 222.579 49.1035 222.645C49.097 222.638 49.1068 222.651 49.1328 222.684C49.1523 222.71 49.1654 222.726 49.1719 222.732C49.1784 222.739 49.1947 222.752 49.2207 222.771C49.2467 222.798 49.2598 222.811 49.2598 222.811C49.2988 222.83 49.3346 222.846 49.3672 222.859L58.9082 226.814L58.918 226.814L62.1894 228.172C62.3392 228.237 62.4889 228.237 62.6387 228.172C62.7884 228.113 62.8926 228.009 62.9512 227.859ZM52.7851 205.975C53.4948 205.975 54.1035 206.255 54.6113 206.814C55.1191 207.368 55.3795 208.042 55.3926 208.836L55.3926 212.742L50.168 212.742L50.168 208.904C50.168 208.097 50.4251 207.407 50.9394 206.834C51.4473 206.261 52.0625 205.975 52.7851 205.975ZM49.0156 213.328C49.0156 213.484 49.071 213.621 49.1816 213.738C49.2923 213.849 49.429 213.904 49.5918 213.904L62.3262 213.904C62.4824 213.904 62.6191 213.849 62.7363 213.738C62.847 213.621 62.9023 213.484 62.9023 213.328C62.9023 213.165 62.847 213.029 62.7363 212.918C62.6191 212.801 62.4824 212.742 62.3262 212.742L56.5547 212.742L56.5547 209.48L62.6777 206.463C62.8926 206.359 63 206.186 63 205.945C63 205.854 62.9805 205.77 62.9414 205.691C62.8698 205.548 62.7591 205.451 62.6094 205.398C62.4596 205.346 62.3131 205.356 62.1699 205.428L56.4961 208.211C56.3463 207.241 55.9232 206.437 55.2266 205.799C54.5234 205.148 53.7096 204.822 52.7851 204.822C51.7435 204.822 50.8548 205.219 50.1191 206.014C49.3835 206.814 49.0156 207.778 49.0156 208.904L49.0156 213.328ZM63 197.537C63 198.566 62.7884 199.484 62.3652 200.291C61.8509 201.261 61.1087 201.873 60.1387 202.127C59.9889 202.166 59.8424 202.146 59.6992 202.068C59.5625 201.984 59.4746 201.863 59.4355 201.707C59.3965 201.557 59.416 201.411 59.4941 201.268C59.5788 201.131 59.696 201.043 59.8457 201.004C60.5228 200.828 61.0404 200.372 61.3984 199.637C61.6914 199.025 61.8379 198.325 61.8379 197.537C61.8379 196.684 61.5644 195.952 61.0176 195.34C60.4707 194.728 59.8034 194.402 59.0156 194.363C58.4492 194.337 57.9479 194.533 57.5117 194.949C56.9062 195.516 56.5937 196.417 56.5742 197.654C56.5742 197.817 56.5156 197.954 56.3984 198.064C56.2812 198.175 56.1445 198.23 55.9883 198.23C55.8255 198.224 55.6888 198.162 55.5781 198.045C55.4674 197.934 55.4121 197.798 55.4121 197.635C55.4381 196.072 55.8743 194.894 56.7207 194.1C57.3913 193.462 58.1725 193.165 59.0644 193.211C60.1647 193.257 61.0957 193.699 61.8574 194.539C62.6191 195.372 63 196.372 63 197.537ZM56.5742 197.713C56.5547 199.275 56.1217 200.454 55.2754 201.248C54.5983 201.886 53.8138 202.186 52.9219 202.146C51.8216 202.094 50.8906 201.648 50.1289 200.809C49.3672 199.975 48.9863 198.976 48.9863 197.811C48.9863 196.782 49.2012 195.864 49.6309 195.057C50.1387 194.087 50.8776 193.475 51.8476 193.221C52.0039 193.182 52.1504 193.201 52.2871 193.279C52.4238 193.364 52.5117 193.484 52.5508 193.641C52.5963 193.797 52.5768 193.943 52.4922 194.08C52.4141 194.217 52.2969 194.305 52.1406 194.344C51.4635 194.52 50.9492 194.975 50.5976 195.711C50.2982 196.323 50.1484 197.023 50.1484 197.811C50.1484 198.663 50.4219 199.396 50.9687 200.008C51.5156 200.62 52.1862 200.945 52.9805 200.984C53.5404 201.01 54.0384 200.815 54.4746 200.398C55.0801 199.832 55.3926 198.93 55.4121 197.693C55.4186 197.531 55.4772 197.394 55.5879 197.283C55.7051 197.173 55.845 197.117 56.0078 197.117C56.1641 197.124 56.2975 197.182 56.4082 197.293C56.5189 197.41 56.5742 197.547 56.5742 197.703L56.5742 197.713ZM59.8359 188.416C59.8359 188.572 59.8945 188.709 60.0117 188.826C60.1224 188.937 60.2591 188.992 60.4219 188.992L62.4238 188.992C62.5801 188.992 62.7168 188.937 62.834 188.826C62.9447 188.709 63 188.572 63 188.416C63 188.253 62.9447 188.113 62.834 187.996C62.7168 187.885 62.5801 187.83 62.4238 187.83L60.4219 187.83C60.2591 187.83 60.1224 187.885 60.0117 187.996C59.8945 188.113 59.8359 188.253 59.8359 188.416ZM50.1582 176.814L50.1582 174.148C50.1582 172.547 50.7246 171.176 51.8574 170.037C52.9967 168.898 54.3672 168.328 55.9687 168.328C57.5703 168.328 58.9407 168.898 60.0801 170.037C61.2129 171.176 61.7793 172.55 61.7793 174.158L61.8184 176.814L50.1582 176.814ZM63 177.391L62.9609 174.148C62.9609 172.221 62.2773 170.574 60.9101 169.207C59.543 167.84 57.8958 167.156 55.9687 167.156C54.0417 167.156 52.3945 167.84 51.0273 169.207C49.6601 170.574 48.9766 172.221 48.9766 174.148L48.9766 177.4C48.9766 177.563 49.0351 177.7 49.1523 177.811C49.2695 177.928 49.4095 177.986 49.5723 177.986L62.4141 177.986C62.5768 177.986 62.7168 177.928 62.834 177.811C62.9447 177.7 63 177.563 63 177.4L63 177.391ZM63 155.437C63 155.275 62.9414 155.138 62.8242 155.027C62.7135 154.91 62.5768 154.852 62.4141 154.852C62.2513 154.852 62.1146 154.91 62.0039 155.027C61.8867 155.138 61.8281 155.275 61.8281 155.437L61.8281 162.605L56.5742 162.605L56.5742 157.244C56.5742 157.081 56.5156 156.945 56.3984 156.834C56.2878 156.717 56.151 156.658 55.9883 156.658C55.8255 156.658 55.6888 156.717 55.5781 156.834C55.4609 156.945 55.4023 157.081 55.4023 157.244L55.4023 162.605L50.1484 162.605L50.168 155.437C50.168 155.275 50.1126 155.138 50.0019 155.027C49.8848 154.91 49.7448 154.852 49.582 154.852C49.4258 154.852 49.2891 154.91 49.1719 155.027C49.0547 155.138 48.9961 155.275 48.9961 155.437L48.9766 163.191C48.97 163.348 49.0286 163.484 49.1523 163.602C49.263 163.719 49.3997 163.777 49.5625 163.777L62.4141 163.777C62.5768 163.777 62.7135 163.719 62.8242 163.602C62.9414 163.491 63 163.354 63 163.191L63 155.437ZM63 147.811C63 148.839 62.7884 149.757 62.3652 150.564C61.8509 151.535 61.1087 152.146 60.1387 152.4C59.9889 152.439 59.8424 152.42 59.6992 152.342C59.5625 152.257 59.4746 152.137 59.4355 151.98C59.3965 151.831 59.416 151.684 59.4941 151.541C59.5788 151.404 59.696 151.316 59.8457 151.277C60.5228 151.102 61.0404 150.646 61.3984 149.91C61.6914 149.298 61.8379 148.598 61.8379 147.811C61.8379 146.958 61.5644 146.225 61.0176 145.613C60.4707 145.001 59.8034 144.676 59.0156 144.637C58.4492 144.611 57.9479 144.806 57.5117 145.223C56.9062 145.789 56.5937 146.691 56.5742 147.928C56.5742 148.09 56.5156 148.227 56.3984 148.338C56.2812 148.449 56.1445 148.504 55.9883 148.504C55.8255 148.497 55.6888 148.436 55.5781 148.318C55.4674 148.208 55.4121 148.071 55.4121 147.908C55.4381 146.346 55.8743 145.167 56.7207 144.373C57.3913 143.735 58.1725 143.439 59.0644 143.484C60.1647 143.53 61.0957 143.973 61.8574 144.812C62.6191 145.646 63 146.645 63 147.811ZM56.5742 147.986C56.5547 149.549 56.1217 150.727 55.2754 151.521C54.5983 152.16 53.8138 152.459 52.9219 152.42C51.8216 152.368 50.8906 151.922 50.1289 151.082C49.3672 150.249 48.9863 149.249 48.9863 148.084C48.9863 147.055 49.2012 146.137 49.6308 145.33C50.1387 144.36 50.8776 143.748 51.8476 143.494C52.0039 143.455 52.1504 143.475 52.2871 143.553C52.4238 143.637 52.5117 143.758 52.5508 143.914C52.5963 144.07 52.5768 144.217 52.4922 144.354C52.4141 144.49 52.2969 144.578 52.1406 144.617C51.4635 144.793 50.9492 145.249 50.5976 145.984C50.2982 146.596 50.1484 147.296 50.1484 148.084C50.1484 148.937 50.4219 149.669 50.9687 150.281C51.5156 150.893 52.1862 151.219 52.9805 151.258C53.5404 151.284 54.0384 151.089 54.4746 150.672C55.0801 150.105 55.3926 149.204 55.4121 147.967C55.4186 147.804 55.4772 147.667 55.5879 147.557C55.7051 147.446 55.845 147.391 56.0078 147.391C56.1641 147.397 56.2975 147.456 56.4082 147.566C56.5189 147.684 56.5742 147.82 56.5742 147.977L56.5742 147.986ZM49.6211 138.914C49.4583 138.914 49.3216 138.973 49.2109 139.09C49.0937 139.201 49.0351 139.337 49.0351 139.5C49.0351 139.663 49.0937 139.799 49.2109 139.91C49.3216 140.027 49.4583 140.086 49.6211 140.086L62.4141 140.086C62.5768 140.086 62.7135 140.027 62.8242 139.91C62.9414 139.799 63 139.663 63 139.5C63 139.337 62.9414 139.201 62.8242 139.09C62.7135 138.973 62.5768 138.914 62.4141 138.914L49.6211 138.914ZM63 128.758C63 130.691 62.3131 132.342 60.9394 133.709C59.5723 135.083 57.9219 135.77 55.9883 135.77C54.0547 135.77 52.401 135.083 51.0273 133.709C49.6601 132.342 48.9766 130.691 48.9766 128.758C48.9766 127.169 49.4583 125.747 50.4219 124.49C50.526 124.36 50.6562 124.285 50.8125 124.266C50.9752 124.24 51.1217 124.279 51.2519 124.383C51.3821 124.48 51.457 124.611 51.4766 124.773C51.4961 124.93 51.457 125.073 51.3594 125.203C50.5521 126.251 50.1484 127.436 50.1484 128.758C50.1484 130.366 50.7213 131.74 51.8672 132.879C53.0065 134.018 54.3802 134.588 55.9883 134.588C57.5963 134.588 58.97 134.018 60.1094 132.879C61.2487 131.74 61.8183 130.366 61.8183 128.758C61.8183 127.247 61.3138 125.939 60.3047 124.832C60.194 124.708 60.1419 124.565 60.1484 124.402C60.1549 124.24 60.22 124.103 60.3437 123.992C60.4609 123.888 60.6009 123.839 60.7637 123.846C60.9264 123.852 61.0631 123.914 61.1738 124.031C62.3913 125.372 63 126.948 63 128.758ZM63 124.314C63 124.477 62.9414 124.617 62.8242 124.734C62.7135 124.845 62.5768 124.9 62.4141 124.9L56.2226 124.9L56.2226 129.803C56.2226 129.965 56.1673 130.105 56.0566 130.223C55.9394 130.34 55.7995 130.398 55.6367 130.398C55.4739 130.398 55.3372 130.34 55.2266 130.223C55.1094 130.105 55.0508 129.965 55.0508 129.803L55.0508 124.314C55.0508 124.152 55.1094 124.012 55.2266 123.895C55.3372 123.784 55.4739 123.729 55.6367 123.729L62.4141 123.729C62.5768 123.729 62.7135 123.784 62.8242 123.895C62.9414 124.012 63 124.152 63 124.314ZM62.7949 110.027C62.8144 110.008 62.834 109.988 62.8535 109.969C62.8665 109.949 62.8763 109.936 62.8828 109.93C62.8958 109.91 62.9088 109.887 62.9219 109.861C62.9349 109.842 62.9446 109.829 62.9512 109.822C62.9577 109.803 62.9674 109.777 62.9805 109.744C62.987 109.718 62.9902 109.705 62.9902 109.705C62.9967 109.666 63 109.627 63 109.588C63 109.555 62.9967 109.52 62.9902 109.48C62.9902 109.474 62.987 109.461 62.9805 109.441C62.9739 109.415 62.9674 109.393 62.9609 109.373C62.9544 109.36 62.9479 109.347 62.9414 109.334C62.9349 109.314 62.9251 109.295 62.9121 109.275C62.9056 109.262 62.8991 109.253 62.8926 109.246C62.873 109.22 62.8665 109.214 62.873 109.227C62.8861 109.24 62.8795 109.23 62.8535 109.197C62.834 109.178 62.821 109.165 62.8144 109.158C62.8014 109.145 62.7851 109.132 62.7656 109.119C62.7461 109.106 62.7298 109.096 62.7168 109.09C62.7038 109.077 62.6875 109.067 62.668 109.061C62.6484 109.054 62.6321 109.048 62.6191 109.041C62.6061 109.035 62.5866 109.028 62.5605 109.021C62.541 109.015 62.5247 109.012 62.5117 109.012C62.4922 109.005 62.4726 109.002 62.4531 109.002C62.4141 109.002 62.401 109.002 62.4141 109.002L49.5527 109.002C49.39 109.002 49.2532 109.057 49.1426 109.168C49.0254 109.285 48.9668 109.425 48.9668 109.588C48.9668 109.744 49.0254 109.881 49.1426 109.998C49.2532 110.109 49.39 110.164 49.5527 110.164L60.7051 110.164L49.1914 119.109C48.97 119.279 48.9049 119.497 48.9961 119.764C49.0872 120.024 49.2728 120.154 49.5527 120.154L62.4141 120.154C62.5768 120.154 62.7135 120.096 62.8242 119.979C62.9414 119.868 63 119.731 63 119.568C63 119.406 62.9414 119.269 62.8242 119.158C62.7135 119.041 62.5768 118.982 62.4141 118.982L51.2617 118.982L62.7754 110.047C62.7754 110.047 62.7786 110.044 62.7851 110.037C62.7917 110.031 62.7949 110.027 62.7949 110.027ZM63 96.9805C63 96.8177 62.9414 96.681 62.8242 96.5703C62.7135 96.4531 62.5768 96.3945 62.414 96.3945C62.2513 96.3945 62.1146 96.4531 62.0039 96.5703C61.8867 96.681 61.8281 96.8177 61.8281 96.9805L61.8281 104.148L56.5742 104.148L56.5742 98.7871C56.5742 98.6243 56.5156 98.4876 56.3984 98.377C56.2877 98.2598 56.151 98.2012 55.9883 98.2012C55.8255 98.2012 55.6888 98.2598 55.5781 98.377C55.4609 98.4876 55.4023 98.6243 55.4023 98.7871L55.4023 104.148L50.1484 104.148L50.168 96.9805C50.168 96.8177 50.1126 96.681 50.0019 96.5703C49.8848 96.4531 49.7448 96.3945 49.582 96.3945C49.4258 96.3945 49.289 96.4531 49.1719 96.5703C49.0547 96.681 48.9961 96.8177 48.9961 96.9805L48.9766 104.734C48.97 104.891 49.0286 105.027 49.1523 105.145C49.263 105.262 49.3997 105.32 49.5625 105.32L62.4141 105.32C62.5768 105.32 62.7135 105.262 62.8242 105.145C62.9414 105.034 63 104.897 63 104.734L63 96.9805ZM52.7851 85.5645C53.4948 85.5645 54.1035 85.8444 54.6113 86.4043C55.1191 86.9577 55.3795 87.6315 55.3926 88.4258L55.3926 92.332L50.168 92.332L50.168 88.4941C50.168 87.6868 50.4251 86.9967 50.9394 86.4238C51.4473 85.8509 52.0625 85.5645 52.7851 85.5645ZM49.0156 92.918C49.0156 93.0742 49.071 93.2109 49.1816 93.3281C49.2923 93.4388 49.429 93.4941 49.5918 93.4941L62.3262 93.4941C62.4824 93.4941 62.6191 93.4388 62.7363 93.3281C62.847 93.2109 62.9023 93.0742 62.9023 92.918C62.9023 92.7552 62.847 92.6185 62.7363 92.5078C62.6191 92.3906 62.4824 92.332 62.3262 92.332L56.5547 92.332L56.5547 89.0703L62.6777 86.0527C62.8926 85.9486 63 85.776 63 85.5352C63 85.444 62.9805 85.3594 62.9414 85.2812C62.8698 85.138 62.7591 85.0404 62.6094 84.9883C62.4596 84.9362 62.3131 84.946 62.1699 85.0176L56.4961 87.8008C56.3463 86.8307 55.9232 86.0267 55.2265 85.3887C54.5234 84.7376 53.7096 84.4121 52.7851 84.4121C51.7435 84.4121 50.8548 84.8092 50.1191 85.6035C49.3835 86.4043 49.0156 87.3678 49.0156 88.4941L49.0156 92.918ZM55.3926 72.498C55.3926 73.2272 55.1321 73.849 54.6113 74.3633C54.097 74.8776 53.4785 75.1348 52.7558 75.1348C52.0267 75.1348 51.4049 74.8776 50.8906 74.3633C50.3763 73.849 50.1191 73.2272 50.1191 72.498C50.1191 71.7754 50.3763 71.1536 50.8906 70.6328C51.4049 70.1185 52.0267 69.8613 52.7558 69.8613C53.4785 69.8613 54.097 70.1185 54.6113 70.6328C55.1321 71.1536 55.3926 71.7754 55.3926 72.498ZM59.1914 69.8613C59.9206 69.8613 60.5423 70.1185 61.0566 70.6328C61.5709 71.1536 61.8281 71.7754 61.8281 72.498C61.8281 73.2272 61.5709 73.849 61.0566 74.3633C60.5423 74.8776 59.9206 75.1348 59.1914 75.1348C58.4687 75.1348 57.847 74.8776 57.3262 74.3633C56.8118 73.849 56.5547 73.2272 56.5547 72.498C56.5547 71.7754 56.8118 71.1536 57.3262 70.6328C57.847 70.1185 58.4687 69.8613 59.1914 69.8613ZM52.7558 68.6992C51.7012 68.6992 50.8027 69.0703 50.0605 69.8125C49.3183 70.5547 48.9473 71.4499 48.9473 72.498C48.9473 73.5462 49.3183 74.4447 50.0605 75.1934C50.8027 75.9355 51.7012 76.3066 52.7558 76.3066C53.4199 76.3066 54.0417 76.1439 54.6211 75.8184C55.181 75.4993 55.6302 75.0664 55.9687 74.5195C56.3138 75.0664 56.7663 75.4993 57.3262 75.8184C57.9056 76.1439 58.5273 76.3066 59.1914 76.3066C60.2396 76.3066 61.138 75.9355 61.8867 75.1934C62.6289 74.4447 63 73.5462 63 72.498C63 71.4499 62.6289 70.5547 61.8867 69.8125C61.138 69.0703 60.2396 68.6992 59.1914 68.6992C58.5273 68.6992 57.9056 68.862 57.3262 69.1875C56.7663 69.5065 56.3138 69.9395 55.9687 70.4863C55.6302 69.9395 55.181 69.5065 54.6211 69.1875C54.0417 68.862 53.4199 68.6992 52.7558 68.6992ZM49.1133 50.9258C49.0156 51.0495 48.9765 51.1927 48.9961 51.3555C49.0091 51.5117 49.0807 51.6419 49.2109 51.7461L54.8164 56.2285L49.2109 60.7012C49.0807 60.8053 49.0091 60.9388 48.9961 61.1016C48.9765 61.2578 49.0156 61.3978 49.1133 61.5215C49.2174 61.6517 49.3476 61.7266 49.5039 61.7461C49.6667 61.7591 49.8099 61.7168 49.9336 61.6191L55.959 56.8047L62.414 56.8047C62.5768 56.8047 62.7135 56.7493 62.8242 56.6387C62.9414 56.5215 63 56.3848 63 56.2285C63 56.0658 62.9414 55.9258 62.8242 55.8086C62.7135 55.6979 62.5768 55.6426 62.414 55.6426L55.959 55.6426L49.9336 50.8281C49.8099 50.7305 49.6667 50.6882 49.5039 50.7012C49.3476 50.7207 49.2174 50.7956 49.1133 50.9258ZM63 39.6758C63 39.513 62.9414 39.3763 62.8242 39.2656C62.7135 39.1484 62.5768 39.0898 62.414 39.0898C62.2513 39.0898 62.1146 39.1484 62.0039 39.2656C61.8867 39.3763 61.8281 39.513 61.8281 39.6758L61.8281 46.8437L56.5742 46.8437L56.5742 41.4824C56.5742 41.3197 56.5156 41.1829 56.3984 41.0723C56.2877 40.9551 56.151 40.8965 55.9883 40.8965C55.8255 40.8965 55.6888 40.9551 55.5781 41.0723C55.4609 41.1829 55.4023 41.3197 55.4023 41.4824L55.4023 46.8437L50.1484 46.8437L50.168 39.6758C50.168 39.513 50.1126 39.3763 50.0019 39.2656C49.8848 39.1484 49.7448 39.0898 49.582 39.0898C49.4258 39.0898 49.289 39.1484 49.1719 39.2656C49.0547 39.3763 48.9961 39.513 48.9961 39.6758L48.9765 47.4297C48.97 47.5859 49.0286 47.7227 49.1523 47.8398C49.263 47.957 49.3997 48.0156 49.5625 48.0156L62.414 48.0156C62.5768 48.0156 62.7135 47.957 62.8242 47.8398C62.9414 47.7292 63 47.5924 63 47.4297L63 39.6758ZM58.5566 34.2363L51.1152 31.1504L58.5566 28.0645L58.5566 34.2363ZM62.9512 36.6875C62.9837 36.6159 63 36.541 63 36.4629C63 36.2025 62.8795 36.0234 62.6387 35.9258L59.7285 34.7148L59.7285 27.5859L62.6387 26.375C62.8795 26.2773 63 26.0983 63 25.8379C63 25.7598 62.9837 25.6849 62.9512 25.6133C62.8926 25.4635 62.7884 25.3594 62.6387 25.3008C62.4889 25.2357 62.3392 25.2357 62.1894 25.3008L58.918 26.6582L58.9082 26.6582L49.3672 30.6133C49.3346 30.6263 49.2988 30.6426 49.2598 30.6621C49.2663 30.6621 49.2532 30.6751 49.2207 30.7012C49.1946 30.7207 49.1784 30.7337 49.1719 30.7402C49.1719 30.7467 49.1588 30.763 49.1328 30.7891C49.1133 30.8151 49.1035 30.8281 49.1035 30.8281C49.0579 30.8932 49.0286 30.9648 49.0156 31.043C49.0156 31.0365 49.0156 31.0527 49.0156 31.0918C49.0091 31.1243 49.0058 31.1439 49.0058 31.1504C49.0058 31.1569 49.0091 31.1797 49.0156 31.2187C49.0156 31.2513 49.0156 31.2676 49.0156 31.2676C49.0286 31.3392 49.0579 31.4076 49.1035 31.4727C49.097 31.4661 49.1068 31.4792 49.1328 31.5117C49.1523 31.5378 49.1653 31.554 49.1719 31.5605C49.1784 31.5671 49.1946 31.5801 49.2207 31.5996C49.2467 31.6257 49.2598 31.6387 49.2598 31.6387C49.2988 31.6582 49.3346 31.6745 49.3672 31.6875L58.9082 35.6426L58.918 35.6426L62.1894 37C62.3392 37.0651 62.4889 37.0651 62.6387 37C62.7884 36.9414 62.8926 36.8372 62.9512 36.6875ZM52.7851 14.8027C53.4948 14.8027 54.1035 15.0827 54.6113 15.6426C55.1191 16.196 55.3795 16.8698 55.3926 17.6641L55.3926 21.5703L50.168 21.5703L50.168 17.7324C50.168 16.9251 50.4251 16.235 50.9394 15.6621C51.4472 15.0892 52.0625 14.8027 52.7851 14.8027ZM49.0156 22.1562C49.0156 22.3125 49.0709 22.4492 49.1816 22.5664C49.2923 22.6771 49.429 22.7324 49.5918 22.7324L62.3262 22.7324C62.4824 22.7324 62.6191 22.6771 62.7363 22.5664C62.847 22.4492 62.9023 22.3125 62.9023 22.1562C62.9023 21.9935 62.847 21.8568 62.7363 21.7461C62.6191 21.6289 62.4824 21.5703 62.3262 21.5703L56.5547 21.5703L56.5547 18.3086L62.6777 15.291C62.8926 15.1868 63 15.0143 63 14.7734C63 14.6823 62.9805 14.5977 62.9414 14.5195C62.8698 14.3763 62.7591 14.2786 62.6094 14.2266C62.4596 14.1745 62.3131 14.1842 62.1699 14.2559L56.4961 17.0391C56.3463 16.069 55.9232 15.265 55.2265 14.627C54.5234 13.9759 53.7096 13.6504 52.7851 13.6504C51.7435 13.6504 50.8548 14.0475 50.1191 14.8418C49.3834 15.6426 49.0156 16.6061 49.0156 17.7324L49.0156 22.1562ZM63 6.36523C63 7.39388 62.7884 8.31185 62.3652 9.11914C61.8509 10.0892 61.1087 10.7012 60.1387 10.9551C59.9889 10.9941 59.8424 10.9746 59.6992 10.8965C59.5625 10.8118 59.4746 10.6914 59.4355 10.5352C59.3965 10.3854 59.416 10.2389 59.4941 10.0957C59.5788 9.95898 59.6959 9.87109 59.8457 9.83203C60.5228 9.65625 61.0403 9.20052 61.3984 8.46484C61.6914 7.85286 61.8379 7.15299 61.8379 6.36523C61.8379 5.51237 61.5644 4.77995 61.0176 4.16797C60.4707 3.55599 59.8034 3.23047 59.0156 3.19141C58.4492 3.16536 57.9479 3.36068 57.5117 3.77734C56.9062 4.34375 56.5937 5.24544 56.5742 6.48242C56.5742 6.64518 56.5156 6.7819 56.3984 6.89258C56.2812 7.00325 56.1445 7.05859 55.9883 7.05859C55.8255 7.05208 55.6888 6.99023 55.5781 6.87305C55.4674 6.76237 55.4121 6.62565 55.4121 6.46289C55.4381 4.90039 55.8743 3.722 56.7207 2.92773C57.3913 2.28971 58.1725 1.99349 59.0644 2.03906C60.1647 2.08463 61.0957 2.52734 61.8574 3.36719C62.6191 4.20052 63 5.19987 63 6.36523ZM56.5742 6.54102C56.5547 8.10352 56.1217 9.2819 55.2754 10.0762C54.5983 10.7142 53.8138 11.0137 52.9219 10.9746C51.8216 10.9225 50.8906 10.4766 50.1289 9.63672C49.3672 8.80339 48.9863 7.80404 48.9863 6.63867C48.9863 5.61003 49.2012 4.69206 49.6308 3.88477C50.1387 2.91471 50.8776 2.30273 51.8476 2.04883C52.0039 2.00977 52.1504 2.0293 52.2871 2.10742C52.4238 2.19206 52.5117 2.3125 52.5508 2.46875C52.5963 2.625 52.5768 2.77148 52.4922 2.9082C52.414 3.04492 52.2969 3.13281 52.1406 3.17187C51.4635 3.34766 50.9492 3.80339 50.5976 4.53906C50.2982 5.15104 50.1484 5.85091 50.1484 6.63867C50.1484 7.49154 50.4219 8.22396 50.9687 8.83594C51.5156 9.44792 52.1862 9.77344 52.9805 9.8125C53.5403 9.83854 54.0384 9.64323 54.4746 9.22656C55.0801 8.66016 55.3926 7.75846 55.4121 6.52148C55.4186 6.35872 55.4772 6.222 55.5879 6.11133C55.7051 6.00065 55.845 5.94531 56.0078 5.94531C56.164 5.95182 56.2975 6.01042 56.4082 6.12109C56.5189 6.23828 56.5742 6.375 56.5742 6.53125L56.5742 6.54102Z" fill="white"/>
<path d="M38 414V564" stroke="white" stroke-width="2"/>
</svg>
