<svg width="68" height="402" viewBox="0 0 68 402" fill="none" xmlns="http://www.w3.org/2000/svg">
<path d="M13.124 209.294C14.3659 209.294 15.4312 209.784 16.3198 210.764C17.2085 211.733 17.6642 212.912 17.687 214.302L17.687 221.138L8.54395 221.138L8.54394 214.421C8.54394 213.009 8.99398 211.801 9.89404 210.798C10.7827 209.796 11.8594 209.294 13.124 209.294ZM6.52734 222.163C6.52734 222.437 6.62419 222.676 6.81787 222.881C7.01156 223.075 7.25081 223.171 7.53564 223.171L29.8208 223.171C30.0942 223.171 30.3335 223.075 30.5386 222.881C30.7323 222.676 30.8291 222.437 30.8291 222.163C30.8291 221.878 30.7323 221.639 30.5386 221.445C30.3335 221.24 30.0942 221.138 29.8208 221.138L19.7207 221.138L19.7207 215.43L30.436 210.149C30.812 209.967 31 209.665 31 209.243C31 209.084 30.9658 208.936 30.8975 208.799C30.7721 208.548 30.5784 208.377 30.3164 208.286C30.0544 208.195 29.798 208.212 29.5474 208.337L19.6182 213.208C19.3561 211.51 18.6156 210.103 17.3965 208.987C16.166 207.847 14.7419 207.278 13.124 207.278C11.3011 207.278 9.74593 207.973 8.4585 209.363C7.17106 210.764 6.52734 212.45 6.52734 214.421L6.52734 222.163ZM31 187.402C31 187.118 30.8975 186.878 30.6924 186.685C30.4987 186.479 30.2594 186.377 29.9746 186.377C29.6898 186.377 29.4505 186.479 29.2568 186.685C29.0518 186.878 28.9492 187.118 28.9492 187.402L28.9492 199.946L19.7549 199.946L19.7549 190.564C19.7549 190.279 19.6523 190.04 19.4473 189.846C19.2536 189.641 19.0143 189.539 18.7295 189.539C18.4447 189.539 18.2054 189.641 18.0117 189.846C17.8066 190.04 17.7041 190.279 17.7041 190.564L17.7041 199.946L8.50976 199.946L8.54394 187.402C8.54394 187.118 8.4471 186.878 8.25342 186.685C8.04834 186.479 7.80338 186.377 7.51855 186.377C7.24512 186.377 7.00586 186.479 6.80078 186.685C6.5957 186.878 6.49316 187.118 6.49316 187.402L6.45898 200.972C6.44759 201.245 6.55013 201.484 6.7666 201.689C6.96029 201.895 7.19954 201.997 7.48437 201.997L29.9746 201.997C30.2594 201.997 30.4987 201.895 30.6924 201.689C30.8975 201.496 31 201.257 31 200.972L31 187.402ZM31 174.055C31 175.855 30.6297 177.462 29.8892 178.875C28.9891 180.572 27.6903 181.643 25.9927 182.087C25.7306 182.156 25.4743 182.122 25.2236 181.985C24.9844 181.837 24.8306 181.626 24.7622 181.353C24.6938 181.09 24.728 180.834 24.8647 180.583C25.0129 180.344 25.2179 180.19 25.48 180.122C26.6649 179.814 27.5706 179.017 28.1973 177.729C28.71 176.659 28.9663 175.434 28.9663 174.055C28.9663 172.563 28.4878 171.281 27.5308 170.21C26.5737 169.139 25.4059 168.569 24.0273 168.501C23.0361 168.455 22.1589 168.797 21.3955 169.526C20.3359 170.518 19.7891 172.096 19.7549 174.26C19.7549 174.545 19.6523 174.784 19.4473 174.978C19.2422 175.172 19.0029 175.269 18.7295 175.269C18.4447 175.257 18.2054 175.149 18.0117 174.944C17.818 174.75 17.7212 174.511 17.7212 174.226C17.7668 171.492 18.5301 169.43 20.0112 168.04C21.1847 166.923 22.5519 166.405 24.1128 166.484C26.0382 166.564 27.6675 167.339 29.0005 168.809C30.3335 170.267 31 172.016 31 174.055ZM19.7549 174.363C19.7207 177.097 18.9631 179.159 17.4819 180.549C16.297 181.666 14.9242 182.19 13.3633 182.122C11.4378 182.03 9.80859 181.25 8.47558 179.78C7.14258 178.322 6.47607 176.573 6.47607 174.534C6.47607 172.734 6.85205 171.127 7.604 169.714C8.49267 168.017 9.7858 166.946 11.4834 166.501C11.7568 166.433 12.0132 166.467 12.2524 166.604C12.4917 166.752 12.6455 166.963 12.7139 167.236C12.7936 167.51 12.7594 167.766 12.6113 168.005C12.4746 168.245 12.2695 168.398 11.9961 168.467C10.8112 168.774 9.91113 169.572 9.2959 170.859C8.77181 171.93 8.50976 173.155 8.50976 174.534C8.50976 176.026 8.98828 177.308 9.94531 178.379C10.9023 179.45 12.0758 180.02 13.4658 180.088C14.4456 180.133 15.3172 179.792 16.0806 179.062C17.1401 178.071 17.687 176.493 17.7212 174.329C17.7326 174.044 17.8351 173.805 18.0288 173.611C18.2339 173.417 18.4788 173.32 18.7637 173.32C19.0371 173.332 19.2707 173.434 19.4644 173.628C19.658 173.833 19.7549 174.072 19.7549 174.346L19.7549 174.363ZM7.58691 158.486C7.30208 158.486 7.06282 158.589 6.86914 158.794C6.66406 158.988 6.56152 159.227 6.56152 159.512C6.56152 159.797 6.66406 160.036 6.86914 160.229C7.06282 160.435 7.30208 160.537 7.58691 160.537L29.9746 160.537C30.2594 160.537 30.4987 160.435 30.6924 160.229C30.8975 160.036 31 159.797 31 159.512C31 159.227 30.8975 158.988 30.6924 158.794C30.4987 158.589 30.2594 158.486 29.9746 158.486L7.58691 158.486ZM8.52685 149.48L8.52685 144.814C8.52685 142.012 9.51806 139.613 11.5005 137.62C13.4943 135.626 15.8926 134.629 18.6953 134.629C21.498 134.629 23.8963 135.626 25.8901 137.62C27.8726 139.613 28.8638 142.017 28.8638 144.832L28.9321 149.48L8.52685 149.48ZM31 150.488L30.9316 144.814C30.9316 141.442 29.7353 138.56 27.3428 136.167C24.9502 133.774 22.0677 132.578 18.6953 132.578C15.3229 132.578 12.4404 133.774 10.0478 136.167C7.65527 138.56 6.45898 141.442 6.45898 144.814L6.45898 150.505C6.45898 150.79 6.56152 151.029 6.7666 151.223C6.97168 151.428 7.21663 151.531 7.50146 151.531L29.9746 151.531C30.2594 151.531 30.5044 151.428 30.7095 151.223C30.9032 151.029 31 150.79 31 150.505L31 150.488ZM31 112.07C31 111.785 30.8975 111.546 30.6924 111.353C30.4987 111.147 30.2594 111.045 29.9746 111.045C29.6898 111.045 29.4505 111.147 29.2568 111.353C29.0518 111.546 28.9492 111.785 28.9492 112.07L28.9492 124.614L19.7549 124.614L19.7549 115.232C19.7549 114.947 19.6523 114.708 19.4473 114.514C19.2536 114.309 19.0143 114.207 18.7295 114.207C18.4447 114.207 18.2054 114.309 18.0117 114.514C17.8066 114.708 17.7041 114.947 17.7041 115.232L17.7041 124.614L8.50976 124.614L8.54394 112.07C8.54394 111.785 8.4471 111.546 8.25341 111.353C8.04833 111.147 7.80338 111.045 7.51855 111.045C7.24511 111.045 7.00585 111.147 6.80078 111.353C6.5957 111.546 6.49316 111.785 6.49316 112.07L6.45898 125.64C6.44759 125.913 6.55013 126.152 6.7666 126.357C6.96028 126.562 7.19954 126.665 7.48437 126.665L29.9746 126.665C30.2594 126.665 30.4987 126.562 30.6924 126.357C30.8975 126.164 31 125.924 31 125.64L31 112.07ZM30.6411 88.2471C30.6753 88.2129 30.7095 88.1787 30.7436 88.1445C30.7664 88.1104 30.7835 88.0876 30.7949 88.0762C30.8177 88.042 30.8405 88.0021 30.8633 87.9565C30.8861 87.9224 30.9032 87.8996 30.9145 87.8882C30.9259 87.854 30.943 87.8084 30.9658 87.7515C30.9772 87.7059 30.9829 87.6831 30.9829 87.6831C30.9943 87.6147 31 87.5464 31 87.478C31 87.4211 30.9943 87.3584 30.9829 87.29C30.9829 87.2786 30.9772 87.2559 30.9658 87.2217C30.9544 87.1761 30.943 87.1362 30.9316 87.102C30.9202 87.0793 30.9088 87.0565 30.8975 87.0337C30.8861 86.9995 30.869 86.9653 30.8462 86.9312C30.8348 86.9084 30.8234 86.8913 30.812 86.8799C30.7778 86.8343 30.7664 86.8229 30.7778 86.8457C30.8006 86.8685 30.7892 86.8514 30.7436 86.7944C30.7095 86.7603 30.6867 86.7375 30.6753 86.7261C30.6525 86.7033 30.624 86.6805 30.5898 86.6577C30.5557 86.6349 30.5272 86.6178 30.5044 86.6064C30.4816 86.5837 30.4531 86.5666 30.4189 86.5552C30.3848 86.5438 30.3563 86.5324 30.3335 86.521C30.3107 86.5096 30.2765 86.4982 30.231 86.4868C30.1968 86.4754 30.1683 86.4697 30.1455 86.4697C30.1113 86.4583 30.0771 86.4526 30.043 86.4526C29.9746 86.4526 29.9518 86.4526 29.9746 86.4526L7.46728 86.4526C7.18245 86.4526 6.94319 86.5495 6.74951 86.7432C6.54443 86.9482 6.44189 87.1932 6.44189 87.478C6.44189 87.7515 6.54443 87.9907 6.74951 88.1958C6.94319 88.3895 7.18245 88.4863 7.46728 88.4863L26.9839 88.4863L6.83496 104.141C6.44759 104.437 6.33365 104.819 6.49316 105.286C6.65266 105.741 6.97737 105.969 7.46728 105.969L29.9746 105.969C30.2594 105.969 30.4987 105.867 30.6924 105.662C30.8975 105.468 31 105.229 31 104.944C31 104.659 30.8975 104.42 30.6924 104.226C30.4987 104.021 30.2594 103.918 29.9746 103.918L10.458 103.918L30.6069 88.2812C30.6069 88.2812 30.6126 88.2756 30.624 88.2642C30.6354 88.2528 30.6411 88.2471 30.6411 88.2471ZM31 69.1064C31 65.9277 29.9347 63.1706 27.8042 60.835C27.6105 60.6185 27.3712 60.5046 27.0864 60.4932C26.8016 60.4818 26.5566 60.5729 26.3516 60.7666C26.1351 60.9603 26.0212 61.1995 26.0098 61.4844C25.9984 61.7692 26.0895 62.0142 26.2832 62.2192C28.0491 64.1675 28.9321 66.4632 28.9321 69.1064C28.9321 71.9206 27.9352 74.3245 25.9414 76.3184C23.9476 78.3122 21.5436 79.3091 18.7295 79.3091C15.904 79.3091 13.4943 78.3122 11.5005 76.3184C9.50667 74.3245 8.50976 71.9206 8.50976 69.1064C8.50976 66.7822 9.21044 64.703 10.6118 62.8687C10.7941 62.6522 10.8625 62.4015 10.8169 62.1167C10.7827 61.8319 10.6517 61.604 10.4238 61.4331C10.2073 61.2622 9.9567 61.1938 9.67187 61.228C9.38704 61.2622 9.15917 61.3932 8.98827 61.6211C7.29068 63.82 6.44189 66.3151 6.44189 69.1064C6.44189 72.4902 7.64387 75.3784 10.0478 77.771C12.4404 80.175 15.3343 81.377 18.7295 81.377C22.1133 81.377 25.0015 80.175 27.394 77.771C29.798 75.3784 31 72.4902 31 69.1064ZM31 40.8398C31 40.555 30.8975 40.3158 30.6924 40.1221C30.4987 39.917 30.2594 39.8145 29.9746 39.8145C29.6898 39.8145 29.4505 39.917 29.2568 40.1221C29.0517 40.3158 28.9492 40.555 28.9492 40.8398L28.9492 53.3838L19.7549 53.3838L19.7549 44.0015C19.7549 43.7166 19.6523 43.4774 19.4473 43.2837C19.2536 43.0786 19.0143 42.9761 18.7295 42.9761C18.4447 42.9761 18.2054 43.0786 18.0117 43.2837C17.8066 43.4774 17.7041 43.7166 17.7041 44.0015L17.7041 53.3838L8.50976 53.3838L8.54394 40.8398C8.54394 40.555 8.44709 40.3158 8.25341 40.1221C8.04833 39.917 7.80338 39.8145 7.51855 39.8145C7.24511 39.8145 7.00585 39.917 6.80077 40.1221C6.5957 40.3158 6.49316 40.555 6.49316 40.8398L6.45898 54.4092C6.44758 54.6826 6.55012 54.9219 6.76659 55.127C6.96028 55.332 7.19954 55.4346 7.48437 55.4346L29.9746 55.4346C30.2594 55.4346 30.4987 55.332 30.6924 55.127C30.8975 54.9333 31 54.694 31 54.4092L31 40.8398Z" fill="#625573"/>
<path d="M63 219.131C63 220.16 62.7884 221.077 62.3652 221.885C61.8509 222.855 61.1087 223.467 60.1387 223.721C59.9889 223.76 59.8424 223.74 59.6992 223.662C59.5625 223.577 59.4746 223.457 59.4355 223.301C59.3965 223.151 59.416 223.005 59.4941 222.861C59.5788 222.725 59.696 222.637 59.8457 222.598C60.5228 222.422 61.0404 221.966 61.3984 221.23C61.6914 220.618 61.8379 219.919 61.8379 219.131C61.8379 218.278 61.5645 217.546 61.0176 216.934C60.4707 216.322 59.8034 215.996 59.0156 215.957C58.4492 215.931 57.9479 216.126 57.5117 216.543C56.9062 217.109 56.5937 218.011 56.5742 219.248C56.5742 219.411 56.5156 219.548 56.3984 219.658C56.2812 219.769 56.1445 219.824 55.9883 219.824C55.8255 219.818 55.6888 219.756 55.5781 219.639C55.4674 219.528 55.4121 219.391 55.4121 219.229C55.4382 217.666 55.8743 216.488 56.7207 215.693C57.3913 215.055 58.1725 214.759 59.0645 214.805C60.1647 214.85 61.0957 215.293 61.8574 216.133C62.6191 216.966 63 217.965 63 219.131ZM56.5742 219.307C56.5547 220.869 56.1217 222.048 55.2754 222.842C54.5983 223.48 53.8138 223.779 52.9219 223.74C51.8216 223.688 50.8906 223.242 50.1289 222.402C49.3672 221.569 48.9863 220.57 48.9863 219.404C48.9863 218.376 49.2012 217.458 49.6309 216.65C50.1387 215.68 50.8776 215.068 51.8477 214.814C52.0039 214.775 52.1504 214.795 52.2871 214.873C52.4238 214.958 52.5117 215.078 52.5508 215.234C52.5964 215.391 52.5768 215.537 52.4922 215.674C52.4141 215.811 52.2969 215.898 52.1406 215.937C51.4635 216.113 50.9492 216.569 50.5977 217.305C50.2982 217.917 50.1484 218.617 50.1484 219.404C50.1484 220.257 50.4219 220.99 50.9687 221.602C51.5156 222.214 52.1862 222.539 52.9805 222.578C53.5404 222.604 54.0384 222.409 54.4746 221.992C55.0801 221.426 55.3926 220.524 55.4121 219.287C55.4186 219.124 55.4772 218.988 55.5879 218.877C55.7051 218.766 55.8451 218.711 56.0078 218.711C56.1641 218.717 56.2975 218.776 56.4082 218.887C56.5189 219.004 56.5742 219.141 56.5742 219.297L56.5742 219.307ZM63 203.125C63 202.962 62.9414 202.826 62.8242 202.715C62.7135 202.598 62.5768 202.539 62.4141 202.539C62.2513 202.539 62.1146 202.598 62.0039 202.715C61.8867 202.826 61.8281 202.962 61.8281 203.125L61.8281 210.293L56.5742 210.293L56.5742 204.932C56.5742 204.769 56.5156 204.632 56.3984 204.521C56.2878 204.404 56.151 204.346 55.9883 204.346C55.8255 204.346 55.6888 204.404 55.5781 204.521C55.4609 204.632 55.4023 204.769 55.4023 204.932L55.4023 210.293L50.1484 210.293L50.168 203.125C50.168 202.962 50.1126 202.826 50.002 202.715C49.8848 202.598 49.7448 202.539 49.582 202.539C49.4258 202.539 49.2891 202.598 49.1719 202.715C49.0547 202.826 48.9961 202.962 48.9961 203.125L48.9766 210.879C48.9701 211.035 49.0286 211.172 49.1523 211.289C49.263 211.406 49.3997 211.465 49.5625 211.465L62.4141 211.465C62.5768 211.465 62.7135 211.406 62.8242 211.289C62.9414 211.178 63 211.042 63 210.879L63 203.125ZM50.1582 193.555C50.1582 191.947 50.7311 190.573 51.877 189.434C53.0163 188.288 54.39 187.715 55.998 187.715C57.6061 187.715 58.9798 188.288 60.1191 189.434C61.2585 190.573 61.8281 191.947 61.8281 193.555C61.8281 195.163 61.2585 196.536 60.1191 197.676C58.9798 198.815 57.6061 199.385 55.998 199.385C54.39 199.385 53.0163 198.815 51.877 197.676C50.7311 196.536 50.1582 195.163 50.1582 193.555ZM63 193.555C63 191.621 62.3164 189.971 60.9492 188.604C59.582 187.236 57.9316 186.553 55.998 186.553C54.0645 186.553 52.4141 187.236 51.0469 188.604C49.6797 189.971 48.9961 191.621 48.9961 193.555C48.9961 195.488 49.6797 197.139 51.0469 198.506C52.4141 199.873 54.0645 200.557 55.998 200.557C57.9316 200.557 59.582 199.873 60.9492 198.506C62.3164 197.139 63 195.488 63 193.555ZM49.0254 174.482C49.0254 174.639 49.0807 174.772 49.1914 174.883C49.3021 174.993 49.4388 175.049 49.6016 175.049L58.2051 175.049C59.2142 175.049 60.0736 175.407 60.7832 176.123C61.4993 176.839 61.8574 177.699 61.8574 178.701C61.8574 179.71 61.4993 180.57 60.7832 181.279C60.0736 181.995 59.2142 182.354 58.2051 182.354L49.6016 182.354C49.4388 182.354 49.3021 182.409 49.1914 182.52C49.0807 182.63 49.0254 182.764 49.0254 182.92C49.0254 183.083 49.0807 183.219 49.1914 183.33C49.3021 183.441 49.4388 183.496 49.6016 183.496L58.2051 183.496C59.5267 183.496 60.6562 183.027 61.5937 182.09C62.5312 181.152 63 180.023 63 178.701C63 177.38 62.5312 176.25 61.5937 175.312C60.6562 174.375 59.5267 173.906 58.2051 173.906L49.6016 173.906C49.4388 173.906 49.3021 173.962 49.1914 174.072C49.0807 174.189 49.0254 174.326 49.0254 174.482ZM49.0254 169.521C49.0254 169.684 49.084 169.824 49.2012 169.941C49.3118 170.052 49.4486 170.107 49.6113 170.107L62.4141 170.107C62.5768 170.107 62.7168 170.052 62.834 169.941C62.9447 169.824 63 169.684 63 169.521L63 162.607C63 162.445 62.9447 162.308 62.834 162.197C62.7168 162.08 62.5768 162.021 62.4141 162.021C62.2578 162.021 62.1211 162.08 62.0039 162.197C61.8932 162.308 61.8379 162.445 61.8379 162.607L61.8379 168.945L49.6113 168.945C49.4486 168.945 49.3118 169.001 49.2012 169.111C49.084 169.229 49.0254 169.365 49.0254 169.521ZM63 151.27C63 151.107 62.9414 150.97 62.8242 150.859C62.7135 150.742 62.5768 150.684 62.4141 150.684C62.2513 150.684 62.1146 150.742 62.0039 150.859C61.8867 150.97 61.8281 151.107 61.8281 151.27L61.8281 158.437L56.5742 158.437L56.5742 153.076C56.5742 152.913 56.5156 152.777 56.3984 152.666C56.2878 152.549 56.151 152.49 55.9883 152.49C55.8255 152.49 55.6888 152.549 55.5781 152.666C55.4609 152.777 55.4023 152.913 55.4023 153.076L55.4023 158.437L50.1484 158.437L50.168 151.27C50.168 151.107 50.1126 150.97 50.0019 150.859C49.8848 150.742 49.7448 150.684 49.582 150.684C49.4258 150.684 49.2891 150.742 49.1719 150.859C49.0547 150.97 48.9961 151.107 48.9961 151.27L48.9766 159.023C48.97 159.18 49.0286 159.316 49.1523 159.434C49.263 159.551 49.3997 159.609 49.5625 159.609L62.4141 159.609C62.5768 159.609 62.7135 159.551 62.8242 159.434C62.9414 159.323 63 159.186 63 159.023L63 151.27ZM59.8359 146.357C59.8359 146.514 59.8945 146.65 60.0117 146.768C60.1224 146.878 60.2591 146.934 60.4219 146.934L62.4238 146.934C62.5801 146.934 62.7168 146.878 62.834 146.768C62.9447 146.65 63 146.514 63 146.357C63 146.195 62.9447 146.055 62.834 145.937C62.7168 145.827 62.5801 145.771 62.4238 145.771L60.4219 145.771C60.2591 145.771 60.1224 145.827 60.0117 145.937C59.8945 146.055 59.8359 146.195 59.8359 146.357ZM63 131.807C63 132.835 62.7884 133.753 62.3652 134.561C61.8509 135.531 61.1087 136.143 60.1387 136.396C59.9889 136.436 59.8424 136.416 59.6992 136.338C59.5625 136.253 59.4746 136.133 59.4355 135.977C59.3965 135.827 59.416 135.68 59.4941 135.537C59.5788 135.4 59.696 135.312 59.8457 135.273C60.5228 135.098 61.0404 134.642 61.3984 133.906C61.6914 133.294 61.8379 132.594 61.8379 131.807C61.8379 130.954 61.5644 130.221 61.0176 129.609C60.4707 128.997 59.8034 128.672 59.0156 128.633C58.4492 128.607 57.9479 128.802 57.5117 129.219C56.9062 129.785 56.5937 130.687 56.5742 131.924C56.5742 132.087 56.5156 132.223 56.3984 132.334C56.2812 132.445 56.1445 132.5 55.9883 132.5C55.8255 132.493 55.6888 132.432 55.5781 132.314C55.4674 132.204 55.4121 132.067 55.4121 131.904C55.4381 130.342 55.8743 129.163 56.7207 128.369C57.3913 127.731 58.1725 127.435 59.0644 127.48C60.1647 127.526 61.0957 127.969 61.8574 128.809C62.6191 129.642 63 130.641 63 131.807ZM56.5742 131.982C56.5547 133.545 56.1217 134.723 55.2754 135.518C54.5983 136.156 53.8138 136.455 52.9219 136.416C51.8216 136.364 50.8906 135.918 50.1289 135.078C49.3672 134.245 48.9863 133.245 48.9863 132.08C48.9863 131.051 49.2012 130.133 49.6309 129.326C50.1387 128.356 50.8776 127.744 51.8477 127.49C52.0039 127.451 52.1504 127.471 52.2871 127.549C52.4238 127.633 52.5117 127.754 52.5508 127.91C52.5963 128.066 52.5768 128.213 52.4922 128.35C52.4141 128.486 52.2969 128.574 52.1406 128.613C51.4635 128.789 50.9492 129.245 50.5977 129.98C50.2982 130.592 50.1484 131.292 50.1484 132.08C50.1484 132.933 50.4219 133.665 50.9687 134.277C51.5156 134.889 52.1862 135.215 52.9805 135.254C53.5404 135.28 54.0384 135.085 54.4746 134.668C55.0801 134.102 55.3926 133.2 55.4121 131.963C55.4186 131.8 55.4772 131.663 55.5879 131.553C55.7051 131.442 55.845 131.387 56.0078 131.387C56.1641 131.393 56.2975 131.452 56.4082 131.562C56.5189 131.68 56.5742 131.816 56.5742 131.973L56.5742 131.982ZM50.1582 118.027C50.1582 116.419 50.7311 115.046 51.8769 113.906C53.0163 112.76 54.39 112.187 55.998 112.187C57.6061 112.187 58.9798 112.76 60.1191 113.906C61.2585 115.046 61.8281 116.419 61.8281 118.027C61.8281 119.635 61.2585 121.009 60.1191 122.148C58.9798 123.288 57.6061 123.857 55.998 123.857C54.39 123.857 53.0163 123.288 51.8769 122.148C50.7311 121.009 50.1582 119.635 50.1582 118.027ZM63 118.027C63 116.094 62.3164 114.443 60.9492 113.076C59.582 111.709 57.9316 111.025 55.998 111.025C54.0644 111.025 52.4141 111.709 51.0469 113.076C49.6797 114.443 48.9961 116.094 48.9961 118.027C48.9961 119.961 49.6797 121.611 51.0469 122.979C52.4141 124.346 54.0644 125.029 55.998 125.029C57.9316 125.029 59.582 124.346 60.9492 122.979C62.3164 121.611 63 119.961 63 118.027ZM49.0254 98.9551C49.0254 99.1113 49.0807 99.2448 49.1914 99.3555C49.3021 99.4661 49.4388 99.5215 49.6016 99.5215L58.2051 99.5215C59.2142 99.5215 60.0736 99.8796 60.7832 100.596C61.4993 101.312 61.8574 102.171 61.8574 103.174C61.8574 104.183 61.4993 105.042 60.7832 105.752C60.0736 106.468 59.2142 106.826 58.2051 106.826L49.6016 106.826C49.4388 106.826 49.3021 106.882 49.1914 106.992C49.0807 107.103 49.0254 107.236 49.0254 107.393C49.0254 107.555 49.0807 107.692 49.1914 107.803C49.3021 107.913 49.4388 107.969 49.6016 107.969L58.2051 107.969C59.5267 107.969 60.6562 107.5 61.5937 106.562C62.5312 105.625 63 104.495 63 103.174C63 101.852 62.5312 100.723 61.5937 99.7852C60.6562 98.8477 59.5267 98.3789 58.2051 98.3789L49.6016 98.3789C49.4388 98.3789 49.3021 98.4342 49.1914 98.5449C49.0807 98.6621 49.0254 98.7988 49.0254 98.9551ZM62.4141 91.5527C62.5768 91.5527 62.7168 91.4974 62.834 91.3867C62.9447 91.2695 63 91.1328 63 90.9766C63 90.8138 62.9447 90.6738 62.834 90.5566C62.7168 90.446 62.5768 90.3906 62.4141 90.3906L50.1582 90.3906L50.1582 86.5332C50.1582 86.3704 50.1029 86.2337 49.9922 86.123C49.8815 86.0059 49.7448 85.9473 49.582 85.9473C49.4193 85.9473 49.2825 86.0059 49.1719 86.123C49.0547 86.2337 48.9961 86.3704 48.9961 86.5332L48.9961 95.4102C48.9961 95.5729 49.0547 95.7129 49.1719 95.8301C49.2825 95.9408 49.4193 95.9961 49.582 95.9961C49.7448 95.9961 49.8815 95.9408 49.9922 95.8301C50.1029 95.7129 50.1582 95.5729 50.1582 95.4102L50.1582 91.5527L62.4141 91.5527ZM63 74.0137C63 73.8509 62.9414 73.7142 62.8242 73.6035C62.7135 73.4863 62.5768 73.4277 62.4141 73.4277L49.5918 73.4277C49.429 73.4277 49.2923 73.4863 49.1816 73.6035C49.0644 73.7142 49.0059 73.8509 49.0059 74.0137C49.0059 74.1764 49.0644 74.3164 49.1816 74.4336C49.2923 74.5443 49.429 74.5996 49.5918 74.5996L55.4121 74.5996L55.4121 82.5781L49.5918 82.5781C49.429 82.5781 49.2923 82.6335 49.1816 82.7441C49.0644 82.8613 49.0059 83.0013 49.0059 83.1641C49.0059 83.3268 49.0644 83.4635 49.1816 83.5742C49.2923 83.6914 49.429 83.75 49.5918 83.75L62.4141 83.75C62.5768 83.75 62.7135 83.6914 62.8242 83.5742C62.9414 83.4635 63 83.3268 63 83.1641C63 83.0013 62.9414 82.8613 62.8242 82.7441C62.7135 82.6335 62.5768 82.5781 62.4141 82.5781L56.5937 82.5781L56.5937 74.5996L62.4141 74.5996C62.5768 74.5996 62.7135 74.5443 62.8242 74.4336C62.9414 74.3164 63 74.1764 63 74.0137ZM62.9023 64.1113C62.9023 63.9486 62.8437 63.8118 62.7266 63.7012C62.6159 63.584 62.4792 63.5254 62.3164 63.5254L58.5859 63.5254L56.75 61.7871L62.8242 56.0156C62.9414 55.8984 63 55.7585 63 55.5957C63 55.4395 62.9479 55.306 62.8437 55.1953C62.7331 55.0781 62.5963 55.0163 62.4336 55.0098C62.2708 55.0098 62.1341 55.0651 62.0234 55.1758L55.9101 60.9863L50.0117 55.3711C49.8945 55.2604 49.7545 55.2083 49.5918 55.2148C49.4355 55.2148 49.3021 55.2734 49.1914 55.3906C49.0807 55.5078 49.0254 55.6478 49.0254 55.8105C49.0319 55.9668 49.0937 56.1003 49.2109 56.2109L56.9062 63.5254L49.5527 63.5254C49.3965 63.5254 49.2598 63.584 49.1426 63.7012C49.0319 63.8118 48.9766 63.9486 48.9766 64.1113C48.9766 64.2676 49.0319 64.4043 49.1426 64.5215C49.2598 64.6322 49.3965 64.6875 49.5527 64.6875L62.3164 64.6875C62.4792 64.6875 62.6159 64.6322 62.7266 64.5215C62.8437 64.4043 62.9023 64.2676 62.9023 64.1113ZM50.1582 46.1914C50.1582 44.5833 50.7311 43.2096 51.8769 42.0703C53.0163 40.9245 54.39 40.3516 55.998 40.3516C57.6061 40.3516 58.9798 40.9245 60.1191 42.0703C61.2585 43.2096 61.8281 44.5833 61.8281 46.1914C61.8281 47.7995 61.2585 49.1732 60.1191 50.3125C58.9798 51.4518 57.6061 52.0215 55.998 52.0215C54.39 52.0215 53.0163 51.4518 51.8769 50.3125C50.7311 49.1732 50.1582 47.7995 50.1582 46.1914ZM63 46.1914C63 44.2578 62.3164 42.6074 60.9492 41.2402C59.582 39.873 57.9316 39.1895 55.998 39.1895C54.0644 39.1895 52.4141 39.873 51.0469 41.2402C49.6797 42.6074 48.9961 44.2578 48.9961 46.1914C48.9961 48.125 49.6797 49.7754 51.0469 51.1426C52.4141 52.5098 54.0644 53.1934 55.998 53.1934C57.9316 53.1934 59.582 52.5098 60.9492 51.1426C62.3164 49.7754 63 48.125 63 46.1914ZM52.7851 27.959C53.4948 27.959 54.1035 28.2389 54.6113 28.7988C55.1191 29.3522 55.3795 30.026 55.3926 30.8203L55.3926 34.7266L50.168 34.7266L50.168 30.8887C50.168 30.0814 50.4251 29.3913 50.9394 28.8184C51.4473 28.2454 52.0625 27.959 52.7851 27.959ZM49.0156 35.3125C49.0156 35.4687 49.071 35.6055 49.1816 35.7227C49.2923 35.8333 49.429 35.8887 49.5918 35.8887L62.3262 35.8887C62.4824 35.8887 62.6191 35.8333 62.7363 35.7227C62.847 35.6055 62.9023 35.4687 62.9023 35.3125C62.9023 35.1497 62.847 35.013 62.7363 34.9023C62.6191 34.7852 62.4824 34.7266 62.3262 34.7266L56.5547 34.7266L56.5547 31.4648L62.6777 28.4473C62.8926 28.3431 63 28.1706 63 27.9297C63 27.8385 62.9805 27.7539 62.9414 27.6758C62.8698 27.5326 62.7591 27.4349 62.6094 27.3828C62.4596 27.3307 62.3131 27.3405 62.1699 27.4121L56.4961 30.1953C56.3463 29.2253 55.9232 28.4212 55.2266 27.7832C54.5234 27.1322 53.7096 26.8066 52.7851 26.8066C51.7435 26.8066 50.8548 27.2038 50.1191 27.998C49.3835 28.7988 49.0156 29.7624 49.0156 30.8887L49.0156 35.3125ZM63 15.3516C63 15.1888 62.9414 15.0521 62.8242 14.9414C62.7135 14.8242 62.5768 14.7656 62.4141 14.7656C62.2513 14.7656 62.1146 14.8242 62.0039 14.9414C61.8867 15.0521 61.8281 15.1888 61.8281 15.3516L61.8281 22.5195L56.5742 22.5195L56.5742 17.1582C56.5742 16.9954 56.5156 16.8587 56.3984 16.748C56.2878 16.6309 56.151 16.5723 55.9883 16.5723C55.8255 16.5723 55.6888 16.6309 55.5781 16.748C55.4609 16.8587 55.4023 16.9954 55.4023 17.1582L55.4023 22.5195L50.1484 22.5195L50.168 15.3516C50.168 15.1888 50.1126 15.0521 50.0019 14.9414C49.8848 14.8242 49.7448 14.7656 49.582 14.7656C49.4258 14.7656 49.2891 14.8242 49.1719 14.9414C49.0547 15.0521 48.9961 15.1888 48.9961 15.3516L48.9766 23.1055C48.97 23.2617 49.0286 23.3984 49.1523 23.5156C49.263 23.6328 49.3997 23.6914 49.5625 23.6914L62.4141 23.6914C62.5768 23.6914 62.7135 23.6328 62.8242 23.5156C62.9414 23.4049 63 23.2682 63 23.1055L63 15.3516ZM58.5566 9.91211L51.1152 6.82617L58.5566 3.74023L58.5566 9.91211ZM62.9512 12.3633C62.9837 12.2917 63 12.2168 63 12.1387C63 11.8783 62.8795 11.6992 62.6387 11.6016L59.7285 10.3906L59.7285 3.26172L62.6387 2.05078C62.8795 1.95312 63 1.77409 63 1.51367C63 1.43555 62.9837 1.36068 62.9512 1.28906C62.8926 1.13932 62.7884 1.03516 62.6387 0.976562C62.4889 0.911458 62.3392 0.911458 62.1894 0.976562L58.918 2.33398L58.9082 2.33398L49.3672 6.28906C49.3346 6.30208 49.2988 6.31836 49.2598 6.33789C49.2663 6.33789 49.2532 6.35091 49.2207 6.37695C49.1947 6.39648 49.1784 6.40951 49.1719 6.41602C49.1719 6.42253 49.1588 6.4388 49.1328 6.46484C49.1133 6.49089 49.1035 6.50391 49.1035 6.50391C49.0579 6.56901 49.0286 6.64062 49.0156 6.71875C49.0156 6.71224 49.0156 6.72852 49.0156 6.76758C49.0091 6.80013 49.0058 6.81966 49.0058 6.82617C49.0058 6.83268 49.0091 6.85547 49.0156 6.89453C49.0156 6.92708 49.0156 6.94336 49.0156 6.94336C49.0286 7.01497 49.0579 7.08333 49.1035 7.14844C49.097 7.14193 49.1068 7.15495 49.1328 7.1875C49.1523 7.21354 49.1654 7.22982 49.1719 7.23633C49.1784 7.24284 49.1947 7.25586 49.2207 7.27539C49.2467 7.30143 49.2598 7.31445 49.2598 7.31445C49.2988 7.33398 49.3346 7.35026 49.3672 7.36328L58.9082 11.3184L58.918 11.3184L62.1894 12.6758C62.3392 12.7409 62.4889 12.7409 62.6387 12.6758C62.7884 12.6172 62.8926 12.513 62.9512 12.3633Z" fill="white"/>
<path d="M38 252V402" stroke="white" stroke-width="2"/>
</svg>
