<svg width="68" height="760" viewBox="0 0 68 760" fill="none" xmlns="http://www.w3.org/2000/svg">
<path d="M6.54443 580.146C6.54443 580.431 6.64697 580.676 6.85205 580.881C7.04574 581.075 7.28499 581.171 7.56982 581.171L29.9746 581.171C30.2594 581.171 30.5044 581.075 30.7095 580.881C30.9032 580.676 31 580.431 31 580.146L31 568.046C31 567.762 30.9032 567.522 30.7095 567.329C30.5044 567.124 30.2594 567.021 29.9746 567.021C29.7012 567.021 29.4619 567.124 29.2568 567.329C29.0632 567.522 28.9663 567.762 28.9663 568.046L28.9663 579.138L7.56982 579.138C7.28499 579.138 7.04574 579.235 6.85205 579.428C6.64697 579.633 6.54443 579.873 6.54443 580.146ZM7.58691 561.689C7.30208 561.689 7.06282 561.792 6.86914 561.997C6.66406 562.19 6.56152 562.43 6.56152 562.714C6.56152 562.999 6.66406 563.238 6.86914 563.432C7.06282 563.637 7.30208 563.74 7.58691 563.74L29.9746 563.74C30.2594 563.74 30.4987 563.637 30.6924 563.432C30.8975 563.238 31 562.999 31 562.714C31 562.43 30.8975 562.19 30.6924 561.997C30.4987 561.792 30.2594 561.689 29.9746 561.689L7.58691 561.689ZM30.8291 555.195C30.8291 554.91 30.7266 554.671 30.5215 554.477C30.3278 554.272 30.0885 554.169 29.8037 554.169L23.2754 554.169L20.0625 551.127L30.6924 541.027C30.8975 540.822 31 540.577 31 540.292C31 540.019 30.9089 539.785 30.7266 539.592C30.5329 539.387 30.2936 539.278 30.0088 539.267C29.724 539.267 29.4847 539.364 29.291 539.558L18.5928 549.726L8.27051 539.899C8.06543 539.706 7.82047 539.615 7.53564 539.626C7.26221 539.626 7.02864 539.729 6.83496 539.934C6.64127 540.139 6.54443 540.384 6.54443 540.668C6.55582 540.942 6.66406 541.175 6.86914 541.369L20.3359 554.169L7.46728 554.169C7.19385 554.169 6.95459 554.272 6.74951 554.477C6.55583 554.671 6.45898 554.91 6.45898 555.195C6.45898 555.468 6.55583 555.708 6.74951 555.913C6.95459 556.106 7.19385 556.203 7.46728 556.203L29.8037 556.203C30.0885 556.203 30.3278 556.106 30.5215 555.913C30.7266 555.708 30.8291 555.468 30.8291 555.195ZM31 521.152C31 520.867 30.8975 520.628 30.6924 520.434C30.4987 520.229 30.2594 520.126 29.9746 520.126C29.6898 520.126 29.4505 520.229 29.2568 520.434C29.0518 520.628 28.9492 520.867 28.9492 521.152L28.9492 533.696L19.7549 533.696L19.7549 524.313C19.7549 524.029 19.6523 523.789 19.4473 523.596C19.2536 523.391 19.0143 523.288 18.7295 523.288C18.4447 523.288 18.2054 523.391 18.0117 523.596C17.8066 523.789 17.7041 524.029 17.7041 524.313L17.7041 533.696L8.50976 533.696L8.54394 521.152C8.54394 520.867 8.4471 520.628 8.25342 520.434C8.04834 520.229 7.80338 520.126 7.51855 520.126C7.24511 520.126 7.00586 520.229 6.80078 520.434C6.5957 520.628 6.49316 520.867 6.49316 521.152L6.45898 534.721C6.44759 534.995 6.55013 535.234 6.7666 535.439C6.96028 535.644 7.19954 535.747 7.48437 535.747L29.9746 535.747C30.2594 535.747 30.4987 535.644 30.6924 535.439C30.8975 535.245 31 535.006 31 534.721L31 521.152ZM18.7637 503.037C14.6621 503.037 11.1017 502.131 8.08252 500.319C7.84326 500.171 7.58691 500.131 7.31347 500.2C7.04004 500.268 6.82926 500.422 6.68115 500.661C6.53304 500.9 6.49316 501.157 6.56152 501.43C6.62988 501.704 6.78938 501.914 7.04004 502.062C10.3783 504.068 14.2861 505.07 18.7637 505.07C23.2412 505.07 27.1548 504.068 30.5044 502.062C30.8348 501.857 31 501.567 31 501.191C31 500.997 30.9544 500.821 30.8633 500.661C30.7152 500.422 30.5044 500.268 30.231 500.2C29.9575 500.131 29.7012 500.171 29.4619 500.319C26.4313 502.131 22.8652 503.037 18.7637 503.037ZM23.2241 488.1L10.2017 482.7L23.2241 477.299L23.2241 488.1ZM30.9145 492.39C30.9715 492.264 31 492.133 31 491.997C31 491.541 30.7892 491.228 30.3677 491.057L25.2749 488.937L25.2749 476.462L30.3677 474.343C30.7892 474.172 31 473.859 31 473.403C31 473.266 30.9715 473.135 30.9145 473.01C30.812 472.748 30.6297 472.565 30.3677 472.463C30.1056 472.349 29.8436 472.349 29.5815 472.463L23.8564 474.838L23.8394 474.838L7.14257 481.76C7.08561 481.783 7.02294 481.811 6.95459 481.845C6.96598 481.845 6.94319 481.868 6.88623 481.914C6.84065 481.948 6.81217 481.971 6.80078 481.982C6.80078 481.993 6.77799 482.022 6.73242 482.067C6.69824 482.113 6.68115 482.136 6.68115 482.136C6.6014 482.25 6.55013 482.375 6.52734 482.512C6.52734 482.5 6.52734 482.529 6.52734 482.597C6.51595 482.654 6.51025 482.688 6.51025 482.7C6.51025 482.711 6.51595 482.751 6.52734 482.819C6.52734 482.876 6.52734 482.905 6.52734 482.905C6.55013 483.03 6.6014 483.15 6.68115 483.264C6.66975 483.252 6.68684 483.275 6.73242 483.332C6.7666 483.378 6.78938 483.406 6.80078 483.417C6.81217 483.429 6.84065 483.452 6.88623 483.486C6.9318 483.531 6.95459 483.554 6.95459 483.554C7.02294 483.588 7.08561 483.617 7.14257 483.64L23.8394 490.561L23.8564 490.561L29.5815 492.937C29.8436 493.05 30.1056 493.05 30.3677 492.937C30.6297 492.834 30.812 492.652 30.9145 492.39ZM30.6411 450.246C30.6753 450.212 30.7095 450.178 30.7436 450.144C30.7664 450.109 30.7835 450.087 30.7949 450.075C30.8177 450.041 30.8405 450.001 30.8633 449.956C30.8861 449.921 30.9032 449.899 30.9145 449.887C30.9259 449.853 30.943 449.807 30.9658 449.75C30.9772 449.705 30.9829 449.682 30.9829 449.682C30.9943 449.614 31 449.545 31 449.477C31 449.42 30.9943 449.357 30.9829 449.289C30.9829 449.278 30.9772 449.255 30.9658 449.221C30.9544 449.175 30.943 449.135 30.9316 449.101C30.9202 449.078 30.9088 449.055 30.8975 449.033C30.8861 448.999 30.869 448.964 30.8462 448.93C30.8348 448.907 30.8234 448.89 30.812 448.879C30.7778 448.833 30.7664 448.822 30.7778 448.845C30.8006 448.868 30.7892 448.85 30.7436 448.793C30.7095 448.759 30.6867 448.736 30.6753 448.725C30.6525 448.702 30.624 448.68 30.5898 448.657C30.5557 448.634 30.5272 448.617 30.5044 448.605C30.4816 448.583 30.4531 448.566 30.4189 448.554C30.3848 448.543 30.3563 448.531 30.3335 448.52C30.3107 448.509 30.2765 448.497 30.231 448.486C30.1968 448.474 30.1683 448.469 30.1455 448.469C30.1113 448.457 30.0771 448.452 30.043 448.452C29.9746 448.452 29.9518 448.452 29.9746 448.452L7.46728 448.452C7.18245 448.452 6.94319 448.549 6.74951 448.742C6.54443 448.947 6.44189 449.192 6.44189 449.477C6.44189 449.75 6.54443 449.99 6.74951 450.195C6.94319 450.389 7.18245 450.485 7.46728 450.485L26.9839 450.485L6.83496 466.14C6.44759 466.436 6.33365 466.818 6.49316 467.285C6.65266 467.74 6.97737 467.968 7.46728 467.968L29.9746 467.968C30.2594 467.968 30.4987 467.866 30.6924 467.661C30.8975 467.467 31 467.228 31 466.943C31 466.658 30.8975 466.419 30.6924 466.225C30.4987 466.02 30.2594 465.917 29.9746 465.917L10.458 465.917L30.6069 450.28C30.6069 450.28 30.6126 450.275 30.624 450.263C30.6354 450.252 30.6411 450.246 30.6411 450.246ZM8.52685 439.873L8.52685 435.207C8.52685 432.404 9.51806 430.006 11.5005 428.012C13.4943 426.018 15.8926 425.021 18.6953 425.021C21.498 425.021 23.8963 426.018 25.8901 428.012C27.8726 430.006 28.8638 432.41 28.8638 435.224L28.9321 439.873L8.52685 439.873ZM31 440.881L30.9316 435.207C30.9316 431.835 29.7353 428.952 27.3428 426.56C24.9502 424.167 22.0677 422.971 18.6953 422.971C15.3229 422.971 12.4404 424.167 10.0478 426.56C7.65527 428.952 6.45898 431.835 6.45898 435.207L6.45898 440.898C6.45898 441.183 6.56152 441.422 6.7666 441.616C6.97167 441.821 7.21663 441.923 7.50146 441.923L29.9746 441.923C30.2594 441.923 30.5044 441.821 30.7095 441.616C30.9032 441.422 31 441.183 31 440.898L31 440.881ZM7.58691 407.436C7.30208 407.436 7.06282 407.539 6.86913 407.744C6.66405 407.937 6.56152 408.177 6.56152 408.461C6.56152 408.746 6.66405 408.986 6.86913 409.179C7.06282 409.384 7.30208 409.487 7.58691 409.487L29.9746 409.487C30.2594 409.487 30.4987 409.384 30.6924 409.179C30.8975 408.986 31 408.746 31 408.461C31 408.177 30.8975 407.937 30.6924 407.744C30.4987 407.539 30.2594 407.436 29.9746 407.436L7.58691 407.436ZM30.6411 383.049C30.6753 383.015 30.7095 382.98 30.7436 382.946C30.7664 382.912 30.7835 382.889 30.7949 382.878C30.8177 382.844 30.8405 382.804 30.8633 382.758C30.8861 382.724 30.9031 382.701 30.9145 382.69C30.9259 382.656 30.943 382.61 30.9658 382.553C30.9772 382.508 30.9829 382.485 30.9829 382.485C30.9943 382.417 31 382.348 31 382.28C31 382.223 30.9943 382.16 30.9829 382.092C30.9829 382.08 30.9772 382.058 30.9658 382.023C30.9544 381.978 30.943 381.938 30.9316 381.904C30.9202 381.881 30.9088 381.858 30.8975 381.835C30.8861 381.801 30.869 381.767 30.8462 381.733C30.8348 381.71 30.8234 381.693 30.812 381.682C30.7778 381.636 30.7664 381.625 30.7778 381.647C30.8006 381.67 30.7892 381.653 30.7436 381.596C30.7095 381.562 30.6867 381.539 30.6753 381.528C30.6525 381.505 30.624 381.482 30.5898 381.459C30.5557 381.437 30.5272 381.42 30.5044 381.408C30.4816 381.385 30.4531 381.368 30.4189 381.357C30.3848 381.346 30.3563 381.334 30.3335 381.323C30.3107 381.311 30.2765 381.3 30.2309 381.289C30.1968 381.277 30.1683 381.271 30.1455 381.271C30.1113 381.26 30.0771 381.254 30.043 381.254C29.9746 381.254 29.9518 381.254 29.9746 381.254L7.46728 381.254C7.18245 381.254 6.94319 381.351 6.7495 381.545C6.54442 381.75 6.44189 381.995 6.44189 382.28C6.44189 382.553 6.54442 382.792 6.7495 382.998C6.94319 383.191 7.18245 383.288 7.46728 383.288L26.9839 383.288L6.83495 398.942C6.44758 399.239 6.33365 399.62 6.49316 400.087C6.65266 400.543 6.97737 400.771 7.46728 400.771L29.9746 400.771C30.2594 400.771 30.4987 400.668 30.6924 400.463C30.8975 400.27 31 400.03 31 399.746C31 399.461 30.8975 399.222 30.6924 399.028C30.4987 398.823 30.2594 398.72 29.9746 398.72L10.458 398.72L30.6069 383.083C30.6069 383.083 30.6126 383.077 30.624 383.066C30.6354 383.055 30.6411 383.049 30.6411 383.049ZM31 367.514C31 369.314 30.6297 370.921 29.8892 372.333C28.9891 374.031 27.6903 375.102 25.9927 375.546C25.7306 375.615 25.4743 375.581 25.2236 375.444C24.9844 375.296 24.8306 375.085 24.7622 374.812C24.6938 374.549 24.728 374.293 24.8647 374.042C25.0128 373.803 25.2179 373.649 25.48 373.581C26.6649 373.273 27.5706 372.476 28.1973 371.188C28.71 370.118 28.9663 368.893 28.9663 367.514C28.9663 366.022 28.4878 364.74 27.5308 363.669C26.5737 362.598 25.4059 362.028 24.0273 361.96C23.0361 361.914 22.1588 362.256 21.3955 362.985C20.3359 363.977 19.7891 365.555 19.7549 367.719C19.7549 368.004 19.6523 368.243 19.4473 368.437C19.2422 368.631 19.0029 368.728 18.7295 368.728C18.4447 368.716 18.2054 368.608 18.0117 368.403C17.818 368.209 17.7212 367.97 17.7212 367.685C17.7668 364.951 18.5301 362.889 20.0112 361.499C21.1847 360.382 22.5519 359.864 24.1128 359.943C26.0382 360.023 27.6675 360.798 29.0005 362.268C30.3335 363.726 31 365.475 31 367.514ZM19.7549 367.822C19.7207 370.556 18.963 372.618 17.4819 374.008C16.297 375.125 14.9241 375.649 13.3633 375.581C11.4378 375.489 9.80858 374.709 8.47558 373.239C7.14257 371.781 6.47606 370.032 6.47606 367.993C6.47606 366.193 6.85204 364.586 7.60399 363.173C8.49267 361.476 9.7858 360.405 11.4834 359.96C11.7568 359.892 12.0132 359.926 12.2524 360.063C12.4917 360.211 12.6455 360.422 12.7139 360.695C12.7936 360.969 12.7594 361.225 12.6113 361.464C12.4746 361.704 12.2695 361.857 11.9961 361.926C10.8112 362.233 9.91112 363.031 9.29589 364.318C8.7718 365.389 8.50976 366.614 8.50976 367.993C8.50976 369.485 8.98827 370.767 9.9453 371.838C10.9023 372.909 12.0758 373.479 13.4658 373.547C14.4456 373.592 15.3172 373.251 16.0806 372.521C17.1401 371.53 17.687 369.952 17.7212 367.788C17.7326 367.503 17.8351 367.264 18.0288 367.07C18.2339 366.876 18.4788 366.779 18.7637 366.779C19.0371 366.791 19.2707 366.893 19.4643 367.087C19.658 367.292 19.7549 367.531 19.7549 367.805L19.7549 367.822ZM17.7554 351.979L8.52685 351.979L8.52685 345.212C8.52685 343.788 8.97688 342.569 9.87694 341.555C10.777 340.541 11.8651 340.034 13.1411 340.034C14.3944 340.034 15.471 340.529 16.3711 341.521C17.2598 342.5 17.7212 343.685 17.7554 345.075L17.7554 351.979ZM6.47606 353.005C6.47606 353.29 6.5786 353.529 6.78368 353.723C6.97737 353.928 7.21662 354.03 7.50145 354.03L29.9746 354.03C30.2594 354.03 30.4987 353.928 30.6924 353.723C30.8975 353.529 31 353.29 31 353.005C31 352.72 30.8975 352.481 30.6924 352.287C30.4987 352.082 30.2594 351.979 29.9746 351.979L19.7891 351.979L19.7891 345.263C19.8004 345.195 19.8061 345.178 19.8061 345.212C19.8061 345.189 19.8004 345.166 19.7891 345.144L19.7891 344.938C19.7891 344.916 19.7891 344.87 19.7891 344.802C19.6865 342.91 18.9972 341.304 17.7212 339.982C16.4337 338.661 14.9071 338 13.1411 338C11.3068 338 9.74022 338.701 8.4414 340.102C7.13117 341.515 6.47606 343.218 6.47606 345.212L6.47606 353.005ZM7.5869 330.754C7.30207 330.754 7.06281 330.856 6.86913 331.062C6.66405 331.255 6.56151 331.494 6.56151 331.779C6.56151 332.064 6.66405 332.303 6.86913 332.497C7.06281 332.702 7.30207 332.805 7.5869 332.805L29.9746 332.805C30.2594 332.805 30.4987 332.702 30.6924 332.497C30.8974 332.303 31 332.064 31 331.779C31 331.494 30.8974 331.255 30.6924 331.062C30.4987 330.856 30.2594 330.754 29.9746 330.754L7.5869 330.754ZM13.124 309.956C14.3659 309.956 15.4311 310.445 16.3198 311.425C17.2085 312.394 17.6642 313.573 17.687 314.963L17.687 321.799L8.54393 321.799L8.54393 315.083C8.54393 313.67 8.99397 312.462 9.89403 311.459C10.7827 310.457 11.8594 309.956 13.124 309.956ZM6.52733 322.824C6.52733 323.098 6.62417 323.337 6.81786 323.542C7.01154 323.736 7.2508 323.833 7.53563 323.833L29.8208 323.833C30.0942 323.833 30.3335 323.736 30.5386 323.542C30.7322 323.337 30.8291 323.098 30.8291 322.824C30.8291 322.539 30.7322 322.3 30.5386 322.106C30.3335 321.901 30.0942 321.799 29.8208 321.799L19.7207 321.799L19.7207 316.091L30.436 310.81C30.812 310.628 31 310.326 31 309.904C31 309.745 30.9658 309.597 30.8974 309.46C30.7721 309.209 30.5784 309.038 30.3164 308.947C30.0543 308.856 29.798 308.873 29.5474 308.999L19.6182 313.869C19.3561 312.172 18.6155 310.764 17.3965 309.648C16.166 308.509 14.7418 307.939 13.124 307.939C11.3011 307.939 9.74592 308.634 8.45848 310.024C7.17105 311.425 6.52733 313.111 6.52733 315.083L6.52733 322.824ZM23.2241 299.018L10.2016 293.618L23.2241 288.217L23.2241 299.018ZM30.9145 303.308C30.9715 303.182 31 303.051 31 302.915C31 302.459 30.7892 302.146 30.3677 301.975L25.2749 299.855L25.2749 287.38L30.3677 285.261C30.7892 285.09 31 284.777 31 284.321C31 284.184 30.9715 284.053 30.9145 283.928C30.812 283.666 30.6297 283.483 30.3677 283.381C30.1056 283.267 29.8436 283.267 29.5815 283.381L23.8564 285.756L23.8393 285.756L7.14257 292.678C7.0856 292.701 7.02294 292.729 6.95458 292.763C6.96597 292.763 6.94318 292.786 6.88622 292.832C6.84064 292.866 6.81216 292.889 6.80077 292.9C6.80077 292.911 6.77798 292.94 6.73241 292.985C6.69823 293.031 6.68114 293.054 6.68114 293.054C6.60139 293.168 6.55012 293.293 6.52733 293.43C6.52733 293.418 6.52733 293.447 6.52733 293.515C6.51594 293.572 6.51024 293.606 6.51024 293.618C6.51024 293.629 6.51594 293.669 6.52733 293.737C6.52733 293.794 6.52733 293.823 6.52733 293.823C6.55012 293.948 6.60139 294.068 6.68114 294.182C6.66975 294.17 6.68684 294.193 6.73241 294.25C6.76659 294.296 6.78938 294.324 6.80077 294.335C6.81216 294.347 6.84064 294.37 6.88622 294.404C6.93179 294.449 6.95458 294.472 6.95458 294.472C7.02294 294.506 7.0856 294.535 7.14257 294.558L23.8393 301.479L23.8564 301.479L29.5815 303.854C29.8436 303.968 30.1056 303.968 30.3677 303.854C30.6297 303.752 30.812 303.57 30.9145 303.308ZM29.9746 273.554C30.2594 273.554 30.5044 273.457 30.7095 273.264C30.9031 273.059 31 272.819 31 272.546C31 272.261 30.9031 272.016 30.7095 271.811C30.5044 271.617 30.2594 271.521 29.9746 271.521L8.52684 271.521L8.52684 264.77C8.52684 264.485 8.43 264.246 8.23631 264.052C8.04263 263.847 7.80337 263.745 7.51854 263.745C7.23371 263.745 6.99445 263.847 6.80077 264.052C6.59569 264.246 6.49315 264.485 6.49315 264.77L6.49315 280.305C6.49315 280.59 6.59569 280.834 6.80077 281.04C6.99445 281.233 7.23371 281.33 7.51854 281.33C7.80337 281.33 8.04263 281.233 8.23631 281.04C8.43 280.834 8.52684 280.59 8.52684 280.305L8.52684 273.554L29.9746 273.554ZM7.5869 257.814C7.30207 257.814 7.06281 257.917 6.86913 258.122C6.66405 258.316 6.56151 258.555 6.56151 258.84C6.56151 259.125 6.66405 259.364 6.86913 259.558C7.06281 259.763 7.30207 259.865 7.5869 259.865L29.9746 259.865C30.2594 259.865 30.4987 259.763 30.6924 259.558C30.8974 259.364 31 259.125 31 258.84C31 258.555 30.8974 258.316 30.6924 258.122C30.4987 257.917 30.2594 257.814 29.9746 257.814L7.5869 257.814ZM30.6411 233.171C30.6753 233.137 30.7095 233.103 30.7436 233.068C30.7664 233.034 30.7835 233.011 30.7949 233C30.8177 232.966 30.8405 232.926 30.8633 232.88C30.8861 232.846 30.9031 232.823 30.9145 232.812C30.9259 232.778 30.943 232.732 30.9658 232.675C30.9772 232.63 30.9829 232.607 30.9829 232.607C30.9943 232.539 31 232.47 31 232.402C31 232.345 30.9943 232.282 30.9829 232.214C30.9829 232.202 30.9772 232.18 30.9658 232.146C30.9544 232.1 30.943 232.06 30.9316 232.026C30.9202 232.003 30.9088 231.98 30.8974 231.958C30.8861 231.923 30.869 231.889 30.8462 231.855C30.8348 231.832 30.8234 231.815 30.812 231.804C30.7778 231.758 30.7664 231.747 30.7778 231.77C30.8006 231.792 30.7892 231.775 30.7436 231.718C30.7095 231.684 30.6867 231.661 30.6753 231.65C30.6525 231.627 30.624 231.604 30.5898 231.582C30.5556 231.559 30.5272 231.542 30.5044 231.53C30.4816 231.507 30.4531 231.49 30.4189 231.479C30.3848 231.468 30.3563 231.456 30.3335 231.445C30.3107 231.433 30.2765 231.422 30.2309 231.411C30.1968 231.399 30.1683 231.394 30.1455 231.394C30.1113 231.382 30.0771 231.376 30.043 231.376C29.9746 231.376 29.9518 231.376 29.9746 231.376L7.46727 231.376C7.18244 231.376 6.94318 231.473 6.7495 231.667C6.54442 231.872 6.44188 232.117 6.44188 232.402C6.44188 232.675 6.54442 232.915 6.7495 233.12C6.94318 233.313 7.18244 233.41 7.46727 233.41L26.9839 233.41L6.83495 249.064C6.44758 249.361 6.33364 249.742 6.49315 250.209C6.65265 250.665 6.97736 250.893 7.46727 250.893L29.9746 250.893C30.2594 250.893 30.4987 250.791 30.6924 250.585C30.8974 250.392 31 250.153 31 249.868C31 249.583 30.8974 249.344 30.6924 249.15C30.4987 248.945 30.2594 248.842 29.9746 248.842L10.458 248.842L30.6069 233.205C30.6069 233.205 30.6126 233.199 30.624 233.188C30.6354 233.177 30.6411 233.171 30.6411 233.171ZM8.52684 214.235C8.52684 211.421 9.52944 209.017 11.5347 207.023C13.5285 205.018 15.9324 204.016 18.7466 204.016C21.5607 204.016 23.9647 205.018 25.9585 207.023C27.9523 209.017 28.9492 211.421 28.9492 214.235C28.9492 217.049 27.9523 219.453 25.9585 221.447C23.9647 223.441 21.5607 224.438 18.7466 224.438C15.9324 224.438 13.5285 223.441 11.5347 221.447C9.52944 219.453 8.52684 217.049 8.52684 214.235ZM31 214.235C31 210.852 29.8037 207.963 27.4111 205.571C25.0185 203.178 22.1304 201.982 18.7466 201.982C15.3628 201.982 12.4746 203.178 10.082 205.571C7.68944 207.963 6.49315 210.852 6.49315 214.235C6.49315 217.619 7.68944 220.507 10.082 222.9C12.4746 225.292 15.3628 226.489 18.7466 226.489C22.1304 226.489 25.0185 225.292 27.4111 222.9C29.8037 220.507 31 217.619 31 214.235ZM31 176.672C31 180.056 29.798 182.944 27.394 185.336C25.0014 187.74 22.1133 188.942 18.7295 188.942C15.3457 188.942 12.4518 187.74 10.0478 185.336C7.65526 182.944 6.45897 180.056 6.45897 176.672C6.45897 173.892 7.30207 171.403 8.98826 169.204C9.17055 168.976 9.39842 168.845 9.67186 168.811C9.95669 168.765 10.213 168.833 10.4409 169.016C10.6688 169.187 10.7998 169.414 10.834 169.699C10.8681 169.973 10.7998 170.223 10.6289 170.451C9.21613 172.285 8.50975 174.359 8.50975 176.672C8.50975 179.486 9.51235 181.89 11.5176 183.884C13.5114 185.878 15.9153 186.875 18.7295 186.875C21.5436 186.875 23.9476 185.878 25.9414 183.884C27.9352 181.89 28.9321 179.486 28.9321 176.672C28.9321 174.029 28.0491 171.739 26.2832 169.802C26.0895 169.585 25.9984 169.335 26.0097 169.05C26.0211 168.765 26.1351 168.526 26.3515 168.332C26.5566 168.15 26.8016 168.064 27.0864 168.076C27.3712 168.087 27.6105 168.195 27.8042 168.4C29.9347 170.747 31 173.505 31 176.672ZM31 168.896C31 169.181 30.8974 169.426 30.6924 169.631C30.4987 169.825 30.2594 169.921 29.9746 169.921L19.1396 169.921L19.1396 178.5C19.1396 178.785 19.0428 179.03 18.8491 179.235C18.644 179.44 18.3991 179.543 18.1142 179.543C17.8294 179.543 17.5902 179.44 17.3965 179.235C17.1914 179.03 17.0888 178.785 17.0888 178.5L17.0888 168.896C17.0888 168.611 17.1914 168.366 17.3965 168.161C17.5902 167.967 17.8294 167.871 18.1142 167.871L29.9746 167.871C30.2594 167.871 30.4987 167.967 30.6924 168.161C30.8974 168.366 31 168.611 31 168.896ZM31 147.072C31 146.787 30.8974 146.548 30.6924 146.354C30.4987 146.149 30.2594 146.047 29.9746 146.047C29.6898 146.047 29.4505 146.149 29.2568 146.354C29.0517 146.548 28.9492 146.787 28.9492 147.072L28.9492 159.616L19.7549 159.616L19.7549 150.234C19.7549 149.949 19.6523 149.71 19.4472 149.516C19.2536 149.311 19.0143 149.208 18.7295 149.208C18.4446 149.208 18.2054 149.311 18.0117 149.516C17.8066 149.71 17.7041 149.949 17.7041 150.234L17.7041 159.616L8.50975 159.616L8.54393 147.072C8.54393 146.787 8.44708 146.548 8.2534 146.354C8.04832 146.149 7.80337 146.047 7.51854 146.047C7.2451 146.047 7.00584 146.149 6.80076 146.354C6.59568 146.548 6.49314 146.787 6.49315 147.072L6.45897 160.642C6.44757 160.915 6.55011 161.154 6.76658 161.359C6.96027 161.564 7.19953 161.667 7.48436 161.667L29.9746 161.667C30.2594 161.667 30.4987 161.564 30.6924 161.359C30.8974 161.166 31 160.926 31 160.642L31 147.072ZM29.9746 135.639C30.2594 135.639 30.5044 135.542 30.7095 135.349C30.9031 135.144 31 134.904 31 134.631C31 134.346 30.9031 134.101 30.7095 133.896C30.5044 133.702 30.2594 133.605 29.9746 133.605L8.52684 133.605L8.52684 126.855C8.52684 126.57 8.42999 126.331 8.23631 126.137C8.04262 125.932 7.80337 125.83 7.51853 125.83C7.2337 125.83 6.99445 125.932 6.80076 126.137C6.59568 126.331 6.49314 126.57 6.49314 126.855L6.49314 142.39C6.49314 142.674 6.59568 142.919 6.80076 143.125C6.99445 143.318 7.2337 143.415 7.51854 143.415C7.80337 143.415 8.04262 143.318 8.23631 143.125C8.42999 142.919 8.52684 142.674 8.52684 142.39L8.52684 135.639L29.9746 135.639ZM19.7549 111.252L19.7549 101.87C19.7549 101.585 19.6523 101.346 19.4472 101.152C19.2536 100.947 19.0143 100.844 18.7295 100.844C18.4446 100.844 18.2054 100.947 18.0117 101.152C17.8066 101.346 17.7041 101.585 17.7041 101.87L17.7041 111.252L8.50975 111.252L8.54392 98.708C8.54392 98.4232 8.44708 98.1839 8.2534 97.9902C8.04832 97.7852 7.80336 97.6826 7.51853 97.6826C7.2451 97.6826 7.00584 97.7852 6.80076 97.9902C6.59568 98.1839 6.49314 98.4232 6.49314 98.708L6.45896 112.277C6.44757 112.539 6.55011 112.779 6.76658 112.995C6.96027 113.2 7.19952 113.303 7.48435 113.303L29.9746 113.303C30.2594 113.303 30.4987 113.2 30.6924 112.995C30.8974 112.801 31 112.562 31 112.277C31 111.993 30.8974 111.753 30.6924 111.56C30.4987 111.354 30.2594 111.252 29.9746 111.252L19.7549 111.252ZM13.124 79.9604C14.3659 79.9604 15.4311 80.4504 16.3198 81.4302C17.2085 82.3986 17.6642 83.5778 17.687 84.9678L17.687 91.8037L8.54392 91.8037L8.54392 85.0874C8.54392 83.6746 8.99396 82.467 9.89402 81.4644C10.7827 80.4618 11.8594 79.9604 13.124 79.9604ZM6.52732 92.8291C6.52732 93.1025 6.62416 93.3418 6.81785 93.5469C7.01153 93.7406 7.25079 93.8374 7.53562 93.8374L29.8208 93.8374C30.0942 93.8374 30.3335 93.7406 30.5386 93.5469C30.7322 93.3418 30.8291 93.1025 30.8291 92.8291C30.8291 92.5443 30.7322 92.305 30.5386 92.1113C30.3335 91.9062 30.0942 91.8037 29.8208 91.8037L19.7207 91.8037L19.7207 86.0957L30.436 80.8149C30.812 80.6326 31 80.3307 31 79.9092C31 79.7497 30.9658 79.6016 30.8974 79.4648C30.7721 79.2142 30.5784 79.0433 30.3164 78.9521C30.0543 78.861 29.798 78.8781 29.5473 79.0034L19.6181 83.874C19.3561 82.1764 18.6155 80.7694 17.3965 79.6528C16.166 78.5135 14.7418 77.9438 13.124 77.9438C11.3011 77.9438 9.74591 78.6388 8.45847 80.0288C7.17104 81.4302 6.52732 83.1164 6.52732 85.0874L6.52732 92.8291ZM8.52683 61.7939C8.52683 58.9798 9.52944 56.5758 11.5346 54.582C13.5285 52.5768 15.9324 51.5742 18.7466 51.5742C21.5607 51.5742 23.9647 52.5768 25.9585 54.582C27.9523 56.5758 28.9492 58.9798 28.9492 61.7939C28.9492 64.6081 27.9523 67.012 25.9585 69.0059C23.9647 70.9997 21.5607 71.9966 18.7466 71.9966C15.9324 71.9966 13.5285 70.9997 11.5346 69.0059C9.52944 67.012 8.52683 64.6081 8.52683 61.7939ZM31 61.7939C31 58.4102 29.8037 55.522 27.4111 53.1294C25.0185 50.7368 22.1303 49.5405 18.7466 49.5405C15.3628 49.5405 12.4746 50.7368 10.082 53.1294C7.68943 55.522 6.49314 58.4102 6.49314 61.7939C6.49314 65.1777 7.68943 68.0659 10.082 70.4585C12.4746 72.8511 15.3628 74.0474 18.7466 74.0474C22.1303 74.0474 25.0185 72.8511 27.4111 70.4585C29.8037 68.0659 31 65.1777 31 61.7939ZM11.227 41.7134L26.3857 32.5361C26.3857 32.5361 26.3914 32.5304 26.4028 32.519C26.4142 32.519 26.4199 32.519 26.4199 32.519C26.4427 32.4963 26.4712 32.4735 26.5053 32.4507C26.5281 32.4279 26.5509 32.4051 26.5737 32.3823C26.5965 32.3595 26.6193 32.3368 26.6421 32.314C26.6649 32.2798 26.6876 32.2513 26.7104 32.2285C26.7446 32.1715 26.7503 32.1602 26.7275 32.1943C26.7275 32.1829 26.7332 32.1772 26.7446 32.1772C26.7446 32.1659 26.7446 32.1545 26.7446 32.1431C26.7674 32.1089 26.7845 32.0747 26.7959 32.0405C26.8073 32.0177 26.8187 31.9893 26.8301 31.9551C26.8414 31.9209 26.8471 31.8867 26.8471 31.8525C26.8585 31.8298 26.8642 31.8013 26.8642 31.7671C26.8756 31.7329 26.8813 31.6987 26.8813 31.6645C26.8813 31.6304 26.8756 31.5962 26.8642 31.562C26.8642 31.5278 26.8585 31.4993 26.8471 31.4766C26.8471 31.4424 26.8414 31.4082 26.8301 31.374C26.8187 31.3398 26.8073 31.3114 26.7959 31.2886C26.7845 31.2544 26.7674 31.2202 26.7446 31.186C26.7218 31.1405 26.7161 31.1234 26.7275 31.1348C26.7503 31.1689 26.7446 31.1576 26.7104 31.1006C26.6876 31.0778 26.6649 31.0493 26.6421 31.0151C26.6193 30.9923 26.5965 30.9696 26.5737 30.9468C26.5623 30.9354 26.5395 30.9126 26.5053 30.8784C26.4712 30.8556 26.4427 30.8328 26.4199 30.8101C26.4085 30.8101 26.4028 30.8101 26.4028 30.8101C26.3914 30.7987 26.3857 30.793 26.3857 30.793L11.227 21.6157L29.9746 21.6157C30.2594 21.6157 30.5044 21.5189 30.7094 21.3252C30.9031 21.1201 31 20.8809 31 20.6074C31 20.3226 30.9031 20.0833 30.7094 19.8896C30.5044 19.6846 30.2594 19.582 29.9746 19.582L7.5698 19.582C7.0571 19.582 6.7324 19.8327 6.59568 20.334C6.45896 20.8239 6.61277 21.2056 7.0571 21.479L23.8906 31.6645L7.05711 41.8501C6.61277 42.1235 6.45896 42.5052 6.59568 42.9951C6.7324 43.4964 7.05711 43.7471 7.5698 43.7471L29.9746 43.7471C30.2594 43.7471 30.5044 43.6502 30.7094 43.4565C30.9031 43.2515 31 43.0065 31 42.7217C31 42.4482 30.9031 42.209 30.7094 42.0039C30.5044 41.8102 30.2594 41.7134 29.9746 41.7134L11.227 41.7134ZM6.62986 11.0029C6.77797 11.2422 6.98305 11.396 7.24509 11.4644C7.51853 11.5327 7.78057 11.4928 8.03123 11.3447C11.0618 9.52181 14.6336 8.61035 18.7466 8.61035C22.8595 8.61035 26.4313 9.52181 29.4619 11.3447C29.7011 11.4928 29.9575 11.5327 30.2309 11.4644C30.5044 11.396 30.7094 11.2422 30.8462 11.0029C30.9487 10.8434 31 10.6668 31 10.4731C31 10.0972 30.8348 9.80664 30.5044 9.60156C27.1548 7.58496 23.2355 6.57666 18.7466 6.57666C14.2576 6.57666 10.3327 7.58496 6.97165 9.60156C6.7324 9.74967 6.57859 9.96045 6.51023 10.2339C6.44187 10.5073 6.48175 10.7637 6.62986 11.0029Z" fill="#625573"/>
<path d="M58.5566 579.318L51.1152 576.232L58.5566 573.146L58.5566 579.318ZM62.9512 581.77C62.9837 581.698 63 581.623 63 581.545C63 581.285 62.8796 581.105 62.6387 581.008L59.7285 579.797L59.7285 572.668L62.6387 571.457C62.8796 571.359 63 571.18 63 570.92C63 570.842 62.9837 570.767 62.9512 570.695C62.8926 570.546 62.7884 570.441 62.6387 570.383C62.4889 570.318 62.3392 570.318 62.1895 570.383L58.918 571.74L58.9082 571.74L49.3672 575.695C49.3346 575.708 49.2988 575.725 49.2598 575.744C49.2663 575.744 49.2533 575.757 49.2207 575.783C49.1947 575.803 49.1784 575.816 49.1719 575.822C49.1719 575.829 49.1589 575.845 49.1328 575.871C49.1133 575.897 49.1035 575.91 49.1035 575.91C49.0579 575.975 49.0286 576.047 49.0156 576.125C49.0156 576.118 49.0156 576.135 49.0156 576.174C49.0091 576.206 49.0059 576.226 49.0059 576.232C49.0059 576.239 49.0091 576.262 49.0156 576.301C49.0156 576.333 49.0156 576.35 49.0156 576.35C49.0286 576.421 49.0579 576.49 49.1035 576.555C49.097 576.548 49.1068 576.561 49.1328 576.594C49.1523 576.62 49.1654 576.636 49.1719 576.643C49.1784 576.649 49.1947 576.662 49.2207 576.682C49.2467 576.708 49.2598 576.721 49.2598 576.721C49.2988 576.74 49.3346 576.757 49.3672 576.77L58.9082 580.725L58.918 580.725L62.1895 582.082C62.3392 582.147 62.4889 582.147 62.6387 582.082C62.7884 582.023 62.8926 581.919 62.9512 581.77ZM49.0254 567.209C49.0254 567.372 49.084 567.512 49.2012 567.629C49.3118 567.74 49.4486 567.795 49.6113 567.795L62.4141 567.795C62.5768 567.795 62.7168 567.74 62.834 567.629C62.9447 567.512 63 567.372 63 567.209L63 560.295C63 560.132 62.9447 559.995 62.834 559.885C62.7168 559.768 62.5768 559.709 62.4141 559.709C62.2578 559.709 62.1211 559.768 62.0039 559.885C61.8932 559.995 61.8379 560.132 61.8379 560.295L61.8379 566.633L49.6113 566.633C49.4486 566.633 49.3118 566.688 49.2012 566.799C49.084 566.916 49.0254 567.053 49.0254 567.209ZM49.0254 556.662C49.0254 556.825 49.084 556.965 49.2012 557.082C49.3118 557.193 49.4486 557.248 49.6113 557.248L62.4141 557.248C62.5768 557.248 62.7168 557.193 62.834 557.082C62.9447 556.965 63 556.825 63 556.662L63 549.748C63 549.585 62.9447 549.449 62.834 549.338C62.7168 549.221 62.5768 549.162 62.4141 549.162C62.2578 549.162 62.1211 549.221 62.0039 549.338C61.8932 549.449 61.8379 549.585 61.8379 549.748L61.8379 556.086L49.6113 556.086C49.4486 556.086 49.3118 556.141 49.2012 556.252C49.084 556.369 49.0254 556.506 49.0254 556.662ZM50.1582 535.676C50.1582 534.068 50.7311 532.694 51.877 531.555C53.0163 530.409 54.39 529.836 55.998 529.836C57.6061 529.836 58.9798 530.409 60.1191 531.555C61.2585 532.694 61.8281 534.068 61.8281 535.676C61.8281 537.284 61.2585 538.658 60.1191 539.797C58.9798 540.936 57.6061 541.506 55.998 541.506C54.39 541.506 53.0163 540.936 51.877 539.797C50.7311 538.658 50.1582 537.284 50.1582 535.676ZM63 535.676C63 533.742 62.3164 532.092 60.9492 530.725C59.582 529.357 57.9316 528.674 55.998 528.674C54.0645 528.674 52.4141 529.357 51.0469 530.725C49.6797 532.092 48.9961 533.742 48.9961 535.676C48.9961 537.609 49.6797 539.26 51.0469 540.627C52.4141 541.994 54.0645 542.678 55.998 542.678C57.9316 542.678 59.582 541.994 60.9492 540.627C62.3164 539.26 63 537.609 63 535.676ZM56.5742 524.191L56.5742 518.83C56.5742 518.667 56.5156 518.531 56.3984 518.42C56.2878 518.303 56.151 518.244 55.9883 518.244C55.8255 518.244 55.6888 518.303 55.5781 518.42C55.4609 518.531 55.4023 518.667 55.4023 518.83L55.4023 524.191L50.1484 524.191L50.168 517.023C50.168 516.861 50.1126 516.724 50.002 516.613C49.8848 516.496 49.7448 516.437 49.582 516.437C49.4258 516.437 49.2891 516.496 49.1719 516.613C49.0547 516.724 48.9961 516.861 48.9961 517.023L48.9766 524.777C48.97 524.927 49.0286 525.064 49.1523 525.187C49.263 525.305 49.3997 525.363 49.5625 525.363L62.4141 525.363C62.5768 525.363 62.7135 525.305 62.8242 525.187C62.9414 525.077 63 524.94 63 524.777C63 524.615 62.9414 524.478 62.8242 524.367C62.7135 524.25 62.5768 524.191 62.4141 524.191L56.5742 524.191ZM50.1582 508.088L50.1582 505.422C50.1582 503.82 50.7246 502.45 51.8574 501.311C52.9967 500.171 54.3672 499.602 55.9687 499.602C57.5703 499.602 58.9408 500.171 60.0801 501.311C61.2129 502.45 61.7793 503.824 61.7793 505.432L61.8184 508.088L50.1582 508.088ZM63 508.664L62.9609 505.422C62.9609 503.495 62.2773 501.848 60.9102 500.48C59.543 499.113 57.8958 498.43 55.9687 498.43C54.0417 498.43 52.3945 499.113 51.0273 500.48C49.6602 501.848 48.9766 503.495 48.9766 505.422L48.9766 508.674C48.9766 508.837 49.0352 508.973 49.1523 509.084C49.2695 509.201 49.4095 509.26 49.5723 509.26L62.4141 509.26C62.5768 509.26 62.7168 509.201 62.834 509.084C62.9447 508.973 63 508.837 63 508.674L63 508.664ZM63 486.711C63 486.548 62.9414 486.411 62.8242 486.301C62.7135 486.184 62.5768 486.125 62.4141 486.125C62.2513 486.125 62.1146 486.184 62.0039 486.301C61.8867 486.411 61.8281 486.548 61.8281 486.711L61.8281 493.879L56.5742 493.879L56.5742 488.518C56.5742 488.355 56.5156 488.218 56.3984 488.107C56.2878 487.99 56.151 487.932 55.9883 487.932C55.8255 487.932 55.6888 487.99 55.5781 488.107C55.4609 488.218 55.4023 488.355 55.4023 488.518L55.4023 493.879L50.1484 493.879L50.168 486.711C50.168 486.548 50.1126 486.411 50.0019 486.301C49.8848 486.184 49.7448 486.125 49.582 486.125C49.4258 486.125 49.2891 486.184 49.1719 486.301C49.0547 486.411 48.9961 486.548 48.9961 486.711L48.9766 494.465C48.97 494.621 49.0286 494.758 49.1523 494.875C49.263 494.992 49.3997 495.051 49.5625 495.051L62.4141 495.051C62.5768 495.051 62.7135 494.992 62.8242 494.875C62.9414 494.764 63 494.628 63 494.465L63 486.711ZM63 479.084C63 480.113 62.7884 481.031 62.3652 481.838C61.8509 482.808 61.1087 483.42 60.1387 483.674C59.9889 483.713 59.8424 483.693 59.6992 483.615C59.5625 483.531 59.4746 483.41 59.4355 483.254C59.3965 483.104 59.416 482.958 59.4941 482.814C59.5788 482.678 59.696 482.59 59.8457 482.551C60.5228 482.375 61.0404 481.919 61.3984 481.184C61.6914 480.572 61.8379 479.872 61.8379 479.084C61.8379 478.231 61.5644 477.499 61.0176 476.887C60.4707 476.275 59.8034 475.949 59.0156 475.91C58.4492 475.884 57.9479 476.079 57.5117 476.496C56.9062 477.062 56.5937 477.964 56.5742 479.201C56.5742 479.364 56.5156 479.501 56.3984 479.611C56.2812 479.722 56.1445 479.777 55.9883 479.777C55.8255 479.771 55.6888 479.709 55.5781 479.592C55.4674 479.481 55.4121 479.344 55.4121 479.182C55.4381 477.619 55.8743 476.441 56.7207 475.646C57.3913 475.008 58.1725 474.712 59.0644 474.758C60.1647 474.803 61.0957 475.246 61.8574 476.086C62.6191 476.919 63 477.919 63 479.084ZM56.5742 479.26C56.5547 480.822 56.1217 482.001 55.2754 482.795C54.5983 483.433 53.8138 483.732 52.9219 483.693C51.8216 483.641 50.8906 483.195 50.1289 482.355C49.3672 481.522 48.9863 480.523 48.9863 479.357C48.9863 478.329 49.2012 477.411 49.6309 476.604C50.1387 475.633 50.8776 475.021 51.8477 474.768C52.0039 474.729 52.1504 474.748 52.2871 474.826C52.4238 474.911 52.5117 475.031 52.5508 475.187C52.5963 475.344 52.5768 475.49 52.4922 475.627C52.4141 475.764 52.2969 475.852 52.1406 475.891C51.4635 476.066 50.9492 476.522 50.5977 477.258C50.2982 477.87 50.1484 478.57 50.1484 479.357C50.1484 480.21 50.4219 480.943 50.9687 481.555C51.5156 482.167 52.1862 482.492 52.9805 482.531C53.5404 482.557 54.0384 482.362 54.4746 481.945C55.0801 481.379 55.3926 480.477 55.4121 479.24C55.4186 479.077 55.4772 478.941 55.5879 478.83C55.7051 478.719 55.845 478.664 56.0078 478.664C56.1641 478.671 56.2975 478.729 56.4082 478.84C56.5189 478.957 56.5742 479.094 56.5742 479.25L56.5742 479.26ZM49.6211 470.187C49.4583 470.187 49.3216 470.246 49.2109 470.363C49.0937 470.474 49.0352 470.611 49.0352 470.773C49.0352 470.936 49.0937 471.073 49.2109 471.184C49.3216 471.301 49.4583 471.359 49.6211 471.359L62.4141 471.359C62.5768 471.359 62.7135 471.301 62.8242 471.184C62.9414 471.073 63 470.936 63 470.773C63 470.611 62.9414 470.474 62.8242 470.363C62.7135 470.246 62.5768 470.187 62.4141 470.187L49.6211 470.187ZM63 460.031C63 461.965 62.3131 463.615 60.9394 464.982C59.5723 466.356 57.9219 467.043 55.9883 467.043C54.0547 467.043 52.401 466.356 51.0273 464.982C49.6602 463.615 48.9766 461.965 48.9766 460.031C48.9766 458.443 49.4583 457.02 50.4219 455.764C50.526 455.633 50.6562 455.559 50.8125 455.539C50.9753 455.513 51.1217 455.552 51.2519 455.656C51.3822 455.754 51.457 455.884 51.4766 456.047C51.4961 456.203 51.457 456.346 51.3594 456.477C50.5521 457.525 50.1484 458.71 50.1484 460.031C50.1484 461.639 50.7213 463.013 51.8672 464.152C53.0065 465.292 54.3802 465.861 55.9883 465.861C57.5963 465.861 58.97 465.292 60.1094 464.152C61.2487 463.013 61.8184 461.639 61.8184 460.031C61.8184 458.521 61.3138 457.212 60.3047 456.105C60.194 455.982 60.1419 455.839 60.1484 455.676C60.1549 455.513 60.22 455.376 60.3437 455.266C60.4609 455.161 60.6009 455.113 60.7637 455.119C60.9264 455.126 61.0631 455.187 61.1738 455.305C62.3913 456.646 63 458.221 63 460.031ZM63 455.588C63 455.751 62.9414 455.891 62.8242 456.008C62.7135 456.118 62.5768 456.174 62.4141 456.174L56.2227 456.174L56.2227 461.076C56.2227 461.239 56.1673 461.379 56.0566 461.496C55.9394 461.613 55.7995 461.672 55.6367 461.672C55.474 461.672 55.3372 461.613 55.2266 461.496C55.1094 461.379 55.0508 461.239 55.0508 461.076L55.0508 455.588C55.0508 455.425 55.1094 455.285 55.2266 455.168C55.3372 455.057 55.474 455.002 55.6367 455.002L62.4141 455.002C62.5768 455.002 62.7135 455.057 62.8242 455.168C62.9414 455.285 63 455.425 63 455.588ZM62.7949 441.301C62.8144 441.281 62.834 441.262 62.8535 441.242C62.8665 441.223 62.8763 441.21 62.8828 441.203C62.8958 441.184 62.9088 441.161 62.9219 441.135C62.9349 441.115 62.9447 441.102 62.9512 441.096C62.9577 441.076 62.9674 441.05 62.9805 441.018C62.987 440.992 62.9902 440.979 62.9902 440.979C62.9967 440.939 63 440.9 63 440.861C63 440.829 62.9967 440.793 62.9902 440.754C62.9902 440.747 62.987 440.734 62.9805 440.715C62.974 440.689 62.9674 440.666 62.9609 440.646C62.9544 440.633 62.9479 440.62 62.9414 440.607C62.9349 440.588 62.9251 440.568 62.9121 440.549C62.9056 440.536 62.8991 440.526 62.8926 440.52C62.873 440.493 62.8665 440.487 62.873 440.5C62.8861 440.513 62.8796 440.503 62.8535 440.471C62.834 440.451 62.821 440.438 62.8144 440.432C62.8014 440.419 62.7852 440.406 62.7656 440.393C62.7461 440.38 62.7298 440.37 62.7168 440.363C62.7038 440.35 62.6875 440.34 62.668 440.334C62.6484 440.327 62.6322 440.321 62.6191 440.314C62.6061 440.308 62.5866 440.301 62.5605 440.295C62.541 440.288 62.5247 440.285 62.5117 440.285C62.4922 440.279 62.4727 440.275 62.4531 440.275C62.4141 440.275 62.401 440.275 62.4141 440.275L49.5527 440.275C49.39 440.275 49.2532 440.331 49.1426 440.441C49.0254 440.559 48.9668 440.699 48.9668 440.861C48.9668 441.018 49.0254 441.154 49.1426 441.271C49.2532 441.382 49.39 441.437 49.5527 441.437L60.7051 441.437L49.1914 450.383C48.97 450.552 48.9049 450.77 48.9961 451.037C49.0872 451.298 49.2728 451.428 49.5527 451.428L62.4141 451.428C62.5768 451.428 62.7135 451.369 62.8242 451.252C62.9414 451.141 63 451.005 63 450.842C63 450.679 62.9414 450.542 62.8242 450.432C62.7135 450.314 62.5768 450.256 62.4141 450.256L51.2617 450.256L62.7754 441.32C62.7754 441.32 62.7786 441.317 62.7852 441.311C62.7917 441.304 62.7949 441.301 62.7949 441.301ZM59.8359 435.139C59.8359 435.295 59.8945 435.432 60.0117 435.549C60.1224 435.66 60.2591 435.715 60.4219 435.715L62.4238 435.715C62.5801 435.715 62.7168 435.66 62.834 435.549C62.9447 435.432 63 435.295 63 435.139C63 434.976 62.9447 434.836 62.834 434.719C62.7168 434.608 62.5801 434.553 62.4238 434.553L60.4219 434.553C60.2591 434.553 60.1224 434.608 60.0117 434.719C59.8945 434.836 59.8359 434.976 59.8359 435.139ZM62.4141 421.682C62.5768 421.682 62.7168 421.626 62.834 421.516C62.9447 421.398 63 421.262 63 421.105C63 420.943 62.9447 420.803 62.834 420.686C62.7168 420.575 62.5768 420.52 62.4141 420.52L50.1582 420.52L50.1582 416.662C50.1582 416.499 50.1029 416.363 49.9922 416.252C49.8815 416.135 49.7448 416.076 49.582 416.076C49.4193 416.076 49.2825 416.135 49.1719 416.252C49.0547 416.363 48.9961 416.499 48.9961 416.662L48.9961 425.539C48.9961 425.702 49.0547 425.842 49.1719 425.959C49.2825 426.07 49.4193 426.125 49.582 426.125C49.7448 426.125 49.8815 426.07 49.9922 425.959C50.1029 425.842 50.1582 425.702 50.1582 425.539L50.1582 421.682L62.4141 421.682ZM52.7851 405.959C53.4948 405.959 54.1035 406.239 54.6113 406.799C55.1191 407.352 55.3795 408.026 55.3926 408.82L55.3926 412.727L50.168 412.727L50.168 408.889C50.168 408.081 50.4251 407.391 50.9394 406.818C51.4473 406.245 52.0625 405.959 52.7851 405.959ZM49.0156 413.312C49.0156 413.469 49.071 413.605 49.1816 413.723C49.2923 413.833 49.429 413.889 49.5918 413.889L62.3262 413.889C62.4824 413.889 62.6191 413.833 62.7363 413.723C62.847 413.605 62.9023 413.469 62.9023 413.312C62.9023 413.15 62.847 413.013 62.7363 412.902C62.6191 412.785 62.4824 412.727 62.3262 412.727L56.5547 412.727L56.5547 409.465L62.6777 406.447C62.8926 406.343 63 406.171 63 405.93C63 405.839 62.9805 405.754 62.9414 405.676C62.8698 405.533 62.7591 405.435 62.6094 405.383C62.4596 405.331 62.3131 405.34 62.1699 405.412L56.4961 408.195C56.3463 407.225 55.9232 406.421 55.2266 405.783C54.5234 405.132 53.7096 404.807 52.7851 404.807C51.7435 404.807 50.8548 405.204 50.1191 405.998C49.3835 406.799 49.0156 407.762 49.0156 408.889L49.0156 413.312ZM58.5566 399.709L51.1152 396.623L58.5566 393.537L58.5566 399.709ZM62.9512 402.16C62.9837 402.089 63 402.014 63 401.936C63 401.675 62.8795 401.496 62.6387 401.398L59.7285 400.187L59.7285 393.059L62.6387 391.848C62.8795 391.75 63 391.571 63 391.311C63 391.232 62.9837 391.158 62.9512 391.086C62.8926 390.936 62.7884 390.832 62.6387 390.773C62.4889 390.708 62.3392 390.708 62.1894 390.773L58.918 392.131L58.9082 392.131L49.3672 396.086C49.3346 396.099 49.2988 396.115 49.2598 396.135C49.2663 396.135 49.2532 396.148 49.2207 396.174C49.1947 396.193 49.1784 396.206 49.1719 396.213C49.1719 396.219 49.1588 396.236 49.1328 396.262C49.1133 396.288 49.1035 396.301 49.1035 396.301C49.0579 396.366 49.0286 396.437 49.0156 396.516C49.0156 396.509 49.0156 396.525 49.0156 396.564C49.0091 396.597 49.0059 396.617 49.0059 396.623C49.0059 396.63 49.0091 396.652 49.0156 396.691C49.0156 396.724 49.0156 396.74 49.0156 396.74C49.0286 396.812 49.0579 396.88 49.1035 396.945C49.097 396.939 49.1068 396.952 49.1328 396.984C49.1523 397.01 49.1654 397.027 49.1719 397.033C49.1784 397.04 49.1947 397.053 49.2207 397.072C49.2467 397.098 49.2598 397.111 49.2598 397.111C49.2988 397.131 49.3346 397.147 49.3672 397.16L58.9082 401.115L58.918 401.115L62.1894 402.473C62.3392 402.538 62.4889 402.538 62.6387 402.473C62.7884 402.414 62.8926 402.31 62.9512 402.16ZM49.0254 379.377C48.9733 379.533 48.9831 379.683 49.0547 379.826C49.1198 379.969 49.2305 380.067 49.3867 380.119L60.6562 384.084L49.3867 388.039C49.2305 388.091 49.1198 388.189 49.0547 388.332C48.9831 388.475 48.9733 388.625 49.0254 388.781C49.0775 388.931 49.1784 389.042 49.3281 389.113C49.4713 389.185 49.6178 389.191 49.7676 389.133L62.6094 384.631C62.6029 384.631 62.6159 384.624 62.6484 384.611C62.6614 384.605 62.6712 384.602 62.6777 384.602C62.7038 384.589 62.7266 384.572 62.7461 384.553C62.7526 384.553 62.7559 384.553 62.7559 384.553C62.7624 384.546 62.7656 384.543 62.7656 384.543C62.7917 384.523 62.8177 384.501 62.8437 384.475C62.8372 384.481 62.8437 384.475 62.8633 384.455C62.8763 384.436 62.8893 384.416 62.9023 384.396C62.9088 384.39 62.9154 384.38 62.9219 384.367C62.9349 384.341 62.9479 384.315 62.9609 384.289C62.9609 384.289 62.9609 384.286 62.9609 384.279C62.9609 384.279 62.9642 384.276 62.9707 384.27C62.9642 384.276 62.9642 384.276 62.9707 384.27C62.9772 384.25 62.9837 384.227 62.9902 384.201C62.9902 384.175 62.9902 384.165 62.9902 384.172C62.9967 384.139 63 384.11 63 384.084C63 384.051 62.9967 384.019 62.9902 383.986C62.9902 383.993 62.9902 383.983 62.9902 383.957C62.9837 383.931 62.9772 383.911 62.9707 383.898C62.9642 383.885 62.9642 383.882 62.9707 383.889C62.9642 383.882 62.9609 383.879 62.9609 383.879C62.9609 383.872 62.9609 383.869 62.9609 383.869C62.9479 383.843 62.9349 383.82 62.9219 383.801C62.9154 383.788 62.9088 383.775 62.9023 383.762C62.8893 383.742 62.8763 383.723 62.8633 383.703C62.8437 383.684 62.8372 383.677 62.8437 383.684C62.8177 383.658 62.7917 383.635 62.7656 383.615C62.7786 383.622 62.7721 383.618 62.7461 383.605C62.7266 383.586 62.7038 383.57 62.6777 383.557C62.6712 383.557 62.6614 383.553 62.6484 383.547C62.6094 383.534 62.5963 383.527 62.6094 383.527L49.7676 379.025C49.6178 378.973 49.4713 378.98 49.3281 379.045C49.1784 379.117 49.0775 379.227 49.0254 379.377ZM63 367.98C63 367.818 62.9414 367.681 62.8242 367.57C62.7135 367.453 62.5768 367.395 62.4141 367.395C62.2513 367.395 62.1146 367.453 62.0039 367.57C61.8867 367.681 61.8281 367.818 61.8281 367.98L61.8281 375.148L56.5742 375.148L56.5742 369.787C56.5742 369.624 56.5156 369.488 56.3984 369.377C56.2878 369.26 56.151 369.201 55.9883 369.201C55.8255 369.201 55.6888 369.26 55.5781 369.377C55.4609 369.488 55.4023 369.624 55.4023 369.787L55.4023 375.148L50.1484 375.148L50.168 367.98C50.168 367.818 50.1126 367.681 50.0019 367.57C49.8848 367.453 49.7448 367.395 49.582 367.395C49.4258 367.395 49.2891 367.453 49.1719 367.57C49.0547 367.681 48.9961 367.818 48.9961 367.98L48.9766 375.734C48.97 375.891 49.0286 376.027 49.1523 376.145C49.263 376.262 49.3997 376.32 49.5625 376.32L62.4141 376.32C62.5768 376.32 62.7135 376.262 62.8242 376.145C62.9414 376.034 63 375.897 63 375.734L63 367.98ZM49.0254 363.889C49.0254 364.051 49.084 364.191 49.2012 364.309C49.3118 364.419 49.4486 364.475 49.6113 364.475L62.4141 364.475C62.5768 364.475 62.7168 364.419 62.834 364.309C62.9447 364.191 63 364.051 63 363.889L63 356.975C63 356.812 62.9447 356.675 62.834 356.564C62.7168 356.447 62.5768 356.389 62.4141 356.389C62.2578 356.389 62.1211 356.447 62.0039 356.564C61.8932 356.675 61.8379 356.812 61.8379 356.975L61.8379 363.312L49.6113 363.312C49.4486 363.312 49.3118 363.368 49.2012 363.479C49.084 363.596 49.0254 363.732 49.0254 363.889ZM59.8359 352.521C59.8359 352.678 59.8945 352.814 60.0117 352.932C60.1224 353.042 60.2591 353.098 60.4219 353.098L62.4238 353.098C62.5801 353.098 62.7168 353.042 62.834 352.932C62.9447 352.814 63 352.678 63 352.521C63 352.359 62.9447 352.219 62.834 352.102C62.7168 351.991 62.5801 351.936 62.4238 351.936L60.4219 351.936C60.2591 351.936 60.1224 351.991 60.0117 352.102C59.8945 352.219 59.8359 352.359 59.8359 352.521ZM56.5742 340.93L56.5742 335.568C56.5742 335.406 56.5156 335.269 56.3984 335.158C56.2877 335.041 56.151 334.982 55.9883 334.982C55.8255 334.982 55.6888 335.041 55.5781 335.158C55.4609 335.269 55.4023 335.406 55.4023 335.568L55.4023 340.93L50.1484 340.93L50.168 333.762C50.168 333.599 50.1126 333.462 50.0019 333.352C49.8848 333.234 49.7448 333.176 49.582 333.176C49.4258 333.176 49.2891 333.234 49.1719 333.352C49.0547 333.462 48.9961 333.599 48.9961 333.762L48.9766 341.516C48.97 341.665 49.0286 341.802 49.1523 341.926C49.263 342.043 49.3997 342.102 49.5625 342.102L62.4141 342.102C62.5768 342.102 62.7135 342.043 62.8242 341.926C62.9414 341.815 63 341.678 63 341.516C63 341.353 62.9414 341.216 62.8242 341.105C62.7135 340.988 62.5768 340.93 62.4141 340.93L56.5742 340.93ZM58.5566 329.025L51.1152 325.939L58.5566 322.854L58.5566 329.025ZM62.9512 331.477C62.9837 331.405 63 331.33 63 331.252C63 330.992 62.8795 330.812 62.6387 330.715L59.7285 329.504L59.7285 322.375L62.6387 321.164C62.8795 321.066 63 320.887 63 320.627C63 320.549 62.9837 320.474 62.9512 320.402C62.8926 320.253 62.7884 320.148 62.6387 320.09C62.4889 320.025 62.3392 320.025 62.1894 320.09L58.918 321.447L58.9082 321.447L49.3672 325.402C49.3346 325.415 49.2988 325.432 49.2598 325.451C49.2663 325.451 49.2532 325.464 49.2207 325.49C49.1947 325.51 49.1784 325.523 49.1719 325.529C49.1719 325.536 49.1588 325.552 49.1328 325.578C49.1133 325.604 49.1035 325.617 49.1035 325.617C49.0579 325.682 49.0286 325.754 49.0156 325.832C49.0156 325.826 49.0156 325.842 49.0156 325.881C49.0091 325.913 49.0058 325.933 49.0058 325.939C49.0058 325.946 49.0091 325.969 49.0156 326.008C49.0156 326.04 49.0156 326.057 49.0156 326.057C49.0286 326.128 49.0579 326.197 49.1035 326.262C49.097 326.255 49.1068 326.268 49.1328 326.301C49.1523 326.327 49.1654 326.343 49.1719 326.35C49.1784 326.356 49.1947 326.369 49.2207 326.389C49.2467 326.415 49.2598 326.428 49.2598 326.428C49.2988 326.447 49.3346 326.464 49.3672 326.477L58.9082 330.432L58.918 330.432L62.1894 331.789C62.3392 331.854 62.4889 331.854 62.6387 331.789C62.7884 331.73 62.8926 331.626 62.9512 331.477ZM63 313.381C63 314.41 62.7884 315.327 62.3652 316.135C61.8509 317.105 61.1087 317.717 60.1387 317.971C59.9889 318.01 59.8424 317.99 59.6992 317.912C59.5625 317.827 59.4746 317.707 59.4355 317.551C59.3965 317.401 59.416 317.255 59.4941 317.111C59.5788 316.975 59.696 316.887 59.8457 316.848C60.5228 316.672 61.0404 316.216 61.3984 315.48C61.6914 314.868 61.8379 314.169 61.8379 313.381C61.8379 312.528 61.5644 311.796 61.0176 311.184C60.4707 310.572 59.8034 310.246 59.0156 310.207C58.4492 310.181 57.9479 310.376 57.5117 310.793C56.9062 311.359 56.5937 312.261 56.5742 313.498C56.5742 313.661 56.5156 313.798 56.3984 313.908C56.2812 314.019 56.1445 314.074 55.9883 314.074C55.8255 314.068 55.6888 314.006 55.5781 313.889C55.4674 313.778 55.4121 313.641 55.4121 313.479C55.4381 311.916 55.8743 310.738 56.7207 309.943C57.3913 309.305 58.1725 309.009 59.0644 309.055C60.1647 309.1 61.0957 309.543 61.8574 310.383C62.6191 311.216 63 312.215 63 313.381ZM56.5742 313.557C56.5547 315.119 56.1217 316.298 55.2754 317.092C54.5983 317.73 53.8138 318.029 52.9219 317.99C51.8216 317.938 50.8906 317.492 50.1289 316.652C49.3672 315.819 48.9863 314.82 48.9863 313.654C48.9863 312.626 49.2012 311.708 49.6308 310.9C50.1387 309.93 50.8776 309.318 51.8476 309.064C52.0039 309.025 52.1504 309.045 52.2871 309.123C52.4238 309.208 52.5117 309.328 52.5508 309.484C52.5963 309.641 52.5768 309.787 52.4922 309.924C52.4141 310.061 52.2969 310.148 52.1406 310.187C51.4635 310.363 50.9492 310.819 50.5976 311.555C50.2982 312.167 50.1484 312.867 50.1484 313.654C50.1484 314.507 50.4219 315.24 50.9687 315.852C51.5156 316.464 52.1862 316.789 52.9805 316.828C53.5404 316.854 54.0384 316.659 54.4746 316.242C55.0801 315.676 55.3926 314.774 55.4121 313.537C55.4186 313.374 55.4772 313.238 55.5879 313.127C55.7051 313.016 55.845 312.961 56.0078 312.961C56.1641 312.967 56.2975 313.026 56.4082 313.137C56.5189 313.254 56.5742 313.391 56.5742 313.547L56.5742 313.557ZM63 295.939C63 295.777 62.9414 295.64 62.8242 295.529C62.7135 295.412 62.5768 295.354 62.414 295.354L49.5918 295.354C49.429 295.354 49.2923 295.412 49.1816 295.529C49.0644 295.64 49.0058 295.777 49.0058 295.939C49.0058 296.102 49.0644 296.242 49.1816 296.359C49.2923 296.47 49.429 296.525 49.5918 296.525L55.4121 296.525L55.4121 304.504L49.5918 304.504C49.429 304.504 49.2923 304.559 49.1816 304.67C49.0644 304.787 49.0058 304.927 49.0058 305.09C49.0058 305.253 49.0644 305.389 49.1816 305.5C49.2923 305.617 49.429 305.676 49.5918 305.676L62.4141 305.676C62.5768 305.676 62.7135 305.617 62.8242 305.5C62.9414 305.389 63 305.253 63 305.09C63 304.927 62.9414 304.787 62.8242 304.67C62.7135 304.559 62.5768 304.504 62.4141 304.504L56.5937 304.504L56.5937 296.525L62.414 296.525C62.5768 296.525 62.7135 296.47 62.8242 296.359C62.9414 296.242 63 296.102 63 295.939ZM49.6211 290.383C49.4583 290.383 49.3216 290.441 49.2109 290.559C49.0937 290.669 49.0351 290.806 49.0351 290.969C49.0351 291.132 49.0937 291.268 49.2109 291.379C49.3216 291.496 49.4583 291.555 49.6211 291.555L62.414 291.555C62.5768 291.555 62.7135 291.496 62.8242 291.379C62.9414 291.268 63 291.132 63 290.969C63 290.806 62.9414 290.669 62.8242 290.559C62.7135 290.441 62.5768 290.383 62.414 290.383L49.6211 290.383ZM50.1582 280.344C50.1582 278.736 50.7311 277.362 51.8769 276.223C53.0163 275.077 54.39 274.504 55.998 274.504C57.6061 274.504 58.9798 275.077 60.1191 276.223C61.2585 277.362 61.8281 278.736 61.8281 280.344C61.8281 281.952 61.2585 283.326 60.1191 284.465C58.9798 285.604 57.6061 286.174 55.998 286.174C54.39 286.174 53.0163 285.604 51.8769 284.465C50.7311 283.326 50.1582 281.952 50.1582 280.344ZM63 280.344C63 278.41 62.3164 276.76 60.9492 275.393C59.582 274.025 57.9316 273.342 55.998 273.342C54.0644 273.342 52.414 274.025 51.0469 275.393C49.6797 276.76 48.9961 278.41 48.9961 280.344C48.9961 282.277 49.6797 283.928 51.0469 285.295C52.414 286.662 54.0644 287.346 55.998 287.346C57.9316 287.346 59.582 286.662 60.9492 285.295C62.3164 283.928 63 282.277 63 280.344ZM62.7949 259.914C62.8144 259.895 62.834 259.875 62.8535 259.855C62.8665 259.836 62.8763 259.823 62.8828 259.816C62.8958 259.797 62.9088 259.774 62.9219 259.748C62.9349 259.729 62.9446 259.715 62.9512 259.709C62.9577 259.689 62.9674 259.663 62.9805 259.631C62.987 259.605 62.9902 259.592 62.9902 259.592C62.9967 259.553 63 259.514 63 259.475C63 259.442 62.9967 259.406 62.9902 259.367C62.9902 259.361 62.987 259.348 62.9805 259.328C62.9739 259.302 62.9674 259.279 62.9609 259.26C62.9544 259.247 62.9479 259.234 62.9414 259.221C62.9349 259.201 62.9251 259.182 62.9121 259.162C62.9056 259.149 62.8991 259.139 62.8926 259.133C62.873 259.107 62.8665 259.1 62.873 259.113C62.8861 259.126 62.8795 259.117 62.8535 259.084C62.834 259.064 62.8209 259.051 62.8144 259.045C62.8014 259.032 62.7851 259.019 62.7656 259.006C62.7461 258.993 62.7298 258.983 62.7168 258.977C62.7038 258.964 62.6875 258.954 62.668 258.947C62.6484 258.941 62.6321 258.934 62.6191 258.928C62.6061 258.921 62.5866 258.915 62.5605 258.908C62.541 258.902 62.5247 258.898 62.5117 258.898C62.4922 258.892 62.4726 258.889 62.4531 258.889C62.414 258.889 62.401 258.889 62.414 258.889L49.5527 258.889C49.39 258.889 49.2532 258.944 49.1426 259.055C49.0254 259.172 48.9668 259.312 48.9668 259.475C48.9668 259.631 49.0254 259.768 49.1426 259.885C49.2532 259.995 49.39 260.051 49.5527 260.051L60.7051 260.051L49.1914 268.996C48.97 269.165 48.9049 269.383 48.9961 269.65C49.0872 269.911 49.2728 270.041 49.5527 270.041L62.414 270.041C62.5768 270.041 62.7135 269.982 62.8242 269.865C62.9414 269.755 63 269.618 63 269.455C63 269.292 62.9414 269.156 62.8242 269.045C62.7135 268.928 62.5768 268.869 62.414 268.869L51.2617 268.869L62.7754 259.934C62.7754 259.934 62.7786 259.93 62.7851 259.924C62.7917 259.917 62.7949 259.914 62.7949 259.914ZM59.8359 253.752C59.8359 253.908 59.8945 254.045 60.0117 254.162C60.1224 254.273 60.2591 254.328 60.4219 254.328L62.4238 254.328C62.5801 254.328 62.7168 254.273 62.834 254.162C62.9446 254.045 63 253.908 63 253.752C63 253.589 62.9446 253.449 62.834 253.332C62.7168 253.221 62.5801 253.166 62.4238 253.166L60.4219 253.166C60.2591 253.166 60.1224 253.221 60.0117 253.332C59.8945 253.449 59.8359 253.589 59.8359 253.752ZM58.5566 241.389L51.1152 238.303L58.5566 235.217L58.5566 241.389ZM62.9512 243.84C62.9837 243.768 63 243.693 63 243.615C63 243.355 62.8795 243.176 62.6387 243.078L59.7285 241.867L59.7285 234.738L62.6387 233.527C62.8795 233.43 63 233.251 63 232.99C63 232.912 62.9837 232.837 62.9512 232.766C62.8926 232.616 62.7884 232.512 62.6387 232.453C62.4889 232.388 62.3392 232.388 62.1894 232.453L58.918 233.811L58.9082 233.811L49.3672 237.766C49.3346 237.779 49.2988 237.795 49.2598 237.814C49.2663 237.814 49.2532 237.827 49.2207 237.854C49.1946 237.873 49.1784 237.886 49.1719 237.893C49.1719 237.899 49.1588 237.915 49.1328 237.941C49.1133 237.967 49.1035 237.98 49.1035 237.98C49.0579 238.046 49.0286 238.117 49.0156 238.195C49.0156 238.189 49.0156 238.205 49.0156 238.244C49.0091 238.277 49.0058 238.296 49.0058 238.303C49.0058 238.309 49.0091 238.332 49.0156 238.371C49.0156 238.404 49.0156 238.42 49.0156 238.42C49.0286 238.492 49.0579 238.56 49.1035 238.625C49.097 238.618 49.1068 238.632 49.1328 238.664C49.1523 238.69 49.1653 238.706 49.1719 238.713C49.1784 238.719 49.1946 238.732 49.2207 238.752C49.2467 238.778 49.2598 238.791 49.2598 238.791C49.2988 238.811 49.3346 238.827 49.3672 238.84L58.9082 242.795L58.918 242.795L62.1894 244.152C62.3392 244.217 62.4889 244.217 62.6387 244.152C62.7884 244.094 62.8926 243.99 62.9512 243.84ZM49.6211 228.684C49.4583 228.684 49.3216 228.742 49.2109 228.859C49.0937 228.97 49.0351 229.107 49.0351 229.27C49.0351 229.432 49.0937 229.569 49.2109 229.68C49.3216 229.797 49.4583 229.855 49.6211 229.855L62.414 229.855C62.5768 229.855 62.7135 229.797 62.8242 229.68C62.9414 229.569 63 229.432 63 229.27C63 229.107 62.9414 228.97 62.8242 228.859C62.7135 228.742 62.5768 228.684 62.414 228.684L49.6211 228.684ZM52.7851 216.799C53.4948 216.799 54.1035 217.079 54.6113 217.639C55.1191 218.192 55.3795 218.866 55.3926 219.66L55.3926 223.566L50.168 223.566L50.168 219.729C50.168 218.921 50.4251 218.231 50.9394 217.658C51.4472 217.085 52.0625 216.799 52.7851 216.799ZM49.0156 224.152C49.0156 224.309 49.0709 224.445 49.1816 224.562C49.2923 224.673 49.429 224.729 49.5918 224.729L62.3262 224.729C62.4824 224.729 62.6191 224.673 62.7363 224.562C62.847 224.445 62.9023 224.309 62.9023 224.152C62.9023 223.99 62.847 223.853 62.7363 223.742C62.6191 223.625 62.4824 223.566 62.3262 223.566L56.5547 223.566L56.5547 220.305L62.6777 217.287C62.8926 217.183 63 217.01 63 216.77C63 216.678 62.9805 216.594 62.9414 216.516C62.8698 216.372 62.7591 216.275 62.6094 216.223C62.4596 216.171 62.3131 216.18 62.1699 216.252L56.4961 219.035C56.3463 218.065 55.9232 217.261 55.2265 216.623C54.5234 215.972 53.7096 215.646 52.7851 215.646C51.7435 215.646 50.8548 216.044 50.1191 216.838C49.3834 217.639 49.0156 218.602 49.0156 219.729L49.0156 224.152ZM59.0156 205.666C59.7903 205.666 60.4544 205.943 61.0078 206.496C61.5547 207.043 61.8281 207.704 61.8281 208.479C61.8281 208.641 61.8834 208.778 61.9941 208.889C62.1113 209.006 62.2513 209.064 62.414 209.064C62.5768 209.064 62.7135 209.006 62.8242 208.889C62.9414 208.778 63 208.641 63 208.479C63 207.378 62.6094 206.441 61.8281 205.666C61.0534 204.885 60.1159 204.494 59.0156 204.494L49.5722 204.494C49.4095 204.494 49.2695 204.553 49.1523 204.67C49.0351 204.781 48.9765 204.917 48.9765 205.08C48.9765 205.243 49.0351 205.383 49.1523 205.5C49.2695 205.611 49.4095 205.666 49.5722 205.666L59.0156 205.666ZM50.1582 194.602C50.1582 192.993 50.7311 191.62 51.8769 190.48C53.0163 189.335 54.39 188.762 55.998 188.762C57.6061 188.762 58.9798 189.335 60.1191 190.48C61.2584 191.62 61.8281 192.993 61.8281 194.602C61.8281 196.21 61.2584 197.583 60.1191 198.723C58.9798 199.862 57.6061 200.432 55.998 200.432C54.39 200.432 53.0163 199.862 51.8769 198.723C50.7311 197.583 50.1582 196.21 50.1582 194.602ZM63 194.602C63 192.668 62.3164 191.018 60.9492 189.65C59.582 188.283 57.9316 187.6 55.998 187.6C54.0644 187.6 52.414 188.283 51.0469 189.65C49.6797 191.018 48.9961 192.668 48.9961 194.602C48.9961 196.535 49.6797 198.186 51.0469 199.553C52.414 200.92 54.0644 201.604 55.998 201.604C57.9316 201.604 59.582 200.92 60.9492 199.553C62.3164 198.186 63 196.535 63 194.602ZM52.7851 176.369C53.4948 176.369 54.1035 176.649 54.6113 177.209C55.1191 177.762 55.3795 178.436 55.3926 179.23L55.3926 183.137L50.168 183.137L50.168 179.299C50.168 178.492 50.4251 177.801 50.9394 177.229C51.4472 176.656 52.0625 176.369 52.7851 176.369ZM49.0156 183.723C49.0156 183.879 49.0709 184.016 49.1816 184.133C49.2923 184.243 49.429 184.299 49.5918 184.299L62.3262 184.299C62.4824 184.299 62.6191 184.243 62.7363 184.133C62.847 184.016 62.9023 183.879 62.9023 183.723C62.9023 183.56 62.847 183.423 62.7363 183.312C62.6191 183.195 62.4824 183.137 62.3262 183.137L56.5547 183.137L56.5547 179.875L62.6777 176.857C62.8926 176.753 63 176.581 63 176.34C63 176.249 62.9805 176.164 62.9414 176.086C62.8698 175.943 62.7591 175.845 62.6094 175.793C62.4596 175.741 62.3131 175.751 62.1699 175.822L56.4961 178.605C56.3463 177.635 55.9232 176.831 55.2265 176.193C54.5234 175.542 53.7096 175.217 52.7851 175.217C51.7435 175.217 50.8548 175.614 50.1191 176.408C49.3834 177.209 49.0156 178.173 49.0156 179.299L49.0156 183.723ZM50.1582 170.881L50.1582 168.215C50.1582 166.613 50.7246 165.243 51.8574 164.104C52.9967 162.964 54.3672 162.395 55.9687 162.395C57.5703 162.395 58.9407 162.964 60.0801 164.104C61.2129 165.243 61.7793 166.617 61.7793 168.225L61.8183 170.881L50.1582 170.881ZM63 171.457L62.9609 168.215C62.9609 166.288 62.2773 164.641 60.9101 163.273C59.543 161.906 57.8958 161.223 55.9687 161.223C54.0416 161.223 52.3945 161.906 51.0273 163.273C49.6601 164.641 48.9765 166.288 48.9765 168.215L48.9765 171.467C48.9765 171.63 49.0351 171.766 49.1523 171.877C49.2695 171.994 49.4095 172.053 49.5722 172.053L62.414 172.053C62.5768 172.053 62.7168 171.994 62.834 171.877C62.9446 171.766 63 171.63 63 171.467L63 171.457ZM58.5566 155.861L51.1152 152.775L58.5566 149.689L58.5566 155.861ZM62.9512 158.312C62.9837 158.241 63 158.166 63 158.088C63 157.827 62.8795 157.648 62.6387 157.551L59.7285 156.34L59.7285 149.211L62.6387 148C62.8795 147.902 63 147.723 63 147.463C63 147.385 62.9837 147.31 62.9512 147.238C62.8926 147.089 62.7884 146.984 62.6387 146.926C62.4889 146.861 62.3392 146.861 62.1894 146.926L58.9179 148.283L58.9082 148.283L49.3672 152.238C49.3346 152.251 49.2988 152.268 49.2597 152.287C49.2663 152.287 49.2532 152.3 49.2207 152.326C49.1946 152.346 49.1784 152.359 49.1719 152.365C49.1719 152.372 49.1588 152.388 49.1328 152.414C49.1133 152.44 49.1035 152.453 49.1035 152.453C49.0579 152.518 49.0286 152.59 49.0156 152.668C49.0156 152.661 49.0156 152.678 49.0156 152.717C49.0091 152.749 49.0058 152.769 49.0058 152.775C49.0058 152.782 49.0091 152.805 49.0156 152.844C49.0156 152.876 49.0156 152.893 49.0156 152.893C49.0286 152.964 49.0579 153.033 49.1035 153.098C49.097 153.091 49.1068 153.104 49.1328 153.137C49.1523 153.163 49.1653 153.179 49.1719 153.186C49.1784 153.192 49.1946 153.205 49.2207 153.225C49.2467 153.251 49.2597 153.264 49.2597 153.264C49.2988 153.283 49.3346 153.299 49.3672 153.312L58.9082 157.268L58.918 157.268L62.1894 158.625C62.3392 158.69 62.4889 158.69 62.6387 158.625C62.7884 158.566 62.8926 158.462 62.9512 158.312ZM62.7949 134.23C62.8144 134.211 62.834 134.191 62.8535 134.172C62.8665 134.152 62.8763 134.139 62.8828 134.133C62.8958 134.113 62.9088 134.09 62.9219 134.064C62.9349 134.045 62.9446 134.032 62.9512 134.025C62.9577 134.006 62.9674 133.98 62.9804 133.947C62.987 133.921 62.9902 133.908 62.9902 133.908C62.9967 133.869 63 133.83 63 133.791C63 133.758 62.9967 133.723 62.9902 133.684C62.9902 133.677 62.987 133.664 62.9804 133.645C62.9739 133.618 62.9674 133.596 62.9609 133.576C62.9544 133.563 62.9479 133.55 62.9414 133.537C62.9349 133.518 62.9251 133.498 62.9121 133.479C62.9056 133.465 62.8991 133.456 62.8926 133.449C62.873 133.423 62.8665 133.417 62.873 133.43C62.886 133.443 62.8795 133.433 62.8535 133.4C62.834 133.381 62.8209 133.368 62.8144 133.361C62.8014 133.348 62.7851 133.335 62.7656 133.322C62.7461 133.309 62.7298 133.299 62.7168 133.293C62.7038 133.28 62.6875 133.27 62.6679 133.264C62.6484 133.257 62.6321 133.251 62.6191 133.244C62.6061 133.238 62.5866 133.231 62.5605 133.225C62.541 133.218 62.5247 133.215 62.5117 133.215C62.4922 133.208 62.4726 133.205 62.4531 133.205C62.414 133.205 62.401 133.205 62.414 133.205L49.5527 133.205C49.39 133.205 49.2532 133.26 49.1426 133.371C49.0254 133.488 48.9668 133.628 48.9668 133.791C48.9668 133.947 49.0254 134.084 49.1426 134.201C49.2532 134.312 49.39 134.367 49.5527 134.367L60.7051 134.367L49.1914 143.312C48.97 143.482 48.9049 143.7 48.9961 143.967C49.0872 144.227 49.2728 144.357 49.5527 144.357L62.414 144.357C62.5768 144.357 62.7135 144.299 62.8242 144.182C62.9414 144.071 63 143.934 63 143.771C63 143.609 62.9414 143.472 62.8242 143.361C62.7135 143.244 62.5768 143.186 62.414 143.186L51.2617 143.186L62.7754 134.25C62.7754 134.25 62.7786 134.247 62.7851 134.24C62.7916 134.234 62.7949 134.23 62.7949 134.23ZM59.8359 128.068C59.8359 128.225 59.8945 128.361 60.0117 128.479C60.1224 128.589 60.2591 128.645 60.4219 128.645L62.4238 128.645C62.5801 128.645 62.7168 128.589 62.834 128.479C62.9446 128.361 63 128.225 63 128.068C63 127.906 62.9446 127.766 62.834 127.648C62.7168 127.538 62.5801 127.482 62.4238 127.482L60.4219 127.482C60.2591 127.482 60.1224 127.538 60.0117 127.648C59.8945 127.766 59.8359 127.906 59.8359 128.068ZM62.7949 107.531C62.8144 107.512 62.834 107.492 62.8535 107.473C62.8665 107.453 62.8763 107.44 62.8828 107.434C62.8958 107.414 62.9088 107.391 62.9219 107.365C62.9349 107.346 62.9446 107.333 62.9512 107.326C62.9577 107.307 62.9674 107.281 62.9804 107.248C62.987 107.222 62.9902 107.209 62.9902 107.209C62.9967 107.17 63 107.131 63 107.092C63 107.059 62.9967 107.023 62.9902 106.984C62.9902 106.978 62.987 106.965 62.9804 106.945C62.9739 106.919 62.9674 106.896 62.9609 106.877C62.9544 106.864 62.9479 106.851 62.9414 106.838C62.9349 106.818 62.9251 106.799 62.9121 106.779C62.9056 106.766 62.8991 106.757 62.8926 106.75C62.873 106.724 62.8665 106.717 62.873 106.73C62.886 106.743 62.8795 106.734 62.8535 106.701C62.834 106.682 62.8209 106.669 62.8144 106.662C62.8014 106.649 62.7851 106.636 62.7656 106.623C62.7461 106.61 62.7298 106.6 62.7168 106.594C62.7038 106.581 62.6875 106.571 62.6679 106.564C62.6484 106.558 62.6321 106.551 62.6191 106.545C62.6061 106.538 62.5866 106.532 62.5605 106.525C62.541 106.519 62.5247 106.516 62.5117 106.516C62.4922 106.509 62.4726 106.506 62.4531 106.506C62.414 106.506 62.401 106.506 62.414 106.506L49.5527 106.506C49.39 106.506 49.2532 106.561 49.1426 106.672C49.0254 106.789 48.9668 106.929 48.9668 107.092C48.9668 107.248 49.0254 107.385 49.1426 107.502C49.2532 107.613 49.39 107.668 49.5527 107.668L60.7051 107.668L49.1914 116.613C48.97 116.783 48.9049 117.001 48.9961 117.268C49.0872 117.528 49.2728 117.658 49.5527 117.658L62.414 117.658C62.5768 117.658 62.7135 117.6 62.8242 117.482C62.9414 117.372 63 117.235 63 117.072C63 116.91 62.9414 116.773 62.8242 116.662C62.7135 116.545 62.5768 116.486 62.414 116.486L51.2617 116.486L62.7754 107.551C62.7754 107.551 62.7786 107.548 62.7851 107.541C62.7916 107.535 62.7949 107.531 62.7949 107.531ZM49.6211 101.594C49.4583 101.594 49.3216 101.652 49.2109 101.77C49.0937 101.88 49.0351 102.017 49.0351 102.18C49.0351 102.342 49.0937 102.479 49.2109 102.59C49.3216 102.707 49.4583 102.766 49.6211 102.766L62.414 102.766C62.5768 102.766 62.7135 102.707 62.8242 102.59C62.9414 102.479 63 102.342 63 102.18C63 102.017 62.9414 101.88 62.8242 101.77C62.7135 101.652 62.5768 101.594 62.414 101.594L49.6211 101.594ZM62.9023 97.0527C62.9023 96.89 62.8437 96.7533 62.7265 96.6426C62.6159 96.5254 62.4791 96.4668 62.3164 96.4668L58.5859 96.4668L56.75 94.7285L62.8242 88.957C62.9414 88.8398 63 88.6999 63 88.5371C63 88.3809 62.9479 88.2474 62.8437 88.1367C62.7331 88.0195 62.5963 87.9577 62.4336 87.9512C62.2708 87.9512 62.1341 88.0065 62.0234 88.1172L55.9101 93.9277L50.0117 88.3125C49.8945 88.2018 49.7545 88.1497 49.5918 88.1562C49.4355 88.1562 49.3021 88.2148 49.1914 88.332C49.0807 88.4492 49.0254 88.5892 49.0254 88.752C49.0319 88.9082 49.0937 89.0417 49.2109 89.1523L56.9062 96.4668L49.5527 96.4668C49.3965 96.4668 49.2597 96.5254 49.1426 96.6426C49.0319 96.7533 48.9765 96.89 48.9765 97.0527C48.9765 97.209 49.0319 97.3457 49.1426 97.4629C49.2597 97.5736 49.3965 97.6289 49.5527 97.6289L62.3164 97.6289C62.4791 97.6289 62.6159 97.5736 62.7265 97.4629C62.8437 97.3457 62.9023 97.209 62.9023 97.0527ZM63 76.9062C63 76.7435 62.9414 76.6068 62.8242 76.4961C62.7135 76.3789 62.5768 76.3203 62.414 76.3203C62.2513 76.3203 62.1146 76.3789 62.0039 76.4961C61.8867 76.6068 61.8281 76.7435 61.8281 76.9062L61.8281 84.0742L56.5742 84.0742L56.5742 78.7129C56.5742 78.5501 56.5156 78.4134 56.3984 78.3027C56.2877 78.1855 56.151 78.127 55.9883 78.127C55.8255 78.127 55.6888 78.1855 55.5781 78.3027C55.4609 78.4134 55.4023 78.5501 55.4023 78.7129L55.4023 84.0742L50.1484 84.0742L50.1679 76.9062C50.1679 76.7435 50.1126 76.6068 50.0019 76.4961C49.8847 76.3789 49.7448 76.3203 49.582 76.3203C49.4258 76.3203 49.289 76.3789 49.1719 76.4961C49.0547 76.6068 48.9961 76.7435 48.9961 76.9062L48.9765 84.6602C48.97 84.8164 49.0286 84.9531 49.1523 85.0703C49.263 85.1875 49.3997 85.2461 49.5625 85.2461L62.414 85.2461C62.5768 85.2461 62.7135 85.1875 62.8242 85.0703C62.9414 84.9596 63 84.8229 63 84.6602L63 76.9062ZM51.7011 67.2871L60.3633 62.043C60.3633 62.043 60.3665 62.0397 60.373 62.0332C60.3795 62.0332 60.3828 62.0332 60.3828 62.0332C60.3958 62.0202 60.4121 62.0072 60.4316 61.9941C60.4446 61.9811 60.4577 61.9681 60.4707 61.9551C60.4837 61.9421 60.4967 61.929 60.5097 61.916C60.5228 61.8965 60.5358 61.8802 60.5488 61.8672C60.5683 61.8346 60.5716 61.8281 60.5586 61.8477C60.5586 61.8411 60.5618 61.8379 60.5683 61.8379C60.5683 61.8314 60.5683 61.8249 60.5683 61.8184C60.5814 61.7988 60.5911 61.7793 60.5976 61.7598C60.6041 61.7467 60.6107 61.7305 60.6172 61.7109C60.6237 61.6914 60.6269 61.6719 60.6269 61.6523C60.6334 61.6393 60.6367 61.623 60.6367 61.6035C60.6432 61.584 60.6465 61.5645 60.6465 61.5449C60.6465 61.5254 60.6432 61.5059 60.6367 61.4863C60.6367 61.4668 60.6334 61.4505 60.6269 61.4375C60.6269 61.418 60.6237 61.3984 60.6172 61.3789C60.6107 61.3594 60.6041 61.3431 60.5976 61.3301C60.5911 61.3105 60.5814 61.291 60.5683 61.2715C60.5553 61.2454 60.5521 61.2357 60.5586 61.2422C60.5716 61.2617 60.5683 61.2552 60.5488 61.2227C60.5358 61.2096 60.5228 61.1934 60.5097 61.1738C60.4967 61.1608 60.4837 61.1478 60.4707 61.1348C60.4642 61.1283 60.4511 61.1152 60.4316 61.0957C60.4121 61.0827 60.3958 61.0697 60.3828 61.0566C60.3763 61.0566 60.373 61.0566 60.373 61.0566C60.3665 61.0501 60.3633 61.0469 60.3633 61.0469L51.7011 55.8027L62.414 55.8027C62.5768 55.8027 62.7168 55.7474 62.834 55.6367C62.9446 55.5195 63 55.3828 63 55.2266C63 55.0638 62.9446 54.9271 62.834 54.8164C62.7168 54.6992 62.5768 54.6406 62.414 54.6406L49.6113 54.6406C49.3183 54.6406 49.1328 54.7839 49.0547 55.0703C48.9765 55.3503 49.0644 55.5684 49.3183 55.7246L58.9375 61.5449L49.3183 67.3652C49.0644 67.5215 48.9765 67.7396 49.0547 68.0195C49.1328 68.306 49.3183 68.4492 49.6113 68.4492L62.414 68.4492C62.5768 68.4492 62.7168 68.3939 62.834 68.2832C62.9446 68.166 63 68.026 63 67.8633C63 67.707 62.9446 67.5703 62.834 67.4531C62.7168 67.3424 62.5768 67.2871 62.414 67.2871L51.7011 67.2871ZM49.0254 41.9355C49.0254 42.0918 49.0807 42.2253 49.1914 42.3359C49.3021 42.4466 49.4388 42.502 49.6015 42.502L58.2051 42.502C59.2142 42.502 60.0735 42.86 60.7832 43.5762C61.4993 44.2923 61.8574 45.1517 61.8574 46.1543C61.8574 47.1634 61.4993 48.0228 60.7832 48.7324C60.0735 49.4486 59.2142 49.8066 58.2051 49.8066L49.6015 49.8066C49.4388 49.8066 49.3021 49.862 49.1914 49.9727C49.0807 50.0833 49.0254 50.2168 49.0254 50.373C49.0254 50.5358 49.0807 50.6725 49.1914 50.7832C49.3021 50.8939 49.4388 50.9492 49.6015 50.9492L58.2051 50.9492C59.5267 50.9492 60.6562 50.4805 61.5937 49.543C62.5312 48.6055 63 47.4759 63 46.1543C63 44.8327 62.5312 43.7031 61.5937 42.7656C60.6562 41.8281 59.5267 41.3594 58.2051 41.3594L49.6015 41.3594C49.4388 41.3594 49.3021 41.4147 49.1914 41.5254C49.0807 41.6426 49.0254 41.7793 49.0254 41.9355ZM63 33.4395C63 34.4681 62.7884 35.3861 62.3652 36.1934C61.8509 37.1634 61.1087 37.7754 60.1386 38.0293C59.9889 38.0684 59.8424 38.0488 59.6992 37.9707C59.5625 37.8861 59.4746 37.7656 59.4355 37.6094C59.3965 37.4596 59.416 37.3132 59.4941 37.1699C59.5788 37.0332 59.6959 36.9453 59.8457 36.9062C60.5228 36.7305 61.0403 36.2747 61.3984 35.5391C61.6914 34.9271 61.8379 34.2272 61.8379 33.4395C61.8379 32.5866 61.5644 31.8542 61.0176 31.2422C60.4707 30.6302 59.8034 30.3047 59.0156 30.2656C58.4492 30.2396 57.9479 30.4349 57.5117 30.8516C56.9062 31.418 56.5937 32.3197 56.5742 33.5566C56.5742 33.7194 56.5156 33.8561 56.3984 33.9668C56.2812 34.0775 56.1445 34.1328 55.9883 34.1328C55.8255 34.1263 55.6888 34.0645 55.5781 33.9473C55.4674 33.8366 55.4121 33.6999 55.4121 33.5371C55.4381 31.9746 55.8743 30.7962 56.7207 30.002C57.3913 29.3639 58.1725 29.0677 59.0644 29.1133C60.1647 29.1589 61.0957 29.6016 61.8574 30.4414C62.6191 31.2747 63 32.2741 63 33.4395ZM56.5742 33.6152C56.5547 35.1777 56.1217 36.3561 55.2754 37.1504C54.5983 37.7884 53.8138 38.0879 52.9219 38.0488C51.8216 37.9967 50.8906 37.5508 50.1289 36.7109C49.3672 35.8776 48.9863 34.8783 48.9863 33.7129C48.9863 32.6842 49.2011 31.7663 49.6308 30.959C50.1386 29.9889 50.8776 29.377 51.8476 29.123C52.0039 29.084 52.1504 29.1035 52.2871 29.1816C52.4238 29.2663 52.5117 29.3867 52.5508 29.543C52.5963 29.6992 52.5768 29.8457 52.4922 29.9824C52.414 30.1191 52.2969 30.207 52.1406 30.2461C51.4635 30.4219 50.9492 30.8776 50.5976 31.6133C50.2982 32.2253 50.1484 32.9251 50.1484 33.7129C50.1484 34.5658 50.4219 35.2982 50.9687 35.9102C51.5156 36.5221 52.1862 36.8477 52.9804 36.8867C53.5403 36.9128 54.0384 36.7174 54.4746 36.3008C55.0801 35.7344 55.3926 34.8327 55.4121 33.5957C55.4186 33.4329 55.4772 33.2962 55.5879 33.1855C55.7051 33.0749 55.845 33.0195 56.0078 33.0195C56.164 33.026 56.2975 33.0846 56.4082 33.1953C56.5189 33.3125 56.5742 33.4492 56.5742 33.6055L56.5742 33.6152ZM49.6211 24.543C49.4583 24.543 49.3216 24.6016 49.2109 24.7187C49.0937 24.8294 49.0351 24.9661 49.0351 25.1289C49.0351 25.2917 49.0937 25.4284 49.2109 25.5391C49.3216 25.6562 49.4583 25.7148 49.6211 25.7148L62.414 25.7148C62.5768 25.7148 62.7135 25.6562 62.8242 25.5391C62.9414 25.4284 63 25.2917 63 25.1289C63 24.9661 62.9414 24.8294 62.8242 24.7187C62.7135 24.6016 62.5768 24.543 62.414 24.543L49.6211 24.543ZM63 14.3867C63 12.5703 62.3913 10.9948 61.1738 9.66016C61.0631 9.53646 60.9264 9.47135 60.7636 9.46484C60.6009 9.45833 60.4609 9.51042 60.3437 9.62109C60.22 9.73177 60.1549 9.86849 60.1484 10.0312C60.1419 10.194 60.194 10.334 60.3047 10.4512C61.3138 11.5645 61.8183 12.8763 61.8183 14.3867C61.8183 15.9948 61.2487 17.3685 60.1094 18.5078C58.97 19.6471 57.5963 20.2168 55.9883 20.2168C54.3737 20.2168 52.9967 19.6471 51.8574 18.5078C50.7181 17.3685 50.1484 15.9948 50.1484 14.3867C50.1484 13.0586 50.5488 11.8704 51.3496 10.8223C51.4538 10.6986 51.4928 10.5553 51.4668 10.3926C51.4472 10.2298 51.3724 10.0996 51.2422 10.002C51.1185 9.9043 50.9752 9.86523 50.8125 9.88477C50.6497 9.9043 50.5195 9.97917 50.4218 10.1094C49.4518 11.3659 48.9668 12.7917 48.9668 14.3867C48.9668 16.3203 49.6536 17.9707 51.0273 19.3379C52.3945 20.7116 54.0482 21.3984 55.9883 21.3984C57.9219 21.3984 59.5722 20.7116 60.9394 19.3379C62.3131 17.9707 63 16.3203 63 14.3867Z" fill="white"/>
<path d="M38 610V760" stroke="white" stroke-width="2"/>
</svg>
