<svg width="1920" height="1080" viewBox="0 0 1920 1080" fill="none" xmlns="http://www.w3.org/2000/svg">
<g clip-path="url(#clip0_344_615)">
<path d="M1357.03 921.567C1354.58 916.265 1356.01 907.633 1357.03 903.979C1358.05 897.78 1362.21 892.559 1364.17 890.724C1366.8 889.789 1373.34 887.767 1378.44 887.156C1384.81 886.391 1392.46 887.41 1398.06 887.156C1402.55 886.952 1408.77 884.012 1411.32 882.567C1411.83 882.227 1412.69 881.038 1412.08 878.999C1411.47 876.96 1409.62 877.469 1408.77 877.979C1406.47 879.678 1400.61 882.975 1395.51 882.567C1389.14 882.058 1378.44 882.822 1372.07 884.097C1366.97 885.116 1367.23 883.842 1367.99 883.077C1371.66 878.59 1377.16 872.371 1379.46 869.822C1380.89 867.783 1384.13 867.443 1385.58 867.528C1392.46 867.528 1398.06 866.763 1403.42 864.979C1408.77 863.194 1414.63 855.547 1416.16 852.234C1417.38 849.583 1417.01 847.9 1416.67 847.391C1415.73 845.02 1413.18 845.02 1412.08 847.391C1410.3 854.018 1403.16 861.155 1398.06 861.155C1392.97 861.155 1393.22 861.665 1388.38 862.43C1384.5 863.042 1384.56 861.835 1385.07 861.155C1386.9 858.097 1387.53 855.293 1387.61 854.273C1388.12 850.704 1389.91 845.606 1396.02 842.293C1402.14 838.979 1404.69 831.332 1405.2 828.018C1405.61 825.367 1405.2 824.517 1404.69 823.685C1403.24 821.314 1400.94 821.824 1400.69 824.373C1400.26 830.159 1397.55 834.815 1396.02 836.175C1394.5 837.449 1391.44 839.641 1391.44 838.214C1391.44 836.43 1394.5 822.665 1393.99 820.371C1393.48 818.077 1392.2 817.567 1389.91 818.331C1387.61 819.096 1385.58 835.41 1386.34 839.998C1387.1 844.587 1384.56 845.606 1384.56 844.077C1384.56 842.853 1382.35 837.789 1381.24 835.41C1377.93 830.057 1379.46 822.665 1379.46 820.88C1379.46 819.096 1377.67 818.076 1376.15 819.351C1374.92 820.371 1374.45 824.024 1374.36 825.724C1374.11 827.763 1374.11 833.014 1376.15 837.704C1378.18 842.394 1380.39 849.345 1381.24 852.234C1382.52 860.136 1374.11 866.763 1371.56 870.842C1369.52 874.104 1368.67 872.201 1368.5 870.842C1366.72 867.273 1368.5 857.841 1369.77 855.547C1370.79 853.712 1370.2 852.234 1369.77 851.724C1368.14 850.5 1366.38 851.554 1365.7 852.234C1362.64 858.861 1361.87 864.979 1363.4 871.606C1364.63 876.908 1363.91 879.423 1363.4 880.018C1363.2 882.669 1358.22 888.26 1355.76 890.724C1354.82 892.508 1352.9 895.465 1352.7 893.018C1352.49 890.571 1350.41 886.9 1349.39 885.371C1348.45 883.332 1347.3 876.398 1350.15 864.979C1353.72 850.704 1352.7 850.959 1352.7 845.606C1352.7 841.324 1351 840.593 1350.15 840.763C1347.3 840.151 1347.77 844.247 1348.37 846.371C1348.98 852.081 1347.77 856.397 1347.09 857.841C1346.16 859.201 1344.24 863.041 1344.03 867.528C1343.83 872.014 1342.59 871.606 1341.99 870.842C1340.3 868.632 1335.73 862.226 1331.04 854.273C1325.17 844.332 1327.21 847.135 1325.68 843.312C1324.46 840.253 1323.82 838.299 1323.65 837.704C1322.01 835.869 1320.59 837.279 1320.08 838.214C1320.33 844.076 1321.86 851.214 1325.68 855.037C1328.74 858.096 1328.83 859.371 1328.49 859.626C1326.86 860.645 1324.58 859.711 1323.65 859.116C1313.96 853.508 1314.98 851.469 1312.69 849.175C1310.85 847.339 1309.71 847.05 1309.37 847.135C1307.08 847.135 1306.82 848.325 1307.08 849.175C1309.12 852.149 1314.27 858.861 1318.55 861.92C1323.9 865.743 1324.41 864.214 1327.21 865.743C1329.46 866.967 1331.04 868.292 1331.55 868.802C1336.9 872.626 1341.23 879.253 1341.99 881.547C1342.61 883.383 1340.89 883.332 1339.96 883.077C1337.1 882.873 1333.16 880.953 1331.55 880.018C1324.41 877.724 1324.66 877.214 1321.35 874.41C1318.7 872.167 1317.7 872.116 1317.53 872.371C1315.49 872.983 1315.83 874.835 1316.25 875.685C1318.09 877.928 1321.27 880.528 1322.63 881.547C1330.53 886.136 1335.62 887.155 1339.96 888.685C1343.42 889.908 1345.65 892.933 1346.33 894.293C1348.57 896.536 1348.45 912.731 1348.11 920.548C1347.86 925.561 1347.6 935.944 1348.62 937.371C1349.9 939.156 1348.62 939.411 1354.23 939.92C1358.71 940.328 1360 939.071 1360.09 938.391C1361.92 936.148 1358.82 926.241 1357.03 921.567Z" fill="url(#paint0_linear_344_615)"/>
</g>
<defs>
<linearGradient id="paint0_linear_344_615" x1="1362" y1="866.5" x2="1362" y2="940" gradientUnits="userSpaceOnUse">
<stop stop-color="#50515F"/>
<stop offset="1" stop-color="#41414D"/>
</linearGradient>
<clipPath id="clip0_344_615">
<rect width="1920" height="1080" fill="white"/>
</clipPath>
</defs>
</svg>
