<svg width="1920" height="1080" viewBox="0 0 1920 1080" fill="none" xmlns="http://www.w3.org/2000/svg">
<g clip-path="url(#clip0_344_615)">
<path d="M1478.13 924.279C1474.99 917.456 1476.82 906.347 1478.13 901.645C1479.44 893.667 1484.77 886.949 1487.28 884.587C1490.65 883.385 1499.04 880.782 1505.57 879.995C1513.74 879.011 1523.54 880.323 1530.73 879.995C1536.48 879.733 1544.45 875.95 1547.71 874.091C1548.37 873.653 1549.48 872.122 1548.69 869.498C1547.91 866.874 1545.54 867.53 1544.45 868.186C1541.51 870.373 1533.99 874.615 1527.46 874.091C1519.29 873.435 1505.57 874.419 1497.41 876.059C1490.87 877.371 1491.2 875.731 1492.18 874.746C1496.88 868.973 1503.94 860.969 1506.88 857.689C1508.71 855.065 1512.87 854.627 1514.72 854.737C1523.54 854.737 1530.73 853.753 1537.59 851.456C1544.45 849.16 1551.96 839.319 1553.92 835.055C1555.49 831.643 1555.01 829.478 1554.57 828.822C1553.37 825.771 1550.1 825.771 1548.69 828.822C1546.41 837.351 1537.26 846.536 1530.73 846.536C1524.19 846.536 1524.52 847.192 1518.31 848.176C1513.35 848.963 1513.41 847.411 1514.07 846.536C1516.42 842.6 1517.22 838.991 1517.33 837.679C1517.99 833.086 1520.27 826.526 1528.11 822.262C1535.95 817.998 1539.22 808.156 1539.87 803.892C1540.4 800.48 1539.87 799.387 1539.22 798.315C1537.36 795.264 1534.42 795.92 1534.09 799.201C1533.54 806.647 1530.07 812.639 1528.11 814.389C1526.15 816.029 1522.23 818.85 1522.23 817.013C1522.23 814.717 1526.15 797.003 1525.5 794.051C1524.85 791.099 1523.21 790.442 1520.27 791.427C1517.33 792.411 1514.72 813.405 1515.7 819.309C1516.68 825.214 1513.41 826.526 1513.41 824.558C1513.41 822.983 1510.58 816.466 1509.17 813.405C1504.92 806.516 1506.88 797.003 1506.88 794.707C1506.88 792.411 1504.59 791.098 1502.63 792.739C1501.06 794.051 1500.45 798.752 1500.35 800.939C1500.02 803.564 1500.02 810.321 1502.63 816.357C1505.25 822.393 1508.08 831.337 1509.17 835.055C1510.8 845.224 1500.02 853.752 1496.75 859.001C1494.14 863.2 1493.05 860.75 1492.83 859.001C1490.54 854.408 1492.83 842.271 1494.46 839.319C1495.77 836.957 1495.01 835.055 1494.46 834.399C1492.37 832.824 1490.11 834.18 1489.24 835.055C1485.32 843.583 1484.34 851.456 1486.3 859.985C1487.87 866.808 1486.95 870.045 1486.3 870.81C1486.04 874.222 1479.66 881.416 1476.5 884.587C1475.3 886.884 1472.84 890.689 1472.58 887.54C1472.32 884.391 1469.64 879.667 1468.33 877.699C1467.13 875.075 1465.65 866.152 1469.31 851.456C1473.88 833.086 1472.58 833.414 1472.58 826.526C1472.58 821.015 1470.4 820.075 1469.31 820.293C1465.65 819.506 1466.26 824.776 1467.02 827.51C1467.81 834.858 1466.26 840.412 1465.39 842.271C1464.19 844.021 1461.73 848.963 1461.47 854.737C1461.21 860.51 1459.62 859.985 1458.86 859.001C1456.68 856.158 1450.82 847.913 1444.81 837.679C1437.3 824.886 1439.91 828.494 1437.95 823.574C1436.38 819.637 1435.55 817.122 1435.34 816.357C1433.25 813.995 1431.42 815.81 1430.76 817.013C1431.09 824.557 1433.05 833.742 1437.95 838.663C1441.87 842.599 1441.98 844.239 1441.54 844.567C1439.45 845.879 1436.53 844.677 1435.34 843.911C1422.92 836.695 1424.23 834.071 1421.29 831.118C1418.94 828.756 1417.48 828.385 1417.04 828.494C1414.1 828.494 1413.78 830.025 1414.1 831.118C1416.72 834.945 1423.31 843.583 1428.8 847.52C1435.66 852.44 1436.32 850.472 1439.91 852.44C1442.78 854.015 1444.81 855.721 1445.46 856.377C1452.32 861.297 1457.88 869.826 1458.86 872.778C1459.64 875.14 1457.44 875.074 1456.24 874.746C1452.58 874.484 1447.53 872.013 1445.46 870.81C1436.32 867.858 1436.64 867.202 1432.4 863.593C1429 860.707 1427.71 860.641 1427.5 860.969C1424.88 861.756 1425.32 864.14 1425.86 865.234C1428.21 868.12 1432.29 871.466 1434.03 872.778C1444.16 878.683 1450.69 879.995 1456.24 881.963C1460.69 883.538 1463.54 887.43 1464.41 889.18C1467.29 892.067 1467.13 912.907 1466.7 922.967C1466.37 929.418 1466.04 942.78 1467.35 944.617C1468.98 946.913 1467.35 947.241 1474.54 947.898C1480.29 948.422 1481.94 946.804 1482.05 945.929C1484.4 943.043 1480.42 930.293 1478.13 924.279Z" fill="url(#paint0_linear_344_615)"/>
</g>
<defs>
<linearGradient id="paint0_linear_344_615" x1="1484.5" y1="791" x2="1484.5" y2="948" gradientUnits="userSpaceOnUse">
<stop stop-color="#504F74"/>
<stop offset="1" stop-color="#3E3D57"/>
</linearGradient>
<clipPath id="clip0_344_615">
<rect width="1920" height="1080" fill="white"/>
</clipPath>
</defs>
</svg>
