<svg width="1920" height="1080" viewBox="0 0 1920 1080" fill="none" xmlns="http://www.w3.org/2000/svg">
<path d="M1461.86 677.524C1458.59 670.483 1460.5 659.02 1461.86 654.169C1463.22 645.937 1468.78 639.005 1471.4 636.568C1474.92 635.327 1483.66 632.642 1490.47 631.829C1498.98 630.814 1509.2 632.168 1516.69 631.829C1522.69 631.559 1531 627.655 1534.4 625.737C1535.08 625.285 1536.24 623.706 1535.43 620.998C1534.61 618.291 1532.13 618.967 1531 619.644C1527.93 621.901 1520.1 626.278 1513.29 625.737C1504.77 625.06 1490.47 626.075 1481.95 627.768C1475.14 629.122 1475.48 627.429 1476.5 626.413C1481.41 620.456 1488.77 612.198 1491.83 608.813C1493.74 606.105 1498.08 605.654 1500 605.766C1509.2 605.766 1516.69 604.751 1523.85 602.382C1531 600.012 1538.83 589.858 1540.87 585.458C1542.51 581.937 1542.01 579.704 1541.56 579.027C1540.3 575.879 1536.89 575.879 1535.43 579.027C1533.04 587.828 1523.51 597.305 1516.69 597.305C1509.88 597.305 1510.22 597.982 1503.75 598.997C1498.57 599.809 1498.64 598.207 1499.32 597.305C1501.78 593.243 1502.62 589.52 1502.73 588.165C1503.41 583.427 1505.8 576.657 1513.97 572.257C1522.14 567.857 1525.55 557.703 1526.23 553.302C1526.77 549.782 1526.23 548.654 1525.55 547.548C1523.61 544.4 1520.54 545.077 1520.2 548.462C1519.63 556.145 1516.01 562.329 1513.97 564.134C1511.93 565.826 1507.84 568.737 1507.84 566.842C1507.84 564.472 1511.93 546.194 1511.24 543.148C1510.56 540.102 1508.86 539.425 1505.8 540.44C1502.73 541.456 1500 563.118 1501.03 569.211C1502.05 575.303 1498.64 576.657 1498.64 574.626C1498.64 573.002 1495.69 566.277 1494.21 563.118C1489.79 556.01 1491.83 546.194 1491.83 543.825C1491.83 541.455 1489.45 540.102 1487.4 541.794C1485.77 543.148 1485.13 547.999 1485.02 550.256C1484.68 552.964 1484.68 559.936 1487.4 566.164C1490.13 572.392 1493.08 581.622 1494.21 585.458C1495.92 595.95 1484.68 604.751 1481.27 610.167C1478.55 614.499 1477.41 611.972 1477.19 610.167C1474.8 605.428 1477.19 592.904 1478.89 589.858C1480.25 587.421 1479.46 585.458 1478.89 584.781C1476.71 583.156 1474.35 584.555 1473.44 585.458C1469.35 594.258 1468.33 602.382 1470.37 611.182C1472.01 618.222 1471.06 621.562 1470.37 622.352C1470.1 625.872 1463.45 633.296 1460.16 636.568C1458.91 638.937 1456.34 642.864 1456.07 639.614C1455.8 636.365 1453 631.491 1451.64 629.46C1450.39 626.752 1448.85 617.545 1452.66 602.382C1457.43 583.427 1456.07 583.765 1456.07 576.657C1456.07 570.971 1453.8 570 1452.66 570.226C1448.85 569.414 1449.49 574.852 1450.28 577.673C1451.1 585.255 1449.49 590.986 1448.58 592.904C1447.33 594.709 1444.76 599.809 1444.49 605.766C1444.22 611.724 1442.56 611.182 1441.77 610.167C1439.5 607.233 1433.39 598.726 1427.12 588.165C1419.29 574.965 1422.01 578.688 1419.97 573.611C1418.33 569.549 1417.47 566.954 1417.24 566.164C1415.06 563.727 1413.16 565.6 1412.48 566.841C1412.82 574.626 1414.86 584.103 1419.97 589.181C1424.06 593.242 1424.17 594.935 1423.72 595.273C1421.54 596.627 1418.49 595.386 1417.24 594.596C1404.3 587.15 1405.66 584.442 1402.6 581.396C1400.15 578.959 1398.63 578.575 1398.17 578.688C1395.11 578.688 1394.77 580.268 1395.11 581.396C1397.83 585.345 1404.71 594.258 1410.43 598.32C1417.58 603.397 1418.27 601.366 1422.01 603.397C1425.01 605.022 1427.12 606.782 1427.8 607.459C1434.95 612.536 1440.74 621.336 1441.77 624.383C1442.58 626.82 1440.29 626.752 1439.04 626.413C1435.23 626.143 1429.96 623.593 1427.8 622.352C1418.27 619.305 1418.61 618.629 1414.18 614.905C1410.64 611.927 1409.3 611.859 1409.07 612.197C1406.35 613.01 1406.8 615.469 1407.37 616.598C1409.82 619.576 1414.07 623.029 1415.88 624.383C1426.44 630.475 1433.25 631.829 1439.04 633.86C1443.67 635.485 1446.65 639.501 1447.56 641.307C1450.55 644.285 1450.39 665.79 1449.94 676.17C1449.6 682.827 1449.26 696.614 1450.62 698.509C1452.32 700.879 1450.62 701.217 1458.11 701.894C1464.11 702.436 1465.83 700.766 1465.95 699.863C1468.4 696.885 1464.24 683.729 1461.86 677.524Z" fill="#407080"/>
</svg>
