<svg width="1920" height="1080" viewBox="0 0 1920 1080" fill="none" xmlns="http://www.w3.org/2000/svg">
<path d="M1508.05 694.876C1503.89 685.923 1506.32 671.347 1508.05 665.178C1509.79 654.71 1516.86 645.895 1520.18 642.796C1524.66 641.218 1535.78 637.804 1544.45 636.771C1555.28 635.48 1568.28 637.201 1577.81 636.771C1585.43 636.426 1596 631.462 1600.34 629.023C1601.2 628.449 1602.68 626.441 1601.64 622.998C1600.6 619.555 1597.45 620.415 1596 621.276C1592.1 624.145 1582.14 629.712 1573.47 629.023C1562.64 628.163 1544.45 629.454 1533.62 631.606C1524.95 633.328 1525.38 631.175 1526.68 629.884C1532.92 622.309 1542.28 611.807 1546.18 607.503C1548.61 604.06 1554.12 603.485 1556.58 603.629C1568.28 603.629 1577.81 602.338 1586.91 599.325C1596 596.312 1605.97 583.4 1608.57 577.804C1610.65 573.328 1610.01 570.487 1609.43 569.627C1607.83 565.624 1603.5 565.624 1601.64 569.627C1598.6 580.818 1586.47 592.869 1577.81 592.869C1569.14 592.869 1569.58 593.73 1561.34 595.021C1554.76 596.054 1554.84 594.017 1555.71 592.869C1558.83 587.704 1559.9 582.969 1560.04 581.247C1560.91 575.222 1563.94 566.614 1574.34 561.018C1584.74 555.423 1589.07 542.511 1589.94 536.915C1590.63 532.439 1589.94 531.004 1589.07 529.598C1586.6 525.595 1582.7 526.456 1582.27 530.76C1581.54 540.53 1576.94 548.393 1574.34 550.689C1571.74 552.841 1566.54 556.542 1566.54 554.132C1566.54 551.119 1571.74 527.877 1570.88 524.003C1570.01 520.129 1567.84 519.268 1563.94 520.56C1560.04 521.851 1556.58 549.397 1557.88 557.145C1559.18 564.892 1554.84 566.614 1554.84 564.031C1554.84 561.965 1551.09 553.414 1549.21 549.397C1543.58 540.359 1546.18 527.877 1546.18 524.864C1546.18 521.851 1543.15 520.129 1540.55 522.281C1538.47 524.003 1537.66 530.172 1537.51 533.041C1537.08 536.485 1537.08 545.351 1540.55 553.271C1544.01 561.19 1547.77 572.926 1549.21 577.804C1551.38 591.147 1537.08 602.338 1532.75 609.224C1529.28 614.733 1527.84 611.52 1527.55 609.224C1524.52 603.198 1527.55 587.273 1529.72 583.4C1531.45 580.301 1530.44 577.804 1529.72 576.943C1526.94 574.877 1523.94 576.656 1522.78 577.804C1517.58 588.995 1516.28 599.325 1518.88 610.515C1520.96 619.468 1519.75 623.715 1518.88 624.719C1518.54 629.195 1510.08 638.636 1505.89 642.796C1504.3 645.809 1501.03 650.802 1500.69 646.67C1500.34 642.538 1496.79 636.34 1495.06 633.758C1493.47 630.314 1491.5 618.607 1496.36 599.325C1502.42 575.222 1500.69 575.652 1500.69 566.614C1500.69 559.383 1497.8 558.149 1496.36 558.436C1491.5 557.403 1492.31 564.318 1493.32 567.905C1494.36 577.546 1492.31 584.834 1491.16 587.273C1489.57 589.569 1486.3 596.054 1485.96 603.629C1485.61 611.204 1483.5 610.515 1482.49 609.224C1479.6 605.494 1471.83 594.676 1463.86 581.247C1453.9 564.461 1457.36 569.196 1454.76 562.74C1452.68 557.575 1451.59 554.275 1451.3 553.27C1448.52 550.171 1446.1 552.553 1445.23 554.131C1445.66 564.031 1448.26 576.082 1454.76 582.538C1459.96 587.703 1460.11 589.855 1459.53 590.286C1456.76 592.007 1452.89 590.429 1451.3 589.425C1434.83 579.956 1436.57 576.513 1432.67 572.639C1429.55 569.54 1427.61 569.052 1427.03 569.196C1423.14 569.195 1422.7 571.204 1423.14 572.639C1426.6 577.661 1435.35 588.995 1442.63 594.16C1451.73 600.616 1452.6 598.033 1457.36 600.616C1461.18 602.682 1463.86 604.92 1464.73 605.781C1473.83 612.237 1481.19 623.428 1482.49 627.301C1483.53 630.4 1480.61 630.314 1479.03 629.884C1474.17 629.54 1467.47 626.297 1464.73 624.719C1452.6 620.845 1453.03 619.984 1447.4 615.25C1442.89 611.462 1441.19 611.376 1440.9 611.807C1437.43 612.84 1438.01 615.967 1438.73 617.402C1441.85 621.19 1447.25 625.58 1449.56 627.301C1462.99 635.049 1471.66 636.77 1479.03 639.353C1484.92 641.419 1488.7 646.526 1489.86 648.822C1493.67 652.61 1493.47 679.955 1492.89 693.154C1492.46 701.619 1492.02 719.151 1493.76 721.561C1495.92 724.574 1493.76 725.005 1503.29 725.866C1510.91 726.554 1513.11 724.431 1513.25 723.283C1516.37 719.495 1511.09 702.767 1508.05 694.876Z" fill="#407080"/>
</svg>
