<svg width="1920" height="1080" viewBox="0 0 1920 1080" fill="none" xmlns="http://www.w3.org/2000/svg">
<g clip-path="url(#clip0_353_146)">
<path d="M578.769 772.071C575.455 764.9 577.388 753.224 578.769 748.283C580.15 739.899 585.789 732.838 588.436 730.356C592.003 729.092 600.863 726.357 607.768 725.53C616.398 724.496 626.754 725.875 634.349 725.53C640.425 725.254 648.848 721.278 652.3 719.325C652.991 718.865 654.164 717.256 653.336 714.498C652.507 711.74 649.999 712.43 648.848 713.119C645.741 715.417 637.801 719.876 630.897 719.325C622.267 718.635 607.768 719.669 599.137 721.393C592.233 722.772 592.578 721.048 593.614 720.014C598.585 713.946 606.042 705.535 609.148 702.087C611.082 699.329 615.477 698.869 617.434 698.984C626.754 698.984 634.349 697.95 641.599 695.537C648.848 693.123 656.788 682.781 658.859 678.299C660.516 674.714 660.01 672.439 659.55 671.75C658.274 668.543 654.822 668.543 653.336 671.75C650.919 680.713 641.253 690.366 634.349 690.366C627.445 690.366 627.79 691.055 621.231 692.09C615.984 692.917 616.053 691.285 616.743 690.366C619.229 686.229 620.08 682.437 620.195 681.057C620.886 676.231 623.303 669.336 631.588 664.855C639.873 660.373 643.325 650.031 644.015 645.549C644.568 641.963 644.015 640.814 643.325 639.688C641.358 636.482 638.252 637.171 637.906 640.619C637.321 648.444 633.659 654.742 631.588 656.581C629.516 658.304 625.374 661.269 625.374 659.339C625.374 656.926 629.516 638.309 628.826 635.206C628.135 632.104 626.409 631.414 623.303 632.448C620.196 633.483 617.434 655.546 618.469 661.752C619.505 667.957 616.053 669.336 616.053 667.268C616.053 665.613 613.061 658.764 611.565 655.546C607.077 648.307 609.148 638.309 609.148 635.896C609.148 633.482 606.732 632.103 604.661 633.827C603.004 635.206 602.359 640.148 602.244 642.446C601.899 645.204 601.899 652.306 604.661 658.649C607.422 664.992 610.414 674.392 611.565 678.299C613.291 688.987 601.899 697.95 598.447 703.466C595.685 707.879 594.534 705.305 594.304 703.466C591.888 698.64 594.304 685.884 596.03 682.781C597.411 680.299 596.606 678.299 596.03 677.61C593.821 675.955 591.427 677.38 590.507 678.299C586.364 687.263 585.329 695.537 587.4 704.5C589.057 711.671 588.09 715.072 587.4 715.877C587.124 719.462 580.381 727.024 577.044 730.356C575.778 732.769 573.177 736.768 572.901 733.459C572.625 730.149 569.794 725.185 568.413 723.117C567.147 720.359 565.582 710.981 569.449 695.537C574.282 676.231 572.901 676.576 572.901 669.336C572.901 663.544 570.6 662.556 569.449 662.786C565.582 661.958 566.227 667.497 567.032 670.37C567.861 678.093 566.227 683.93 565.306 685.884C564.041 687.723 561.44 692.917 561.164 698.984C560.888 705.052 559.208 704.5 558.402 703.466C556.101 700.478 549.91 691.814 543.558 681.057C535.618 667.612 538.38 671.404 536.308 666.233C534.651 662.096 533.777 659.453 533.547 658.649C531.337 656.166 529.404 658.074 528.714 659.338C529.059 667.267 531.13 676.92 536.308 682.091C540.451 686.228 540.566 687.952 540.106 688.297C537.896 689.676 534.812 688.412 533.547 687.607C520.429 680.023 521.809 677.265 518.703 674.162C516.217 671.68 514.675 671.29 514.215 671.404C511.108 671.404 510.763 673.013 511.108 674.162C513.87 678.185 520.843 687.263 526.642 691.4C533.892 696.571 534.582 694.503 538.38 696.571C541.418 698.226 543.558 700.018 544.248 700.708C551.498 705.879 557.366 714.843 558.402 717.945C559.231 720.428 556.906 720.359 555.64 720.014C551.774 719.738 546.435 717.141 544.248 715.877C534.582 712.774 534.928 712.085 530.44 708.292C526.85 705.259 525.492 705.19 525.262 705.534C522.5 706.362 522.96 708.867 523.536 710.016C526.021 713.05 530.325 716.566 532.166 717.945C542.867 724.151 549.772 725.53 555.64 727.598C560.335 729.253 563.35 733.344 564.271 735.183C567.309 738.216 567.147 760.119 566.687 770.692C566.342 777.472 565.997 791.514 567.378 793.445C569.104 795.858 567.378 796.203 574.972 796.892C581.048 797.444 582.797 795.743 582.912 794.824C585.397 791.79 581.186 778.391 578.769 772.071Z" fill="url(#paint0_linear_353_146)"/>
</g>
<defs>
<linearGradient id="paint0_linear_353_146" x1="585.5" y1="632" x2="612.5" y2="797" gradientUnits="userSpaceOnUse">
<stop stop-color="#AB5C4B"/>
<stop offset="1" stop-color="#6D3528"/>
</linearGradient>
<clipPath id="clip0_353_146">
<rect width="1920" height="1080" fill="white"/>
</clipPath>
</defs>
</svg>
