<svg width="110" height="122" viewBox="0 0 110 122" fill="none" xmlns="http://www.w3.org/2000/svg">
<path d="M50.031 103.567C47.5844 98.2653 49.0116 89.6326 50.031 85.979C51.0503 79.7796 55.2132 74.5592 57.1673 72.724C59.8008 71.7894 66.3421 69.7673 71.4392 69.1555C77.8106 68.3908 85.4562 69.4104 91.0631 69.1555C95.5486 68.9516 101.767 66.0117 104.316 64.5673C104.825 64.2273 105.692 63.0377 105.08 60.9986C104.469 58.9595 102.617 59.4692 101.767 59.979C99.4733 61.6783 93.6116 64.9749 88.5145 64.5673C82.1431 64.0577 71.4392 64.8222 65.0678 66.0967C59.9707 67.1163 60.2255 65.8416 60.9901 65.0768C64.6601 60.5905 70.1649 54.371 72.4586 51.8221C73.8858 49.7829 77.131 49.4429 78.5751 49.5278C85.4562 49.5278 91.0631 48.7632 96.415 46.9787C101.767 45.1942 107.629 37.5473 109.158 34.2335C110.381 31.5826 110.007 29.9003 109.668 29.3906C108.726 27.0198 106.177 27.0198 105.08 29.3906C103.296 36.0183 96.1602 43.1554 91.0631 43.1554C85.966 43.1554 86.2209 43.6652 81.3786 44.4299C77.5048 45.0416 77.5558 43.8351 78.0655 43.1554C79.9004 40.0967 80.5291 37.2925 80.614 36.2728C81.1238 32.7041 82.9079 27.6061 89.0245 24.2925C95.1411 20.979 97.6895 13.3317 98.1992 10.0179C98.607 7.36691 98.1992 6.51698 97.6895 5.68455C96.2378 3.31375 93.9441 3.82355 93.6893 6.37259C93.2569 12.1587 90.5536 16.8153 89.0245 18.1748C87.4953 19.4493 84.437 21.6414 84.437 20.214C84.437 18.4298 87.4953 4.66482 86.9856 2.37069C86.4759 0.0765596 85.2016 -0.433247 82.9079 0.331463C80.6142 1.09617 78.5751 17.41 79.3397 21.9983C80.1043 26.5865 77.5557 27.6061 77.5557 26.0767C77.5557 24.8532 75.3469 19.7891 74.2424 17.41C70.9291 12.0571 72.4586 4.66474 72.4586 2.88041C72.4586 1.09609 70.6746 0.0764761 69.1455 1.35099C67.9222 2.37061 67.4464 6.02422 67.3615 7.72358C67.1066 9.76281 67.1066 15.0138 69.1455 19.704C71.1843 24.3943 73.393 31.3446 74.2424 34.2335C75.5167 42.1356 67.1065 48.763 64.5579 52.8415C62.5191 56.1043 61.6696 54.201 61.4997 52.8415C59.7157 49.2728 61.4998 39.8414 62.774 37.5473C63.7934 35.712 63.1988 34.2335 62.774 33.7237C61.143 32.5002 59.376 33.5538 58.6963 34.2335C55.6381 40.861 54.8735 46.9787 56.4027 53.6062C57.626 58.9082 56.9124 61.4232 56.4027 62.018C56.1988 64.669 51.2206 70.2599 48.757 72.724C47.8225 74.5083 45.9026 77.4652 45.6987 75.0181C45.4948 72.571 43.405 68.9004 42.3856 67.371C41.4511 65.3318 40.2958 58.3984 43.1502 46.9787C46.7181 32.7041 45.6987 32.959 45.6987 27.6061C45.6987 23.3237 43.9997 22.593 43.1502 22.7629C40.2958 22.1511 40.7715 26.2466 41.3662 28.3708C41.9778 34.0806 40.7715 38.397 40.0919 39.8414C39.1574 41.2009 37.2375 45.0414 37.0336 49.5278C36.8298 54.0141 35.5895 53.6062 34.9948 52.8415C33.2958 50.6323 28.7254 44.2258 24.036 36.2728C18.1743 26.3315 20.2132 29.1354 18.6841 25.3119C17.4608 22.2531 16.8151 20.2987 16.6452 19.7038C15.0141 17.8685 13.5869 19.279 13.0772 20.2137C13.3321 26.0764 14.8612 33.2137 18.6841 37.0373C21.7423 40.0961 21.8273 41.3706 21.4875 41.6255C19.8564 42.6452 17.5797 41.7105 16.6452 41.1157C6.96071 35.5079 7.98013 33.4688 5.68642 31.1747C3.85146 29.3394 2.71311 29.0505 2.37331 29.1354C0.0796051 29.1352 -0.175247 30.325 0.0796051 31.1747C2.11845 34.1485 7.26653 40.861 11.5481 43.9198C16.9001 47.7434 17.4098 46.214 20.2132 47.7434C22.4559 48.9669 24.036 50.2924 24.5457 50.8022C29.8977 54.6258 34.2302 61.2533 34.9948 63.5475C35.6065 65.3828 33.8904 65.3318 32.956 65.0768C30.1016 64.8729 26.1598 62.9526 24.5457 62.018C17.4098 59.7239 17.6646 59.2141 14.3515 56.4102C11.701 54.167 10.6986 54.116 10.5287 54.3709C8.48984 54.9827 8.82964 56.835 9.2544 57.6847C11.0894 59.9278 14.2666 62.5278 15.6258 63.5475C23.5263 68.1357 28.6234 69.1553 32.956 70.6848C36.422 71.9083 38.6477 74.9331 39.3273 76.2926C41.5701 78.5358 41.4511 94.7307 41.1113 102.548C40.8565 107.561 40.6016 117.944 41.621 119.371C42.8953 121.156 41.621 121.411 47.2279 121.92C51.7133 122.328 53.0044 121.071 53.0893 120.391C54.9243 118.148 51.815 108.241 50.031 103.567Z" fill="#50515F"/>
</svg>
