<svg width="181" height="201" viewBox="0 0 181 201" fill="none" xmlns="http://www.w3.org/2000/svg">
<path d="M82.3238 170.631C78.298 161.896 80.6464 147.673 82.3238 141.654C84.0009 131.44 90.8508 122.839 94.0662 119.816C98.3995 118.276 109.163 114.944 117.55 113.937C128.034 112.677 140.614 114.357 149.84 113.937C157.221 113.601 167.453 108.757 171.646 106.377C172.485 105.817 173.911 103.857 172.905 100.498C171.898 97.1382 168.851 97.978 167.453 98.8178C163.679 101.617 154.034 107.049 145.647 106.377C135.163 105.538 117.55 106.797 107.066 108.897C98.679 110.577 99.0984 108.477 100.356 107.217C106.395 99.8253 115.453 89.5785 119.227 85.379C121.576 82.0193 126.915 81.4591 129.292 81.599C140.614 81.599 149.84 80.3394 158.647 77.3994C167.453 74.4593 177.098 61.8607 179.614 56.4012C181.627 52.0336 181.012 49.262 180.453 48.4222C178.903 44.5162 174.71 44.5162 172.905 48.4222C169.969 59.3416 158.227 71.1002 149.84 71.1002C141.453 71.1002 141.873 71.9402 133.905 73.2C127.531 74.208 127.615 72.2201 128.453 71.1002C131.473 66.0609 132.507 61.4409 132.647 59.7609C133.485 53.8814 136.421 45.4821 146.486 40.0229C156.55 34.5637 160.744 21.9644 161.582 16.5049C162.253 12.1373 161.582 10.737 160.744 9.36552C158.355 5.45953 154.581 6.29946 154.161 10.4991C153.45 20.032 149.002 27.704 146.486 29.9438C143.97 32.0435 138.937 35.6551 138.937 33.3035C138.937 30.3639 143.97 7.68549 143.131 3.90581C142.292 0.126135 140.195 -0.713793 136.421 0.546099C132.647 1.80599 129.292 28.6837 130.55 36.243C131.808 43.8024 127.614 45.4821 127.614 42.9625C127.614 40.9467 123.98 32.6034 122.163 28.6837C116.711 19.8646 119.227 7.68535 119.227 4.7456C119.227 1.80585 116.292 0.125997 113.776 2.22582C111.763 3.90567 110.98 9.92516 110.84 12.7249C110.421 16.0846 110.421 24.7359 113.776 32.4632C117.131 40.1906 120.765 51.6416 122.163 56.4012C124.259 69.4201 110.421 80.3391 106.227 87.0585C102.872 92.4341 101.474 89.2983 101.195 87.0585C98.2594 81.179 101.195 65.6404 103.292 61.8607C104.969 58.837 103.991 56.4012 103.292 55.5612C100.608 53.5454 97.7004 55.2813 96.5822 56.4012C91.5499 67.3202 90.2919 77.3994 92.808 88.3184C94.8209 97.0537 93.6467 101.197 92.808 102.177C92.4725 106.545 84.2812 115.756 80.2274 119.816C78.6898 122.755 75.5307 127.627 75.1952 123.595C74.8597 119.564 71.421 113.516 69.7436 110.996C68.206 107.637 66.3049 96.2138 71.0016 77.3994C76.8726 53.8814 75.1952 54.3013 75.1952 45.4821C75.1952 38.4267 72.3995 37.2228 71.0016 37.5028C66.3049 36.4949 67.0877 43.2423 68.0662 46.742C69.0726 56.1492 67.0877 63.2606 65.9694 65.6404C64.4318 67.8802 61.2727 74.2076 60.9372 81.599C60.6017 88.9904 58.5608 88.3185 57.5824 87.0585C54.7867 83.4189 47.2663 72.8638 39.5502 59.7609C29.9051 43.3823 33.2599 48.0018 30.7438 41.7024C28.7309 36.6629 27.6685 33.4429 27.3889 32.4629C24.7051 29.4392 22.3567 31.763 21.518 33.3028C21.9373 42.962 24.4535 54.721 30.7438 61.0205C35.776 66.06 35.9158 68.1598 35.3567 68.5798C32.6728 70.2597 28.9266 68.7198 27.3889 67.7399C11.4535 58.5007 13.1309 55.1412 9.35677 51.3615C6.33742 48.3378 4.46431 47.8618 3.90517 48.0018C0.130997 48.0014 -0.288361 49.9617 0.130997 51.3615C3.48581 56.2611 11.9567 67.3202 19.0019 72.3597C27.8083 78.6592 28.647 76.1394 33.2599 78.6592C36.9502 80.675 39.5502 82.8588 40.3889 83.6988C49.1953 89.9982 56.3243 100.917 57.5824 104.697C58.5888 107.721 55.7652 107.637 54.2275 107.217C49.5308 106.881 43.0448 103.717 40.3889 102.177C28.647 98.3975 29.0664 97.5577 23.6148 92.9381C19.2535 89.2424 17.604 89.1584 17.3245 89.5783C13.9696 90.5863 14.5288 93.638 15.2277 95.0379C18.247 98.7336 23.475 103.017 25.7115 104.697C38.7115 112.256 47.0985 113.936 54.2275 116.456C59.9307 118.472 63.5931 123.455 64.7114 125.695C68.4017 129.391 68.206 156.073 67.6468 168.952C67.2275 177.211 66.8081 194.317 68.4855 196.669C70.5823 199.609 68.4855 200.029 77.7113 200.869C85.0919 201.541 87.2164 199.469 87.356 198.349C90.3754 194.653 85.2593 178.331 82.3238 170.631Z" fill="#504F74"/>
</svg>
