<svg width="1920" height="1080" viewBox="0 0 1920 1080" fill="none" xmlns="http://www.w3.org/2000/svg">
<g clip-path="url(#clip0_353_146)">
<path d="M532.118 777.683C529.961 772.989 531.219 765.347 532.118 762.113C533.017 756.625 536.688 752.003 538.411 750.379C540.733 749.551 546.502 747.761 550.996 747.22C556.615 746.543 563.357 747.445 568.301 747.22C572.257 747.039 577.74 744.437 579.987 743.158C580.437 742.857 581.201 741.804 580.662 739.999C580.122 738.194 578.489 738.645 577.74 739.096C575.717 740.6 570.548 743.519 566.054 743.158C560.435 742.707 550.996 743.384 545.378 744.512C540.883 745.414 541.108 744.286 541.782 743.609C545.018 739.637 549.873 734.132 551.895 731.875C553.154 730.07 556.015 729.769 557.289 729.844C563.357 729.844 568.301 729.167 573.021 727.588C577.74 726.008 582.909 719.239 584.257 716.305C585.336 713.958 585.006 712.469 584.707 712.018C583.876 709.919 581.629 709.919 580.662 712.018C579.088 717.885 572.796 724.203 568.301 724.203C563.806 724.203 564.031 724.654 559.761 725.331C556.345 725.873 556.39 724.805 556.84 724.203C558.458 721.495 559.012 719.013 559.087 718.11C559.536 714.951 561.11 710.438 566.503 707.505C571.897 704.572 574.144 697.802 574.594 694.868C574.953 692.522 574.594 691.769 574.144 691.032C572.864 688.933 570.842 689.385 570.617 691.641C570.236 696.763 567.852 700.886 566.503 702.089C565.155 703.217 562.458 705.158 562.458 703.894C562.458 702.315 565.155 690.13 564.705 688.099C564.256 686.068 563.132 685.616 561.11 686.293C559.087 686.97 557.289 701.412 557.963 705.474C558.637 709.536 556.39 710.438 556.39 709.084C556.39 708.001 554.442 703.518 553.468 701.412C550.547 696.674 551.895 690.129 551.895 688.55C551.895 686.97 550.322 686.068 548.974 687.196C547.895 688.099 547.475 691.333 547.401 692.837C547.176 694.642 547.176 699.291 548.974 703.443C550.772 707.595 552.719 713.748 553.468 716.305C554.592 723.3 547.176 729.167 544.928 732.778C543.13 735.666 542.381 733.981 542.232 732.778C540.658 729.619 542.232 721.269 543.355 719.239C544.254 717.614 543.73 716.305 543.355 715.854C541.917 714.771 540.359 715.703 539.759 716.305C537.063 722.172 536.388 727.588 537.737 733.455C538.816 738.148 538.186 740.375 537.737 740.901C537.557 743.248 533.167 748.197 530.995 750.379C530.171 751.958 528.478 754.576 528.298 752.409C528.118 750.243 526.275 746.994 525.376 745.64C524.552 743.835 523.534 737.697 526.051 727.588C529.197 714.951 528.298 715.177 528.298 710.438C528.298 706.647 526.8 706 526.051 706.151C523.534 705.609 523.953 709.235 524.477 711.115C525.017 716.17 523.953 719.991 523.354 721.269C522.53 722.473 520.837 725.873 520.657 729.844C520.477 733.816 519.383 733.455 518.859 732.778C517.361 730.822 513.331 725.151 509.195 718.11C504.026 709.31 505.824 711.792 504.476 708.407C503.397 705.699 502.828 703.969 502.678 703.443C501.24 701.818 499.981 703.067 499.532 703.894C499.756 709.084 501.105 715.402 504.476 718.787C507.173 721.495 507.248 722.623 506.948 722.849C505.51 723.751 503.502 722.924 502.678 722.398C494.138 717.433 495.037 715.628 493.014 713.597C491.396 711.973 490.392 711.717 490.093 711.792C488.07 711.792 487.845 712.845 488.07 713.597C489.868 716.23 494.408 722.172 498.183 724.88C502.903 728.265 503.352 726.911 505.824 728.265C507.802 729.348 509.195 730.521 509.645 730.972C514.364 734.357 518.185 740.224 518.859 742.255C519.398 743.88 517.885 743.835 517.061 743.609C514.544 743.428 511.068 741.729 509.645 740.901C503.352 738.87 503.577 738.419 500.655 735.937C498.318 733.951 497.434 733.906 497.284 734.132C495.486 734.673 495.786 736.313 496.161 737.065C497.779 739.051 500.581 741.353 501.779 742.255C508.746 746.317 513.241 747.219 517.061 748.573C520.118 749.657 522.08 752.334 522.68 753.538C524.657 755.523 524.552 769.86 524.253 776.78C524.028 781.218 523.803 790.409 524.702 791.673C525.826 793.253 524.702 793.478 529.646 793.929C533.602 794.291 534.74 793.177 534.815 792.576C536.433 790.59 533.691 781.819 532.118 777.683Z" fill="url(#paint0_linear_353_146)"/>
</g>
<defs>
<linearGradient id="paint0_linear_353_146" x1="526" y1="708" x2="558.5" y2="826" gradientUnits="userSpaceOnUse">
<stop stop-color="#AB7F4B"/>
<stop offset="1" stop-color="#7B572C"/>
</linearGradient>
<clipPath id="clip0_353_146">
<rect width="1920" height="1080" fill="white"/>
</clipPath>
</defs>
</svg>
