<svg width="395" height="227" viewBox="0 0 395 227" fill="none" xmlns="http://www.w3.org/2000/svg">
<path d="M274.625 171.966C290.058 165.553 296.58 160.734 297.912 159.126L269.336 136.038L206.158 143.221L145.145 187.497C159.183 188.019 191.794 188.865 209.937 188.077C232.616 187.091 255.334 179.982 274.625 171.966Z" fill="#C5B97F"/>
<path d="M345.029 175.487C349.245 175.996 353.695 174.682 355.392 173.962L352.444 161.925L298.382 160.707C312.174 165.422 340.813 174.978 345.029 175.487Z" fill="#D7C796"/>
<path d="M277.941 100.187C277.961 100.215 277.987 100.239 278.021 100.257L301.999 121.352L315.674 116.751C317.702 116.138 325.65 112.27 341.223 101.695C360.689 88.4767 361.901 87.1218 368.024 79.1616C372.922 72.7935 374.538 65.3398 374.734 62.4089C375.154 60.4648 375.771 53.7857 374.88 42.6226C373.99 31.4594 368.807 18.4182 366.327 13.2931C364.327 7.37572 361.993 3.02906 361.076 1.59539C360.778 1.16868 360.547 1.20259 360.317 1.23649C357.369 1.67045 351.837 4.36724 349.439 5.6614C346.265 7.54047 339.258 12.9014 336.625 19.3126C333.992 25.7237 328.851 36.3002 326.61 40.7871C314.989 64.145 302.866 77.6945 291 89.7943C281.975 98.9969 278.667 100.609 278.021 100.257L277.941 100.187Z" fill="#96AA8F"/>
<path d="M268.928 86.9256L287.138 103.539L289.78 105.503L281.558 115.184L144.441 153.957L88.5224 149.718L89.4226 144.645C120.563 105.237 131.515 94.9184 139.297 90.2433C147.08 85.5682 155.98 80.4934 172.257 75.9796C185.278 72.3686 201.169 69.9196 207.487 69.1465C218.498 67.7607 242.569 66.4291 250.758 72.1884C258.947 77.9477 266.283 84.4129 268.928 86.9256Z" fill="#B4BF9D"/>
<path d="M330.757 94.5247C327.413 94.8287 321.014 97.606 318.232 98.9566C313.275 101.087 308.157 105.102 305.56 107.175C300.086 111.545 305.356 118.578 307.492 120.302C315.038 116.682 330.503 109.103 331.998 107.754C333.494 106.404 334.269 102.4 334.469 100.566C334.625 98.4258 334.1 94.2207 330.757 94.5247Z" fill="#647761"/>
<path d="M296.929 106.094C302.733 108.439 308.904 114.449 311.264 117.16C311.997 128.534 260.353 139.478 234.439 143.528L177.689 152.824L123.756 150.881L124.534 148.178L129.899 147.858C135.849 147.359 141.689 143.77 143.866 142.038C147.474 138.84 157.366 131.768 168.074 129.062C178.781 126.357 187.166 126.095 190.021 126.302C193.654 126.473 201.869 127.193 205.668 128.705C209.467 130.216 212.734 128.214 213.892 127.023C218.801 123.289 225.063 119.261 227.58 117.714C231.466 115.338 242.197 109.915 254.037 107.231C265.878 104.547 276.32 103.559 280.062 103.4C283.266 103.321 291.125 103.748 296.929 106.094Z" fill="#535F51"/>
<path d="M357.483 124.238C353.229 120.912 345.332 118.419 341.916 117.589C338.621 116.944 332.202 117.136 329.405 117.313C319.199 117.247 296.008 117.1 284.894 117.042C271 116.969 259.357 119.389 250.937 121.334C244.201 122.891 235.058 129.084 231.328 131.986C228.235 134.951 220.86 141.433 216.102 143.639C211.345 145.845 207.166 145.268 205.671 144.704C202.385 143.697 194.859 141.59 191.039 141.211C186.263 140.737 184.651 140.975 179.354 141.754C174.057 142.534 170.474 143.768 167.223 145.658C163.971 147.548 159.033 147.569 148.602 148.634C140.256 149.486 131.319 148.982 127.894 148.624C100.464 146.407 91.6415 145.1 79.2088 143.258L78.6204 143.171C68.4215 141.661 57.3952 140.178 53.157 139.626C47.8354 139.279 39.7314 141.131 36.3446 142.1C20.5623 146.777 18.4965 148.728 15.7668 149.365C13.583 149.875 14.1164 150.941 14.6561 151.411C18.6777 155.713 22.2395 159.236 23.5177 160.459C30.9211 167.276 41.7909 173.77 46.3004 176.165C85.9165 194.333 83.4638 190.459 94.5395 193.77C105.615 197.08 123.979 195.554 133.123 193.737C142.268 191.92 156.865 187.183 171.901 177.44C186.938 167.697 191.564 163.957 193.331 161.579C194.745 159.677 199.091 158.614 201.087 158.32C207.894 156.612 212.229 154.092 216.632 152.032C220.154 150.384 227.853 148.341 231.263 147.525C243.93 145.66 252.038 147.996 252.763 148.125C253.488 148.253 295.847 161.077 306.258 163.074C316.67 165.07 327.833 165.78 334.119 165.325C339.148 164.961 341.462 165.656 341.991 166.049C345.733 168.557 353.705 174.019 355.662 175.801C357.618 177.584 358.676 177.632 358.961 177.433C367.725 171.437 369.663 170.211 371.396 167.603C373.13 164.994 372.175 164.9 372.586 153.31C372.916 144.037 371.977 139.046 371.466 137.71C369.508 133.998 362.801 128.397 357.483 124.238Z" fill="#96AA8F"/>
<path d="M282.05 121.697C281.982 121.236 280.43 120.288 279.211 119.997C272.67 117.76 268.621 118.328 267.009 118.566L248.682 122.572L251.419 126.206C254.393 128.827 262.102 133.245 269.147 129.95C277.952 125.83 282.171 122.528 282.05 121.697Z" fill="#647761"/>
<path d="M149.039 89.2778C150.015 89.5107 148.453 93.2857 147.55 95.1442C140.914 108.67 127.079 136.699 124.83 140.607C122.582 144.514 121.298 145.911 120.936 146.121C115.578 148.086 91.5986 145.028 91.9236 144.039C92.1264 143.422 92.445 142.786 92.8378 142.257C126.694 98.9202 133.528 95.7961 136.251 93.5131C138.927 91.2696 147.82 88.9867 149.039 89.2778Z" fill="#677F65"/>
<path d="M170.939 121.349L180.688 83.6787C180.737 82.7304 178.184 83.1846 176.902 83.5302C173.481 84.2691 165.578 86.5304 162.04 88.0709C157.373 89.9345 153.515 93.5612 152.097 95.6523C144.357 110.204 129.31 140.654 129.121 142.564C128.931 144.475 130.408 143.316 132.711 142.977C135.014 142.638 164.444 126.776 167.499 125.15C169.943 123.849 170.811 122.074 170.939 121.349Z" fill="#677F65"/>
<path d="M215.722 77.107C216.199 77.7897 216.115 81.9118 216.014 83.8876C216.433 94.7279 217.07 116.956 216.263 119.145C215.254 121.882 211.014 123.448 208.25 123.854C205.543 124.253 204.096 124.014 198.37 123.069L198.008 123.009C191.979 122.014 181.873 122.09 178.811 122.07C176.361 122.054 175.961 120.294 176.067 119.415C177.984 111.98 183.487 94.166 185.999 86.1883C187.007 81.5223 187.983 80.4844 188.904 80.3488L212.165 76.9246C215.113 76.4907 215.424 76.6803 215.722 77.107Z" fill="#677F65"/>
<path d="M246.741 72.0725L250.176 74.6257C265.601 86.708 275.452 96.0816 277.335 97.6867C279.219 99.2918 279.124 100.247 278.339 101.304C277.71 102.149 270.662 102.434 267.216 102.471C244.246 104.675 227.855 113.206 225.03 114.798C222.771 116.072 221.939 115.645 221.806 115.273C219.27 99.646 220.041 87.2972 220.114 81.4039C220.173 76.6893 221.57 75.3073 222.261 75.2056C231.035 72.7815 234.173 72.3197 238.141 71.7359L238.318 71.7097C242.372 71.113 246.642 71.9302 246.741 72.0725Z" fill="#677F65"/>
<path d="M176.14 75.1705C176.181 77.0469 175.882 78.7373 175.796 79.2205C175.697 79.777 175.478 81.8555 174.591 82.2214C155.858 86.6732 149.111 87.6193 148.079 87.5359C147.336 86.3276 147.706 85.0034 147.706 85.0034C147.706 85.0034 148.099 84.475 148.756 84.143C161.404 77.7514 164.942 77.4766 170.349 75.7879C174.623 74.4527 176.202 73.985 176.14 75.1705Z" fill="#677F65"/>
<path d="M204.955 69.5161C204.785 68.3651 203.175 68.1519 202.184 68.2769C183.89 70.5935 179.19 72.4462 179.127 73.0829C176.234 80.2853 177.001 81.5528 177.746 81.2863C186.66 79.5034 204.62 75.8714 205.145 75.6058C205.803 75.2738 205.228 71.3729 204.955 69.5161Z" fill="#677F65"/>
<path d="M239.815 68.1512C242.552 69.1601 239.328 69.6347 238.867 69.7025C228.813 71.7316 208.599 75.7113 208.176 75.3971C207.753 75.0828 207.733 74.521 207.776 74.2794C207.808 69.3805 209.306 67.6227 210.051 67.3562C210.697 66.9474 213.733 66.1553 220.713 66.2573C227.693 66.3592 236.356 67.5624 239.815 68.1512Z" fill="#677F65"/>
<path d="M30.386 157.57C31.7514 156.616 35.1051 157.66 36.6112 158.301C38.4607 159.675 38.6642 161.057 38.9354 162.9C39.2066 164.742 37.1338 165.048 35.42 164.594C33.7062 164.14 28.6791 158.762 30.386 157.57Z" fill="#647761"/>
<path d="M47.566 163.982C55.2285 163.607 60.8072 168.15 62.6388 170.469C63.4356 172.045 63.9286 174.436 64.0755 175.434C64.2495 179.173 60.8879 179.354 59.1853 178.977C49.4793 175.7 43.173 170.903 41.2332 168.914C40.1514 167.426 39.9035 164.357 47.566 163.982Z" fill="#647761"/>
<path d="M42.0228 153.507C44.4884 152.674 48.2482 154.238 51.283 155.674C53.5592 156.75 57.949 159.398 51.2432 161.797C45.8786 163.716 43.6521 162.444 43.2094 161.568C40.2119 156.55 41.1694 154.103 42.0228 153.507Z" fill="#647761"/>
<path d="M57.7193 159.425C58.9005 158.498 59.8419 160.524 60.165 161.653C60.2655 162.344 60.9647 163.889 59.3524 164.126C57.2925 164.429 56.7965 164.345 56.7513 164.038C56.3105 161.044 56.2427 160.584 57.7193 159.425Z" fill="#647761"/>
<path d="M67.5359 160.571C69.7442 161.187 70.6526 165.759 70.9846 166.416C71.5773 168.211 69.0615 170.935 66.555 169.892C64.0486 168.849 62.883 165.726 63.0385 163.586C63.194 161.445 65.3275 159.955 67.5359 160.571Z" fill="#647761"/>
<path d="M78.7482 172.803C81.4904 173.528 86.0463 175.493 87.9815 176.385L90.2914 177.692C91.771 178.792 92.7286 183.059 93.0225 185.055C93.6663 186.764 93.7155 190.082 88.7624 189.682C82.5711 189.181 73.1075 185.633 70.0995 182.782C67.6931 180.501 69.015 178.079 69.9767 177.153C71.758 175.4 76.0061 172.077 78.7482 172.803Z" fill="#647761"/>
<path d="M77.4184 162.179C80.3663 161.745 85.9853 163.899 88.4263 165.03C90.9338 166.079 90.7025 166.106 91.3467 170.482C91.862 173.983 89.7057 174.253 88.5631 173.951C88.1454 173.777 85.8467 173.08 79.9939 171.683C74.1411 170.285 72.7815 168.509 72.8333 167.796C73.1334 166.104 74.4705 162.613 77.4184 162.179Z" fill="#647761"/>
<path d="M96.4663 166.903C97.8589 166.133 100.081 168.017 101.019 169.056C106.106 173.248 104.135 174.244 103.512 174.807C103.167 175.118 99.2452 177.788 97.8563 176.345C96.4675 174.902 93.4256 171.821 93.4186 170.175C93.4116 168.529 94.7256 167.865 96.4663 166.903Z" fill="#647761"/>
<path d="M117.053 161.284C118.397 161.463 121.926 164.018 123.523 165.273C125.142 166.681 125.807 167.995 125.711 168.951C125.409 171.971 119.609 173.849 117.109 174.452C115.11 174.935 111.615 172.83 110.118 171.717C104.151 168.266 104.389 166.364 105.254 165.844C109.324 163.128 115.373 161.061 117.053 161.284Z" fill="#647761"/>
<path d="M107.545 178.211C120.306 175.391 131.382 176.035 135.324 176.71L141.719 178.592C146.173 179.442 145.522 182.581 144.673 184.275C142.912 188.299 143.218 190.372 125.186 192.555C110.761 194.302 103.279 191.859 101.342 190.418C98.092 187.524 94.7832 181.031 107.545 178.211Z" fill="#647761"/>
<path d="M138.3 164.98C143.112 163.142 147.503 164.096 149.097 164.802L151.868 166.042C154.639 167.281 151.293 170.126 148.57 172.409C145.847 174.693 146.179 175.35 139.588 173.732C134.315 172.437 132.441 170.47 132.163 169.648C132.204 168.858 133.488 166.818 138.3 164.98Z" fill="#647761"/>
<path d="M157.118 157.55C158.635 155.067 164.763 154.071 167.638 153.883C171.313 153.342 172.836 154.059 173.138 154.485C172.629 158.701 169.174 161.657 167.51 162.608C164.114 164.049 157.19 166.668 156.659 165.617C155.995 164.303 155.222 160.652 157.118 157.55Z" fill="#647761"/>
<path d="M244.902 126.698C246.636 125.69 248.24 126.991 248.825 127.768C251.27 129.996 245.682 131.996 241.273 132.409C237.745 132.741 237.034 131.857 237.12 131.374C243.128 127.43 242.735 127.959 244.902 126.698Z" fill="#647761"/>
<path d="M189.246 153.01C186.346 152.495 180.939 155.723 178.598 157.401C175.161 159.632 166.384 165.222 158.766 169.732C151.147 174.242 149.491 177.058 149.615 177.902C148.952 179.255 148.574 182.338 152.373 183.849C157.122 185.739 169.957 177.026 170.648 176.924C171.339 176.822 195.465 160.094 195.092 157.561C194.719 155.027 192.87 153.653 189.246 153.01Z" fill="#647761"/>
<path d="M289.509 134.015C290.316 131.825 286.882 127.892 285.064 126.198C282.456 124.465 275.189 132.063 273.049 134.085C270.983 136.037 271.829 136.46 272.466 136.524L278.854 136.76C284.333 136.894 288.24 134.986 289.509 134.015Z" fill="#647761"/>
<path d="M288.329 119.602C294.377 117.206 301.84 117.613 304.817 118.117C305.575 118.475 305.236 117.772 307.459 120.081C310.236 122.966 307.48 125.019 307.283 125.283C307.087 125.547 298.092 131.577 294.895 130.636C291.697 129.695 288.682 125.197 287.192 123.064C285.999 121.357 287.453 120.045 288.329 119.602Z" fill="#647761"/>
<path d="M301.711 138.573C302.183 137.939 301.524 135.698 301.135 134.657C300.591 132.855 299.523 134.895 298.277 136.019C297.28 136.919 298.571 138.015 299.341 138.451C300.33 138.776 301.122 139.365 301.711 138.573Z" fill="#647761"/>
<path d="M316.312 135.479C316.729 134.477 313.441 131.431 311.745 130.034C308.676 128.368 303.712 129.804 303.963 134.709C304.214 139.613 306.219 138.847 306.287 139.308C310.243 140.608 315.79 136.732 316.312 135.479Z" fill="#647761"/>
<path d="M322.402 119.287C323.885 119.775 325.437 120.723 327.124 122.593C327.411 122.943 328.283 124.069 328.879 124.922C329.412 125.686 328.104 126.056 327.436 126.311C326.176 126.811 322.847 128.069 319.612 129.11C316.377 130.151 314.376 128.704 313.78 127.851C311.585 125.194 308.261 119.769 312.525 119.329C317.856 118.78 319.604 118.368 322.402 119.287Z" fill="#647761"/>
<path d="M336.719 119.064C341.51 118.359 346.361 120.625 348.188 121.846C350.67 123.363 349.033 124.389 347.904 124.712C338.015 127.862 334.309 127.732 333.693 127.274C331.534 125.396 327.472 121.46 328.496 120.745C329.776 119.851 330.731 119.945 336.719 119.064Z" fill="#647761"/>
<path d="M343.66 132.632C343.763 132.052 345.596 133.524 346.499 134.332C348.421 135.743 348.163 136.518 347.793 136.73C346.797 137.425 344.74 138.685 344.474 138.159C344.142 137.502 343.532 133.357 343.66 132.632Z" fill="#647761"/>
<path d="M348.443 126.75C349.679 126.192 349.731 127.502 349.602 128.227C349.386 131.553 348.329 130.767 347.604 130.638C346.879 130.51 344.833 129.399 344.996 128.905C345.158 128.41 346.899 127.448 348.443 126.75Z" fill="#647761"/>
<path d="M354.719 124.648C355.851 124.669 362.986 130.725 366.412 133.75C367.284 134.563 367.769 135.511 367.902 135.884C368.575 138.844 363.718 142.617 361.192 144.636C359.171 146.252 358.076 147.448 356.951 146.202C356.034 144.768 353.933 141.046 352.865 137.627C351.53 133.353 351.191 131.05 352.132 127.852C353.073 124.655 353.303 124.621 354.719 124.648Z" fill="#647761"/>
<path d="M303.086 106.372C304.191 106.209 309.222 101.704 308.754 100.126C308.381 97.5925 304.602 99.09 300.822 100.588L300.822 100.588C297.799 101.786 296.894 103.205 296.819 103.765C298.242 105.438 301.704 106.576 303.086 106.372Z" fill="#647761"/>
<path d="M332.543 81.09C333.356 80.2174 334.571 80.4778 335.076 80.7171L336.431 81.9295C337.115 87.8525 335.818 90.0199 335.085 90.3632C332.596 91.0432 327.291 92.4046 325.974 92.4102C324.657 92.4158 325.132 90.4166 325.533 89.4162C327.531 87.0044 331.73 81.9626 332.543 81.09Z" fill="#647761"/>
<path d="M344.037 74.456C346.291 71.8654 354.427 71.5147 358.214 71.6631C358.444 71.6292 359.294 71.6454 360.849 71.9811C362.793 72.4008 362.727 79.9403 362.341 82.1148C361.955 84.2892 357.472 90.5963 352.805 92.4598C348.138 94.3233 345.076 94.3034 341.98 94.0532C339.504 93.8531 339.25 92.0238 339.433 91.1341C339.553 80.7633 341.219 77.6943 344.037 74.456Z" fill="#647761"/>
<path d="M359.083 60.0068C361.17 61.3937 361.285 64.3101 361.082 65.5949C358.949 67.0853 357.764 67.0248 353.95 68.292C350.899 69.3059 349.87 68.8142 349.737 68.4417C348.56 64.2854 350.456 62.1396 351.551 61.5862C356.677 59.3257 358.709 59.5914 359.083 60.0068Z" fill="#647761"/>
<path d="M356.754 45.7608C358.049 40.4879 364.459 35.7638 367.503 34.0608C368.023 33.7572 368.794 33.7761 369.115 33.8235C372.545 35.3891 374.433 40.6485 374.949 43.0825C375.284 49.6215 375.332 63.5909 372.845 67.157C370.359 70.7232 367.817 69.2306 366.857 68.0385C362.95 62.8097 355.46 51.0338 356.754 45.7608Z" fill="#647761"/>
<path d="M370.378 29.6363C371.11 28.211 368.83 21.7856 367.599 18.7511C367.301 18.3247 367.472 18.2051 364.606 19.1918C361.739 20.1785 362.093 24.5029 362.629 26.5417C363.426 28.1186 365.91 29.1176 367.052 29.42C369.61 30.1729 370.335 29.8779 370.378 29.6363Z" fill="#647761"/>
<path d="M361.592 29.0486C360.351 28.2901 359.982 29.8346 359.953 30.7016L359.608 34.7526C359.599 35.2245 360.133 35.7578 362.338 34.1154C365.094 32.0628 364.714 31.9636 364.566 31.6698C364.417 31.3759 363.143 29.9967 361.592 29.0486Z" fill="#647761"/>
<path d="M369.349 142.497C370.134 141.44 370.385 143.678 370.413 144.929C370.808 147.616 371.57 153.747 371.451 156.776C371.332 159.806 369.984 160.13 369.324 159.913C367.445 159.405 363.691 157.448 363.701 153.682C363.714 148.974 368.367 143.818 369.349 142.497Z" fill="#647761"/>
<path d="M360.253 155.833C360.99 155.725 361.661 151.548 361.905 149.472C362.135 147.836 361.513 147.607 361.173 147.698C353.809 150.1 353.729 152.009 354.61 152.664C356.425 153.809 359.331 155.969 360.253 155.833Z" fill="#647761"/>
<path d="M342.411 138.517C349.526 139.541 352.602 145.409 353.25 148.216C350.338 152.409 340.069 152.98 338.293 145.712C336.873 139.897 340.447 138.493 342.411 138.517Z" fill="#3D4844"/>
</svg>
