<svg width="860" height="579" viewBox="0 0 860 579" fill="none" xmlns="http://www.w3.org/2000/svg">
<path d="M564.868 558.812C589.7 549.607 619.473 522.713 631.255 510.416C606.64 498.242 554.351 473.528 552.319 496.385C549.632 526.607 529.947 538.767 531.295 548.338C531.454 556.575 540.037 568.017 564.868 558.812Z" fill="#6C7181"/>
<path d="M775.463 252.066C822.522 275.656 834.094 303.38 840.711 333.627C844.677 370.309 837.729 407.503 833.76 421.514C836.435 424.516 839.843 434.585 832.073 450.846C824.303 467.108 806.105 467.707 797.977 465.974C796.481 478.799 788.878 486.652 785.263 488.976C746.78 511.066 688.66 512.535 664.411 510.508C591.004 519.198 495.412 499.843 456.793 489.079C404.919 472.173 286.051 417.367 225.565 333.387C149.959 228.413 148.132 194.132 146.458 190.239C145.118 187.124 144.475 187.663 142.917 189.468C134.738 199.631 119.931 205.802 115.091 207.422C92.8848 214.857 69.9676 216.22 30.6626 206.365C-8.64224 196.511 -26.6414 179.338 -30.2086 175.336C-33.7757 171.333 -38.365 152.083 -15.6564 153.389C2.51053 154.433 14.7669 152.606 18.6242 151.562C29.0271 149.138 36.9022 145.853 39.147 141.35C42.3143 136.663 46.6993 128.874 63.1611 119.947C79.6228 111.02 98.0652 112.777 105.229 114.771C104.692 102.083 107.801 73.3386 124.524 59.8703C145.427 43.035 150.484 37.6298 153.976 26.4387C156.769 17.4858 160.694 14.1675 162.307 13.6274C169.424 8.7204 174.734 12.1268 176.5 14.4434C185.104 23.2921 191.736 46.6469 193.976 57.2182C195.702 71.2407 197.967 103.395 193.225 119.83C188.483 136.265 181.185 147.617 178.128 151.239C188.247 160.175 204.85 170.812 211.887 175.014C239.699 192.119 315.362 227.859 395.512 233.986C475.662 240.113 561.854 242.512 594.612 239.649C622.75 238.988 646.687 237.326 680.913 236.446C741.687 236.143 765.182 249.26 775.463 252.066Z" fill="url(#paint0_linear_132_2458)"/>
<path d="M711.812 397.321C625.381 363.873 733.946 410.745 678.628 395.413C668.347 392.607 674.224 377.313 640.439 383.725C620.486 389.539 557.177 355.775 529.039 356.435C496.281 359.299 445.313 339.85 365.163 333.724C351.606 332.687 342.592 332.443 336.837 332.669C336.519 332.464 336.183 332.254 335.831 332.037C328.817 327.849 215.481 294.718 204.746 285.658C204.723 285.634 204.69 285.606 204.648 285.574C204.68 285.602 204.713 285.63 204.746 285.658C205.101 286.014 203.47 285.392 200.026 283.415C199.161 282.918 187.151 276.257 185.667 274.041C180.723 266.019 176.424 258.689 172.681 252.002C176.695 259.351 179.578 264.935 185.666 274.04C185.666 274.04 185.666 274.04 185.667 274.041C195.932 290.698 208.974 310.336 225.571 333.38C286.057 417.36 404.827 473.594 456.701 490.499C495.321 501.263 590.815 518.08 664.243 514.038C692.959 513.619 746.786 511.059 785.269 488.969C788.884 486.645 796.487 478.792 797.984 465.967C773.188 435.975 768.854 425.375 766.271 424.185C740.376 412.254 736.757 409.198 734.082 406.196C731.407 403.194 734.095 405.944 711.812 397.321Z" fill="url(#paint1_linear_132_2458)"/>
<path d="M613.898 432.517C685.086 462.431 766.325 467.228 798.046 465.888C785.519 353.527 383.504 289.848 185.373 274.028L197.804 288.983C230.126 321.219 234.204 332.845 305.048 372.043C375.892 411.241 375.218 406.455 382.57 410.675C389.922 414.895 385.3 412.731 375.859 428.326C366.419 443.922 317.608 483.835 301.925 492.427C289.378 499.3 285.357 505.398 284.915 507.588C281.365 516.497 287.198 522.908 290.559 525C304.201 529.898 342.066 537.264 384.395 527.546C437.306 515.399 462.832 500.728 483.572 486.731C500.165 475.534 514.681 457.509 519.865 449.896C534.187 438.568 554.458 431.632 562.803 429.58C592.76 423.708 609.348 429.091 613.898 432.517Z" fill="url(#paint2_linear_132_2458)"/>
<path d="M595.388 402.728C608.185 397.392 621.658 403.099 625.992 409.612C615.755 413.882 607.259 410.876 604.004 409.537C598.451 406.861 595.946 403.883 595.388 402.728Z" fill="white"/>
<defs>
<linearGradient id="paint0_linear_132_2458" x1="796.568" y1="88.6132" x2="708.357" y2="387.523" gradientUnits="userSpaceOnUse">
<stop stop-color="#3E414B"/>
<stop offset="1" stop-color="#6C7181"/>
</linearGradient>
<linearGradient id="paint1_linear_132_2458" x1="414.014" y1="354.616" x2="381.564" y2="491.273" gradientUnits="userSpaceOnUse">
<stop stop-color="white"/>
<stop offset="1" stop-color="#CBCBCB"/>
</linearGradient>
<linearGradient id="paint2_linear_132_2458" x1="496.197" y1="291.897" x2="481.893" y2="540.706" gradientUnits="userSpaceOnUse">
<stop stop-color="#6C7181"/>
<stop offset="1" stop-color="#6C7181"/>
</linearGradient>
</defs>
</svg>
