<svg width="1920" height="1080" viewBox="0 0 1920 1080" fill="none" xmlns="http://www.w3.org/2000/svg">
<g clip-path="url(#clip0_353_146)">
<path d="M1212.44 794.747C1216.05 792.493 1221.45 792.673 1223.7 793.044C1227.66 800.141 1219.98 811.531 1215.65 816.339C1213.37 817.564 1208.37 819.754 1206.58 818.714C1204.34 817.415 1201.76 818.816 1199.69 819.248C1197.62 819.681 1191.2 822.957 1190.28 823.425C1189.36 823.893 1188.5 824.061 1188.34 824.034C1188.02 823.981 1187.98 823.492 1188.19 823.08C1188.71 822.082 1188.77 821.553 1188.94 820.881C1189.55 818.506 1189.72 817.635 1190.15 815.357L1190.15 815.35C1190.69 812.497 1191.32 810.867 1190.96 807.585C1190.71 805.377 1191.23 802.624 1191.31 802.223L1191.31 802.222C1191.34 802.022 1191.54 800.123 1192.69 801.057C1194.12 802.223 1198.58 806.676 1199.89 807.666C1200.93 808.458 1202.44 809.946 1204.96 812.406C1204.43 811.699 1203.22 810.044 1202.6 809.075C1201.84 807.865 1201.99 806.186 1203.12 803.739C1204.24 801.292 1207.93 797.565 1212.44 794.747Z" fill="url(#paint0_linear_353_146)"/>
<path d="M1207.19 809.366C1206.27 808.595 1205.64 806.167 1205.78 805.417C1205.91 804.716 1206.34 803.712 1206.96 805.302C1207.59 806.892 1208.98 807.802 1209.56 808.209C1210.15 808.615 1210.29 809.62 1210.08 809.843C1209.5 810.005 1208.1 810.136 1207.19 809.366Z" fill="#ECC852"/>
<path d="M1216.67 803.034C1216.7 802.172 1216.77 799.282 1216.81 797.945C1216.84 796.711 1217.47 796.919 1217.78 797.177C1218.18 797.966 1219.01 799.796 1219.08 800.799C1219.18 802.054 1218.77 802.451 1218.39 802.699C1218.01 802.946 1216.63 804.112 1216.67 803.034Z" fill="#ECC852"/>
<path d="M1211.6 805.293C1210.76 804.163 1210.43 801.849 1210.76 800.974C1211.55 799.617 1211.7 801.282 1211.85 802.237C1212.56 803.749 1214.53 804.693 1214.42 805.294C1214.31 805.895 1214 806.619 1213.49 806.69C1212.98 806.76 1212.66 806.707 1211.6 805.293Z" fill="#ECC852"/>
<path d="M1221.39 803.501C1222.88 798.42 1222.52 791.66 1222.16 788.915C1222.81 787.537 1224.25 788.642 1224.89 789.366L1232.03 804.174L1214.27 837.636L1207.48 835.895C1203.09 834.551 1198.18 829.868 1197.78 829.338C1197.38 828.808 1196.85 828.101 1196.97 827.5C1197.08 826.9 1201.54 820.822 1207.47 818.394C1213.4 815.965 1219.52 809.853 1221.39 803.501Z" fill="url(#paint1_linear_353_146)"/>
<path d="M1219.65 784.633C1213.69 775.472 1199.73 770.194 1193.5 768.7C1193.61 768.099 1197.02 768.197 1198.71 768.321C1210.84 769.334 1221.18 772.445 1224.83 773.874C1230.31 775.862 1243.33 781.388 1251.57 787.58C1261.87 795.321 1268.49 806.79 1270.36 815.306C1272.23 823.823 1274.21 826.474 1275.91 827.994C1277.27 829.21 1276.54 829.955 1276 830.176C1273.84 830.491 1267.8 831.982 1260.92 835.43C1252.32 839.74 1237.71 840.735 1234.94 841.362C1232.17 841.989 1205.26 837.081 1207.83 835.801C1210.39 834.52 1219.6 826.129 1223.69 816.738C1227.79 807.348 1227.1 796.084 1219.65 784.633Z" fill="url(#paint2_linear_353_146)"/>
<path d="M1242.08 781.677C1240.46 780.634 1240.76 781.355 1240.9 781.791C1242.68 784.315 1243.63 788.126 1243.88 789.717C1246 802.147 1243.9 807.995 1239.4 817.783C1235.8 825.613 1233.15 828.057 1230.54 831.343C1226.31 836.219 1223.97 838.621 1222.33 839.743L1224.9 840.167C1224.29 841.305 1224.04 841.472 1224 841.413C1223.26 842.529 1220.6 843.639 1219.36 844.054C1218.39 844.265 1218.05 844.819 1218.01 845.069C1217.65 846.25 1221.02 847.529 1222.75 848.021C1228.83 849.52 1234.44 848.712 1236.49 848.12C1246.95 842.724 1245.08 844.738 1248.84 838.855C1252.6 832.972 1256.78 818.793 1255.28 804.764C1254.09 793.54 1251.75 788.125 1250.72 786.82C1247.52 784.805 1243.63 782.552 1242.08 781.677Z" fill="url(#paint3_linear_353_146)"/>
<path d="M1262.13 820.704C1261.67 819.605 1260.45 819.692 1259.77 819.827C1259.36 820.063 1259.14 820.372 1259.15 820.893C1259.17 821.933 1260.49 822.252 1261.15 822.281C1261.82 822.274 1262.58 821.803 1262.13 820.704Z" fill="#575853" stroke="#575853" stroke-width="0.416826"/>
</g>
<defs>
<linearGradient id="paint0_linear_353_146" x1="1208.68" y1="798.668" x2="1220.53" y2="813.893" gradientUnits="userSpaceOnUse">
<stop stop-color="#F5D76A"/>
<stop offset="1" stop-color="#DAC371"/>
</linearGradient>
<linearGradient id="paint1_linear_353_146" x1="1219.82" y1="787.708" x2="1211.64" y2="837.202" gradientUnits="userSpaceOnUse">
<stop stop-color="#575853"/>
<stop offset="1" stop-color="#202219"/>
</linearGradient>
<linearGradient id="paint2_linear_353_146" x1="1239.68" y1="774.746" x2="1228.76" y2="840.924" gradientUnits="userSpaceOnUse">
<stop stop-color="#F5FFFD"/>
<stop offset="1" stop-color="#EBEBEB"/>
</linearGradient>
<linearGradient id="paint3_linear_353_146" x1="1246.05" y1="781.976" x2="1234.8" y2="850.098" gradientUnits="userSpaceOnUse">
<stop stop-color="#575853"/>
<stop offset="1" stop-color="#202219"/>
</linearGradient>
<clipPath id="clip0_353_146">
<rect width="1920" height="1080" fill="white"/>
</clipPath>
</defs>
</svg>
