<svg width="1920" height="1080" viewBox="0 0 1920 1080" fill="none" xmlns="http://www.w3.org/2000/svg">
<path d="M1332 481.191C1336.13 479.764 1341.49 481.185 1343.66 482.074C1345.99 490.085 1335.69 499.719 1330.25 503.534C1327.69 504.237 1322.19 505.279 1320.63 503.828C1318.69 502.013 1315.78 502.82 1313.61 502.777C1311.44 502.734 1304.26 504.538 1303.24 504.796C1302.21 505.053 1301.31 505.023 1301.16 504.96C1300.85 504.833 1300.92 504.333 1301.23 503.97C1301.98 503.091 1302.15 502.574 1302.48 501.941C1303.64 499.706 1304.01 498.872 1304.96 496.691L1304.96 496.685C1306.16 493.954 1307.16 492.468 1307.55 489.1C1307.81 486.834 1308.97 484.199 1309.14 483.815L1309.14 483.815C1309.22 483.623 1309.85 481.767 1310.79 482.965C1311.95 484.462 1315.39 489.944 1316.47 491.234C1317.33 492.266 1318.5 494.101 1320.46 497.142C1320.09 496.313 1319.26 494.378 1318.87 493.268C1318.38 491.881 1318.92 490.236 1320.6 488.046C1322.29 485.856 1326.84 482.974 1332 481.191Z" fill="url(#paint0_linear_344_148)"/>
<path d="M1323.38 494.613C1322.65 493.632 1322.57 491.056 1322.88 490.338C1323.18 489.667 1323.83 488.759 1324.09 490.494C1324.35 492.23 1325.53 493.459 1326.02 494.001C1326.52 494.542 1326.43 495.579 1326.17 495.755C1325.55 495.783 1324.12 495.594 1323.38 494.613Z" fill="#ECC852"/>
<path d="M1334.33 490.456C1334.56 489.6 1335.3 486.725 1335.64 485.394C1335.95 484.167 1336.53 484.519 1336.79 484.849C1337.01 485.732 1337.41 487.752 1337.26 488.774C1337.06 490.051 1336.57 490.355 1336.13 490.516C1335.7 490.676 1334.05 491.526 1334.33 490.456Z" fill="#ECC852"/>
<path d="M1328.74 491.551C1328.15 490.225 1328.36 487.836 1328.89 487.036C1329.99 485.86 1329.76 487.56 1329.69 488.549C1330.05 490.225 1331.81 491.624 1331.56 492.199C1331.31 492.774 1330.84 493.429 1330.31 493.383C1329.78 493.336 1329.47 493.209 1328.74 491.551Z" fill="#ECC852"/>
<path d="M1338.94 492.008C1341.6 487.266 1342.8 480.42 1343.06 477.59C1344.04 476.362 1345.22 477.798 1345.69 478.669L1349.44 495.128L1323.98 524.531L1317.58 521.227C1313.5 518.874 1309.66 513.059 1309.38 512.437C1309.11 511.815 1308.74 510.986 1308.99 510.411C1309.24 509.836 1315.1 504.781 1321.59 503.713C1328.08 502.645 1335.62 497.936 1338.94 492.008Z" fill="url(#paint1_linear_344_148)"/>
<path d="M1341.54 472.728C1337.69 462.193 1324.93 453.703 1319.03 450.775C1319.29 450.2 1322.67 451.081 1324.33 451.593C1336.24 455.395 1345.87 460.884 1349.2 463.153C1354.22 466.402 1365.98 474.922 1372.81 483.013C1381.33 493.126 1385.32 506.122 1385.23 515.074C1385.15 524.026 1386.52 527.135 1387.88 529.046C1388.96 530.576 1388.05 531.152 1387.46 531.249C1385.23 531.068 1378.84 531.173 1371.16 533.042C1361.57 535.378 1346.72 533.018 1343.81 533.009C1340.89 532.999 1315.09 521.904 1317.95 521.212C1320.81 520.519 1331.95 514.238 1338.21 505.783C1344.46 497.327 1346.36 485.898 1341.54 472.728Z" fill="url(#paint2_linear_344_148)"/>
<path d="M1364.67 474.922C1363.28 473.505 1363.42 474.297 1363.46 474.765C1364.66 477.699 1364.73 481.73 1364.62 483.38C1363.88 496.306 1360.44 501.676 1353.69 510.436C1348.28 517.444 1345.07 519.28 1341.7 521.968C1336.35 525.874 1333.46 527.742 1331.55 528.486L1334.03 529.501C1333.15 530.499 1332.87 530.61 1332.84 530.541C1331.84 531.488 1328.93 531.986 1327.59 532.117C1326.57 532.107 1326.11 532.583 1326.01 532.823C1325.38 533.922 1328.46 535.977 1330.07 536.866C1335.81 539.764 1341.61 540.244 1343.8 540.122C1355.51 537.127 1353.17 538.713 1358.29 533.69C1363.41 528.668 1370.84 515.439 1372.57 501.058C1373.96 489.553 1372.85 483.595 1372.13 482.054C1369.39 479.303 1366.01 476.153 1364.67 474.922Z" fill="url(#paint3_linear_344_148)"/>
<path d="M1375.75 518.583C1375.55 517.379 1374.31 517.185 1373.59 517.163C1373.13 517.306 1372.84 517.565 1372.73 518.087C1372.51 519.133 1373.76 519.755 1374.41 519.936C1375.09 520.083 1375.96 519.787 1375.75 518.583Z" fill="#575853" stroke="#575853" stroke-width="0.416826"/>
<defs>
<linearGradient id="paint0_linear_344_148" x1="1327.34" y1="484.25" x2="1335.7" y2="502.209" gradientUnits="userSpaceOnUse">
<stop stop-color="#F5D76A"/>
<stop offset="1" stop-color="#DAC371"/>
</linearGradient>
<linearGradient id="paint1_linear_344_148" x1="1341" y1="475.844" x2="1321.45" y2="523.493" gradientUnits="userSpaceOnUse">
<stop stop-color="#575853"/>
<stop offset="1" stop-color="#202219"/>
</linearGradient>
<linearGradient id="paint2_linear_344_148" x1="1363.86" y1="467.438" x2="1337.72" y2="531.148" gradientUnits="userSpaceOnUse">
<stop stop-color="#F5FFFD"/>
<stop offset="1" stop-color="#EBEBEB"/>
</linearGradient>
<linearGradient id="paint3_linear_344_148" x1="1368.57" y1="476.132" x2="1341.66" y2="541.714" gradientUnits="userSpaceOnUse">
<stop stop-color="#575853"/>
<stop offset="1" stop-color="#202219"/>
</linearGradient>
</defs>
</svg>
