<svg width="194" height="73" viewBox="0 0 194 73" fill="none" xmlns="http://www.w3.org/2000/svg">
<path d="M175.52 50.3781C186.639 58.4648 192.227 70.3139 193.631 75.2277V76.9126H19.684C6.54318 55.0113 1.85406 37.7429 1.1521 31.8464C-0.251831 23.0016 0.47821 4.55401 14.6298 1.52152C28.7814 -1.51096 42.1469 2.78506 47.0606 5.31213C65.1713 16.2628 73.1737 27.2134 74.0161 31.8464C74.8584 36.4794 76.5431 41.1123 76.9643 38.5853C77.3012 36.5636 78.7894 34.0927 79.4914 33.1099C86.2302 24.6863 98.4444 23.0016 112.343 30.1616C123.462 35.8897 131.016 58.9422 133.402 69.7525C134.413 59.3072 139.72 52.4841 142.247 50.3781C148.705 47.0087 164.401 42.2915 175.52 50.3781Z" fill="#EFCB94"/>
<path fill-rule="evenodd" clip-rule="evenodd" d="M78.6515 77.1331L33.5853 45.9658C30.4967 44.5619 33.3326 48.8298 69.3855 77.1331H78.6515ZM83.2847 60.7071C83.0038 59.8647 82.2736 60.8755 81.5997 71.6577C81.4593 73.3426 81.0943 76.7965 80.7574 77.1333H85.8524C86.2351 72.8875 86.2166 64.2906 83.2847 60.7071Z" fill="#DCB06D"/>
</svg>
