<svg width="203" height="122" viewBox="0 0 203 122" fill="none" xmlns="http://www.w3.org/2000/svg">
<path d="M68.3935 154.889C75.5937 167.71 91.9736 168.383 95.064 168.754L161.009 164.572C165.169 152.559 166.195 115.602 164.731 110.917C163.193 105.995 156.725 100.604 152.434 100.962C148.92 101.254 148.627 101.649 146.871 102.133C141.316 103.663 135.499 106.905 135.159 106.818C133.402 107.403 131.352 109.16 132.523 105.939C134.895 99.4158 138.087 99.7904 140.429 88.664C142.721 77.7763 137.501 72.2672 130.181 69.632C126.87 68.4401 121.69 68.7536 120.811 68.7536C118.469 69.0464 117.355 69.8928 117.591 69.0464C119.055 63.776 121.701 46.3199 118.176 42.4016C114.652 38.4833 109.099 38.888 107.05 38.3024C105.247 37.7874 105.586 37.4345 105.586 33.3248C105.586 25.712 103.536 20.1488 100.608 16.9281C92.4659 7.97156 86.6997 8.13716 84.2114 8.14376C80.2941 7.72917 69.8641 12.5359 69.0172 25.548C68.7077 30.3044 70.3617 40.3731 72.0584 43.5728C73.4157 46.1326 72.9506 46.5583 72.0584 46.442C64.1025 43.2013 59.2545 44.1748 57.825 45.0666C54.6399 46.4876 48.3387 51.1578 48.6153 58.4705C48.961 67.6113 59.6869 80.4113 62.4501 83.0454C64.6607 85.1528 63.574 85.3165 62.7543 85.1349C54.2059 83.6874 50.6891 88.5049 49.9992 91.0946C49.4763 93.1402 49.9403 99.2603 55.9796 107.375C62.019 115.491 74.7431 126.823 80.3927 127.949C84.7373 128.815 94.8559 132.463 86.0286 131.15C79.6878 130.206 75.2475 131.837 73.0569 133.366C69.1024 136.267 62.6333 144.632 68.3935 154.889Z" fill="#EFCB94"/>
<path fill-rule="evenodd" clip-rule="evenodd" d="M120.841 130.284C121.545 131.765 121.97 132.661 122.04 132.872L124.968 131.701C120.787 126.056 115.897 115.3 111.244 103.362C114.502 100.285 116.405 96.5923 115.6 93.6384C114.897 91.0618 114.136 91.9792 113.843 92.76C113.608 95.5709 112.574 97.4448 112.086 98.0304C111.444 98.9134 110.764 99.6657 110.067 100.305C106.372 90.5872 102.88 80.3227 100.08 71.5411C104.997 69.2224 106.426 66.3837 106.522 65.235C106.522 62.1899 105.546 62.9902 105.058 63.771C103.969 66.3121 101.403 68.4312 99.4856 69.6653C96.6073 60.5326 94.558 53.2557 93.9314 50.302C92.2917 42.5721 91.101 41.6156 90.7106 42.1036C92.0058 51.3745 94.3644 61.1534 97.2283 70.7232C94.3792 71.3455 90.2337 70.8608 88.3682 70.5054C85.7916 69.8027 86.709 70.9934 87.4898 71.6766C89.1829 72.5232 93.3139 73.6635 97.7427 72.4224C100.919 82.7943 104.652 92.8691 108.228 101.726C105.418 103.532 102.645 103.793 101.252 103.594C97.5045 103.594 98.7147 105.155 99.7883 105.936C101.836 106.381 106.384 106.697 109.479 104.793C114.367 116.649 118.789 125.962 120.841 130.284Z" fill="#DCB06D"/>
</svg>
