<svg width="283" height="201" viewBox="0 0 283 201" fill="none" xmlns="http://www.w3.org/2000/svg">
<path d="M94.3929 216.122C104.33 233.816 126.937 234.745 131.202 235.257L222.215 229.485C227.957 212.907 229.373 161.899 227.353 155.434C225.23 148.641 216.303 141.201 210.38 141.694C205.531 142.098 205.127 142.642 202.702 143.311C195.036 145.423 187.009 149.897 186.538 149.776C184.114 150.584 181.285 153.009 182.901 148.564C186.175 139.561 190.579 140.078 193.812 124.722C196.976 109.695 189.771 102.092 179.668 98.4548C175.099 96.8097 167.949 97.2425 166.737 97.2425C163.504 97.6466 161.967 98.8147 162.292 97.6466C164.312 90.3727 167.964 66.2808 163.1 60.8729C158.236 55.4651 150.573 56.0237 147.744 55.2155C145.256 54.5046 145.723 54.0175 145.723 48.3457C145.723 37.8389 142.895 30.1609 138.854 25.7157C127.616 13.3545 119.658 13.583 116.224 13.5921C110.817 13.0199 96.4225 19.6539 95.2537 37.6125C94.8265 44.177 97.1092 58.0733 99.4509 62.4894C101.324 66.0222 100.682 66.6097 99.4509 66.4492C88.4706 61.9766 81.7798 63.3201 79.8069 64.551C75.4109 66.5122 66.7144 72.9577 67.0961 83.0502C67.5732 95.6659 82.3765 113.332 86.1902 116.967C89.2411 119.876 87.7413 120.102 86.61 119.851C74.812 117.853 69.9582 124.502 69.006 128.076C68.2843 130.899 68.9248 139.346 77.2599 150.546C85.5951 161.746 103.156 177.386 110.954 178.94C116.95 180.135 130.915 185.171 118.732 183.358C109.981 182.056 103.852 184.307 100.829 186.417C95.3712 190.42 86.443 201.966 94.3929 216.122Z" fill="#EFCB94"/>
<path fill-rule="evenodd" clip-rule="evenodd" d="M174.364 227.972C175.674 230.73 176.465 232.398 176.596 232.79L182.049 230.61C174.263 220.098 165.156 200.066 156.49 177.831C162.557 172.102 166.102 165.224 164.602 159.723C163.293 154.924 161.875 156.633 161.33 158.087C160.894 163.322 158.967 166.812 158.058 167.902C156.862 169.547 155.595 170.948 154.298 172.138C147.415 154.042 140.912 134.926 135.699 118.572C144.856 114.254 147.517 108.967 147.696 106.828C147.696 101.157 145.878 102.647 144.969 104.102C142.941 108.834 138.163 112.78 134.592 115.079C129.231 98.0705 125.415 84.5184 124.248 79.0175C121.194 64.6218 118.977 62.8405 118.25 63.7493C120.662 81.015 125.054 99.2265 130.388 117.049C125.082 118.208 117.362 117.305 113.887 116.643C109.089 115.335 110.797 117.552 112.252 118.824C115.405 120.401 123.098 122.525 131.346 120.213C137.26 139.529 144.214 158.291 150.872 174.786C145.639 178.148 140.476 178.634 137.882 178.263C130.902 178.263 133.156 181.171 135.156 182.626C138.969 183.455 147.439 184.042 153.202 180.497C162.305 202.578 170.541 219.922 174.364 227.972Z" fill="#DCB06D"/>
</svg>
