<svg width="135" height="44" viewBox="0 0 135 44" fill="none" xmlns="http://www.w3.org/2000/svg">
<path d="M13.2818 34.9769C5.55188 40.5986 1.66741 48.8361 0.691406 52.2521V53.4234H121.618C130.753 38.1978 134.013 26.193 134.501 22.0938C135.477 15.945 134.969 3.12036 125.131 1.0122C115.293 -1.09596 106.002 1.8906 102.586 3.6474C89.9954 11.2602 84.4322 18.873 83.8466 22.0938C83.261 25.3146 82.0898 28.5354 81.797 26.7786C81.5627 25.3731 80.5282 23.6554 80.0402 22.9722C75.3554 17.1162 66.8642 15.945 57.2018 20.9226C49.4719 24.9046 44.221 40.9305 42.5618 48.4457C41.8591 41.1843 38.1698 36.4409 36.413 34.9769C31.9234 32.6345 21.0117 29.3551 13.2818 34.9769Z" fill="#EFCB94"/>
<path fill-rule="evenodd" clip-rule="evenodd" d="M80.6265 53.5755L111.956 31.9083C114.103 30.9323 112.132 33.8994 87.0681 53.5755H80.6265ZM77.4053 42.1567C77.6006 41.5711 78.1082 42.2738 78.5767 49.7695C78.6743 50.9408 78.928 53.342 79.1623 53.5761H75.6203C75.3542 50.6244 75.3671 44.648 77.4053 42.1567Z" fill="#DCB06D"/>
</svg>
