<svg id="레이어_1" data-name="레이어 1" xmlns="http://www.w3.org/2000/svg" viewBox="0 0 484.81 549.69"><defs><style>.cls-1,.cls-10,.cls-4,.cls-5{fill:none;}.cls-1,.cls-2,.cls-4,.cls-5,.cls-6,.cls-7,.cls-9{stroke:#000;}.cls-1,.cls-5{stroke-linecap:round;}.cls-1,.cls-10,.cls-2,.cls-4,.cls-5,.cls-6,.cls-7,.cls-9{stroke-miterlimit:10;}.cls-1{stroke-width:8px;}.cls-2{fill:#fbc93f;}.cls-10,.cls-2,.cls-4,.cls-5,.cls-6,.cls-7,.cls-9{stroke-width:6px;}.cls-3,.cls-6{fill:#8c5c34;}.cls-7{fill:#ef9425;}.cls-8{fill:#f6b767;}.cls-9{fill:#f09425;}.cls-10{stroke:#915d35;}.cls-11{fill:#915d35;}.cls-12{fill:#fff;}</style></defs><title>g1</title><path class="cls-1" d="M309,123" transform="translate(-5.94 -6.65)"/><path class="cls-2" d="M245.23,94.11s88,232.39,240.82,334.36l-124,124c-152.83-102-240.82-334.36-240.82-334.36" transform="translate(-5.94 -6.65)"/><path class="cls-3" d="M262,305.3s33.12,50,15.73,71.51-4.74,52.36,0,65.79S269,468,269,468,168.28,343,157.79,298.34C157.79,298.34,216.24,333.2,262,305.3Z" transform="translate(-5.94 -6.65)"/><path class="cls-3" d="M335.43,272s-9.23,14.12,8.69,43.37,32.41,40.31,54.55,53.75,33.65,16.2,33.65,16.2Z" transform="translate(-5.94 -6.65)"/><path class="cls-3" d="M293.6,487.66s11.79-32.41,21.28-51.38,42.41-49.8,73-16.6,22.66,45.85,14.76,68S389.18,523.23,356,516.91s-31.62,6.85-31.62,6.85Z" transform="translate(-5.94 -6.65)"/><path class="cls-4" d="M245.23,94.11s88,232.39,240.82,334.36l-124,124c-152.83-102-240.82-334.36-240.82-334.36" transform="translate(-5.94 -6.65)"/><path class="cls-5" d="M241.63,210.11s4.47,7.2,14,1.58,3.16-14.58,3.16-14.58" transform="translate(-5.94 -6.65)"/><path class="cls-5" d="M262.79,231" transform="translate(-5.94 -6.65)"/><path class="cls-5" d="M246.27,231s32.15,8.78,31.44-23.36" transform="translate(-5.94 -6.65)"/><path class="cls-5" d="M255.58,211.69" transform="translate(-5.94 -6.65)"/><line class="cls-5" x1="263.08" y1="221.94" x2="251.22" y2="205.04"/><path class="cls-2" d="M222.61,71l39.56-29.4s9-7.15,12.34-6.72,13.06,4.4,13.27,16.63.08,24.37-11.41,30.07-23.12,10.63-35,8.95S222.61,71,222.61,71Z" transform="translate(-5.94 -6.65)"/><path class="cls-2" d="M69.07,150.7,22.65,167.26s-11,3.52-12.44,6.53-3.6,13.3,6.46,20.27S36.89,207.67,48,201.28,69.69,188,74.88,177.16,69.07,150.7,69.07,150.7Z" transform="translate(-5.94 -6.65)"/><circle class="cls-6" cx="64.9" cy="83.44" r="18.67" transform="translate(-37.28 33.05) rotate(-27.68)"/><rect class="cls-7" x="77.06" y="95.61" width="14.23" height="18.49" transform="translate(-55.47 83.98) rotate(-45.17)"/><path class="cls-2" d="M135.25,79.47C88,97.59,53.25,147.59,77.34,212.61s81.16,91,81.16,91C252.46,322,288.26,244,288.26,244s18-60.06-15-121S180,55.86,135.25,79.47Z" transform="translate(-5.94 -6.65)"/><path class="cls-3" d="M80.52,211.87s39.21-7.58,56.49-37.24,28.6-64,5.72-98.76c0,0-54.48,23-66.49,67.59C65,185.12,80.52,211.87,80.52,211.87Z" transform="translate(-5.94 -6.65)"/><path class="cls-8" d="M289,176.33s-31.91.46-30.19,33.58S283.7,236.3,283.7,236.3l7.22-1.08,1.47-48.79Z" transform="translate(-5.94 -6.65)"/><ellipse cx="261.39" cy="178.92" rx="11.29" ry="16.03" transform="translate(-59.14 135.25) rotate(-27.68)"/><path class="cls-8" d="M115.65,270.63s17.11-26.94,44.42-8.11,9.42,35,9.42,35l-4.7,5.59-42.32-24.32Z" transform="translate(-5.94 -6.65)"/><ellipse cx="137.84" cy="243.73" rx="11.29" ry="16.03" transform="translate(-103.39 85.27) rotate(-27.68)"/><circle class="cls-6" cx="169.98" cy="28.32" r="18.67" transform="translate(116.62 187.34) rotate(-83.49)"/><rect class="cls-7" x="166.78" y="47.62" width="14.23" height="18.49" transform="matrix(0.98, -0.19, 0.19, 0.98, -13.59, 27.51)"/><path class="cls-4" d="M135.25,79.47C88,97.59,53.25,147.59,77.34,212.61s81.16,91,81.16,91C252.46,322,288.26,244,288.26,244s18-60.06-15-121S180,55.86,135.25,79.47Z" transform="translate(-5.94 -6.65)"/><path class="cls-9" d="M167.29,304.6s38.78-81,124-65c0,0,32.47,48.1-35.66,82.72S167.29,304.6,167.29,304.6Z" transform="translate(-5.94 -6.65)"/><path class="cls-10" d="M257.17,298.34" transform="translate(-5.94 -6.65)"/><line class="cls-5" x1="39.66" y1="223.27" x2="59.11" y2="221.56"/><line class="cls-5" x1="27.75" y1="265.43" x2="72.22" y2="247.55"/><line class="cls-5" x1="61.59" y1="286.73" x2="82.85" y2="271.56"/><line class="cls-5" x1="85.56" y1="302.15" x2="94.86" y2="287.69"/><ellipse class="cls-11" cx="241.92" cy="261.25" rx="2.54" ry="5.49" transform="translate(-111.16 175.42) rotate(-34.35)"/><ellipse class="cls-11" cx="217.72" cy="274.86" rx="2.54" ry="5.49" transform="translate(-99.9 107.58) rotate(-24.35)"/><ellipse class="cls-12" cx="130.14" cy="239.88" rx="2.4" ry="3.43" transform="translate(-31.13 8.84) rotate(-6.21)"/><ellipse class="cls-12" cx="255.22" cy="176.33" rx="2.4" ry="3.43" transform="translate(-23.52 21.99) rotate(-6.21)"/></svg>