<svg id="레이어_1" data-name="레이어 1" xmlns="http://www.w3.org/2000/svg" viewBox="0 0 530.51 366.16"><defs><style>.cls-1,.cls-8{fill:#92623e;}.cls-1,.cls-10,.cls-11,.cls-12,.cls-3,.cls-5{stroke:#000;stroke-miterlimit:10;}.cls-1,.cls-11,.cls-3,.cls-5{stroke-width:3px;}.cls-2{fill:#fbc93f;}.cls-3,.cls-9{fill:#ef9425;}.cls-4,.cls-5{fill:#8c5c34;}.cls-6{fill:#f09425;}.cls-7{fill:#f6b767;}.cls-10,.cls-11,.cls-12{fill:none;}.cls-10,.cls-12{stroke-width:4px;}.cls-12{stroke-linecap:round;}.cls-13{fill:#fff;}.cls-14{fill:#915d35;}</style></defs><title>g2</title><path class="cls-1" d="M457.78,102.33s9.3,11.46-2.18,17.65c0,0,9.39,6.19,8.87,11.8a12.72,12.72,0,0,1-7,10.25c-2.61,1.16,8.08,4.64,8.34,9.48s1.56,8.9-7.56,12c0,0,10.08,6.58,7.78,11.8s-1.26,6.19-10.38,9.87c0,0,12.06,4.45,10.72,11.8s-3.16,7.16-10.72,10.06c0,0,10.69,5.61,8.34,12.38s-9.3,9-9.3,9,9.56,5.8,7.21,11c0,0-.61,5.93-10.17,9.93,0,0,6.61,1.16,6.17,9.09s-3.56,10.9-12.08,13.42c0,0,8.52,7.8,3.48,13,0,0,.78,6.06-15,7.09,0,0,5.91,6.13,2.78,11.74s-8.26,7.22-12.6,7.8l-2.23.56L433.16,146l3.39-37.37.79-9.19Z" transform="translate(1.21 -20.67)"/><path class="cls-2" d="M.23,386.42c6.88-22,21.42-67.24,59.7-73.15,18.1-2.79,151.29-16.82,175.38-16.14s82.82-10.51,82.82-10.51c26.84-8.31,28.59-110.22,28.59-110.22s-47.83-.2-55.4-9.83S267.23,120.47,281,108.08s42.67-15.83,53-23.4,31.65-16.52,31.65-16.52-30.28-10.32-8.95-42.67c0,0,4.82-5.85,11.35,5.16S389,57.5,389,57.5s39.57,7.57,48.17,18.58c0,0,39.91-7.91,50.92-4.82s-11,34.75-19.61,36.47-23.4-2.41-23.4-2.41a152.7,152.7,0,0,1-2.75,23.74L440,140.43c4.82,194.06,1,246,1,246" transform="translate(1.21 -20.67)"/><polygon class="cls-3" points="396.08 36.56 403.65 39.49 408.73 30.19 401.16 27.26 396.08 36.56"/><path class="cls-4" d="M355.23,71.06s14.2,4.62,23.92,7.4c12.2,3.49,34,1.35,40.31-12.27,0,0-29.78-13.63-42.43-4.52C364.19,70.91,355.23,71.06,355.23,71.06Z" transform="translate(1.21 -20.67)"/><polygon class="cls-3" points="428.54 47.71 435.45 51.98 442.14 43.76 435.23 39.49 428.54 47.71"/><path class="cls-5" d="M432.8,50.3c-2.06,5.3,1.06,10.87,7,12.44s12.34-1.45,14.4-6.76-1.06-10.87-7-12.44S434.85,45,432.8,50.3Z" transform="translate(1.21 -20.67)"/><path class="cls-5" d="M398.23,36.07c-2.06,5.3,1.06,10.87,7,12.44s12.34-1.45,14.4-6.76-1.06-10.87-7-12.44S400.28,30.77,398.23,36.07Z" transform="translate(1.21 -20.67)"/><path class="cls-6" d="M274.22,115.41c1.17-3.67,5.87-9.3,6-9.42,3-2.9,8.38-4.21,14.39-5.25,0,0,31-1.27,48.26,16.87s18.4,29.36,16,37.09-8.64,16.88-15.16,18.42a18.26,18.26,0,0,1-3.94.23,215.93,215.93,0,0,1-29.45-1.56,89,89,0,0,1-19.71-5.41" transform="translate(1.21 -20.67)"/><polygon class="cls-6" points="294 146.15 279.78 121.1 277.75 97.69 278.82 95.19 296.02 142.86 294 146.15"/><circle class="cls-7" cx="403.22" cy="121.1" r="18.2"/><path class="cls-8" d="M338.76,285.4s12.74,20.29,21.08,18.55c27.6-5.78,11.07,17-8.53,26.53-8.87,4.33-23.14,5.51-23.87-1.38s-.5-32.62-.5-32.62Z" transform="translate(1.21 -20.67)"/><path class="cls-8" d="M314.21,289.78s5.21,7.07,2.46,14-9.29,15.48-10.67,19.61-11.35,10-25.46,3.1-15.83-14.56-24.09-16.74-12.12-11.49-12.12-11.49Z" transform="translate(1.21 -20.67)"/><path class="cls-8" d="M163.22,300s33.56-4.95,30.49,2.75-.06,33.25-20,34.62-61.35-8.57-63.65-14.76,2.79-5.11,10.21-9.45a36.46,36.46,0,0,0,11.21-10.09Z" transform="translate(1.21 -20.67)"/><path class="cls-8" d="M83.77,309.12s1,9.28,6.53,14.23,17.83,11.09,18.61,15,.74,6.82-8.33,8.67-20.29,3.2-27.43,2.62-19.88-4.82-22.37-6.31,1.2,1.38-2.49-1.49-9.3-6.22-8.4-9.37.77-10.21.77-10.21l11.26-5.1Z" transform="translate(1.21 -20.67)"/><path class="cls-8" d="M228.54,298.2s11.46,9,8.36,18.31-13.07,24.09-20,19.27S205.59,322,203.53,320s-3.78-9.29,0-11,15.83-10.32,15.83-10.32Z" transform="translate(1.21 -20.67)"/><path class="cls-8" d="M251.51,315.76s8.67,7.23,16,9.64a10,10,0,0,1,3.58,17.2c-6.19,5.51-11.7,13.76-21.68,9.63s-15.11-9.63-13.92-15.48,4.63-7.43,7-12.83,5.51-10.65,5.51-10.65Z" transform="translate(1.21 -20.67)"/><path class="cls-8" d="M200.77,330.17s9.63,6.88,8.6,11-9,12.9-10.84,12.13-8.08-5.59-9.46-9.72.34-8.79,2.06-11.1,3-4.73,4.6-5.76S200.77,330.17,200.77,330.17Z" transform="translate(1.21 -20.67)"/><path class="cls-9" d="M481,81.93s-12,14.22-37.54,10.32c0,0-1.45,5.73,2.91,6.88s21.1,2.06,22.48,0S481.25,88.82,481,81.93Z" transform="translate(1.21 -20.67)"/><path class="cls-9" d="M353,31.91" transform="translate(1.21 -20.67)"/><path class="cls-9" d="M356.57,34.18s-2.06,8.44,5.68,17.73l8.95,6.51L366,61.67s-8.07-7.52-9.71-10.1S352.78,40,356.57,34.18Z" transform="translate(1.21 -20.67)"/><path class="cls-7" d="M308.94,94.53" transform="translate(1.21 -20.67)"/><ellipse cx="387.3" cy="103.72" rx="9.73" ry="6.85" transform="translate(116.75 377.84) rotate(-62.32)"/><ellipse cx="353.25" cy="84.21" rx="7.91" ry="5.57" transform="translate(115.79 337.24) rotate(-62.32)"/><path class="cls-10" d="M440.93,394.43" transform="translate(1.21 -20.67)"/><path class="cls-4" d="M389.15,190.26s2.65,40.86,17.11,52,19.36,34.74,21.83,44.87,12.09,15.54,12.09,15.54S450,197,439.56,164.42C439.56,164.42,417.65,199.92,389.15,190.26Z" transform="translate(1.21 -20.67)"/><path class="cls-4" d="M349.42,178.78s-4.27,25.81,7.17,32.36c20.58,11.78,8.44,42.9-10.41,46.95-14.2,3.05-11.27,8.37-11.27,8.37Z" transform="translate(1.21 -20.67)"/><path class="cls-4" d="M444.33,327.58s-13.42-21.32-22.41-33.4-31.32-29-36.38-.45,1.64,36.31,10.73,50.9,14.94,23.32,28,13.61,15.68,0,15.68,0Z" transform="translate(1.21 -20.67)"/><path class="cls-11" d="M.23,386.42C14.13,337.49,34,309.7,85,310.26c18.31.2,126.27-15.6,150.35-14.91s82.82-10.51,82.82-10.51c26.84-8.31,28.59-110.22,28.59-110.22s-47.83-.2-55.4-9.83S267.23,118.68,281,106.3s42.67-15.83,53-23.4,31.65-16.52,31.65-16.52-30.28-10.32-8.95-42.67c0,0,4.82-5.85,11.35,5.16s21,26.84,21,26.84S428.6,63.29,437.2,74.3c0,0,39.91-7.91,50.92-4.82s-11,34.75-19.61,36.47-23.4-2.41-23.4-2.41a152.7,152.7,0,0,1-2.75,23.74L440,138.64c4.82,194.06,1,247.78,1,247.78" transform="translate(1.21 -20.67)"/><path class="cls-11" d="M353,30.12" transform="translate(1.21 -20.67)"/><path class="cls-11" d="M308.94,92.74" transform="translate(1.21 -20.67)"/><path class="cls-11" d="M440.93,386.42" transform="translate(1.21 -20.67)"/><line class="cls-12" x1="489.59" y1="31.52" x2="500.64" y2="22.99"/><line class="cls-12" x1="501.24" y1="44.26" x2="528.51" y2="31.9"/><line class="cls-12" x1="502.61" y1="60.19" x2="516.85" y2="58.05"/><line class="cls-12" x1="500.64" y1="76.13" x2="512.49" y2="79.7"/><line class="cls-7" x1="277.33" y1="95.19" x2="282.23" y2="124.45"/><path class="cls-11" d="M276.12,115.85c1.19-3.67,6-9.3,6.09-9.42,3-2.9,8.51-4.21,14.62-5.25,0,0,19.28-1.91,40.26,12.13,38,25.39,16.25,58.71,9.63,60.26a18.82,18.82,0,0,1-4,.23,222.6,222.6,0,0,1-29.91-1.56,91.4,91.4,0,0,1-20-5.41" transform="translate(1.21 -20.67)"/><ellipse class="cls-13" cx="385.95" cy="99.48" rx="2.82" ry="1.97" transform="translate(161.94 407.64) rotate(-70.04)"/><ellipse class="cls-13" cx="351.84" cy="81.47" rx="2.82" ry="1.97" transform="translate(144.02 355.32) rotate(-67.67)"/><path class="cls-14" d="M295,149.47s2.6,5.51,9.76,4.24c0,0-1.61,3.69-6.71,2.16C298,155.88,293.92,153.9,295,149.47Z" transform="translate(1.21 -20.67)"/><ellipse class="cls-14" cx="310.62" cy="115.85" rx="3.2" ry="1.48" transform="translate(113.02 360.48) rotate(-73.61)"/><ellipse class="cls-14" cx="300.27" cy="112.64" rx="3.2" ry="1.48" transform="translate(67.1 310.87) rotate(-63.61)"/></svg>