<svg id="레이어_1" data-name="레이어 1" xmlns="http://www.w3.org/2000/svg" viewBox="0 0 441.54 458.34"><defs><style>.cls-1{font-size:37px;font-family:Anton-Regular, Anton;}</style></defs><title>one_loop</title><text class="cls-1" transform="translate(384.5 256.71) rotate(104.17)">W</text><text class="cls-1" transform="matrix(-0.36, 0.93, -0.93, -0.36, 377.81, 281.88)">E</text><text class="cls-1" transform="matrix(-0.46, 0.89, -0.89, -0.46, 372.37, 296.01)">B</text><text class="cls-1" transform="translate(364.72 311.64) rotate(124.7)">W</text><text class="cls-1" transform="matrix(-0.65, 0.76, -0.76, -0.65, 349.43, 332.9)">I</text><text class="cls-1" transform="translate(344 339.38) rotate(134.77)">T</text><text class="cls-1" transform="matrix(-0.77, 0.64, -0.64, -0.77, 333.74, 349.75)">E</text><text class="cls-1" transform="matrix(-0.81, 0.59, -0.59, -0.81, 321.97, 359.48)"> </text><text class="cls-1" transform="matrix(-0.87, 0.5, -0.5, -0.87, 315.29, 364.89)">W</text><text class="cls-1" transform="translate(292.61 377.62) rotate(157.74)">O</text><text class="cls-1" transform="matrix(-0.96, 0.28, -0.28, -0.96, 276.12, 384.37)">R</text><text class="cls-1" transform="translate(259.32 389.22) rotate(170.02)">K</text><text class="cls-1" transform="matrix(-1, 0.07, -0.07, -1, 242.26, 392.22)">S</text><text class="cls-1" transform="translate(225.19 393.23) rotate(-179.43)"> </text><text class="cls-1" transform="translate(216.34 393.14) rotate(-176.33)"> </text><text class="cls-1" transform="translate(207.78 392.87) rotate(-171.16)">W</text><text class="cls-1" transform="translate(182.15 388.37) rotate(-163.26)">E</text><text class="cls-1" transform="translate(167.63 384.07) rotate(-157.52)">B</text><text class="cls-1" transform="translate(151.4 377.35) rotate(-151.46)">S</text><text class="cls-1" transform="matrix(-0.84, -0.54, 0.54, -0.84, 136.48, 369.04)">I</text><text class="cls-1" transform="translate(129.33 364.52) rotate(-142.91)">T</text><text class="cls-1" transform="matrix(-0.74, -0.67, 0.67, -0.74, 117.67, 355.73)">E</text><text class="cls-1" transform="matrix(-0.69, -0.73, 0.73, -0.69, 106.46, 345.36)"> </text><text class="cls-1" transform="translate(100.22 339.48) rotate(-127.49)">W</text><text class="cls-1" transform="translate(84.58 318.68) rotate(-119.91)">O</text><text class="cls-1" transform="matrix(-0.4, -0.92, 0.92, -0.4, 75.7, 303.23)">R</text><text class="cls-1" transform="translate(68.64 287.24) rotate(-107.7)">K</text><text class="cls-1" transform="matrix(-0.2, -0.98, 0.98, -0.2, 63.37, 270.71)">S</text><text class="cls-1" transform="matrix(-0.12, -0.99, 0.99, -0.12, 60.08, 253.96)"> </text><text class="cls-1" transform="matrix(0.24, -0.97, 0.97, 0.24, 60.1, 201.63)">W</text><text class="cls-1" transform="translate(66.79 176.46) rotate(-68.68)">E</text><text class="cls-1" transform="translate(72.23 162.33) rotate(-62.92)">B</text><text class="cls-1" transform="translate(79.88 146.71) rotate(-55.3)">W</text><text class="cls-1" transform="matrix(0.65, -0.76, 0.76, 0.65, 95.16, 125.44)">I</text><text class="cls-1" transform="matrix(0.7, -0.71, 0.71, 0.7, 100.6, 118.96)">T</text><text class="cls-1" transform="matrix(0.77, -0.64, 0.64, 0.77, 110.86, 108.6)">E</text><text class="cls-1" transform="matrix(0.81, -0.59, 0.59, 0.81, 122.63, 98.86)"> </text><text class="cls-1" transform="matrix(0.87, -0.5, 0.5, 0.87, 129.3, 93.45)">W</text><text class="cls-1" transform="matrix(0.93, -0.38, 0.38, 0.93, 151.99, 80.72)">O</text><text class="cls-1" transform="translate(168.48 73.97) rotate(-16.09)">R</text><text class="cls-1" transform="translate(185.28 69.12) rotate(-9.98)">K</text><text class="cls-1" transform="translate(202.34 66.12) rotate(-3.96)">S</text><text class="cls-1" transform="translate(219.41 65.11) rotate(0.57)"> </text><text class="cls-1" transform="translate(228.26 65.2) rotate(3.67)"> </text><text class="cls-1" transform="translate(236.82 65.47) rotate(8.84)">W</text><text class="cls-1" transform="translate(262.45 69.97) rotate(16.74)">E</text><text class="cls-1" transform="translate(276.97 74.27) rotate(22.48)">B</text><text class="cls-1" transform="matrix(0.88, 0.48, -0.48, 0.88, 293.2, 80.99)">S</text><text class="cls-1" transform="translate(308.12 89.31) rotate(33.02)">I</text><text class="cls-1" transform="translate(315.27 93.82) rotate(37.09)">T</text><text class="cls-1" transform="matrix(0.74, 0.67, -0.67, 0.74, 326.93, 102.62)">E</text><text class="cls-1" transform="translate(338.14 112.99) rotate(46.47)"> </text><text class="cls-1" transform="matrix(0.61, 0.79, -0.79, 0.61, 344.38, 118.87)">W</text><text class="cls-1" transform="translate(360.01 139.67) rotate(60.09)">O</text><text class="cls-1" transform="matrix(0.4, 0.92, -0.92, 0.4, 368.9, 155.11)">R</text><text class="cls-1" transform="translate(375.95 171.11) rotate(72.3)">K</text><text class="cls-1" transform="translate(381.22 187.63) rotate(78.31)">S</text></svg>