<svg id="레이어_1" data-name="레이어 1" xmlns="http://www.w3.org/2000/svg" viewBox="0 0 713.82 58.25"><defs><style>.cls-1{fill:#c01b1b;}</style></defs><title>red_line</title><path class="cls-1" d="M23.36,41.82h2.07c-1.31.16-3.27.29-5.51.38,21.72-.29,50.19-2.67,68.5-4.85,6.63-.37,12.51-1,13.11-1.51s-4.32-.54-11-.17c-1.47,0-3.19.11-4.26.11-9.58-.07-21.26.2-34.14.65l7.56-.09c-3.72.13-7.39.24-11.53.49l1.44.15c-12.82.22-30.33,1.51-39.12,2.86s-5.63,2.28,7.2,2.06Z" transform="translate(0 0)"/><path class="cls-1" d="M47.37,42.82c-7.67.19-15,.35-22.42.49l-1.46-.06.53.62.14-.05c6.86-1,18.21-1.9,28.66-2.7l3.73-.32a17.09,17.09,0,0,0,3.33-.56c.85-.37-2.43-.46-7.31-.21L47,40.33c-13.71.47-35.26,1.78-42.83,3.36-1.7.36-.18.59.21.87-.49.46,4.68.53,11.52.13S28.57,43.61,29,43.14L32.52,43l-2.74.32c1.91-.5,8.14-1,12.77-1.45l7-.53-4-.77-3.61.36c.28,0,.81.06.77.06-6.88.7-13.34,1.38-20.88,2l-9.47,1c-2.56.35-2.3.62.53.62l4.23,0H15.17c9.73-.37,20-.87,29.6-1.21A34.65,34.65,0,0,0,48.93,43C49.6,42.85,48.94,42.77,47.37,42.82Z" transform="translate(0 0)"/><path class="cls-1" d="M13.09,45.07c-1.58,0-3.1,0-5.34.19l-1,.14,3.09,0C12.1,45.37,13.24,45.2,13.09,45.07Z" transform="translate(0 0)"/><path class="cls-1" d="M6.8,45.39H5.51l.86,0,.25,0Z" transform="translate(0 0)"/><path class="cls-1" d="M431,17.39q45.1-2.46,90.42-5.11a8.69,8.69,0,0,0,1.9-.22,6.28,6.28,0,0,0-1.68,0c-30.19,1.75-60.22,3.45-90.28,5.09a11,11,0,0,0-2,.22A5.12,5.12,0,0,0,431,17.39Z" transform="translate(0 0)"/><path class="cls-1" d="M656.47,9.76c-.71.09-.68.16.06.15A23.93,23.93,0,0,0,659,9.76c.6-.08.57-.15-.07-.15A23.91,23.91,0,0,0,656.47,9.76Z" transform="translate(0 0)"/><path class="cls-1" d="M650.31,15.07c-4.21.35-8.21.7-11.76,1.09-.66.07-1.41.11-2,.12.25.09-.55.23-2.06.36-29.9,2.69-62.09,5-93.78,7.41a6.19,6.19,0,0,1-1.33.32,109.83,109.83,0,0,1-11.15,1l-3.45.15c-13.94.71-27.85,1.45-41.71,2.15-2.83.29-6.11.57-9.69.81-12,1.05-24,2.09-36.23,3.08.78,0,1.25.08,1.25.17-.22.23-3.06.57-6.38.77l-5,.32,14.42-.72,1.92-.08c5.27-.32,10.59-.65,16-1C506.59,27.94,551,24.38,595,20.71a23.81,23.81,0,0,1,2.5-.13c.43,0,.36.1-.45.18-27.72,2.81-51.67,5.73-83.05,8.38-37.34,3.16-74.22,6.15-112.51,9.07-40.08,2.47-77.12,5.28-118,8.19C228.33,50.33,176.18,53.63,122.17,57c-20.23,1.42-38.82,1.65-41.53.53-1.57-.68,3-1.7,11.25-2.72l-4.94.29-7.83.33c-7.41.3-13.75.37-17.76.18l-5.51-.2c-7.35-.57-19.21-.71-25.23-1.41l1.31-.49-1.42,0c-4.67,0-7.83-.2-8.94-.55l.42-.52c.94-.62,3.24-1.29,6.94-2-.14-.2.29-.43,1.25-.68-3.22-.31-4.76-.74-2.27-1.47-1.93,0-1.62-.26.66-.52.79-.09,1.73-.17,2.7-.24h0c-1.06-.06-1.38-.08-2.81-.14l-3,.11-9.48.41c-3.79.06-6.14,0-6.14,0-4.24-.62-4.24-.62-3.62-1L7,46.66l-4.5.1c-.95,0-1.6,0-1.6,0-.16-.19-.16-.19-.74-.23C0,46.42,0,46.34,0,46.34c1.86-.34,1.86-.34,1.9-.41.44-.09,1-.18,1-.18l3.42-.32,4.75.23,1-.24,1.11.17-.63-.18H15l-2.73,0c5.63-.27,5.63-.27,7.88-.41s4.34-.29,4.58-.31c-.2-.06-.21-.11-.21-.11L36.39,44l1.38.06a28.11,28.11,0,0,1,2.84-.25l3.08-.15.66-.07v0l2.59-.26.53-.06h0l11.2-1.14c1.82-.09,3.52-.15,5.12-.21h-1.5c-1,0-.1-.26-.62-.25C48.83,42,34.84,42.72,21,43.35a28.66,28.66,0,0,1-5.17.07c-.33-.14,1.43-.39,4-.57,27.89-2.77,62.22-4.74,91-5.68q11.35-.55,22.8-1.13l-1.1,0,5.93-.21.64,0-4.5-.08-3.11.09c-17.69.94-33.76,1.38-50.86,2.08-9.19.38-17.1.52-25.79.81-2.24.12-3.79.09-3.54-.07a24.89,24.89,0,0,1,4.51-.5c28.94-2,62-3.84,85.26-4.06,5.29-.32,10.39-.53,14.63-.58h.24l-3.27-.1c4-.17,6.08-.06,9.69-.17-.42-.11-.94-.21-1.36-.32,19.52-.95,40.6-2.36,58.69-2.89l2.09-.09c7.76-.76,15.6-1.52,24.82-2.12l-9.3.44c6.68-.59,13.32-1.11,20.48-1.54,19.4-1.16,41.15-1.87,51.47-1.45,37.59-2.44,75.23-4.86,112.73-7.43a23.52,23.52,0,0,1,4-.06c.21.11-1.07.3-3,.44-26.88,2.07-54.16,4-81.5,5.85,22.87-1.2,45.85-2.42,69.28-3.82l9-.61c3-.2,5.92-.35,8.87-.48,29.93-1.84,58.33-3.52,88.84-5.7,26.06-1.87,48.85-3.55,74.79-5.52C628.68,5.09,661.87,2.51,697.9.29c4.79-.33,9.24-.38,9.82-.11s-2.86.76-7.67,1.1C625,6.85,551.27,12.54,472.71,17.23l-25.1,1.49c.11,0,.21.07.21.11s-.77.37-2.09.58q14.13-.81,28.44-1.56c26.46-2,53-4,81.2-5.53,19.4-1.06,37-1.79,54.92-2.56C633,8.19,655.63,6.55,678.57,5a15.72,15.72,0,0,1,2.2-.07c.33,0-.16.13-1.08.21C663.93,6.46,647.78,7.75,631.48,9c2.58,0,4.13.19,3.94.47s-2.17.67-5.2,1l11.1-.66a15.84,15.84,0,0,1,4,0,16.09,16.09,0,0,1-4,.51L596.1,13.09C578,14.36,560,15.6,541.89,16.83a31.85,31.85,0,0,1,5.28.35h0l8.39-.54C606.71,12.7,659.07,9,711.9,5.94a8,8,0,0,1,1.91,0,6.17,6.17,0,0,1-1.71.22q-23.92,1.4-47.7,3h.07c.64,0,.77.06.07.15s-1.85.16-2.49.16-.67-.07-.08-.15c-29.53,1.93-58.83,4-87.74,6.18q40.33-2.58,80.63-4.95l8.81-.78a17,17,0,0,1,2.2-.05c.23,0-.36.14-1.19.21l-2.46.21c5.09-.29,9-.26,9,.08-.26.36-4.61.89-9.89,1.21q-21.21,1.4-42.32,2.72l-4.57.34-4.59.44Q642.71,13,675.38,11.3a15,15,0,0,1,3.51,0,12.67,12.67,0,0,1-3.33.43c-38.28,2.84-77.05,5.55-116,8.17C546.82,21.2,534,22.51,521,23.83l5-.29c42.35-2.61,78.19-6.29,119.18-9.11a10.35,10.35,0,0,1,2,0,4.52,4.52,0,0,1-1.62.22c-20,1.43-38.23,3.06-58.06,4.63-16.43,1.31-32.05,2.54-47.31,3.87,31.24-2.06,61.16-4.55,92.1-6.74,1.35-.11,2.71-.17,3.58-.16a3.44,3.44,0,0,1,.76-.13c3.86-.4,8.07-.78,12.38-1.14a16.87,16.87,0,0,1,2.31-.08C651.73,14.89,651.23,15,650.31,15.07ZM106.19,41.55l-.78,0,2.74,0,3.84.25ZM58.44,46.27h0l-2.21-.14Zm305.35-23c-16.44,1-32.71,1.89-49,2.59L326.7,25Q345.18,24.08,363.78,23.22ZM74,41.69c4.34,0,7.73.09,10.93.21,2.84-.23,5.81-.44,8.82-.61,8.09-.46,16-.88,23.74-1.27-1-.11.84-.2,1.79-.28l2.92-.22c-8.28.39-16.59.77-25,1.14C89.51,41,81.23,41.44,74,41.69ZM16.22,45.91l-.71,0L17,45.54Zm-2.41.58,1.19,0A2.46,2.46,0,0,1,13.81,46.49Zm10.9-.35c-.65,0-1,0-1.55,0Zm8.18,7L37,51.63,32.5,53.14Z" transform="translate(0 0)"/></svg>