<?xml version="1.0" encoding="UTF-8"?>
<svg width="40px" height="40px" viewBox="0 0 40 40" version="1.1" xmlns="http://www.w3.org/2000/svg" xmlns:xlink="http://www.w3.org/1999/xlink">
    <!-- Generator: Sketch 54 (76480) - https://sketchapp.com -->
    <title>icon/menu/ar_02</title>
    <desc>Created with Sketch.</desc>
    <g id="icon/menu/ar_02" stroke="none" stroke-width="1" fill="none" fill-rule="evenodd">
        <path d="M16.2666667,9 L16.2666667,10.8333333 L10.7692308,10.8333333 C10.2594295,10.8333333 9.84615385,11.243739 9.84615385,11.75 L9.84615385,16.2666667 L8,16.2666667 L8,11.75 C8,10.2312169 9.23982685,9 10.7692308,9 L16.2666667,9 Z M23.7333333,9 L29.2307692,9 C30.7601732,9 32,10.2312169 32,11.75 L32,16.2666667 L30.1538462,16.2666667 L30.1538462,11.75 C30.1538462,11.243739 29.7405705,10.8333333 29.2307692,10.8333333 L23.7333333,10.8333333 L23.7333333,9 Z M32,23.7333333 L32,28.25 C32,29.7687831 30.7601732,31 29.2307692,31 L23.7333333,31 L23.7333333,29.1666667 L29.2307692,29.1666667 C29.7405705,29.1666667 30.1538462,28.756261 30.1538462,28.25 L30.1538462,23.7333333 L32,23.7333333 Z M16.2666667,31 L10.7692308,31 C9.23982685,31 8,29.7687831 8,28.25 L8,23.7333333 L9.84615385,23.7333333 L9.84615385,28.25 C9.84615385,28.756261 10.2594295,29.1666667 10.7692308,29.1666667 L16.2666667,29.1666667 L16.2666667,31 Z" id="Combined-Shape" fill="#233F5F" fill-rule="nonzero"></path>
        <path d="M16.1684995,15 C16.3415025,15 16.4950404,15.0410876 16.6291178,15.123264 C16.7631951,15.2054405 16.8734829,15.3589784 16.9599844,15.5838823 L20.0350981,23.5117069 C20.1042993,23.7020103 20.1021368,23.8685232 20.0286105,24.0112507 C19.9550842,24.1539782 19.8361464,24.251291 19.6717935,24.3031919 C19.4987905,24.3550928 19.330115,24.3615803 19.1657621,24.3226546 C19.0014093,24.2837289 18.8803089,24.1561411 18.8024576,23.9398873 L17.9460968,21.6173331 L14.3519767,21.6173331 L13.4696656,23.9788128 C13.4004644,24.1777663 13.2901766,24.2967041 13.1387989,24.3356298 C12.9874213,24.3745555 12.8252334,24.3637429 12.6522303,24.3031919 C12.4878774,24.2426408 12.3711021,24.1496531 12.3019009,24.0242259 C12.2326997,23.8987987 12.2326997,23.7409358 12.3019009,23.5506324 L15.3899897,15.5838823 C15.4764912,15.3589784 15.5846165,15.2054405 15.7143688,15.123264 C15.8441211,15.0410876 15.9954964,15 16.1684995,15 Z M16.1555248,16.595945 C16.0690232,16.8814001 15.982523,17.1517133 15.8960215,17.4068927 C15.80952,17.6620722 15.7057197,17.9540105 15.5846176,18.2827162 L14.741232,20.5274194 L17.5568424,20.5274194 L16.7264319,18.2827162 C16.6053298,17.9540105 16.499367,17.6555847 16.4085404,17.38743 C16.3177139,17.1192753 16.2333761,16.8554496 16.1555248,16.595945 Z M24.5462466,15.0648758 C25.5064134,15.0648758 26.2546403,15.2854514 26.7909498,15.7266091 C27.3272592,16.1677669 27.5954099,16.8078685 27.5954099,17.6469333 L27.5954099,17.867511 C27.5954099,18.4816718 27.450522,18.9855356 27.1607419,19.3791175 C26.8709618,19.7726994 26.4665733,20.0603127 25.9475642,20.2419659 L27.6602857,23.4598063 C27.7554374,23.6328093 27.7748999,23.7928347 27.7186739,23.9398873 C27.6624479,24.0869399 27.5564852,24.1993902 27.4007824,24.2772416 C27.2277794,24.3464428 27.063429,24.3680678 26.9077262,24.3421174 C26.7520235,24.3161669 26.6309232,24.2166917 26.5444217,24.0436886 L24.7019485,20.4495685 C24.6327473,20.4668688 24.5613846,20.4755188 24.4878583,20.4755188 L22.5480715,20.4755188 L22.5480715,23.8101357 C22.5480715,24.000439 22.4810338,24.1388394 22.3469564,24.2253409 C22.2128791,24.3118424 22.0593412,24.3550925 21.8863382,24.3550925 C21.7133351,24.3550925 21.5619597,24.3118424 21.4322074,24.2253409 C21.3024552,24.1388394 21.23758,24.000439 21.23758,23.8101357 L21.23758,16.0250379 C21.23758,15.6617315 21.3089427,15.4108809 21.4516702,15.2724784 C21.5943977,15.134076 21.8560609,15.0648758 22.2366676,15.0648758 L24.5462466,15.0648758 Z M24.2737687,19.3726299 C24.9917313,19.3726299 25.5107326,19.2428796 25.8307882,18.983375 C26.1508439,18.7238705 26.3108693,18.3475945 26.3108693,17.8545359 L26.3108693,17.6728836 C26.3108693,17.1711748 26.1551689,16.7948988 25.8437634,16.5440444 C25.5323579,16.29319 25.0522817,16.1677647 24.4035203,16.1677647 L22.548072,16.1677647 L22.548072,19.3726299 L24.2737687,19.3726299 Z" id="AR" stroke="#233F5F" stroke-width="0.5" fill="#233F5F" fill-rule="nonzero"></path>
    </g>
</svg>