<?xml version="1.0" encoding="UTF-8"?>
<svg width="40px" height="40px" viewBox="0 0 40 40" version="1.1" xmlns="http://www.w3.org/2000/svg" xmlns:xlink="http://www.w3.org/1999/xlink">
    <!-- Generator: Sketch 54 (76480) - https://sketchapp.com -->
    <title>icon/menu/M_map</title>
    <desc>Created with Sketch.</desc>
    <g id="icon/menu/M_map" stroke="none" stroke-width="1" fill="none" fill-rule="evenodd">
        <path d="M22.0002367,26.8147793 C22.3594056,27.2993206 22.7505652,27.7913884 23.1735765,28.2906898 C23.3251819,28.4696423 23.4766516,28.6444676 23.6271542,28.8147793 L9,28.8147793 C8.44771525,28.8147793 8,28.367064 8,27.8147793 C8,27.2624945 8.44771525,26.8147793 9,26.8147793 L22.0002367,26.8147793 Z M24.5456082,29.8147793 C25.3770239,30.6868478 26.1172071,31.3789004 26.6024134,31.8147793 L6,31.8147793 C5.44771525,31.8147793 5,31.367064 5,30.8147793 C5,30.2624945 5.44771525,29.8147793 6,29.8147793 L24.5456082,29.8147793 Z M23.4204888,11.7142618 C22.7825617,12.0623227 22.195158,12.4842637 21.6710279,12.9716994 L17,10 L9.43481137,14.8129592 L20.1844059,14.8129592 C19.8197535,15.4273953 19.5306333,16.0967596 19.3293507,16.8129592 L9.43481137,16.8129592 C8.75092695,16.8129592 8.11445476,16.4635216 7.74736193,15.8865114 C7.1544554,14.9545588 7.42930654,13.7184162 8.36125913,13.1255097 L15.9264478,8.31255057 C16.5814859,7.89581648 17.4185141,7.89581648 18.0735522,8.31255057 L23.4204888,11.7142618 Z M10,18.8147793 C10,18.2624945 10.4477153,17.8147793 11,17.8147793 C11.5522847,17.8147793 12,18.2624945 12,18.8147793 L12,24.8147793 C12,25.367064 11.5522847,25.8147793 11,25.8147793 C10.4477153,25.8147793 10,25.367064 10,24.8147793 L10,18.8147793 Z M16,18.8147793 C16,18.2624945 16.4477153,17.8147793 17,17.8147793 C17.5522847,17.8147793 18,18.2624945 18,18.8147793 L18,24.8147793 C18,25.367064 17.5522847,25.8147793 17,25.8147793 C16.4477153,25.8147793 16,25.367064 16,24.8147793 L16,18.8147793 Z" id="Combined-Shape" fill="#233F5F" fill-rule="nonzero"></path>
        <g id="Group" transform="translate(19.000000, 10.000000)" fill="#233F5F" fill-rule="nonzero">
            <g id="Group-Copy">
                <path d="M8.38913603,6.6318375 C6.71790441,6.6318375 5.35822151,8.01871406 5.35822151,9.72337031 C5.35822151,11.4280266 6.71790441,12.8149031 8.38913603,12.8149031 C10.0603676,12.8149031 11.4200506,11.4280266 11.4200506,9.72337031 C11.4200506,8.01871406 10.0604182,6.6318375 8.38913603,6.6318375 Z M8.38913603,10.7538984 C7.83205882,10.7538984 7.37881434,10.2915891 7.37881434,9.72337031 C7.37881434,9.15515156 7.83205882,8.69284219 8.38913603,8.69284219 C8.94621324,8.69284219 9.39945772,9.15515156 9.39945772,9.72337031 C9.39945772,10.2915891 8.94626379,10.7538984 8.38913603,10.7538984 Z" id="Shape"></path>
                <path d="M8.42509191,2.4 C4.52550092,2.4 1.35294118,5.6344125 1.35294118,9.6100875 L1.35294118,9.79937344 C1.35294118,11.7991219 2.45632813,14.1045328 4.63246783,16.6515141 C6.18813879,18.4723406 7.72561121,19.7448 7.7903171,19.7980641 L8.42499081,20.3208562 L9.05966452,19.7980641 C9.1243704,19.7448 10.6618428,18.4722891 12.2175138,16.6515141 C14.393704,14.1045328 15.4970404,11.7991219 15.4970404,9.79937344 L15.4970404,9.6100875 C15.4972426,5.6344125 12.3247335,2.4 8.42509191,2.4 Z M13.4766498,9.79937344 C13.4766498,12.4867078 10.2643566,15.9680016 8.42842831,17.6388844 C7.86922794,17.1276937 7.01111673,16.2983625 6.15588695,15.2974312 C4.3357307,13.1671266 3.37358456,11.2659141 3.37358456,9.79937344 L3.37358456,9.6100875 C3.37358456,6.77090156 5.63970588,4.46105625 8.42509191,4.46105625 C11.2104779,4.46105625 13.4765993,6.77090156 13.4765993,9.6100875 L13.4765993,9.79937344 L13.4766498,9.79937344 Z" id="Shape"></path>
            </g>
        </g>
    </g>
</svg>