<?xml version="1.0" encoding="UTF-8"?>
<svg width="40px" height="40px" viewBox="0 0 40 40" version="1.1" xmlns="http://www.w3.org/2000/svg" xmlns:xlink="http://www.w3.org/1999/xlink">
    <!-- Generator: Sketch 54 (76480) - https://sketchapp.com -->
    <title>icon/menu/M_map</title>
    <desc>Created with Sketch.</desc>
    <g id="icon/menu/M_map" stroke="none" stroke-width="1" fill="none" fill-rule="evenodd">
        <g id="Group" transform="translate(8.000000, 8.000000)" fill="#233F5F">
            <path d="M16.9807656,4.52653125 C15.5602188,4.52653125 14.4044883,5.68226172 14.4044883,7.10280859 C14.4044883,8.52335547 15.5602188,9.67908594 16.9807656,9.67908594 C18.4013125,9.67908594 19.557043,8.52335547 19.557043,7.10280859 C19.557043,5.68226172 18.4013555,4.52653125 16.9807656,4.52653125 Z M16.9807656,7.96158203 C16.50725,7.96158203 16.1219922,7.57632422 16.1219922,7.10280859 C16.1219922,6.62929297 16.50725,6.24403516 16.9807656,6.24403516 C17.4542813,6.24403516 17.8395391,6.62929297 17.8395391,7.10280859 C17.8395391,7.57632422 17.4543242,7.96158203 16.9807656,7.96158203 Z" id="Shape" fill-rule="nonzero"></path>
            <path d="M17.0113281,1 C13.6966758,1 11,3.69534375 11,7.00840625 L11,7.16614453 C11,8.83260156 11.9378789,10.7537773 13.7875977,12.8762617 C15.109918,14.3936172 16.4167695,15.454 16.4717695,15.4983867 L17.0112422,15.9340469 L17.5507148,15.4983867 C17.6057148,15.454 18.9125664,14.3935742 20.2348867,12.8762617 C22.0846484,10.7537773 23.0224844,8.83260156 23.0224844,7.16614453 L23.0224844,7.00840625 C23.0226563,3.69534375 20.3260234,1 17.0113281,1 Z M21.3051523,7.16614453 C21.3051523,9.40558984 18.5747031,12.306668 17.0141641,13.6990703 C16.5388438,13.2730781 15.8094492,12.5819688 15.0825039,11.7478594 C13.5353711,9.97260547 12.7175469,8.38826172 12.7175469,7.16614453 L12.7175469,7.00840625 C12.7175469,4.64241797 14.64375,2.71754688 17.0113281,2.71754688 C19.3789063,2.71754688 21.3051094,4.64241797 21.3051094,7.00840625 L21.3051094,7.16614453 L21.3051523,7.16614453 Z" id="Shape" fill-rule="nonzero"></path>
            <path d="M19,17.3391719 L19,20 L24,20 L24,22 L0,22 L0,20 L5,20 L5,9 L1,9 L1,7 L12,1.77635684e-15 L12.5712139,0.363499762 C11.2950535,1.22078809 10.2767154,2.43325847 9.65911779,3.85806676 L4.72179413,7 L9.00013278,7 C9.0000443,7.01551916 9,7.0310486 9,7.04658818 L9,7.25783471 C9,7.81748142 9.07898306,8.39857916 9.23639928,9 L7,9 L7,20 L11,20 L11,12.6711411 C11.4889333,13.3953098 12.0668966,14.140376 12.7332113,14.9049477 C12.8222635,15.0071345 12.9112632,15.1077738 13,15.2067703 L13,20 L17,20 L17,18.9593098 L17.0503861,19 L17.7728596,18.4165545 C17.8108931,18.3858602 18.2959266,17.9923679 19,17.3391719 Z" id="Combined-Shape"></path>
        </g>
    </g>
</svg>