<?xml version="1.0" encoding="UTF-8"?>
<svg width="40px" height="40px" viewBox="0 0 40 40" version="1.1" xmlns="http://www.w3.org/2000/svg" xmlns:xlink="http://www.w3.org/1999/xlink">
    <!-- Generator: Sketch 54 (76480) - https://sketchapp.com -->
    <title>icon/menu/map</title>
    <desc>Created with Sketch.</desc>
    <g id="icon/menu/map" stroke="none" stroke-width="1" fill="none" fill-rule="evenodd">
        <g id="map" transform="translate(9.000000, 9.000000)" fill="#233F5F" fill-rule="nonzero">
            <path d="M15.9807656,3.52653125 C14.5602187,3.52653125 13.4044883,4.68226172 13.4044883,6.10280859 C13.4044883,7.52335547 14.5602187,8.67908594 15.9807656,8.67908594 C17.4013125,8.67908594 18.557043,7.52335547 18.557043,6.10280859 C18.557043,4.68226172 17.4013555,3.52653125 15.9807656,3.52653125 Z M15.9807656,6.96158203 C15.50725,6.96158203 15.1219922,6.57632422 15.1219922,6.10280859 C15.1219922,5.62929297 15.50725,5.24403516 15.9807656,5.24403516 C16.4542812,5.24403516 16.8395391,5.62929297 16.8395391,6.10280859 C16.8395391,6.57632422 16.4543242,6.96158203 15.9807656,6.96158203 Z" id="Shape"></path>
            <path d="M15.9807656,0.00700390625 C12.6661133,0.00700390625 9.9694375,2.70234766 9.9694375,6.01541016 L9.9694375,6.17314844 C9.9694375,7.83960547 10.9073164,9.76078125 12.7570352,11.8832656 C14.0793555,13.4006211 15.386207,14.4610039 15.441207,14.5053906 L15.9806797,14.9410508 L16.5201523,14.5053906 C16.5751523,14.4610039 17.8820039,13.4005781 19.2043242,11.8832656 C21.0540859,9.76078125 21.9919219,7.83960547 21.9919219,6.17314844 L21.9919219,6.01541016 C21.9920937,2.70234766 19.2954609,0.00700390625 15.9807656,0.00700390625 Z M20.2745898,6.17314844 C20.2745898,8.41259375 17.5441406,11.3136719 15.9836016,12.7060742 C15.5082813,12.280082 14.7788867,11.5889727 14.0519414,10.7548633 C12.5048086,8.97960938 11.6869844,7.39526563 11.6869844,6.17314844 L11.6869844,6.01541016 C11.6869844,3.64942188 13.6131875,1.72455078 15.9807656,1.72455078 C18.3483438,1.72455078 20.2745469,3.64942188 20.2745469,6.01541016 L20.2745469,6.17314844 L20.2745898,6.17314844 Z" id="Shape"></path>
            <path d="M20.4992734,13.011625 C20.4241641,13.0978633 20.3493125,13.1822539 20.2745898,13.2655273 L20.2745898,19.844043 L15.2508555,18.6920937 L15.2508555,16.559125 L14.9017773,16.277293 L14.3623047,15.8417188 C14.2948437,15.7872773 13.9828477,15.5324297 13.5332656,15.1230234 L13.5332656,18.7077773 L8.46660547,19.9905234 L8.46660547,3.33772656 L8.75965234,3.26167188 C9.05067969,2.50164062 9.45849609,1.79888672 9.96105859,1.17549609 L7.59786328,1.78874609 L0.00786328125,0 L0.00786328125,20.0907266 L7.60985156,21.9791172 L14.4020508,20.2595938 L21.9920937,22 L21.9920937,11.0704687 C21.5706992,11.7057617 21.071875,12.3546758 20.4992734,13.011625 Z M6.74910156,19.9955078 L1.72536719,18.7475664 L1.72536719,2.16932031 L6.74910156,3.35323828 L6.74910156,19.9955078 Z" id="Shape"></path>
        </g>
    </g>
</svg>