<?xml version="1.0" encoding="UTF-8"?>
<svg width="40px" height="40px" viewBox="0 0 40 40" version="1.1" xmlns="http://www.w3.org/2000/svg" xmlns:xlink="http://www.w3.org/1999/xlink">
    <!-- Generator: Sketch 54 (76480) - https://sketchapp.com -->
    <title>icon/menu/M_map Copy</title>
    <desc>Created with Sketch.</desc>
    <g id="icon/menu/M_map-Copy" stroke="none" stroke-width="1" fill="none" fill-rule="evenodd">
        <path d="M18.5,26.8147793 L18.5,28.8147793 L9,28.8147793 C8.44771525,28.8147793 8,28.367064 8,27.8147793 C8,27.2624945 8.44771525,26.8147793 9,26.8147793 L18.5,26.8147793 Z M18.539866,29.8147793 C18.6765624,30.6463386 19.1551934,31.3627301 19.8265848,31.8147793 L6,31.8147793 C5.44771525,31.8147793 5,31.367064 5,30.8147793 C5,30.2624945 5.44771525,29.8147793 6,29.8147793 L18.539866,29.8147793 Z M23.0366315,11.4700525 L22.5302929,11.7748626 C22.0816525,12.0449392 21.7250292,12.4178045 21.4773664,12.8484923 L17,10 L9.43481137,14.8129592 L21.114047,14.8129592 C21.1375033,14.9610315 21.172317,15.1088184 21.2189158,15.255185 L21.5,16.1380682 L21.5,16.8129592 L9.43481137,16.8129592 C8.75092695,16.8129592 8.11445476,16.4635216 7.74736193,15.8865114 C7.1544554,14.9545588 7.42930654,13.7184162 8.36125913,13.1255097 L15.9264478,8.31255057 C16.5814859,7.89581648 17.4185141,7.89581648 18.0735522,8.31255057 L23.0366315,11.4700525 Z M10,18.8147793 C10,18.2624945 10.4477153,17.8147793 11,17.8147793 C11.5522847,17.8147793 12,18.2624945 12,18.8147793 L12,24.8147793 C12,25.367064 11.5522847,25.8147793 11,25.8147793 C10.4477153,25.8147793 10,25.367064 10,24.8147793 L10,18.8147793 Z M16,18.8147793 C16,18.2624945 16.4477153,17.8147793 17,17.8147793 C17.5522847,17.8147793 18,18.2624945 18,18.8147793 L18,24.8147793 C18,25.367064 17.5522847,25.8147793 17,25.8147793 C16.4477153,25.8147793 16,25.367064 16,24.8147793 L16,18.8147793 Z" id="Combined-Shape" fill="#233F5F" fill-rule="nonzero"></path>
        <g id="Group-2" transform="translate(21.000000, 12.000000)">
            <path d="M2.815556,4.401619 C2.75353003,4.62128788 2.72182857,4.84751319 2.72182857,5.07747127 C2.72182857,6.63852822 4.18490614,7.94153377 6.02954286,7.94153377 C7.87434686,7.94153377 9.33682857,6.63877378 9.33682857,5.07747127 C9.33682857,4.84731997 9.30522567,4.62109767 9.24337778,4.401619 L2.815556,4.401619 Z" id="Fill-1" stroke="#233F5F" stroke-width="1.5"></path>
            <path d="M8.6964,2.05142045 C8.6964,2.14176136 8.62268571,2.21548295 8.5314,2.21548295 L7.24954286,2.21548295 C7.15868571,2.21548295 7.08454286,2.14176136 7.08454286,2.05142045 L7.08454286,1.50767045 C7.08454286,1.45909091 7.1064,1.41306818 7.14368571,1.38196023 L7.8264,0.811789773 C7.89197143,0.756818182 7.98882857,0.761079545 8.04882857,0.821164773 L8.6484,1.41732955 C8.67925714,1.44801136 8.6964,1.48977273 8.6964,1.53323864 L8.6964,2.05142045 Z M10.3922571,0.938778409 L7.48482857,0.009375 C7.46468571,0.00255681818 7.44325714,-1.77635684e-15 7.42182857,-1.77635684e-15 L4.31382857,-1.77635684e-15 C4.28254286,-1.77635684e-15 4.25168571,0.00681818182 4.2234,0.0204545455 L1.49554286,1.35553977 C1.38411429,1.41008523 1.34682857,1.54943182 1.41582857,1.65213068 L2.20482857,2.8265625 C2.24254286,2.88323864 2.30682857,2.91732955 2.3754,2.91732955 L10.0116857,2.91732955 C10.1098286,2.91732955 10.1938286,2.84872159 10.2131143,2.75326705 L10.5306857,1.17272727 C10.5508286,1.07088068 10.4912571,0.9703125 10.3922571,0.938778409 L10.3922571,0.938778409 Z" id="Fill-3" fill="#233F5F"></path>
            <polygon id="Fill-5" fill="#233F5F" points="6.05005714 10.9927128 3.11777143 8.53859343 3.11777143 11.4951275 4.31777143 12.5643037 6.04105714 11.0272298 7.76091429 12.5613207 8.96477143 11.4951275 8.96477143 8.53859343"></polygon>
            <polygon id="Fill-7" fill="#233F5F" points="7 14.9617898 10.4345714 14.9617898 10.4345714 14 7 14"></polygon>
            <path d="M3.29614286,9.21823832 L1.93414286,9.21823832 C0.866142857,9.21823832 -1.52766688e-13,10.0794599 -1.52766688e-13,11.142244 L-1.52766688e-13,16.5967895 C-1.52766688e-13,17.6595735 0.866142857,18.5207951 1.93414286,18.5207951 L10.3148571,18.5207951 C11.3832857,18.5207951 12.2494286,17.6595735 12.2494286,16.5967895 L12.2494286,11.142244 C12.2494286,10.0794599 11.3832857,9.21823832 10.3148571,9.21823832 L8.95285714,9.21823832" id="Stroke-14" stroke="#233F5F" stroke-width="2" stroke-linejoin="round"></path>
        </g>
    </g>
</svg>