<?xml version="1.0" encoding="UTF-8"?>
<svg width="40px" height="40px" viewBox="0 0 40 40" version="1.1" xmlns="http://www.w3.org/2000/svg" xmlns:xlink="http://www.w3.org/1999/xlink">
    <!-- Generator: Sketch 54 (76480) - https://sketchapp.com -->
    <title>icon/menu/notice</title>
    <desc>Created with Sketch.</desc>
    <g id="icon/menu/notice" stroke="none" stroke-width="1" fill="none" fill-rule="evenodd">
        <g id="file" transform="translate(9.000000, 9.000000)" fill="#233F5F" fill-rule="nonzero">
            <rect id="Rectangle" x="7.734375" y="14.609375" width="5.2421875" height="1.71875"></rect>
            <rect id="Rectangle" x="7.734375" y="11.171875" width="9.96875" height="1.71875"></rect>
            <path d="M19.421875,3.4375 L18.5625,3.4375 L18.5625,2.578125 C18.5625,1.15654687 17.4059531,0 15.984375,0 L2.578125,0 C1.15654688,0 0,1.15654688 0,2.578125 L0,15.984375 C0,17.4059531 1.15654688,18.5625 2.578125,18.5625 L3.4375,18.5625 L3.4375,19.421875 C3.4375,20.8434531 4.59404688,22 6.015625,22 L15.8910469,22 L22,15.8616992 L22,6.015625 C22,4.59404688 20.8434531,3.4375 19.421875,3.4375 Z M3.4375,6.015625 L3.4375,16.84375 L2.578125,16.84375 C2.10426563,16.84375 1.71875,16.4582344 1.71875,15.984375 L1.71875,2.578125 C1.71875,2.10426563 2.10426563,1.71875 2.578125,1.71875 L15.984375,1.71875 C16.4582344,1.71875 16.84375,2.10426563 16.84375,2.578125 L16.84375,3.4375 L6.015625,3.4375 C4.59404688,3.4375 3.4375,4.59404688 3.4375,6.015625 Z M16.409293,19.0427617 L16.409293,17.2256992 C16.409293,16.7518398 16.7948086,16.3663242 17.268668,16.3663242 L19.0729258,16.3663242 L16.409293,19.0427617 Z M20.28125,14.6475742 L17.268668,14.6475742 C15.8470898,14.6475742 14.690543,15.8041211 14.690543,17.2256992 L14.690543,20.28125 L6.015625,20.28125 C5.54176563,20.28125 5.15625,19.8957344 5.15625,19.421875 L5.15625,6.015625 C5.15625,5.54176563 5.54176563,5.15625 6.015625,5.15625 L19.421875,5.15625 C19.8957344,5.15625 20.28125,5.54176563 20.28125,6.015625 L20.28125,14.6475742 Z" id="Shape"></path>
            <rect id="Rectangle" x="7.734375" y="7.734375" width="9.96875" height="1.71875"></rect>
        </g>
    </g>
</svg>