<?xml version="1.0" encoding="UTF-8"?>
<svg width="40px" height="40px" viewBox="0 0 40 40" version="1.1" xmlns="http://www.w3.org/2000/svg" xmlns:xlink="http://www.w3.org/1999/xlink">
    <!-- Generator: Sketch 54 (76480) - https://sketchapp.com -->
    <title>icon/menu/recommend</title>
    <desc>Created with Sketch.</desc>
    <g id="icon/menu/recommend" stroke="none" stroke-width="1" fill="none" fill-rule="evenodd">
        <g id="distance" transform="translate(6.000000, 6.000000)" fill="#233F5F">
            <path d="M23.0783438,0.000546875 C20.967625,0.000546875 19.2503828,1.71915625 19.2503828,3.83157031 L19.2503828,3.91540625 C19.2503828,4.95928125 19.8007031,6.1210625 20.8860859,7.36859375 C21.6240391,8.21674219 22.3595859,8.81458594 22.3905391,8.83963281 L23.0783438,9.39596875 L23.7662031,8.83963281 C23.7971563,8.81458594 24.5327031,8.21674219 25.2706563,7.36859375 C26.3560391,6.1210625 26.9063594,4.95922656 26.9063594,3.91540625 L26.9063594,3.83157031 C26.9063047,1.71915625 25.1890625,0.000546875 23.0783438,0.000546875 Z M24.7188594,3.91540625 C24.7188594,4.6283125 23.8981094,5.70374219 23.0788359,6.51650781 C22.2681484,5.70888281 21.4377188,4.6221875 21.4377188,3.91540625 L21.4377188,3.83157031 C21.4377188,2.92528906 22.1736484,2.1879375 23.0782891,2.1879375 C23.982875,2.1879375 24.7188594,2.92523437 24.7188594,3.83157031 L24.7188594,3.91540625 L24.7188594,3.91540625 Z" id="Shape" fill-rule="nonzero"></path>
            <path d="M7.65592187,5.19115625 C5.84669531,5.19115625 4.37478125,6.66307031 4.37478125,8.47229688 C4.37478125,10.2815234 5.84669531,11.7533828 7.65592187,11.7533828 C9.46514844,11.7533828 10.9370625,10.2814688 10.9370625,8.47229688 C10.9370625,6.663125 9.46514844,5.19115625 7.65592187,5.19115625 Z M7.65592188,9.56599219 C7.05282813,9.56599219 6.56222656,9.07533594 6.56222656,8.47229688 C6.56222656,7.86920313 7.05288281,7.37860156 7.65592188,7.37860156 C8.25896094,7.37860156 8.74961719,7.86925781 8.74961719,8.47229688 C8.74961719,9.07533594 8.25901562,9.56599219 7.65592188,9.56599219 Z" id="Shape" fill-rule="nonzero"></path>
            <path d="M7.65592188,0.708804688 C3.43442969,0.708804688 0,4.14153906 0,8.36100781 L0,8.561875 C0,10.6842422 1.19448438,13.1310703 3.55025781,15.8342188 C5.23435938,17.7666563 6.89871875,19.1172188 6.96877344,19.1737109 L7.65592188,19.7285703 L8.34296094,19.1737109 C8.41301563,19.1171641 10.0774297,17.7666563 11.7614766,15.8342188 C14.1173047,13.1310703 15.3117891,10.6842969 15.3117891,8.561875 L15.3117891,8.36100781 C15.3118984,4.14153906 11.8774141,0.708804688 7.65592188,0.708804688 Z M13.1244531,8.561875 C13.1244531,11.4139922 9.64698438,15.1087891 7.65947656,16.8821406 C7.05408594,16.3395859 6.12516406,15.4593906 5.19935938,14.3970859 C3.22891406,12.1361406 2.18739063,10.1183359 2.18739063,8.561875 L2.18739063,8.36100781 C2.18739063,5.34767187 4.6405625,2.89619531 7.65592188,2.89619531 C10.6712813,2.89619531 13.1244531,5.34767187 13.1244531,8.36100781 L13.1244531,8.561875 Z" id="Shape" fill-rule="nonzero"></path>
            <circle id="Oval" cx="26.90625" cy="18.7028516" r="1.09369531"></circle>
            <circle id="Oval" cx="26.90625" cy="22.476125" r="1.09369531"></circle>
            <circle id="Oval" cx="26.90625" cy="26.2494531" r="1.09369531"></circle>
            <circle id="Oval" cx="19.2503281" cy="11.1563047" r="1.09369531"></circle>
            <circle id="Oval" cx="23.0782891" cy="18.7028516" r="1.09369531"></circle>
            <circle id="Oval" cx="23.0782891" cy="11.1563047" r="1.09369531"></circle>
            <circle id="Oval" cx="19.2503281" cy="18.7028516" r="1.09369531"></circle>
            <circle id="Oval" cx="19.2503281" cy="14.9295781" r="1.09369531"></circle>
            <circle id="Oval" cx="23.0782891" cy="26.2494531" r="1.09369531"></circle>
            <circle id="Oval" cx="19.2503281" cy="26.2494531" r="1.09369531"></circle>
            <circle id="Oval" cx="15.4223125" cy="26.2494531" r="1.09369531"></circle>
            <circle id="Oval" cx="11.5943516" cy="26.2494531" r="1.09369531"></circle>
            <circle id="Oval" cx="7.76639063" cy="26.2494531" r="1.09369531"></circle>
            <circle id="Oval" cx="7.76639063" cy="22.476125" r="1.09369531"></circle>
        </g>
    </g>
</svg>