<?xml version="1.0" encoding="UTF-8"?>
<svg width="40px" height="40px" viewBox="0 0 40 40" version="1.1" xmlns="http://www.w3.org/2000/svg" xmlns:xlink="http://www.w3.org/1999/xlink">
    <!-- Generator: Sketch 54 (76480) - https://sketchapp.com -->
    <title>icon/menu/notice copy</title>
    <desc>Created with Sketch.</desc>
    <g id="icon/menu/notice-copy" stroke="none" stroke-width="1" fill="none" fill-rule="evenodd">
        <g id="Group" transform="translate(8.000000, 8.000000)" fill="#233F5F" fill-rule="nonzero">
            <path d="M5,10.8147793 L5,16.8147793 C5,17.367064 5.44771525,17.8147793 6,17.8147793 L6,17.8147793 C6.55228475,17.8147793 7,17.367064 7,16.8147793 L7,10.8147793 C7,10.2624945 6.55228475,9.8147793 6,9.8147793 L6,9.8147793 C5.44771525,9.8147793 5,10.2624945 5,10.8147793 Z" id="Stroke-10"></path>
            <path d="M11,10.8147793 L11,16.8147793 C11,17.367064 11.4477153,17.8147793 12,17.8147793 L12,17.8147793 C12.5522847,17.8147793 13,17.367064 13,16.8147793 L13,10.8147793 C13,10.2624945 12.5522847,9.8147793 12,9.8147793 L12,9.8147793 C11.4477153,9.8147793 11,10.2624945 11,10.8147793 Z" id="Stroke-11"></path>
            <path d="M17,10.8147793 L17,16.8147793 C17,17.367064 17.4477153,17.8147793 18,17.8147793 L18,17.8147793 C18.5522847,17.8147793 19,17.367064 19,16.8147793 L19,10.8147793 C19,10.2624945 18.5522847,9.8147793 18,9.8147793 L18,9.8147793 C17.4477153,9.8147793 17,10.2624945 17,10.8147793 Z" id="Stroke-11-Copy"></path>
            <path d="M4,20.8147793 L20,20.8147793 C20.5522847,20.8147793 21,20.367064 21,19.8147793 L21,19.8147793 C21,19.2624945 20.5522847,18.8147793 20,18.8147793 L4,18.8147793 C3.44771525,18.8147793 3,19.2624945 3,19.8147793 L3,19.8147793 C3,20.367064 3.44771525,20.8147793 4,20.8147793 Z" id="Stroke-12"></path>
            <path d="M1,23.8147793 L23,23.8147793 C23.5522847,23.8147793 24,23.367064 24,22.8147793 L24,22.8147793 C24,22.2624945 23.5522847,21.8147793 23,21.8147793 L1,21.8147793 C0.44771525,21.8147793 -6.76353751e-17,22.2624945 0,22.8147793 L0,22.8147793 C6.76353751e-17,23.367064 0.44771525,23.8147793 1,23.8147793 Z" id="Stroke-13"></path>
            <path d="M3.36125913,5.12550972 C2.42930654,5.71841625 2.1544554,6.9545588 2.74736193,7.88651139 C3.11445476,8.46352157 3.75092695,8.81295915 4.43481137,8.81295915 L19.5651886,8.81295915 C20.6697581,8.81295915 21.5651886,7.91752865 21.5651886,6.81295915 C21.5651886,6.12907474 21.2157511,5.49260254 20.6387409,5.12550972 L13.0735522,0.312550567 C12.4185141,-0.104183522 11.5814859,-0.104183522 10.9264478,0.312550567 L3.36125913,5.12550972 Z M19.5651886,6.81295915 L4.43481137,6.81295915 L12,2 L19.5651886,6.81295915 Z" id="Path-6"></path>
        </g>
    </g>
</svg>