<?xml version="1.0" encoding="UTF-8"?>
<svg width="40px" height="40px" viewBox="0 0 40 40" version="1.1" xmlns="http://www.w3.org/2000/svg" xmlns:xlink="http://www.w3.org/1999/xlink">
    <!-- Generator: Sketch 54 (76480) - https://sketchapp.com -->
    <title>icon/menu/special</title>
    <desc>Created with Sketch.</desc>
    <g id="icon/menu/special" stroke="none" stroke-width="1" fill="none" fill-rule="evenodd">
        <g id="medal" transform="translate(11.000000, 9.000000)" fill="#233F5F" fill-rule="nonzero">
            <path d="M16.8669537,7.00883313 L16.1541895,6.08154081 C16.1495009,6.00280677 16.1509605,5.8856346 16.1519337,5.80778522 C16.1525529,5.75992554 16.1530837,5.71317167 16.1530837,5.66836405 L16.1530837,4.42847991 C16.1530837,3.51211304 15.538914,2.76599746 14.550271,2.48127219 L13.3112273,2.12440353 C13.2415167,2.10436616 13.1809181,2.06092975 13.1405779,2.00227731 L12.4142343,0.946312343 C11.8801699,0.169808969 10.8853344,-0.151452438 9.99515319,0.164943383 L8.77685457,0.598069047 C8.70771901,0.622662375 8.63155046,0.622706607 8.56245913,0.598069047 L7.3441605,0.164943383 C6.4539351,-0.151540903 5.45918806,0.169764736 4.92499089,0.94626811 L4.19873576,2.00218885 C4.16246502,2.05495834 4.10982822,2.09534271 4.04896416,2.11754748 L2.77210156,2.38581823 C2.75086991,2.39028572 2.72994789,2.39546093 2.70911433,2.40147657 C1.7883242,2.66665103 1.16406946,3.50437233 1.18609729,4.44236894 L1.18609729,5.71259665 C1.18609729,5.75833316 1.18702618,5.80628131 1.18804353,5.85560066 C1.18928204,5.91757054 1.19127251,6.01236101 1.18720311,6.07180963 L0.471342635,7.00998318 C-0.111996955,7.75932773 -0.111687327,8.80304027 0.472271519,9.55207519 L1.1877339,10.483835 C1.19100711,10.5438144 1.1893705,10.6391799 1.18808776,10.7134907 C1.18707041,10.7721874 1.18605306,10.8322995 1.18605306,10.8934732 L1.18605306,12.1661779 C1.16659071,13.0431335 1.79398598,13.7930531 2.78886572,14.0795477 L3.52825794,14.2924834 L3.52825794,22.6887607 L8.66936934,19.5883647 L13.8108346,22.6913262 L13.8108346,14.2925277 L14.5502268,14.0795919 C15.4435485,13.8222908 16.1741384,12.8067987 16.1530395,11.85624 L16.1530395,10.6278564 C16.1530395,10.577387 16.1530395,10.5086495 16.1556492,10.4601706 L16.8640344,9.5557465 C17.451178,8.80609232 17.4521068,7.75946043 16.8669537,7.00883313 Z M12.0397169,19.5535537 L12.0397169,19.5535537 L8.66981166,17.5198712 L5.29959682,19.5522709 L5.29959682,16.0261361 C5.67650285,16.3430627 6.15443614,16.5166757 6.64497572,16.5166315 C6.87843541,16.5166315 7.11485868,16.4773972 7.34411627,16.3958765 L8.5624149,15.9627508 C8.63155046,15.9381132 8.70771901,15.9381132 8.77681033,15.9627508 L9.99506473,16.3958322 C10.7059269,16.6485331 11.4831822,16.4942498 12.0396726,16.0265785 L12.0397169,19.5535537 L12.0397169,19.5535537 Z M15.4696457,8.46355503 L14.6829246,9.46803325 C14.6680182,9.48705327 14.653908,9.50669254 14.6406383,9.52686261 C14.3819218,9.91951544 14.3819218,10.3457408 14.3819218,10.6278121 L14.3819218,11.8676963 C14.3819218,11.8768967 14.3820545,11.886097 14.3823641,11.8953417 C14.3871854,12.0512616 14.1780094,12.3409409 14.0601738,12.3776097 L12.8211301,12.7344784 C12.3584128,12.867707 11.9535518,13.1590672 11.6813001,13.5548605 L10.9550449,14.6107813 C10.8747628,14.7274226 10.7240623,14.7751938 10.5885336,14.7269803 L9.37023496,14.2938546 C8.9185316,14.1332903 8.42095903,14.1332903 7.96921144,14.2938546 L6.75086858,14.7269803 C6.61547258,14.7751496 6.46463939,14.7274226 6.38444568,14.6107813 L5.65810208,13.5547278 C5.3858504,13.1589787 4.9810336,12.8676628 4.51831633,12.7344342 L3.27927261,12.3775655 C3.08588766,12.3218767 2.98145448,12.238277 2.95717078,12.2026256 C2.95739194,12.1943098 2.95752464,12.1860383 2.95752464,12.1776784 L2.95752464,10.8935174 C2.95752464,10.8427826 2.95845353,10.7929767 2.95929395,10.7442766 C2.96553074,10.3863021 2.97397917,9.89647025 2.63971338,9.46621971 L1.87497588,8.47027838 C1.8732508,8.46802252 1.87152573,8.46581089 1.86980066,8.46359926 C1.78536062,8.35571594 1.78536062,8.20510392 1.86980066,8.0972206 C1.87210076,8.09434548 1.87435662,8.09138189 1.87656825,8.08846254 L2.64068649,7.08712484 C2.97623503,6.65395494 2.96548651,6.13161211 2.95902855,5.81906453 C2.9582766,5.7823957 2.95748041,5.74669999 2.95748041,5.71264088 L2.95748041,4.43055884 C2.95748041,4.42135846 2.95734771,4.41215808 2.95703808,4.40291346 C2.95318985,4.27981412 3.04683027,4.15764367 3.17789148,4.11049171 L4.45528486,3.84208827 C4.47647228,3.83762077 4.49748277,3.83240133 4.51831633,3.82642993 C4.9810336,3.69315709 5.3858504,3.40179692 5.65814631,3.00604781 L6.38440145,1.95008284 C6.46468363,1.83352993 6.61538411,1.78571448 6.75091281,1.83388379 L7.96921144,2.26700945 C8.4209148,2.42757381 8.91848737,2.42757381 9.37023496,2.26700945 L10.5885336,1.83388379 C10.7242392,1.78575871 10.8748955,1.83348569 10.9550007,1.95008284 L11.6813443,3.00609204 C11.953596,3.40184115 12.3584128,3.69320132 12.8211301,3.82642993 L14.060218,4.18329858 C14.1356788,4.20506102 14.381966,4.2869798 14.381966,4.42843567 L14.381966,5.66831981 C14.381966,5.70600599 14.3814352,5.74528455 14.3809486,5.78549198 C14.3759504,6.18411622 14.3691385,6.72344436 14.7220263,7.12450139 L15.4646917,8.0908511 C15.4663283,8.09297427 15.4679649,8.09509743 15.4696015,8.09717636 C15.5540858,8.20510392 15.5540858,8.35576017 15.4696457,8.46355503 Z" id="Shape"></path>
            <polygon id="Path" points="8.17378724 4.69418516 6.53523463 6.6057414 7.78400952 7.67608197 7.78400952 11.8676963 9.55525994 11.8676963 9.55525994 4.69418516"></polygon>
        </g>
    </g>
</svg>