<?xml version="1.0" encoding="UTF-8"?>
<svg width="40px" height="40px" viewBox="0 0 40 40" version="1.1" xmlns="http://www.w3.org/2000/svg" xmlns:xlink="http://www.w3.org/1999/xlink">
    <!-- Generator: Sketch 54 (76480) - https://sketchapp.com -->
    <title>icon/menu/stamp</title>
    <desc>Created with Sketch.</desc>
    <g id="icon/menu/stamp" stroke="none" stroke-width="1" fill="none" fill-rule="evenodd">
        <g id="Group-Copy" transform="translate(8.000000, 8.000000)" fill="#233F5F">
            <path d="M19,18.5240627 L19,20 L24,20 L24,22 L0,22 L0,20 L5,20 L5,9 L1,9 L1,7 L12,0 L14.0945594,1.33290142 C13.7291087,1.91465103 13.4888712,2.56796729 13.4065898,3.26351704 L12,2.36841444 L4.72179413,7 L14.0456289,7 C14.3991845,7.72157594 14.9154606,8.39891119 15.6463856,9 L13,9 L13,13.6222051 C12.8196995,13.6569347 12.6621608,13.7661711 12.5732884,13.923799 L11,16.7363643 L11,9 L7,9 L7,20 L11,20 L11,18.5240627 L13,18.5240627 L13,20 L17,20 L17,18.5240627 L19,18.5240627 Z" id="Combined-Shape"></path>
        </g>
        <g id="Group-7" transform="translate(21.000000, 9.000000)" stroke="#233F5F" stroke-width="1.5">
            <path d="M2.44130251,13.6730769 L1.27463585,15.7730769 L10.7253642,15.7730769 L9.55869749,13.6730769 L2.44130251,13.6730769 Z" id="Rectangle"></path>
            <path d="M8.99436098,11.5527328 C8.96229818,11.56206 8.93091482,11.5738687 8.90050238,11.5880941 L8.92271495,11.5268401 L8.98225126,11.5268435 L8.99436098,11.5527328 Z M8.58121682,12.4396286 C8.58311278,12.4439174 8.58505887,12.4481962 8.58705532,12.4524645 L8.58712675,12.4522675 C8.58515524,12.4480526 8.58318526,12.4438396 8.58121682,12.4396286 Z M8.16528545,11.5267965 C6.68917577,8.19240307 6.34327514,6.23720295 7.36853836,5.36863224 C8.32654165,4.55704203 8.58333333,4.08464416 8.58333333,3.14281828 C8.58333333,1.83149142 7.4362828,0.75 6,0.75 C4.5637172,0.75 3.41666667,1.83149142 3.41666667,3.14281828 C3.41666667,4.1389259 3.65231948,4.58909829 4.6136393,5.35399836 C5.70334814,6.22105461 5.36060035,8.19100656 3.84754182,11.5265479 L8.16528545,11.5267965 Z M3.41920278,12.4429556 C3.41672255,12.4481229 3.41423993,12.4532931 3.41175492,12.4584662 C3.41887425,12.4436458 3.4254163,12.4285874 3.4313733,12.4133253 Z M9.17598564,11.5268546 L9.17600722,11.5268546 L9.17598564,11.5268546 Z" id="Path"></path>
        </g>
    </g>
</svg>