<?xml version="1.0" encoding="UTF-8"?>
<svg width="40px" height="40px" viewBox="0 0 40 40" version="1.1" xmlns="http://www.w3.org/2000/svg" xmlns:xlink="http://www.w3.org/1999/xlink">
    <!-- Generator: Sketch 54 (76480) - https://sketchapp.com -->
    <title>icon/menu/star</title>
    <desc>Created with Sketch.</desc>
    <g id="icon/menu/star" stroke="none" stroke-width="1" fill="none" fill-rule="evenodd">
        <g id="star" transform="translate(9.000000, 9.000000)" stroke="#233F5F" stroke-width="2">
            <path d="M20.8244147,8.83865878 L20.8245199,8.83855617 C20.9850458,8.68206794 21.0399174,8.45967127 20.9706662,8.24613925 C20.9010875,8.03210267 20.726238,7.88466914 20.5038513,7.85228293 L15.1767231,7.0780148 C14.6240019,6.99749833 14.1463176,6.65031068 13.8998291,6.14968765 L11.5182407,1.32168742 C11.4193441,1.12106696 11.2245352,1 11.0002203,1 C10.7763239,1 10.5815273,1.12108658 10.4825054,1.32196109 L8.10093958,6.14946242 C7.8540824,6.65083364 7.37590932,6.99795191 6.82295857,7.07850177 L1.49581604,7.85277187 C1.27400938,7.88493409 1.09889475,8.03259807 1.02954746,8.24592178 C0.960082604,8.46011192 1.0149542,8.68250859 1.17554337,8.83905851 L5.03009827,12.5973254 C5.42956268,12.9872631 5.61255366,13.5489468 5.51808961,14.0987129 L4.60864486,19.4062066 C4.5781584,19.5828454 4.62011732,19.7387998 4.73254699,19.8720835 C4.90365819,20.075517 5.21283797,20.1374594 5.44668072,20.014531 L10.2115175,17.5084623 C10.7008397,17.2518193 11.2976577,17.2524043 11.7899052,17.5089781 L16.554766,20.0148287 C16.6433639,20.0614992 16.7306363,20.0833333 16.822619,20.0833333 C16.992029,20.0833333 17.1539445,20.0074055 17.2692725,19.8704476 C17.3803293,19.7389846 17.4223151,19.5827034 17.391605,19.4050981 L16.4819333,14.0988468 C16.387535,13.5483894 16.5704404,12.9872601 16.9702748,12.5969615 L20.8244147,8.83865878 Z" id="Path"></path>
        </g>
    </g>
</svg>