<?xml version="1.0" encoding="UTF-8"?>
<svg width="40px" height="40px" viewBox="0 0 40 40" version="1.1" xmlns="http://www.w3.org/2000/svg" xmlns:xlink="http://www.w3.org/1999/xlink">
    <!-- Generator: Sketch 54 (76480) - https://sketchapp.com -->
    <title>icon/menu/translate</title>
    <desc>Created with Sketch.</desc>
    <g id="icon/menu/translate" stroke="none" stroke-width="1" fill="none" fill-rule="evenodd">
        <g id="language" transform="translate(8.000000, 7.000000)" fill="#233F5F" fill-rule="nonzero">
            <path d="M16.6503906,22.0703125 L19.7566406,24.4 C19.9775545,24.5656854 20.2909552,24.5209139 20.4566406,24.3 C20.5215517,24.2134519 20.5566406,24.1081851 20.5566406,24 L20.5566406,22.0703125 L24,22.0703125 C24.5522847,22.0703125 25,21.6225972 25,21.0703125 L25,9.83789062 C25,9.28560588 24.5522847,8.83789062 24,8.83789062 L16.1621094,8.83789062 L16.1621094,1 C16.1621094,0.44771525 15.7143941,-1.01453063e-16 15.1621094,0 L1,0 C0.44771525,1.01453063e-16 -6.76353751e-17,0.44771525 0,1 L0,12.2324219 C6.76353751e-17,12.7847066 0.44771525,13.2324219 1,13.2324219 L4.44335938,13.2324219 L4.44335938,15.1621094 C4.44335938,15.4382517 4.667217,15.6621094 4.94335938,15.6621094 C5.05154448,15.6621094 5.15681129,15.6270204 5.24335937,15.5621094 L8.34960938,13.2324219 L8.83789062,13.2324219 L8.83789062,21.0703125 C8.83789062,21.6225972 9.28560588,22.0703125 9.83789062,22.0703125 L16.6503906,22.0703125 Z M22.5351562,20.6054688 L20.0917969,20.6054688 C19.5395121,20.6054688 19.0917969,21.053184 19.0917969,21.6054688 L19.0917969,22.0703125 L17.4053385,20.8054687 C17.2322424,20.6756466 17.0217088,20.6054687 16.8053385,20.6054687 L11.3027344,20.6054688 C10.7504496,20.6054688 10.3027344,20.1577535 10.3027344,19.6054688 L10.3027344,11.3027344 C10.3027344,10.7504496 10.7504496,10.3027344 11.3027344,10.3027344 L22.5351562,10.3027344 C23.087441,10.3027344 23.5351562,10.7504496 23.5351562,11.3027344 L23.5351562,19.6054688 C23.5351562,20.1577535 23.087441,20.6054688 22.5351562,20.6054688 Z M7.59466146,11.9675781 L5.90820312,13.2324219 L5.90820312,12.7675781 C5.90820312,12.2152934 5.46048787,11.7675781 4.90820312,11.7675781 L2.46484375,11.7675781 C1.912559,11.7675781 1.46484375,11.3198629 1.46484375,10.7675781 L1.46484375,2.46484375 C1.46484375,1.912559 1.912559,1.46484375 2.46484375,1.46484375 L13.6972656,1.46484375 C14.2495504,1.46484375 14.6972656,1.912559 14.6972656,2.46484375 L14.6972656,7.83789063 C14.6972656,8.39017537 14.2495504,8.83789062 13.6972656,8.83789062 L11.4877701,8.83789062 L8.5526764,2.96770328 C8.42918177,2.72071403 8.12884525,2.62060186 7.881856,2.74409648 C7.78509393,2.79247752 7.70663365,2.87093696 7.65825158,2.96769852 L4.74423983,8.79562018 C4.62074673,9.0425998 4.72084446,9.34292746 4.9678182,9.46643231 L5.38355115,9.67438822 C5.63053321,9.79789723 5.93087556,9.69780255 6.05438457,9.45082049 C6.05438891,9.45081181 6.05439325,9.45080313 6.05439759,9.45079445 L6.72702788,8.10546875 L9.48390962,8.10546875 L9.85012056,8.83789062 L9.83789062,8.83789062 C9.28560588,8.83789062 8.83789062,9.28560588 8.83789062,9.83789062 L8.83789062,11.7675781 L8.19466146,11.7675781 C7.97829124,11.7675781 7.76775763,11.837756 7.59466146,11.9675781 Z M8.75148774,6.640625 L7.45944976,6.640625 L8.10546875,5.34858701 L8.75148774,6.640625 Z M17.1328051,12.8883333 C17.0665759,14.7427503 16.5021492,16.4888635 14.2351909,17.79371 C14.0611632,17.8143961 13.8932957,17.7146189 13.7315883,17.4943782 C13.5698809,17.2741374 13.537735,17.0678504 13.6351505,16.875517 C14.9100858,16.2264027 15.7668591,15.0030734 15.9103051,13.8483333 L14.3428051,13.8483333 C14.0777084,13.8483333 13.8628051,13.63343 13.8628051,13.3683333 C13.8628051,13.1032367 14.0777084,12.8883333 14.3428051,12.8883333 L17.1328051,12.8883333 Z M19.2965551,15.6633333 L18.9103051,15.6633333 L18.9103051,18.4558333 C18.9103051,18.7319757 18.6864474,18.9558333 18.4103051,18.9558333 L18.2478051,18.9558333 C17.9716627,18.9558333 17.7478051,18.7319757 17.7478051,18.4558333 L17.7478051,12.7058333 C17.7478051,12.429691 17.9716627,12.2058333 18.2478051,12.2058333 L18.4103051,12.2058333 C18.6864474,12.2058333 18.9103051,12.429691 18.9103051,12.7058333 L18.9103051,14.6958333 L19.2965551,14.6958333 C19.5637228,14.6958333 19.7803051,14.9124156 19.7803051,15.1795833 C19.7803051,15.4467511 19.5637228,15.6633333 19.2965551,15.6633333 Z" id="Shape"></path>
        </g>
    </g>
</svg>