<?xml version="1.0" encoding="UTF-8"?>
<svg width="40px" height="40px" viewBox="0 0 40 40" version="1.1" xmlns="http://www.w3.org/2000/svg" xmlns:xlink="http://www.w3.org/1999/xlink">
    <!-- Generator: Sketch 54 (76480) - https://sketchapp.com -->
    <title>icon/menu/TXar_01</title>
    <desc>Created with Sketch.</desc>
    <defs>
        <path d="M21.7603333,14.99 C21.975001,14.99 22.1336661,15.0646659 22.2363333,15.214 C22.3390005,15.3633341 22.3903333,15.5406656 22.3903333,15.746 C22.3903333,15.9513344 22.3390005,16.1286659 22.2363333,16.278 C22.1336661,16.4273341 21.975001,16.502 21.7603333,16.502 L19.3523333,16.502 L19.3523333,24.258 C19.3523333,24.528668 19.2636675,24.7246661 19.0863333,24.846 C18.9089991,24.9673339 18.6990012,25.028 18.4563333,25.028 C18.2136654,25.028 18.0036675,24.9673339 17.8263333,24.846 C17.6489991,24.7246661 17.5603333,24.528668 17.5603333,24.258 L17.5603333,16.502 L15.1383333,16.502 C14.9236655,16.502 14.7650005,16.4273341 14.6623333,16.278 C14.5596661,16.1286659 14.5083333,15.9513344 14.5083333,15.746 C14.5083333,15.5406656 14.5596661,15.3633341 14.6623333,15.214 C14.7650005,15.0646659 14.9236655,14.99 15.1383333,14.99 L21.7603333,14.99 Z M25.889,19.28 C26.0116673,19.28 26.102333,19.3226662 26.161,19.408 C26.219667,19.4933338 26.249,19.5946661 26.249,19.712 C26.249,19.8293339 26.219667,19.9306662 26.161,20.016 C26.102333,20.1013338 26.0116673,20.144 25.889,20.144 L24.513,20.144 L24.513,24.576 C24.513,24.7306674 24.4623338,24.8426663 24.361,24.912 C24.2596662,24.9813337 24.1396674,25.016 24.001,25.016 C23.8623326,25.016 23.7423338,24.9813337 23.641,24.912 C23.5396662,24.8426663 23.489,24.7306674 23.489,24.576 L23.489,20.144 L22.105,20.144 C21.9823327,20.144 21.891667,20.1013338 21.833,20.016 C21.774333,19.9306662 21.745,19.8293339 21.745,19.712 C21.745,19.5946661 21.774333,19.4933338 21.833,19.408 C21.891667,19.3226662 21.9823327,19.28 22.105,19.28 L25.889,19.28 Z" id="path-1"></path>
    </defs>
    <g id="icon/menu/TXar_01" stroke="none" stroke-width="1" fill="none" fill-rule="evenodd">
        <path d="M16.2666667,9 L16.2666667,10.8333333 L10.7692308,10.8333333 C10.2594295,10.8333333 9.84615385,11.243739 9.84615385,11.75 L9.84615385,16.2666667 L8,16.2666667 L8,11.75 C8,10.2312169 9.23982685,9 10.7692308,9 L16.2666667,9 Z M23.7333333,9 L29.2307692,9 C30.7601732,9 32,10.2312169 32,11.75 L32,16.2666667 L30.1538462,16.2666667 L30.1538462,11.75 C30.1538462,11.243739 29.7405705,10.8333333 29.2307692,10.8333333 L23.7333333,10.8333333 L23.7333333,9 Z M32,23.7333333 L32,28.25 C32,29.7687831 30.7601732,31 29.2307692,31 L23.7333333,31 L23.7333333,29.1666667 L29.2307692,29.1666667 C29.7405705,29.1666667 30.1538462,28.756261 30.1538462,28.25 L30.1538462,23.7333333 L32,23.7333333 Z M16.2666667,31 L10.7692308,31 C9.23982685,31 8,29.7687831 8,28.25 L8,23.7333333 L9.84615385,23.7333333 L9.84615385,28.25 C9.84615385,28.756261 10.2594295,29.1666667 10.7692308,29.1666667 L16.2666667,29.1666667 L16.2666667,31 Z" id="Combined-Shape" fill="#233F5F" fill-rule="nonzero"></path>
        <g id="TT" fill-rule="nonzero" fill="#233F5F">
            <use xlink:href="#path-1"></use>
            <use stroke="#233F5F" stroke-width="0.5" xlink:href="#path-1"></use>
        </g>
    </g>
</svg>