<?xml version="1.0" encoding="UTF-8"?>
<svg width="40px" height="40px" viewBox="0 0 40 40" version="1.1" xmlns="http://www.w3.org/2000/svg" xmlns:xlink="http://www.w3.org/1999/xlink">
    <!-- Generator: Sketch 54 (76480) - https://sketchapp.com -->
    <title>icon/menu/view</title>
    <desc>Created with Sketch.</desc>
    <g id="icon/menu/view" stroke="none" stroke-width="1" fill="none" fill-rule="evenodd">
        <g id="headphones" transform="translate(9.000000, 9.000000)" fill="#233F5F" fill-rule="nonzero">
            <path d="M22,10.999957 C21.999957,8.06175391 20.8557852,5.29942188 18.7781602,3.22179687 C16.7005352,1.14417188 13.9382031,0 11,0 C8.06179688,0 5.29942188,1.14421484 3.22179688,3.22179688 C1.14421484,5.29946484 0,8.06179688 0,11 L0,17.015625 C0,18.4372031 1.15654688,19.59375 2.578125,19.59375 L2.71055469,19.59375 C2.79937109,20.9354062 3.91853516,22 5.28232031,22 L7.4765625,22 L7.4765625,10.4414062 L5.28232031,10.4414062 C4.02221875,10.4414062 2.97107422,11.3503672 2.74836719,12.546875 L2.578125,12.546875 C2.27687109,12.546875 1.98773437,12.5992969 1.71875,12.6946875 L1.71875,11 C1.71875,5.88229297 5.88229297,1.71875 11,1.71875 C16.1176641,1.71875 20.281207,5.88229297 20.28125,10.999957 L20.28125,12.6946875 C20.0122656,12.5992969 19.7231289,12.546875 19.421875,12.546875 L19.2516328,12.546875 C19.0289258,11.3503672 17.9777812,10.4414062 16.7176797,10.4414062 L14.5234375,10.4414062 L14.5234375,22 L16.7176797,22 C18.0814219,22 19.2006289,20.9354062 19.2894453,19.59375 L19.421875,19.59375 C20.8434531,19.59375 22,18.4372031 22,17.015625 L22,15.125 C22,15.067207 21.9973789,15.0100156 21.9936406,14.953125 L22,14.953125 L22,10.999957 Z M4.42294531,13.0195312 C4.42294531,12.5456719 4.80846094,12.1601562 5.28232031,12.1601562 L5.7578125,12.1601562 L5.7578125,20.28125 L5.28232031,20.28125 C4.80846094,20.28125 4.42294531,19.8957344 4.42294531,19.421875 L4.42294531,13.0195312 Z M2.578125,14.265625 L2.70419531,14.265625 L2.70419531,17.875 L2.578125,17.875 C2.10426563,17.875 1.71875,17.4894844 1.71875,17.015625 L1.71875,15.125 C1.71875,14.6511406 2.10426563,14.265625 2.578125,14.265625 Z M17.5770547,19.421875 C17.5770547,19.8957344 17.1915391,20.28125 16.7176797,20.28125 L16.2421875,20.28125 L16.2421875,12.1601562 L16.7176797,12.1601562 C17.1915391,12.1601562 17.5770547,12.5456719 17.5770547,13.0195312 L17.5770547,19.421875 Z M20.28125,17.015625 C20.28125,17.4894844 19.8957344,17.875 19.421875,17.875 L19.2958047,17.875 L19.2958047,14.265625 L19.421875,14.265625 C19.8957344,14.265625 20.28125,14.6511406 20.28125,15.125 L20.28125,17.015625 Z" id="Shape"></path>
        </g>
    </g>
</svg>